<?xml version="1.0" encoding="UTF-8" standalone="no"?>
<!-- Created with Inkscape (http://www.inkscape.org/) -->

<svg
   width="88mm"
   height="8.2080698mm"
   viewBox="0 0 88 8.2080696"
   version="1.1"
   id="svg8"
   inkscape:version="1.1.2 (0a00cf5339, 2022-02-04)"
   sodipodi:docname="street_lamp_bent_mast.svg"
   xmlns:inkscape="http://www.inkscape.org/namespaces/inkscape"
   xmlns:sodipodi="http://sodipodi.sourceforge.net/DTD/sodipodi-0.dtd"
   xmlns="http://www.w3.org/2000/svg"
   xmlns:svg="http://www.w3.org/2000/svg"
   xmlns:rdf="http://www.w3.org/1999/02/22-rdf-syntax-ns#"
   xmlns:cc="http://creativecommons.org/ns#"
   xmlns:dc="http://purl.org/dc/elements/1.1/">
  <defs
     id="defs2" />
  <sodipodi:namedview
     id="base"
     pagecolor="#ffffff"
     bordercolor="#666666"
     borderopacity="1.0"
     inkscape:pageopacity="0.0"
     inkscape:pageshadow="2"
     inkscape:zoom="2.8"
     inkscape:cx="245.71429"
     inkscape:cy="46.785714"
     inkscape:document-units="mm"
     inkscape:current-layer="layer1"
     showgrid="false"
     inkscape:window-width="1920"
     inkscape:window-height="1043"
     inkscape:window-x="0"
     inkscape:window-y="0"
     inkscape:window-maximized="1"
     inkscape:pagecheckerboard="0" />
  <metadata
     id="metadata5">
    <rdf:RDF>
      <cc:Work
         rdf:about="">
        <dc:format>image/svg+xml</dc:format>
        <dc:type
           rdf:resource="http://purl.org/dc/dcmitype/StillImage" />
        <dc:title />
      </cc:Work>
    </rdf:RDF>
  </metadata>
  <g
     inkscape:label="Ebene 1"
     inkscape:groupmode="layer"
     id="layer1"
     transform="translate(-41.921131,-284.29541)">
    <path
       style="opacity:1;fill:#707070;fill-opacity:1;stroke-width:0;stroke-miterlimit:4;stroke-dasharray:none"
       d="m 122.35983,292.48132 c -0.83283,-0.15414 -1.8322,-0.45302 -2.58048,-0.77173 -0.48111,-0.20491 -1.11092,-0.46178 -1.39958,-0.57083 -0.92088,-0.34786 -1.00451,-0.40251 -1.00526,-0.65687 l -6.8e-4,-0.23284 h -1.34617 c -0.82601,0 -1.62878,-0.0498 -2.07751,-0.12877 -1.20933,-0.21296 -1.12084,-0.14121 -1.12084,-0.4095 l -27.602776,0.0258 c -0.243803,-0.26875 -0.270541,-0.35332 -0.270541,-0.85558 0,-0.53291 -0.01708,-1.38137 0.302202,-1.69041 0.183663,-0.17777 0.449359,-0.35135 0.590446,-0.38574 l 26.973849,0.256 0.003,-0.16567 0.94035,-0.14426 c 0.58835,-0.0902 1.43965,-0.14394 2.27431,-0.14341 l 1.33397,8.5e-4 v -0.24039 c 0,-0.22903 0.061,-0.26567 1.29023,-0.77535 2.1345,-0.88501 2.26975,-0.93344 3.10748,-1.11265 1.13235,-0.24224 2.72221,-0.24642 3.78107,-0.01 1.09175,0.24382 1.68096,0.47292 2.42438,0.94266 0.7869,0.49721 1.32138,1.06762 1.67569,1.78833 0.2335,0.47496 0.27026,0.6431 0.26839,1.22767 -0.002,0.51704 -0.0486,0.77649 -0.19806,1.09632 -0.60313,1.29001 -1.96484,2.27425 -3.8205,2.76146 -0.53842,0.14137 -1.00237,0.18968 -2.0119,0.20951 -0.72166,0.0142 -1.41051,0.008 -1.53078,-0.0147 z"
       id="path826"
       inkscape:connector-curvature="0"
       sodipodi:nodetypes="cscscscccssccccscscscssccsccc" />
  </g>
</svg>
