<?xml version="1.0" encoding="UTF-8" standalone="no"?>
<svg
   viewBox="0 0 600 600"
   height="600"
   width="600"
   xml:space="preserve"
   version="1.1"
   id="svg3484"
   sodipodi:docname="empty_sign.svg"
   inkscape:version="1.1.2 (0a00cf5339, 2022-02-04)"
   xmlns:inkscape="http://www.inkscape.org/namespaces/inkscape"
   xmlns:sodipodi="http://sodipodi.sourceforge.net/DTD/sodipodi-0.dtd"
   xmlns="http://www.w3.org/2000/svg"
   xmlns:svg="http://www.w3.org/2000/svg"
   xmlns:rdf="http://www.w3.org/1999/02/22-rdf-syntax-ns#"
   xmlns:cc="http://creativecommons.org/ns#"
   xmlns:dc="http://purl.org/dc/elements/1.1/"><sodipodi:namedview
     id="namedview14"
     pagecolor="#505050"
     bordercolor="#eeeeee"
     borderopacity="1"
     inkscape:pageshadow="0"
     inkscape:pageopacity="0"
     inkscape:pagecheckerboard="0"
     showgrid="false"
     inkscape:zoom="1.3033333"
     inkscape:cx="291.94373"
     inkscape:cy="239.00256"
     inkscape:window-width="1920"
     inkscape:window-height="1016"
     inkscape:window-x="0"
     inkscape:window-y="0"
     inkscape:window-maximized="1"
     inkscape:current-layer="svg3484" /><metadata
     id="metadata3490"><rdf:RDF><cc:Work
         rdf:about=""><dc:format>image/svg+xml</dc:format><dc:type
           rdf:resource="http://purl.org/dc/dcmitype/StillImage" /></cc:Work></rdf:RDF></metadata><defs
     id="defs3488" /><path
     id="path3496"
     style="fill:#ffffff;fill-opacity:1;fill-rule:nonzero;stroke:none;stroke-width:1.25"
     d="M 279.6975,590.5475 8.2275,319.0825 c -12.475,-12.47125 -8.355,-30.84 0.27375,-39.94625 L 278.78875,9.03375 c 13.8725,-13.8575 32.955,-8.97 41.84125,-0.09375 l 269.135,268.49625 c 12.90125,12.89125 13.18375,30.1175 0.645,42.65125 L 320.2,590.615 c -20.37125,20.3475 -40.5025,-0.0675 -40.5025,-0.0675 z" /><path
     id="path3496-3"
     style="fill:#808080;fill-opacity:1;fill-rule:nonzero;stroke:none;stroke-width:1.16768"
     d="M 281.03446,571.41326 27.442596,317.82607 C 15.78916,306.17613 19.63783,289.01709 27.698318,280.51055 L 280.18556,28.196125 c 12.9589,-12.94489 30.78469,-8.379265 39.08572,-0.08753 L 570.68191,278.92255 c 12.05162,12.04227 12.31552,28.13406 0.60253,39.84238 L 318.86959,571.47636 c -19.02966,19.00748 -37.83513,-0.0631 -37.83513,-0.0631 z" /><path
     id="path3502"
     style="fill:#000000;fill-opacity:1;fill-rule:nonzero;stroke:none;stroke-width:1.25"
     d="M 312.97375,15.3275 584.10125,286.44 c 13.28625,13.2275 0.25375,25.67375 0.25375,25.67375 l -271.58625,271.3975 c 0,0 -12.45625,13.02625 -25.68875,-0.25 L 15.77625,312.31875 c -13.2475,-13.305 -0.005,-25.86375 -0.005,-25.86375 90.41,-90.44375 180.865,-180.77125 271.31875,-271.1325 0,0 12.5725,-13.2325 25.88375,0.005 z m -7.74875,7.74375 c -5.215,-5.24875 -10.46375,0.1175 -10.46375,0.1175 -90.40125,90.2775 -180.7625,180.605 -271.11875,270.9325 0,0 -5.37125,5.24375 -0.1175,10.45375 l 271.27,270.90875 c 5.615,5.425 10.26375,-0.04 10.26375,-0.04 90.55625,-90.2 180.88375,-180.62 271.225,-271.035 0,0 5.46375,-4.6475 0.04,-10.25375 z" /><path
     id="path3508"
     style="fill:#000000;fill-opacity:1;fill-rule:nonzero;stroke:none;stroke-width:1.25"
     d="m 590.025,277.1725 c 6.50875,6.50375 9.8525,14.13125 9.97,21.71875 0.1175,7.58875 -2.9925,15.1275 -9.32625,21.455 -90.06875,90.17625 -180.13625,180.3525 -270.205,270.5275 -10.27375,10.26375 -20.6,10.27875 -28.27125,7.68625 -7.67625,-2.59375 -12.75875,-7.75375 -12.75875,-7.75375 L 7.96875,319.34125 C 1.655,313.0275 -0.46875,305.2 0.0825,297.8225 0.64,290.44375 3.8575,283.50625 8.2375,278.88125 l 0.005,-0.009 L 278.53,8.775 c 7.0125,-7.0075 15.37125,-9.2875 23.07625,-8.6825 7.71,0.60625 14.77125,4.0775 19.2825,8.58375 z m -0.26,0.26375 L 320.63,8.94 C 311.74375,0.06375 292.66125,-4.82375 278.78875,9.03375 L 8.50125,279.13625 C -0.1275,288.2425 -4.2475,306.61125 8.2275,319.0825 l 271.47,271.465 c 0,0 20.13125,20.415 40.5025,0.0675 90.07375,-90.175 180.14125,-180.35125 270.21,-270.5275 12.53875,-12.53375 12.25625,-29.76 -0.645,-42.65125 z" /></svg>
