<?xml version="1.0" encoding="UTF-8" standalone="no"?>
<!-- Created with Inkscape (http://www.inkscape.org/) -->

<svg
   width="200mm"
   height="200mm"
   viewBox="0 0 199.99999 200.00001"
   version="1.1"
   id="svg8"
   inkscape:version="1.1.2 (0a00cf5339, 2022-02-04)"
   sodipodi:docname="street_name_sign.svg"
   xmlns:inkscape="http://www.inkscape.org/namespaces/inkscape"
   xmlns:sodipodi="http://sodipodi.sourceforge.net/DTD/sodipodi-0.dtd"
   xmlns="http://www.w3.org/2000/svg"
   xmlns:svg="http://www.w3.org/2000/svg"
   xmlns:rdf="http://www.w3.org/1999/02/22-rdf-syntax-ns#"
   xmlns:cc="http://creativecommons.org/ns#"
   xmlns:dc="http://purl.org/dc/elements/1.1/">
  <defs
     id="defs2" />
  <sodipodi:namedview
     id="base"
     pagecolor="#ffffff"
     bordercolor="#666666"
     borderopacity="1.0"
     inkscape:pageopacity="0.0"
     inkscape:pageshadow="2"
     inkscape:zoom="0.98994949"
     inkscape:cx="340.42141"
     inkscape:cy="572.75649"
     inkscape:document-units="mm"
     inkscape:current-layer="layer1"
     showgrid="false"
     inkscape:window-width="1920"
     inkscape:window-height="1043"
     inkscape:window-x="0"
     inkscape:window-y="0"
     inkscape:window-maximized="1"
     inkscape:pagecheckerboard="0"
     fit-margin-top="0"
     fit-margin-left="0"
     fit-margin-right="0"
     fit-margin-bottom="0" />
  <metadata
     id="metadata5">
    <rdf:RDF>
      <cc:Work
         rdf:about="">
        <dc:format>image/svg+xml</dc:format>
        <dc:type
           rdf:resource="http://purl.org/dc/dcmitype/StillImage" />
      </cc:Work>
    </rdf:RDF>
  </metadata>
  <g
     inkscape:label="Ebene 1"
     inkscape:groupmode="layer"
     id="layer1"
     transform="translate(175.40133,-103.58317)">
    <path
       style="fill:#ededed;fill-opacity:0.99616873;stroke:none;stroke-width:0.264583px;stroke-linecap:butt;stroke-linejoin:miter;stroke-opacity:1"
       d="m -144.78853,182.31074 0.0689,44.09948 57.522453,21.25315 44.889795,-11.56045 -7.655809,-9.88167 z"
       id="path1883"
       sodipodi:nodetypes="cccccc" />
    <path
       style="fill:#ededed;fill-opacity:0.99616873;stroke:none;stroke-width:0.264583px;stroke-linecap:butt;stroke-linejoin:miter;stroke-opacity:1"
       d="m -154.28762,262.55783 -0.21716,34.61559 135.745772,-21.94638 0.107534,-46.61452 C -63.202987,239.99086 -109.6742,251.424 -154.28762,262.55783 Z"
       id="path1883-3"
       sodipodi:nodetypes="ccccc" />
    <path
       style="fill:#1b1c1f;fill-opacity:1;stroke-width:0.153435"
       d="m -154.26047,303.19893 c -2.71134,-0.80853 -4.98149,-2.63634 -6.18907,-4.98317 -1.26232,-2.45319 -1.17581,-1.06515 -1.17581,-18.86733 0,-17.75468 -0.063,-16.68455 1.11763,-18.98187 0.44825,-0.87223 0.9662,-1.56486 1.78961,-2.39317 2.16529,-2.17819 1.0296,-1.82251 24.75165,-7.75189 11.37268,-2.84263 20.65605,-5.18996 20.62972,-5.2163 -0.0263,-0.0263 -7.62738,-2.63819 -16.8912,-5.80412 -9.26382,-3.16592 -17.26985,-5.98199 -17.79116,-6.25793 -0.54077,-0.28623 -1.44917,-0.99596 -2.11507,-1.6525 -0.94512,-0.93185 -1.30339,-1.42812 -1.8831,-2.60843 -0.40679,-0.82827 -0.80672,-1.92138 -0.92625,-2.53168 -0.17109,-0.87358 -0.21403,-4.87753 -0.23008,-21.45224 -0.0194,-19.99203 -0.0138,-20.40308 0.29224,-21.69176 0.46641,-1.96383 1.21086,-3.26558 2.75605,-4.8192 1.51002,-1.51826 2.77888,-2.23272 4.91613,-2.76813 1.05841,-0.26514 1.57654,-0.31007 2.76183,-0.23951 1.86444,0.11099 2.61591,0.3444 5.52503,1.71606 4.65609,2.19535 7.99636,3.77382 15.11336,7.14192 3.96629,1.87704 9.07568,4.29281 11.35419,5.36839 2.27851,1.07557 5.69628,2.69692 7.59503,3.603 12.944422,6.17701 16.559302,7.88642 25.546942,12.08069 1.097061,0.51196 4.100552,1.92936 6.674425,3.14976 4.563882,2.16397 9.774548,4.6257 21.174035,10.00345 3.080209,1.4531 6.152745,2.92751 6.82786,3.27645 1.516659,0.78392 3.151693,2.36336 3.88743,3.75527 0.376913,0.71305 0.577222,0.94597 0.766392,0.89116 0.140854,-0.0408 3.570296,-0.9132 7.62098,-1.93863 l 7.364882,-1.86442 1.917939,0.0601 c 1.58325,0.0496 2.114319,0.13056 3.043323,0.46373 3.192185,1.14482 5.460738,3.52449 6.454504,6.77068 0.320651,1.04739 0.322013,1.1448 0.322013,22.96898 v 21.91713 l -0.379656,1.19704 c -0.540461,1.70403 -1.34782,2.96349 -2.782853,4.34118 -2.123464,2.03861 -3.235024,2.42457 -9.956185,3.45708 -1.434618,0.22038 -4.09288,0.64096 -5.907249,0.93461 -1.814369,0.29367 -4.369062,0.70068 -5.677096,0.90449 -1.308034,0.20381 -5.45078,0.85996 -9.206102,1.45809 -10.470899,1.6678 -11.476111,1.82739 -13.041979,2.07046 -0.801698,0.12445 -2.527842,0.39949 -3.835876,0.61122 -1.308034,0.21172 -5.243643,0.83484 -8.745797,1.38469 -7.05689,1.10797 -9.785693,1.54316 -11.047323,1.76184 -0.464141,0.0805 -1.568874,0.25327 -2.454961,0.38405 -0.886087,0.1308 -1.990816,0.30361 -2.454966,0.38407 -0.46414,0.0804 -1.74148,0.28737 -2.83854,0.45983 -1.09706,0.17246 -2.37441,0.38037 -2.83855,0.46201 -0.46414,0.0816 -1.56887,0.25705 -2.45496,0.38979 -1.55026,0.23223 -2.49583,0.38259 -10.970612,1.7444 -2.10973,0.33901 -7.15007,1.14077 -11.20075,1.7817 -8.76309,1.38653 -17.15802,2.71993 -26.45551,4.20202 -7.69329,1.22636 -8.82171,1.30265 -10.75249,0.7269 z m 10.02705,-16.05822 c 1.02529,-0.16894 3.83197,-0.61609 6.23706,-0.99371 2.40509,-0.3776 7.20378,-1.13918 10.66374,-1.69239 3.45996,-0.55321 7.77532,-1.24043 9.58969,-1.52717 1.81437,-0.28672 5.26665,-0.83423 7.67175,-1.21664 2.40509,-0.38244 7.20377,-1.14477 10.663744,-1.6941 6.661958,-1.05767 13.537189,-2.15123 22.286432,-3.54486 4.791055,-0.76314 14.02767,-2.2315 20.215067,-3.21361 5.100101,-0.80952 13.205172,-2.09863 15.880527,-2.52579 7.191945,-1.1483 14.555307,-2.31055 14.638331,-2.31055 0.05028,0 0.09143,-6.62839 0.09143,-14.72976 0,-8.10137 -0.04163,-14.72976 -0.09252,-14.72976 -0.08678,0 -31.399768,7.84985 -87.212021,21.86317 -13.29131,3.33718 -26.15108,6.56596 -28.57728,7.17506 l -4.41125,1.10747 v 9.16989 c 0,8.30458 0.0232,9.16988 0.24557,9.16988 0.13506,0 1.08444,-0.13821 2.10973,-0.30713 z m 72.037533,-52.40244 c 7.56558,-1.9013 13.859168,-3.49801 13.985752,-3.54825 0.285046,-0.11311 -1.090423,-0.77887 -20.867166,-10.10025 -2.91143,-1.37225 -7.951767,-3.75394 -11.200757,-5.29265 -3.24898,-1.53871 -9.670248,-4.57872 -14.269462,-6.75557 -4.59922,-2.17685 -11.02047,-5.21655 -14.26946,-6.7549 -3.24898,-1.53835 -6.90841,-3.26446 -8.13206,-3.83579 -1.22364,-0.57134 -4.19261,-1.97466 -6.5977,-3.11849 l -4.3729,-2.07968 -0.0392,13.52515 c -0.0216,7.43883 0.013,13.57709 0.0767,13.64058 0.0638,0.0635 2.84322,1.04459 6.1766,2.18022 3.33338,1.13563 8.71895,2.97489 11.96794,4.08724 3.24898,1.11234 10.04999,3.43664 15.11335,5.16508 5.063364,1.72845 11.277472,3.85932 13.809152,4.73525 2.53168,0.87593 4.661675,1.59629 4.733325,1.6008 0.07165,0.005 6.320292,-1.54743 13.885871,-3.44874 z"
       id="path19"
       inkscape:connector-curvature="0" />
  </g>
</svg>
