<?xml version="1.0" encoding="UTF-8" standalone="no"?>
<!-- Created with Inkscape (http://www.inkscape.org/) -->

<svg
   xmlns:dc="http://purl.org/dc/elements/1.1/"
   xmlns:cc="http://creativecommons.org/ns#"
   xmlns:rdf="http://www.w3.org/1999/02/22-rdf-syntax-ns#"
   xmlns:svg="http://www.w3.org/2000/svg"
   xmlns="http://www.w3.org/2000/svg"
   xmlns:sodipodi="http://sodipodi.sourceforge.net/DTD/sodipodi-0.dtd"
   xmlns:inkscape="http://www.inkscape.org/namespaces/inkscape"
   width="65.489677mm"
   height="40.132mm"
   viewBox="0 0 65.489677 40.132"
   version="1.1"
   id="svg8"
   inkscape:version="0.92.3 (2405546, 2018-03-11)"
   sodipodi:docname="buffer_marking.svg">
  <defs
     id="defs2" />
  <sodipodi:namedview
     id="base"
     pagecolor="#ffffff"
     bordercolor="#666666"
     borderopacity="1.0"
     inkscape:pageopacity="0.0"
     inkscape:pageshadow="2"
     inkscape:zoom="2.8"
     inkscape:cx="138.48138"
     inkscape:cy="75.594856"
     inkscape:document-units="mm"
     inkscape:current-layer="layer2"
     showgrid="false"
     inkscape:window-width="1920"
     inkscape:window-height="1053"
     inkscape:window-x="0"
     inkscape:window-y="27"
     inkscape:window-maximized="1" />
  <metadata
     id="metadata5">
    <rdf:RDF>
      <cc:Work
         rdf:about="">
        <dc:format>image/svg+xml</dc:format>
        <dc:type
           rdf:resource="http://purl.org/dc/dcmitype/StillImage" />
        <dc:title />
      </cc:Work>
    </rdf:RDF>
  </metadata>
  <g
     inkscape:groupmode="layer"
     id="layer2"
     inkscape:label="road background"
     style="display:inline">
    <rect
       style="opacity:1;fill:#a8a8a7;fill-opacity:1;stroke:none;stroke-width:5.0181222;stroke-linejoin:round;stroke-miterlimit:4;stroke-dasharray:none;stroke-dashoffset:0;stroke-opacity:1"
       id="rect847"
       width="14.945235"
       height="19.687153"
       x="25.265106"
       y="0.29418796" />
  </g>
  <g
     inkscape:label="marking"
     inkscape:groupmode="layer"
     id="layer1"
     transform="translate(-38.277653,-49.931487)"
     style="display:inline;opacity:1">
    <path
       style="fill:#000000;stroke-width:0.04233333"
       d=""
       id="path826"
       inkscape:connector-curvature="0" />
    <path
       style="display:inline;fill:#fcfcfc;stroke:none;stroke-width:0.04233333;opacity:0.15"
       d="m 63.193845,70.015628 c -0.06009,-0.0601 -0.06652,-0.99972 -0.06652,-9.71074 v -9.644216 l -1.026583,-0.02492 c -0.564621,-0.01371 -4.750859,-0.03488 -9.302751,-0.04705 -4.551892,-0.01217 -8.419042,-0.03344 -8.593667,-0.04727 -0.233999,-0.01853 -0.337396,-0.01004 -0.393152,0.03228 -0.05162,0.03919 -0.147899,0.339608 -0.303114,0.945846 -0.125104,0.488631 -0.264109,0.961606 -0.3089,1.051055 l -0.08144,0.162633 -0.01277,-0.416633 c -0.02065,-0.673935 -0.01591,-1.201898 0.01342,-1.496134 0.03498,-0.350943 0.130996,-0.755309 0.194394,-0.818707 0.07507,-0.07507 55.348824,-0.07063 55.423905,0.0045 0.0395,0.03948 0.0581,0.339903 0.0708,1.141941 0.0154,0.967982 0.01021,1.082483 -0.0468,1.03521 -0.0352,-0.02923 -0.0738,-0.09543 -0.0857,-0.147108 -0.15594,-0.675775 -0.379277,-1.415544 -0.441708,-1.463062 -0.0573,-0.04359 -0.180951,-0.05134 -0.51965,-0.03257 -0.24448,0.01354 -4.16878,0.03488 -8.720672,0.04742 -4.551889,0.01253 -8.680974,0.03397 -9.175744,0.04763 l -0.899584,0.02484 v 9.644289 c 0,8.711096 -0.0064,9.650726 -0.06652,9.710816 -0.06769,0.0677 -0.487445,0.095 -0.628513,0.0408 -0.06079,-0.0233 -0.06696,-0.91872 -0.06696,-9.715504 v -9.689803 h -7.133167 -7.133168 v 9.689803 c 0,8.796784 -0.0062,9.692174 -0.06696,9.715504 -0.14107,0.0541 -0.56082,0.0269 -0.628514,-0.0408 z m 16.348228,-0.2332 c -0.06159,-0.0359 -0.07408,-0.10539 -0.07408,-0.41228 v -0.36913 l 4.624916,-4.61841 c 2.543699,-2.540132 6.53944,-6.516732 8.87942,-8.836894 l 4.2545,-4.218477 0.4445,0.02758 c 0.24447,0.01517 0.45117,0.03324 0.45933,0.04016 0.008,0.0069 0.128129,0.464513 0.266589,1.016875 l 0.251761,1.004294 -0.987369,0.998756 c -6.711262,6.788678 -15.23016,15.345516 -15.307151,15.375316 -0.138452,0.0536 -2.71929,0.0465 -2.812413,-0.008 z m 13.472585,-0.0361 c -0.0511,-0.0347 0.48849,-0.58999 2.76804,-2.8487 1.55734,-1.54311 2.858939,-2.82169 2.892419,-2.84128 0.0335,-0.0196 0.0738,-0.0228 0.0895,-0.007 0.01569,0.0157 0.0325,0.77329 0.0373,1.68351 l 0.009,1.65495 -1.000019,1.01912 c -0.55,0.56051 -1.06829,1.0887 -1.151742,1.17374 l -0.15172,0.15462 -1.7145,0.0271 c -1.13678,0.018 -1.7359,0.0126 -1.778,-0.016 z m -41.814754,-0.0345 c -0.462571,-0.01 -0.60325,-0.0259 -0.60325,-0.0685 0,-0.0305 0.166687,-0.20358 0.370416,-0.38461 0.203729,-0.18103 2.963662,-2.93158 6.133184,-6.112329 5.092229,-5.110268 5.770755,-5.776552 5.831417,-5.726207 0.0613,0.05087 0.06865,0.245531 0.06865,1.817485 v 1.760511 l -1.04775,1.042423 c -0.576263,0.573333 -2.554248,2.541017 -4.395524,4.372637 l -3.347774,3.33022 -1.203059,-0.009 c -0.661683,-0.005 -1.474523,-0.0152 -1.80631,-0.0223 z m 6.54881,-0.0346 c -0.04764,-0.0574 0.290011,-0.41122 2.532079,-2.65329 2.242068,-2.24207 2.595884,-2.57972 2.653289,-2.53208 0.05815,0.0483 0.06624,0.26993 0.06624,1.81603 v 1.76106 l -0.837259,0.83726 -0.83726,0.83726 h -1.761057 c -1.546098,0 -1.767768,-0.008 -1.816031,-0.0662 z m 28.196273,-0.0106 c 0,-0.11444 12.642641,-12.644328 12.758121,-12.644328 h 0.0901 l 0.01011,1.578461 c 0.008,1.17848 -0.003,1.610193 -0.0423,1.703683 -0.0635,0.15171 -9.155369,9.348394 -9.294407,9.401554 -0.0539,0.0206 -0.868291,0.0375 -1.80975,0.0375 -1.625362,0 -1.711751,-0.004 -1.711751,-0.0768 z m -40.565917,0.002 c -0.925513,-0.006 -1.68275,-0.0247 -1.68275,-0.0413 0,-0.037 0.198978,-0.23817 10.26115,-10.372235 l 8.122876,-8.180927 h 0.434291 c 0.356966,0 0.438867,0.01192 0.459988,0.06696 0.01413,0.03683 0.02542,0.660717 0.02507,1.386417 -4.49e-4,0.967183 -0.01459,1.344559 -0.05292,1.413487 -0.07411,0.133274 -15.728407,15.691787 -15.814226,15.717467 -0.0389,0.0116 -0.827971,0.0162 -1.753484,0.0101 z m 21.428779,-1.529471 c -0.199314,-0.065 -0.293861,-0.13397 -0.293861,-0.21439 0,-0.0439 0.345135,-0.71472 0.766967,-1.49076 0.421832,-0.77605 1.134022,-2.08726 1.582645,-2.913822 0.448623,-0.826559 0.893795,-1.645709 0.989272,-1.820334 0.1133,-0.207225 0.1738,-0.371587 0.174189,-0.473226 0.0011,-0.292672 -0.01834,-0.288773 1.44146,-0.288773 1.464366,0 1.36216,-0.02309 1.405538,0.3175 0.01445,0.113503 0.325139,0.727632 0.942311,1.862666 1.686602,3.101809 1.793531,3.305159 1.84454,3.507739 0.06436,0.25559 0.0305,0.63783 -0.07828,0.88374 -0.100674,0.2276 -0.355397,0.52013 -0.532765,0.61185 -0.11938,0.0617 -0.131996,0.0606 -0.194631,-0.0167 -0.03684,-0.0455 -0.608398,-1.08132 -1.270135,-2.30184 -1.896361,-3.497675 -2.102061,-3.870122 -2.137439,-3.870122 -0.02983,0 -0.714076,1.244346 -2.479157,4.508502 -0.321055,0.59372 -0.659544,1.16575 -0.752198,1.27117 -0.264871,0.30137 -0.552124,0.43596 -0.960959,0.45026 -0.186556,0.007 -0.387929,-0.004 -0.447497,-0.0235 z m -23.70704,-1.94139 c -0.0016,-0.064 -0.0068,-0.78788 -0.01173,-1.60855 -0.0076,-1.26863 8.01e-4,-1.5104 0.05576,-1.614039 0.06107,-0.115158 1.948715,-1.995069 8.751728,-8.715877 l 2.925064,-2.889717 1.771022,0.01105 c 1.536485,0.0096 1.772644,0.01948 1.783271,0.0747 0.0071,0.03711 -0.663783,0.725393 -1.609372,1.651 -1.777614,1.740054 -8.2164,8.022112 -9.027401,8.807664 -0.2794,0.270632 -1.409909,1.371388 -2.512243,2.446119 -1.102334,1.07474 -2.031021,1.95407 -2.06375,1.95407 -0.036,0 -0.06063,-0.046 -0.06235,-0.11642 z m 36.539379,-0.93656 c -0.0299,-0.0559 -0.0452,-0.66195 -0.0452,-1.79044 v -1.705983 l 1.386417,-1.380265 c 0.762529,-0.759146 3.196172,-3.164446 5.408081,-5.345111 l 4.021672,-3.964846 1.743749,-1.87e-4 c 1.09033,-1.18e-4 1.753338,0.01532 1.76933,0.0412 0.0223,0.03607 -14.110682,14.182492 -14.203432,14.216942 -0.01947,0.007 -0.05576,-0.0248 -0.08062,-0.0713 z M 66.978041,60.673569 c -0.131951,-0.06654 -0.188013,-0.12077 -0.185987,-0.179916 0.0024,-0.06926 1.031183,-1.678653 3.044451,-4.7625 0.424418,-0.650105 0.787961,-0.91924 1.366311,-1.011492 0.343122,-0.05473 0.676624,-4.24e-4 1.005007,0.163647 0.160678,0.08028 0.707442,0.507984 1.488188,1.164126 1.031431,0.866816 1.250508,1.070348 1.3335,1.238884 0.09662,0.196204 0.09931,0.232065 0.09931,1.323501 v 1.121834 l -0.127,0.22955 c -0.21422,0.387198 -0.672227,0.670779 -1.01944,0.631201 l -0.12356,-0.01408 -0.01119,-1.342804 -0.01119,-1.342803 -0.475658,-0.399309 -0.475657,-0.399309 -0.02228,1.826778 c -0.01225,1.004729 -0.02655,1.831542 -0.03175,1.837363 -0.0052,0.0058 -0.617932,0.01058 -1.361622,0.01058 -1.035249,0 -1.360197,-0.0124 -1.386417,-0.05292 -0.01884,-0.02911 -0.04377,-0.675962 -0.05541,-1.437462 l -0.02117,-1.384545 -0.79762,1.225808 c -0.49436,0.75975 -0.862404,1.281262 -0.968019,1.371663 -0.33388,0.285789 -0.896431,0.366956 -1.262809,0.182202 z m -23.87742,-1.502833 c -0.0202,-1.904063 -0.01869,-2.377201 0.0079,-2.475929 0.01717,-0.06372 0.01357,-0.126752 -0.008,-0.140081 -0.05618,-0.03472 -0.04562,-0.362182 0.0152,-0.471407 0.02828,-0.05078 1.134208,-1.189021 2.457621,-2.529416 l 2.406204,-2.437083 h 1.750548 c 0.962801,0 1.760098,0.01545 1.771772,0.03434 0.03118,0.05045 -8.264501,8.305323 -8.346374,8.305323 -0.0355,0 -0.05281,-0.09014 -0.05489,-0.28575 z m 36.418168,-0.78105 c -0.03783,-0.03783 -0.05117,-0.499798 -0.05226,-1.80975 l -0.0016,-1.758949 1.790049,-1.766351 1.790049,-1.766351 1.774481,0.0095 c 1.182439,0.0063 1.779371,0.02421 1.789139,0.05354 0.0146,0.04372 -6.951204,7.089147 -7.008992,7.089147 -0.01662,0 -0.05306,-0.02286 -0.081,-0.0508 z m -9.070792,-4.068575 c -0.423701,-0.119738 -0.740691,-0.387231 -0.936168,-0.789991 -0.142379,-0.293357 -0.136464,-0.830515 0.0126,-1.1443 0.133207,-0.280401 0.365278,-0.519377 0.651391,-0.670763 0.185957,-0.09839 0.260516,-0.111997 0.613833,-0.111997 0.356182,0 0.427278,0.01322 0.621768,0.115584 0.272055,0.143193 0.496097,0.36925 0.640247,0.646009 0.09432,0.181092 0.110506,0.266702 0.112032,0.592667 0.0016,0.354875 -0.0081,0.399244 -0.142488,0.647074 -0.07935,0.146341 -0.211834,0.32539 -0.294402,0.397886 -0.336087,0.295088 -0.880499,0.430395 -1.278813,0.317831 z"
       id="path842"
       inkscape:connector-curvature="0" />
    <path
       style="display:inline;fill:#f9f9f9;stroke:none;stroke-width:0.04233333;opacity:0.2"
       d="m 63.225069,69.986898 c -0.01884,-0.0291 -0.04377,-4.40584 -0.05541,-9.726079 l -0.02117,-9.673165 -5.545667,-0.03167 c -3.050117,-0.01742 -5.640868,-0.04617 -5.757225,-0.06388 -0.207465,-0.03158 -0.212296,-0.03571 -0.249709,-0.213058 -0.03251,-0.154108 -0.02661,-0.189292 0.03991,-0.23793 0.125603,-0.09184 7.07249,-0.121817 23.704694,-0.102279 11.916545,0.014 14.835846,0.02799 14.914636,0.07147 0.0814,0.04492 0.0932,0.07596 0.0696,0.18337 -0.01561,0.07112 -0.0329,0.160279 -0.0385,0.19814 -0.007,0.04912 -0.0756,0.0778 -0.238901,0.100118 -0.125859,0.0172 -2.68629,0.04578 -5.68984,0.0635 l -5.460995,0.03222 -0.02117,9.673165 c -0.01164,5.320238 -0.03658,9.696978 -0.05542,9.726078 -0.03553,0.0549 -0.432128,0.0744 -0.554956,0.0272 -0.06079,-0.0233 -0.06696,-0.9161 -0.06696,-9.68586 0,-7.457021 -0.01159,-9.671756 -0.0508,-9.71097 -0.07388,-0.07388 -14.175522,-0.07388 -14.249401,0 -0.03921,0.03921 -0.0508,2.253949 -0.0508,9.71097 0,8.76976 -0.0062,9.66254 -0.06696,9.68586 -0.122826,0.0471 -0.519423,0.0277 -0.554956,-0.0272 z m 16.33817,-0.24675 c -0.03323,-0.0351 -0.05292,-0.18148 -0.05292,-0.39343 v -0.3375 l 0.60325,-0.60999 c 1.631998,-1.65021 9.99897,-9.902112 10.087581,-9.948845 l 0.10164,-0.0536 v 1.619936 c 0,1.1942 -0.01371,1.644075 -0.0517,1.711785 -0.0495,0.08823 -5.441532,5.582314 -7.087441,7.221604 l -0.797335,0.79412 -1.37505,0.0259 c -1.110555,0.0209 -1.385234,0.0152 -1.427973,-0.03 z m -21.727585,-0.0806 c -0.05031,-0.0319 0.459591,-0.56579 2.455333,-2.57067 1.385359,-1.39171 2.547409,-2.53057 2.582334,-2.5308 0.05524,-3.71e-4 0.06494,0.22515 0.07457,1.73357 l 0.01107,1.73401 -0.837741,0.83774 -0.837742,0.83774 -1.692158,-6.35e-4 c -0.997284,-3.97e-4 -1.718233,-0.0172 -1.755657,-0.041 z m -5.321414,-0.0413 c -0.564722,-0.0151 -0.871917,-0.0396 -0.90432,-0.0721 -0.03443,-0.0345 -0.04005,-0.1545 -0.01883,-0.40216 l 0.03024,-0.35298 0.852528,-0.86784 c 4.732665,-4.817631 10.37048,-10.460266 10.428926,-10.437838 0.04413,0.01694 0.05521,0.365727 0.05521,1.738828 V 60.9418 l -0.201084,0.215105 c -0.110596,0.118307 -2.080138,2.079641 -4.376762,4.358523 l -4.175678,4.14341 -0.417489,-0.009 c -0.229618,-0.005 -0.802349,-0.0192 -1.272735,-0.0318 z m 33.515688,0.0152 c 5.3e-4,-0.054 4.17585,-4.16558 4.23031,-4.16558 0.0389,0 0.0606,0.67587 0.0549,1.7145 -5.3e-4,0.0931 -0.0021,0.44091 -0.004,0.77283 -0.0021,0.33192 -0.02209,0.67482 -0.0457,0.762 -0.0307,0.11377 -0.14922,0.26438 -0.419889,0.53363 l -0.377089,0.37513 -1.719511,0.0228 c -1.007171,0.0134 -1.7194,0.007 -1.71925,-0.0153 z m -19.283107,-1.5633 c -0.09313,-0.0335 -0.174096,-0.0613 -0.179917,-0.0616 -0.07207,-0.004 0.247748,-0.62449 1.746356,-3.38622 1.14229,-2.105093 1.756729,-3.27949 1.756729,-3.357703 0,-0.06616 0.01971,-0.15713 0.04382,-0.202165 0.04184,-0.07819 0.101664,-0.08188 1.325031,-0.08188 0.940054,0 1.294739,0.01353 1.332013,0.0508 0.02794,0.02794 0.0508,0.116198 0.0508,0.196129 0,0.110477 0.325139,0.744944 1.355818,2.645699 0.745701,1.37521 1.383876,2.58302 1.418166,2.68402 0.132956,0.39161 0.04438,0.8638 -0.228253,1.21687 -0.16978,0.21987 -0.383643,0.37307 -0.456523,0.32702 -0.02585,-0.0163 -0.775438,-1.37273 -1.665721,-3.01421 -1.917459,-3.535343 -1.777204,-3.291464 -1.841984,-3.202869 -0.02743,0.03751 -0.733901,1.330717 -1.569937,2.873789 -1.668232,3.07905 -1.692188,3.11559 -2.156167,3.28919 -0.276491,0.10345 -0.679536,0.11349 -0.930234,0.0232 z m 12.91079,-2.9092 c -0.01302,-0.0524 -0.01815,-0.84561 -0.01138,-1.762716 l 0.01228,-1.66747 0.918435,-0.893697 c 0.50514,-0.491532 2.695885,-2.637355 4.868334,-4.768494 4.400481,-4.31681 4.750189,-4.655367 4.808741,-4.655367 0.056,0 0.0842,0.682268 0.0492,1.187493 -0.0158,0.227852 -0.01431,0.753965 0.003,1.169141 0.0315,0.740862 0.0303,0.757614 -0.0644,0.903032 -0.135832,0.20861 -10.431423,10.583328 -10.502606,10.583328 -0.0321,0 -0.06901,-0.0429 -0.08202,-0.0953 z m -28.061057,-0.3175 c -0.03065,-0.25636 -0.02808,-2.629542 0.0032,-2.910412 0.02798,-0.251616 -0.463431,0.260568 6.143281,-6.402916 l 4.375647,-4.41325 h 0.393978 c 0.320204,0 0.398789,0.01254 0.419674,0.06696 0.01413,0.03683 0.02658,0.660716 0.02765,1.386416 l 0.002,1.319454 -3.251042,3.233041 c -4.687458,4.661494 -7.99979,7.921797 -8.048234,7.921797 -0.02312,0 -0.05286,-0.0905 -0.06608,-0.20109 z m 15.418147,-4.183662 c -0.0855,-0.03667 -0.16617,-0.0946 -0.179266,-0.128731 -0.01375,-0.03584 0.132391,-0.302779 0.345953,-0.631899 0.203372,-0.313415 0.931742,-1.440336 1.6186,-2.50427 0.7501,-1.161895 1.333364,-2.020877 1.460501,-2.150904 0.493348,-0.504566 1.277625,-0.642711 1.91021,-0.336469 0.228338,0.110541 2.141582,1.679047 2.578965,2.114275 0.172889,0.172035 0.272404,0.31108 0.306917,0.428826 0.03337,0.113854 0.05107,0.513121 0.05107,1.151996 0,0.879193 -0.0087,1.000923 -0.08601,1.207636 -0.149137,0.398603 -0.661207,0.778209 -0.997928,0.739778 l -0.122561,-0.01399 -0.02117,-1.340616 c -0.01164,-0.737338 -0.03069,-1.349393 -0.04233,-1.360121 -0.01164,-0.01073 -0.240242,-0.203221 -0.508,-0.427761 l -0.486833,-0.408255 -0.02228,1.853043 c -0.01225,1.019174 -0.02654,1.857806 -0.03175,1.863627 -0.0052,0.0058 -0.609545,0.01058 -1.34297,0.01058 -0.733425,0 -1.337397,-0.0048 -1.342165,-0.01058 -0.0048,-0.0058 -0.01905,-0.675852 -0.03175,-1.488958 l -0.0231,-1.478375 -0.804332,1.242602 c -0.839149,1.296389 -0.993362,1.49402 -1.271404,1.629368 -0.225179,0.109615 -0.744667,0.13086 -0.958383,0.0392 z m 12.523845,-2.332139 c -0.01553,-0.01552 -0.02822,-0.801081 -0.02822,-1.745686 v -1.717464 l 1.77369,-1.773689 1.773682,-1.773689 1.69731,0.01948 c 0.933511,0.01071 1.710661,0.03284 1.726991,0.04917 0.0163,0.01633 -0.387921,0.453049 -0.89834,0.970482 -1.966941,1.993962 -5.967105,5.999619 -5.991391,5.999619 -0.01402,0 -0.0382,-0.0127 -0.05372,-0.02822 z M 51.606191,57.773736 c -0.01794,-0.440805 -0.02056,-2.961092 -0.0031,-3.035777 0.01106,-0.04747 0.743628,-0.802401 1.627918,-1.677629 l 1.607801,-1.591322 1.69882,-0.02652 c 1.183979,-0.01848 1.711863,-0.0128 1.741862,0.01877 0.02986,0.03141 -0.199002,0.280638 -0.747036,0.81351 -0.434544,0.422522 -1.416109,1.377822 -2.181256,2.122888 -2.557141,2.490033 -3.648961,3.534833 -3.693914,3.534833 -0.02452,0 -0.04749,-0.07144 -0.05105,-0.15875 z m 18.842705,-3.49473 c -0.381987,-0.108 -0.728427,-0.406269 -0.894768,-0.770353 -0.146835,-0.321383 -0.13836,-0.806759 0.01971,-1.128629 0.129273,-0.263242 0.351724,-0.487456 0.631833,-0.636837 0.152826,-0.0815 0.245962,-0.09697 0.583991,-0.09697 0.338026,0 0.431162,0.01546 0.583991,0.09697 0.280106,0.149381 0.502557,0.373595 0.63183,0.636837 0.100891,0.205448 0.117594,0.290956 0.117083,0.599463 -5.29e-4,0.306468 -0.0172,0.391476 -0.112627,0.573199 -0.134909,0.256929 -0.439611,0.547578 -0.690317,0.658477 -0.240207,0.106255 -0.627996,0.13647 -0.870722,0.06784 z"
       id="path840"
       inkscape:connector-curvature="0" />
    <path
       style="display:inline;fill:#f7f8f8;stroke:none;stroke-width:0.04233333;opacity:0.2"
       d="m 63.232404,69.946518 c -0.01141,-0.0302 -0.02544,-4.39827 -0.03117,-9.706865 l -0.01041,-9.651999 -3.090334,-0.03176 c -1.699683,-0.01747 -3.614208,-0.04604 -4.2545,-0.0635 l -1.164166,-0.03174 -0.01262,-0.194208 c -0.0093,-0.14245 0.0066,-0.210143 0.05942,-0.254 0.06178,-0.05127 2.369129,-0.05979 16.188132,-0.05979 17.933811,0 16.369631,-0.02776 16.327041,0.28975 -0.0122,0.09075 -0.0387,0.181595 -0.059,0.201876 -0.0304,0.03039 -2.752101,0.07882 -7.547473,0.134311 l -0.783167,0.0091 -0.02117,9.694332 -0.02117,9.694333 H 78.515484 78.21915 l -0.02117,-9.694333 -0.02117,-9.694332 h -7.154333 -7.154336 l -0.02117,9.694332 -0.02117,9.694333 -0.286331,0.0125 c -0.204961,0.009 -0.29223,-0.003 -0.307086,-0.0423 z m 16.320252,-0.57926 v -0.37622 l 2.448483,-2.42836 c 3.197408,-3.171134 5.151999,-5.074192 5.211588,-5.074192 0.0742,0 0.037,3.159542 -0.0389,3.302002 -0.031,0.0582 -1.132171,1.19644 -2.447041,2.52941 l -2.390669,2.42359 h -1.391721 -1.391722 z m -21.674669,0.24575 c 0,-0.0648 4.92044,-5.03391 4.984751,-5.03406 0.04147,-9e-5 0.053,0.37747 0.05329,1.74612 l 3.71e-4,1.74625 -0.815292,0.79215 -0.815291,0.79214 -1.703917,0.002 c -1.194985,0.001 -1.703917,-0.0121 -1.703917,-0.0442 z m 28.74764,-0.52613 c 0.29286,-0.2908 0.554749,-0.52873 0.58197,-0.52873 0.0563,0 0.0498,0.91349 -0.007,1.00542 -0.02349,0.0379 -0.185542,0.0528 -0.570042,0.0525 l -0.53725,-4.5e-4 0.532471,-0.52873 z m -31.962924,-1.61792 c -0.0023,-1.58664 -0.0016,-1.60017 0.09308,-1.75398 0.119734,-0.1946 8.034136,-8.205825 8.106653,-8.205825 0.04186,0 0.05322,0.368369 0.05322,1.726763 v 1.726764 l -2.25425,2.245643 c -2.57867,2.568825 -5.845621,5.775225 -5.935588,5.825565 -0.05239,0.0293 -0.06114,-0.18776 -0.06311,-1.56493 z m 12.126451,0.5926 c -0.15043,-0.0532 -0.209976,-0.0963 -0.205823,-0.14877 0.0032,-0.0406 0.782942,-1.50569 1.732728,-3.25569 0.949787,-1.750005 1.745085,-3.259815 1.767331,-3.355136 0.02225,-0.09532 0.04678,-0.197122 0.05453,-0.226226 0.01087,-0.04089 0.311393,-0.05292 1.321988,-0.05292 h 1.307907 l 0.02689,0.196217 c 0.02024,0.147587 0.33522,0.763975 1.270963,2.487085 1.551157,2.85636 1.499987,2.75677 1.546281,3.00924 0.04802,0.26184 -0.0035,0.59904 -0.130355,0.85302 -0.110797,0.22184 -0.432289,0.53563 -0.528936,0.51624 -0.03875,-0.008 -0.772772,-1.31379 -1.765414,-3.14114 -0.934501,-1.720318 -1.717162,-3.127311 -1.739247,-3.126657 -0.02209,6.61e-4 -0.742418,1.293884 -1.600739,2.873847 -1.021222,1.87982 -1.614534,2.92823 -1.716678,3.03346 -0.336531,0.34669 -0.908622,0.49059 -1.341426,0.33743 z m 12.890502,-4.575495 v -1.727755 l 2.804581,-2.750512 c 4.13553,-4.055798 4.538151,-4.446543 4.635089,-4.498423 0.081,-0.04336 0.0903,-0.03413 0.111882,0.11099 0.01288,0.08706 0.0186,0.796465 0.01259,1.576457 -0.008,1.093909 -0.024,1.442364 -0.0681,1.524 -0.0969,0.179277 -7.361761,7.492998 -7.442959,7.492998 -0.0417,0 -0.05309,-0.37071 -0.05309,-1.727755 z m -25.018723,-3.12689 c 2.54e-4,-1.471442 0.0065,-1.610564 0.07659,-1.716907 0.04197,-0.06365 1.389322,-1.444771 2.994115,-3.069166 1.604793,-1.624396 3.252061,-3.292387 3.660595,-3.706647 l 0.742789,-0.753201 0.379734,0.01237 0.379733,0.01237 0.01115,1.380892 0.01116,1.380891 -2.381821,2.368385 c -3.207888,3.18979 -5.738532,5.661839 -5.813117,5.678518 -0.05255,0.01175 -0.06117,-0.212714 -0.06093,-1.5875 z m 12.509221,0.327998 c -0.186184,-0.04493 -0.3175,-0.124673 -0.3175,-0.192799 0,-0.03289 0.301352,-0.522758 0.669669,-1.088594 0.368318,-0.565835 1.094205,-1.686017 1.613082,-2.489292 1.043569,-1.61555 1.249163,-1.864448 1.682495,-2.036885 0.19622,-0.07808 0.329689,-0.09853 0.650007,-0.0996 0.592439,-0.002 0.70285,0.06395 2.158082,1.288622 0.984502,0.828522 1.229868,1.056413 1.3335,1.238523 l 0.127,0.223176 0.01355,0.92094 c 0.01516,1.030624 -0.0167,1.274501 -0.20538,1.572011 -0.136576,0.215357 -0.430858,0.425538 -0.695638,0.496836 -0.305403,0.08224 -0.295293,0.12542 -0.319029,-1.362752 l -0.02117,-1.327136 -0.486834,-0.413313 c -0.267758,-0.227322 -0.510445,-0.413862 -0.539305,-0.414533 -0.0408,-9.53e-4 -0.05493,0.410928 -0.0635,1.850863 l -0.01103,1.852083 h -1.312336 -1.312333 l -0.01111,-1.49225 c -0.0063,-0.844813 -0.02761,-1.492249 -0.04912,-1.492249 -0.0209,0 -0.118518,0.127498 -0.216935,0.283329 -0.173424,0.274597 -0.439596,0.685165 -1.162606,1.793304 -0.190718,0.292307 -0.417638,0.589891 -0.504267,0.661298 -0.268538,0.221353 -0.672989,0.311989 -1.019278,0.22842 z M 79.552656,56.59082 v -1.728875 l 1.747435,-1.745562 1.747436,-1.745563 1.205312,1.91e-4 c 1.228179,1.94e-4 2.158327,0.03485 2.157169,0.08036 -0.0011,0.04873 -6.735726,6.841093 -6.796218,6.854637 -0.05251,0.01176 -0.06113,-0.230059 -0.06113,-1.715187 z M 54.662789,53.328737 c -0.0026,-1.455428 0.0023,-1.564177 0.07736,-1.686427 l 0.08019,-0.130677 1.052572,-0.02798 c 1.421327,-0.03778 2.386072,-0.03539 2.386072,0.0059 0,0.01875 -0.214312,0.242892 -0.47625,0.498093 -2.038648,1.986216 -2.998377,2.896815 -3.053108,2.896815 -0.05591,0 -0.06437,-0.19682 -0.06684,-1.55575 z m 15.648323,0.879657 c -0.314957,-0.123064 -0.557234,-0.347197 -0.709388,-0.656264 -0.113687,-0.230935 -0.13381,-0.318968 -0.13381,-0.585405 0,-0.386312 0.09426,-0.620216 0.367781,-0.912631 0.268949,-0.28753 0.546442,-0.405477 0.953961,-0.405477 0.407516,0 0.685009,0.117947 0.95396,0.405477 0.272302,0.291113 0.372084,0.535614 0.372304,0.912282 2.64e-4,0.558595 -0.334487,1.048218 -0.848244,1.240439 -0.288536,0.107955 -0.682652,0.108606 -0.956564,0.0016 z"
       id="path838"
       inkscape:connector-curvature="0" />
    <path
       style="display:inline;fill:#f5f5f5;stroke:none;stroke-width:0.04233333;opacity:0.2"
       d="m 63.264594,69.948488 c -0.04161,-0.0416 -0.05261,-2.0715 -0.05261,-9.712773 0,-7.840862 -0.01027,-9.66411 -0.05452,-9.681092 -0.02999,-0.01151 -1.053925,-0.02539 -2.275417,-0.03085 -1.221492,-0.0055 -2.544744,-0.0219 -2.940561,-0.03652 l -0.719666,-0.02659 -0.01305,-0.180479 c -0.0085,-0.11798 0.0088,-0.202274 0.04989,-0.243417 0.05543,-0.05543 1.682604,-0.06294 13.646524,-0.06294 10.777876,0 13.607113,0.01093 13.697524,0.05292 0.0973,0.04519 0.11399,0.07906 0.114271,0.232027 5.29e-4,0.151875 -0.01421,0.182074 -0.0949,0.198606 -0.17413,0.03564 -1.80729,0.0668 -3.755647,0.07166 -1.058598,0.0026 -1.949188,0.01418 -1.979083,0.02566 -0.04404,0.0169 -0.05436,1.856008 -0.05436,9.684312 0,8.292366 -0.0085,9.670526 -0.06006,9.713296 -0.0346,0.0287 -0.155742,0.0444 -0.28575,0.0369 l -0.225687,-0.0129 -0.01066,-9.671136 c -0.0074,-6.671592 -0.02444,-9.684898 -0.05504,-9.715498 -0.05618,-0.05618 -14.207102,-0.0717 -14.316952,-0.0157 -0.07006,0.03572 -0.07456,0.552103 -0.08467,9.720029 l -0.01067,9.682306 -0.233144,0.0124 c -0.144808,0.008 -0.253076,-0.008 -0.28575,-0.0402 z m 16.317573,-0.23194 c -0.01622,-0.0162 -0.02951,-0.1813 -0.02951,-0.36682 v -0.33731 l 1.937303,-1.90988 c 2.741457,-2.70265 3.125187,-3.07405 3.176096,-3.07405 0.0703,0 0.0553,3.12077 -0.01561,3.25966 -0.0297,0.0582 -0.564999,0.62382 -1.189508,1.25692 l -1.135467,1.15108 -1.356908,0.025 c -0.746297,0.0137 -1.370184,0.0117 -1.386414,-0.005 z m -20.894481,-0.0894 -0.777802,-0.0126 0.224988,-0.24244 c 0.720749,-0.77667 4.710614,-4.78932 4.742513,-4.7696 0.02178,0.0135 0.03827,0.75644 0.03827,1.72386 v 1.70022 l -0.816122,0.81612 -0.816122,0.81612 -0.908962,-0.01 c -0.499928,-0.005 -1.258971,-0.0152 -1.686762,-0.0221 z m 8.048552,-1.59521 c -0.07567,-0.0343 -0.137584,-0.0861 -0.137584,-0.11504 0,-0.0594 0.19175,-0.4183 2.134046,-3.99414 0.932053,-1.715941 1.379832,-2.581154 1.380268,-2.666999 0.0013,-0.24164 -0.03857,-0.235098 1.3564,-0.222948 l 1.287769,0.01121 0.02797,0.195615 c 0.02082,0.145682 0.374444,0.833524 1.385266,2.694572 0.746511,1.37443 1.379638,2.58769 1.406943,2.69613 0.106082,0.42129 -0.02471,0.91519 -0.323985,1.22333 -0.248893,0.25628 -0.297159,0.26576 -0.412324,0.081 -0.05473,-0.0878 -0.830866,-1.50744 -1.724734,-3.15474 -0.893868,-1.647296 -1.644917,-2.994909 -1.669,-2.994696 -0.02408,2.11e-4 -0.748633,1.299881 -1.610113,2.888156 -1.063721,1.96112 -1.616713,2.93849 -1.723329,3.04586 -0.255115,0.25689 -0.467723,0.34399 -0.880174,0.36055 -0.252947,0.0102 -0.400701,-0.004 -0.497416,-0.0479 z m -9.53341,-3.11424 c -0.0017,-1.08568 0.01223,-1.600147 0.04514,-1.664238 0.05729,-0.111576 0.371053,-0.436192 3.311868,-3.426477 1.253653,-1.27474 2.29657,-2.307078 2.317594,-2.294085 0.05031,0.0311 0.05012,3.346449 -2.12e-4,3.439828 -0.06029,0.111885 -5.541515,5.488382 -5.610402,5.503202 -0.05288,0.0114 -0.06186,-0.20706 -0.064,-1.55823 z m 22.507967,0.0422 c -0.01916,-0.22518 -0.01558,-1.970961 0.0061,-2.965573 l 0.0051,-0.235075 0.85725,-0.848082 c 1.981983,-1.960783 3.931692,-3.846832 4.029852,-3.898261 l 0.10536,-0.0552 -0.004,1.556347 c -0.003,1.273712 -0.01551,1.58121 -0.0666,1.693256 -0.0343,0.0753 -1.152951,1.237349 -2.485909,2.582333 l -2.423549,2.445425 z M 67.037653,60.625336 c -0.07288,-0.0329 -0.14516,-0.08031 -0.160633,-0.105341 -0.03972,-0.06427 3.213734,-5.065449 3.437325,-5.283816 0.483352,-0.472056 1.214784,-0.588456 1.846662,-0.293878 0.224444,0.104634 2.317898,1.824114 2.633427,2.16299 0.258895,0.278053 0.27853,0.396723 0.26311,1.590149 -0.01254,0.969383 -0.01934,1.04732 -0.105572,1.208434 -0.179638,0.335603 -0.579239,0.610945 -0.886653,0.610945 h -0.142996 v -1.307643 c 0,-1.183988 -0.007,-1.315876 -0.07408,-1.3947 -0.0988,-0.116105 -0.993077,-0.853656 -1.035048,-0.853656 -0.01815,0 -0.03794,0.833437 -0.04401,1.852083 l -0.01103,1.852083 h -1.312338 -1.312333 l -0.02117,-1.496738 c -0.01963,-1.38917 -0.02614,-1.49109 -0.09025,-1.418166 -0.038,0.04321 -0.414475,0.611971 -0.83662,1.263904 -0.800807,1.236713 -0.962241,1.444114 -1.22303,1.57128 -0.205542,0.100226 -0.741912,0.124627 -0.924769,0.04207 z m -9.845551,-1.663163 c -0.0047,-0.252002 -0.0062,-0.515337 -0.0033,-0.585187 0.0029,-0.06985 0.0068,-0.591684 0.0087,-1.159632 l 0.0035,-1.032631 0.56136,-0.576035 c 0.308748,-0.316819 1.416708,-1.448245 2.462134,-2.514281 l 1.900775,-1.938245 0.384588,0.01208 0.384588,0.01208 0.01185,1.291167 c 0.0065,0.710141 0.0024,1.330074 -0.0092,1.377627 -0.02417,0.09936 -5.53458,5.53682 -5.632123,5.557559 -0.05409,0.0115 -0.06574,-0.05953 -0.07293,-0.4445 z M 79.58222,58.286606 c -0.01627,-0.01626 -0.02956,-0.791327 -0.02956,-1.722369 v -1.692806 l 0.412751,-0.410434 c 0.227015,-0.225739 1.023138,-1.012214 1.76917,-1.747721 l 1.356419,-1.337287 0.717909,0.02118 c 0.394851,0.01165 0.75863,0.02936 0.80839,0.03936 0.0889,0.01787 0.0904,0.03198 0.0836,0.833483 -0.004,0.451976 -0.02569,0.847786 -0.0492,0.88819 -0.0402,0.06929 -3.872571,4.001525 -4.664676,4.786209 -0.206401,0.204467 -0.388577,0.358454 -0.404839,0.342194 z m -9.152397,-4.051168 c -0.561605,-0.185185 -0.906005,-0.621096 -0.94212,-1.192451 -0.03451,-0.545877 0.22762,-1.00146 0.716869,-1.24594 0.222393,-0.111132 0.306904,-0.129894 0.585084,-0.129894 0.27768,0 0.36282,0.01883 0.583261,0.128983 0.278087,0.138963 0.461229,0.319218 0.612092,0.602444 0.07845,0.14729 0.09519,0.245779 0.09512,0.55974 -8.7e-5,0.330643 -0.015,0.409331 -0.112826,0.595353 -0.13561,0.257841 -0.399029,0.505163 -0.661874,0.621433 -0.239858,0.1061 -0.650914,0.134423 -0.875606,0.06033 z M 57.200654,51.968016 c 0,-0.342842 0.01215,-0.423465 0.06696,-0.4445 0.10729,-0.04117 0.906705,-0.0296 0.906705,0.01313 0,0.05701 -0.858567,0.849466 -0.92075,0.849849 -0.03879,2.42e-4 -0.05292,-0.111482 -0.05292,-0.418477 z"
       id="path836"
       inkscape:connector-curvature="0" />
    <path
       style="display:inline;fill:#f1f1f1;stroke:none;stroke-width:0.04233333;opacity:0.2"
       d="m 63.282543,69.926928 c -0.01552,-0.0155 -0.02822,-4.37685 -0.02822,-9.691833 0,-5.314986 -0.01429,-9.672366 -0.03175,-9.683067 -0.01746,-0.0107 -0.6223,-0.03166 -1.344083,-0.04657 -0.721784,-0.01491 -1.369484,-0.03583 -1.439334,-0.04648 -0.118161,-0.01801 -0.127,-0.03189 -0.127,-0.199347 0,-0.09899 0.02245,-0.203796 0.04989,-0.2329 0.06438,-0.06829 21.15897,-0.07886 21.116777,-0.01058 -0.01439,0.02328 0.0035,0.04233 0.03984,0.04233 0.09454,0 0.09367,0.361324 -0.0011,0.397637 -0.03683,0.01413 -0.403542,0.02795 -0.814916,0.0307 -0.411374,0.0028 -1.005128,0.01704 -1.319453,0.03175 l -0.571492,0.02675 -0.02117,9.694333 -0.02117,9.694337 -0.243417,0.0127 c -0.177112,0.009 -0.24407,-0.002 -0.245816,-0.0423 -0.0013,-0.0303 -0.0061,-4.37938 -0.01058,-9.664697 -0.0045,-5.285317 -0.0236,-9.633479 -0.04243,-9.662583 -0.02718,-0.04199 -1.515038,-0.05292 -7.20576,-0.05292 -7.046938,0 -7.172274,0.0014 -7.215336,0.08188 -0.02984,0.05576 -0.04382,3.15576 -0.04382,9.715499 v 9.633611 h -0.225779 c -0.124177,0 -0.238477,-0.0127 -0.254,-0.0282 z m 16.312446,-0.55421 v -0.3392 l 0.881512,-0.87313 c 0.87878,-0.87041 1.013871,-0.99534 1.079074,-0.99789 0.01895,-7.41e-4 0.0311,0.12724 0.02703,0.2844 -0.0041,0.15717 -0.0046,0.71214 -0.0013,1.23328 0.0034,0.52113 7.94e-4,0.95255 -0.0059,0.95869 -0.0066,0.006 -0.454948,0.0251 -0.996286,0.0421 l -0.98425,0.0309 v -0.33921 z m -19.162437,0.21441 c -0.05034,-0.01 -0.101101,-0.0594 -0.113197,-0.11065 -0.01206,-0.051 -0.02357,-0.56118 -0.02558,-1.13362 l -0.0037,-1.0408 0.123074,-0.1657 c 0.06769,-0.0911 0.64789,-0.69911 1.289334,-1.35104 l 1.166261,-1.18533 0.0023,1.71951 0.0023,1.71952 -0.775663,0.74985 c -0.426615,0.41241 -0.802853,0.76705 -0.836084,0.78808 -0.05952,0.0377 -0.651083,0.0449 -0.829022,0.0102 z m 6.420102,-1.54128 c -0.08149,-0.0243 -0.171273,-0.0666 -0.199515,-0.094 -0.03995,-0.0388 0.277879,-0.65578 1.432148,-2.78031 0.815924,-1.50178 1.606713,-2.959102 1.757306,-3.238502 0.156909,-0.29111 0.284432,-0.584815 0.298688,-0.687917 l 0.02487,-0.179916 h 1.279837 1.27984 l 0.02291,0.170876 c 0.01553,0.115701 0.447178,0.952949 1.336828,2.592919 0.722652,1.33212 1.354702,2.51431 1.404557,2.62709 0.06478,0.14653 0.09065,0.29052 0.09065,0.50455 0,0.25641 -0.02032,0.33905 -0.141317,0.57437 -0.17091,0.33243 -0.428117,0.56557 -0.51898,0.47043 -0.03207,-0.0336 -0.595686,-1.05167 -1.252471,-2.2624 -0.656783,-1.21074 -1.41437,-2.606148 -1.683523,-3.100919 -0.269153,-0.494771 -0.510506,-0.899583 -0.536339,-0.899583 -0.02582,0 -0.287796,0.442912 -0.582139,0.98425 -1.013272,1.863532 -1.754178,3.229772 -2.174189,4.009222 -0.457735,0.84945 -0.650708,1.09209 -0.981266,1.23378 -0.236163,0.10123 -0.650639,0.138 -0.857913,0.0761 z m 12.900437,-2.94204 c -0.04696,-0.047 -0.03807,-3.226872 0.0093,-3.315326 0.05698,-0.106477 1.722848,-1.696996 1.777384,-1.696996 0.03085,0 0.04491,0.491631 0.04491,1.570382 0,1.472631 -0.005,1.577375 -0.08009,1.682749 -0.154636,0.216961 -1.720723,1.789951 -1.751478,1.759191 z M 60.32323,63.086569 c -0.01228,-0.145521 -0.01914,-0.856976 -0.01524,-1.581013 0.0062,-1.142484 0.01626,-1.329872 0.07648,-1.418167 0.03816,-0.05595 0.612749,-0.654186 1.276856,-1.329403 l 1.207468,-1.227666 0.0023,1.717227 0.0023,1.717228 -1.225567,1.193189 c -0.674062,0.656254 -1.242808,1.193188 -1.263879,1.193188 -0.02107,0 -0.04836,-0.119062 -0.06064,-0.264583 z m 6.768565,-2.468855 c -0.162004,-0.05176 -0.201151,-0.08171 -0.185423,-0.141857 0.01888,-0.07221 1.609581,-2.542572 2.803784,-4.354294 0.587131,-0.890736 0.745106,-1.056504 1.152067,-1.208884 0.452708,-0.169509 1.022609,-0.124115 1.4091,0.112239 0.150817,0.09223 1.715748,1.386424 2.277406,1.883405 0.498687,0.441262 0.495427,0.430209 0.495427,1.68033 0,1.182833 -0.0071,1.219465 -0.299916,1.543557 -0.244509,0.270642 -0.701188,0.465268 -0.784225,0.334218 -0.02003,-0.03159 -0.03669,-0.638803 -0.03705,-1.349354 l -5.29e-4,-1.291913 -0.532085,-0.443754 c -0.292645,-0.244065 -0.554585,-0.443754 -0.582083,-0.443754 -0.03736,0 -0.05535,0.470677 -0.07116,1.862666 l -0.02117,1.862667 h -1.27 -1.27 l -0.01111,-1.513417 c -0.0086,-1.168402 -0.02307,-1.513374 -0.0635,-1.513232 -0.02881,8.4e-5 -0.413155,0.557313 -0.854097,1.23825 -0.440943,0.680936 -0.853879,1.305713 -0.917636,1.388393 -0.260687,0.338057 -0.803217,0.493553 -1.237676,0.354734 z m 12.503194,-4.064901 v -1.676007 l 0.893562,-0.874576 c 0.491458,-0.481017 0.9394,-0.899136 0.99542,-0.929153 l 0.101857,-0.05458 -0.01116,0.488534 c -0.0061,0.268693 0.0055,0.488515 0.02598,0.488492 0.02045,-2.2e-5 0.02511,0.07537 0.01037,0.167533 -0.01474,0.09217 -0.02778,0.598769 -0.02898,1.125785 l -0.0021,0.958213 -0.953723,0.990881 c -0.524536,0.544984 -0.971129,0.990881 -0.992415,0.990881 -0.02273,0 -0.0387,-0.691737 -0.0387,-1.676007 z M 60.298535,54.74987 c 0.003,-1.24079 0.01606,-1.602598 0.06098,-1.685717 0.03146,-0.05821 0.443245,-0.500526 0.915082,-0.982928 l 0.857887,-0.877096 0.359833,-0.0109 0.359833,-0.0109 0.01116,1.356093 0.01116,1.356093 -1.169679,1.140571 c -0.643323,0.627314 -1.223762,1.175244 -1.289862,1.217622 l -0.120185,0.07705 0.0038,-1.579884 z m 10.035331,-0.570989 c -0.257656,-0.09118 -0.613799,-0.431716 -0.727202,-0.695334 -0.189348,-0.440148 -0.100468,-1.009904 0.213114,-1.366152 0.510148,-0.579558 1.429605,-0.579558 1.939753,0 0.31799,0.361255 0.405863,0.918101 0.214921,1.361954 -0.119502,0.277793 -0.470752,0.608245 -0.746337,0.702146 -0.245895,0.08378 -0.653475,0.08259 -0.894249,-0.0026 z"
       id="path834"
       inkscape:connector-curvature="0" />
    <path
       style="display:inline;fill:#eeeeee;fill-opacity:1;stroke:none;stroke-width:0.04233333"
       d="m 66.811871,67.960828 c -0.05736,-0.0229 -0.110831,-0.0482 -0.118836,-0.0562 -0.01299,-0.013 0.625749,-1.19851 2.803384,-5.203229 0.396141,-0.728507 0.676168,-1.292149 0.694059,-1.397 l 0.02999,-0.175766 1.237091,-0.01122 1.237094,-0.01122 v 0.134381 c 0,0.136673 0.13707,0.413674 0.876792,1.771898 0.515731,0.946956 1.457013,2.682466 1.722004,3.175006 0.212003,0.39404 0.21636,0.40943 0.215866,0.762 -5.3e-4,0.28895 -0.01889,0.39437 -0.09377,0.53517 -0.103741,0.19503 -0.356955,0.48083 -0.426006,0.48083 -0.02453,0 -0.305607,-0.48102 -0.624589,-1.06892 -2.802027,-5.164341 -2.831795,-5.217586 -2.917153,-5.217586 -0.08063,0 -0.355793,0.490916 -2.621946,4.677836 -0.321351,0.59373 -0.636692,1.14618 -0.700757,1.22767 -0.06406,0.0815 -0.235361,0.21008 -0.380657,0.28575 -0.223718,0.11651 -0.30737,0.13717 -0.546226,0.1349 -0.155129,-0.001 -0.328979,-0.0214 -0.386335,-0.0443 z m 0.302778,-7.389503 c -0.05381,-0.01141 -0.107418,-0.0457 -0.119126,-0.07621 -0.02398,-0.0625 3.138789,-4.964609 3.337981,-5.173663 0.448474,-0.47068 1.275508,-0.583925 1.861574,-0.254904 0.216244,0.121402 2.330598,1.864127 2.561306,2.111121 0.203574,0.217943 0.224272,0.3466 0.224272,1.394133 0,0.629235 -0.01783,1.040249 -0.04978,1.146865 -0.09784,0.326572 -0.542378,0.707766 -0.828631,0.71056 l -0.09525,9.26e-4 v -1.286477 c 0,-1.164375 -0.007,-1.294603 -0.07408,-1.3721 -0.08297,-0.0959 -0.911474,-0.790491 -1.056474,-0.885721 -0.05136,-0.03373 -0.113276,-0.04904 -0.137583,-0.03402 -0.02962,0.0183 -0.0442,0.640796 -0.0442,1.887482 v 1.860168 h -1.248307 -1.248304 l -0.01111,-1.534583 c -0.0096,-1.330914 -0.01955,-1.534583 -0.07461,-1.534583 -0.03493,0 -0.2159,0.23335 -0.402166,0.518556 -0.186267,0.285207 -0.598228,0.916423 -0.915468,1.402703 -0.510711,0.782841 -0.600446,0.898008 -0.783167,1.005125 -0.16824,0.09863 -0.261113,0.122307 -0.502699,0.128169 -0.162983,0.004 -0.340361,-0.0021 -0.394172,-0.01355 z m 3.39984,-6.401083 c -0.402878,-0.105304 -0.764034,-0.433516 -0.888121,-0.807107 -0.205803,-0.619613 0.136384,-1.342822 0.731266,-1.545517 0.789331,-0.268953 1.583817,0.241588 1.64951,1.05999 0.03996,0.497857 -0.243263,0.988897 -0.69206,1.199857 -0.209227,0.09835 -0.604179,0.144117 -0.800595,0.09278 z"
       id="path830"
       inkscape:connector-curvature="0" />
  </g>
</svg>
