<?xml version="1.0" encoding="UTF-8" standalone="no"?>
<svg
   version="1.1"
   height="1145.9797"
   width="1187"
   id="svg8"
   sodipodi:docname="bicycle_rental.svg"
   inkscape:version="1.1.2 (0a00cf5339, 2022-02-04)"
   xmlns:inkscape="http://www.inkscape.org/namespaces/inkscape"
   xmlns:sodipodi="http://sodipodi.sourceforge.net/DTD/sodipodi-0.dtd"
   xmlns="http://www.w3.org/2000/svg"
   xmlns:svg="http://www.w3.org/2000/svg"
   xmlns:rdf="http://www.w3.org/1999/02/22-rdf-syntax-ns#"
   xmlns:cc="http://creativecommons.org/ns#"
   xmlns:dc="http://purl.org/dc/elements/1.1/">
  <metadata
     id="metadata14">
    <rdf:RDF>
      <cc:Work
         rdf:about="">
        <dc:format>image/svg+xml</dc:format>
        <dc:type
           rdf:resource="http://purl.org/dc/dcmitype/StillImage" />
      </cc:Work>
    </rdf:RDF>
  </metadata>
  <defs
     id="defs12" />
  <sodipodi:namedview
     pagecolor="#ffffff"
     bordercolor="#666666"
     borderopacity="1"
     objecttolerance="10"
     gridtolerance="10"
     guidetolerance="10"
     inkscape:pageopacity="0"
     inkscape:pageshadow="2"
     inkscape:window-width="1920"
     inkscape:window-height="1016"
     id="namedview10"
     showgrid="false"
     inkscape:zoom="0.19666667"
     inkscape:cx="221.18644"
     inkscape:cy="1004.2373"
     inkscape:window-x="0"
     inkscape:window-y="0"
     inkscape:window-maximized="1"
     inkscape:current-layer="svg8"
     inkscape:pagecheckerboard="0"
     fit-margin-top="0"
     fit-margin-left="0"
     fit-margin-right="0"
     fit-margin-bottom="0" />
  <path
     style="fill:none;fill-opacity:1;stroke:#bfbecf;stroke-width:203.451;stroke-miterlimit:4;stroke-dasharray:none;stroke-opacity:1"
     d="m 476.85328,300.01436 33.46327,13.36179 14.63852,-0.19989 c 8.05121,-0.11011 14.98707,0.38848 15.41301,1.10765 0.426,0.71916 1.10534,21.30433 1.50979,45.74477 0.40438,24.4405 0.93054,45.05576 1.16915,45.81175 0.23962,0.75969 25.92889,0.89258 57.41843,0.29731 l 56.98464,-1.07735 0.16591,-3.75747 c 0.0913,-2.06656 -0.0948,-23.05664 -0.41331,-46.64449 -0.36063,-26.7011 -0.005,-43.0679 0.94257,-43.36602 0.83706,-0.26338 27.97173,-0.97046 60.2994,-1.57121 49.92337,-0.9277 58.90343,-0.7556 59.61314,1.14249 0.45952,1.22913 2.83334,6.85785 5.27501,12.50835 5.9159,13.69043 22.97879,37.64609 34.1991,48.01433 48.10894,44.45532 116.24765,55.28618 175.68409,27.92572 12.8242,-5.90338 36.5096,-23.09047 46.0991,-33.45146 33.6796,-36.3889 48.6456,-85.26725 40.8426,-133.39068 -2.3425,-14.44653 -6.7678,-28.93959 -12.9119,-42.28663 -5.9034,-12.82421 -23.0904,-36.50957 -33.4514,-46.09913 -48.0194,-44.444054 -116.24202,-55.290694 -175.67733,-27.9307 -12.82421,5.9034 -36.50956,23.09048 -46.09913,33.45148 -14.45424,15.61695 -27.23023,36.39679 -33.57305,54.60568 -1.59594,4.58156 -3.06041,8.44531 -3.25442,8.58608 -0.19403,0.14075 -59.63155,0.77553 -132.08339,1.41056 l -131.73067,1.15454 -31.91812,10.30914 c -17.55493,5.67002 -32.62937,10.49933 -33.49869,10.73186 -0.99413,0.26585 -1.80712,9.14395 -2.19094,23.92691 -0.33569,12.92732 -0.55814,24.13844 -0.4944,24.91353 0.0633,0.77515 15.17423,7.42212 33.57902,14.77109 z"
     id="path827-7" />
  <circle
     cx="306"
     cy="839.97968"
     r="161"
     style="fill:none;fill-opacity:1;stroke:#bfbecf;stroke-width:290;stroke-miterlimit:4;stroke-dasharray:none;stroke-opacity:1"
     id="circle2-7-2" />
  <circle
     cx="881"
     cy="836.97968"
     r="161"
     style="fill:none;stroke:#bfbecf;stroke-width:290;stroke-miterlimit:4;stroke-dasharray:none;stroke-opacity:1"
     id="circle4-5-9" />
  <path
     style="fill:#bfbecf;fill-opacity:1;fill-rule:evenodd;stroke:#bfbecf;stroke-width:215;stroke-miterlimit:4;stroke-dasharray:none;stroke-opacity:1"
     d="m 520.48434,446.4468 c -132.56647,1.29207 -110.08444,-13.69595 -181.40675,215.51743 -58.10251,183.14131 -51.77375,163.16908 -52.07762,176.01545 -0.21296,9.98022 7.84333,17.89312 17.96694,18.57043 21.0536,-2.12877 12.19798,2.27698 85.19054,-224.38965 266.71215,281.35562 166.64844,235.73116 310.18316,241.44498 188.64235,-1.8089 203.97493,9.81974 206.21452,-17.83058 -0.25842,-9.38905 -4.65145,-14.98802 -134.11696,-303.11983 l 12.40388,-34.11067 42.63834,-0.77525 -1.55048,-35.66115 H 667.00518 c -14.0405,19.20878 5.68512,19.12265 76.74902,34.88591 l -12.40388,34.88591 -317.07421,0.77525 c 21.36224,-74.59556 9.30291,-69.94411 105.43299,-69.77183 z m -115.37022,144.443 310.26337,-0.55011 -89.66831,240.94921 z m 347.67101,14.30292 -88.01798,231.04719 192.53932,0.55011 z"
     id="path6-1"
     inkscape:connector-curvature="0" />
  <circle
     cx="305.99997"
     cy="839.97968"
     r="161"
     style="fill:none;fill-opacity:1;stroke:#1b1c1f;stroke-width:90;stroke-miterlimit:4;stroke-dasharray:none;stroke-opacity:1"
     id="circle2-7" />
  <circle
     cx="881"
     cy="836.97968"
     r="161"
     style="fill:none;stroke:#1b1c1f;stroke-width:90;stroke-miterlimit:4;stroke-dasharray:none;stroke-opacity:1"
     id="circle4-5" />
  <path
     style="fill:#1b1c1f;fill-opacity:1;fill-rule:evenodd;stroke:#1b1c1f;stroke-width:15;stroke-miterlimit:4;stroke-dasharray:none;stroke-opacity:1"
     d="m 520.48434,446.4468 c -132.56647,1.29207 -110.08444,-13.69595 -181.40675,215.51743 -58.10251,183.14131 -51.77375,163.16908 -52.07762,176.01545 -0.21296,9.98022 7.84333,17.89312 17.96694,18.57043 21.0536,-2.12877 12.19798,2.27698 85.19054,-224.38965 266.71215,281.35562 166.64844,235.73116 310.18316,241.44498 188.64235,-1.8089 203.97493,9.81974 206.21452,-17.83058 -0.25842,-9.38905 -4.65145,-14.98802 -134.11696,-303.11983 l 12.40388,-34.11067 42.63834,-0.77525 -1.55048,-35.66115 H 667.00518 c -14.0405,19.20878 5.68512,19.12265 76.74902,34.88591 l -12.40388,34.88591 -317.07421,0.77525 c 21.36224,-74.59556 9.30291,-69.94411 105.43299,-69.77183 z m -115.37022,144.443 310.26337,-0.55011 -89.66831,240.94921 z m 347.67101,14.30292 -88.01798,231.04719 192.53932,0.55011 z"
     id="path6"
     inkscape:connector-curvature="0" />
  <path
     style="fill:#1b1c1f;fill-opacity:1;stroke-width:1.14972"
     d="m 476.85328,300.01436 33.4632,13.36179 14.63859,-0.19989 c 8.05113,-0.11011 14.98707,0.38848 15.41301,1.10765 0.426,0.71916 1.10534,21.30433 1.50979,45.74477 0.40438,24.4405 0.93054,45.05576 1.16915,45.81175 0.23962,0.75969 25.92889,0.89258 57.41841,0.29731 l 56.98466,-1.07735 0.16591,-3.75747 c 0.0913,-2.06656 -0.0948,-23.05664 -0.41331,-46.64449 -0.36063,-26.7011 -0.005,-43.0679 0.94257,-43.36602 0.83706,-0.26338 27.97173,-0.97046 60.2994,-1.57121 49.92337,-0.9277 58.90343,-0.7556 59.61314,1.14249 0.45952,1.22913 2.83334,6.85785 5.27501,12.50835 5.9159,13.69043 22.97879,37.64609 34.1991,48.01433 48.10894,44.45532 116.24765,55.28618 175.68409,27.92572 12.8242,-5.90338 36.5096,-23.09047 46.0991,-33.45146 33.6796,-36.3889 48.6456,-85.26725 40.8426,-133.39068 -2.3425,-14.44653 -6.7678,-28.93959 -12.9119,-42.28663 -5.9034,-12.82421 -23.0904,-36.50957 -33.4514,-46.09913 -48.0194,-44.444054 -116.24202,-55.290694 -175.67733,-27.9307 -12.82421,5.9034 -36.50956,23.09048 -46.09913,33.45148 -14.45424,15.61695 -27.23023,36.39679 -33.57305,54.60568 -1.59594,4.58156 -3.06041,8.44531 -3.25442,8.58608 -0.19403,0.14075 -59.63155,0.77553 -132.08339,1.41056 l -131.73073,1.15454 -31.91806,10.30914 c -17.55493,5.67002 -32.62937,10.49933 -33.49869,10.73186 -0.99413,0.26585 -1.80712,9.14395 -2.19094,23.92691 -0.33569,12.92732 -0.55814,24.13844 -0.49448,24.91353 0.0639,0.77515 15.17431,7.42212 33.5791,14.77109 z"
     id="path827" />
</svg>
