<?xml version="1.0" encoding="UTF-8" standalone="no"?>
<svg
   version="1.1"
   height="1875.7906"
   width="1871.7209"
   id="svg8"
   sodipodi:docname="mobility_hub.svg"
   inkscape:version="1.1.2 (0a00cf5339, 2022-02-04)"
   xmlns:inkscape="http://www.inkscape.org/namespaces/inkscape"
   xmlns:sodipodi="http://sodipodi.sourceforge.net/DTD/sodipodi-0.dtd"
   xmlns="http://www.w3.org/2000/svg"
   xmlns:svg="http://www.w3.org/2000/svg"
   xmlns:rdf="http://www.w3.org/1999/02/22-rdf-syntax-ns#"
   xmlns:cc="http://creativecommons.org/ns#"
   xmlns:dc="http://purl.org/dc/elements/1.1/">
  <metadata
     id="metadata14">
    <rdf:RDF>
      <cc:Work
         rdf:about="">
        <dc:format>image/svg+xml</dc:format>
        <dc:type
           rdf:resource="http://purl.org/dc/dcmitype/StillImage" />
      </cc:Work>
    </rdf:RDF>
  </metadata>
  <defs
     id="defs12" />
  <sodipodi:namedview
     pagecolor="#ffffff"
     bordercolor="#666666"
     borderopacity="1"
     objecttolerance="10"
     gridtolerance="10"
     guidetolerance="10"
     inkscape:pageopacity="0"
     inkscape:pageshadow="2"
     inkscape:window-width="1920"
     inkscape:window-height="1016"
     id="namedview10"
     showgrid="false"
     inkscape:zoom="0.19666666"
     inkscape:cx="551.69493"
     inkscape:cy="1105.9322"
     inkscape:window-x="0"
     inkscape:window-y="0"
     inkscape:window-maximized="1"
     inkscape:current-layer="svg8"
     inkscape:pagecheckerboard="0"
     fit-margin-top="0"
     fit-margin-left="0"
     fit-margin-right="0"
     fit-margin-bottom="0" />
  <g
     id="g1909"
     transform="translate(2018.7488,1304.1833)">
    <rect
       style="fill:#bfbecf;fill-opacity:1;stroke:none;stroke-width:332.309;stroke-miterlimit:4;stroke-dasharray:none;stroke-opacity:1"
       id="rect1775"
       width="1390.166"
       height="1065.8005"
       x="-1783.6158"
       y="-737.08301" />
    <path
       style="fill:#1b1c1f;fill-opacity:1;stroke:#bfbecf;stroke-width:399.378;stroke-miterlimit:4;stroke-dasharray:none;stroke-opacity:1"
       d="m -1153.5794,367.78719 c -139.4493,-16.28228 -272.5642,-76.26623 -372.8428,-168.00959 l -29.8274,-27.28868 -22.3706,8.99745 c -29.8293,11.9973 -73.8118,14.81674 -105.2708,6.74819 -80.9675,-20.76626 -135.3062,-89.833071 -135.1686,-171.805151 0.2379,-141.601429 155.1431,-225.258729 274.3903,-148.185629 82.8358,53.539375 104.2673,166.320389 47.392,249.39531 l -17.1975,25.11951 23.8511,21.59936 c 88.6383,80.27008 206.3671,134.91134 327.7232,152.10555 89.4359,12.67161 204.87577,-0.0612 289.56556,-31.93816 40.21042,-15.13518 57.17823,-10.62763 57.17823,15.18954 0,16.23976 -6.85236,20.7877 -56.42464,37.44925 -87.93015,29.55391 -192.52805,40.95294 -280.99805,30.62305 z m -456.477,-228.82688 c 28.3949,-8.19479 56.789,-28.59941 72.2855,-51.945911 45.5295,-68.593043 19.5755,-155.102625 -56.7572,-189.182439 -26.8984,-12.00912 -70.6197,-11.34505 -98.2566,1.4924 -29.4008,13.656834 -49.6601,33.391219 -63.8319,62.178194 -10.6584,21.650254 -12.1531,28.36621 -12.1504,54.59305 0,36.553305 11.106,63.581615 36.5821,89.057846 34.4971,34.49698 78.0056,46.54076 122.1285,33.80686 z m 1040.36602,48.4137 c -46.62182,-12.53733 -90.89809,-48.80247 -111.72582,-91.510751 -59.43413,-121.87256 29.60012,-260.694989 164.28658,-256.156079 15.7939,0.53228 29.54133,0.14242 30.54997,-0.8661 1.00864,-1.00862 4.63397,-19.40516 8.05639,-40.88124 9.52198,-59.75249 6.14599,-158.49516 -7.4538,-218.01186 -27.14859,-118.80996 -79.60463,-214.17312 -164.07056,-298.27423 -24.71436,-24.60762 -59.19643,-54.69318 -76.62683,-66.85682 -17.43039,-12.16362 -35.46665,-25.45896 -40.0806,-29.54522 -16.3768,-14.50387 -6.33753,-39.68556 15.82158,-39.68556 22.9895,0 88.96876,49.72967 148.74704,112.11312 93.15395,97.21371 156.08442,227.7305 174.25229,361.39719 8.89317,65.42925 5.52694,166.63977 -7.43681,223.60458 -2.08746,9.17224 -3.47022,16.78413 -3.0728,16.91524 0.39727,0.13112 7.84373,5.01232 16.54761,10.84704 72.75869,48.774697 96.57337,147.846677 55.14235,229.400239 -12.5997,24.801561 -45.74039,58.229861 -71.24657,71.865111 -39.01976,20.85923 -89.84654,26.89769 -131.69002,15.64534 z m 93.79572,-53.67068 c 27.38011,-10.33521 55.59874,-37.364441 69.10209,-66.189171 8.3247,-17.7701 10.07849,-26.71553 10.0809,-51.418555 0,-26.22684 -1.49216,-32.942796 -12.15043,-54.59305 -14.17566,-28.794888 -34.44155,-48.531532 -63.83181,-62.165044 -27.92818,-12.95526 -71.64417,-13.67644 -98.25657,-1.62095 -76.1277,34.486097 -102.52273,122.66538 -56.76091,189.624259 33.72418,49.345321 94.63574,67.946781 151.81673,46.362511 z M -1733.0112,-316.21133 c -8.3094,-5.82004 -8.6715,-7.75868 -6.7899,-36.35217 4.7368,-71.98426 29.9909,-159.25211 68.0831,-235.26776 77.0639,-153.78658 212.2304,-271.25774 375.7778,-326.58295 l 34.5547,-11.68926 4.3792,-27.52362 c 12.4591,-78.30641 75.1493,-138.00891 155.6249,-148.20761 45.3103,-5.7422 106.70638,14.8429 139.23337,46.6828 40.19446,39.3454 54.46145,73.37406 54.46145,129.89793 0,43.72671 -6.80338,68.31512 -27.04052,97.72875 -42.6632,62.00882 -112.7927,90.37684 -186.1814,75.31187 -50.0111,-10.26608 -97.0135,-47.70469 -121.0106,-96.38795 -14.5893,-29.59764 -11.8544,-29.4129 -73.2814,-4.9506 -149.1187,59.384 -277.7981,190.03325 -336.447,341.5973 -16.6453,43.01584 -29.0307,91.74788 -36.7478,144.58891 -5.2343,35.8411 -8.5864,48.7511 -13.6126,52.42636 -9.027,6.60061 -20.4317,6.13269 -31.0033,-1.272 z m 701.4156,-492.53991 c 9.6733,-4.318 25.8145,-15.54596 35.86925,-24.95104 53.40774,-49.95673 53.40774,-133.14666 0,-183.10342 -24.50095,-22.9177 -46.92655,-32.3781 -81.42025,-34.3478 -36.551,-2.0871 -63.0735,7.4976 -90.7555,32.7974 -55.9076,51.09636 -55.9015,135.11346 0.015,186.21659 27.9757,25.56814 51.1494,34.03525 88.8778,32.47371 20.0535,-0.82999 35.5906,-3.80714 47.4152,-9.08544 z"
       id="path839-3"
       sodipodi:nodetypes="sscssssscsssssssssssssssssssssssssssssssssssssssssssscsssssssssssscsssscscc" />
  </g>
  <path
     style="fill:#1b1c1f;fill-opacity:1;stroke:#1b1c1f;stroke-width:75.3543;stroke-miterlimit:4;stroke-dasharray:none;stroke-opacity:1"
     d="m 865.17102,1671.9705 c -139.4493,-16.2823 -272.5642,-76.2662 -372.8428,-168.0096 l -29.8274,-27.2887 -22.3706,8.9975 c -29.8293,11.9973 -73.8118,14.8167 -105.2708,6.7482 -80.9675,-20.7663 -135.3061,-89.8331 -135.1685,-171.8052 0.2378,-141.6014 155.143,-225.2587 274.3901,-148.1856 82.8359,53.5394 104.2674,166.3204 47.3921,249.3953 l -17.1975,25.1195 23.8511,21.5994 c 88.6383,80.27 206.3671,134.9113 327.7232,152.1055 89.4359,12.6716 204.87578,-0.061 289.56558,-31.9381 40.2104,-15.1352 57.1782,-10.6277 57.1782,15.1895 0,16.2398 -6.8524,20.7877 -56.4246,37.4492 -87.9302,29.554 -192.52808,40.953 -280.99808,30.6231 z m -456.477,-228.8269 c 28.3949,-8.1948 56.789,-28.5994 72.2855,-51.9459 45.5295,-68.593 19.5755,-155.1026 -56.7572,-189.1824 -26.8984,-12.0092 -70.6197,-11.3451 -98.2566,1.4924 -29.4008,13.6568 -49.6601,33.3912 -63.8318,62.1782 -10.6584,21.6502 -12.1532,28.3662 -12.1505,54.593 0,36.5533 11.1061,63.5816 36.5822,89.0579 34.497,34.4969 78.0055,46.5407 122.1284,33.8068 z M 1449.06,1491.5573 c -46.6218,-12.5373 -90.8981,-48.8025 -111.7258,-91.5107 -59.4341,-121.8726 29.6001,-260.695 164.2866,-256.1561 15.7939,0.5323 29.5413,0.1424 30.55,-0.8661 1.0086,-1.0086 4.6339,-19.4052 8.0563,-40.8813 9.522,-59.7524 6.146,-158.49511 -7.4537,-218.01181 -27.1486,-118.80996 -79.6047,-214.17312 -164.0706,-298.27423 -24.7144,-24.60762 -59.1964,-54.69318 -76.6268,-66.85682 -17.4304,-12.16362 -35.4667,-25.45896 -40.0806,-29.54522 -16.3768,-14.50387 -6.3376,-39.68556 15.8215,-39.68556 22.9895,0 88.9688,49.72967 148.7471,112.11312 93.1539,97.21371 156.0844,227.7305 174.2523,361.39719 8.8932,65.42925 5.527,166.63973 -7.4368,223.60453 -2.0875,9.1723 -3.4703,16.7842 -3.0728,16.9153 0.3972,0.1311 7.8437,5.0123 16.5476,10.847 72.7587,48.7747 96.5734,147.8467 55.1424,229.4003 -12.5997,24.8015 -45.7404,58.2298 -71.2466,71.8651 -39.0198,20.8592 -89.8466,26.8977 -131.6901,15.6453 z m 93.7957,-53.6707 c 27.3802,-10.3352 55.5989,-37.3644 69.1022,-66.1891 8.3247,-17.7701 10.0785,-26.7156 10.0809,-51.4186 0,-26.2268 -1.4922,-32.9428 -12.1504,-54.593 -14.1757,-28.7949 -34.4416,-48.5316 -63.8319,-62.1651 -27.9282,-12.9552 -71.6442,-13.6764 -98.2566,-1.6209 -76.1277,34.4861 -102.5227,122.6653 -56.7609,189.6242 33.7242,49.3453 94.6358,67.9468 151.8167,46.3625 z M 285.73922,987.97198 c -8.3093,-5.82004 -8.6714,-7.75868 -6.7898,-36.35217 4.7367,-71.98426 29.9908,-159.25211 68.083,-235.26776 77.0639,-153.78658 212.2304,-271.25774 375.7778,-326.58295 l 34.5547,-11.68926 4.3792,-27.52362 c 12.4591,-78.30641 75.1493,-138.00891 155.6249,-148.20761 45.3103,-5.7422 106.70638,14.8429 139.23338,46.6828 40.1944,39.3454 54.4614,73.37406 54.4614,129.89793 0,43.72671 -6.8033,68.31512 -27.0405,97.72875 -42.6632,62.00882 -112.79268,90.37684 -186.18138,75.31187 -50.0111,-10.26608 -97.0135,-47.70469 -121.0106,-96.38795 -14.5893,-29.59764 -11.8544,-29.4129 -73.2814,-4.9506 -149.1187,59.384 -277.7981,190.03325 -336.447,341.5973 -16.6453,43.01584 -29.0307,91.74788 -36.7478,144.58891 -5.2343,35.8411 -8.5864,48.7511 -13.6126,52.42636 -9.0269,6.60061 -20.4317,6.13269 -31.0033,-1.272 z m 701.4156,-492.53991 c 9.6733,-4.318 25.81448,-15.54596 35.86928,-24.95104 53.4077,-49.95673 53.4077,-133.14666 0,-183.10342 -24.50098,-22.9177 -46.92658,-32.3781 -81.42028,-34.3478 -36.551,-2.0871 -63.0735,7.4976 -90.7555,32.7974 -55.9076,51.09636 -55.9015,135.11346 0.015,186.21659 27.9757,25.56814 51.1494,34.03525 88.8778,32.47371 20.0535,-0.82999 35.5906,-3.80714 47.4152,-9.08544 z"
     id="path839"
     sodipodi:nodetypes="sscssssscsssssssssssssssssssssssssssssssssssssssssssscsssssssssssscsssscscc" />
  <path
     style="fill:#1b1c1f;fill-opacity:1;stroke-width:1.32284"
     d="m 594.30564,1051.6782 38.50187,15.3738 16.84278,-0.23 c 9.26339,-0.1267 17.24365,0.4468 17.73379,1.2744 0.49015,0.8274 1.27174,24.5121 1.73714,52.6327 0.46529,28.1206 1.07061,51.8399 1.34514,52.7097 0.27567,0.8741 29.8331,1.027 66.06408,0.3421 l 65.56508,-1.2396 0.19088,-4.3232 c 0.10471,-2.3776 -0.1093,-26.5283 -0.47553,-53.668 -0.41489,-30.7215 -0.0115,-49.5527 1.08454,-49.8957 0.96302,-0.303 32.18349,-1.1165 69.37888,-1.8078 57.44042,-1.0674 67.77268,-0.8693 68.58925,1.3145 0.52869,1.4142 3.25992,7.8904 6.06927,14.3918 6.80668,15.7519 26.4388,43.3146 39.34858,55.2441 55.35291,51.149 133.75151,63.6108 202.13741,32.1305 14.7552,-6.7923 42.007,-26.5673 53.0404,-38.4884 38.7508,-41.8681 55.9703,-98.1062 46.9924,-153.47574 -2.6952,-16.62179 -7.7869,-33.29713 -14.8561,-48.65387 -6.7923,-14.7552 -26.5672,-42.00694 -38.4882,-53.04044 -55.2499,-51.13614 -133.745,-63.616 -202.1297,-32.13632 -14.7551,6.7923 -42.00693,26.56729 -53.04047,38.48838 -16.63062,17.96845 -31.33035,41.87718 -38.6282,62.82785 -1.83632,5.27142 -3.52122,9.71695 -3.74443,9.87892 -0.22333,0.16194 -68.61053,0.8923 -151.97165,1.62295 l -151.56596,1.32838 -36.724,11.86142 c -20.1982,6.52378 -37.54252,12.08025 -38.54272,12.3478 -1.14378,0.30588 -2.0792,10.52078 -2.52079,27.52967 -0.38624,14.8739 -0.64224,27.7731 -0.56896,28.6649 0.0736,0.8918 17.45915,8.5397 38.63522,16.9952 z"
     id="path827" />
</svg>
