<?xml version="1.0" encoding="UTF-8" standalone="no"?>
<svg
   version="1.1"
   height="1000.8552"
   width="1188.8035"
   id="svg8"
   sodipodi:docname="motorcycle.svg"
   inkscape:version="1.1.2 (0a00cf5339, 2022-02-04)"
   xmlns:inkscape="http://www.inkscape.org/namespaces/inkscape"
   xmlns:sodipodi="http://sodipodi.sourceforge.net/DTD/sodipodi-0.dtd"
   xmlns="http://www.w3.org/2000/svg"
   xmlns:svg="http://www.w3.org/2000/svg"
   xmlns:rdf="http://www.w3.org/1999/02/22-rdf-syntax-ns#"
   xmlns:cc="http://creativecommons.org/ns#"
   xmlns:dc="http://purl.org/dc/elements/1.1/">
  <metadata
     id="metadata14">
    <rdf:RDF>
      <cc:Work
         rdf:about="">
        <dc:format>image/svg+xml</dc:format>
        <dc:type
           rdf:resource="http://purl.org/dc/dcmitype/StillImage" />
      </cc:Work>
    </rdf:RDF>
  </metadata>
  <defs
     id="defs12" />
  <sodipodi:namedview
     pagecolor="#ffffff"
     bordercolor="#666666"
     borderopacity="1"
     objecttolerance="10"
     gridtolerance="10"
     guidetolerance="10"
     inkscape:pageopacity="0"
     inkscape:pageshadow="2"
     inkscape:window-width="1920"
     inkscape:window-height="1016"
     id="namedview10"
     showgrid="false"
     inkscape:zoom="0.39333332"
     inkscape:cx="209.74577"
     inkscape:cy="507.2034"
     inkscape:window-x="0"
     inkscape:window-y="0"
     inkscape:window-maximized="1"
     inkscape:current-layer="svg8"
     inkscape:pagecheckerboard="0"
     fit-margin-top="0"
     fit-margin-left="0"
     fit-margin-right="0"
     fit-margin-bottom="0" />
  <path
     style="fill:#1b1c1f;fill-opacity:1;stroke:#bfbecf;stroke-width:200;stroke-miterlimit:4;stroke-dasharray:none;stroke-opacity:1"
     d="m 240.01992,896.51592 c -11.03443,-1.7789 -30.32413,-7.30597 -41.3127,-11.83729 C 134.3256,858.12979 93.063206,788.07218 101.09784,718.95194 115.9967,590.78008 263.20819,530.35262 364.31591,610.90604 c 35.70634,28.44755 58.78613,77.5006 58.78613,124.94215 0,74.42399 -49.52636,137.72899 -122.86137,157.04235 -12.453,3.27962 -48.79466,5.46743 -60.22075,3.62538 z m 53.36473,-59.50339 c 31.45137,-9.95692 59.04509,-37.53191 69.19245,-69.14549 4.7241,-14.71762 5.85054,-40.00758 2.43032,-54.56337 -13.41057,-57.07284 -68.48817,-92.72353 -124.9875,-80.90205 -30.18867,6.31644 -59.19076,28.88997 -72.94565,56.77663 -16.40361,33.25666 -14.81865,69.70535 4.40981,101.4113 15.12341,24.93711 39.1297,42.04676 68.53584,48.84655 13.53282,3.12929 39.55819,1.94735 53.36473,-2.42357 z m 602.43768,58.11768 C 800.63139,877.12368 741.93569,780.02467 770.75279,688.23041 c 8.53901,-27.2003 21.69766,-48.28593 42.57761,-68.22707 15.00669,-14.33195 23.15918,-20.21219 39.15261,-28.23996 51.84365,-26.02253 112.14045,-22.44394 161.36889,9.57719 33.3301,21.67985 56.7767,54.61885 68.0733,95.63275 5.1531,18.70894 5.1463,57.70918 -0.013,78.08071 -7.1825,28.35659 -21.7972,53.89702 -42.9376,75.03742 -20.9554,20.95542 -46.75401,35.79587 -74.18927,42.67676 -18.04296,4.52526 -51.47322,5.67025 -68.96228,2.362 z m 55.00046,-56.61153 c 38.73149,-9.90584 68.77711,-40.89667 77.45201,-79.88842 3.8383,-17.25254 2.5932,-39.89584 -3.0929,-56.24623 -11.1453,-32.04826 -35.10176,-55.83645 -67.02271,-66.55197 -60.15491,-20.19333 -124.67198,17.95344 -137.04171,81.02817 -9.16482,46.73254 15.27936,94.04522 59.48984,115.14495 20.81895,9.93595 47.24787,12.38764 70.21547,6.5135 z m -302.7678,-46.13382 c -70.62565,-1.15202 -85.15329,-2.16543 -117.01306,-8.16254 -32.69689,-6.1547 -60.26085,-18.26788 -75.85183,-33.33359 -6.16205,-5.95447 -7.41555,-8.41011 -9.77291,-19.14552 C 432.30618,672.03582 407.0704,626.21448 371.7216,597.93195 341.90146,574.07288 304.81686,560.68027 261.0687,557.97114 l -17.76479,-1.1001 -5.41926,-11.34433 c -2.98061,-6.23938 -7.25242,-17.67015 -9.49295,-25.40173 -15.24504,-52.60742 2.47006,-87.14685 59.24598,-115.51291 20.19855,-10.09148 97.30801,-39.42212 99.75102,-37.94295 0.67733,0.41009 1.28344,5.32013 1.34692,10.91118 0.0634,5.59104 0.62057,11.43942 1.23803,12.9964 0.9166,2.31136 17.69461,-9.70606 91.42565,-65.48451 57.07192,-43.17563 94.23064,-70.17768 100.97599,-73.37604 13.65719,-6.47564 34.98249,-7.99949 50.16818,-3.58489 18.47041,5.36949 27.58505,11.28794 41.14318,26.71562 9.60821,10.93311 60.19223,77.14387 97.15922,127.17427 1.8878,2.55491 -3.32862,6.92702 -50.66758,42.46676 -29.02461,21.79026 -53.33932,38.99602 -54.03264,38.23505 -0.69335,-0.76096 -23.23245,-32.04777 -50.08691,-69.52625 -26.85446,-37.47846 -49.35146,-68.71301 -49.99332,-69.41007 -0.80483,-0.87403 -145.53709,107.93416 -159.23666,119.71242 -1.2671,1.08941 5.59103,12.28559 13.59994,22.2024 9.87867,12.23202 28.90209,26.52848 47.15295,35.43636 17.94572,8.75893 22.83664,10.03095 22.85811,5.94486 0.0247,-4.69238 7.29291,-19.04272 11.69351,-23.08753 9.39365,-8.63414 10.09763,-8.69882 94.68574,-8.69882 h 78.58688 l 51.57365,-40.23551 c 28.36551,-22.12952 52.07667,-40.04777 52.69145,-39.81832 1.51301,0.56471 21.58312,27.77995 35.71807,48.43398 6.33066,9.25041 12.28398,19.69213 13.22958,23.20382 l 1.71926,6.38488 79.66686,1.21936 79.66685,1.21936 3.27222,4.15996 c 1.79971,2.28796 4.45659,8.23405 5.90416,13.21353 3.20961,11.0406 1.44021,21.27295 -5.89753,34.10599 l -4.7883,8.37426 -34.17872,0.95465 c -39.89583,1.11436 -66.29152,5.02596 -92.46947,13.7032 -69.56561,23.05896 -105.3289,70.4405 -111.61697,147.87743 -1.57286,19.36971 -0.24675,54.96094 2.6346,70.70952 l 0.97636,5.33648 -17.83416,-0.30787 c -9.80878,-0.16934 -49.23725,-0.82013 -87.61881,-1.44619 z M 496.9917,247.3555 c 0,-15.35263 0.55417,-27.9144 1.23149,-27.91502 0.67732,-6.4e-4 14.4655,-1.84788 30.64042,-4.10498 16.17493,-2.25712 29.65979,-4.10383 29.96636,-4.10383 0.30658,0 0.55743,-9.9751 0.55743,-22.1669 0,-12.19179 -0.42204,-22.1669 -0.9379,-22.1669 -0.51582,0 -14.60237,2.29232 -31.30344,5.09404 -16.70106,2.80171 -30.74663,4.71299 -31.21235,4.24726 -1.45931,-1.45928 4.06656,-20.40092 8.50925,-29.16813 11.52531,-22.7441 36.2063,-38.76228 70.1845,-45.5503 14.21017,-2.838861 44.07991,2.11651 59.17391,9.81687 14.77435,7.53733 29.02097,25.58547 38.02483,48.1713 10.20045,25.58744 9.37693,50.12283 -2.49356,74.29005 l -6.64879,13.53632 -7.79506,-3.95005 c -20.95483,-10.61862 -48.87936,-13.05945 -69.22952,-6.05119 -13.03771,4.48996 -28.61171,13.57782 -42.29532,24.68047 -10.10759,8.20112 -10.56431,8.37856 -27.78919,10.79652 -9.632,1.35207 -17.75355,2.45833 -18.04789,2.45833 -0.29435,0 -0.53517,-12.56124 -0.53517,-27.91386 z"
     id="path2180-3" />
  <path
     style="fill:#1b1c1f;fill-opacity:1;stroke-width:1.64199"
     d="m 240.01992,896.51592 c -11.03443,-1.7789 -30.32413,-7.30597 -41.3127,-11.83729 C 134.3256,858.12979 93.063206,788.07218 101.09784,718.95194 115.9967,590.78008 263.20819,530.35262 364.31591,610.90604 c 35.70634,28.44755 58.78613,77.5006 58.78613,124.94215 0,74.42399 -49.52636,137.72899 -122.86137,157.04235 -12.453,3.27962 -48.79466,5.46743 -60.22075,3.62538 z m 53.36473,-59.50339 c 31.45137,-9.95692 59.04509,-37.53191 69.19245,-69.14549 4.7241,-14.71762 5.85054,-40.00758 2.43032,-54.56337 -13.41057,-57.07284 -68.48817,-92.72353 -124.9875,-80.90205 -30.18867,6.31644 -59.19076,28.88997 -72.94565,56.77663 -16.40361,33.25666 -14.81865,69.70535 4.40981,101.4113 15.12341,24.93711 39.1297,42.04676 68.53584,48.84655 13.53282,3.12929 39.55819,1.94735 53.36473,-2.42357 z m 602.43768,58.11768 C 800.63139,877.12368 741.93569,780.02467 770.75279,688.23041 c 8.53901,-27.2003 21.69766,-48.28593 42.57761,-68.22707 15.00669,-14.33195 23.15918,-20.21219 39.15261,-28.23996 51.84365,-26.02253 112.14045,-22.44394 161.36889,9.57719 33.3301,21.67985 56.7767,54.61885 68.0733,95.63275 5.1531,18.70894 5.1463,57.70918 -0.013,78.08071 -7.1825,28.35659 -21.7972,53.89702 -42.9376,75.03742 -20.9554,20.95542 -46.75401,35.79587 -74.18927,42.67676 -18.04296,4.52526 -51.47322,5.67025 -68.96228,2.362 z m 55.00046,-56.61153 c 38.73149,-9.90584 68.77711,-40.89667 77.45201,-79.88842 3.8383,-17.25254 2.5932,-39.89584 -3.0929,-56.24623 -11.1453,-32.04826 -35.10176,-55.83645 -67.02271,-66.55197 -60.15491,-20.19333 -124.67198,17.95344 -137.04171,81.02817 -9.16482,46.73254 15.27936,94.04522 59.48984,115.14495 20.81895,9.93595 47.24787,12.38764 70.21547,6.5135 z m -302.7678,-46.13382 c -70.62565,-1.15202 -85.15329,-2.16543 -117.01306,-8.16254 -32.69689,-6.1547 -60.26085,-18.26788 -75.85183,-33.33359 -6.16205,-5.95447 -7.41555,-8.41011 -9.77291,-19.14552 C 432.30618,672.03582 407.0704,626.21448 371.7216,597.93195 341.90146,574.07288 304.81686,560.68027 261.0687,557.97114 l -17.76479,-1.1001 -5.41926,-11.34433 c -2.98061,-6.23938 -7.25242,-17.67015 -9.49295,-25.40173 -15.24504,-52.60742 2.47006,-87.14685 59.24598,-115.51291 20.19855,-10.09148 97.30801,-39.42212 99.75102,-37.94295 0.67733,0.41009 1.28344,5.32013 1.34692,10.91118 0.0634,5.59104 0.62057,11.43942 1.23803,12.9964 0.9166,2.31136 17.69461,-9.70606 91.42565,-65.48451 57.07192,-43.17563 94.23064,-70.17768 100.97599,-73.37604 13.65719,-6.47564 34.98249,-7.99949 50.16818,-3.58489 18.47041,5.36949 27.58505,11.28794 41.14318,26.71562 9.60821,10.93311 60.19223,77.14387 97.15922,127.17427 1.8878,2.55491 -3.32862,6.92702 -50.66758,42.46676 -29.02461,21.79026 -53.33932,38.99602 -54.03264,38.23505 -0.69335,-0.76096 -23.23245,-32.04777 -50.08691,-69.52625 -26.85446,-37.47846 -49.35146,-68.71301 -49.99332,-69.41007 -0.80483,-0.87403 -145.53709,107.93416 -159.23666,119.71242 -1.2671,1.08941 5.59103,12.28559 13.59994,22.2024 9.87867,12.23202 28.90209,26.52848 47.15295,35.43636 17.94572,8.75893 22.83664,10.03095 22.85811,5.94486 0.0247,-4.69238 7.29291,-19.04272 11.69351,-23.08753 9.39365,-8.63414 10.09763,-8.69882 94.68574,-8.69882 h 78.58688 l 51.57365,-40.23551 c 28.36551,-22.12952 52.07667,-40.04777 52.69145,-39.81832 1.51301,0.56471 21.58312,27.77995 35.71807,48.43398 6.33066,9.25041 12.28398,19.69213 13.22958,23.20382 l 1.71926,6.38488 79.66686,1.21936 79.66685,1.21936 3.27222,4.15996 c 1.79971,2.28796 4.45659,8.23405 5.90416,13.21353 3.20961,11.0406 1.44021,21.27295 -5.89753,34.10599 l -4.7883,8.37426 -34.17872,0.95465 c -39.89583,1.11436 -66.29152,5.02596 -92.46947,13.7032 -69.56561,23.05896 -105.3289,70.4405 -111.61697,147.87743 -1.57286,19.36971 -0.24675,54.96094 2.6346,70.70952 l 0.97636,5.33648 -17.83416,-0.30787 c -9.80878,-0.16934 -49.23725,-0.82013 -87.61881,-1.44619 z M 496.9917,247.3555 c 0,-15.35263 0.55417,-27.9144 1.23149,-27.91502 0.67732,-6.4e-4 14.4655,-1.84788 30.64042,-4.10498 16.17493,-2.25712 29.65979,-4.10383 29.96636,-4.10383 0.30658,0 0.55743,-9.9751 0.55743,-22.1669 0,-12.19179 -0.42204,-22.1669 -0.9379,-22.1669 -0.51582,0 -14.60237,2.29232 -31.30344,5.09404 -16.70106,2.80171 -30.74663,4.71299 -31.21235,4.24726 -1.45931,-1.45928 4.06656,-20.40092 8.50925,-29.16813 11.52531,-22.7441 36.2063,-38.76228 70.1845,-45.5503 14.21017,-2.838861 44.07991,2.11651 59.17391,9.81687 14.77435,7.53733 29.02097,25.58547 38.02483,48.1713 10.20045,25.58744 9.37693,50.12283 -2.49356,74.29005 l -6.64879,13.53632 -7.79506,-3.95005 c -20.95483,-10.61862 -48.87936,-13.05945 -69.22952,-6.05119 -13.03771,4.48996 -28.61171,13.57782 -42.29532,24.68047 -10.10759,8.20112 -10.56431,8.37856 -27.78919,10.79652 -9.632,1.35207 -17.75355,2.45833 -18.04789,2.45833 -0.29435,0 -0.53517,-12.56124 -0.53517,-27.91386 z"
     id="path2180" />
</svg>
