<?xml version="1.0" encoding="UTF-8" standalone="no"?>
<svg
   width="14"
   height="14"
   viewBox="0 0 14 14"
   version="1.1"
   id="svg891"
   sodipodi:docname="parking_tickets.svg"
   inkscape:version="1.1.2 (0a00cf5339, 2022-02-04)"
   xmlns:inkscape="http://www.inkscape.org/namespaces/inkscape"
   xmlns:sodipodi="http://sodipodi.sourceforge.net/DTD/sodipodi-0.dtd"
   xmlns="http://www.w3.org/2000/svg"
   xmlns:svg="http://www.w3.org/2000/svg">
  <defs
     id="defs895" />
  <sodipodi:namedview
     id="namedview893"
     pagecolor="#505050"
     bordercolor="#eeeeee"
     borderopacity="1"
     inkscape:pageshadow="0"
     inkscape:pageopacity="0"
     inkscape:pagecheckerboard="0"
     showgrid="false"
     inkscape:zoom="39.496965"
     inkscape:cx="5.5953667"
     inkscape:cy="7.9120004"
     inkscape:window-width="1920"
     inkscape:window-height="1016"
     inkscape:window-x="0"
     inkscape:window-y="0"
     inkscape:window-maximized="1"
     inkscape:current-layer="svg891" />
  <rect
     style="fill:#a95c6f;fill-opacity:1;stroke-width:3.77953"
     id="rect976"
     width="12"
     height="2"
     x="1.0000002"
     y="1" />
  <rect
     style="fill:#a95c6f;fill-opacity:1;stroke-width:5.81681"
     id="rect976-6"
     width="6"
     height="9.4744301"
     x="4"
     y="2" />
  <rect
     style="fill:#a95c6f;fill-opacity:1;stroke-width:1.43032"
     id="rect976-6-7"
     width="1.8400686"
     height="1.8679612"
     x="8.1599312"
     y="11.132039" />
  <rect
     style="fill:#a95c6f;fill-opacity:1;stroke-width:1.43032"
     id="rect976-6-7-5"
     width="1.8400686"
     height="1.8679612"
     x="4"
     y="11.132039" />
  <path
     d="m0,0 v3 h1 v-2 h12 v2 h1 v-3 z m3,2 v12 h3 v-1 a1,1 0 0 1 2,0 v1 h3 v-12 h-1 v11 h-1 a2,2 0 0 0 -4,0 h-1 v-11 z m2,2 v6 h1 v-2.5 h1.6666 c 1.7777,0 1.7777,-3.5 0,-3.5 z m1,0.875 h1.4453 c0.9364,0 0.9364,1.75 0,1.75 h-1.4453 z"
     id="path889" />
</svg>
