<?xml version="1.0" encoding="UTF-8" standalone="no"?>
<!-- Created with Inkscape (http://www.inkscape.org/) -->

<svg
   xmlns:dc="http://purl.org/dc/elements/1.1/"
   xmlns:cc="http://creativecommons.org/ns#"
   xmlns:rdf="http://www.w3.org/1999/02/22-rdf-syntax-ns#"
   xmlns:svg="http://www.w3.org/2000/svg"
   xmlns="http://www.w3.org/2000/svg"
   xmlns:sodipodi="http://sodipodi.sourceforge.net/DTD/sodipodi-0.dtd"
   xmlns:inkscape="http://www.inkscape.org/namespaces/inkscape"
   width="175.41869mm"
   height="175.43234mm"
   viewBox="0 0 175.41868 175.43234"
   version="1.1"
   id="svg8"
   inkscape:version="0.92.3 (2405546, 2018-03-11)"
   sodipodi:docname="post_box_pin.svg">
  <defs
     id="defs2" />
  <sodipodi:namedview
     id="base"
     pagecolor="#ffffff"
     bordercolor="#666666"
     borderopacity="1.0"
     inkscape:pageopacity="0.0"
     inkscape:pageshadow="2"
     inkscape:zoom="0.7"
     inkscape:cx="373.64139"
     inkscape:cy="280.36419"
     inkscape:document-units="mm"
     inkscape:current-layer="layer2"
     showgrid="false"
     inkscape:window-width="1920"
     inkscape:window-height="1053"
     inkscape:window-x="0"
     inkscape:window-y="27"
     inkscape:window-maximized="1" />
  <metadata
     id="metadata5">
    <rdf:RDF>
      <cc:Work
         rdf:about="">
        <dc:format>image/svg+xml</dc:format>
        <dc:type
           rdf:resource="http://purl.org/dc/dcmitype/StillImage" />
        <dc:title></dc:title>
      </cc:Work>
    </rdf:RDF>
  </metadata>
  <g
     inkscape:groupmode="layer"
     id="layer2"
     inkscape:label="background colour"
     style="display:inline">
    <ellipse
       style="display:inline;opacity:1;fill:#8cc63f;fill-opacity:1;stroke:none;stroke-width:5.33496189;stroke-linejoin:round;stroke-miterlimit:4;stroke-dasharray:none;stroke-dashoffset:0;stroke-opacity:1"
       id="path134"
       cx="87.638847"
       cy="87.930855"
       rx="85.370987"
       ry="85.422623" />
  </g>
  <g
     inkscape:label="letter"
     inkscape:groupmode="layer"
     id="layer1"
     transform="translate(224.22826,-69.439275)"
     style="display:inline">
    <path
       style="fill:#000000;stroke-width:0.35277781"
       d="m -146.39669,244.63052 c -11.97908,-1.61464 -20.97433,-4.36257 -30.57989,-9.34173 -8.66735,-4.49284 -15.5946,-9.67535 -22.69376,-16.978 -6.95678,-7.15618 -11.561,-13.69481 -15.86613,-22.53211 -4.07107,-8.35682 -6.56316,-16.21521 -7.99904,-25.22361 -0.92367,-5.79493 -0.92367,-21.01619 0,-26.81112 2.31401,-14.51761 8.03748,-27.98703 16.93877,-39.86314 3.20852,-4.280812 10.36477,-11.647312 14.73142,-15.164232 12.06153,-9.7144 26.48779,-16.10548 41.94085,-18.58053 5.80043,-0.92903 21.01068,-0.92903 26.81111,0 9.31059,1.49124 17.94383,4.284 26.281947,8.50195 9.09744,4.60206 16.11667,9.79238 23.46392,17.35023 6.95678,7.156182 11.561,13.694812 15.86613,22.532112 4.07107,8.35682 6.56316,16.21521 7.99904,25.22361 0.92367,5.79493 0.92367,21.01619 0,26.81112 -2.31401,14.51761 -8.03748,27.98703 -16.93878,39.86314 -3.20851,4.28081 -10.36476,11.64731 -14.73141,15.16422 -11.976782,9.64615 -26.477167,16.09053 -41.764457,18.56131 -4.07306,0.6583 -19.7707,0.98402 -23.45972,0.48678 z m 20.00207,-10.76445 c 16.88205,-2.19693 32.384018,-9.86364 44.556327,-22.03594 12.1723,-12.17231 19.83901,-27.67427 22.03594,-44.55633 0.69633,-5.35087 0.69633,-14.89771 0,-20.24858 -3.70125,-28.44183 -23.03758,-52.542512 -50.258227,-62.641562 -4.50026,-1.66962 -11.25931,-3.30767 -16.33404,-3.95853 -5.36596,-0.68822 -14.92837,-0.68452 -20.24859,0.008 -16.88206,2.19693 -32.38402,9.86363 -44.55633,22.035942 -12.1723,12.17231 -19.83901,27.67427 -22.03594,44.55633 -0.69633,5.35087 -0.69633,14.89771 0,20.24858 3.70189,28.44676 23.02839,52.53239 50.26767,62.646 4.26042,1.58185 11.08964,3.26641 15.86556,3.91356 5.0892,0.68959 15.53311,0.7061 20.70763,0.0327 z m -67.2743,-73.01239 V 117.6384 h 56.97361 56.973617 v 43.21528 43.21528 h -56.973617 -56.97361 z m 98.396742,33.07292 c -1.041975,-1.11566 -7.441642,-7.70295 -14.221482,-14.63842 l -12.32698,-12.60995 -3.73894,3.64612 c -4.59109,4.47713 -6.28258,5.29426 -10.95934,5.29426 -4.69591,0 -6.36098,-0.81005 -11.0359,-5.36892 l -3.81549,-3.72077 -12.24635,12.50821 c -6.7355,6.87952 -13.18123,13.5004 -14.32384,14.71308 l -2.07749,2.20486 h 43.32016 43.32015 z m -65.257262,-36.77709 c -1.90294,-2.03729 -8.31217,-8.54507 -14.24274,-14.46172 l -10.78285,-10.75755 0.0122,28.92561 0.0122,28.92561 14.2305,-14.46389 14.23051,-14.46389 -3.45989,-3.70417 z m 72.609627,-10.31875 -0.0922,-14.19931 -14.065657,14.16285 -14.06566,14.16285 14.06566,14.3649 14.065657,14.36489 0.0922,-14.32844 c 0.0507,-7.88064 0.0507,-20.71812 0,-28.52774 z m -46.297647,20.34528 c 0.64788,-0.30743 10.20672,-9.70798 21.34373,-20.99027 l 20.170349,-20.43348 h -43.685779 -43.68578 l 3.71561,3.79236 c 19.01026,19.40295 36.66126,37.06346 37.53584,37.55604 1.35287,0.76199 3.09887,0.79055 4.60603,0.0754 z"
       id="path132"
       inkscape:connector-curvature="0" />
  </g>
</svg>
