<?xml version="1.0" encoding="UTF-8" standalone="no"?>
<!-- Created with Inkscape (http://www.inkscape.org/) -->

<svg
   width="94.477127mm"
   height="94.489624mm"
   viewBox="0 0 94.477128 94.489624"
   version="1.1"
   id="svg8"
   inkscape:version="1.1.2 (0a00cf5339, 2022-02-04)"
   sodipodi:docname="telephone.svg"
   xmlns:inkscape="http://www.inkscape.org/namespaces/inkscape"
   xmlns:sodipodi="http://sodipodi.sourceforge.net/DTD/sodipodi-0.dtd"
   xmlns="http://www.w3.org/2000/svg"
   xmlns:svg="http://www.w3.org/2000/svg"
   xmlns:rdf="http://www.w3.org/1999/02/22-rdf-syntax-ns#"
   xmlns:cc="http://creativecommons.org/ns#"
   xmlns:dc="http://purl.org/dc/elements/1.1/">
  <defs
     id="defs2" />
  <sodipodi:namedview
     id="base"
     pagecolor="#ffffff"
     bordercolor="#666666"
     borderopacity="1.0"
     inkscape:pageopacity="0.0"
     inkscape:pageshadow="2"
     inkscape:zoom="0.35"
     inkscape:cx="-382.85714"
     inkscape:cy="-30"
     inkscape:document-units="mm"
     inkscape:current-layer="layer1"
     showgrid="false"
     inkscape:window-width="1920"
     inkscape:window-height="1016"
     inkscape:window-x="0"
     inkscape:window-y="0"
     inkscape:window-maximized="1"
     inkscape:pagecheckerboard="0" />
  <metadata
     id="metadata5">
    <rdf:RDF>
      <cc:Work
         rdf:about="">
        <dc:format>image/svg+xml</dc:format>
        <dc:type
           rdf:resource="http://purl.org/dc/dcmitype/StillImage" />
        <dc:title />
      </cc:Work>
    </rdf:RDF>
  </metadata>
  <g
     inkscape:label="Ebene 1"
     inkscape:groupmode="layer"
     id="layer1"
     transform="translate(-4.1742988,-49.232097)">
    <path
       style="fill:#1b1c1f;stroke-width:0.04801512;fill-opacity:1"
       d="m 50.264484,143.71548 c -12.53254,-0.3147 -24.26988,-5.49091 -32.95345,-14.5326 C 9.8888738,121.45463 5.3359538,111.4802 4.3645438,100.82001 c -0.25366,-2.783618 -0.25366,-5.907108 0,-8.690728 1.03303,-11.33633 6.0944702,-21.8376 14.3440702,-29.76045 7.72864,-7.42253 17.70215,-11.97503 28.36287,-12.94649 2.78362,-0.25366 5.90711,-0.25366 8.69073,0 11.33851,1.03322 21.84735,6.09953 29.76527,14.3498 7.42396,7.73559 11.97029,17.69728 12.94167,28.35714 0.14027,1.53937 0.18227,2.54064 0.18227,4.34537 0,1.80472 -0.042,2.80599 -0.18227,4.345358 -1.03338,11.34029 -6.09823,21.84611 -14.3498,29.76527 -8.14167,7.81368 -18.73793,12.42856 -29.98965,13.0611 -0.95811,0.0539 -3.0107,0.0906 -3.86522,0.0691 z m 2.61085,-5.6355 c 3.1656,-0.11921 5.85754,-0.50567 8.86477,-1.27265 5.59476,-1.42693 10.73527,-3.96211 15.31682,-7.55391 2.53577,-1.98797 5.12353,-4.57604 7.13786,-7.1387 3.12758,-3.97897 5.49238,-8.48073 7.00527,-13.33561 0.31574,-1.01323 0.81066,-2.95712 1.02397,-4.02186 0.90443,-4.5146 1.06564,-9.071308 0.48242,-13.636288 -0.94342,-7.38434 -3.87597,-14.37437 -8.51082,-20.28639 -1.98586,-2.53307 -4.57877,-5.12568 -7.1387,-7.13786 -3.97897,-3.12758 -8.48073,-5.49238 -13.33561,-7.00527 -1.01323,-0.31574 -2.95712,-0.81066 -4.02186,-1.02396 -4.5146,-0.90444 -9.07131,-1.06565 -13.63629,-0.48243 -6.2919,0.80385 -12.35259,3.07194 -17.66424,6.6105 -2.3521,1.56693 -4.29589,3.16994 -6.41679,5.2918 -3.2978,3.29929 -5.77006,6.71857 -7.81271,10.80544 -1.38926,2.77959 -2.33032,5.2986 -3.08526,8.2586 -1.3146602,5.15459 -1.6328502,10.36923 -0.95659,15.676938 0.80064,6.28386 3.07164,12.35262 6.61018,17.66425 1.55911,2.34034 3.16474,4.28912 5.26809,6.39397 3.3023,3.30464 6.73874,5.7911 10.82915,7.83553 2.77959,1.38925 5.2986,2.33031 8.2586,3.08525 3.3417,0.85228 6.47985,1.25963 10.10719,1.31195 0.25088,0.004 1.00443,-0.0141 1.67455,-0.0393 z m 6.1039,-9.49413 c -1.32829,-0.0549 -2.80775,-0.48843 -4.17732,-1.22411 -5.68316,-3.05281 -12.30873,-10.11152 -17.67949,-18.8353 -4.96686,-8.06771 -8.36187,-16.480208 -9.49491,-23.527408 -0.28773,-1.78959 -0.35532,-2.63037 -0.35895,-4.4654 -0.002,-1.18375 0.0159,-1.80828 0.0617,-2.11267 0.44118,-2.93336 1.81042,-4.87857 4.83254,-6.86538 0.67523,-0.44391 2.23629,-1.38328 2.25755,-1.35848 0.006,0.007 1.99328,3.44876 4.41561,7.64768 2.42233,4.19892 4.43395,7.68155 4.47027,7.73917 0.0628,0.0996 0.0476,0.11769 -0.31175,0.36948 -2.09783,1.46999 -2.90451,4.35942 -2.27987,8.16629 0.59093,3.6015 2.29879,7.531538 4.71445,10.848648 1.35523,1.86097 2.78284,3.32883 4.33128,4.45343 1.22054,0.88644 2.51645,1.49498 3.72118,1.7474 0.57516,0.12051 1.63054,0.14606 2.16719,0.0525 0.57481,-0.10025 1.14781,-0.28241 1.63999,-0.52135 0.21897,-0.1063 0.40519,-0.18517 0.41382,-0.17526 0.009,0.01 1.87949,3.24823 4.15744,7.19628 2.27794,3.94804 4.28796,7.42961 4.4667,7.73683 l 0.32498,0.55857 -0.91928,0.50792 c -2.78133,1.53676 -4.76823,2.14321 -6.75311,2.06119 z m 9.55501,-3.16909 c -0.31905,-0.11139 -0.68174,-0.35795 -0.87616,-0.59562 -0.18904,-0.23107 -8.4422,-14.49291 -8.72102,-15.07031 -0.16694,-0.34571 -0.17378,-0.38029 -0.1709,-0.86428 0.002,-0.41382 0.0221,-0.54642 0.10967,-0.74003 0.16697,-0.36921 0.42648,-0.68816 0.72113,-0.8863 0.30207,-0.20313 4.30798,-2.51649 4.69495,-2.71127 0.74965,-0.37732 1.7517,-0.1932 2.31191,0.42481 0.28698,0.31659 8.74557,14.95193 8.8909,15.38334 0.26722,0.79322 -0.0303,1.71734 -0.71474,2.2199 -0.36628,0.26895 -4.79419,2.78592 -5.01807,2.85244 -0.30614,0.091 -0.94991,0.0843 -1.22767,-0.0127 z M 45.694674,85.501052 c -0.35544,-0.0703 -0.74734,-0.28975 -1.01856,-0.57042 -0.21381,-0.22126 -0.987,-1.52961 -4.45708,-7.54199 -2.30912,-4.00086 -4.254,-7.38233 -4.32198,-7.51437 -0.43339,-0.84192 -0.30672,-1.70663 0.34467,-2.35274 0.2468,-0.24481 0.6396,-0.4892 2.61456,-1.62675 1.27827,-0.73625 2.4391,-1.37906 2.57962,-1.42845 0.76423,-0.2686 1.73471,0.0291 2.21736,0.68016 0.18517,0.24979 8.50218,14.6345 8.68838,15.02702 0.11064,0.23323 0.12564,0.32607 0.12841,0.79457 0.003,0.51972 -5.8e-4,0.53795 -0.17831,0.89777 -0.12525,0.25356 -0.25466,0.43124 -0.41792,0.57386 -0.22372,0.19542 -4.46518,2.68296 -4.94859,2.90226 -0.42142,0.19117 -0.81254,0.24174 -1.23056,0.15908 z"
       id="path858"
       inkscape:connector-curvature="0" />
  </g>
</svg>
