<?xml version="1.0" encoding="UTF-8" standalone="no"?>
<!-- Created with Inkscape (http://www.inkscape.org/) -->

<svg
   width="39.285336mm"
   height="45.970455mm"
   viewBox="0 0 39.285336 45.970455"
   version="1.1"
   id="svg8"
   inkscape:version="1.1.2 (0a00cf5339, 2022-02-04)"
   sodipodi:docname="waste_basket.svg"
   xmlns:inkscape="http://www.inkscape.org/namespaces/inkscape"
   xmlns:sodipodi="http://sodipodi.sourceforge.net/DTD/sodipodi-0.dtd"
   xmlns="http://www.w3.org/2000/svg"
   xmlns:svg="http://www.w3.org/2000/svg"
   xmlns:rdf="http://www.w3.org/1999/02/22-rdf-syntax-ns#"
   xmlns:cc="http://creativecommons.org/ns#"
   xmlns:dc="http://purl.org/dc/elements/1.1/">
  <defs
     id="defs2" />
  <sodipodi:namedview
     id="base"
     pagecolor="#ffffff"
     bordercolor="#666666"
     borderopacity="1.0"
     inkscape:pageopacity="0.0"
     inkscape:pageshadow="2"
     inkscape:zoom="0.35"
     inkscape:cx="-580"
     inkscape:cy="-135.71429"
     inkscape:document-units="mm"
     inkscape:current-layer="layer1"
     showgrid="false"
     inkscape:window-width="1920"
     inkscape:window-height="1016"
     inkscape:window-x="0"
     inkscape:window-y="0"
     inkscape:window-maximized="1"
     inkscape:pagecheckerboard="0" />
  <metadata
     id="metadata5">
    <rdf:RDF>
      <cc:Work
         rdf:about="">
        <dc:format>image/svg+xml</dc:format>
        <dc:type
           rdf:resource="http://purl.org/dc/dcmitype/StillImage" />
        <dc:title />
      </cc:Work>
    </rdf:RDF>
  </metadata>
  <g
     inkscape:label="Ebene 1"
     inkscape:groupmode="layer"
     id="layer1"
     transform="translate(-56.70851,-69.403007)">
    <path
       style="fill:#1b1c1f;stroke-width:0.085;fill-opacity:1;stroke-miterlimit:4;stroke-dasharray:none"
       d="m 67.207176,115.17834 c -1.698838,-0.50722 -3.045318,-1.58427 -3.763528,-3.01045 -0.457704,-0.90888 -0.42327,-0.75137 -1.491826,-6.82388 -0.147495,-0.8382 -0.317736,-1.80975 -0.378313,-2.159 -0.06058,-0.34925 -0.209482,-1.18745 -0.330902,-1.86267 -0.121419,-0.67522 -0.351695,-1.970623 -0.511725,-2.878673 -0.16003,-0.90805 -0.462183,-2.62255 -0.671451,-3.81 -1.166717,-6.62028 -1.732897,-9.82331 -2.334701,-13.208 -0.978654,-5.50418 -1.01622,-5.74715 -1.01622,-6.57277 0,-1.47801 0.545969,-2.78598 1.60494,-3.84495 1.074479,-1.07448 2.362965,-1.60494 3.898393,-1.60494 1.535428,0 2.823913,0.53046 3.898394,1.60494 1.108009,1.10801 1.382444,1.81933 1.949737,5.05367 0.186672,1.06428 0.49444,2.81135 0.683931,3.88239 0.18949,1.07103 0.394276,2.23308 0.455079,2.58233 0.191544,1.1002 1.729917,9.80916 1.951725,11.049 0.286435,1.60108 0.805594,4.5352 1.175994,6.646333 0.167488,0.95462 0.398563,2.25572 0.513499,2.89133 0.114936,0.63561 0.208974,1.17854 0.208974,1.2065 0,0.028 1.4859,0.0508 3.302,0.0508 1.8161,0 3.302,-0.0229 3.302,-0.0508 0,-0.028 0.09404,-0.57089 0.208974,-1.2065 0.114936,-0.63561 0.346011,-1.93671 0.513499,-2.89133 0.3704,-2.111133 0.889559,-5.045253 1.175994,-6.646333 0.221808,-1.23984 1.760181,-9.9488 1.951725,-11.049 0.0608,-0.34925 0.265589,-1.5113 0.455079,-2.58233 0.189491,-1.07104 0.497259,-2.81811 0.683931,-3.88239 0.567293,-3.23434 0.841728,-3.94566 1.949737,-5.05367 1.074481,-1.07448 2.362967,-1.60494 3.898392,-1.60494 1.53543,0 2.82392,0.53046 3.8984,1.60494 1.05897,1.05897 1.60494,2.36694 1.60494,3.84495 0,0.82562 -0.0376,1.06859 -1.01622,6.57277 -0.60181,3.38469 -1.16799,6.58772 -2.33471,13.208 -0.20926,1.18745 -0.51142,2.90195 -0.67145,3.81 -0.16003,0.90805 -0.3903,2.203453 -0.51172,2.878673 -0.12142,0.67522 -0.27033,1.51342 -0.3309,1.86267 -0.0606,0.34925 -0.23082,1.3208 -0.37832,2.159 -1.06855,6.07251 -1.03412,5.915 -1.491823,6.82388 -0.727453,1.44453 -2.145081,2.56214 -3.84881,3.03426 -0.618778,0.17147 -0.794754,0.17477 -9.09935,0.17032 l -8.468368,-0.005 z"
       id="path826"
       inkscape:connector-curvature="0" />
  </g>
</svg>
