<?xml version="1.0" encoding="UTF-8" standalone="no"?>
<svg
   xmlns:dc="http://purl.org/dc/elements/1.1/"
   xmlns:cc="http://creativecommons.org/ns#"
   xmlns:rdf="http://www.w3.org/1999/02/22-rdf-syntax-ns#"
   xmlns:svg="http://www.w3.org/2000/svg"
   xmlns="http://www.w3.org/2000/svg"
   id="svg7642"
   version="1.1"
   xml:space="preserve"
   width="600"
   height="330"
   viewBox="0 0 600 330"><metadata
     id="metadata7648"><rdf:RDF><cc:Work
         rdf:about=""><dc:format>image/svg+xml</dc:format><dc:type
           rdf:resource="http://purl.org/dc/dcmitype/StillImage" /><dc:title></dc:title></cc:Work></rdf:RDF></metadata><defs
     id="defs7646"><clipPath
       clipPathUnits="userSpaceOnUse"
       id="clipPath7660"><path
         d="M 0,0 480,0 480,264 0,264 0,0 Z"
         id="path7662" /></clipPath><clipPath
       clipPathUnits="userSpaceOnUse"
       id="clipPath7676"><path
         d="m 476.938,264 3.062,0 0,-264 -3.062,0 0,264 z"
         id="path7678" /></clipPath><clipPath
       clipPathUnits="userSpaceOnUse"
       id="clipPath7686"><path
         d="m 444,0 36,0 0,264 -36,0 0,-264 z"
         id="path7688" /></clipPath></defs><g
     transform="matrix(1.25,0,0,-1.25,0,330)"
     id="g7654"><g
       id="g7656"><g
         id="g7658"
         clip-path="url(#clipPath7660)"><g
           id="g7664"><path
             d="m 31.996,263.758 c -17.512,0 -31.754,-14.254 -31.754,-31.766 l 0,-199.996 C 0.242,14.484 14.484,0.242 31.996,0.242 l 416.008,0 c 17.512,0 31.754,14.242 31.754,31.754 l 0,199.996 c 0,17.512 -14.242,31.766 -31.754,31.766"
             style="fill:#ffffff;fill-opacity:1;fill-rule:nonzero;stroke:none"
             id="path7666" /><path
             d="M 31.996,0.484 C 14.613,0.484 0.484,14.613 0.484,31.996 l 0,199.996 c 0,17.383 14.129,31.524 31.512,31.524 l 416.008,0 c 17.383,0 31.512,-14.141 31.512,-31.524 l 0,-199.996 c 0,-17.383 -14.129,-31.512 -31.512,-31.512 l -416.008,0 z M 448.004,264 31.996,264 C 14.32,264 0,249.672 0,231.992 L 0,31.996 C 0,14.328 14.32,0 31.996,0 L 448.004,0 C 465.672,0 480,14.328 480,31.996 l 0,199.996 C 480,249.672 465.672,264 448.004,264"
             style="fill:#000000;fill-opacity:1;fill-rule:nonzero;stroke:none"
             id="path7668" /></g></g></g></g><path
     d="m 39.995,305.005 520.01,0 c 8.28625,0 15,-6.71375 15,-15 l 0,-249.995 c 0,-8.28625 -6.71375,-15 -15,-15 l -520.01,0 c -8.28625,0 -15,6.71375 -15,15 l 0,249.995 c 0,8.28625 6.71375,15 15,15 z m 0,15 c -16.5725,0 -30,-13.4275 -30,-30 l 0,-249.995 c 0,-16.5725 13.4275,-30 30,-30 l 520.01,0 c 16.5725,0 30,13.4275 30,30 l 0,249.995 c 0,16.5725 -13.4275,30 -30,30"
     style="fill:#000000;fill-opacity:1;fill-rule:nonzero;stroke:none"
     id="path7670" /><g
     transform="matrix(1.25,0,0,-1.25,0,330)"
     id="g7674"
     clip-path="url(#clipPath7676)"><g
       id="g7680"><g
         id="g7682"><g
           id="g7684"
           clip-path="url(#clipPath7686)"><g
             id="g7690"><path
               d="m 476.801,530.469 0,11.34 m -8.504,-19.844 -11.34,0 m 615.117,8.504 0,11.34 m 8.504,-19.844 11.34,0 m -615.117,-850.395 0,-11.34 m -8.504,19.844 -11.34,0 m 615.117,-8.504 0,-11.34 m 8.504,19.844 11.34,0"
               style="fill:none;stroke:#ffffff;stroke-width:0.5;stroke-linecap:butt;stroke-linejoin:miter;stroke-miterlimit:10;stroke-dasharray:none;stroke-opacity:1"
               id="path7692" /><path
               d="m 476.801,530.469 0,11.34 m -8.504,-19.844 -11.34,0 m 615.117,8.504 0,11.34 m 8.504,-19.844 11.34,0 m -615.117,-850.395 0,-11.34 m -8.504,19.844 -11.34,0 m 615.117,-8.504 0,-11.34 m 8.504,19.844 11.34,0"
               style="fill:none;stroke:#000000;stroke-width:0.25;stroke-linecap:butt;stroke-linejoin:miter;stroke-miterlimit:10;stroke-dasharray:none;stroke-opacity:1"
               id="path7694" /><path
               d="m 750.438,542.469 48,0 m -48,-882.899 48,0 m -342.145,465.45 0,-48 m 636.285,48 0,-48 m -318.14,477.449 0,-24 m 0,-858.899 0,-24 m -330.145,453.45 24.004,0 m 612.281,0 24,0 m -330.14,441.449 6,0 c 0,-3.313 -2.688,-6 -6,-6 -3.317,0 -6,2.687 -6,6 0,3.312 2.683,6 6,6 3.312,0 6,-2.688 6,-6 m -6,-882.899 6,0 c 0,-3.312 -2.688,-6 -6,-6 -3.317,0 -6,2.688 -6,6 0,3.313 2.683,6 6,6 3.312,0 6,-2.687 6,-6 m -324.145,441.45 6,0 c 0,-3.313 -2.684,-6 -6,-6 -3.313,0 -6,2.687 -6,6 0,3.312 2.687,6 6,6 3.316,0 6,-2.688 6,-6 m 630.285,0 6,0 c 0,-3.313 -2.687,-6 -6,-6 -3.312,0 -6,2.687 -6,6 0,3.312 2.688,6 6,6 3.313,0 6,-2.688 6,-6"
               style="fill:none;stroke:#ffffff;stroke-width:0.5;stroke-linecap:butt;stroke-linejoin:miter;stroke-miterlimit:10;stroke-dasharray:none;stroke-opacity:1"
               id="path7696" /><path
               d="m 750.438,542.469 48,0 m -48,-882.899 48,0 m -342.145,465.45 0,-48 m 636.285,48 0,-48 m -318.14,477.449 0,-24 m 0,-858.899 0,-24 m -330.145,453.45 24.004,0 m 612.281,0 24,0 m -330.14,441.449 6,0 c 0,-3.313 -2.688,-6 -6,-6 -3.317,0 -6,2.687 -6,6 0,3.312 2.683,6 6,6 3.312,0 6,-2.688 6,-6 m -6,-882.899 6,0 c 0,-3.312 -2.688,-6 -6,-6 -3.317,0 -6,2.688 -6,6 0,3.313 2.683,6 6,6 3.312,0 6,-2.687 6,-6 m -324.145,441.45 6,0 c 0,-3.313 -2.684,-6 -6,-6 -3.313,0 -6,2.687 -6,6 0,3.312 2.687,6 6,6 3.316,0 6,-2.688 6,-6 m 630.285,0 6,0 c 0,-3.313 -2.687,-6 -6,-6 -3.312,0 -6,2.687 -6,6 0,3.312 2.688,6 6,6 3.313,0 6,-2.688 6,-6"
               style="fill:none;stroke:#000000;stroke-width:0.25;stroke-linecap:butt;stroke-linejoin:miter;stroke-miterlimit:10;stroke-dasharray:none;stroke-opacity:1"
               id="path7698" /></g></g></g></g></g><g
     transform="matrix(1.2795253,0,0,1.2795253,-11.047809,-6.3353584)"
     id="g3375"><path
       d="m 377.65265,83.454185 44.4375,52.437505 -0.0625,0 -44.46875,52.4375 -24.28125,0 34.53125,-42.875 -152.84375,0 0,-9.90625 0.0625,0 0,-9.25 152.84375,0 -34.53125,-42.843755 24.3125,0 z"
       style="fill:#000000;fill-opacity:1;fill-rule:evenodd;stroke:none;stroke-width:1px;stroke-linecap:butt;stroke-linejoin:miter;stroke-opacity:1"
       id="path1890" /><g
       transform="translate(-232.7958,-2.160347)"
       id="g1966"><path
         d="m 320.5114,175.86379 10.45958,0 0,41.0912 c 0,4.06928 -10.08603,3.49728 -10.08603,0 l -0.37355,-41.0912 z"
         style="fill:#000000;fill-opacity:1;fill-rule:evenodd;stroke:none;stroke-width:1px;stroke-linecap:butt;stroke-linejoin:miter;stroke-opacity:1"
         id="path1914" /><path
         d="m 334.95365,175.86379 10.45958,0 0,50.05655 c 0,6.06117 -10.08603,5.86107 -10.08603,0 l -0.37355,-50.05655 z"
         style="fill:#000000;fill-opacity:1;fill-rule:evenodd;stroke:none;stroke-width:1px;stroke-linecap:butt;stroke-linejoin:miter;stroke-opacity:1"
         id="path1916" /><path
         d="m 296.89816,172.00248 c 2.98013,-14.39432 5.06167,-27.091 25.22578,-46.09318 l 0,-28.791724 -3.56595,-0.924505 c -3.30544,11.524419 -3.13716,22.128619 0.0318,33.155009 -1.65453,1.66153 -3.21285,3.41928 -4.78639,5.16181 -3.37719,-1.67808 -3.72391,-6.92509 -5.41495,-11.63825 l -2.0649,-13.02075 1.93282,-10.884304 c 3.57932,-8.020551 5.81544,-16.381677 19.67875,-21.65983 l 8.32054,-0.132072 c 16.01878,2.775398 19.07775,14.162025 25.00879,25.384136 7.16359,13.55421 15.61344,25.60257 7.48096,30.3503 9.01208,5.86805 13.72951,16.03075 27.07479,17.5656 6.36954,0.65607 9.68572,-1.23231 14.52793,-1.84901 l 23.11262,27.99929 c 1.09794,7.18615 -1.55816,8.11558 -4.09423,9.24505 l -15.58451,-18.62217 5.41495,27.471 -7.66018,0 4.88667,29.05587 c 0,2.78767 -9.37712,3.52302 -9.37712,0.52829 l -4.7546,-26.81064 -6.55554,-0.0735 -2.95365,30.71421 c 0,3.1559 -8.45262,2.58331 -8.45262,0 l 3.69802,-65.24363 -26.94271,-24.82956 c -3.10628,-5.49447 -0.84453,-7.19974 0,-9.90541 -3.78431,-11.31506 -10.20552,-21.31167 -15.32037,-31.961459 l -1.84901,0 0.13207,29.848299 c 21.61956,18.68778 22.37733,31.6547 25.22578,46.35732 l -72.37553,-0.39621 z"
         style="fill:#000000;fill-opacity:1;fill-rule:evenodd;stroke:none;stroke-width:1px;stroke-linecap:butt;stroke-linejoin:miter;stroke-opacity:1"
         id="path1918" /><path
         d="m 347.40744,56.512512 c 0.003,7.738674 -6.26969,14.013659 -14.00836,14.013659 -7.73868,0 -14.01129,-6.274985 -14.00837,-14.013659 -0.003,-7.738674 6.26969,-14.013659 14.00837,-14.013659 7.73867,0 14.01128,6.274985 14.00836,14.013659 l 0,0 z"
         transform="translate(0,-0.747113)"
         style="opacity:1;fill:#000000;fill-opacity:1;fill-rule:nonzero;stroke:none;stroke-width:5;stroke-linecap:round;stroke-linejoin:round;stroke-miterlimit:4;stroke-dasharray:none;stroke-dashoffset:0;stroke-opacity:1"
         id="path1922" /><path
         d="m 347.40744,56.512512 c 0.003,7.738674 -6.26969,14.013659 -14.00836,14.013659 -7.73868,0 -14.01129,-6.274985 -14.00837,-14.013659 -0.003,-7.738674 6.26969,-14.013659 14.00837,-14.013659 7.73867,0 14.01128,6.274985 14.00836,14.013659 l 0,0 z"
         transform="matrix(0.893333,0,0,0.893333,99.62751,80.17895)"
         style="opacity:1;fill:#000000;fill-opacity:1;fill-rule:nonzero;stroke:none;stroke-width:5;stroke-linecap:round;stroke-linejoin:round;stroke-miterlimit:4;stroke-dasharray:none;stroke-dashoffset:0;stroke-opacity:1"
         id="path1924" /></g></g></svg>