<?xml version="1.0" encoding="UTF-8" standalone="no"?>
<svg
   xmlns:dc="http://purl.org/dc/elements/1.1/"
   xmlns:cc="http://creativecommons.org/ns#"
   xmlns:rdf="http://www.w3.org/1999/02/22-rdf-syntax-ns#"
   xmlns:svg="http://www.w3.org/2000/svg"
   xmlns="http://www.w3.org/2000/svg"
   viewBox="0 0 600 330"
   height="330"
   width="600"
   xml:space="preserve"
   version="1.1"
   id="svg7872"><metadata
     id="metadata7878"><rdf:RDF><cc:Work
         rdf:about=""><dc:format>image/svg+xml</dc:format><dc:type
           rdf:resource="http://purl.org/dc/dcmitype/StillImage" /><dc:title></dc:title></cc:Work></rdf:RDF></metadata><defs
     id="defs7876"><clipPath
       id="clipPath7888"
       clipPathUnits="userSpaceOnUse"><path
         id="path7890"
         d="m 476.938,264 3.062,0 0,-264 -3.062,0 0,264 z" /></clipPath><clipPath
       id="clipPath7898"
       clipPathUnits="userSpaceOnUse"><path
         id="path7900"
         d="m 444,0 36,0 0,264 -36,0 0,-264 z" /></clipPath><clipPath
       id="clipPath7908"
       clipPathUnits="userSpaceOnUse"><path
         id="path7910"
         d="m 444,264 36,0 0,-264 -36,0 0,264 z" /></clipPath><clipPath
       id="clipPath7918"
       clipPathUnits="userSpaceOnUse"><path
         id="path7920"
         d="m 444,0 36,0 0,264 -36,0 0,-264 z" /></clipPath><clipPath
       id="clipPath7940"
       clipPathUnits="userSpaceOnUse"><path
         id="path7942"
         d="M 0,0 480,0 480,264 0,264 0,0 Z" /></clipPath></defs><g
     transform="matrix(1.25,0,0,-1.25,0,330)"
     id="g7880"><g
       id="g7882" /><g
       id="g7884"><g
         clip-path="url(#clipPath7888)"
         id="g7886"><g
           id="g7892"><g
             id="g7894"><g
               clip-path="url(#clipPath7898)"
               id="g7896"><g
                 id="g7902" /><g
                 id="g7904"><g
                   clip-path="url(#clipPath7908)"
                   id="g7906"><g
                     id="g7912"><g
                       id="g7914"><g
                         clip-path="url(#clipPath7918)"
                         id="g7916"><g
                           id="g7922"><path
                             id="path7924"
                             style="fill:none;stroke:#ffffff;stroke-width:0.5;stroke-linecap:butt;stroke-linejoin:miter;stroke-miterlimit:10;stroke-dasharray:none;stroke-opacity:1"
                             d="m 476.801,530.469 0,11.34 m -8.504,-19.844 -11.34,0 m 615.117,8.504 0,11.34 m 8.504,-19.844 11.34,0 m -615.117,-850.395 0,-11.34 m -8.504,19.844 -11.34,0 m 615.117,-8.504 0,-11.34 m 8.504,19.844 11.34,0" /><path
                             id="path7926"
                             style="fill:none;stroke:#000000;stroke-width:0.25;stroke-linecap:butt;stroke-linejoin:miter;stroke-miterlimit:10;stroke-dasharray:none;stroke-opacity:1"
                             d="m 476.801,530.469 0,11.34 m -8.504,-19.844 -11.34,0 m 615.117,8.504 0,11.34 m 8.504,-19.844 11.34,0 m -615.117,-850.395 0,-11.34 m -8.504,19.844 -11.34,0 m 615.117,-8.504 0,-11.34 m 8.504,19.844 11.34,0" /><path
                             id="path7928"
                             style="fill:none;stroke:#ffffff;stroke-width:0.5;stroke-linecap:butt;stroke-linejoin:miter;stroke-miterlimit:10;stroke-dasharray:none;stroke-opacity:1"
                             d="m 750.438,542.469 48,0 m -48,-882.899 48,0 m -342.145,465.45 0,-48 m 636.285,48 0,-48 m -318.14,477.449 0,-24 m 0,-858.899 0,-24 m -330.145,453.45 24.004,0 m 612.281,0 24,0 m -330.14,441.449 6,0 c 0,-3.313 -2.688,-6 -6,-6 -3.317,0 -6,2.687 -6,6 0,3.312 2.683,6 6,6 3.312,0 6,-2.688 6,-6 m -6,-882.899 6,0 c 0,-3.312 -2.688,-6 -6,-6 -3.317,0 -6,2.688 -6,6 0,3.313 2.683,6 6,6 3.312,0 6,-2.687 6,-6 m -324.145,441.45 6,0 c 0,-3.313 -2.684,-6 -6,-6 -3.313,0 -6,2.687 -6,6 0,3.312 2.687,6 6,6 3.316,0 6,-2.688 6,-6 m 630.285,0 6,0 c 0,-3.313 -2.687,-6 -6,-6 -3.312,0 -6,2.687 -6,6 0,3.312 2.688,6 6,6 3.313,0 6,-2.688 6,-6" /><path
                             id="path7930"
                             style="fill:none;stroke:#000000;stroke-width:0.25;stroke-linecap:butt;stroke-linejoin:miter;stroke-miterlimit:10;stroke-dasharray:none;stroke-opacity:1"
                             d="m 750.438,542.469 48,0 m -48,-882.899 48,0 m -342.145,465.45 0,-48 m 636.285,48 0,-48 m -318.14,477.449 0,-24 m 0,-858.899 0,-24 m -330.145,453.45 24.004,0 m 612.281,0 24,0 m -330.14,441.449 6,0 c 0,-3.313 -2.688,-6 -6,-6 -3.317,0 -6,2.687 -6,6 0,3.312 2.683,6 6,6 3.312,0 6,-2.688 6,-6 m -6,-882.899 6,0 c 0,-3.312 -2.688,-6 -6,-6 -3.317,0 -6,2.688 -6,6 0,3.313 2.683,6 6,6 3.312,0 6,-2.687 6,-6 m -324.145,441.45 6,0 c 0,-3.313 -2.684,-6 -6,-6 -3.313,0 -6,2.687 -6,6 0,3.312 2.687,6 6,6 3.316,0 6,-2.688 6,-6 m 630.285,0 6,0 c 0,-3.313 -2.687,-6 -6,-6 -3.312,0 -6,2.687 -6,6 0,3.312 2.688,6 6,6 3.313,0 6,-2.688 6,-6" /></g></g></g></g></g></g></g></g></g></g></g><g
       id="g7932"><g
         id="g7934"><g
           id="g7936"><g
             clip-path="url(#clipPath7940)"
             id="g7938"><g
               id="g7944"><path
                 id="path7946"
                 style="fill:#ffffff;fill-opacity:1;fill-rule:nonzero;stroke:none"
                 d="m 448.004,263.758 c 17.512,0 31.754,-14.254 31.754,-31.766 l 0,-199.996 c 0,-17.512 -14.242,-31.754 -31.754,-31.754 l -416.008,0 C 14.484,0.242 0.242,14.484 0.242,31.996 l 0,199.996 c 0,17.512 14.242,31.766 31.754,31.766" /><path
                 id="path7948"
                 style="fill:#000000;fill-opacity:1;fill-rule:nonzero;stroke:none"
                 d="m 448.004,0.484 c 17.383,0 31.512,14.129 31.512,31.512 l 0,199.996 c 0,17.383 -14.129,31.524 -31.512,31.524 l -416.008,0 c -17.383,0 -31.512,-14.141 -31.512,-31.524 l 0,-199.996 C 0.484,14.613 14.613,0.484 31.996,0.484 l 416.008,0 z M 31.996,264 448.004,264 C 465.68,264 480,249.672 480,231.992 L 480,31.996 C 480,14.328 465.68,0 448.004,0 L 31.996,0 C 14.328,0 0,14.328 0,31.996 L 0,231.992 C 0,249.672 14.328,264 31.996,264" /></g></g></g></g><path
         id="path7950"
         style="fill:#000000;fill-opacity:1;fill-rule:nonzero;stroke:none"
         d="m 448.004,19.996 -416.008,0 c -6.629,0 -12,5.371 -12,12 l 0,199.996 c 0,6.629 5.371,12 12,12 l 416.008,0 c 6.629,0 12,-5.371 12,-12 l 0,-199.996 c 0,-6.629 -5.371,-12 -12,-12 z m 0,-12 c 13.258,0 24,10.742 24,24 l 0,199.996 c 0,13.258 -10.742,24 -24,24 l -416.008,0 c -13.258,0 -24,-10.742 -24,-24 l 0,-199.996 c 0,-13.258 10.742,-24 24,-24" /><path
         id="path7952"
         style="fill:#000000;fill-opacity:1;fill-rule:evenodd;stroke:none"
         d="m 410.789,132.977 c -5.398,3.929 -67.234,68.265 -67.234,68.265 l -36.321,0 51.043,-55.988 -289.066,0 0,-27.996 289.066,0 -49.57,-54.024 38.281,-0.492 63.801,70.235 z" /></g></g></svg>