<?xml version="1.0" encoding="UTF-8" standalone="no"?>
<svg
   xmlns:dc="http://purl.org/dc/elements/1.1/"
   xmlns:cc="http://creativecommons.org/ns#"
   xmlns:rdf="http://www.w3.org/1999/02/22-rdf-syntax-ns#"
   xmlns:svg="http://www.w3.org/2000/svg"
   xmlns="http://www.w3.org/2000/svg"
   viewBox="0 0 600 330.00003"
   height="330.00003"
   width="600"
   xml:space="preserve"
   version="1.1"
   id="svg30980"><metadata
     id="metadata30986"><rdf:RDF><cc:Work
         rdf:about=""><dc:format>image/svg+xml</dc:format><dc:type
           rdf:resource="http://purl.org/dc/dcmitype/StillImage" /><dc:title></dc:title></cc:Work></rdf:RDF></metadata><defs
     id="defs30984"><clipPath
       id="clipPath31000"
       clipPathUnits="userSpaceOnUse"><path
         id="path31002"
         d="M 0,1 480,1 480,265 0,265 0,1 Z" /></clipPath><clipPath
       id="clipPath31016"
       clipPathUnits="userSpaceOnUse"><path
         id="path31018"
         d="m 476.938,264 3.062,0 0,-264 -3.062,0 0,264 z" /></clipPath><clipPath
       id="clipPath31026"
       clipPathUnits="userSpaceOnUse"><path
         id="path31028"
         d="m 444,1 36,0 0,264 -36,0 0,-264 z" /></clipPath><clipPath
       id="clipPath31036"
       clipPathUnits="userSpaceOnUse"><path
         id="path31038"
         d="m 444,265 36,0 0,-264 -36,0 0,264 z" /></clipPath><clipPath
       id="clipPath31046"
       clipPathUnits="userSpaceOnUse"><path
         id="path31048"
         d="m 444,0 36,0 0,265 -36,0 0,-265 z" /></clipPath><clipPath
       id="clipPath31068"
       clipPathUnits="userSpaceOnUse"><path
         id="path31070"
         d="M 0,0 480,0 480,265 0,265 0,0 Z" /></clipPath><clipPath
       id="clipPath31080"
       clipPathUnits="userSpaceOnUse"><path
         id="path31082"
         d="M 0,1 480,1 480,265 0,265 0,1 Z" /></clipPath><clipPath
       id="clipPath31090"
       clipPathUnits="userSpaceOnUse"><path
         id="path31092"
         d="m 0,265 479.996,0 0,-264 L 0,1 0,265 Z" /></clipPath><clipPath
       id="clipPath31100"
       clipPathUnits="userSpaceOnUse"><path
         id="path31102"
         d="m 69,125 321,0 0,97 -321,0 0,-97 z" /></clipPath><clipPath
       id="clipPath31114"
       clipPathUnits="userSpaceOnUse"><path
         id="path31116"
         d="M 0,0 480,0 480,265 0,265 0,0 Z" /></clipPath><clipPath
       id="clipPath31126"
       clipPathUnits="userSpaceOnUse"><path
         id="path31128"
         d="M 0,1 480,1 480,265 0,265 0,1 Z" /></clipPath><clipPath
       id="clipPath31136"
       clipPathUnits="userSpaceOnUse"><path
         id="path31138"
         d="m 0,265 479.996,0 0,-264 L 0,1 0,265 Z" /></clipPath><clipPath
       id="clipPath31146"
       clipPathUnits="userSpaceOnUse"><path
         id="path31148"
         d="m 90,44 321,0 0,97 -321,0 0,-97 z" /></clipPath></defs><g
     transform="matrix(1.25,0,0,-1.25,0,330.00004)"
     id="g30988"><g
       id="g30990" /><g
       id="g30992"><g
         transform="translate(0,-0.999969)"
         id="g30994"><g
           id="g30996"><g
             clip-path="url(#clipPath31000)"
             id="g30998"><g
               id="g31004"><path
                 id="path31006"
                 style="fill:#ffffff;fill-opacity:1;fill-rule:nonzero;stroke:none"
                 d="m 31.996,264.758 c -17.512,0 -31.754,-14.254 -31.754,-31.766 l 0,-199.996 C 0.242,15.484 14.484,1.242 31.996,1.242 l 416.008,0 c 17.512,0 31.754,14.242 31.754,31.754 l 0,199.996 c 0,17.512 -14.242,31.766 -31.754,31.766" /><path
                 id="path31008"
                 style="fill:#000000;fill-opacity:1;fill-rule:nonzero;stroke:none"
                 d="M 31.996,1.484 C 14.613,1.484 0.484,15.613 0.484,32.996 l 0,199.996 c 0,17.383 14.129,31.524 31.512,31.524 l 416.008,0 c 17.383,0 31.512,-14.141 31.512,-31.524 l 0,-199.996 c 0,-17.383 -14.129,-31.512 -31.512,-31.512 l -416.008,0 z M 448.004,265 31.996,265 C 14.32,265 0,250.672 0,232.992 L 0,32.996 C 0,15.328 14.32,1 31.996,1 L 448.004,1 C 465.672,1 480,15.328 480,32.996 l 0,199.996 C 480,250.672 465.672,265 448.004,265" /></g></g></g></g><path
         id="path31010"
         style="fill:#000000;fill-opacity:1;fill-rule:nonzero;stroke:none"
         d="m 31.996,19.996 416.008,0 c 6.629,0 12,5.371 12,12 l 0,199.996 c 0,6.629 -5.371,12 -12,12 l -416.008,0 c -6.629,0 -12,-5.371 -12,-12 l 0,-199.996 c 0,-6.629 5.371,-12 12,-12 z m 0,-12 c -13.258,0 -24,10.742 -24,24 l 0,199.996 c 0,13.258 10.742,24 24,24 l 416.008,0 c 13.258,0 24,-10.742 24,-24 l 0,-199.996 c 0,-13.258 -10.742,-24 -24,-24" /></g><g
       id="g31012"><g
         clip-path="url(#clipPath31016)"
         id="g31014"><g
           transform="translate(0,-0.999969)"
           id="g31020"><g
             id="g31022"><g
               clip-path="url(#clipPath31026)"
               id="g31024"><g
                 id="g31030" /><g
                 id="g31032"><g
                   clip-path="url(#clipPath31036)"
                   id="g31034"><g
                     id="g31040"><g
                       id="g31042"><g
                         clip-path="url(#clipPath31046)"
                         id="g31044"><g
                           id="g31050"><path
                             id="path31052"
                             style="fill:none;stroke:#ffffff;stroke-width:0.5;stroke-linecap:butt;stroke-linejoin:miter;stroke-miterlimit:10;stroke-dasharray:none;stroke-opacity:1"
                             d="m 476.801,531.469 0,11.34 m -8.504,-19.844 -11.34,0 m 615.117,8.504 0,11.34 m 8.504,-19.844 11.34,0 m -615.117,-850.395 0,-11.34 m -8.504,19.844 -11.34,0 m 615.117,-8.504 0,-11.34 m 8.504,19.844 11.34,0" /><path
                             id="path31054"
                             style="fill:none;stroke:#000000;stroke-width:0.25;stroke-linecap:butt;stroke-linejoin:miter;stroke-miterlimit:10;stroke-dasharray:none;stroke-opacity:1"
                             d="m 476.801,531.469 0,11.34 m -8.504,-19.844 -11.34,0 m 615.117,8.504 0,11.34 m 8.504,-19.844 11.34,0 m -615.117,-850.395 0,-11.34 m -8.504,19.844 -11.34,0 m 615.117,-8.504 0,-11.34 m 8.504,19.844 11.34,0" /><path
                             id="path31056"
                             style="fill:none;stroke:#ffffff;stroke-width:0.5;stroke-linecap:butt;stroke-linejoin:miter;stroke-miterlimit:10;stroke-dasharray:none;stroke-opacity:1"
                             d="m 750.438,543.469 48,0 m -48,-882.899 48,0 m -342.145,465.45 0,-48 m 636.285,48 0,-48 m -318.14,477.449 0,-24 m 0,-858.899 0,-24 m -330.145,453.45 24.004,0 m 612.281,0 24,0 m -330.14,441.449 6,0 c 0,-3.313 -2.688,-6 -6,-6 -3.317,0 -6,2.687 -6,6 0,3.312 2.683,6 6,6 3.312,0 6,-2.688 6,-6 m -6,-882.899 6,0 c 0,-3.312 -2.688,-6 -6,-6 -3.317,0 -6,2.688 -6,6 0,3.313 2.683,6 6,6 3.312,0 6,-2.687 6,-6 m -324.145,441.45 6,0 c 0,-3.313 -2.684,-6 -6,-6 -3.313,0 -6,2.687 -6,6 0,3.312 2.687,6 6,6 3.316,0 6,-2.688 6,-6 m 630.285,0 6,0 c 0,-3.313 -2.687,-6 -6,-6 -3.312,0 -6,2.687 -6,6 0,3.312 2.688,6 6,6 3.313,0 6,-2.688 6,-6" /><path
                             id="path31058"
                             style="fill:none;stroke:#000000;stroke-width:0.25;stroke-linecap:butt;stroke-linejoin:miter;stroke-miterlimit:10;stroke-dasharray:none;stroke-opacity:1"
                             d="m 750.438,543.469 48,0 m -48,-882.899 48,0 m -342.145,465.45 0,-48 m 636.285,48 0,-48 m -318.14,477.449 0,-24 m 0,-858.899 0,-24 m -330.145,453.45 24.004,0 m 612.281,0 24,0 m -330.14,441.449 6,0 c 0,-3.313 -2.688,-6 -6,-6 -3.317,0 -6,2.687 -6,6 0,3.312 2.683,6 6,6 3.312,0 6,-2.688 6,-6 m -6,-882.899 6,0 c 0,-3.312 -2.688,-6 -6,-6 -3.317,0 -6,2.688 -6,6 0,3.313 2.683,6 6,6 3.312,0 6,-2.687 6,-6 m -324.145,441.45 6,0 c 0,-3.313 -2.684,-6 -6,-6 -3.313,0 -6,2.687 -6,6 0,3.312 2.687,6 6,6 3.316,0 6,-2.688 6,-6 m 630.285,0 6,0 c 0,-3.313 -2.687,-6 -6,-6 -3.312,0 -6,2.687 -6,6 0,3.312 2.688,6 6,6 3.313,0 6,-2.688 6,-6" /></g></g></g></g></g></g></g></g></g></g></g><g
       id="g31060"><g
         transform="translate(0,-0.999969)"
         id="g31062"><g
           id="g31064"><g
             clip-path="url(#clipPath31068)"
             id="g31066"><g
               id="g31072"><g
                 id="g31074"><g
                   id="g31076"><g
                     clip-path="url(#clipPath31080)"
                     id="g31078"><g
                       id="g31084" /><g
                       id="g31086"><g
                         clip-path="url(#clipPath31090)"
                         id="g31088"><g
                           id="g31094"><g
                             id="g31096"><g
                               clip-path="url(#clipPath31100)"
                               id="g31098"><g
                                 id="g31104"><path
                                   id="path31106"
                                   style="fill:#231f20;fill-opacity:1;fill-rule:nonzero;stroke:none"
                                   d="m 69.992,173.672 48,48 30.008,0 -36,-36 278,0 0,-24 -278,0 36,-36.012 -30.008,0" /></g></g></g></g></g></g></g></g></g></g></g></g></g><g
         transform="translate(0,-0.999969)"
         id="g31108"><g
           id="g31110"><g
             clip-path="url(#clipPath31114)"
             id="g31112"><g
               id="g31118"><g
                 id="g31120"><g
                   id="g31122"><g
                     clip-path="url(#clipPath31126)"
                     id="g31124"><g
                       id="g31130" /><g
                       id="g31132"><g
                         clip-path="url(#clipPath31136)"
                         id="g31134"><g
                           id="g31140"><g
                             id="g31142"><g
                               clip-path="url(#clipPath31146)"
                               id="g31144"><g
                                 id="g31150"><path
                                   id="path31152"
                                   style="fill:#231f20;fill-opacity:1;fill-rule:nonzero;stroke:none"
                                   d="m 410.008,92.328 -48.012,-48 -29.996,0 36,36 -278,0 0,24 278,0 -36,36 29.996,0" /></g></g></g></g></g></g></g></g></g></g></g></g></g></g></g></svg>