<?xml version="1.0" encoding="UTF-8" standalone="no"?>
<svg
   xmlns:dc="http://purl.org/dc/elements/1.1/"
   xmlns:cc="http://creativecommons.org/ns#"
   xmlns:rdf="http://www.w3.org/1999/02/22-rdf-syntax-ns#"
   xmlns:svg="http://www.w3.org/2000/svg"
   xmlns="http://www.w3.org/2000/svg"
   viewBox="0 0 600 330.00003"
   height="330.00003"
   width="600"
   xml:space="preserve"
   version="1.1"
   id="svg29354"><metadata
     id="metadata29360"><rdf:RDF><cc:Work
         rdf:about=""><dc:format>image/svg+xml</dc:format><dc:type
           rdf:resource="http://purl.org/dc/dcmitype/StillImage" /><dc:title></dc:title></cc:Work></rdf:RDF></metadata><defs
     id="defs29358"><clipPath
       id="clipPath29374"
       clipPathUnits="userSpaceOnUse"><path
         id="path29376"
         d="M 0,1 480,1 480,265 0,265 0,1 Z" /></clipPath><clipPath
       id="clipPath29390"
       clipPathUnits="userSpaceOnUse"><path
         id="path29392"
         d="m 476.938,264 3.062,0 0,-264 -3.062,0 0,264 z" /></clipPath><clipPath
       id="clipPath29400"
       clipPathUnits="userSpaceOnUse"><path
         id="path29402"
         d="m 444,1 36,0 0,264 -36,0 0,-264 z" /></clipPath><clipPath
       id="clipPath29410"
       clipPathUnits="userSpaceOnUse"><path
         id="path29412"
         d="m 444,265 36,0 0,-264 -36,0 0,264 z" /></clipPath><clipPath
       id="clipPath29420"
       clipPathUnits="userSpaceOnUse"><path
         id="path29422"
         d="m 444,0 36,0 0,265 -36,0 0,-265 z" /></clipPath><clipPath
       id="clipPath29442"
       clipPathUnits="userSpaceOnUse"><path
         id="path29444"
         d="M 0,0 471,0 471,265 0,265 0,0 Z" /></clipPath><clipPath
       id="clipPath29452"
       clipPathUnits="userSpaceOnUse"><path
         id="path29454"
         d="m 0,265 470.32,0 0,-265 L 0,0 0,265 Z" /></clipPath><clipPath
       id="clipPath29462"
       clipPathUnits="userSpaceOnUse"><path
         id="path29464"
         d="M 0,6 470,6 470,265 0,265 0,6 Z" /></clipPath><clipPath
       id="clipPath29472"
       clipPathUnits="userSpaceOnUse"><path
         id="path29474"
         d="M 0,265 470,265 470,6.004 0,6.004 0,265 Z" /></clipPath><clipPath
       id="clipPath29482"
       clipPathUnits="userSpaceOnUse"><path
         id="path29484"
         d="m 110,48 260,0 0,170 -260,0 0,-170 z" /></clipPath></defs><g
     transform="matrix(1.25,0,0,-1.25,0,330.00004)"
     id="g29362"><g
       id="g29364" /><g
       id="g29366"><g
         transform="translate(0,-0.999969)"
         id="g29368"><g
           id="g29370"><g
             clip-path="url(#clipPath29374)"
             id="g29372"><g
               id="g29378"><path
                 id="path29380"
                 style="fill:#ffffff;fill-opacity:1;fill-rule:nonzero;stroke:none"
                 d="m 31.996,264.758 c -17.512,0 -31.754,-14.254 -31.754,-31.766 l 0,-199.996 C 0.242,15.484 14.484,1.242 31.996,1.242 l 416.008,0 c 17.512,0 31.754,14.242 31.754,31.754 l 0,199.996 c 0,17.512 -14.242,31.766 -31.754,31.766" /><path
                 id="path29382"
                 style="fill:#000000;fill-opacity:1;fill-rule:nonzero;stroke:none"
                 d="M 31.996,1.484 C 14.613,1.484 0.484,15.613 0.484,32.996 l 0,199.996 c 0,17.383 14.129,31.524 31.512,31.524 l 416.008,0 c 17.383,0 31.512,-14.141 31.512,-31.524 l 0,-199.996 c 0,-17.383 -14.129,-31.512 -31.512,-31.512 l -416.008,0 z M 448.004,265 31.996,265 C 14.32,265 0,250.672 0,232.992 L 0,32.996 C 0,15.328 14.32,1 31.996,1 L 448.004,1 C 465.672,1 480,15.328 480,32.996 l 0,199.996 C 480,250.672 465.672,265 448.004,265" /></g></g></g></g><path
         id="path29384"
         style="fill:#000000;fill-opacity:1;fill-rule:nonzero;stroke:none"
         d="m 31.996,19.996 416.008,0 c 6.629,0 12,5.371 12,12 l 0,199.996 c 0,6.629 -5.371,12 -12,12 l -416.008,0 c -6.629,0 -12,-5.371 -12,-12 l 0,-199.996 c 0,-6.629 5.371,-12 12,-12 z m 0,-12 c -13.258,0 -24,10.742 -24,24 l 0,199.996 c 0,13.258 10.742,24 24,24 l 416.008,0 c 13.258,0 24,-10.742 24,-24 l 0,-199.996 c 0,-13.258 -10.742,-24 -24,-24" /></g><g
       id="g29386"><g
         clip-path="url(#clipPath29390)"
         id="g29388"><g
           transform="translate(0,-0.999969)"
           id="g29394"><g
             id="g29396"><g
               clip-path="url(#clipPath29400)"
               id="g29398"><g
                 id="g29404" /><g
                 id="g29406"><g
                   clip-path="url(#clipPath29410)"
                   id="g29408"><g
                     id="g29414"><g
                       id="g29416"><g
                         clip-path="url(#clipPath29420)"
                         id="g29418"><g
                           id="g29424"><path
                             id="path29426"
                             style="fill:none;stroke:#ffffff;stroke-width:0.5;stroke-linecap:butt;stroke-linejoin:miter;stroke-miterlimit:10;stroke-dasharray:none;stroke-opacity:1"
                             d="m 476.801,531.469 0,11.34 m -8.504,-19.844 -11.34,0 m 615.117,8.504 0,11.34 m 8.504,-19.844 11.34,0 m -615.117,-850.395 0,-11.34 m -8.504,19.844 -11.34,0 m 615.117,-8.504 0,-11.34 m 8.504,19.844 11.34,0" /><path
                             id="path29428"
                             style="fill:none;stroke:#000000;stroke-width:0.25;stroke-linecap:butt;stroke-linejoin:miter;stroke-miterlimit:10;stroke-dasharray:none;stroke-opacity:1"
                             d="m 476.801,531.469 0,11.34 m -8.504,-19.844 -11.34,0 m 615.117,8.504 0,11.34 m 8.504,-19.844 11.34,0 m -615.117,-850.395 0,-11.34 m -8.504,19.844 -11.34,0 m 615.117,-8.504 0,-11.34 m 8.504,19.844 11.34,0" /><path
                             id="path29430"
                             style="fill:none;stroke:#ffffff;stroke-width:0.5;stroke-linecap:butt;stroke-linejoin:miter;stroke-miterlimit:10;stroke-dasharray:none;stroke-opacity:1"
                             d="m 750.438,543.469 48,0 m -48,-882.899 48,0 m -342.145,465.45 0,-48 m 636.285,48 0,-48 m -318.14,477.449 0,-24 m 0,-858.899 0,-24 m -330.145,453.45 24.004,0 m 612.281,0 24,0 m -330.14,441.449 6,0 c 0,-3.313 -2.688,-6 -6,-6 -3.317,0 -6,2.687 -6,6 0,3.312 2.683,6 6,6 3.312,0 6,-2.688 6,-6 m -6,-882.899 6,0 c 0,-3.312 -2.688,-6 -6,-6 -3.317,0 -6,2.688 -6,6 0,3.313 2.683,6 6,6 3.312,0 6,-2.687 6,-6 m -324.145,441.45 6,0 c 0,-3.313 -2.684,-6 -6,-6 -3.313,0 -6,2.687 -6,6 0,3.312 2.687,6 6,6 3.316,0 6,-2.688 6,-6 m 630.285,0 6,0 c 0,-3.313 -2.687,-6 -6,-6 -3.312,0 -6,2.687 -6,6 0,3.312 2.688,6 6,6 3.313,0 6,-2.688 6,-6" /><path
                             id="path29432"
                             style="fill:none;stroke:#000000;stroke-width:0.25;stroke-linecap:butt;stroke-linejoin:miter;stroke-miterlimit:10;stroke-dasharray:none;stroke-opacity:1"
                             d="m 750.438,543.469 48,0 m -48,-882.899 48,0 m -342.145,465.45 0,-48 m 636.285,48 0,-48 m -318.14,477.449 0,-24 m 0,-858.899 0,-24 m -330.145,453.45 24.004,0 m 612.281,0 24,0 m -330.14,441.449 6,0 c 0,-3.313 -2.688,-6 -6,-6 -3.317,0 -6,2.687 -6,6 0,3.312 2.683,6 6,6 3.312,0 6,-2.688 6,-6 m -6,-882.899 6,0 c 0,-3.312 -2.688,-6 -6,-6 -3.317,0 -6,2.688 -6,6 0,3.313 2.683,6 6,6 3.312,0 6,-2.687 6,-6 m -324.145,441.45 6,0 c 0,-3.313 -2.684,-6 -6,-6 -3.313,0 -6,2.687 -6,6 0,3.312 2.687,6 6,6 3.316,0 6,-2.688 6,-6 m 630.285,0 6,0 c 0,-3.313 -2.687,-6 -6,-6 -3.312,0 -6,2.687 -6,6 0,3.312 2.688,6 6,6 3.313,0 6,-2.688 6,-6" /></g></g></g></g></g></g></g></g></g></g></g><g
       id="g29434"><g
         transform="translate(0,-0.999969)"
         id="g29436"><g
           id="g29438"><g
             clip-path="url(#clipPath29442)"
             id="g29440"><g
               id="g29446" /><g
               id="g29448"><g
                 clip-path="url(#clipPath29452)"
                 id="g29450"><g
                   id="g29456"><g
                     id="g29458"><g
                       clip-path="url(#clipPath29462)"
                       id="g29460"><g
                         id="g29466" /><g
                         id="g29468"><g
                           clip-path="url(#clipPath29472)"
                           id="g29470"><g
                             id="g29476"><g
                               id="g29478"><g
                                 clip-path="url(#clipPath29482)"
                                 id="g29480"><g
                                   id="g29486"><path
                                   id="path29488"
                                   style="fill:#231f20;fill-opacity:1;fill-rule:nonzero;stroke:none"
                                   d="m 370,158 -60,60 -37.5,0 45.004,-44.992 -147.512,0 c -33.125,0 -59.992,-26.863 -59.992,-60 L 110,48 l 29.996,0 0,65.008 c 0,16.562 13.434,29.996 29.996,29.996 l 147.512,0 -45.004,-44.992 37.5,0" /></g></g></g></g></g></g></g></g></g></g></g></g></g></g></g></g></svg>