<?xml version="1.0" encoding="UTF-8" standalone="no"?>
<svg
   xmlns:dc="http://purl.org/dc/elements/1.1/"
   xmlns:cc="http://creativecommons.org/ns#"
   xmlns:rdf="http://www.w3.org/1999/02/22-rdf-syntax-ns#"
   xmlns:svg="http://www.w3.org/2000/svg"
   xmlns="http://www.w3.org/2000/svg"
   viewBox="0 0 600 330.00003"
   height="330.00003"
   width="600"
   xml:space="preserve"
   version="1.1"
   id="svg28621"><metadata
     id="metadata28627"><rdf:RDF><cc:Work
         rdf:about=""><dc:format>image/svg+xml</dc:format><dc:type
           rdf:resource="http://purl.org/dc/dcmitype/StillImage" /><dc:title></dc:title></cc:Work></rdf:RDF></metadata><defs
     id="defs28625"><clipPath
       id="clipPath28641"
       clipPathUnits="userSpaceOnUse"><path
         id="path28643"
         d="M 0,1 480,1 480,265 0,265 0,1 Z" /></clipPath><clipPath
       id="clipPath28657"
       clipPathUnits="userSpaceOnUse"><path
         id="path28659"
         d="m 476.938,264 3.062,0 0,-264 -3.062,0 0,264 z" /></clipPath><clipPath
       id="clipPath28667"
       clipPathUnits="userSpaceOnUse"><path
         id="path28669"
         d="m 444,1 36,0 0,264 -36,0 0,-264 z" /></clipPath><clipPath
       id="clipPath28677"
       clipPathUnits="userSpaceOnUse"><path
         id="path28679"
         d="m 444,265 36,0 0,-264 -36,0 0,264 z" /></clipPath><clipPath
       id="clipPath28687"
       clipPathUnits="userSpaceOnUse"><path
         id="path28689"
         d="m 444,0 36,0 0,265 -36,0 0,-265 z" /></clipPath><clipPath
       id="clipPath28709"
       clipPathUnits="userSpaceOnUse"><path
         id="path28711"
         d="M 9,0 480,0 480,265 9,265 9,0 Z" /></clipPath><clipPath
       id="clipPath28719"
       clipPathUnits="userSpaceOnUse"><path
         id="path28721"
         d="M 9.68,265 480,265 480,0 9.68,0 l 0,265 z" /></clipPath><clipPath
       id="clipPath28729"
       clipPathUnits="userSpaceOnUse"><path
         id="path28731"
         d="M 10,6 480,6 480,265 10,265 10,6 Z" /></clipPath><clipPath
       id="clipPath28739"
       clipPathUnits="userSpaceOnUse"><path
         id="path28741"
         d="m 10,265 470,0 0,-258.996 -470,0 L 10,265 Z" /></clipPath><clipPath
       id="clipPath28749"
       clipPathUnits="userSpaceOnUse"><path
         id="path28751"
         d="m 110,48 260,0 0,170 -260,0 0,-170 z" /></clipPath></defs><g
     transform="matrix(1.25,0,0,-1.25,0,330.00004)"
     id="g28629"><g
       id="g28631" /><g
       id="g28633"><g
         transform="translate(0,-0.999969)"
         id="g28635"><g
           id="g28637"><g
             clip-path="url(#clipPath28641)"
             id="g28639"><g
               id="g28645"><path
                 id="path28647"
                 style="fill:#ffffff;fill-opacity:1;fill-rule:nonzero;stroke:none"
                 d="m 31.996,264.758 c -17.512,0 -31.754,-14.254 -31.754,-31.766 l 0,-199.996 C 0.242,15.484 14.484,1.242 31.996,1.242 l 416.008,0 c 17.512,0 31.754,14.242 31.754,31.754 l 0,199.996 c 0,17.512 -14.242,31.766 -31.754,31.766" /><path
                 id="path28649"
                 style="fill:#000000;fill-opacity:1;fill-rule:nonzero;stroke:none"
                 d="M 31.996,1.484 C 14.613,1.484 0.484,15.613 0.484,32.996 l 0,199.996 c 0,17.383 14.129,31.524 31.512,31.524 l 416.008,0 c 17.383,0 31.512,-14.141 31.512,-31.524 l 0,-199.996 c 0,-17.383 -14.129,-31.512 -31.512,-31.512 l -416.008,0 z M 448.004,265 31.996,265 C 14.32,265 0,250.672 0,232.992 L 0,32.996 C 0,15.328 14.32,1 31.996,1 L 448.004,1 C 465.672,1 480,15.328 480,32.996 l 0,199.996 C 480,250.672 465.672,265 448.004,265" /></g></g></g></g><path
         id="path28651"
         style="fill:#000000;fill-opacity:1;fill-rule:nonzero;stroke:none"
         d="m 31.996,19.996 416.008,0 c 6.629,0 12,5.371 12,12 l 0,199.996 c 0,6.629 -5.371,12 -12,12 l -416.008,0 c -6.629,0 -12,-5.371 -12,-12 l 0,-199.996 c 0,-6.629 5.371,-12 12,-12 z m 0,-12 c -13.258,0 -24,10.742 -24,24 l 0,199.996 c 0,13.258 10.742,24 24,24 l 416.008,0 c 13.258,0 24,-10.742 24,-24 l 0,-199.996 c 0,-13.258 -10.742,-24 -24,-24" /></g><g
       id="g28653"><g
         clip-path="url(#clipPath28657)"
         id="g28655"><g
           transform="translate(0,-0.999969)"
           id="g28661"><g
             id="g28663"><g
               clip-path="url(#clipPath28667)"
               id="g28665"><g
                 id="g28671" /><g
                 id="g28673"><g
                   clip-path="url(#clipPath28677)"
                   id="g28675"><g
                     id="g28681"><g
                       id="g28683"><g
                         clip-path="url(#clipPath28687)"
                         id="g28685"><g
                           id="g28691"><path
                             id="path28693"
                             style="fill:none;stroke:#ffffff;stroke-width:0.5;stroke-linecap:butt;stroke-linejoin:miter;stroke-miterlimit:10;stroke-dasharray:none;stroke-opacity:1"
                             d="m 476.801,531.469 0,11.34 m -8.504,-19.844 -11.34,0 m 615.117,8.504 0,11.34 m 8.504,-19.844 11.34,0 m -615.117,-850.395 0,-11.34 m -8.504,19.844 -11.34,0 m 615.117,-8.504 0,-11.34 m 8.504,19.844 11.34,0" /><path
                             id="path28695"
                             style="fill:none;stroke:#000000;stroke-width:0.25;stroke-linecap:butt;stroke-linejoin:miter;stroke-miterlimit:10;stroke-dasharray:none;stroke-opacity:1"
                             d="m 476.801,531.469 0,11.34 m -8.504,-19.844 -11.34,0 m 615.117,8.504 0,11.34 m 8.504,-19.844 11.34,0 m -615.117,-850.395 0,-11.34 m -8.504,19.844 -11.34,0 m 615.117,-8.504 0,-11.34 m 8.504,19.844 11.34,0" /><path
                             id="path28697"
                             style="fill:none;stroke:#ffffff;stroke-width:0.5;stroke-linecap:butt;stroke-linejoin:miter;stroke-miterlimit:10;stroke-dasharray:none;stroke-opacity:1"
                             d="m 750.438,543.469 48,0 m -48,-882.899 48,0 m -342.145,465.45 0,-48 m 636.285,48 0,-48 m -318.14,477.449 0,-24 m 0,-858.899 0,-24 m -330.145,453.45 24.004,0 m 612.281,0 24,0 m -330.14,441.449 6,0 c 0,-3.313 -2.688,-6 -6,-6 -3.317,0 -6,2.687 -6,6 0,3.312 2.683,6 6,6 3.312,0 6,-2.688 6,-6 m -6,-882.899 6,0 c 0,-3.312 -2.688,-6 -6,-6 -3.317,0 -6,2.688 -6,6 0,3.313 2.683,6 6,6 3.312,0 6,-2.687 6,-6 m -324.145,441.45 6,0 c 0,-3.313 -2.684,-6 -6,-6 -3.313,0 -6,2.687 -6,6 0,3.312 2.687,6 6,6 3.316,0 6,-2.688 6,-6 m 630.285,0 6,0 c 0,-3.313 -2.687,-6 -6,-6 -3.312,0 -6,2.687 -6,6 0,3.312 2.688,6 6,6 3.313,0 6,-2.688 6,-6" /><path
                             id="path28699"
                             style="fill:none;stroke:#000000;stroke-width:0.25;stroke-linecap:butt;stroke-linejoin:miter;stroke-miterlimit:10;stroke-dasharray:none;stroke-opacity:1"
                             d="m 750.438,543.469 48,0 m -48,-882.899 48,0 m -342.145,465.45 0,-48 m 636.285,48 0,-48 m -318.14,477.449 0,-24 m 0,-858.899 0,-24 m -330.145,453.45 24.004,0 m 612.281,0 24,0 m -330.14,441.449 6,0 c 0,-3.313 -2.688,-6 -6,-6 -3.317,0 -6,2.687 -6,6 0,3.312 2.683,6 6,6 3.312,0 6,-2.688 6,-6 m -6,-882.899 6,0 c 0,-3.312 -2.688,-6 -6,-6 -3.317,0 -6,2.688 -6,6 0,3.313 2.683,6 6,6 3.312,0 6,-2.687 6,-6 m -324.145,441.45 6,0 c 0,-3.313 -2.684,-6 -6,-6 -3.313,0 -6,2.687 -6,6 0,3.312 2.687,6 6,6 3.316,0 6,-2.688 6,-6 m 630.285,0 6,0 c 0,-3.313 -2.687,-6 -6,-6 -3.312,0 -6,2.687 -6,6 0,3.312 2.688,6 6,6 3.313,0 6,-2.688 6,-6" /></g></g></g></g></g></g></g></g></g></g></g><g
       id="g28701"><g
         transform="translate(0,-0.999969)"
         id="g28703"><g
           id="g28705"><g
             clip-path="url(#clipPath28709)"
             id="g28707"><g
               id="g28713" /><g
               id="g28715"><g
                 clip-path="url(#clipPath28719)"
                 id="g28717"><g
                   id="g28723"><g
                     id="g28725"><g
                       clip-path="url(#clipPath28729)"
                       id="g28727"><g
                         id="g28733" /><g
                         id="g28735"><g
                           clip-path="url(#clipPath28739)"
                           id="g28737"><g
                             id="g28743"><g
                               id="g28745"><g
                                 clip-path="url(#clipPath28749)"
                                 id="g28747"><g
                                   id="g28753"><path
                                   id="path28755"
                                   style="fill:#231f20;fill-opacity:1;fill-rule:nonzero;stroke:none"
                                   d="m 110,158 60,60 37.5,0 -45.004,-44.992 147.512,0 c 33.125,0 59.992,-26.863 59.992,-60 L 370,48 l -29.996,0 0,65.008 c 0,16.562 -13.434,29.996 -29.996,29.996 l -147.512,0 45.004,-44.992 -37.5,0" /></g></g></g></g></g></g></g></g></g></g></g></g></g></g></g></g></svg>