<?xml version="1.0" encoding="UTF-8" standalone="no"?>
<svg
   xmlns:dc="http://purl.org/dc/elements/1.1/"
   xmlns:cc="http://creativecommons.org/ns#"
   xmlns:rdf="http://www.w3.org/1999/02/22-rdf-syntax-ns#"
   xmlns:svg="http://www.w3.org/2000/svg"
   xmlns="http://www.w3.org/2000/svg"
   viewBox="0 0 600 450.00339"
   height="450.00339"
   width="600"
   xml:space="preserve"
   id="svg36"
   version="1.1"><metadata
     id="metadata42"><rdf:RDF><cc:Work
         rdf:about=""><dc:format>image/svg+xml</dc:format><dc:type
           rdf:resource="http://purl.org/dc/dcmitype/StillImage" /><dc:title></dc:title></cc:Work></rdf:RDF></metadata><defs
     id="defs40" /><g
     transform="matrix(1.3333333,0,0,1.3333333,0,1.3916751e-5)"
     id="g44"><g
       id="g46"><path
         id="path48"
         style="fill:#ffffff;fill-opacity:1;fill-rule:nonzero;stroke:none"
         d="m 29.996,337.063 c -16.297,0 -29.551,-13.258 -29.551,-29.559 V 29.996 C 0.445,13.699 13.699,0.441 29.996,0.441 h 390.008 c 16.297,0 29.551,13.258 29.551,29.555 v 277.508 c 0,16.301 -13.254,29.559 -29.551,29.559 z" /><path
         id="path50"
         style="fill:#000000;fill-opacity:1;fill-rule:nonzero;stroke:none"
         d="m 29.996,337.063 c -16.297,0 -29.551,-13.258 -29.551,-29.559 V 29.996 C 0.445,13.699 13.699,0.441 29.996,0.441 h 390.008 c 16.297,0 29.551,13.258 29.551,29.555 v 277.508 c 0,16.301 -13.254,29.559 -29.551,29.559 z M 420.004,0 H 29.996 C 13.434,0 0,13.434 0,29.996 v 277.508 c 0,16.566 13.434,30 29.996,30 h 390.008 c 16.562,0 29.996,-13.434 29.996,-30 L 450,29.996 C 450,13.434 436.566,0 420.004,0" /><path
         id="path52"
         style="fill:#000000;fill-opacity:1;fill-rule:nonzero;stroke:none"
         d="M 29.996,7.492 C 17.574,7.492 7.504,17.566 7.504,29.996 v 277.508 c 0,12.422 10.07,22.504 22.492,22.504 h 390.008 c 12.422,0 22.504,-10.082 22.504,-22.504 V 29.996 c 0,-12.43 -10.082,-22.504 -22.504,-22.504 z m 0,11.258 h 390.008 c 6.215,0 11.254,5.031 11.254,11.246 v 277.508 c 0,6.219 -5.039,11.246 -11.254,11.246 H 29.996 c -6.203,0 -11.246,-5.027 -11.246,-11.246 V 29.996 c 0,-6.215 5.043,-11.246 11.246,-11.246 z" /><path
         id="path54"
         style="fill:#000000;fill-opacity:1;fill-rule:nonzero;stroke:none"
         d="M 312.172,234.773 H 151.688 l 20.91,20.375 H 153.59 l -27.699,-27.71 27.968,-28.25 h 17.653 l -20.364,21.187 h 161.567 z" /><path
         id="path56"
         style="fill:#000000;fill-opacity:1;fill-rule:nonzero;stroke:none"
         d="m 137.836,282.043 h 160.488 l -20.91,20.375 h 19.008 l 27.699,-27.707 -27.969,-28.254 H 278.5 l 20.367,21.188 h -161.57 z" /><path
         id="path58"
         style="fill:#000000;fill-opacity:1;fill-rule:nonzero;stroke:none"
         d="m 190.188,35.082 c -8.375,0 -15.786,5.449 -18.262,13.461 l -13.883,44.82 c -22.27,-4.515 -44.629,7.278 -53.496,28.207 -10.277,24.305 1.086,52.34 25.383,62.625 24.304,10.301 52.336,-1.062 62.625,-25.367 10.285,-24.305 -1.078,-52.336 -25.383,-62.625 l 3.805,-12.265 56.484,62.656 c 1.82,2.011 4.387,3.172 7.105,3.172 h 20.075 c 0.367,1.777 0.836,3.527 1.39,5.242 8.188,25.09 35.153,38.805 60.239,30.609 25.089,-8.172 38.796,-35.133 30.613,-60.222 C 338.707,100.305 311.746,86.59 286.66,94.77 l -13.871,-31.02 3.594,-9.559 h 10.75 v -9.554 h -40.625 c -1.098,0 -2.07,0.75 -2.317,1.828 -0.316,1.277 0.473,2.574 1.762,2.875 l 20.219,4.851 -3.59,9.559 h -85.367 l 3.84,-12.383 c 1.246,-4.004 4.941,-6.73 9.133,-6.73 h 15.714 v -9.555 z m -15.926,38.223 h 84.742 l -24.91,66.383 z m 93.758,3.187 9.898,22.129 c -14.977,8.477 -24.238,24.383 -24.238,41.586 h -9.555 z m -119.239,25.481 c 2.125,0.011 4.27,0.203 6.418,0.586 l -11.203,36.226 c -0.773,2.52 0.621,5.199 3.152,5.981 2.52,0.773 5.184,-0.633 5.961,-3.153 l 11.219,-36.23 c 19.235,8.722 27.766,31.363 19.047,50.59 -8.707,19.234 -31.367,27.761 -50.602,19.043 -19.226,-8.703 -27.765,-31.368 -19.046,-50.602 6.308,-13.914 20.168,-22.543 35.054,-22.441 z m 149.41,0.129 c 17.707,-1.536 34.657,9.503 39.918,27.211 6.012,20.242 -5.519,41.531 -25.757,47.535 -20.239,6.007 -41.524,-5.52 -47.532,-25.762 -0.125,-0.438 -0.261,-0.875 -0.375,-1.32 h 39.41 c 2.649,0 4.774,-2.153 4.774,-4.786 0,-0.671 -0.137,-1.339 -0.41,-1.945 l -17.641,-39.48 c 2.531,-0.75 5.082,-1.235 7.613,-1.453 z m -16.351,5.293 14.633,32.812 H 263.23 c 0,-13.441 7.067,-25.902 18.61,-32.812 z" /></g></g></svg>