<?xml version="1.0" encoding="UTF-8" standalone="no"?>
<svg
   xmlns:dc="http://purl.org/dc/elements/1.1/"
   xmlns:cc="http://creativecommons.org/ns#"
   xmlns:rdf="http://www.w3.org/1999/02/22-rdf-syntax-ns#"
   xmlns:svg="http://www.w3.org/2000/svg"
   xmlns="http://www.w3.org/2000/svg"
   viewBox="0 0 600 330"
   height="330"
   width="600"
   xml:space="preserve"
   version="1.1"
   id="svg7642"><metadata
     id="metadata7648"><rdf:RDF><cc:Work
         rdf:about=""><dc:format>image/svg+xml</dc:format><dc:type
           rdf:resource="http://purl.org/dc/dcmitype/StillImage" /><dc:title></dc:title></cc:Work></rdf:RDF></metadata><defs
     id="defs7646"><clipPath
       id="clipPath7660"
       clipPathUnits="userSpaceOnUse"><path
         id="path7662"
         d="M 0,0 480,0 480,264 0,264 0,0 Z" /></clipPath><clipPath
       id="clipPath7676"
       clipPathUnits="userSpaceOnUse"><path
         id="path7678"
         d="m 476.938,264 3.062,0 0,-264 -3.062,0 0,264 z" /></clipPath><clipPath
       id="clipPath7686"
       clipPathUnits="userSpaceOnUse"><path
         id="path7688"
         d="m 444,0 36,0 0,264 -36,0 0,-264 z" /></clipPath></defs><g
     transform="matrix(1.25,0,0,-1.25,0,330)"
     id="g7650"><g
       id="g7652"><g
         id="g7654"><g
           id="g7656"><g
             clip-path="url(#clipPath7660)"
             id="g7658"><g
               id="g7664"><path
                 id="path7666"
                 style="fill:#ffffff;fill-opacity:1;fill-rule:nonzero;stroke:none"
                 d="m 31.996,263.758 c -17.512,0 -31.754,-14.254 -31.754,-31.766 l 0,-199.996 C 0.242,14.484 14.484,0.242 31.996,0.242 l 416.008,0 c 17.512,0 31.754,14.242 31.754,31.754 l 0,199.996 c 0,17.512 -14.242,31.766 -31.754,31.766" /><path
                 id="path7668"
                 style="fill:#000000;fill-opacity:1;fill-rule:nonzero;stroke:none"
                 d="M 31.996,0.484 C 14.613,0.484 0.484,14.613 0.484,31.996 l 0,199.996 c 0,17.383 14.129,31.524 31.512,31.524 l 416.008,0 c 17.383,0 31.512,-14.141 31.512,-31.524 l 0,-199.996 c 0,-17.383 -14.129,-31.512 -31.512,-31.512 l -416.008,0 z M 448.004,264 31.996,264 C 14.32,264 0,249.672 0,231.992 L 0,31.996 C 0,14.328 14.32,0 31.996,0 L 448.004,0 C 465.672,0 480,14.328 480,31.996 l 0,199.996 C 480,249.672 465.672,264 448.004,264" /></g></g></g></g><path
         id="path7670"
         style="fill:#000000;fill-opacity:1;fill-rule:nonzero;stroke:none"
         d="m 31.996,19.996 416.008,0 c 6.629,0 12,5.371 12,12 l 0,199.996 c 0,6.629 -5.371,12 -12,12 l -416.008,0 c -6.629,0 -12,-5.371 -12,-12 l 0,-199.996 c 0,-6.629 5.371,-12 12,-12 z m 0,-12 c -13.258,0 -24,10.742 -24,24 l 0,199.996 c 0,13.258 10.742,24 24,24 l 416.008,0 c 13.258,0 24,-10.742 24,-24 l 0,-199.996 c 0,-13.258 -10.742,-24 -24,-24" /></g><g
       id="g7672"><g
         clip-path="url(#clipPath7676)"
         id="g7674"><g
           id="g7680"><g
             id="g7682"><g
               clip-path="url(#clipPath7686)"
               id="g7684"><g
                 id="g7690"><path
                   id="path7692"
                   style="fill:none;stroke:#ffffff;stroke-width:0.5;stroke-linecap:butt;stroke-linejoin:miter;stroke-miterlimit:10;stroke-dasharray:none;stroke-opacity:1"
                   d="m 476.801,530.469 0,11.34 m -8.504,-19.844 -11.34,0 m 615.117,8.504 0,11.34 m 8.504,-19.844 11.34,0 m -615.117,-850.395 0,-11.34 m -8.504,19.844 -11.34,0 m 615.117,-8.504 0,-11.34 m 8.504,19.844 11.34,0" /><path
                   id="path7694"
                   style="fill:none;stroke:#000000;stroke-width:0.25;stroke-linecap:butt;stroke-linejoin:miter;stroke-miterlimit:10;stroke-dasharray:none;stroke-opacity:1"
                   d="m 476.801,530.469 0,11.34 m -8.504,-19.844 -11.34,0 m 615.117,8.504 0,11.34 m 8.504,-19.844 11.34,0 m -615.117,-850.395 0,-11.34 m -8.504,19.844 -11.34,0 m 615.117,-8.504 0,-11.34 m 8.504,19.844 11.34,0" /><path
                   id="path7696"
                   style="fill:none;stroke:#ffffff;stroke-width:0.5;stroke-linecap:butt;stroke-linejoin:miter;stroke-miterlimit:10;stroke-dasharray:none;stroke-opacity:1"
                   d="m 750.438,542.469 48,0 m -48,-882.899 48,0 m -342.145,465.45 0,-48 m 636.285,48 0,-48 m -318.14,477.449 0,-24 m 0,-858.899 0,-24 m -330.145,453.45 24.004,0 m 612.281,0 24,0 m -330.14,441.449 6,0 c 0,-3.313 -2.688,-6 -6,-6 -3.317,0 -6,2.687 -6,6 0,3.312 2.683,6 6,6 3.312,0 6,-2.688 6,-6 m -6,-882.899 6,0 c 0,-3.312 -2.688,-6 -6,-6 -3.317,0 -6,2.688 -6,6 0,3.313 2.683,6 6,6 3.312,0 6,-2.687 6,-6 m -324.145,441.45 6,0 c 0,-3.313 -2.684,-6 -6,-6 -3.313,0 -6,2.687 -6,6 0,3.312 2.687,6 6,6 3.316,0 6,-2.688 6,-6 m 630.285,0 6,0 c 0,-3.313 -2.687,-6 -6,-6 -3.312,0 -6,2.687 -6,6 0,3.312 2.688,6 6,6 3.313,0 6,-2.688 6,-6" /><path
                   id="path7698"
                   style="fill:none;stroke:#000000;stroke-width:0.25;stroke-linecap:butt;stroke-linejoin:miter;stroke-miterlimit:10;stroke-dasharray:none;stroke-opacity:1"
                   d="m 750.438,542.469 48,0 m -48,-882.899 48,0 m -342.145,465.45 0,-48 m 636.285,48 0,-48 m -318.14,477.449 0,-24 m 0,-858.899 0,-24 m -330.145,453.45 24.004,0 m 612.281,0 24,0 m -330.14,441.449 6,0 c 0,-3.313 -2.688,-6 -6,-6 -3.317,0 -6,2.687 -6,6 0,3.312 2.683,6 6,6 3.312,0 6,-2.688 6,-6 m -6,-882.899 6,0 c 0,-3.312 -2.688,-6 -6,-6 -3.317,0 -6,2.688 -6,6 0,3.313 2.683,6 6,6 3.312,0 6,-2.687 6,-6 m -324.145,441.45 6,0 c 0,-3.313 -2.684,-6 -6,-6 -3.313,0 -6,2.687 -6,6 0,3.312 2.687,6 6,6 3.316,0 6,-2.688 6,-6 m 630.285,0 6,0 c 0,-3.313 -2.687,-6 -6,-6 -3.312,0 -6,2.687 -6,6 0,3.312 2.688,6 6,6 3.313,0 6,-2.688 6,-6" /></g></g></g></g></g></g><g
       id="g7700"><path
         id="path7702"
         style="fill:#000000;fill-opacity:1;fill-rule:evenodd;stroke:none"
         d="m 69.211,132.977 c 5.398,3.929 67.234,68.265 67.234,68.265 l 36.321,0 -51.043,-55.988 289.066,0 0,-27.996 -289.066,0 49.57,-54.024 -38.281,-0.492 -63.801,70.235 z" /></g></g></svg>