<?xml version="1.0" encoding="UTF-8" standalone="no"?>
<svg
   xmlns:dc="http://purl.org/dc/elements/1.1/"
   xmlns:cc="http://creativecommons.org/ns#"
   xmlns:rdf="http://www.w3.org/1999/02/22-rdf-syntax-ns#"
   xmlns:svg="http://www.w3.org/2000/svg"
   xmlns="http://www.w3.org/2000/svg"
   viewBox="0 0 600 330.00003"
   height="330.00003"
   width="600"
   xml:space="preserve"
   version="1.1"
   id="svg30169"><metadata
     id="metadata30175"><rdf:RDF><cc:Work
         rdf:about=""><dc:format>image/svg+xml</dc:format><dc:type
           rdf:resource="http://purl.org/dc/dcmitype/StillImage" /><dc:title></dc:title></cc:Work></rdf:RDF></metadata><defs
     id="defs30173"><clipPath
       id="clipPath30189"
       clipPathUnits="userSpaceOnUse"><path
         id="path30191"
         d="M 0,1 480,1 480,265 0,265 0,1 Z" /></clipPath><clipPath
       id="clipPath30205"
       clipPathUnits="userSpaceOnUse"><path
         id="path30207"
         d="m 476.938,264 3.062,0 0,-264 -3.062,0 0,264 z" /></clipPath><clipPath
       id="clipPath30215"
       clipPathUnits="userSpaceOnUse"><path
         id="path30217"
         d="m 444,1 36,0 0,264 -36,0 0,-264 z" /></clipPath><clipPath
       id="clipPath30225"
       clipPathUnits="userSpaceOnUse"><path
         id="path30227"
         d="m 444,265 36,0 0,-264 -36,0 0,264 z" /></clipPath><clipPath
       id="clipPath30235"
       clipPathUnits="userSpaceOnUse"><path
         id="path30237"
         d="m 444,0 36,0 0,265 -36,0 0,-265 z" /></clipPath><clipPath
       id="clipPath30257"
       clipPathUnits="userSpaceOnUse"><path
         id="path30259"
         d="M 0,0 480,0 480,265 0,265 0,0 Z" /></clipPath><clipPath
       id="clipPath30267"
       clipPathUnits="userSpaceOnUse"><path
         id="path30269"
         d="m 0,264.996 480,0 0,-264 -480,0 0,264 z" /></clipPath><clipPath
       id="clipPath30277"
       clipPathUnits="userSpaceOnUse"><path
         id="path30279"
         d="m 106,43 108,0 0,170 -108,0 0,-170 z" /></clipPath><clipPath
       id="clipPath30291"
       clipPathUnits="userSpaceOnUse"><path
         id="path30293"
         d="M 0,0 480,0 480,265 0,265 0,0 Z" /></clipPath><clipPath
       id="clipPath30301"
       clipPathUnits="userSpaceOnUse"><path
         id="path30303"
         d="m 0,264.996 480,0 0,-264 -480,0 0,264 z" /></clipPath><clipPath
       id="clipPath30311"
       clipPathUnits="userSpaceOnUse"><path
         id="path30313"
         d="m 266,53 108,0 0,170 -108,0 0,-170 z" /></clipPath></defs><g
     transform="matrix(1.25,0,0,-1.25,0,330.00004)"
     id="g30177"><g
       id="g30179" /><g
       id="g30181"><g
         transform="translate(0,-0.999969)"
         id="g30183"><g
           id="g30185"><g
             clip-path="url(#clipPath30189)"
             id="g30187"><g
               id="g30193"><path
                 id="path30195"
                 style="fill:#ffffff;fill-opacity:1;fill-rule:nonzero;stroke:none"
                 d="m 31.996,264.758 c -17.512,0 -31.754,-14.254 -31.754,-31.766 l 0,-199.996 C 0.242,15.484 14.484,1.242 31.996,1.242 l 416.008,0 c 17.512,0 31.754,14.242 31.754,31.754 l 0,199.996 c 0,17.512 -14.242,31.766 -31.754,31.766" /><path
                 id="path30197"
                 style="fill:#000000;fill-opacity:1;fill-rule:nonzero;stroke:none"
                 d="M 31.996,1.484 C 14.613,1.484 0.484,15.613 0.484,32.996 l 0,199.996 c 0,17.383 14.129,31.524 31.512,31.524 l 416.008,0 c 17.383,0 31.512,-14.141 31.512,-31.524 l 0,-199.996 c 0,-17.383 -14.129,-31.512 -31.512,-31.512 l -416.008,0 z M 448.004,265 31.996,265 C 14.32,265 0,250.672 0,232.992 L 0,32.996 C 0,15.328 14.32,1 31.996,1 L 448.004,1 C 465.672,1 480,15.328 480,32.996 l 0,199.996 C 480,250.672 465.672,265 448.004,265" /></g></g></g></g><path
         id="path30199"
         style="fill:#000000;fill-opacity:1;fill-rule:nonzero;stroke:none"
         d="m 31.996,19.996 416.008,0 c 6.629,0 12,5.371 12,12 l 0,199.996 c 0,6.629 -5.371,12 -12,12 l -416.008,0 c -6.629,0 -12,-5.371 -12,-12 l 0,-199.996 c 0,-6.629 5.371,-12 12,-12 z m 0,-12 c -13.258,0 -24,10.742 -24,24 l 0,199.996 c 0,13.258 10.742,24 24,24 l 416.008,0 c 13.258,0 24,-10.742 24,-24 l 0,-199.996 c 0,-13.258 -10.742,-24 -24,-24" /></g><g
       id="g30201"><g
         clip-path="url(#clipPath30205)"
         id="g30203"><g
           transform="translate(0,-0.999969)"
           id="g30209"><g
             id="g30211"><g
               clip-path="url(#clipPath30215)"
               id="g30213"><g
                 id="g30219" /><g
                 id="g30221"><g
                   clip-path="url(#clipPath30225)"
                   id="g30223"><g
                     id="g30229"><g
                       id="g30231"><g
                         clip-path="url(#clipPath30235)"
                         id="g30233"><g
                           id="g30239"><path
                             id="path30241"
                             style="fill:none;stroke:#ffffff;stroke-width:0.5;stroke-linecap:butt;stroke-linejoin:miter;stroke-miterlimit:10;stroke-dasharray:none;stroke-opacity:1"
                             d="m 476.801,531.469 0,11.34 m -8.504,-19.844 -11.34,0 m 615.117,8.504 0,11.34 m 8.504,-19.844 11.34,0 m -615.117,-850.395 0,-11.34 m -8.504,19.844 -11.34,0 m 615.117,-8.504 0,-11.34 m 8.504,19.844 11.34,0" /><path
                             id="path30243"
                             style="fill:none;stroke:#000000;stroke-width:0.25;stroke-linecap:butt;stroke-linejoin:miter;stroke-miterlimit:10;stroke-dasharray:none;stroke-opacity:1"
                             d="m 476.801,531.469 0,11.34 m -8.504,-19.844 -11.34,0 m 615.117,8.504 0,11.34 m 8.504,-19.844 11.34,0 m -615.117,-850.395 0,-11.34 m -8.504,19.844 -11.34,0 m 615.117,-8.504 0,-11.34 m 8.504,19.844 11.34,0" /><path
                             id="path30245"
                             style="fill:none;stroke:#ffffff;stroke-width:0.5;stroke-linecap:butt;stroke-linejoin:miter;stroke-miterlimit:10;stroke-dasharray:none;stroke-opacity:1"
                             d="m 750.438,543.469 48,0 m -48,-882.899 48,0 m -342.145,465.45 0,-48 m 636.285,48 0,-48 m -318.14,477.449 0,-24 m 0,-858.899 0,-24 m -330.145,453.45 24.004,0 m 612.281,0 24,0 m -330.14,441.449 6,0 c 0,-3.313 -2.688,-6 -6,-6 -3.317,0 -6,2.687 -6,6 0,3.312 2.683,6 6,6 3.312,0 6,-2.688 6,-6 m -6,-882.899 6,0 c 0,-3.312 -2.688,-6 -6,-6 -3.317,0 -6,2.688 -6,6 0,3.313 2.683,6 6,6 3.312,0 6,-2.687 6,-6 m -324.145,441.45 6,0 c 0,-3.313 -2.684,-6 -6,-6 -3.313,0 -6,2.687 -6,6 0,3.312 2.687,6 6,6 3.316,0 6,-2.688 6,-6 m 630.285,0 6,0 c 0,-3.313 -2.687,-6 -6,-6 -3.312,0 -6,2.687 -6,6 0,3.312 2.688,6 6,6 3.313,0 6,-2.688 6,-6" /><path
                             id="path30247"
                             style="fill:none;stroke:#000000;stroke-width:0.25;stroke-linecap:butt;stroke-linejoin:miter;stroke-miterlimit:10;stroke-dasharray:none;stroke-opacity:1"
                             d="m 750.438,543.469 48,0 m -48,-882.899 48,0 m -342.145,465.45 0,-48 m 636.285,48 0,-48 m -318.14,477.449 0,-24 m 0,-858.899 0,-24 m -330.145,453.45 24.004,0 m 612.281,0 24,0 m -330.14,441.449 6,0 c 0,-3.313 -2.688,-6 -6,-6 -3.317,0 -6,2.687 -6,6 0,3.312 2.683,6 6,6 3.312,0 6,-2.688 6,-6 m -6,-882.899 6,0 c 0,-3.312 -2.688,-6 -6,-6 -3.317,0 -6,2.688 -6,6 0,3.313 2.683,6 6,6 3.312,0 6,-2.687 6,-6 m -324.145,441.45 6,0 c 0,-3.313 -2.684,-6 -6,-6 -3.313,0 -6,2.687 -6,6 0,3.312 2.687,6 6,6 3.316,0 6,-2.688 6,-6 m 630.285,0 6,0 c 0,-3.313 -2.687,-6 -6,-6 -3.312,0 -6,2.687 -6,6 0,3.312 2.688,6 6,6 3.313,0 6,-2.688 6,-6" /></g></g></g></g></g></g></g></g></g></g></g><g
       id="g30249"><g
         transform="translate(0,-0.999969)"
         id="g30251"><g
           id="g30253"><g
             clip-path="url(#clipPath30257)"
             id="g30255"><g
               id="g30261" /><g
               id="g30263"><g
                 clip-path="url(#clipPath30267)"
                 id="g30265"><g
                   id="g30271"><g
                     id="g30273"><g
                       clip-path="url(#clipPath30277)"
                       id="g30275"><g
                         id="g30281"><path
                           id="path30283"
                           style="fill:#231f20;fill-opacity:1;fill-rule:nonzero;stroke:none"
                           d="M 160.004,43 106,96.996 106,127 l 42.004,-42.004 0,128.004 24,0 0,-128.004 L 214,127 214,96.996" /></g></g></g></g></g></g></g></g></g><g
         transform="translate(0,-0.999969)"
         id="g30285"><g
           id="g30287"><g
             clip-path="url(#clipPath30291)"
             id="g30289"><g
               id="g30295" /><g
               id="g30297"><g
                 clip-path="url(#clipPath30301)"
                 id="g30299"><g
                   id="g30305"><g
                     id="g30307"><g
                       clip-path="url(#clipPath30311)"
                       id="g30309"><g
                         id="g30315"><path
                           id="path30317"
                           style="fill:#231f20;fill-opacity:1;fill-rule:nonzero;stroke:none"
                           d="M 319.996,223 374,168.996 374,139 l -41.992,41.996 0,-127.996 -24,0 0,127.996 L 266,139 l 0,29.996" /></g></g></g></g></g></g></g></g></g></g></g></svg>