<?xml version="1.0" encoding="UTF-8" standalone="no"?>
<svg
   xmlns:dc="http://purl.org/dc/elements/1.1/"
   xmlns:cc="http://creativecommons.org/ns#"
   xmlns:rdf="http://www.w3.org/1999/02/22-rdf-syntax-ns#"
   xmlns:svg="http://www.w3.org/2000/svg"
   xmlns="http://www.w3.org/2000/svg"
   viewBox="0 0 600 330"
   height="330"
   width="600"
   xml:space="preserve"
   version="1.1"
   id="svg3370"><metadata
     id="metadata3376"><rdf:RDF><cc:Work
         rdf:about=""><dc:format>image/svg+xml</dc:format><dc:type
           rdf:resource="http://purl.org/dc/dcmitype/StillImage" /><dc:title></dc:title></cc:Work></rdf:RDF></metadata><defs
     id="defs3374"><clipPath
       id="clipPath3386"
       clipPathUnits="userSpaceOnUse"><path
         id="path3388"
         d="M 0,0 480,0 480,264 0,264 0,0 Z" /></clipPath><clipPath
       id="clipPath3408"
       clipPathUnits="userSpaceOnUse"><path
         id="path3410"
         d="m 476.938,264 3.063,0 0,-264 -3.063,0 0,264 z" /></clipPath><clipPath
       id="clipPath3416"
       clipPathUnits="userSpaceOnUse"><path
         id="path3418"
         d="M 0,0 480,0 480,264 0,264 0,0 Z" /></clipPath><clipPath
       id="clipPath3420"
       clipPathUnits="userSpaceOnUse"><path
         id="path3422"
         d="m 444,264 36,0 0,-264 -36,0 0,264 z" /></clipPath><clipPath
       id="clipPath3424"
       clipPathUnits="userSpaceOnUse"><path
         id="path3426"
         d="M 0,0 480,0 480,264 0,264 0,0 Z" /></clipPath></defs><g
     transform="matrix(1.25,0,0,-1.25,0,330)"
     id="g3378"><g
       id="g3380"><g
         id="g3382"><g
           id="g3384" /><g
           id="g3390"><g
             id="g3392"
             clip-path="url(#clipPath3386)"><g
               id="g3394"><path
                 id="path3396"
                 style="fill:#ffffff;fill-opacity:1;fill-rule:nonzero;stroke:none"
                 d="m 31.996,263.758 c -17.512,0 -31.754,-14.254 -31.754,-31.766 l 0,-199.996 C 0.242,14.484 14.484,0.242 31.996,0.242 l 416.008,0 c 17.512,0 31.754,14.242 31.754,31.754 l 0,199.996 c 0,17.512 -14.242,31.766 -31.754,31.766" /><path
                 id="path3398"
                 style="fill:#000000;fill-opacity:1;fill-rule:nonzero;stroke:none"
                 d="M 31.996,0.484 C 14.613,0.484 0.484,14.613 0.484,31.996 l 0,199.996 c 0,17.383 14.129,31.524 31.512,31.524 l 416.008,0 c 17.383,0 31.512,-14.141 31.512,-31.524 l 0,-199.996 c 0,-17.383 -14.129,-31.512 -31.512,-31.512 l -416.008,0 z M 448.004,264 31.996,264 C 14.32,264 0,249.672 0,231.992 L 0,31.996 C 0,14.328 14.32,0 31.996,0 L 448.004,0 C 465.672,0 480,14.328 480,31.996 l 0,199.996 C 480,249.672 465.672,264 448.004,264" /></g></g></g></g></g><g
       id="g3400"><path
         id="path3402"
         style="fill:#000000;fill-opacity:1;fill-rule:nonzero;stroke:none"
         d="m 31.996,19.996 416.008,0 c 6.629,0 12,5.371 12,12 l 0,199.996 c 0,6.629 -5.371,12 -12,12 l -416.008,0 c -6.629,0 -12,-5.371 -12,-12 l 0,-199.996 c 0,-6.629 5.371,-12 12,-12 z m 0,-12 c -13.258,0 -24,10.742 -24,24 l 0,199.996 c 0,13.258 10.742,24 24,24 l 416.008,0 c 13.258,0 24,-10.742 24,-24 l 0,-199.996 c 0,-13.258 -10.742,-24 -24,-24" /></g><g
       id="g3404"><g
         clip-path="url(#clipPath3408)"
         id="g3406"><g
           id="g3412"><g
             id="g3414" /><g
             id="g3428"><g
               id="g3430"
               clip-path="url(#clipPath3416)"><g
                 id="g3432" /><g
                 id="g3434"><g
                   id="g3436"
                   clip-path="url(#clipPath3420)"><g
                     id="g3438"><g
                       id="g3440" /><g
                       id="g3442"><g
                         id="g3444"
                         clip-path="url(#clipPath3424)"><g
                           id="g3446" /><g
                           id="g3448"><path
                             id="path3450"
                             style="fill:none;stroke:#ffffff;stroke-width:0.5;stroke-linecap:butt;stroke-linejoin:miter;stroke-miterlimit:10;stroke-dasharray:none;stroke-opacity:1"
                             d="m 476.801,530.469 0,11.34 m -8.504,-19.844 -11.34,0 m 615.117,8.504 0,11.34 m 8.504,-19.844 11.34,0 m -615.117,-850.395 0,-11.34 m -8.504,19.844 -11.34,0 m 615.117,-8.504 0,-11.34 m 8.504,19.844 11.34,0" /><path
                             id="path3452"
                             style="fill:none;stroke:#000000;stroke-width:0.25;stroke-linecap:butt;stroke-linejoin:miter;stroke-miterlimit:10;stroke-dasharray:none;stroke-opacity:1"
                             d="m 476.801,530.469 0,11.34 m -8.504,-19.844 -11.34,0 m 615.117,8.504 0,11.34 m 8.504,-19.844 11.34,0 m -615.117,-850.395 0,-11.34 m -8.504,19.844 -11.34,0 m 615.117,-8.504 0,-11.34 m 8.504,19.844 11.34,0" /><path
                             id="path3454"
                             style="fill:none;stroke:#ffffff;stroke-width:0.5;stroke-linecap:butt;stroke-linejoin:miter;stroke-miterlimit:10;stroke-dasharray:none;stroke-opacity:1"
                             d="m 750.438,542.469 48,0 m -48,-882.899 48,0 m -342.145,465.45 0,-48 m 636.285,48 0,-48 m -318.14,477.449 0,-24 m 0,-858.899 0,-24 m -330.145,453.45 24.004,0 m 612.281,0 24,0 m -330.14,441.449 6,0 c 0,-3.313 -2.688,-6 -6,-6 -3.317,0 -6,2.687 -6,6 0,3.312 2.683,6 6,6 3.312,0 6,-2.688 6,-6 m -6,-882.899 6,0 c 0,-3.312 -2.688,-6 -6,-6 -3.317,0 -6,2.688 -6,6 0,3.313 2.683,6 6,6 3.312,0 6,-2.687 6,-6 m -324.145,441.45 6,0 c 0,-3.313 -2.684,-6 -6,-6 -3.313,0 -6,2.687 -6,6 0,3.312 2.687,6 6,6 3.316,0 6,-2.688 6,-6 m 630.285,0 6,0 c 0,-3.313 -2.687,-6 -6,-6 -3.312,0 -6,2.687 -6,6 0,3.312 2.688,6 6,6 3.313,0 6,-2.688 6,-6" /><path
                             id="path3456"
                             style="fill:none;stroke:#000000;stroke-width:0.25;stroke-linecap:butt;stroke-linejoin:miter;stroke-miterlimit:10;stroke-dasharray:none;stroke-opacity:1"
                             d="m 750.438,542.469 48,0 m -48,-882.899 48,0 m -342.145,465.45 0,-48 m 636.285,48 0,-48 m -318.14,477.449 0,-24 m 0,-858.899 0,-24 m -330.145,453.45 24.004,0 m 612.281,0 24,0 m -330.14,441.449 6,0 c 0,-3.313 -2.688,-6 -6,-6 -3.317,0 -6,2.687 -6,6 0,3.312 2.683,6 6,6 3.312,0 6,-2.688 6,-6 m -6,-882.899 6,0 c 0,-3.312 -2.688,-6 -6,-6 -3.317,0 -6,2.688 -6,6 0,3.313 2.683,6 6,6 3.312,0 6,-2.687 6,-6 m -324.145,441.45 6,0 c 0,-3.313 -2.684,-6 -6,-6 -3.313,0 -6,2.687 -6,6 0,3.312 2.687,6 6,6 3.316,0 6,-2.688 6,-6 m 630.285,0 6,0 c 0,-3.313 -2.687,-6 -6,-6 -3.312,0 -6,2.687 -6,6 0,3.312 2.688,6 6,6 3.313,0 6,-2.688 6,-6" /></g></g></g></g></g></g></g></g></g></g></g><g
       id="g3458"><path
         id="path3460"
         style="fill:#000000;fill-opacity:1;fill-rule:evenodd;stroke:none"
         d="m 102.266,183.645 -45.489,-53.676 0.067,0 45.515,-53.68 24.856,0 -35.344,43.891 156.453,0 0,10.14 -0.066,0 0,9.469 -156.453,0 35.347,43.856 -24.886,0 z" /><path
         id="path3462"
         style="fill:#000000;fill-opacity:1;fill-rule:evenodd;stroke:none"
         d="m 307.344,91.262 10.707,0 0,-42.063 c 0,-4.164 -10.324,-3.578 -10.324,0 l -0.383,42.063 z" /><path
         id="path3464"
         style="fill:#000000;fill-opacity:1;fill-rule:evenodd;stroke:none"
         d="m 322.129,91.262 10.703,0 0,-51.239 c 0,-6.203 -10.324,-6 -10.324,0 l -0.379,51.239 z" /><path
         id="path3466"
         style="fill:#000000;fill-opacity:1;fill-rule:evenodd;stroke:none"
         d="m 283.172,95.215 c 3.051,14.734 5.183,27.73 25.824,47.18 l 0,29.472 -3.652,0.949 c -3.383,-11.796 -3.211,-22.652 0.031,-33.941 -1.691,-1.699 -3.285,-3.5 -4.898,-5.281 -3.457,1.715 -3.813,7.086 -5.543,11.91 l -2.114,13.332 1.981,11.141 c 3.664,8.207 5.953,16.765 20.14,22.171 l 8.52,0.133 c 16.394,-2.84 19.527,-14.496 25.598,-25.984 7.332,-13.871 15.984,-26.207 7.66,-31.067 9.222,-6.007 14.051,-16.41 27.711,-17.98 6.523,-0.672 9.918,1.262 14.871,1.895 l 23.66,-28.661 c 1.125,-7.359 -1.594,-8.308 -4.191,-9.464 l -15.954,19.062 5.543,-28.121 -7.839,0 5,-29.742 c 0,-2.852 -9.598,-3.606 -9.598,-0.539 l -4.867,27.441 -6.711,0.078 -3.024,-31.441 c 0,-3.231 -8.652,-2.645 -8.652,0 l 3.789,66.785 -27.582,25.414 c -3.18,5.625 -0.863,7.371 0,10.141 -3.871,11.582 -10.445,21.816 -15.68,32.718 l -1.894,0 0.137,-30.554 c 22.128,-19.129 22.906,-32.403 25.82,-47.453 l -74.086,0.406 z" /><path
         id="path3468"
         style="fill:#000000;fill-opacity:1;fill-rule:nonzero;stroke:none"
         d="m 334.875,214.195 c 0.004,-7.918 -6.418,-14.343 -14.34,-14.343 -7.922,0 -14.34,6.425 -14.34,14.343 0,7.922 6.418,14.348 14.34,14.348 7.922,0 14.344,-6.426 14.34,-14.348 z" /><path
         id="path3470"
         style="fill:#000000;fill-opacity:1;fill-rule:nonzero;stroke:none"
         d="m 398.922,137.531 c 0.004,-7.078 -5.731,-12.816 -12.809,-12.816 -7.074,0 -12.812,5.738 -12.808,12.816 -0.004,7.074 5.734,12.813 12.808,12.813 7.078,0 12.813,-5.739 12.809,-12.813 z" /></g></g></svg>