<?xml version="1.0" encoding="UTF-8" standalone="no"?>
<svg
   xmlns:dc="http://purl.org/dc/elements/1.1/"
   xmlns:cc="http://creativecommons.org/ns#"
   xmlns:rdf="http://www.w3.org/1999/02/22-rdf-syntax-ns#"
   xmlns:svg="http://www.w3.org/2000/svg"
   xmlns="http://www.w3.org/2000/svg"
   viewBox="0 0 600 330"
   height="330"
   width="600"
   xml:space="preserve"
   version="1.1"
   id="svg3678"><metadata
     id="metadata3684"><rdf:RDF><cc:Work
         rdf:about=""><dc:format>image/svg+xml</dc:format><dc:type
           rdf:resource="http://purl.org/dc/dcmitype/StillImage" /><dc:title></dc:title></cc:Work></rdf:RDF></metadata><defs
     id="defs3682"><clipPath
       id="clipPath3696"
       clipPathUnits="userSpaceOnUse"><path
         id="path3698"
         d="M 0,0 480,0 480,264 0,264 0,0 Z" /></clipPath></defs><g
     transform="matrix(1.25,0,0,-1.25,0,330)"
     id="g3686"><g
       id="g3688" /><g
       id="g3690"><g
         id="g3692"><g
           id="g3694" /><g
           id="g3700"><g
             id="g3702"
             clip-path="url(#clipPath3696)"><g
               id="g3704"><path
                 id="path3706"
                 style="fill:#ffffff;fill-opacity:1;fill-rule:nonzero;stroke:none"
                 d="m 31.996,263.758 c -17.512,0 -31.754,-14.254 -31.754,-31.766 l 0,-199.996 C 0.242,14.484 14.484,0.242 31.996,0.242 l 416.008,0 c 17.512,0 31.754,14.242 31.754,31.754 l 0,199.996 c 0,17.512 -14.242,31.766 -31.754,31.766" /><path
                 id="path3708"
                 style="fill:#000000;fill-opacity:1;fill-rule:nonzero;stroke:none"
                 d="M 31.996,0.484 C 14.613,0.484 0.484,14.613 0.484,31.996 l 0,199.996 c 0,17.383 14.129,31.524 31.512,31.524 l 416.008,0 c 17.383,0 31.512,-14.141 31.512,-31.524 l 0,-199.996 c 0,-17.383 -14.129,-31.512 -31.512,-31.512 l -416.008,0 z M 448.004,264 31.996,264 C 14.32,264 0,249.672 0,231.992 L 0,31.996 C 0,14.328 14.32,0 31.996,0 L 448.004,0 C 465.672,0 480,14.328 480,31.996 l 0,199.996 C 480,249.672 465.672,264 448.004,264" /></g></g></g></g></g><g
       id="g3710"><path
         id="path3712"
         style="fill:#000000;fill-opacity:1;fill-rule:nonzero;stroke:none"
         d="m 31.996,19.996 416.008,0 c 6.629,0 12,5.371 12,12 l 0,199.996 c 0,6.629 -5.371,12 -12,12 l -416.008,0 c -6.629,0 -12,-5.371 -12,-12 l 0,-199.996 c 0,-6.629 5.371,-12 12,-12 z m 0,-12 c -13.258,0 -24,10.742 -24,24 l 0,199.996 c 0,13.258 10.742,24 24,24 l 416.008,0 c 13.258,0 24,-10.742 24,-24 l 0,-199.996 c 0,-13.258 -10.742,-24 -24,-24" /><path
         id="path3714"
         style="fill:#000000;fill-opacity:1;fill-rule:nonzero;stroke:none"
         d="m 71.145,156.723 6.05,7.132 c 6.489,-5.492 15.219,-7.527 23.453,-5.46 4.418,1.105 7.11,5.582 6.004,10 -0.82,3.293 -3.562,5.742 -6.922,6.179 l -9.988,1.324 c -9.637,1.282 -16.418,10.129 -15.137,19.758 1.051,7.961 7.364,14.199 15.325,15.168 8.695,1.051 17.472,-1.113 24.668,-6.07 l -5.297,-7.699 c -5.34,3.664 -11.824,5.261 -18.246,4.48 -4.516,-0.543 -7.742,-4.656 -7.196,-9.172 0.457,-3.742 3.379,-6.695 7.106,-7.199 l 10,-1.316 c 9.64,-1.278 16.41,-10.129 15.133,-19.766 -0.946,-7.152 -6.172,-13.004 -13.172,-14.754 -11.172,-2.801 -22.996,-0.043 -31.781,7.395" /><path
         id="path3716"
         style="fill:#000000;fill-opacity:1;fill-rule:nonzero;stroke:none"
         d="m 143.75,148.805 -5.504,0 c -5.457,0 -9.902,4.429 -9.902,9.894 l 0,26.946 -4.395,0 0,7.156 4.395,0 0,13.199 8.808,0 0,-13.199 6.598,0 0,-7.156 -6.598,0 0,-25.848 c 0,-1.524 1.227,-2.746 2.746,-2.746 l 3.852,0" /><path
         id="path3718"
         style="fill:#000000;fill-opacity:1;fill-rule:nonzero;stroke:none"
         d="m 155.844,148.805 0,43.996 8.808,0 0,-4.969 c 5.153,6.375 14.508,7.371 20.883,2.223 0.012,-0.012 0.012,-0.012 0.024,-0.028 l -6.258,-7.707 c -3.633,3.239 -9.188,2.91 -12.426,-0.722 -1.434,-1.61 -2.223,-3.7 -2.223,-5.852 l 0,-26.941" /><path
         id="path3720"
         style="fill:#000000;fill-opacity:1;fill-rule:nonzero;stroke:none"
         d="m 216.352,168.047 -12.649,0 c -3.039,0 -5.5,-2.465 -5.5,-5.492 0,-3.043 2.461,-5.504 5.5,-5.504 l 7.145,0 c 3.039,0 5.504,2.461 5.504,5.504 l 0,5.492 z m 8.8,-19.242 -8.8,0 0,4.539 c -1.543,-2.801 -4.497,-4.539 -7.704,-4.539 l -5.488,0 c -7.297,0 -13.207,5.902 -13.207,13.191 0,7.297 5.91,13.203 13.207,13.203 l 13.192,0 0,4.399 c 0,2.402 -1.731,4.461 -4.094,4.879 -3.117,0.543 -6.301,0.543 -9.406,0 -1.551,-0.278 -2.891,-1.274 -3.59,-2.68 l -6.953,5.5 c 2.086,3.094 5.347,5.207 9.019,5.84 4.117,0.722 8.328,0.722 12.438,0 6.589,-1.149 11.386,-6.856 11.386,-13.539" /><path
         id="path3722"
         style="fill:#000000;fill-opacity:1;fill-rule:nonzero;stroke:none"
         d="m 238.352,148.805 0,48.39 c 0,5.68 3.64,10.735 9.031,12.524 5.558,1.851 11.582,1.851 17.14,0 5.395,-1.793 9.028,-6.844 9.028,-12.524 l 0,-1.648 c 0,-3.938 -2.473,-7.465 -6.192,-8.797 3.719,-1.332 6.192,-4.859 6.192,-8.809 l 0,-17.043 c 0,-6.683 -5.418,-12.093 -12.102,-12.093 l -5.5,0 0,8.246 4.41,0 c 2.43,0 4.395,1.969 4.395,4.394 l 0,16.496 c 0,2.43 -1.965,4.411 -4.395,4.411 l -5.504,0 0,8.25 5.504,0 c 2.43,0 4.395,1.968 4.395,4.394 l 0,2.199 c 0,1.895 -1.211,3.582 -3.008,4.18 -3.762,1.246 -7.82,1.246 -11.594,0 -1.793,-0.598 -3.011,-2.285 -3.011,-4.18 l 0,-48.39" /><path
         id="path3724"
         style="fill:#000000;fill-opacity:1;fill-rule:nonzero;stroke:none"
         d="m 294.453,175.199 18.707,0 c 0,5.164 -4.191,9.352 -9.351,9.352 -5.176,0 -9.356,-4.188 -9.356,-9.352 z m 27.5,-7.703 -27.5,0 0,-1.105 c 0,-3.817 2.328,-7.25 5.875,-8.676 4.902,-1.957 10.481,-0.578 13.914,3.414 l 6.684,-5.727 c -5.883,-6.859 -15.481,-9.214 -23.867,-5.855 -6.891,2.758 -11.411,9.43 -11.411,16.844 l 0,8.808 c 0,10.02 8.141,18.149 18.161,18.149 10.015,0 18.144,-8.129 18.144,-18.149" /><path
         id="path3726"
         style="fill:#000000;fill-opacity:1;fill-rule:nonzero;stroke:none"
         d="m 334.055,148.805 0,43.996 8.793,0 0,-4.969 c 5.152,6.375 14.507,7.371 20.894,2.223 3.488,-2.825 5.512,-7.067 5.512,-11.555 l 0,-29.695 -8.797,0 0,26.941 c 0,4.867 -3.945,8.805 -8.801,8.805 -4.867,0 -8.808,-3.938 -8.808,-8.805 l 0,-26.941" /><g
         transform="matrix(1,0,0,-1,0,264)"
         id="g3728"><path
           id="path3730"
           style="fill:none;stroke:#000000;stroke-width:26.39562225;stroke-linecap:butt;stroke-linejoin:miter;stroke-miterlimit:10;stroke-dasharray:none;stroke-opacity:1"
           d="m 395.648,95.402 0,-8.797" /></g><path
         id="path3732"
         style="fill:#000000;fill-opacity:1;fill-rule:nonzero;stroke:none"
         d="m 83.332,60.645 6.203,6.234 c 5.133,-5.094 12.766,-6.746 19.547,-4.199 2.277,0.855 3.426,3.39 2.574,5.656 -0.613,1.633 -2.113,2.746 -3.851,2.855 l -9.34,0.579 c -7.277,0.46 -12.817,6.726 -12.352,14 0.356,5.789 4.45,10.656 10.094,12.015 8.191,1.969 16.836,0.039 23.43,-5.211 l -5.492,-6.879 c -4.461,3.567 -10.325,4.868 -15.891,3.535 -2.363,-0.574 -3.816,-2.941 -3.25,-5.304 0.449,-1.883 2.078,-3.25 4.004,-3.371 l 9.355,-0.578 c 7.27,-0.461 12.797,-6.731 12.348,-14.004 -0.328,-5.196 -3.672,-9.703 -8.543,-11.532 -9.996,-3.75 -21.262,-1.332 -28.836,6.204" /><path
         id="path3734"
         style="fill:#000000;fill-opacity:1;fill-rule:nonzero;stroke:none"
         d="m 164.566,60.195 c -6.98,-8.41 -19.472,-9.57 -27.882,-2.578 -4.528,3.762 -7.149,9.34 -7.149,15.238 l 0,5.489 c 0,10.941 8.863,19.801 19.801,19.801 5.887,0 11.469,-2.614 15.23,-7.153 l -6.769,-5.613 c -3.883,4.672 -10.809,5.316 -15.492,1.434 -2.516,-2.09 -3.973,-5.196 -3.973,-8.469 l 0,-5.489 c 0,-6.085 4.922,-11.007 11.004,-11.007 3.273,0 6.367,1.457 8.461,3.972" /><path
         id="path3736"
         style="fill:#000000;fill-opacity:1;fill-rule:nonzero;stroke:none"
         d="m 173.371,53.59 0,61.609 8.797,0 0,-22.57 c 5.148,6.379 14.504,7.375 20.883,2.211 3.488,-2.813 5.519,-7.055 5.519,-11.539 l 0,-29.711 -8.804,0 0,26.953 c 0,4.871 -3.938,8.809 -8.797,8.809 -4.864,0 -8.801,-3.938 -8.801,-8.809 l 0,-26.953" /><path
         id="path3738"
         style="fill:#000000;fill-opacity:1;fill-rule:nonzero;stroke:none"
         d="m 249.266,106.391 -8.797,0 0,8.804 8.797,0 0,-8.804 z m -17.602,0 -8.793,0 0,8.804 8.793,0 0,-8.804 z m 13.203,-33.536 -12.656,0 c -3.027,0 -5.488,-2.476 -5.488,-5.511 0,-3.035 2.461,-5.496 5.488,-5.496 l 7.156,0 c 3.043,0 5.5,2.461 5.5,5.496 l 0,5.511 z m 8.809,-19.265 -8.809,0 0,4.551 c -1.551,-2.797 -4.496,-4.551 -7.699,-4.551 l -5.504,0 c -7.285,0 -13.199,5.918 -13.199,13.203 0,7.293 5.914,13.203 13.199,13.203 l 13.203,0 0,4.399 c 0,2.406 -1.73,4.464 -4.101,4.875 -3.106,0.55 -6.289,0.55 -9.407,0 -1.543,-0.27 -2.875,-1.266 -3.582,-2.676 l -6.953,5.504 c 2.086,3.093 5.352,5.203 9.024,5.847 4.113,0.711 8.328,0.711 12.441,0 6.582,-1.156 11.387,-6.867 11.387,-13.55" /><path
         id="path3740"
         style="fill:#000000;fill-opacity:1;fill-rule:nonzero;stroke:none"
         d="m 292.168,70.641 0,9.902 c 0,4.871 -3.945,8.809 -8.797,8.809 -4.867,0 -8.805,-3.938 -8.805,-8.809 l 0,-9.902 c 0,-4.852 3.938,-8.793 8.805,-8.793 4.852,0 8.797,3.941 8.797,8.793 z m 8.793,-17.051 -8.793,0 0,4.976 c -5.164,-6.375 -14.504,-7.371 -20.887,-2.222 -3.484,2.828 -5.511,7.07 -5.511,11.554 l 0,15.403 c 0,8.191 6.644,14.844 14.847,14.844 4.496,0 8.731,-2.024 11.551,-5.516 l 0,22.57 8.793,0" /><path
         id="path3742"
         style="fill:#000000;fill-opacity:1;fill-rule:nonzero;stroke:none"
         d="m 321.867,79.996 18.703,0 c 0,5.164 -4.187,9.356 -9.347,9.356 -5.164,0 -9.356,-4.192 -9.356,-9.356 z m 27.5,-7.699 -27.5,0 0,-1.098 c 0,-3.824 2.328,-7.261 5.883,-8.683 4.879,-1.957 10.484,-0.59 13.918,3.414 l 6.668,-5.735 c -5.883,-6.859 -15.473,-9.207 -23.852,-5.851 -6.894,2.758 -11.414,9.429 -11.414,16.855 l 0,8.797 c 0,10.02 8.129,18.149 18.153,18.149 10.019,0 18.144,-8.129 18.144,-18.149" /><path
         id="path3744"
         style="fill:#000000;fill-opacity:1;fill-rule:nonzero;stroke:none"
         d="m 361.465,53.59 0,44.008 8.805,0 0,-4.969 c 5.156,6.379 14.507,7.375 20.882,2.211 3.481,-2.813 5.516,-7.055 5.516,-11.539 l 0,-29.711 -8.805,0 0,26.953 c 0,4.871 -3.929,8.809 -8.797,8.809 -4.859,0 -8.796,-3.938 -8.796,-8.809 l 0,-26.953" /></g></g></svg>