<?xml version="1.0" encoding="UTF-8" standalone="no"?>
<svg
   xmlns:dc="http://purl.org/dc/elements/1.1/"
   xmlns:cc="http://creativecommons.org/ns#"
   xmlns:rdf="http://www.w3.org/1999/02/22-rdf-syntax-ns#"
   xmlns:svg="http://www.w3.org/2000/svg"
   xmlns="http://www.w3.org/2000/svg"
   viewBox="0 0 600 450.005"
   height="450.005"
   width="600"
   xml:space="preserve"
   version="1.1"
   id="svg8981"><metadata
     id="metadata8987"><rdf:RDF><cc:Work
         rdf:about=""><dc:format>image/svg+xml</dc:format><dc:type
           rdf:resource="http://purl.org/dc/dcmitype/StillImage" /><dc:title></dc:title></cc:Work></rdf:RDF></metadata><defs
     id="defs8985" /><g
     transform="matrix(1.25,0,0,-1.25,0,450.005)"
     id="g8989"><g
       id="g8991"><path
         id="path8993"
         style="fill:#ffffff;fill-opacity:1;fill-rule:nonzero;stroke:none"
         d="m 31.996,359.774 c -17.504,0 -31.754,-14.25 -31.754,-31.766 L 0.242,32 c 0,-17.508 14.25,-31.758 31.754,-31.758 l 416.008,0 c 17.516,0 31.766,14.25 31.766,31.758 l 0,296.008 c 0,17.516 -14.25,31.766 -31.766,31.766" /><path
         id="path8995"
         style="fill:#000000;fill-opacity:1;fill-rule:nonzero;stroke:none"
         d="M 31.996,0.469 C 14.613,0.469 0.477,14.613 0.477,32 l 0,296.008 c 0,17.383 14.136,31.523 31.519,31.523 l 416.008,0 c 17.383,0 31.519,-14.14 31.519,-31.523 l 0,-296.008 c 0,-17.387 -14.136,-31.531 -31.519,-31.531 l -416.008,0 z m 416.008,359.535 -416.008,0 C 14.328,360.004 0,345.676 0,328.008 L 0,32 C 0,14.328 14.328,0 31.996,0 L 448.004,0 C 465.672,0 480,14.328 480,32 l 0,296.008 c 0,17.668 -14.328,31.996 -31.996,31.996" /><path
         id="path8997"
         style="fill:#000000;fill-opacity:1;fill-rule:nonzero;stroke:none"
         d="m 31.996,352.012 c -13.25,0 -23.992,-10.746 -23.992,-24.004 L 8.004,32 C 8.004,18.75 18.746,7.996 31.996,7.996 l 416.008,0 c 13.25,0 24.004,10.754 24.004,24.004 l 0,296.008 c 0,13.258 -10.754,24.004 -24.004,24.004 l -416.008,0 z m 0,-12.008 416.008,0 c 6.629,0 12.004,-5.367 12.004,-11.996 l 0,-296.008 c 0,-6.633 -5.375,-11.996 -12.004,-11.996 l -416.008,0 C 25.379,20.004 20,25.367 20,32 l 0,296.008 c 0,6.629 5.379,11.996 11.996,11.996 z" /><path
         id="path8999"
         style="fill:#000000;fill-opacity:1;fill-rule:nonzero;stroke:none"
         d="m 203.723,303.598 c -8.727,0 -16.45,-5.676 -19.032,-14.024 l -14.464,-46.707 c -23.207,4.707 -46.508,-7.586 -55.75,-29.394 -10.707,-25.328 1.136,-54.543 26.453,-65.262 25.328,-10.73 54.539,1.109 65.258,26.438 10.718,25.328 -1.122,54.539 -26.45,65.257 l 3.965,12.782 58.859,-65.289 c 1.899,-2.098 4.575,-3.309 7.407,-3.309 l 20.918,0 c 0.383,-1.848 0.871,-3.672 1.449,-5.465 8.531,-26.144 36.629,-40.434 62.773,-31.894 26.145,8.519 40.43,36.613 31.903,62.757 -8.52,26.145 -36.614,40.438 -62.758,31.914 l -14.453,32.325 3.746,9.961 11.199,0 0,9.953 -42.336,0 c -1.14,0 -2.156,-0.782 -2.414,-1.903 -0.328,-1.332 0.496,-2.683 1.836,-2.996 l 21.074,-5.054 -3.746,-9.961 -88.953,0 4,12.902 c 1.297,4.176 5.148,7.012 9.516,7.012 l 16.375,0 0,9.957 -16.375,0 z m -16.598,-39.828 88.309,0 -25.957,-69.176 -62.352,69.176 z m 97.703,-3.321 10.317,-23.062 c -15.61,-8.832 -25.262,-25.406 -25.262,-43.336 l -9.957,0 24.902,66.398 z M 160.574,233.895 c 2.215,-0.012 4.449,-0.211 6.688,-0.61 l -11.676,-37.754 c -0.805,-2.625 0.648,-5.414 3.285,-6.23 2.625,-0.805 5.402,0.66 6.215,3.285 l 11.691,37.754 c 20.043,-9.086 28.934,-32.684 19.848,-52.715 -9.074,-20.043 -32.687,-28.934 -52.73,-19.848 -20.036,9.075 -28.938,32.688 -19.848,52.735 6.574,14.496 21.015,23.488 36.527,23.383 z m 155.696,-0.133 c 18.453,1.601 36.117,-9.906 41.601,-28.356 6.262,-21.093 -5.754,-43.281 -26.844,-49.535 -21.093,-6.262 -43.273,5.75 -49.535,26.844 -0.129,0.457 -0.269,0.91 -0.387,1.375 l 41.067,0 c 2.762,0 4.973,2.246 4.973,4.988 0,0.699 -0.141,1.395 -0.426,2.028 l -18.383,41.144 c 2.637,0.777 5.297,1.285 7.934,1.512 z m -17.04,-5.516 15.25,-34.195 -34.64,0 c 0,14.012 7.363,26.992 19.39,34.195 z" /><path
         id="path9001"
         style="fill:#000000;fill-opacity:1;fill-rule:nonzero;stroke:none"
         d="m 196.285,96.066 0,7.336 -9.5,0 0,6.868 c 0,3.48 1.695,5.546 5.27,5.546 l 4.23,0 0,8.184 -6.019,0 c -8.934,0 -13.071,-6.394 -13.071,-13.262 l 0,-7.336 -5.457,0 0,-7.336 5.457,0 0,-39.5 9.59,0 0,39.5 9.5,0 z" /><path
         id="path9003"
         style="fill:#000000;fill-opacity:1;fill-rule:nonzero;stroke:none"
         d="m 240.031,100.301 c -3.289,3.289 -6.769,4.512 -11.379,4.512 -5.359,0 -10.254,-2.352 -12.699,-5.735 l 0,5.172 -9.402,0 0,-47.684 9.594,0 0,28.965 c 0,6.586 4.324,10.723 9.496,10.723 3.293,0 4.988,-1.035 7.148,-3.195 l 7.242,7.242 z" /><path
         id="path9005"
         style="fill:#000000;fill-opacity:1;fill-rule:nonzero;stroke:none"
         d="m 285.695,77.633 0,4.23 c 0,13.547 -7.429,22.95 -20.222,22.95 -12.227,0 -20.219,-8.934 -20.219,-24.36 0,-18.152 9.496,-24.453 21.441,-24.453 8.371,0 12.981,2.539 17.871,7.43 l -6.113,5.738 c -3.387,-3.387 -6.207,-4.891 -11.57,-4.891 -7.805,0 -12.133,5.172 -12.133,13.356 l 30.945,0 z m -9.5,6.676 -21.445,0 c 0.098,2.918 0.285,4.328 1.223,6.492 1.507,3.574 4.988,6.019 9.5,6.019 4.515,0 7.902,-2.445 9.406,-6.019 0.941,-2.164 1.223,-3.574 1.316,-6.492 z" /><path
         id="path9007"
         style="fill:#000000;fill-opacity:1;fill-rule:nonzero;stroke:none"
         d="m 308.273,113.656 0,10.157 -10.156,0 0,-10.157 10.156,0 z m -0.281,-57.09 0,47.684 -9.594,0 0,-47.684 9.594,0 z" /></g></g></svg>