<?xml version="1.0" encoding="UTF-8" standalone="no"?>
<svg
   xmlns:dc="http://purl.org/dc/elements/1.1/"
   xmlns:cc="http://creativecommons.org/ns#"
   xmlns:rdf="http://www.w3.org/1999/02/22-rdf-syntax-ns#"
   xmlns:svg="http://www.w3.org/2000/svg"
   xmlns="http://www.w3.org/2000/svg"
   viewBox="0 0 600 330"
   height="330"
   width="600"
   xml:space="preserve"
   version="1.1"
   id="svg4504"><metadata
     id="metadata4510"><rdf:RDF><cc:Work
         rdf:about=""><dc:format>image/svg+xml</dc:format><dc:type
           rdf:resource="http://purl.org/dc/dcmitype/StillImage" /><dc:title></dc:title></cc:Work></rdf:RDF></metadata><defs
     id="defs4508"><clipPath
       id="clipPath4522"
       clipPathUnits="userSpaceOnUse"><path
         id="path4524"
         d="M 0,0 480,0 480,264 0,264 0,0 Z" /></clipPath></defs><g
     transform="matrix(1.25,0,0,-1.25,0,330)"
     id="g4512"><g
       id="g4514"><g
         id="g4516"><g
           id="g4518"><g
             clip-path="url(#clipPath4522)"
             id="g4520"><g
               id="g4526"><path
                 id="path4528"
                 style="fill:#ffffff;fill-opacity:1;fill-rule:nonzero;stroke:none"
                 d="m 31.996,263.77 c -17.512,0 -31.754,-14.254 -31.754,-31.766 l 0,-199.996 C 0.242,14.492 14.484,0.25 31.996,0.25 l 416.008,0 c 17.512,0 31.754,14.242 31.754,31.758 l 0,199.996 c 0,17.512 -14.242,31.766 -31.754,31.766" /><path
                 id="path4530"
                 style="fill:#000000;fill-opacity:1;fill-rule:nonzero;stroke:none"
                 d="M 31.996,0.48 C 14.613,0.48 0.48,14.625 0.48,32.008 l 0,199.996 c 0,17.383 14.133,31.527 31.516,31.527 l 416.008,0 c 17.383,0 31.516,-14.144 31.516,-31.527 l 0,-199.996 C 479.52,14.625 465.387,0.48 448.004,0.48 l -416.008,0 z m 416.008,263.532 -416.008,0 C 14.32,264.012 0,249.68 0,232.004 L 0,32.008 C 0,14.34 14.32,0 31.996,0 L 448.004,0 C 465.672,0 480,14.34 480,32.008 l 0,199.996 c 0,17.676 -14.328,32.008 -31.996,32.008" /></g></g></g></g><path
         id="path4532"
         style="fill:#000000;fill-opacity:1;fill-rule:nonzero;stroke:none"
         d="m 31.996,20.008 416.008,0 c 6.629,0 12,5.371 12,12 l 0,199.996 c 0,6.629 -5.371,12 -12,12 l -416.008,0 c -6.629,0 -12,-5.371 -12,-12 l 0,-199.996 c 0,-6.629 5.371,-12 12,-12 z m 0,-12 c -13.258,0 -24,10.742 -24,24 l 0,199.996 c 0,13.258 10.742,24 24,24 l 416.008,0 c 13.258,0 24,-10.742 24,-24 l 0,-199.996 c 0,-13.258 -10.742,-24 -24,-24" /><path
         id="path4534"
         style="fill:#000000;fill-opacity:1;fill-rule:nonzero;stroke:none"
         d="m 162.418,206.148 c 0,-8.312 -6.738,-15.043 -15.043,-15.043 -8.305,0 -15.027,6.731 -15.027,15.043 0,8.301 6.722,15.043 15.027,15.043 8.305,0 15.043,-6.742 15.043,-15.043 z m -26.316,-80.832 0,11.282 -37.598,0 c 0,7.261 5.894,13.148 13.16,13.148 l 24.438,0 0,22.563 c 0,7.273 5.886,13.164 13.152,13.164 7.273,0 13.164,-5.891 13.164,-13.164 l 0,-50.754 c 0,-7.262 -5.891,-13.153 -13.164,-13.153 l -42.699,0 c -1.727,0 -3.223,-1.179 -3.653,-2.84 L 89.938,53.977 C 87.961,46.113 80.105,41.23 72.188,42.945 l 15.183,70.508 c 1.484,6.922 7.613,11.863 14.699,11.863 l 34.032,0 z m -24.36,-24.441 7.938,0 c -7.27,-19.445 2.601,-41.105 22.058,-48.371 19.446,-7.266 41.106,2.609 48.371,22.055 6.993,18.711 -1.871,39.621 -20.171,47.617 l 0,8.07 c 23.48,-8.301 35.792,-34.07 27.492,-57.562 -8.305,-23.489 -34.086,-35.801 -57.567,-27.496 -22.773,8.05 -35.168,32.593 -28.121,55.687" /><path
         id="path4536"
         style="fill:#000000;fill-opacity:1;fill-rule:nonzero;stroke:none"
         d="m 404.621,86.148 -3.652,0 0,24 3.652,0 0,-24 z m -9.238,0 -3.633,0 0,24 3.633,0 0,-24 z m -9.227,0 -3.636,0 0,24 3.636,0 0,-24 z m -9.218,0 -3.633,0 0,24 3.633,0 0,-24 z m -9.231,0 -3.648,0 0,24 3.648,0 0,-24 z m -9.215,0 -3.656,0 0,24 3.656,0 0,-24 z m -9.242,0 -3.633,0 0,24 3.633,0 0,-24 z m -9.227,0 -3.64,0 0,24 3.64,0 0,-24 z m -9.218,0 -3.645,0 0,24 3.645,0 0,-24 z m -9.227,0 -3.652,0 0,24 3.652,0 0,-24 z m -9.23,0 -3.649,0 0,24 3.649,0 0,-24 z m -9.223,0 -3.652,0 0,24 3.652,0 0,-24 z m -20.816,0 -3.442,0 0,3.43 3.442,0 0,-3.43 z m -15.028,0 0,17.145 3.442,0 0,-1.934 c 2.004,2.485 5.656,2.871 8.144,0.868 l -2.429,-3.012 c -1.418,1.254 -3.594,1.137 -4.848,-0.277 -0.563,-0.641 -0.867,-1.45 -0.867,-2.282 l 0,-10.508 -3.442,0 z m -23.597,0 0,24 3.433,0 10.938,-17.136 0,17.136 3.652,0 0,-24 -3.434,0 -10.941,17.145 0,-17.145" /><path
         id="path4538"
         style="fill:#000000;fill-opacity:1;fill-rule:nonzero;stroke:none"
         d="m 267.848,156.531 0,10.875 c 0,1.914 -0.5,3.524 -1.809,4.797 -1.008,0.977 -2.551,1.543 -4.301,1.543 -2.242,0 -3.957,-0.801 -5.336,-2.48 -1.074,1.64 -2.714,2.48 -4.832,2.48 -1.711,0 -3.39,-0.668 -4.531,-1.906 l 0,1.707 -3.355,0 0,-17.016 3.425,0 0,10.375 c 0,2.617 1.61,3.785 3.52,3.785 1.918,0 3.422,-1.14 3.422,-3.785 l 0,-10.375 3.429,0 0,10.539 c 0,2.453 1.676,3.621 3.52,3.621 1.914,0 3.426,-1.14 3.426,-3.785 l 0,-10.375 3.422,0 z" /><path
         id="path4540"
         style="fill:#000000;fill-opacity:1;fill-rule:nonzero;stroke:none"
         d="m 276.645,176.902 0,3.629 -3.625,0 0,-3.629 3.625,0 z m -0.106,-20.371 0,17.016 -3.422,0 0,-17.016 3.422,0 z" /><path
         id="path4542"
         style="fill:#000000;fill-opacity:1;fill-rule:nonzero;stroke:none"
         d="m 289.082,156.531 0,2.918 -1.406,0 c -1.274,0 -1.879,0.739 -1.879,1.985 l 0,9.191 3.285,0 0,2.621 -3.285,0 0,5.168 -3.426,0 0,-5.168 -1.945,0 0,-2.621 1.945,0 0,-9.363 c 0,-2.45 1.477,-4.731 4.668,-4.731 l 2.043,0 z" /><path
         id="path4544"
         style="fill:#000000;fill-opacity:1;fill-rule:nonzero;stroke:none"
         d="m 260.258,138.051 c 0,4.125 -2.965,7.191 -7.59,7.191 l -8.984,0 0,-23.703 3.589,0 0,9.324 5.395,0 c 4.625,0 7.59,3.059 7.59,7.188 z m -3.598,0 c 0,-2.496 -1.699,-3.926 -4.195,-3.926 l -5.192,0 0,7.887 5.192,0 c 2.496,0 4.195,-1.465 4.195,-3.961 z" /><path
         id="path4546"
         style="fill:#000000;fill-opacity:1;fill-rule:nonzero;stroke:none"
         d="m 276.629,121.539 0,11.285 c 0,3.824 -2.324,5.789 -6.957,5.789 -2.793,0 -4.457,-0.562 -6.055,-2.425 l 2.231,-2.098 c 0.929,1.195 1.828,1.629 3.691,1.629 2.629,0 3.695,-1.031 3.695,-3.164 l 0,-1.196 -4.457,0 c -3.863,0 -5.832,-2.035 -5.832,-4.855 0,-1.438 0.469,-2.734 1.336,-3.633 1.031,-1.035 2.426,-1.531 4.528,-1.531 2.093,0 3.261,0.496 4.492,1.73 l 0,-1.531 3.328,0 z m -3.395,6.094 c 0,-1.199 -0.234,-1.996 -0.73,-2.496 -0.902,-0.867 -1.863,-0.965 -3.164,-0.965 -2.129,0 -3.094,0.867 -3.094,2.394 0,1.528 1.031,2.434 3.027,2.434 l 3.961,0 0,-1.367 z" /><path
         id="path4548"
         style="fill:#000000;fill-opacity:1;fill-rule:nonzero;stroke:none"
         d="m 293.688,137.02 c -1.168,1.168 -2.399,1.593 -4.036,1.593 -1.898,0 -3.625,-0.832 -4.492,-2.027 l 0,1.828 -3.328,0 0,-16.875 3.398,0 0,10.254 c 0,2.332 1.528,3.789 3.356,3.789 1.168,0 1.769,-0.363 2.535,-1.129 l 2.567,2.567 z" /><path
         id="path4550"
         style="fill:#000000;fill-opacity:1;fill-rule:nonzero;stroke:none"
         d="m 308.809,121.539 -6.594,10.254 5.859,6.621 -4.125,0 -6.554,-7.785 0,14.613 -3.399,0 0,-23.703 3.399,0 0,4.965 2.496,2.82 4.722,-7.785 4.196,0 z" /><path
         id="path4552"
         style="fill:#000000;fill-opacity:1;fill-rule:nonzero;stroke:none"
         d="m 323.125,121.539 0,11.285 c 0,3.824 -2.336,5.789 -6.965,5.789 -2.793,0 -4.457,-0.562 -6.058,-2.425 l 2.234,-2.098 c 0.93,1.195 1.828,1.629 3.695,1.629 2.625,0 3.692,-1.031 3.692,-3.164 l 0,-1.196 -4.457,0 c -3.864,0 -5.825,-2.035 -5.825,-4.855 0,-1.438 0.461,-2.734 1.329,-3.633 1.035,-1.035 2.433,-1.531 4.531,-1.531 2.097,0 3.258,0.496 4.492,1.73 l 0,-1.531 3.332,0 z m -3.402,6.094 c 0,-1.199 -0.231,-1.996 -0.731,-2.496 -0.898,-0.867 -1.863,-0.965 -3.164,-0.965 -2.129,0 -3.094,0.867 -3.094,2.394 0,1.528 1.032,2.434 3.028,2.434 l 3.961,0 0,-1.367 z" /><path
         id="path4554"
         style="fill:#000000;fill-opacity:1;fill-rule:nonzero;stroke:none"
         d="m 339.441,121.539 0,16.875 -3.398,0 0,-10.281 c 0,-2.598 -1.602,-3.762 -3.492,-3.762 -1.899,0 -3.399,1.129 -3.399,3.762 l 0,10.281 -3.394,0 0,-10.781 c 0,-1.899 0.398,-3.496 1.695,-4.762 1,-0.965 2.43,-1.531 4.16,-1.531 1.699,0 3.332,0.633 4.492,1.898 l 0,-1.699 3.336,0 z" /><path
         id="path4556"
         style="fill:#000000;fill-opacity:1;fill-rule:nonzero;stroke:none"
         d="m 355.641,126.699 c 0,2.996 -1.864,4.496 -5.02,4.758 l -2.668,0.238 c -1.797,0.164 -2.328,0.93 -2.328,1.926 0,1.266 1.035,2.168 3.063,2.168 1.597,0 3.093,-0.336 4.16,-1.234 l 2.132,2.164 c -1.566,1.367 -3.726,1.894 -6.257,1.894 -3.528,0 -6.356,-1.863 -6.356,-5.156 0,-2.965 1.824,-4.395 4.988,-4.656 l 2.7,-0.235 c 1.629,-0.136 2.257,-0.867 2.257,-2 0,-1.601 -1.624,-2.332 -3.687,-2.332 -1.668,0 -3.5,0.371 -4.867,1.766 l -2.227,-2.23 c 2,-1.961 4.324,-2.43 7.094,-2.43 4.023,0 7.016,1.828 7.016,5.359 z" /><path
         id="path4558"
         style="fill:#000000;fill-opacity:1;fill-rule:nonzero;stroke:none"
         d="m 381.512,138.414 -3.629,0 -3.262,-11.883 -3.898,11.883 -2.629,0 -3.926,-11.883 -3.266,11.883 -3.59,0 5.227,-16.875 2.93,0 3.926,11.785 3.96,-11.785 2.895,0 5.262,16.875 z" /><path
         id="path4560"
         style="fill:#000000;fill-opacity:1;fill-rule:nonzero;stroke:none"
         d="m 397.895,129 0,1.492 c 0,4.793 -2.633,8.121 -7.153,8.121 -4.332,0 -7.164,-3.16 -7.164,-8.617 0,-6.422 3.363,-8.656 7.59,-8.656 2.965,0 4.594,0.898 6.328,2.629 L 395.332,126 c -1.199,-1.195 -2.195,-1.73 -4.094,-1.73 -2.765,0 -4.297,1.828 -4.297,4.73 l 10.954,0 z m -3.364,2.359 -7.59,0 c 0.036,1.032 0.102,1.528 0.434,2.297 0.535,1.266 1.766,2.133 3.367,2.133 1.59,0 2.793,-0.867 3.324,-2.133 0.329,-0.769 0.434,-1.265 0.465,-2.297 z" /><path
         id="path4562"
         style="fill:#000000;fill-opacity:1;fill-rule:nonzero;stroke:none"
         d="m 404.312,141.742 0,3.598 -3.593,0 0,-3.598 3.593,0 z m -0.101,-20.203 0,16.875 -3.395,0 0,-16.875 3.395,0 z" /><path
         id="path4564"
         style="fill:#000000;fill-opacity:1;fill-rule:nonzero;stroke:none"
         d="m 421.25,126.699 c 0,2.996 -1.863,4.496 -5.027,4.758 l -2.661,0.238 c -1.8,0.164 -2.332,0.93 -2.332,1.926 0,1.266 1.032,2.168 3.063,2.168 1.594,0 3.094,-0.336 4.16,-1.234 l 2.129,2.164 c -1.566,1.367 -3.727,1.894 -6.258,1.894 -3.527,0 -6.359,-1.863 -6.359,-5.156 0,-2.965 1.836,-4.395 4.992,-4.656 l 2.703,-0.235 c 1.629,-0.136 2.262,-0.867 2.262,-2 0,-1.601 -1.637,-2.332 -3.699,-2.332 -1.661,0 -3.493,0.371 -4.856,1.766 l -2.234,-2.23 c 2,-1.961 4.332,-2.43 7.09,-2.43 4.031,0 7.027,1.828 7.027,5.359 z" /></g></g></svg>