<?xml version="1.0" encoding="UTF-8" standalone="no"?>
<svg xmlns="http://www.w3.org/2000/svg" xml:space="preserve" width="600" height="330">
  <defs>
    <clipPath id="a" clipPathUnits="userSpaceOnUse">
      <path d="M0 0h480v264H0V0Z"/>
    </clipPath>
  </defs>
  <g clip-path="url(#a)" transform="matrix(1.25 0 0 -1.25 0 330)">
    <path fill="#fff" d="M31.996 263.77c-17.512 0-31.754-14.254-31.754-31.766V32.008C.242 14.492 14.484.25 31.996.25h416.008c17.512 0 31.754 14.242 31.754 31.758v199.996c0 17.512-14.242 31.766-31.754 31.766"/>
    <path d="M31.996.48C14.613.48.48 14.625.48 32.008v199.996c0 17.383 14.133 31.527 31.516 31.527h416.008c17.383 0 31.516-14.144 31.516-31.527V32.008C479.52 14.625 465.387.48 448.004.48H31.996zm416.008 263.532H31.996C14.32 264.012 0 249.68 0 232.004V32.008C0 14.34 14.32 0 31.996 0h416.008C465.672 0 480 14.34 480 32.008v199.996c0 17.676-14.328 32.008-31.996 32.008"/>
  </g>
  <path d="M39.995 304.99h520.01c8.28625 0 15-6.71375 15-15V39.995c0-8.28625-6.71375-15-15-15H39.995c-8.28625 0-15 6.71375-15 15V289.99c0 8.28625 6.71375 15 15 15zm0 15c-16.5725 0-30-13.4275-30-30V39.995c0-16.5725 13.4275-30 30-30h520.01c16.5725 0 30 13.4275 30 30V289.99c0 16.5725-13.4275 30-30 30"/>
  <path d="M334.63375 67.275c0 10.9375-8.8575 19.8-19.785 19.8-10.9375 0-19.8-8.8625-19.8-19.8 0-10.9275 8.8625-19.785 19.8-19.785 10.9275 0 19.785 8.8575 19.785 19.785zM300 173.6575v-14.85375h-49.4725c0-9.55625 7.75375-17.31 17.31375-17.31H300v-29.6825c0-9.575 7.75375-17.32875 17.31-17.32875 9.575 0 17.32375 7.75375 17.32375 17.32875v66.7825c0 9.57-7.74875 17.32375-17.32375 17.32375h-56.1825c-2.27 0-4.2525 1.52875-4.8 3.73125l-17.08 67.87625c-2.5975 10.35125-12.92 16.7625-23.35375 14.52125l19.975-92.77375c1.9725-9.12125 10.025-15.615 19.35125-15.615H300zm-32.05125 32.14375h10.445c-9.55625 25.6 3.4325 54.10625 29.0325 63.66625 25.59625 9.55625 54.0925-3.4325 63.6475-29.0275 9.205-24.63-2.46-52.13875-26.5375-62.65625v-10.635C375.44 178.07125 391.64 211.9975 380.7175 242.91c-10.9425 30.9175-44.8625 47.11-75.76625 36.18125-29.96125-10.58-46.275-42.895-37.0025-73.29"/>
</svg>