<?xml version="1.0" encoding="UTF-8" standalone="no"?>
<svg
   xmlns:dc="http://purl.org/dc/elements/1.1/"
   xmlns:cc="http://creativecommons.org/ns#"
   xmlns:rdf="http://www.w3.org/1999/02/22-rdf-syntax-ns#"
   xmlns:svg="http://www.w3.org/2000/svg"
   xmlns="http://www.w3.org/2000/svg"
   viewBox="0 0 600 330"
   height="330"
   width="600"
   xml:space="preserve"
   version="1.1"
   id="svg6308"><metadata
     id="metadata6314"><rdf:RDF><cc:Work
         rdf:about=""><dc:format>image/svg+xml</dc:format><dc:type
           rdf:resource="http://purl.org/dc/dcmitype/StillImage" /><dc:title></dc:title></cc:Work></rdf:RDF></metadata><defs
     id="defs6312"><clipPath
       id="clipPath6326"
       clipPathUnits="userSpaceOnUse"><path
         id="path6328"
         d="M 0,0 480,0 480,264 0,264 0,0 Z" /></clipPath></defs><g
     transform="matrix(1.25,0,0,-1.25,0,330)"
     id="g6316"><g
       id="g6318"><g
         id="g6320"><g
           id="g6322"><g
             clip-path="url(#clipPath6326)"
             id="g6324"><g
               id="g6330"><path
                 id="path6332"
                 style="fill:#ffffff;fill-opacity:1;fill-rule:nonzero;stroke:none"
                 d="m 31.996,263.758 c -17.512,0 -31.754,-14.25 -31.754,-31.766 l 0,-199.996 C 0.242,14.484 14.484,0.242 31.996,0.242 l 416.008,0 c 17.512,0 31.754,14.242 31.754,31.754 l 0,199.996 c 0,17.516 -14.242,31.766 -31.754,31.766" /><path
                 id="path6334"
                 style="fill:#000000;fill-opacity:1;fill-rule:nonzero;stroke:none"
                 d="M 31.996,0.469 C 14.613,0.469 0.48,14.613 0.48,31.996 l 0,199.996 c 0,17.383 14.133,31.528 31.516,31.528 l 416.008,0 c 17.383,0 31.516,-14.145 31.516,-31.528 l 0,-199.996 c 0,-17.383 -14.133,-31.527 -31.516,-31.527 l -416.008,0 z M 448.004,264 31.996,264 C 14.32,264 0,249.672 0,231.992 L 0,31.996 C 0,14.328 14.32,0 31.996,0 L 448.004,0 C 465.672,0 480,14.328 480,31.996 l 0,199.996 C 480,249.672 465.672,264 448.004,264" /></g></g></g></g><path
         id="path6336"
         style="fill:#000000;fill-opacity:1;fill-rule:nonzero;stroke:none"
         d="m 31.996,19.996 416.008,0 c 6.629,0 12,5.371 12,12 l 0,199.996 c 0,6.629 -5.371,12 -12,12 l -416.008,0 c -6.629,0 -12,-5.371 -12,-12 l 0,-199.996 c 0,-6.629 5.371,-12 12,-12 z m 0,-12 c -13.258,0 -24,10.742 -24,24 l 0,199.996 c 0,13.258 10.742,24 24,24 l 416.008,0 c 13.258,0 24,-10.742 24,-24 l 0,-199.996 c 0,-13.258 -10.742,-24 -24,-24" /><path
         id="path6338"
         style="fill:#000000;fill-opacity:1;fill-rule:nonzero;stroke:none"
         d="m 370.25,99.871 2.82,2.836 c 2.332,-2.332 5.809,-3.074 8.883,-1.914 1.031,0.383 1.567,1.539 1.172,2.57 -0.273,0.742 -0.961,1.246 -1.75,1.301 l -4.254,0.262 c -3.305,0.207 -5.82,3.051 -5.613,6.355 0.164,2.637 2.035,4.848 4.594,5.469 3.73,0.887 7.656,0.02 10.644,-2.371 l -2.484,-3.129 c -2.035,1.617 -4.692,2.219 -7.231,1.605 -1.07,-0.25 -1.726,-1.332 -1.476,-2.406 0.207,-0.851 0.953,-1.476 1.828,-1.531 l 4.242,-0.262 c 3.305,-0.207 5.82,-3.062 5.613,-6.367 -0.144,-2.363 -1.664,-4.418 -3.883,-5.238 -4.539,-1.707 -9.66,-0.602 -13.105,2.82 z m -5,20.797 -4.004,0 0,3.992 4.004,0 0,-3.992 z m 0,-24 -4.004,0 0,19.996 4.004,0 0,-19.996 z m -21.996,12 8.5,0 c 0,2.34 -1.906,4.242 -4.258,4.242 -2.34,0 -4.242,-1.902 -4.242,-4.242 z m 12.5,-3.5 -12.5,0 0,-0.504 c 0,-1.738 1.047,-3.305 2.668,-3.949 2.219,-0.887 4.769,-0.262 6.324,1.555 l 3.039,-2.606 c -2.68,-3.117 -7.035,-4.187 -10.84,-2.656 -3.14,1.246 -5.195,4.285 -5.195,7.656 l 0,4.004 c 0,4.551 3.695,8.246 8.246,8.246 4.563,0 8.258,-3.695 8.258,-8.246 l 0,-3.5 z m -41.25,-8.5 -6.258,19.996 4.258,0 3.75,-14.004 4.496,14.004 3,0 4.504,-14.004 3.754,14.004 4.242,0 -6.246,-19.996 -3.512,0 -4.242,13.992 -4.254,-13.992 -3.492,0 z m -26.254,3.203 2.824,2.836 c 2.328,-2.332 5.797,-3.074 8.883,-1.914 1.039,0.383 1.551,1.539 1.168,2.57 -0.27,0.742 -0.961,1.246 -1.75,1.301 l -4.242,0.262 c -3.317,0.207 -5.832,3.051 -5.625,6.355 0.176,2.637 2.035,4.848 4.597,5.469 3.719,0.887 7.657,0.02 10.641,-2.371 l -2.492,-3.129 c -2.024,1.617 -4.692,2.219 -7.219,1.605 -1.074,-0.25 -1.73,-1.332 -1.476,-2.406 0.207,-0.851 0.937,-1.476 1.812,-1.531 l 4.258,-0.262 c 3.301,-0.207 5.82,-3.062 5.609,-6.367 -0.14,-2.363 -1.672,-4.418 -3.871,-5.238 -4.551,-1.707 -9.668,-0.602 -13.117,2.82 z m -4.996,-3.203 -4.004,0 0,2.254 c -2.344,-2.899 -6.598,-3.348 -9.484,-1.008 -1.586,1.281 -2.508,3.215 -2.508,5.25 l 0,13.5 3.996,0 0,-12.25 c 0,-2.211 1.793,-4.004 4.004,-4.004 2.195,0 3.992,1.793 3.992,4.004 l 0,12.25 4.004,0 0,-19.996 z m -25.5,8.738 -5.754,0 c -1.379,0 -2.492,-1.113 -2.492,-2.492 0,-1.379 1.113,-2.504 2.492,-2.504 l 3.25,0 c 1.379,0 2.504,1.125 2.504,2.504 l 0,2.492 z m 3.992,-8.738 -3.992,0 0,2.055 c -0.711,-1.27 -2.047,-2.055 -3.5,-2.055 l -2.504,0 c -3.316,0 -5.996,2.68 -5.996,5.992 0,3.317 2.68,6.008 5.996,6.008 l 6.004,0 0,1.992 c 0,1.102 -0.789,2.031 -1.871,2.219 -1.41,0.254 -2.856,0.254 -4.266,0 -0.711,-0.121 -1.312,-0.578 -1.629,-1.215 l -3.164,2.496 c 0.953,1.41 2.43,2.371 4.106,2.656 1.867,0.329 3.773,0.329 5.652,0 2.988,-0.523 5.164,-3.117 5.164,-6.156 l 0,-13.992 z m -36,0 0,27.992 4.004,0 0,-17.492 7.758,9.496 4.746,0 -6.75,-7.746 7.746,-12.25 -5,0 -5.25,9.242 -3.25,-3.5 0,-5.742 -4.004,0 z m -16.496,0 0,19.996 4.004,0 0,-2.254 c 2.34,2.899 6.586,3.348 9.496,1.008 l 0,-0.012 -2.844,-3.5 c -1.64,1.469 -4.179,1.313 -5.644,-0.328 -0.649,-0.73 -1.008,-1.683 -1.008,-2.656 l 0,-12.254 -4.004,0 z m -9.996,8.738 -5.754,0 c -1.379,0 -2.496,-1.113 -2.496,-2.492 0,-1.379 1.117,-2.504 2.496,-2.504 l 3.246,0 c 1.391,0 2.508,1.125 2.508,2.504 l 0,2.492 z m 4.004,-8.738 -4.004,0 0,2.055 c -0.711,-1.27 -2.047,-2.055 -3.5,-2.055 l -2.508,0 c -3.312,0 -5.992,2.68 -5.992,5.992 0,3.317 2.68,6.008 5.992,6.008 l 6.008,0 0,1.992 c 0,1.102 -0.789,2.031 -1.859,2.219 -1.422,0.254 -2.868,0.254 -4.278,0 -0.715,-0.121 -1.312,-0.578 -1.633,-1.215 l -3.16,2.496 c 0.953,1.41 2.43,2.371 4.102,2.656 1.871,0.329 3.785,0.329 5.656,0 2.984,-0.523 5.176,-3.117 5.176,-6.156 l 0,-13.992 z m -33.758,14.996 6.496,0 c 2.496,0 4.508,2.012 4.508,4.496 0,2.496 -2.012,4.508 -4.508,4.508 l -6.496,0 0,-9.004 z m -4.246,-14.996 0,27.992 10.992,0 c 4.695,0 8.5,-3.808 8.5,-8.5 0,-4.691 -3.805,-8.5 -8.5,-8.5 l -6.746,0 0,-10.992 -4.246,0 z m -20.008,0 -2.492,0 c -2.484,0 -4.508,2.012 -4.508,4.496 l 0,12.25 -1.992,0 0,3.25 1.992,0 0,5.996 4.004,0 0,-5.996 2.996,0 0,-3.25 -2.996,0 0,-11.746 c 0,-0.703 0.559,-1.258 1.246,-1.258 l 1.75,0 0,-3.742 z m -14.492,24 -4.004,0 0,3.992 4.004,0 0,-3.992 z m 0,-24 -4.004,0 0,19.996 4.004,0 0,-19.996 z m -38.004,0 0,19.996 4.004,0 0,-2.254 c 2.34,2.899 6.586,3.348 9.484,1.008 0.461,-0.375 0.856,-0.789 1.203,-1.258 2.614,3.203 7.34,3.684 10.559,1.059 1.738,-1.422 2.754,-3.555 2.754,-5.809 l 0,-12.742 -4.004,0 0,12.25 c 0,2.199 -1.793,3.992 -4.004,3.992 -2.207,0 -3.992,-1.793 -3.992,-3.992 l 0,-12.25 -4.004,0 0,12.25 c 0,2.199 -1.793,3.992 -4.004,3.992 -2.207,0 -3.992,-1.793 -3.992,-3.992 l 0,-12.25" /><path
         id="path6340"
         style="fill:#000000;fill-opacity:1;fill-rule:nonzero;stroke:none"
         d="m 323.004,52.66 -4.254,0 0,28.004 4.254,0 0,-28.004 z m -10.754,0 -4.254,0 0,28.004 4.254,0 0,-28.004 z m -10.75,0 -4.246,0 0,28.004 4.246,0 0,-28.004 z m -10.742,0 -4.258,0 0,28.004 4.258,0 0,-28.004 z m -10.754,0 -4.246,0 0,28.004 4.246,0 0,-28.004 z m -10.754,0 -4.254,0 0,28.004 4.254,0 0,-28.004 z m -10.754,0 -4.242,0 0,28.004 4.242,0 0,-28.004 z m -10.742,0 -4.254,0 0,28.004 4.254,0 0,-28.004 z m -10.75,0 -4.258,0 0,28.004 4.258,0 0,-28.004 z m -10.754,0 -4.246,0 0,28.004 4.246,0 0,-28.004 z m -24.25,0 -3.996,0 0,4.004 3.996,0 0,-4.004 z m -17.504,0 0,19.996 4.004,0 0,-2.254 c 2.34,2.899 6.594,3.36 9.496,1.008 l 0.008,0 -2.844,-3.512 c -1.652,1.477 -4.18,1.325 -5.644,-0.328 -0.657,-0.734 -1.02,-1.675 -1.02,-2.66 l 0,-12.25 -4.004,0 0.004,0 z m -27.5,0 0,28.004 4.004,0 12.754,-19.996 0,19.996 4.246,0 0,-28.004 -3.996,0 -12.754,19.996 0,-19.996" /><path
         id="path6342"
         style="fill:#000000;fill-opacity:1;fill-rule:evenodd;stroke:none"
         d="m 63.535,155.52 0,56.007 22.992,0 c 8.293,0 15.008,-6.718 15.008,-15 0,-4.898 -2.394,-9.484 -6.398,-12.293 4.593,-2.824 7.394,-7.82 7.394,-13.214 0,-8.555 -6.937,-15.5 -15.5,-15.5 l -23.496,0 z m 8.496,8.007 14.004,0 c 4.692,0 8.5,3.805 8.5,8.5 0,4.692 -3.808,8.496 -8.5,8.496 l -14.004,0 0,-16.996 z m 0,24.493 13.5,0 c 4.418,0 8.008,3.585 8.008,8.007 0,4.418 -3.59,7.996 -8.008,7.996 l -13.5,0 0,-16.003 z m 73.5,-15.493 -24.996,0 0,-1.004 c 0,-3.48 2.113,-6.597 5.34,-7.886 1.324,-0.535 2.734,-0.801 4.156,-0.801 3.258,0 6.367,1.422 8.489,3.894 l 6.082,-5.207 c -3.653,-4.253 -8.969,-6.695 -14.571,-6.695 -2.441,0 -4.855,0.473 -7.133,1.379 -6.257,2.496 -10.371,8.566 -10.371,15.316 l 0,7.997 c 0,9.121 7.395,16.503 16.508,16.503 9.113,0 16.496,-7.382 16.496,-16.503 l 0,-6.993 z m -24.996,6.993 17,0 c 0,4.691 -3.808,8.5 -8.5,8.5 -4.691,0 -8.5,-3.809 -8.5,-8.5 z m 43.492,-24 -12.492,40.003 8.492,0 7.504,-27.992 9,27.992 5.996,0 9.004,-27.992 7.504,27.992 8.5,0 -12.504,-40.003 -7.004,0 -8.496,28.003 -8.5,-28.003 -7.004,0 z m 49.512,16.003 0,7.997 c 0,9.121 7.383,16.507 16.496,16.507 9.113,0 16.496,-7.386 16.496,-16.507 l 0,-7.997 c 0,-9.113 -7.383,-16.496 -16.496,-16.496 -9.113,0 -16.496,7.383 -16.496,16.496 z m 7.996,0 c 0,-4.695 3.805,-8.5 8.5,-8.5 4.692,0 8.5,3.805 8.5,8.5 l 0,7.997 c 0,4.691 -3.808,8.5 -8.5,8.5 -4.695,0 -8.5,-3.809 -8.5,-8.5 l 0,-7.997 z m 36,-16.003 0,56.007 7.996,0 0,-20.523 c 2.559,3.172 6.422,5.023 10.5,5.023 7.461,0 13.5,-6.05 13.5,-13.511 l 0,-26.996 -7.996,0 0,24.503 c 0,4.418 -3.59,7.997 -8.008,7.997 -4.406,0 -7.996,-3.579 -7.996,-7.997 l 0,-24.503 -7.996,0 z m 43.996,0 0,40.003 7.996,0 0,-4.519 c 2.571,3.172 6.434,5.023 10.5,5.023 7.461,0 13.512,-6.05 13.512,-13.511 l 0,-26.996 -8.008,0 0,24.503 c 0,4.418 -3.578,7.997 -7.996,7.997 -4.418,0 -8.008,-3.579 -8.008,-7.997 l 0,-24.503 -7.996,0 z m 76.004,17.007 -24.996,0 0,-1.004 c 0,-3.48 2.113,-6.597 5.34,-7.886 1.324,-0.535 2.734,-0.801 4.156,-0.801 3.27,0 6.367,1.422 8.488,3.894 l 6.071,-5.207 c -3.641,-4.253 -8.957,-6.695 -14.559,-6.695 -2.441,0 -4.859,0.473 -7.121,1.379 -6.269,2.496 -10.383,8.566 -10.383,15.316 l 0,7.997 c 0,9.121 7.395,16.503 16.508,16.503 9.113,0 16.496,-7.382 16.496,-16.503 l 0,-6.993 z m -24.996,6.993 17,0 c 0,4.691 -3.809,8.5 -8.5,8.5 -4.691,0 -8.5,-3.809 -8.5,-8.5 z m 36,-24 0,40.003 7.996,0 0,-4.519 c 2.559,3.172 6.422,5.023 10.504,5.023 3.094,0 6.09,-1.062 8.496,-3.019 l -5.676,-7.004 c -1.476,1.305 -3.359,2.016 -5.328,2.016 -4.406,0 -7.996,-3.579 -7.996,-7.997 l 0,-24.503 -7.996,0" /></g></g></svg>