<?xml version="1.0" encoding="UTF-8" standalone="no"?>
<svg
   xmlns:dc="http://purl.org/dc/elements/1.1/"
   xmlns:cc="http://creativecommons.org/ns#"
   xmlns:rdf="http://www.w3.org/1999/02/22-rdf-syntax-ns#"
   xmlns:svg="http://www.w3.org/2000/svg"
   xmlns="http://www.w3.org/2000/svg"
   viewBox="0 0 600 330"
   height="330"
   width="600"
   xml:space="preserve"
   version="1.1"
   id="svg5599"><metadata
     id="metadata5605"><rdf:RDF><cc:Work
         rdf:about=""><dc:format>image/svg+xml</dc:format><dc:type
           rdf:resource="http://purl.org/dc/dcmitype/StillImage" /><dc:title></dc:title></cc:Work></rdf:RDF></metadata><defs
     id="defs5603"><clipPath
       id="clipPath5615"
       clipPathUnits="userSpaceOnUse"><path
         id="path5617"
         d="M 0,0 480,0 480,264 0,264 0,0 Z" /></clipPath></defs><g
     transform="matrix(1.25,0,0,-1.25,0,330)"
     id="g5607"><g
       id="g5609"><g
         id="g5611"><g
           id="g5613" /><g
           id="g5619"><g
             id="g5621"
             clip-path="url(#clipPath5615)"><g
               id="g5623"><path
                 id="path5625"
                 style="fill:#ffffff;fill-opacity:1;fill-rule:nonzero;stroke:none"
                 d="m 31.996,263.758 c -17.512,0 -31.754,-14.25 -31.754,-31.766 l 0,-199.996 C 0.242,14.484 14.484,0.242 31.996,0.242 l 416.008,0 c 17.512,0 31.754,14.242 31.754,31.754 l 0,199.996 c 0,17.516 -14.242,31.766 -31.754,31.766" /><path
                 id="path5627"
                 style="fill:#000000;fill-opacity:1;fill-rule:nonzero;stroke:none"
                 d="M 31.996,0.469 C 14.613,0.469 0.48,14.613 0.48,31.996 l 0,199.996 c 0,17.383 14.133,31.528 31.516,31.528 l 416.008,0 c 17.383,0 31.516,-14.145 31.516,-31.528 l 0,-199.996 c 0,-17.383 -14.133,-31.527 -31.516,-31.527 l -416.008,0 z M 448.004,264 31.996,264 C 14.32,264 0,249.672 0,231.992 L 0,31.996 C 0,14.328 14.32,0 31.996,0 L 448.004,0 C 465.672,0 480,14.328 480,31.996 l 0,199.996 C 480,249.672 465.672,264 448.004,264" /></g></g></g></g></g><g
       id="g5629"><path
         id="path5631"
         style="fill:#000000;fill-opacity:1;fill-rule:nonzero;stroke:none"
         d="m 31.996,19.996 416.008,0 c 6.629,0 12,5.371 12,12 l 0,199.996 c 0,6.629 -5.371,12 -12,12 l -416.008,0 c -6.629,0 -12,-5.371 -12,-12 l 0,-199.996 c 0,-6.629 5.371,-12 12,-12 z m 0,-12 c -13.258,0 -24,10.742 -24,24 l 0,199.996 c 0,13.258 10.742,24 24,24 l 416.008,0 c 13.258,0 24,-10.742 24,-24 l 0,-199.996 c 0,-13.258 -10.742,-24 -24,-24" /><path
         id="path5633"
         style="fill:none;stroke:#000000;stroke-width:16.00364685;stroke-linecap:butt;stroke-linejoin:miter;stroke-miterlimit:10;stroke-dasharray:none;stroke-opacity:1"
         d="m 60,60 360,0" /><path
         id="path5635"
         style="fill:none;stroke:#ffffff;stroke-width:7.9963541;stroke-linecap:butt;stroke-linejoin:miter;stroke-miterlimit:10;stroke-dasharray:none;stroke-opacity:1"
         d="m 256.004,60 160.004,0" /><path
         id="path5637"
         style="fill:#000000;fill-opacity:1;fill-rule:nonzero;stroke:none"
         d="m 336,123.688 -89.93,-51.93 -7.195,12.472 82.73,47.77 -82.73,47.758 7.195,12.472 89.93,-51.917 89.93,51.917 7.207,-12.472 L 350.406,132 433.137,84.23 425.93,71.758 336,123.688 Z m 50,-32.567 24,-13.859 0,-3.258 c 0,-3.316 -2.687,-6.008 -5.992,-6.008 l -12.012,0 c -3.305,0 -5.996,2.692 -5.996,6.008 l 0,17.117 z M 262.008,77.262 286,91.121 286,74.004 c 0,-3.316 -2.684,-6.008 -5.996,-6.008 l -12,0 c -3.316,0 -5.996,2.692 -5.996,6.008 l 0,3.258 z m 73.992,66.75 -13.836,7.984 27.672,0 L 336,144.012 Z m -84,-8.02 c 0,2.606 0.844,5.133 2.395,7.211 l 2.406,3.192 c 1.687,2.242 3.097,4.671 4.215,7.23 l 3.355,7.723 8.543,-4.942 -1.914,-4.41 9.563,0 L 315.207,132 260.094,100.18 c -4.703,0.918 -8.094,5.031 -8.094,9.824 l 0,25.988 z m 84,-16.004 34.621,-19.996 -69.242,0 34.621,19.996 z m 84,16.004 0,-25.988 c 0,-4.793 -3.391,-8.906 -8.094,-9.824 l -55.101,31.82 34.644,19.996 9.551,0 -1.914,4.41 8.555,4.942 3.355,-7.723 c 1.117,-2.559 2.527,-4.988 4.203,-7.23 l 2.406,-3.192 c 1.551,-2.078 2.395,-4.605 2.395,-7.211 z m -147.281,44.555 4.113,9.441 c 1.586,3.641 5.195,6.004 9.168,6.004 l 100,0 c 3.984,0 7.582,-2.363 9.18,-6.004 l 4.101,-9.441 -8.554,-4.945 -3.465,7.988 c -0.649,1.465 -2.082,2.406 -3.676,2.406 l -95.16,0 c -1.598,0 -3.039,-0.941 -3.676,-2.406 l -3.477,-7.988" /></g></g></svg>