<?xml version="1.0" encoding="UTF-8" standalone="no"?>
<svg
   xmlns:dc="http://purl.org/dc/elements/1.1/"
   xmlns:cc="http://creativecommons.org/ns#"
   xmlns:rdf="http://www.w3.org/1999/02/22-rdf-syntax-ns#"
   xmlns:svg="http://www.w3.org/2000/svg"
   xmlns="http://www.w3.org/2000/svg"
   viewBox="0 0 847.15863 743.62268"
   height="743.62268"
   width="847.15863"
   xml:space="preserve"
   version="1.1"
   id="svg7333"><metadata
     id="metadata7339"><rdf:RDF><cc:Work
         rdf:about=""><dc:format>image/svg+xml</dc:format><dc:type
           rdf:resource="http://purl.org/dc/dcmitype/StillImage" /><dc:title></dc:title></cc:Work></rdf:RDF></metadata><defs
     id="defs7337" /><g
     transform="matrix(1.25,0,0,-1.25,0,743.62267)"
     id="g7341"><g
       id="g7343"><path
         id="path7345"
         style="fill:#ffffff;fill-opacity:1;fill-rule:nonzero;stroke:none"
         d="m 338.859,594.5 c 7.512,0 15.028,-2.867 20.758,-8.598 1.879,-1.879 3.446,-3.953 4.707,-6.152 l 15.246,-26.157 0.071,0 293.101,-508.039 c 0.055,-0.097 0.098,-0.195 0.153,-0.293 1.488,-2.394 2.656,-5.043 3.425,-7.91 4.196,-15.656 -5.097,-31.754 -20.757,-35.949 -2.586,-0.695 -5.184,-1.012 -7.739,-1 l -618.066,0 c -16.215,0 -29.356,13.141 -29.356,29.356 0,5.304 1.414,10.281 3.879,14.578 0.02,0.031 0.035,0.062 0.051,0.097 l 304.367,528.41 c 3.864,6.665 5.653,9.305 9.406,13.059 5.731,5.731 13.243,8.598 20.754,8.598 z" /><path
         id="path7347"
         style="fill:#c1121c;fill-opacity:1;fill-rule:nonzero;stroke:none"
         d="m 338.859,587.144 c 7.125,0.051 14.95,-3.59 18.782,-10.406 L 666.934,40.847 c 1.785,-3.648 2.535,-6.82 2.558,-10.449 0,-6.496 -2.875,-12.66 -7.847,-16.84 -4.383,-3.394 -8.536,-5.16 -14.122,-5.16 l -617.906,0 C 25.848,8.363 22.07,9.269 18.641,11.531 12.188,15.429 8.238,22.414 8.23,29.957 c 0.184,3.894 1.145,8 2.879,10.89 l 309.114,535.981 c 0.027,0.047 0.058,0.094 0.09,0.14 0.031,0.047 0.062,0.094 0.093,0.145 1.098,1.754 2.473,3.305 4.039,4.633 3.59,3.109 8.086,4.976 12.825,5.316 0.531,0.047 1.062,0.078 1.589,0.082 z M 647.523,8.398 l 1.524,0 -1.555,0 0.031,0 z M 339.18,480.933 103.477,72.398 l 471.738,0 -236.035,408.535 z" /><path
         id="path7349"
         style="fill:#000000;fill-opacity:1;fill-rule:nonzero;stroke:none"
         d="m 338.859,594.898 c 7.618,0 15.231,-2.906 21.039,-8.715 1.907,-1.902 3.493,-4.008 4.774,-6.234 l 15.129,-25.957 0.07,0 293.215,-508.238 c 0.066,-0.118 0.113,-0.219 0.16,-0.301 1.504,-2.422 2.684,-5.102 3.461,-7.996 C 680.957,21.586 671.535,5.269 655.668,1.015 653.047,0.312 650.41,-0.008 647.824,0 L 29.758,0 C 13.328,0 0,13.328 0,29.758 c 0,5.375 1.438,10.417 3.934,14.773 0.011,0.019 0.027,0.051 0.05,0.098 l 304.364,528.414 c 3.871,6.668 5.695,9.363 9.468,13.14 5.809,5.809 13.426,8.715 21.039,8.715 l 0.004,0 z m 0,-0.398 c -7.511,0 -15.023,-2.867 -20.754,-8.598 -3.753,-3.754 -5.542,-6.394 -9.406,-13.059 L 4.336,44.433 C 4.316,44.398 4.301,44.367 4.281,44.336 1.816,40.039 0.402,35.062 0.402,29.758 0.402,13.543 13.543,0.402 29.758,0.402 l 618.066,0 c 2.555,-0.012 5.153,0.305 7.739,1 15.66,4.195 24.953,20.293 20.757,35.949 -0.765,2.867 -1.937,5.516 -3.425,7.91 -0.055,0.098 -0.098,0.196 -0.153,0.293 l -293.101,508.039 -0.071,0 -15.246,26.157 c -1.261,2.199 -2.828,4.273 -4.707,6.152 -5.73,5.731 -13.242,8.598 -20.758,8.598 z" /><path
         id="path7351"
         style="fill:#000000;fill-opacity:1;fill-rule:nonzero;stroke:none"
         d="m 396.898,309.64 c 0,-12.371 -10.043,-22.398 -22.418,-22.398 -12.39,0 -22.414,10.027 -22.414,22.398 0,12.391 10.024,22.434 22.414,22.434 12.375,0 22.418,-10.043 22.418,-22.434 z M 345.652,88.894 364.348,199.476 c 0.199,1.219 0.23,2.426 0.086,3.629 l -6.196,52.621 -43.89,-26.355 c -9.098,-5.453 -20.903,-2.504 -26.371,6.594 l 70.476,42.3 c 13.274,-6.765 29.371,-4.465 40.199,5.746 l 37.434,-12.019 c 1.559,-0.492 2.887,-1.606 3.676,-3.059 l 21.195,-39.379 c -9.348,-5.019 -20.996,-1.527 -26.031,7.817 l -9.641,17.89 -22.695,7.309 6.398,-54.336 c 0.121,-1.125 0.414,-2.223 0.832,-3.289 l 15.899,-39.441 36.445,-15.727 c 9.762,-4.203 14.242,-15.512 10.039,-25.242 l -60.047,23.961 c -1.578,0.633 -2.828,1.836 -3.492,3.383 l -21.383,48.847 -19.605,-96.722 C 365.621,93.851 355.875,87.148 345.648,88.894 l 0.004,0 z m -76.3,158.719 c 0,-11.262 -9.129,-20.375 -20.395,-20.375 -11.262,0 -20.375,9.113 -20.375,20.375 0,11.266 9.113,20.395 20.375,20.395 11.266,0 20.395,-9.129 20.395,-20.395 z m -32.614,-52.988 -25.66,-21.289 c -5.672,-4.696 -13.98,-4.325 -19.203,0.882 l 45.219,45.235 c 9.426,-3.988 20.207,-2.985 28.734,2.656 l 30.156,-6.691 c 1.207,-0.262 2.227,-1.067 2.766,-2.145 l 15.449,-30.883 c -7.043,-3.523 -15.617,-0.679 -19.156,6.379 l -7.355,13.996 -14.258,0 12.234,-48.925 27.563,-2.071 c 7.445,-0.57 13.191,-6.765 13.191,-14.226 l -46.73,0 c -1.36,0 -2.645,0.679 -3.399,1.804 l -6.937,10.414 -14.274,-4.078 0,-42.824 c 0,-7.633 -6.012,-13.906 -13.644,-14.262" /></g></g></svg>