<?xml version="1.0" encoding="UTF-8" standalone="no"?>
<svg
   xmlns:dc="http://purl.org/dc/elements/1.1/"
   xmlns:cc="http://creativecommons.org/ns#"
   xmlns:rdf="http://www.w3.org/1999/02/22-rdf-syntax-ns#"
   xmlns:svg="http://www.w3.org/2000/svg"
   xmlns="http://www.w3.org/2000/svg"
   viewBox="0 0 847.15863 743.62268"
   height="743.62268"
   width="847.15863"
   xml:space="preserve"
   version="1.1"
   id="svg7353"><metadata
     id="metadata7359"><rdf:RDF><cc:Work
         rdf:about=""><dc:format>image/svg+xml</dc:format><dc:type
           rdf:resource="http://purl.org/dc/dcmitype/StillImage" /><dc:title></dc:title></cc:Work></rdf:RDF></metadata><defs
     id="defs7357" /><g
     transform="matrix(1.25,0,0,-1.25,0,743.62267)"
     id="g7361"><g
       id="g7363"><path
         id="path7365"
         style="fill:#ffffff;fill-opacity:1;fill-rule:nonzero;stroke:none"
         d="m 338.867,594.5 c -7.512,0 -15.027,-2.867 -20.758,-8.598 -1.879,-1.879 -3.445,-3.953 -4.707,-6.152 l -15.246,-26.157 -0.07,0 L 4.984,45.554 C 4.93,45.457 4.887,45.359 4.832,45.261 3.344,42.867 2.176,40.218 1.406,37.351 -2.789,21.695 6.504,5.597 22.164,1.402 c 2.586,-0.695 5.184,-1.012 7.738,-1 l 618.067,0 c 16.215,0 29.355,13.141 29.355,29.356 0,5.304 -1.414,10.281 -3.879,14.578 -0.019,0.031 -0.035,0.062 -0.05,0.097 l -304.368,528.41 c -3.863,6.665 -5.652,9.305 -9.406,13.059 -5.73,5.731 -13.242,8.598 -20.754,8.598 z" /><path
         id="path7367"
         style="fill:#c1121c;fill-opacity:1;fill-rule:nonzero;stroke:none"
         d="m 338.867,587.144 c -7.125,0.051 -14.949,-3.59 -18.781,-10.406 L 10.793,40.847 C 9.008,37.199 8.258,34.027 8.234,30.398 c 0,-6.496 2.875,-12.66 7.848,-16.84 4.383,-3.394 8.535,-5.16 14.121,-5.16 l 617.906,0 c 3.77,-0.035 7.547,0.871 10.977,3.133 6.453,3.898 10.402,10.883 10.41,18.426 -0.183,3.894 -1.144,8 -2.879,10.89 L 357.504,576.828 c -0.027,0.047 -0.059,0.094 -0.09,0.14 -0.031,0.047 -0.062,0.094 -0.094,0.145 -1.097,1.754 -2.472,3.305 -4.039,4.633 -3.59,3.109 -8.086,4.976 -12.824,5.316 -0.531,0.047 -1.062,0.078 -1.59,0.082 z M 30.203,8.398 l -1.523,0 1.554,0 -0.031,0 z M 338.547,480.933 574.25,72.398 l -471.738,0 236.035,408.535 z" /><path
         id="path7369"
         style="fill:#000000;fill-opacity:1;fill-rule:nonzero;stroke:none"
         d="m 338.867,594.898 c -7.617,0 -15.23,-2.906 -21.039,-8.715 -1.906,-1.902 -3.492,-4.008 -4.773,-6.234 l -15.129,-25.957 -0.071,0 L 4.641,45.754 C 4.574,45.636 4.527,45.535 4.48,45.453 2.977,43.031 1.797,40.351 1.02,37.457 -3.23,21.586 6.191,5.269 22.059,1.015 24.68,0.312 27.316,-0.008 29.902,0 l 618.067,0 c 16.429,0 29.758,13.328 29.758,29.758 0,5.375 -1.438,10.417 -3.934,14.773 -0.012,0.019 -0.027,0.051 -0.051,0.098 L 369.379,573.043 c -3.871,6.668 -5.695,9.363 -9.469,13.14 -5.808,5.809 -13.426,8.715 -21.039,8.715 l -0.004,0 z m 0,-0.398 c 7.512,0 15.024,-2.867 20.754,-8.598 3.754,-3.754 5.543,-6.394 9.406,-13.059 L 673.391,44.433 c 0.019,-0.035 0.035,-0.066 0.054,-0.097 2.465,-4.297 3.879,-9.274 3.879,-14.578 0,-16.215 -13.14,-29.356 -29.355,-29.356 l -618.067,0 C 27.348,0.39 24.75,0.707 22.164,1.402 6.504,5.597 -2.789,21.695 1.406,37.351 c 0.766,2.867 1.938,5.516 3.426,7.91 0.055,0.098 0.098,0.196 0.152,0.293 l 293.102,508.039 0.07,0 15.246,26.157 c 1.262,2.199 2.828,4.273 4.707,6.152 5.731,5.731 13.243,8.598 20.758,8.598 z" /><path
         id="path7371"
         style="fill:#000000;fill-opacity:1;fill-rule:nonzero;stroke:none"
         d="m 280.828,309.64 c 0,-12.371 10.043,-22.398 22.418,-22.398 12.391,0 22.418,10.027 22.418,22.398 0,12.391 -10.027,22.434 -22.418,22.434 -12.375,0 -22.418,-10.043 -22.418,-22.434 z M 332.074,88.894 313.379,199.476 c -0.199,1.219 -0.231,2.426 -0.086,3.629 l 6.195,52.621 43.891,-26.355 c 9.101,-5.453 20.902,-2.504 26.371,6.594 l -70.477,42.3 c -13.269,-6.765 -29.367,-4.465 -40.199,5.746 l -37.433,-12.019 c -1.559,-0.492 -2.887,-1.606 -3.676,-3.059 L 216.77,229.554 c 9.347,-5.019 20.996,-1.527 26.031,7.817 l 9.64,17.89 22.696,7.309 -6.399,-54.336 c -0.121,-1.125 -0.414,-2.223 -0.832,-3.289 l -15.898,-39.441 -36.442,-15.727 c -9.765,-4.203 -14.246,-15.512 -10.043,-25.242 l 60.051,23.961 c 1.574,0.633 2.824,1.836 3.489,3.383 l 21.382,48.847 19.606,-96.722 c 2.054,-10.153 11.801,-16.856 22.031,-15.11 l -0.008,0 z m 76.301,158.719 c 0,-11.262 9.133,-20.375 20.395,-20.375 11.261,0 20.375,9.113 20.375,20.375 0,11.266 -9.114,20.395 -20.375,20.395 -11.262,0 -20.395,-9.129 -20.395,-20.395 z m 32.613,-52.988 25.66,-21.289 c 5.672,-4.696 13.981,-4.325 19.204,0.882 l -45.219,45.235 c -9.422,-3.988 -20.207,-2.985 -28.735,2.656 l -30.156,-6.691 c -1.207,-0.262 -2.226,-1.067 -2.765,-2.145 l -15.45,-30.883 c 7.047,-3.523 15.621,-0.679 19.157,6.379 l 7.355,13.996 14.258,0 -12.234,-48.925 -27.563,-2.071 c -7.445,-0.57 -13.191,-6.765 -13.191,-14.226 l 46.73,0 c 1.359,0 2.645,0.679 3.399,1.804 l 6.937,10.414 14.277,-4.078 0,-42.824 c 0,-7.633 6.008,-13.906 13.641,-14.262" /></g></g></svg>