<?xml version="1.0" encoding="UTF-8" standalone="no"?>
<svg
   xmlns:dc="http://purl.org/dc/elements/1.1/"
   xmlns:cc="http://creativecommons.org/ns#"
   xmlns:rdf="http://www.w3.org/1999/02/22-rdf-syntax-ns#"
   xmlns:svg="http://www.w3.org/2000/svg"
   xmlns="http://www.w3.org/2000/svg"
   viewBox="0 0 847.15857 743.62268"
   height="743.62268"
   width="847.15857"
   xml:space="preserve"
   version="1.1"
   id="svg4189"><metadata
     id="metadata4195"><rdf:RDF><cc:Work
         rdf:about=""><dc:format>image/svg+xml</dc:format><dc:type
           rdf:resource="http://purl.org/dc/dcmitype/StillImage" /><dc:title></dc:title></cc:Work></rdf:RDF></metadata><defs
     id="defs4193" /><g
     transform="matrix(1.25,0,0,-1.25,0,743.62267)"
     id="g4197"><g
       id="g4199"><path
         id="path4201"
         style="fill:#ffffff;fill-opacity:1;fill-rule:nonzero;stroke:none"
         d="m 338.859,0.398 c 7.516,0 15.028,2.867 20.758,8.598 1.879,1.879 3.445,3.953 4.707,6.152 l 15.246,26.156 0.071,0 293.101,508.039 c 0.055,0.098 0.098,0.196 0.153,0.293 1.488,2.395 2.656,5.043 3.425,7.911 4.196,15.656 -5.097,31.753 -20.758,35.949 -2.585,0.695 -5.183,1.012 -7.738,1 l -618.066,0 c -16.215,0 -29.356,-13.141 -29.356,-29.356 0,-5.304 1.414,-10.281 3.879,-14.578 0.02,-0.031 0.035,-0.062 0.055,-0.097 L 308.699,22.054 c 3.863,-6.664 5.653,-9.304 9.406,-13.058 5.731,-5.731 13.243,-8.598 20.754,-8.598 z" /><path
         id="path4203"
         style="fill:#c1121c;fill-opacity:1;fill-rule:nonzero;stroke:none"
         d="m 338.859,7.754 c 7.125,-0.051 14.95,3.589 18.782,10.406 l 309.293,535.89 c 1.785,3.649 2.535,6.821 2.558,10.45 0,6.496 -2.875,12.66 -7.847,16.84 -4.383,3.394 -8.536,5.16 -14.122,5.16 l -617.906,0 c -3.769,0.035 -7.547,-0.871 -10.976,-3.133 -6.453,-3.899 -10.403,-10.883 -10.411,-18.426 0.184,-3.894 1.145,-8 2.879,-10.891 L 320.223,18.07 c 0.027,-0.047 0.062,-0.094 0.089,-0.141 0.032,-0.046 0.063,-0.093 0.094,-0.144 1.098,-1.754 2.473,-3.305 4.039,-4.633 3.59,-3.109 8.086,-4.977 12.825,-5.316 0.531,-0.047 1.062,-0.078 1.589,-0.082 z m 308.664,578.746 1.524,0 -1.555,0 0.031,0 z M 339.18,113.965 103.477,522.5 575.215,522.5 339.18,113.965 Z" /><path
         id="path4205"
         style="fill:#000000;fill-opacity:1;fill-rule:nonzero;stroke:none"
         d="m 338.859,0 c 7.618,0 15.231,2.906 21.039,8.715 1.907,1.902 3.493,4.007 4.774,6.234 l 15.129,25.957 0.07,0 293.215,508.238 c 0.066,0.117 0.113,0.219 0.16,0.301 1.504,2.422 2.684,5.102 3.461,7.996 4.25,15.871 -5.172,32.192 -21.039,36.442 -2.621,0.703 -5.258,1.023 -7.844,1.015 l -618.066,0 C 13.328,594.898 0,581.57 0,565.14 c 0,-5.375 1.438,-10.418 3.934,-14.773 0.011,-0.024 0.027,-0.055 0.054,-0.102 L 308.352,21.851 c 3.871,-6.664 5.695,-9.363 9.468,-13.136 C 323.629,2.906 331.246,0 338.859,0 Z m 0,0.398 c -7.511,0 -15.023,2.867 -20.754,8.598 -3.753,3.754 -5.543,6.394 -9.406,13.058 L 4.336,550.465 c -0.02,0.035 -0.035,0.066 -0.055,0.097 -2.465,4.297 -3.879,9.274 -3.879,14.578 0,16.215 13.141,29.356 29.356,29.356 l 618.066,0 c 2.555,0.012 5.153,-0.305 7.738,-1 15.661,-4.196 24.954,-20.293 20.758,-35.949 -0.769,-2.868 -1.937,-5.516 -3.425,-7.911 -0.055,-0.097 -0.098,-0.195 -0.153,-0.293 L 379.641,41.304 l -0.071,0 -15.246,-26.156 c -1.262,-2.199 -2.828,-4.273 -4.707,-6.152 -5.73,-5.731 -13.242,-8.598 -20.758,-8.598 z" /></g></g></svg>