<?xml version="1.0" encoding="UTF-8" standalone="no"?>
<svg
   xmlns:dc="http://purl.org/dc/elements/1.1/"
   xmlns:cc="http://creativecommons.org/ns#"
   xmlns:rdf="http://www.w3.org/1999/02/22-rdf-syntax-ns#"
   xmlns:svg="http://www.w3.org/2000/svg"
   xmlns="http://www.w3.org/2000/svg"
   viewBox="0 0 601 601"
   height="601"
   width="601"
   xml:space="preserve"
   version="1.1"
   id="svg3737"><metadata
     id="metadata3743"><rdf:RDF><cc:Work
         rdf:about=""><dc:format>image/svg+xml</dc:format><dc:type
           rdf:resource="http://purl.org/dc/dcmitype/StillImage" /><dc:title></dc:title></cc:Work></rdf:RDF></metadata><defs
     id="defs3741" /><g
     transform="matrix(1.25,0,0,-1.25,0,600.99998)"
     id="g3745"><g
       id="g3747"><path
         id="path3749"
         style="fill:#000000;fill-opacity:1;fill-rule:evenodd;stroke:none"
         d="m 240.426,480.8 c 44.234,0 81.847,-10.074 120.16,-32.191 38.34,-22.145 65.879,-49.684 88.023,-88.024 22.118,-38.312 32.192,-75.949 32.192,-120.211 0,-44.234 -10.074,-81.851 -32.192,-120.187 C 426.465,81.874 398.926,54.308 360.586,32.191 322.273,10.073 284.66,-0.001 240.426,-0.001 196.164,-0.001 158.527,10.073 120.188,32.191 81.875,54.308 54.309,81.874 32.191,120.187 10.074,158.523 0,196.14 0,240.374 c 0,44.258 10.074,81.899 32.191,120.211 22.118,38.34 49.684,65.883 87.997,88.024 38.339,22.117 75.976,32.191 120.238,32.191 z m 0,-0.398 c -44.199,0 -81.754,-10.051 -120.039,-32.141 C 82.125,426.148 54.621,398.671 32.535,360.386 10.449,322.124 0.402,284.573 0.402,240.374 c 0,-44.176 10.047,-81.703 32.133,-119.988 22.086,-38.258 49.59,-65.762 87.852,-87.848 38.285,-22.086 75.84,-32.136 120.039,-32.136 44.172,0 81.703,10.05 119.961,32.136 38.285,22.086 65.761,49.59 87.875,87.848 22.09,38.285 32.14,75.812 32.14,119.988 0,44.199 -10.05,81.75 -32.14,120.012 -22.114,38.285 -49.59,65.762 -87.875,87.875 -38.258,22.09 -75.789,32.141 -119.961,32.141 z" /><path
         id="path3751"
         style="fill:#ffffff;fill-opacity:1;fill-rule:evenodd;stroke:none"
         d="m 0.402,240.374 c 0,44.199 10.047,81.75 32.133,120.012 22.086,38.285 49.59,65.762 87.852,87.875 38.289,22.09 75.84,32.141 120.039,32.141 44.176,0 81.703,-10.051 119.961,-32.141 38.285,-22.113 65.765,-49.59 87.879,-87.875 22.086,-38.262 32.136,-75.813 32.136,-120.012 0,-44.176 -10.05,-81.703 -32.136,-119.984 C 426.152,82.128 398.672,54.624 360.387,32.538 322.129,10.452 284.602,0.402 240.426,0.402 c -44.199,0 -81.75,10.05 -120.039,32.136 C 82.125,54.624 54.621,82.128 32.535,120.39 10.449,158.671 0.402,196.198 0.402,240.374 Z" /><path
         id="path3753"
         style="fill:#154889;fill-opacity:1;fill-rule:evenodd;stroke:none"
         d="m 11.602,240.402 c 0,42.101 9.582,77.914 30.66,114.375 21.051,36.484 47.281,62.714 83.742,83.765 36.457,21.078 72.293,30.66 114.422,30.66 42.105,0 77.89,-9.609 114.347,-30.66 36.489,-21.078 62.692,-47.281 83.77,-83.765 21.051,-36.461 30.66,-72.274 30.66,-114.375 0,-42.129 -9.582,-77.942 -30.66,-114.399 -21.051,-36.461 -47.281,-62.691 -83.77,-83.742 -36.457,-21.078 -72.242,-30.66 -114.347,-30.66 -42.129,0 -77.965,9.582 -114.422,30.66 -36.461,21.051 -62.691,47.281 -83.742,83.742 -21.078,36.457 -30.66,72.27 -30.66,114.399 z" /><path
         id="path3755"
         style="fill:#ffffff;fill-opacity:1;fill-rule:evenodd;stroke:none"
         d="m 227.492,396.593 -61.293,-61.293 63.473,-0.32 c 78.351,-3.356 97.797,-71.723 100.793,-91.629 l 0,-159.141 -43.281,0 0,152.582 c 0,7.379 -6.547,47.676 -55.227,56.059 l -66.867,-0.172 62.445,-62.445 -53.773,0 -83.082,83.105 -0.215,0 0.109,0.106 -0.066,0.062 0.129,0 83.105,83.086 53.75,0 z" /></g></g></svg>