<?xml version="1.0" encoding="UTF-8" standalone="no"?>
<svg
   xmlns:dc="http://purl.org/dc/elements/1.1/"
   xmlns:cc="http://creativecommons.org/ns#"
   xmlns:rdf="http://www.w3.org/1999/02/22-rdf-syntax-ns#"
   xmlns:svg="http://www.w3.org/2000/svg"
   xmlns="http://www.w3.org/2000/svg"
   viewBox="0 0 601 601"
   height="601"
   width="601"
   xml:space="preserve"
   version="1.1"
   id="svg5051"><metadata
     id="metadata5057"><rdf:RDF><cc:Work
         rdf:about=""><dc:format>image/svg+xml</dc:format><dc:type
           rdf:resource="http://purl.org/dc/dcmitype/StillImage" /><dc:title></dc:title></cc:Work></rdf:RDF></metadata><defs
     id="defs5055" /><g
     transform="matrix(1.25,0,0,-1.25,0,600.99998)"
     id="g5059"><g
       id="g5061"><path
         id="path5063"
         style="fill:#000000;fill-opacity:1;fill-rule:evenodd;stroke:none"
         d="m 480.801,240.425 c 0,44.234 -10.074,81.848 -32.192,120.16 -22.144,38.34 -49.683,65.879 -88.023,88.024 -38.313,22.117 -75.949,32.191 -120.211,32.191 -44.234,0 -81.852,-10.074 -120.187,-32.191 C 81.875,426.464 54.309,398.925 32.191,360.585 10.074,322.273 0,284.659 0,240.425 0,196.163 10.074,158.527 32.191,120.187 54.309,81.874 81.875,54.308 120.188,32.191 158.523,10.073 196.141,-0.001 240.375,-0.001 c 44.258,0 81.898,10.074 120.211,32.192 38.34,22.117 65.883,49.683 88.023,87.996 22.118,38.34 32.192,75.976 32.192,120.238 z m -0.399,0 c 0,-44.199 -10.05,-81.754 -32.14,-120.039 C 426.148,82.124 398.672,54.62 360.387,32.534 322.125,10.448 284.574,0.402 240.375,0.402 196.199,0.402 158.672,10.448 120.387,32.534 82.129,54.62 54.625,82.124 32.539,120.386 10.453,158.671 0.402,196.226 0.402,240.425 c 0,44.172 10.051,81.703 32.137,119.961 22.086,38.285 49.59,65.762 87.848,87.875 38.285,22.09 75.812,32.141 119.988,32.141 44.199,0 81.75,-10.051 120.012,-32.141 38.285,-22.113 65.761,-49.59 87.875,-87.875 22.09,-38.258 32.14,-75.789 32.14,-119.961 z" /><path
         id="path5065"
         style="fill:#ffffff;fill-opacity:1;fill-rule:evenodd;stroke:none"
         d="m 240.375,0.402 c 44.199,0 81.75,10.046 120.012,32.132 38.285,22.086 65.761,49.59 87.875,87.852 22.09,38.289 32.14,75.84 32.14,120.039 0,44.176 -10.05,81.703 -32.14,119.961 -22.114,38.285 -49.59,65.766 -87.875,87.879 -38.262,22.086 -75.813,32.137 -120.012,32.137 -44.176,0 -81.703,-10.051 -119.984,-32.137 C 82.129,426.152 54.625,398.671 32.539,360.386 10.453,322.128 0.402,284.601 0.402,240.425 0.402,196.226 10.453,158.675 32.539,120.386 54.625,82.124 82.129,54.62 120.391,32.534 158.672,10.448 196.199,0.402 240.375,0.402 Z" /><path
         id="path5067"
         style="fill:#154889;fill-opacity:1;fill-rule:evenodd;stroke:none"
         d="m 240.402,11.601 c 42.102,0 77.914,9.582 114.375,30.66 36.485,21.051 62.715,47.281 83.766,83.742 21.078,36.457 30.66,72.293 30.66,114.422 0,42.105 -9.609,77.891 -30.66,114.348 -21.078,36.488 -47.281,62.691 -83.766,83.769 -36.461,21.051 -72.273,30.66 -114.375,30.66 -42.129,0 -77.941,-9.582 -114.398,-30.66 C 89.543,417.491 63.313,391.261 42.262,354.773 21.184,318.316 11.602,282.53 11.602,240.425 c 0,-42.129 9.582,-77.965 30.66,-114.422 21.051,-36.461 47.281,-62.691 83.742,-83.742 36.457,-21.078 72.269,-30.66 114.398,-30.66 z" /><path
         id="path5069"
         style="fill:#ffffff;fill-opacity:1;fill-rule:nonzero;stroke:none"
         d="m 351.266,246.839 -85.766,85.66 0,-272.976 -50.152,0 0,273.254 -85.809,-85.704 0,63.204 110.789,111.003 -0.148,-11.015 0.297,10.781 110.789,-111.027 0,-63.18 z" /></g></g></svg>