<?xml version="1.0" encoding="UTF-8" standalone="no"?>
<svg
   xmlns:dc="http://purl.org/dc/elements/1.1/"
   xmlns:cc="http://creativecommons.org/ns#"
   xmlns:rdf="http://www.w3.org/1999/02/22-rdf-syntax-ns#"
   xmlns:svg="http://www.w3.org/2000/svg"
   xmlns="http://www.w3.org/2000/svg"
   viewBox="0 0 601 601"
   height="601"
   width="601"
   xml:space="preserve"
   version="1.1"
   id="svg3710"><metadata
     id="metadata3716"><rdf:RDF><cc:Work
         rdf:about=""><dc:format>image/svg+xml</dc:format><dc:type
           rdf:resource="http://purl.org/dc/dcmitype/StillImage" /><dc:title></dc:title></cc:Work></rdf:RDF></metadata><defs
     id="defs3714" /><g
     transform="matrix(1.25,0,0,-1.25,0,600.99998)"
     id="g3718"><g
       id="g3720"><path
         id="path3722"
         style="fill:#000000;fill-opacity:1;fill-rule:evenodd;stroke:none"
         d="m 240.375,480.8 c -44.234,0 -81.848,-10.074 -120.16,-32.191 C 81.875,426.464 54.336,398.925 32.191,360.585 10.074,322.273 0,284.636 0,240.374 0,196.14 10.074,158.523 32.191,120.187 54.336,81.874 81.875,54.308 120.215,32.191 c 38.312,-22.118 75.926,-32.192 120.16,-32.192 44.262,0 81.898,10.074 120.238,32.192 38.313,22.117 65.879,49.683 87.996,87.996 22.118,38.336 32.192,75.953 32.192,120.187 0,44.258 -10.074,81.899 -32.192,120.211 -22.117,38.34 -49.683,65.883 -87.996,88.024 -38.34,22.117 -75.976,32.191 -120.238,32.191 z m 0,-0.398 c 44.199,0 81.754,-10.051 120.039,-32.141 38.262,-22.113 65.766,-49.59 87.852,-87.875 22.086,-38.262 32.132,-75.813 32.132,-120.012 0,-44.176 -10.046,-81.703 -32.132,-119.988 C 426.18,82.128 398.676,54.624 360.414,32.538 322.129,10.452 284.574,0.402 240.375,0.402 c -44.172,0 -81.703,10.05 -119.961,32.136 -38.285,22.086 -65.762,49.59 -87.875,87.848 -22.09,38.285 -32.141,75.812 -32.141,119.988 0,44.199 10.051,81.75 32.141,120.012 22.113,38.285 49.59,65.762 87.875,87.875 38.258,22.09 75.789,32.141 119.961,32.141 z" /><path
         id="path3724"
         style="fill:#ffffff;fill-opacity:1;fill-rule:evenodd;stroke:none"
         d="m 480.398,240.374 c 0,44.199 -10.046,81.75 -32.132,120.012 -22.086,38.285 -49.59,65.762 -87.852,87.875 -38.289,22.09 -75.84,32.141 -120.039,32.141 -44.176,0 -81.703,-10.051 -119.961,-32.141 C 82.129,426.148 54.648,398.671 32.535,360.386 10.449,322.124 0.398,284.573 0.398,240.374 0.398,196.198 10.449,158.671 32.535,120.39 54.648,82.128 82.129,54.624 120.414,32.538 158.672,10.452 196.199,0.402 240.375,0.402 c 44.199,0 81.75,10.05 120.039,32.136 38.262,22.086 65.766,49.59 87.852,87.852 22.086,38.281 32.132,75.808 32.132,119.984 z" /><path
         id="path3726"
         style="fill:#154889;fill-opacity:1;fill-rule:evenodd;stroke:none"
         d="m 469.199,240.402 c 0,42.101 -9.582,77.914 -30.66,114.375 -21.051,36.484 -47.281,62.714 -83.742,83.765 -36.457,21.078 -72.293,30.66 -114.422,30.66 -42.105,0 -77.891,-9.609 -114.348,-30.66 C 89.539,417.464 63.336,391.261 42.258,354.777 21.207,318.316 11.598,282.503 11.598,240.402 c 0,-42.129 9.582,-77.942 30.66,-114.399 21.051,-36.461 47.281,-62.691 83.769,-83.742 36.457,-21.078 72.243,-30.66 114.348,-30.66 42.129,0 77.965,9.582 114.422,30.66 36.461,21.051 62.691,47.281 83.742,83.742 21.078,36.457 30.66,72.27 30.66,114.399 z" /><path
         id="path3728"
         style="fill:#ffffff;fill-opacity:1;fill-rule:evenodd;stroke:none"
         d="m 253.309,396.593 61.293,-61.293 -63.473,-0.32 c -78.352,-3.356 -97.797,-71.723 -100.793,-91.629 l 0,-159.141 43.281,0 0,152.582 c 0,7.379 6.547,47.676 55.227,56.059 l 66.867,-0.172 -62.445,-62.445 53.773,0 83.082,83.105 0.215,0 -0.106,0.106 0.063,0.062 -0.129,0 -83.105,83.086 -53.75,0 z" /></g></g></svg>