<?xml version="1.0" encoding="UTF-8" standalone="no"?>
<svg
   xmlns:dc="http://purl.org/dc/elements/1.1/"
   xmlns:cc="http://creativecommons.org/ns#"
   xmlns:rdf="http://www.w3.org/1999/02/22-rdf-syntax-ns#"
   xmlns:svg="http://www.w3.org/2000/svg"
   xmlns="http://www.w3.org/2000/svg"
   viewBox="0 0 727 269"
   height="269"
   width="727"
   xml:space="preserve"
   version="1.1"
   id="svg8757"><metadata
     id="metadata8763"><rdf:RDF><cc:Work
         rdf:about=""><dc:format>image/svg+xml</dc:format><dc:type
           rdf:resource="http://purl.org/dc/dcmitype/StillImage" /><dc:title></dc:title></cc:Work></rdf:RDF></metadata><defs
     id="defs8761"><clipPath
       id="clipPath8771"
       clipPathUnits="userSpaceOnUse"><path
         id="path8773"
         d="m 0,214.606 582,0 0,-215 -582,0 0,215 z" /></clipPath><clipPath
       id="clipPath8779"
       clipPathUnits="userSpaceOnUse"><path
         id="path8781"
         d="M 0,0 582,0 582,216 0,216 0,0 Z" /></clipPath></defs><g
     transform="matrix(1.25,0,0,-1.25,0,269)"
     id="g8765"><g
       id="g8767"><g
         clip-path="url(#clipPath8771)"
         id="g8769"><g
           transform="translate(0,-0.800003)"
           id="g8775"><g
             id="g8777" /><g
             id="g8783"><g
               id="g8785"
               clip-path="url(#clipPath8779)"><g
                 id="g8787"><path
                   id="path8789"
                   style="fill:#ffffff;fill-opacity:1;fill-rule:nonzero;stroke:none"
                   d="M 29.32,1.078 C 13.277,1.078 0.289,13.852 0.289,29.617 l 0,156.957 c 0,15.766 12.988,28.543 29.031,28.543 l 522.453,0 c 16.028,0 29.016,-12.777 29.016,-28.543 l 0,-156.957 c 0,-15.765 -12.988,-28.539 -29.016,-28.539" /><path
                   id="path8791"
                   style="fill:#000000;fill-opacity:1;fill-rule:nonzero;stroke:none"
                   d="M 29.32,215.406 C 13.16,215.406 0,202.473 0,186.574 L 0,29.617 C 0,13.719 13.16,0.801 29.32,0.801 l 522.453,0 c 16.149,0 29.305,12.918 29.305,28.816 l 0,156.957 c 0,15.899 -13.156,28.832 -29.305,28.832 l -522.453,0 z m 0,-0.289 522.453,0 c 16.028,0 29.016,-12.777 29.016,-28.543 l 0,-156.957 c 0,-15.765 -12.988,-28.539 -29.016,-28.539 l -522.453,0 C 13.277,1.078 0.289,13.852 0.289,29.617 l 0,156.957 c 0,15.766 12.988,28.543 29.031,28.543 z" /></g></g></g></g></g></g><g
       id="g8793"><path
         id="path8795"
         style="fill:#154889;fill-opacity:1;fill-rule:nonzero;stroke:none"
         d="m 29.32,10.977 c -10.023,0 -18.144,7.989 -18.144,17.84 l 0,156.957 c 0,9.856 8.121,17.84 18.144,17.84 l 522.453,0 c 10.012,0 18.129,-7.984 18.129,-17.84 l 0,-156.957 c 0,-9.851 -8.117,-17.84 -18.129,-17.84" /><path
         id="path8797"
         style="fill:#ffffff;fill-opacity:1;fill-rule:nonzero;stroke:none"
         d="m 27.496,107.298 137.438,78.015 c 5.195,2.949 11.863,1.203 14.863,-3.914 1.441,-2.461 1.84,-5.383 1.086,-8.137 l -8.254,-30.296 380.953,0 0,-71.34 -380.953,0 8.254,-30.297 c 1.558,-5.715 -1.891,-11.586 -7.699,-13.121 -2.789,-0.727 -5.75,-0.344 -8.25,1.074" /><path
         id="path8799"
         style="fill:#000000;fill-opacity:1;fill-rule:nonzero;stroke:none"
         d="m 172.629,87.313 0,39.953 26.121,0 0,-5.699 -19.957,0 0,-11.414 17.047,0 0,-5.355 -17.047,0 0,-11.774 19.957,0 0,-5.711" /><path
         id="path8801"
         style="fill:#000000;fill-opacity:1;fill-rule:nonzero;stroke:none"
         d="m 212.531,121.567 -5.808,0 0,5.699 5.808,0 0,-5.699 z m -5.808,-34.254 0,28.555 5.808,0 0,-28.555" /><path
         id="path8803"
         style="fill:#000000;fill-opacity:1;fill-rule:nonzero;stroke:none"
         d="m 221.246,87.313 0,28.555 5.805,0 0,-3.231 c 3.398,4.141 9.562,4.778 13.781,1.43 2.289,-1.824 3.625,-4.574 3.625,-7.484 l 0,-19.27 -5.793,0 0,17.485 c 0,3.16 -2.605,5.711 -5.805,5.711 -3.214,0 -5.808,-2.551 -5.808,-5.711 l 0,-17.485" /><path
         id="path8805"
         style="fill:#000000;fill-opacity:1;fill-rule:nonzero;stroke:none"
         d="m 258.977,98.384 c 0,-3.149 2.593,-5.715 5.808,-5.715 3.199,0 5.805,2.566 5.805,5.715 l 0,6.414 c 0,3.16 -2.606,5.711 -5.805,5.711 -3.215,0 -5.808,-2.551 -5.808,-5.711 l 0,-6.414 z m -5.805,-11.071 0,39.953 5.805,0 0,-14.629 c 3.398,4.141 9.562,4.778 13.769,1.43 2.301,-1.824 3.649,-4.574 3.649,-7.484 l 0,-9.985 c 0,-5.332 -4.391,-9.628 -9.801,-9.628 -2.961,0 -5.766,1.308 -7.617,3.57 l 0,-3.227" /><path
         id="path8807"
         style="fill:#000000;fill-opacity:1;fill-rule:nonzero;stroke:none"
         d="m 300.332,99.809 -8.344,0 c -1.996,0 -3.625,-1.597 -3.625,-3.57 0,-1.969 1.629,-3.57 3.625,-3.57 l 4.723,0 c 2.008,0 3.621,1.601 3.621,3.57 l 0,3.57 z m 5.805,-12.496 -5.805,0 0,2.949 c -1.016,-1.812 -2.977,-2.949 -5.078,-2.949 l -3.621,0 c -4.817,0 -8.719,3.836 -8.719,8.571 0,4.734 3.902,8.554 8.719,8.554 l 8.699,0 0,2.86 c 0,1.558 -1.137,2.894 -2.695,3.16 -2.051,0.355 -4.153,0.355 -6.203,0 -1.028,-0.172 -1.907,-0.821 -2.368,-1.735 l -4.589,3.571 c 1.375,2 3.531,3.375 5.949,3.785 2.711,0.476 5.504,0.476 8.215,0 4.336,-0.742 7.496,-4.457 7.496,-8.781" /><path
         id="path8809"
         style="fill:#000000;fill-opacity:1;fill-rule:nonzero;stroke:none"
         d="m 314.855,87.313 0,39.953 5.805,0 0,-14.629 c 3.399,4.141 9.563,4.778 13.77,1.43 2.3,-1.824 3.633,-4.574 3.633,-7.484 l 0,-19.27 -5.79,0 0,17.485 c 0,3.16 -2.605,5.711 -5.808,5.711 -3.211,0 -5.805,-2.551 -5.805,-5.711 l 0,-17.485" /><path
         id="path8811"
         style="fill:#000000;fill-opacity:1;fill-rule:nonzero;stroke:none"
         d="m 346.781,87.313 0,28.555 5.793,0 0,-3.231 c 3.41,4.141 9.574,4.778 13.781,1.43 2.301,-1.824 3.649,-4.574 3.649,-7.484 l 0,-19.27 -5.805,0 0,17.485 c 0,3.16 -2.605,5.711 -5.82,5.711 -3.199,0 -5.805,-2.551 -5.805,-5.711 l 0,-17.485" /><path
         id="path8813"
         style="fill:#000000;fill-opacity:1;fill-rule:nonzero;stroke:none"
         d="m 376.523,91.887 4.102,4.047 c 3.383,-3.304 8.41,-4.375 12.895,-2.722 1.492,0.554 2.246,2.195 1.691,3.675 -0.41,1.043 -1.402,1.774 -2.539,1.84 l -6.164,0.383 c -4.801,0.289 -8.449,4.363 -8.145,9.07 0.242,3.758 2.934,6.918 6.653,7.805 5.41,1.27 11.109,0.012 15.461,-3.387 l -3.625,-4.457 c -2.95,2.301 -6.813,3.149 -10.473,2.289 -1.563,-0.371 -2.527,-1.906 -2.16,-3.437 0.308,-1.219 1.379,-2.106 2.648,-2.184 l 6.16,-0.382 c 4.801,-0.293 8.453,-4.364 8.149,-9.086 -0.211,-3.36 -2.422,-6.297 -5.633,-7.473 -6.602,-2.434 -14.02,-0.871 -19.02,4.019" /><path
         id="path8815"
         style="fill:#000000;fill-opacity:1;fill-rule:nonzero;stroke:none"
         d="m 419.336,87.313 -3.625,0 c -3.598,0 -6.535,2.883 -6.535,6.426 l 0,17.484 -2.895,0 0,4.645 2.895,0 0,8.555 5.808,0 0,-8.555 4.352,0 0,-4.645 -4.352,0 0,-16.769 c 0,-0.992 0.801,-1.785 1.813,-1.785 l 2.539,0" /><path
         id="path8817"
         style="fill:#000000;fill-opacity:1;fill-rule:nonzero;stroke:none"
         d="m 427.309,87.313 0,28.555 5.82,0 0,-3.231 c 3.398,4.141 9.562,4.778 13.781,1.43 l -4.129,-5.012 c -2.39,2.102 -6.054,1.891 -8.183,-0.46 -0.942,-1.047 -1.469,-2.395 -1.469,-3.797 l 0,-17.485" /><path
         id="path8819"
         style="fill:#000000;fill-opacity:1;fill-rule:nonzero;stroke:none"
         d="m 467.223,99.809 -8.344,0 c -2,0 -3.625,-1.597 -3.625,-3.57 0,-1.969 1.625,-3.57 3.625,-3.57 l 4.719,0 c 2.011,0 3.625,1.601 3.625,3.57 l 0,3.57 z m 5.82,-12.496 -5.82,0 0,2.949 c -1.016,-1.812 -2.961,-2.949 -5.067,-2.949 l -3.636,0 c -4.813,0 -8.704,3.836 -8.704,8.571 0,4.734 3.891,8.554 8.704,8.554 l 8.703,0 0,2.86 c 0,1.558 -1.137,2.894 -2.7,3.16 -2.046,0.355 -4.152,0.355 -6.199,0 -1.039,-0.172 -1.906,-0.821 -2.355,-1.735 l -4.602,3.571 c 1.387,2 3.531,3.375 5.949,3.785 2.727,0.476 5.489,0.476 8.215,0 4.336,-0.742 7.512,-4.457 7.512,-8.781" /><path
         id="path8821"
         style="fill:#000000;fill-opacity:1;fill-rule:nonzero;stroke:none"
         d="m 481.742,87.313 0,31.395 c 0,3.691 2.395,6.957 5.953,8.121 3.676,1.203 7.645,1.203 11.321,0 3.547,-1.164 5.953,-4.43 5.953,-8.121 l 0,-1.071 c 0,-2.55 -1.641,-4.839 -4.086,-5.699 2.445,-0.871 4.086,-3.16 4.086,-5.715 l 0,-11.054 c 0,-4.34 -3.586,-7.856 -7.989,-7.856 l -3.625,0 0,5.356 2.899,0 c 1.598,0 2.91,1.281 2.91,2.855 l 0,10.699 c 0,1.575 -1.312,2.86 -2.91,2.86 l -3.625,0 0,5.34 3.625,0 c 1.598,0 2.91,1.285 2.91,2.859 l 0,1.426 c 0,1.23 -0.805,2.316 -2,2.715 -2.473,0.804 -5.144,0.804 -7.629,0 -1.191,-0.399 -1.984,-1.485 -1.984,-2.715 l 0,-31.395" /><path
         id="path8823"
         style="fill:#000000;fill-opacity:1;fill-rule:nonzero;stroke:none"
         d="m 518.75,104.438 12.34,0 c 0,3.36 -2.766,6.071 -6.164,6.071 -3.414,0 -6.176,-2.711 -6.176,-6.071 z m 18.145,-4.984 -18.145,0 0,-0.715 c 0,-2.484 1.531,-4.723 3.875,-5.633 3.227,-1.269 6.914,-0.383 9.176,2.207 l 4.406,-3.715 c -3.875,-4.445 -10.199,-5.964 -15.727,-3.796 l 0,0.011 c -4.562,1.774 -7.539,6.11 -7.539,10.922 l 0,5.703 c 0,6.504 5.356,11.77 11.985,11.77 6.613,0 11.969,-5.266 11.969,-11.77" /></g></g></svg>