<?xml version="1.0" encoding="UTF-8" standalone="no"?>
<svg
   xmlns:dc="http://purl.org/dc/elements/1.1/"
   xmlns:cc="http://creativecommons.org/ns#"
   xmlns:rdf="http://www.w3.org/1999/02/22-rdf-syntax-ns#"
   xmlns:svg="http://www.w3.org/2000/svg"
   xmlns="http://www.w3.org/2000/svg"
   viewBox="0 0 727 269"
   height="269"
   width="727"
   xml:space="preserve"
   version="1.1"
   id="svg8571"><metadata
     id="metadata8577"><rdf:RDF><cc:Work
         rdf:about=""><dc:format>image/svg+xml</dc:format><dc:type
           rdf:resource="http://purl.org/dc/dcmitype/StillImage" /><dc:title></dc:title></cc:Work></rdf:RDF></metadata><defs
     id="defs8575"><clipPath
       id="clipPath8585"
       clipPathUnits="userSpaceOnUse"><path
         id="path8587"
         d="m 0,214.606 582,0 0,-215 -582,0 0,215 z" /></clipPath><clipPath
       id="clipPath8593"
       clipPathUnits="userSpaceOnUse"><path
         id="path8595"
         d="M 0,0 582,0 582,216 0,216 0,0 Z" /></clipPath></defs><g
     transform="matrix(1.25,0,0,-1.25,0,269)"
     id="g8579"><g
       id="g8581"><g
         clip-path="url(#clipPath8585)"
         id="g8583"><g
           transform="translate(0,-0.800003)"
           id="g8589"><g
             id="g8591" /><g
             id="g8597"><g
               id="g8599"
               clip-path="url(#clipPath8593)"><g
                 id="g8601"><path
                   id="path8603"
                   style="fill:#ffffff;fill-opacity:1;fill-rule:nonzero;stroke:none"
                   d="M 29.32,1.078 C 13.277,1.078 0.289,13.852 0.289,29.617 l 0,156.957 c 0,15.766 12.988,28.543 29.031,28.543 l 522.453,0 c 16.028,0 29.016,-12.777 29.016,-28.543 l 0,-156.957 c 0,-15.765 -12.988,-28.539 -29.016,-28.539" /><path
                   id="path8605"
                   style="fill:#000000;fill-opacity:1;fill-rule:nonzero;stroke:none"
                   d="M 29.32,215.406 C 13.16,215.406 0,202.473 0,186.574 L 0,29.617 C 0,13.719 13.16,0.801 29.32,0.801 l 522.453,0 c 16.149,0 29.305,12.918 29.305,28.816 l 0,156.957 c 0,15.899 -13.156,28.832 -29.305,28.832 l -522.453,0 z m 0,-0.289 522.453,0 c 16.028,0 29.016,-12.777 29.016,-28.543 l 0,-156.957 c 0,-15.765 -12.988,-28.539 -29.016,-28.539 l -522.453,0 C 13.277,1.078 0.289,13.852 0.289,29.617 l 0,156.957 c 0,15.766 12.988,28.543 29.031,28.543 z" /></g></g></g></g></g></g><g
       id="g8607"><path
         id="path8609"
         style="fill:#154889;fill-opacity:1;fill-rule:nonzero;stroke:none"
         d="m 29.32,10.977 c -10.023,0 -18.144,7.989 -18.144,17.84 l 0,156.957 c 0,9.856 8.121,17.84 18.144,17.84 l 522.453,0 c 10.012,0 18.129,-7.984 18.129,-17.84 l 0,-156.957 c 0,-9.851 -8.117,-17.84 -18.129,-17.84" /><path
         id="path8611"
         style="fill:#ffffff;fill-opacity:1;fill-rule:nonzero;stroke:none"
         d="M 558.574,107.305 421.148,27.958 c -5.214,-2.996 -11.867,-1.223 -14.863,3.992 -1.449,2.496 -1.84,5.469 -1.101,8.25 l 8.265,30.824 -380.961,0 0,72.567 380.961,0 -8.265,30.812 c -1.547,5.805 1.894,11.785 7.699,13.328 2.797,0.754 5.765,0.364 8.265,-1.09" /><path
         id="path8613"
         style="fill:#000000;fill-opacity:1;fill-rule:nonzero;stroke:none"
         d="m 49.18,86.989 0,40.637 26.121,0 0,-5.805 -19.953,0 0,-11.613 17.05,0 0,-5.442 -17.05,0 0,-11.972 19.953,0 0,-5.805" /><path
         id="path8615"
         style="fill:#000000;fill-opacity:1;fill-rule:nonzero;stroke:none"
         d="m 89.09,121.821 -5.805,0 0,5.805 5.805,0 0,-5.805 z m -5.805,-34.832 0,29.027 5.805,0 0,-29.027" /><path
         id="path8617"
         style="fill:#000000;fill-opacity:1;fill-rule:nonzero;stroke:none"
         d="m 97.797,86.989 0,29.027 5.805,0 0,-3.281 c 3.398,4.207 9.566,4.863 13.773,1.465 2.297,-1.867 3.641,-4.664 3.641,-7.617 l 0,-19.594 -5.805,0 0,17.777 c 0,3.2 -2.594,5.805 -5.805,5.805 -3.211,0 -5.804,-2.605 -5.804,-5.805 l 0,-17.777" /><path
         id="path8619"
         style="fill:#000000;fill-opacity:1;fill-rule:nonzero;stroke:none"
         d="m 135.531,98.235 c 0,-3.195 2.59,-5.805 5.805,-5.805 3.211,0 5.805,2.61 5.805,5.805 l 0,6.531 c 0,3.2 -2.594,5.805 -5.805,5.805 -3.215,0 -5.805,-2.605 -5.805,-5.805 l 0,-6.531 z m -5.808,-11.246 0,40.637 5.808,0 0,-14.891 c 3.399,4.207 9.567,4.863 13.774,1.465 2.297,-1.867 3.64,-4.664 3.64,-7.617 l 0,-10.16 c 0,-5.414 -4.382,-9.797 -9.797,-9.797 -2.957,0 -5.765,1.332 -7.617,3.64 l 0,-3.277" /><path
         id="path8621"
         style="fill:#000000;fill-opacity:1;fill-rule:nonzero;stroke:none"
         d="m 176.891,99.688 -8.344,0 c -2.004,0 -3.629,-1.625 -3.629,-3.629 0,-2 1.625,-3.629 3.629,-3.629 l 4.715,0 c 2.004,0 3.629,1.629 3.629,3.629 l 0,3.629 z m 5.804,-12.699 -5.804,0 0,2.996 c -1.02,-1.855 -2.969,-2.996 -5.078,-2.996 l -3.629,0 c -4.813,0 -8.707,3.898 -8.707,8.707 0,4.813 3.894,8.707 8.707,8.707 l 8.707,0 0,2.902 c 0,1.586 -1.141,2.946 -2.7,3.215 -2.058,0.36 -4.152,0.36 -6.211,0 -1.019,-0.175 -1.894,-0.836 -2.363,-1.761 l -4.582,3.628 c 1.371,2.043 3.52,3.426 5.953,3.856 2.715,0.469 5.481,0.469 8.196,0 4.339,-0.766 7.511,-4.527 7.511,-8.938" /><path
         id="path8623"
         style="fill:#000000;fill-opacity:1;fill-rule:nonzero;stroke:none"
         d="m 191.402,86.989 0,40.637 5.805,0 0,-14.891 c 3.402,4.207 9.57,4.863 13.773,1.465 2.301,-1.867 3.645,-4.664 3.645,-7.617 l 0,-19.594 -5.805,0 0,17.777 c 0,3.2 -2.593,5.805 -5.808,5.805 -3.211,0 -5.805,-2.605 -5.805,-5.805 l 0,-17.777" /><path
         id="path8625"
         style="fill:#000000;fill-opacity:1;fill-rule:nonzero;stroke:none"
         d="m 223.332,86.989 0,29.027 5.805,0 0,-3.281 c 3.398,4.207 9.566,4.863 13.773,1.465 2.297,-1.867 3.641,-4.664 3.641,-7.617 l 0,-19.594 -5.805,0 0,17.777 c 0,3.2 -2.605,5.805 -5.805,5.805 -3.211,0 -5.804,-2.605 -5.804,-5.805 l 0,-17.777" /><path
         id="path8627"
         style="fill:#000000;fill-opacity:1;fill-rule:nonzero;stroke:none"
         d="m 253.082,91.626 4.098,4.125 c 3.386,-3.371 8.414,-4.449 12.886,-2.77 1.493,0.567 2.258,2.231 1.696,3.739 -0.403,1.058 -1.387,1.8 -2.539,1.867 l -6.157,0.39 c -4.812,0.293 -8.453,4.434 -8.156,9.231 0.242,3.816 2.942,7.039 6.664,7.929 5.403,1.29 11.102,0.024 15.453,-3.441 l -3.613,-4.543 c -2.957,2.352 -6.828,3.211 -10.48,2.34 -1.559,-0.379 -2.528,-1.938 -2.153,-3.496 0.297,-1.25 1.371,-2.149 2.649,-2.231 l 6.168,-0.375 c 4.797,-0.308 8.437,-4.433 8.144,-9.246 -0.215,-3.414 -2.422,-6.394 -5.633,-7.605 -6.597,-2.473 -14.027,-0.871 -19.027,4.086" /><path
         id="path8629"
         style="fill:#000000;fill-opacity:1;fill-rule:nonzero;stroke:none"
         d="m 295.895,86.989 -3.629,0 c -3.602,0 -6.532,2.93 -6.532,6.531 l 0,17.778 -2.902,0 0,4.718 2.902,0 0,8.707 5.805,0 0,-8.707 4.356,0 0,-4.718 -4.356,0 0,-17.051 c 0,-1.008 0.82,-1.817 1.816,-1.817 l 2.54,0" /><path
         id="path8631"
         style="fill:#000000;fill-opacity:1;fill-rule:nonzero;stroke:none"
         d="m 303.875,86.989 0,29.027 5.809,0 0,-3.281 c 3.398,4.207 9.566,4.863 13.773,1.465 0.012,0 0.012,-0.012 0.012,-0.012 l -4.125,-5.082 c -2.391,2.125 -6.063,1.91 -8.196,-0.48 -0.941,-1.063 -1.464,-2.434 -1.464,-3.86 l 0,-17.777" /><path
         id="path8633"
         style="fill:#000000;fill-opacity:1;fill-rule:nonzero;stroke:none"
         d="m 343.785,99.688 -8.344,0 c -2,0 -3.628,-1.625 -3.628,-3.629 0,-2 1.628,-3.629 3.628,-3.629 l 4.719,0 c 2,0 3.625,1.629 3.625,3.629 l 0,3.629 z m 5.809,-12.699 -5.809,0 0,2.996 c -1.019,-1.855 -2.969,-2.996 -5.078,-2.996 l -3.629,0 c -4.808,0 -8.707,3.898 -8.707,8.707 0,4.813 3.899,8.707 8.707,8.707 l 8.707,0 0,2.902 c 0,1.586 -1.14,2.946 -2.699,3.215 -2.055,0.36 -4.152,0.36 -6.207,0 -1.024,-0.175 -1.895,-0.836 -2.367,-1.761 l -4.582,3.628 c 1.371,2.043 3.519,3.426 5.953,3.856 2.715,0.469 5.484,0.469 8.199,0 4.352,-0.766 7.512,-4.527 7.512,-8.938" /><path
         id="path8635"
         style="fill:#000000;fill-opacity:1;fill-rule:nonzero;stroke:none"
         d="m 358.301,86.989 0,31.93 c 0,3.746 2.39,7.066 5.953,8.261 3.668,1.223 7.644,1.223 11.312,0 3.547,-1.195 5.954,-4.515 5.954,-8.261 l 0,-1.09 c 0,-2.606 -1.641,-4.934 -4.086,-5.805 2.445,-0.887 4.086,-3.199 4.086,-5.804 l 0,-11.25 c 0,-4.407 -3.575,-7.981 -7.981,-7.981 l -3.629,0 0,5.441 2.903,0 c 1.597,0 2.902,1.305 2.902,2.903 l 0,10.887 c 0,1.597 -1.305,2.902 -2.902,2.902 l -3.629,0 0,5.441 3.629,0 c 1.597,0 2.902,1.305 2.902,2.903 l 0,1.453 c 0,1.25 -0.793,2.351 -1.988,2.754 -2.473,0.82 -5.161,0.82 -7.633,0 -1.196,-0.403 -1.989,-1.504 -1.989,-2.754 l 0,-31.93" /><path
         id="path8637"
         style="fill:#000000;fill-opacity:1;fill-rule:nonzero;stroke:none"
         d="m 395.309,104.403 12.336,0 c 0,3.414 -2.77,6.168 -6.168,6.168 -3.403,0 -6.168,-2.754 -6.168,-6.168 z m 18.14,-5.078 -18.14,0 0,-0.727 c 0,-2.523 1.531,-4.796 3.882,-5.722 3.223,-1.289 6.907,-0.391 9.176,2.242 l 4.41,-3.773 c -3.886,-4.532 -10.214,-6.075 -15.75,-3.86 -4.543,1.817 -7.527,6.223 -7.527,11.113 l 0,5.805 c 0,6.613 5.363,11.973 11.977,11.973 6.609,0 11.972,-5.36 11.972,-11.973" /></g></g></svg>