<?xml version="1.0" encoding="UTF-8" standalone="no"?>
<svg
   xmlns:dc="http://purl.org/dc/elements/1.1/"
   xmlns:cc="http://creativecommons.org/ns#"
   xmlns:rdf="http://www.w3.org/1999/02/22-rdf-syntax-ns#"
   xmlns:svg="http://www.w3.org/2000/svg"
   xmlns="http://www.w3.org/2000/svg"
   viewBox="0 0 602.29999 602.29999"
   height="602.29999"
   width="602.29999"
   xml:space="preserve"
   version="1.1"
   id="svg8883"><metadata
     id="metadata8889"><rdf:RDF><cc:Work
         rdf:about=""><dc:format>image/svg+xml</dc:format><dc:type
           rdf:resource="http://purl.org/dc/dcmitype/StillImage" /><dc:title></dc:title></cc:Work></rdf:RDF></metadata><defs
     id="defs8887" /><g
     transform="matrix(1.25,0,0,-1.25,0,602.29999)"
     id="g8891"><g
       id="g8893"><path
         id="path8895"
         style="fill:#000000;fill-opacity:1;fill-rule:evenodd;stroke:none"
         d="m 410.824,410.777 c 31.278,-31.277 50.75,-64.996 62.203,-107.726 11.453,-42.77 11.453,-81.715 0,-124.484 C 461.578,135.836 442.086,102.098 410.789,70.801 379.512,39.524 345.789,20.047 303.039,8.578 260.293,-2.855 221.324,-2.871 178.578,8.598 135.844,20.051 102.125,39.524 70.848,70.801 39.551,102.098 20.059,135.836 8.59,178.586 c -11.453,42.731 -11.453,81.715 0,124.445 11.469,42.746 30.941,76.469 62.223,107.746 31.292,31.297 65.035,50.79 107.761,62.243 42.75,11.468 81.719,11.453 124.469,0.019 42.746,-11.472 76.484,-30.961 107.781,-62.262 z m -0.281,-0.281 C 379.289,441.75 345.629,461.199 302.938,472.652 260.246,484.07 221.367,484.09 178.68,472.633 136.004,461.195 102.348,441.75 71.094,410.496 39.859,379.258 20.426,345.617 8.973,302.93 -2.461,260.258 -2.461,221.363 8.977,178.692 20.43,136 39.879,102.34 71.133,71.086 102.367,39.852 136.012,20.422 178.68,8.985 c 42.691,-11.454 81.566,-11.434 124.258,-0.02 42.691,11.453 76.332,30.883 107.57,62.117 31.254,31.254 50.699,64.914 62.133,107.59 11.437,42.707 11.437,81.566 0,124.273 -11.43,42.672 -30.864,76.317 -62.098,107.551 z" /><path
         id="path8897"
         style="fill:#ffffff;fill-opacity:1;fill-rule:evenodd;stroke:none"
         d="m 71.094,410.496 c 31.254,31.254 64.91,50.699 107.586,62.137 42.687,11.457 81.566,11.437 124.258,0.019 42.691,-11.457 76.351,-30.902 107.605,-62.156 31.238,-31.234 50.668,-64.879 62.098,-107.551 11.437,-42.707 11.437,-81.57 0.004,-124.277 C 461.207,135.996 441.762,102.336 410.508,71.082 379.27,39.848 345.629,20.418 302.941,8.965 260.25,-2.453 221.371,-2.469 178.68,8.985 136.012,20.422 102.371,39.848 71.133,71.086 39.879,102.34 20.434,136 8.977,178.692 c -11.438,42.671 -11.438,81.566 0,124.242 11.449,42.683 30.882,76.324 62.117,107.562 z" /><path
         id="path8899"
         style="fill:#154889;fill-opacity:1;fill-rule:evenodd;stroke:none"
         d="m 79.035,402.594 c 29.77,29.769 61.867,48.32 102.555,59.195 40.683,10.914 77.777,10.914 118.445,0.02 40.684,-10.875 72.801,-29.442 102.59,-59.231 29.773,-29.773 48.281,-61.871 59.176,-102.535 10.894,-40.707 10.894,-77.762 0.004,-118.465 C 450.906,140.91 432.379,108.793 402.609,79.024 372.816,49.235 340.719,30.684 300.035,19.809 259.367,8.914 222.273,8.914 181.586,19.828 140.902,30.703 108.824,49.235 79.051,79.004 49.262,108.797 30.695,140.91 19.824,181.594 c -10.898,40.668 -10.898,77.762 0,118.43 10.871,40.683 29.422,72.781 59.211,102.57 z" /><path
         id="path8901"
         style="fill:#ffffff;fill-opacity:1;fill-rule:nonzero;stroke:none"
         d="M 323.766,314.649 323.691,193.434 130.668,386.457 95.203,350.992 288.422,157.774 l -121.277,-0.075 44.691,-44.691 156.832,-0.152 -7.895,7.683 7.836,-7.414 -0.168,156.848 -44.675,44.676 z" /></g></g></svg>