<?xml version="1.0" encoding="UTF-8" standalone="no"?>
<svg
   xmlns:dc="http://purl.org/dc/elements/1.1/"
   xmlns:cc="http://creativecommons.org/ns#"
   xmlns:rdf="http://www.w3.org/1999/02/22-rdf-syntax-ns#"
   xmlns:svg="http://www.w3.org/2000/svg"
   xmlns="http://www.w3.org/2000/svg"
   viewBox="0 0 602.02197 602.02386"
   height="602.02386"
   width="602.02197"
   xml:space="preserve"
   id="svg5640"
   version="1.1"><metadata
     id="metadata5646"><rdf:RDF><cc:Work
         rdf:about=""><dc:format>image/svg+xml</dc:format><dc:type
           rdf:resource="http://purl.org/dc/dcmitype/StillImage" /><dc:title></dc:title></cc:Work></rdf:RDF></metadata><defs
     id="defs5644" /><g
     transform="matrix(1.3333333,0,0,-1.3333333,0,602.02389)"
     id="g5648"><g
       id="g5650"><path
         id="path5652"
         style="fill:#000000;fill-opacity:1;fill-rule:evenodd;stroke:none"
         d="m 385.148,385.104 c 29.325,-29.32 47.579,-60.934 58.317,-100.992 10.734,-40.098 10.734,-76.61 0,-116.703 C 432.73,127.346 414.457,95.717 385.117,66.377 355.793,37.053 324.176,18.795 284.098,8.041 244.023,-2.677 207.492,-2.693 167.418,8.061 c -40.063,10.738 -71.676,28.992 -101,58.316 -29.34,29.34 -47.613,60.969 -58.363,101.047 -10.739,40.063 -10.739,76.61 0,116.668 10.75,40.074 29.004,71.692 58.332,101.012 29.336,29.34 60.972,47.617 101.027,58.355 40.078,10.75 76.609,10.735 116.688,0.016 40.074,-10.754 71.707,-29.027 101.046,-58.371 z m -0.265,-0.262 c -29.297,29.301 -60.856,47.531 -100.879,58.27 -40.024,10.707 -76.473,10.722 -116.492,-0.016 C 127.504,432.373 95.953,414.143 66.652,384.842 37.367,355.557 19.148,324.018 8.41,283.998 -2.309,243.994 -2.309,207.53 8.414,167.526 19.152,127.502 37.387,95.944 66.688,66.643 95.969,37.362 127.512,19.147 167.512,8.424 207.535,-2.314 243.98,-2.295 284.004,8.405 c 40.023,10.738 71.562,28.953 100.848,58.234 29.3,29.301 47.531,60.859 58.25,100.867 10.722,40.039 10.722,76.469 0,116.504 -10.715,40.008 -28.934,71.551 -58.219,100.832 z" /><path
         id="path5654"
         style="fill:#ffffff;fill-opacity:1;fill-rule:evenodd;stroke:none"
         d="m 66.652,384.842 c 29.301,29.301 60.852,47.531 100.86,58.254 40.019,10.738 76.468,10.723 116.492,0.016 40.023,-10.739 71.582,-28.969 100.879,-58.27 29.289,-29.281 47.504,-60.824 58.219,-100.832 10.722,-40.035 10.722,-76.469 0.003,-116.508 C 432.383,127.498 414.152,95.94 384.852,66.639 355.566,37.358 324.027,19.143 284.008,8.405 243.984,-2.298 207.535,-2.314 167.512,8.424 127.512,19.147 95.973,37.358 66.688,66.643 37.387,95.944 19.156,127.502 8.414,167.526 c -10.723,40.004 -10.723,76.468 0,116.476 10.734,40.016 28.953,71.555 58.238,100.84 z" /><path
         id="path5656"
         style="fill:#154889;fill-opacity:1;fill-rule:evenodd;stroke:none"
         d="m 74.094,377.432 c 27.91,27.91 58,45.301 96.148,55.496 38.141,10.231 72.914,10.231 111.043,0.02 38.141,-10.196 68.25,-27.602 96.176,-55.532 27.914,-27.91 45.266,-58.004 55.477,-96.125 10.214,-38.164 10.214,-72.902 0.003,-111.062 C 422.727,132.104 405.355,101.994 377.445,74.084 349.516,46.159 319.426,28.768 281.285,18.573 243.156,8.358 208.383,8.358 170.238,18.588 132.094,28.784 102.023,46.159 74.109,74.065 c -27.925,27.933 -45.332,58.039 -55.523,96.179 -10.219,38.125 -10.219,72.903 0,111.028 10.191,38.14 27.582,68.234 55.508,96.16 z" /><path
         id="path5658"
         style="fill:#ffffff;fill-opacity:1;fill-rule:nonzero;stroke:none"
         d="m 342.988,136.233 c -27.863,-7.188 -56.285,9.57 -63.476,37.433 h 53.703 c 0.922,0 1.816,0.196 2.648,0.559 3.289,1.465 4.77,5.312 3.289,8.602 l -24.027,53.792 c 0.602,0.192 1.203,0.352 1.809,0.512 27.851,7.192 56.273,-9.558 63.476,-37.422 7.188,-27.863 -9.57,-56.285 -37.422,-63.472 z m -39.8,95.152 19.98,-44.703 h -45.316 c 0,18.316 9.636,35.293 25.336,44.703 z m -38.352,-44.703 h -13.027 l 32.562,86.832 13.492,-30.172 c -20.41,-11.558 -33.027,-33.199 -33.027,-56.66 z m -26.68,0.695 -81.554,90.473 h 115.48 z m -69.14,-22.199 c -11.879,-26.215 -42.746,-37.82 -68.961,-25.953 -26.203,11.879 -37.821,42.758 -25.942,68.961 9.821,21.672 33.086,33.937 56.512,29.797 l -15.277,-49.367 c -1.075,-3.45 0.851,-7.09 4.289,-8.157 3.433,-1.058 7.086,0.864 8.144,4.289 l 15.293,49.379 c 26.199,-11.867 37.817,-42.746 25.942,-68.949 z m 222.859,41.688 c -11.148,34.199 -47.91,52.882 -82.098,41.73 l -18.898,42.281 4.891,13.028 h 14.656 v 13.015 h -55.352 c -1.511,0 -2.824,-1.023 -3.176,-2.492 -0.421,-1.754 0.665,-3.504 2.415,-3.926 l 27.542,-6.601 -4.878,-13.024 H 160.641 l 5.222,16.871 c 1.696,5.461 6.735,9.172 12.446,9.172 h 21.402 v 13.028 h -21.402 c -11.422,0 -21.512,-7.43 -24.883,-18.344 l -18.918,-61.106 c -30.356,6.164 -60.848,-9.91 -72.918,-38.433 -14.02,-33.121 1.48,-71.34 34.598,-85.356 33.121,-14.015 71.335,1.469 85.355,34.586 14.016,33.121 -1.469,71.34 -34.602,85.356 l 5.18,16.726 76.988,-85.422 c 2.473,-2.742 5.985,-4.289 9.672,-4.289 h 27.375 c 0.489,-2.437 1.125,-4.824 1.891,-7.168 11.148,-34.203 47.91,-52.886 82.098,-41.734 34.203,11.137 52.871,47.898 41.734,82.102" /></g></g></svg>