<?xml version="1.0" encoding="UTF-8" standalone="no"?>
<svg
   xmlns:dc="http://purl.org/dc/elements/1.1/"
   xmlns:cc="http://creativecommons.org/ns#"
   xmlns:rdf="http://www.w3.org/1999/02/22-rdf-syntax-ns#"
   xmlns:svg="http://www.w3.org/2000/svg"
   xmlns="http://www.w3.org/2000/svg"
   viewBox="0 0 602.29999 602.29999"
   height="602.29999"
   width="602.29999"
   xml:space="preserve"
   version="1.1"
   id="svg5303"><metadata
     id="metadata5309"><rdf:RDF><cc:Work
         rdf:about=""><dc:format>image/svg+xml</dc:format><dc:type
           rdf:resource="http://purl.org/dc/dcmitype/StillImage" /><dc:title></dc:title></cc:Work></rdf:RDF></metadata><defs
     id="defs5307" /><g
     transform="matrix(1.25,0,0,-1.25,0,602.29999)"
     id="g5311"><g
       id="g5313"><path
         id="path5315"
         style="fill:#000000;fill-opacity:1;fill-rule:evenodd;stroke:none"
         d="m 410.824,410.777 c 31.278,-31.277 50.75,-64.996 62.203,-107.726 11.453,-42.77 11.453,-81.715 0,-124.484 C 461.578,135.836 442.086,102.098 410.789,70.801 379.512,39.524 345.789,20.047 303.039,8.578 260.293,-2.855 221.324,-2.871 178.578,8.598 135.844,20.051 102.125,39.524 70.848,70.801 39.551,102.098 20.059,135.836 8.59,178.586 c -11.453,42.731 -11.453,81.715 0,124.445 11.469,42.746 30.941,76.469 62.223,107.746 31.292,31.297 65.035,50.79 107.761,62.243 42.75,11.468 81.719,11.453 124.469,0.019 42.746,-11.472 76.484,-30.961 107.781,-62.262 z m -0.281,-0.281 C 379.289,441.75 345.629,461.199 302.938,472.652 260.246,484.07 221.367,484.09 178.68,472.633 136.004,461.195 102.348,441.75 71.094,410.496 39.859,379.258 20.426,345.617 8.973,302.93 -2.461,260.258 -2.461,221.363 8.977,178.692 20.43,136 39.879,102.34 71.133,71.086 102.367,39.852 136.012,20.422 178.68,8.985 c 42.691,-11.454 81.566,-11.434 124.258,-0.02 42.691,11.453 76.332,30.883 107.57,62.117 31.254,31.254 50.699,64.914 62.133,107.59 11.437,42.707 11.437,81.566 0,124.273 -11.43,42.672 -30.864,76.317 -62.098,107.551 z" /><path
         id="path5317"
         style="fill:#ffffff;fill-opacity:1;fill-rule:evenodd;stroke:none"
         d="m 71.094,410.496 c 31.254,31.254 64.91,50.699 107.586,62.137 42.687,11.457 81.566,11.437 124.258,0.019 42.691,-11.457 76.351,-30.902 107.605,-62.156 31.238,-31.234 50.668,-64.879 62.098,-107.551 11.437,-42.707 11.437,-81.57 0.004,-124.277 C 461.207,135.996 441.762,102.336 410.508,71.082 379.27,39.848 345.629,20.418 302.941,8.965 260.25,-2.453 221.371,-2.469 178.68,8.985 136.012,20.422 102.371,39.848 71.133,71.086 39.879,102.34 20.434,136 8.977,178.692 c -11.438,42.671 -11.438,81.566 0,124.242 11.449,42.683 30.882,76.324 62.117,107.562 z" /><path
         id="path5319"
         style="fill:#154889;fill-opacity:1;fill-rule:evenodd;stroke:none"
         d="m 79.035,402.594 c 29.77,29.769 61.867,48.32 102.555,59.195 40.683,10.914 77.777,10.914 118.445,0.02 40.684,-10.875 72.801,-29.442 102.59,-59.231 29.773,-29.773 48.281,-61.871 59.176,-102.535 10.894,-40.707 10.894,-77.762 0.004,-118.465 C 450.906,140.91 432.379,108.793 402.609,79.024 372.816,49.235 340.719,30.684 300.035,19.809 259.367,8.914 222.273,8.914 181.586,19.828 140.902,30.703 108.824,49.235 79.051,79.004 49.262,108.797 30.695,140.91 19.824,181.594 c -10.898,40.668 -10.898,77.762 0,118.43 10.871,40.683 29.422,72.781 59.211,102.57 z" /><path
         id="path5321"
         style="fill:#ffffff;fill-opacity:1;fill-rule:nonzero;stroke:none"
         d="m 324.941,250.996 c 0,13.117 -10.644,23.774 -23.773,23.774 -13.133,0 -23.777,-10.657 -23.777,-23.774 0,-13.133 10.644,-23.785 23.777,-23.785 13.129,0 23.773,10.652 23.773,23.785 z M 209.48,390.231 c 0,-15 -12.171,-27.172 -27.171,-27.172 -15,0 -27.176,12.172 -27.176,27.172 0,15.004 12.176,27.164 27.176,27.164 15,0 27.171,-12.16 27.171,-27.164 z m -54.347,-138.579 4.769,4.684 c 1.301,1.285 2.028,3.024 2.028,4.844 l 0,50.945 c 0,1.867 -1.516,3.387 -3.399,3.387 -1.867,0 -3.398,-1.52 -3.398,-3.387 l 0,-60.473 z m -40.75,-78.761 c 3.906,26.004 15.191,50.351 32.523,70.133 -7.816,8.726 -12.148,20.023 -12.148,31.746 l 0,27.16 c 0,26.262 21.285,47.551 47.551,47.551 17.73,0 33.98,-9.868 42.171,-25.594 l 28.227,-54.215 c 4.078,-7.863 2.633,-17.461 -3.605,-23.75 l 28.046,-23.531 c 9.504,-7.985 22.344,-10.727 34.286,-7.317 l 5.023,1.446 c 5.195,1.465 10.777,-0.27 14.211,-4.446 l 34.551,-41.988 c 5.875,-7.137 4.965,-17.672 -2.063,-23.68 l -31.418,36.664 10.18,-50.945 -13.02,-1.918 7.829,-49.383 c 0.738,-4.636 -2.442,-8.98 -7.067,-9.718 -4.512,-0.704 -8.785,2.281 -9.66,6.757 l -9.633,49.59 -11.008,-1.629 -5.023,-53.906 c -0.426,-4.672 -4.566,-8.105 -9.238,-7.672 -4.551,0.426 -7.95,4.383 -7.68,8.946 l 6.77,116.675 -48.36,45.727 c -4.504,6.312 -4.164,14.867 0.813,20.805 l -30.11,57.851 c -0.523,0.981 -1.75,1.383 -2.742,0.86 -0.68,-0.352 -1.105,-1.055 -1.105,-1.809 l 0,-52.121 c 0,-1.82 0.726,-3.559 2.027,-4.844 l 6.031,-5.934 c 21.215,-20.875 35.071,-48.082 39.488,-77.511 l -135.847,0 z m 71.32,-6.797 20.379,0 0,-91.688 c 0,-5.632 -4.562,-10.195 -10.195,-10.195 -5.617,0 -10.184,4.563 -10.184,10.195 l 0,91.688 z m -27.172,0 20.379,0 0,-71.313 c 0,-5.629 -4.566,-10.195 -10.183,-10.195 -5.633,0 -10.196,4.566 -10.196,10.195" /></g></g></svg>