<?xml version="1.0" encoding="UTF-8" standalone="no"?>
<!-- Created with Inkscape (http://www.inkscape.org/) -->

<svg
   xmlns:dc="http://purl.org/dc/elements/1.1/"
   xmlns:cc="http://creativecommons.org/ns#"
   xmlns:rdf="http://www.w3.org/1999/02/22-rdf-syntax-ns#"
   xmlns:svg="http://www.w3.org/2000/svg"
   xmlns="http://www.w3.org/2000/svg"
   xmlns:sodipodi="http://sodipodi.sourceforge.net/DTD/sodipodi-0.dtd"
   xmlns:inkscape="http://www.inkscape.org/namespaces/inkscape"
   version="1.1"
   id="svg5547"
   xml:space="preserve"
   width="602.02063"
   height="602.02252"
   viewBox="0 0 602.02063 602.02252"
   sodipodi:docname="Zeichnung.svg"
   inkscape:version="0.92.0 r15299"><metadata
     id="metadata5553"><rdf:RDF><cc:Work
         rdf:about=""><dc:format>image/svg+xml</dc:format><dc:type
           rdf:resource="http://purl.org/dc/dcmitype/StillImage" /><dc:title></dc:title></cc:Work></rdf:RDF></metadata><defs
     id="defs5551" /><sodipodi:namedview
     pagecolor="#ffffff"
     bordercolor="#666666"
     borderopacity="1"
     objecttolerance="10"
     gridtolerance="10"
     guidetolerance="10"
     inkscape:pageopacity="0"
     inkscape:pageshadow="2"
     inkscape:window-width="640"
     inkscape:window-height="480"
     id="namedview5549"
     showgrid="false"
     inkscape:zoom="0.39201191"
     inkscape:cx="301.01031"
     inkscape:cy="301.01126"
     inkscape:window-x="0"
     inkscape:window-y="0"
     inkscape:window-maximized="0"
     inkscape:current-layer="g5555" /><g
     id="g5555"
     inkscape:groupmode="layer"
     inkscape:label="Zeichnung"
     transform="matrix(1.3333333,0,0,-1.3333333,0,602.02254)"><g
       id="g5557"><path
         d="m 385.148,385.103 c 29.321,-29.32 47.579,-60.934 58.313,-100.992 10.738,-40.098 10.738,-76.61 0,-116.703 C 432.73,127.345 414.457,95.716 385.113,66.376 355.793,37.052 324.176,18.794 284.098,8.04 244.023,-2.674 207.492,-2.69 167.418,8.06 c -40.063,10.738 -71.676,28.992 -101,58.316 -29.34,29.34 -47.613,60.969 -58.363,101.047 -10.739,40.063 -10.739,76.61 0,116.668 10.75,40.074 29.004,71.692 58.332,101.012 29.336,29.34 60.968,47.617 101.027,58.355 40.078,10.75 76.609,10.735 116.688,0.016 40.074,-10.754 71.703,-29.027 101.046,-58.371 z m -0.265,-0.262 c -29.301,29.301 -60.856,47.531 -100.879,58.27 -40.024,10.707 -76.473,10.722 -116.492,-0.016 C 127.504,432.372 95.949,414.142 66.648,384.841 37.367,355.556 19.148,324.017 8.41,283.997 -2.309,243.993 -2.309,207.529 8.414,167.525 19.152,127.501 37.387,95.943 66.688,66.642 95.969,37.361 127.512,19.146 167.512,8.423 207.535,-2.315 243.98,-2.296 284.004,8.404 c 40.023,10.738 71.562,28.953 100.848,58.234 29.3,29.301 47.531,60.859 58.25,100.867 10.722,40.039 10.722,76.469 0,116.508 -10.715,40.004 -28.938,71.547 -58.219,100.828 z"
         style="fill:#000000;fill-opacity:1;fill-rule:evenodd;stroke:none"
         id="path5559"
         inkscape:connector-curvature="0" /><path
         d="m 66.648,384.841 c 29.301,29.301 60.856,47.531 100.864,58.254 40.019,10.738 76.468,10.723 116.492,0.016 40.023,-10.739 71.578,-28.969 100.879,-58.27 29.285,-29.281 47.504,-60.824 58.219,-100.828 10.722,-40.039 10.722,-76.473 0.003,-116.512 C 432.383,127.497 414.152,95.939 384.852,66.638 355.566,37.357 324.027,19.142 284.008,8.404 243.984,-2.299 207.535,-2.315 167.512,8.423 127.512,19.146 95.973,37.357 66.688,66.642 37.387,95.943 19.156,127.501 8.414,167.525 c -10.723,40.004 -10.723,76.468 0,116.476 10.734,40.016 28.953,71.555 58.234,100.84 z"
         style="fill:#ffffff;fill-opacity:1;fill-rule:evenodd;stroke:none"
         id="path5561"
         inkscape:connector-curvature="0" /><path
         d="m 74.094,377.431 c 27.91,27.91 58,45.301 96.148,55.496 38.137,10.231 72.914,10.231 111.039,0.02 38.145,-10.196 68.254,-27.602 96.18,-55.532 27.91,-27.91 45.262,-58.004 55.477,-96.125 10.214,-38.164 10.214,-72.902 0.003,-111.062 C 422.723,132.103 405.355,101.993 377.445,74.083 349.516,46.158 319.426,28.767 281.281,18.572 243.156,8.357 208.379,8.357 170.238,18.587 132.094,28.783 102.023,46.158 74.109,74.068 c -27.925,27.929 -45.332,58.035 -55.523,96.175 -10.219,38.129 -10.219,72.903 0,111.028 10.191,38.14 27.582,68.234 55.508,96.16 z"
         style="fill:#154889;fill-opacity:1;fill-rule:evenodd;stroke:none"
         id="path5563"
         inkscape:connector-curvature="0" /><path
         d="m 37.605,218.224 h 376.309 v -7.496 H 37.605 Z"
         style="fill:#ffffff;fill-opacity:1;fill-rule:nonzero;stroke:none"
         id="path5565"
         inkscape:connector-curvature="0" /><path
         d="m 272.07,330.904 c 0,6.996 -5.668,12.664 -12.664,12.664 -6.996,0 -12.664,-5.668 -12.664,-12.664 0,-6.996 5.668,-12.664 12.664,-12.664 6.996,0 12.664,5.668 12.664,12.664 z m -61.507,74.168 c 0,-7.996 -6.485,-14.469 -14.473,-14.469 -7.985,0 -14.473,6.473 -14.473,14.469 0,7.988 6.488,14.472 14.473,14.472 7.988,0 14.473,-6.484 14.473,-14.472 z m -28.946,-73.817 2.539,2.492 c 0.696,0.684 1.082,1.614 1.082,2.582 v 27.133 c 0,1 -0.808,1.813 -1.808,1.813 -1,0 -1.813,-0.813 -1.813,-1.813 z M 159.91,289.294 c 2.082,13.86 8.09,26.828 17.328,37.364 -4.164,4.644 -6.472,10.664 -6.472,16.91 v 14.472 c 0,13.981 11.343,25.325 25.324,25.325 9.445,0 18.101,-5.258 22.473,-13.629 l 15.027,-28.887 c 2.176,-4.176 1.41,-9.297 -1.91,-12.641 l 14.925,-12.55 c 5.063,-4.247 11.915,-5.711 18.274,-3.891 l 2.672,0.762 c 2.765,0.797 5.746,-0.129 7.566,-2.356 l 18.41,-22.367 c 3.129,-3.801 2.637,-9.41 -1.105,-12.609 l -16.734,19.527 5.425,-27.137 -6.925,-1.023 4.152,-26.305 c 0.394,-2.465 -1.289,-4.789 -3.758,-5.176 -2.41,-0.379 -4.676,1.215 -5.141,3.606 l -5.144,26.406 -5.859,-0.863 -2.672,-28.715 c -0.227,-2.496 -2.434,-4.324 -4.914,-4.086 -2.422,0.227 -4.247,2.332 -4.098,4.766 l 3.605,62.144 -25.757,24.36 c -2.399,3.359 -2.219,7.917 0.433,11.082 l -16.043,30.812 c -0.258,0.535 -0.933,0.738 -1.469,0.465 -0.351,-0.192 -0.578,-0.555 -0.578,-0.965 v -27.762 c 0,-0.968 0.387,-1.898 1.078,-2.582 l 3.211,-3.164 c 11.309,-11.117 18.68,-25.613 21.036,-41.289 z m 37.988,-3.617 h 10.856 v -48.844 c 0,-2.992 -2.422,-5.425 -5.426,-5.425 -2.992,0 -5.43,2.433 -5.43,5.425 z m -14.472,0 h 10.855 v -37.988 c 0,-2.992 -2.422,-5.43 -5.426,-5.43 -2.992,0 -5.429,2.438 -5.429,5.43"
         style="fill:#ffffff;fill-opacity:1;fill-rule:nonzero;stroke:none"
         id="path5567"
         inkscape:connector-curvature="0" /><path
         d="m 305.109,64.681 c -18.386,-5.461 -37.714,5.02 -43.187,23.402 -0.129,0.41 -0.227,0.809 -0.324,1.219 h 35.793 c 2.402,0 4.336,1.941 4.336,4.332 0,0.613 -0.129,1.219 -0.375,1.774 l -16.02,35.863 c 18.387,5.461 37.719,-5.016 43.18,-23.403 5.461,-18.386 -5.02,-37.718 -23.407,-43.191 z m -27.726,63.102 13.324,-29.801 H 260.5 c 0,12.211 6.402,23.531 16.883,29.801 z M 251.805,97.982 h -8.68 l 21.707,57.89 8.988,-20.117 c -13.605,-7.703 -22.015,-22.14 -22.015,-37.773 z m -17.782,0.469 -54.363,60.312 h 76.981 z M 187.934,83.638 c -7.918,-17.465 -28.5,-25.215 -45.977,-17.293 -17.465,7.93 -25.211,28.5 -17.293,45.973 6.551,14.453 22.047,22.621 37.668,19.867 l -10.18,-32.914 c -0.707,-2.301 0.567,-4.723 2.852,-5.442 2.301,-0.703 4.734,0.571 5.441,2.868 l 10.18,32.929 c 17.477,-7.933 25.227,-28.511 17.305,-45.988 z M 336.5,111.443 c -7.43,22.789 -31.937,35.25 -54.738,27.82 l -12.582,28.18 3.254,8.691 h 9.761 v 8.672 h -36.898 c -1,0 -1.887,-0.684 -2.113,-1.66 -0.289,-1.164 0.445,-2.332 1.601,-2.617 l 18.363,-4.391 -3.242,-8.691 h -77.558 l 3.48,11.25 c 1.125,3.64 4.492,6.109 8.293,6.109 h 14.27 v 8.684 h -14.27 c -7.609,0 -14.336,-4.95 -16.586,-12.223 l -12.609,-40.731 c -20.238,4.098 -40.559,-6.621 -48.613,-25.632 -9.344,-22.082 0.976,-47.559 23.062,-56.899 22.082,-9.351 47.555,0.977 56.898,23.051 9.352,22.082 -0.976,47.559 -23.05,56.898 l 3.445,11.161 51.324,-56.942 c 1.649,-1.832 3.985,-2.867 6.442,-2.867 h 18.25 c 0.328,-1.617 0.75,-3.211 1.261,-4.781 7.43,-22.801 31.938,-35.258 54.739,-27.817 22.789,7.43 35.246,31.938 27.816,54.739"
         style="fill:#ffffff;fill-opacity:1;fill-rule:nonzero;stroke:none"
         id="path5569"
         inkscape:connector-curvature="0" /></g></g></svg>