<?xml version="1.0" encoding="UTF-8" standalone="no"?>
<svg
   xmlns:dc="http://purl.org/dc/elements/1.1/"
   xmlns:cc="http://creativecommons.org/ns#"
   xmlns:rdf="http://www.w3.org/1999/02/22-rdf-syntax-ns#"
   xmlns:svg="http://www.w3.org/2000/svg"
   xmlns="http://www.w3.org/2000/svg"
   viewBox="0 0 602.02063 602.02252"
   height="602.02252"
   width="602.02063"
   xml:space="preserve"
   id="svg5578"
   version="1.1"><metadata
     id="metadata5584"><rdf:RDF><cc:Work
         rdf:about=""><dc:format>image/svg+xml</dc:format><dc:type
           rdf:resource="http://purl.org/dc/dcmitype/StillImage" /><dc:title></dc:title></cc:Work></rdf:RDF></metadata><defs
     id="defs5582" /><g
     transform="matrix(1.3333333,0,0,-1.3333333,0,602.02254)"
     id="g5586"><g
       id="g5588"><path
         id="path5590"
         style="fill:#000000;fill-opacity:1;fill-rule:evenodd;stroke:none"
         d="m 385.148,385.103 c 29.321,-29.32 47.579,-60.934 58.313,-100.992 10.738,-40.098 10.738,-76.61 0,-116.703 C 432.73,127.345 414.457,95.716 385.113,66.376 355.793,37.052 324.176,18.794 284.098,8.04 244.023,-2.674 207.492,-2.69 167.418,8.06 c -40.063,10.738 -71.676,28.992 -101,58.316 -29.34,29.34 -47.613,60.969 -58.363,101.047 -10.739,40.063 -10.739,76.61 0,116.668 10.75,40.074 29.004,71.692 58.332,101.012 29.336,29.34 60.968,47.617 101.027,58.355 40.078,10.75 76.609,10.735 116.688,0.016 40.074,-10.754 71.703,-29.027 101.046,-58.371 z m -0.265,-0.262 c -29.301,29.301 -60.856,47.531 -100.879,58.27 -40.024,10.707 -76.473,10.722 -116.492,-0.016 C 127.504,432.372 95.949,414.142 66.648,384.841 37.367,355.556 19.148,324.017 8.41,283.997 -2.309,243.993 -2.309,207.529 8.414,167.525 19.152,127.501 37.387,95.943 66.688,66.642 95.969,37.361 127.512,19.146 167.512,8.423 207.535,-2.315 243.98,-2.296 284.004,8.404 c 40.023,10.738 71.562,28.953 100.848,58.234 29.3,29.301 47.531,60.859 58.25,100.867 10.722,40.039 10.722,76.469 0,116.508 -10.715,40.004 -28.938,71.547 -58.219,100.828 z" /><path
         id="path5592"
         style="fill:#ffffff;fill-opacity:1;fill-rule:evenodd;stroke:none"
         d="m 66.648,384.841 c 29.301,29.301 60.856,47.531 100.864,58.254 40.019,10.738 76.468,10.723 116.492,0.016 40.023,-10.739 71.578,-28.969 100.879,-58.27 29.285,-29.281 47.504,-60.824 58.219,-100.828 10.722,-40.039 10.722,-76.473 0.003,-116.512 C 432.383,127.497 414.152,95.939 384.852,66.638 355.566,37.357 324.027,19.142 284.008,8.404 243.984,-2.299 207.535,-2.315 167.512,8.423 127.512,19.146 95.973,37.357 66.688,66.642 37.387,95.943 19.156,127.501 8.414,167.525 c -10.723,40.004 -10.723,76.468 0,116.476 10.734,40.016 28.953,71.555 58.234,100.84 z" /><path
         id="path5594"
         style="fill:#154889;fill-opacity:1;fill-rule:evenodd;stroke:none"
         d="m 74.094,377.431 c 27.91,27.91 58,45.301 96.148,55.496 38.137,10.231 72.914,10.231 111.039,0.02 38.145,-10.196 68.254,-27.602 96.18,-55.532 27.91,-27.91 45.262,-58.004 55.477,-96.125 10.214,-38.164 10.214,-72.902 0.003,-111.062 C 422.723,132.103 405.355,101.993 377.445,74.083 349.516,46.158 319.426,28.767 281.281,18.572 243.156,8.357 208.379,8.357 170.238,18.587 132.094,28.783 102.023,46.158 74.109,74.068 c -27.925,27.929 -45.332,58.035 -55.523,96.175 -10.219,38.129 -10.219,72.903 0,111.028 10.191,38.14 27.582,68.234 55.508,96.16 z" /><g
         transform="matrix(1,0,0,-1,0,451.51691)"
         id="g5596"><path
           id="path5598"
           style="fill:none;stroke:#ffffff;stroke-width:7.52052212;stroke-linecap:butt;stroke-linejoin:miter;stroke-miterlimit:10;stroke-dasharray:none;stroke-opacity:1"
           d="M 237.051,413.879 V 37.613" /></g><path
         id="path5600"
         style="fill:#ffffff;fill-opacity:1;fill-rule:nonzero;stroke:none"
         d="m 189.742,164.974 c -15.633,-4.641 -32.062,4.266 -36.715,19.898 -0.097,0.344 -0.195,0.684 -0.289,1.028 h 30.434 c 2.035,0 3.687,1.648 3.687,3.683 0,0.524 -0.097,1.035 -0.324,1.516 l -13.617,30.48 c 15.633,4.641 32.059,-4.269 36.703,-19.89 4.641,-15.633 -4.266,-32.071 -19.887,-36.715 z m -23.574,53.633 11.32,-25.336 h -25.679 c 0,10.387 5.449,20 14.359,25.336 z m -21.742,-25.336 h -7.371 l 18.441,49.219 7.645,-17.102 c -11.571,-6.555 -18.715,-18.816 -18.715,-32.117 z m -15.11,0.394 -46.214,51.266 h 65.441 z M 90.133,181.095 C 83.41,166.236 65.91,159.658 51.051,166.396 c -14.848,6.722 -21.422,24.211 -14.699,39.07 5.574,12.274 18.75,19.227 32.027,16.883 l -8.66,-27.977 c -0.602,-1.957 0.492,-4.015 2.437,-4.621 1.946,-0.601 4.004,0.492 4.617,2.438 l 8.661,27.976 c 14.847,-6.738 21.433,-24.222 14.699,-39.07 z m 126.289,23.617 c -6.324,19.379 -27.145,29.969 -46.535,23.656 l -10.692,23.95 2.762,7.383 h 8.305 v 7.375 h -31.367 c -0.856,0 -1.594,-0.583 -1.797,-1.411 -0.223,-0.992 0.375,-1.98 1.367,-2.218 l 15.609,-3.746 -2.765,-7.383 H 85.387 l 2.957,9.57 c 0.957,3.082 3.812,5.188 7.054,5.188 h 12.129 v 7.382 H 95.398 c -6.472,0 -12.183,-4.207 -14.105,-10.386 L 70.574,229.439 c -17.203,3.492 -34.472,-5.621 -41.312,-21.778 -7.953,-18.773 0.832,-40.433 19.593,-48.378 18.77,-7.93 40.422,0.843 48.375,19.605 7.942,18.773 -0.839,40.434 -19.601,48.367 l 2.934,9.477 43.621,-48.399 c 1.398,-1.55 3.39,-2.437 5.484,-2.437 h 15.508 c 0.289,-1.375 0.637,-2.731 1.07,-4.063 6.313,-19.363 27.149,-29.957 46.524,-23.64 19.375,6.312 29.968,27.144 23.652,46.523" /><path
         id="path5602"
         style="fill:#ffffff;fill-opacity:1;fill-rule:nonzero;stroke:none"
         d="m 384.844,231.189 c 0,7 -5.676,12.664 -12.664,12.664 -6.996,0 -12.664,-5.664 -12.664,-12.664 0,-6.985 5.668,-12.649 12.664,-12.649 6.988,0 12.664,5.664 12.664,12.649 z m -61.508,74.172 c 0,-8 -6.484,-14.473 -14.473,-14.473 -7.984,0 -14.472,6.473 -14.472,14.473 0,7.988 6.488,14.472 14.472,14.472 7.989,0 14.473,-6.484 14.473,-14.472 z m -28.945,-73.817 2.539,2.5 c 0.695,0.672 1.082,1.606 1.082,2.574 v 27.133 c 0,1 -0.809,1.809 -1.809,1.809 -1,0 -1.812,-0.805 -1.812,-1.809 z m -21.707,-41.961 c 2.07,13.86 8.089,26.828 17.316,37.364 -4.164,4.64 -6.461,10.671 -6.461,16.906 v 14.473 c 0,13.996 11.332,25.328 25.324,25.328 9.446,0 18.102,-5.258 22.473,-13.633 l 15.027,-28.887 c 2.176,-4.176 1.403,-9.293 -1.922,-12.641 l 14.942,-12.546 c 5.062,-4.246 11.91,-5.704 18.269,-3.883 l 2.664,0.762 c 2.766,0.785 5.747,-0.161 7.579,-2.368 l 18.398,-22.367 c 3.129,-3.801 2.652,-9.398 -1.094,-12.605 l -16.734,19.523 5.414,-27.137 -6.93,-1.023 4.164,-26.305 c 0.399,-2.468 -1.297,-4.781 -3.754,-5.179 -2.398,-0.372 -4.687,1.218 -5.144,3.609 l -5.129,26.406 -5.871,-0.863 -2.672,-28.719 c -0.227,-2.492 -2.438,-4.312 -4.93,-4.086 -2.422,0.227 -4.23,2.332 -4.093,4.77 l 3.605,62.144 -25.746,24.36 c -2.399,3.355 -2.231,7.918 0.434,11.082 l -16.043,30.808 c -0.293,0.535 -0.934,0.739 -1.469,0.469 -0.352,-0.195 -0.59,-0.559 -0.59,-0.969 v -27.761 c 0,-0.969 0.398,-1.899 1.094,-2.571 l 3.207,-3.172 c 11.312,-11.117 18.683,-25.613 21.039,-41.289 z m 37.992,-3.617 h 10.851 v -48.844 c 0,-2.992 -2.422,-5.418 -5.425,-5.418 -3.004,0 -5.426,2.422 -5.426,5.418 z m -14.473,0 h 10.852 v -37.98 c 0,-3 -2.434,-5.426 -5.438,-5.426 -2.98,0 -5.414,2.422 -5.414,5.426" /></g></g></svg>