<?xml version="1.0" encoding="UTF-8" standalone="no"?>
<svg
   xmlns:dc="http://purl.org/dc/elements/1.1/"
   xmlns:cc="http://creativecommons.org/ns#"
   xmlns:rdf="http://www.w3.org/1999/02/22-rdf-syntax-ns#"
   xmlns:svg="http://www.w3.org/2000/svg"
   xmlns="http://www.w3.org/2000/svg"
   viewBox="0 0 602.02197 602.02386"
   height="602.02386"
   width="602.02197"
   xml:space="preserve"
   id="svg5612"
   version="1.1"><metadata
     id="metadata5618"><rdf:RDF><cc:Work
         rdf:about=""><dc:format>image/svg+xml</dc:format><dc:type
           rdf:resource="http://purl.org/dc/dcmitype/StillImage" /><dc:title></dc:title></cc:Work></rdf:RDF></metadata><defs
     id="defs5616" /><g
     transform="matrix(1.3333333,0,0,-1.3333333,0,602.02389)"
     id="g5620"><g
       id="g5622"><path
         id="path5624"
         style="fill:#000000;fill-opacity:1;fill-rule:evenodd;stroke:none"
         d="m 385.148,385.104 c 29.325,-29.32 47.579,-60.934 58.317,-100.992 10.734,-40.098 10.734,-76.61 0,-116.703 C 432.73,127.346 414.457,95.717 385.117,66.377 355.793,37.053 324.176,18.795 284.098,8.041 244.023,-2.677 207.492,-2.693 167.418,8.061 c -40.063,10.738 -71.676,28.992 -101,58.316 -29.34,29.34 -47.613,60.969 -58.363,101.047 -10.739,40.063 -10.739,76.61 0,116.668 10.75,40.074 29.004,71.692 58.332,101.012 29.336,29.34 60.972,47.617 101.027,58.355 40.078,10.75 76.609,10.735 116.688,0.016 40.074,-10.754 71.707,-29.027 101.046,-58.371 z m -0.265,-0.262 c -29.297,29.301 -60.856,47.531 -100.879,58.27 -40.024,10.707 -76.473,10.722 -116.492,-0.016 C 127.504,432.373 95.953,414.143 66.652,384.842 37.367,355.557 19.148,324.018 8.41,283.998 -2.309,243.994 -2.309,207.53 8.414,167.526 19.152,127.502 37.387,95.944 66.688,66.643 95.969,37.362 127.512,19.147 167.512,8.424 207.535,-2.314 243.98,-2.295 284.004,8.405 c 40.023,10.738 71.562,28.953 100.848,58.234 29.3,29.301 47.531,60.859 58.25,100.867 10.722,40.039 10.722,76.469 0,116.504 -10.715,40.008 -28.934,71.551 -58.219,100.832 z" /><path
         id="path5626"
         style="fill:#ffffff;fill-opacity:1;fill-rule:evenodd;stroke:none"
         d="m 66.652,384.842 c 29.301,29.301 60.852,47.531 100.86,58.254 40.019,10.738 76.468,10.723 116.492,0.016 40.023,-10.739 71.582,-28.969 100.879,-58.27 29.289,-29.281 47.504,-60.824 58.219,-100.832 10.722,-40.035 10.722,-76.469 0.003,-116.508 C 432.383,127.498 414.152,95.94 384.852,66.639 355.566,37.358 324.027,19.143 284.008,8.405 243.984,-2.298 207.535,-2.314 167.512,8.424 127.512,19.147 95.973,37.358 66.688,66.643 37.387,95.944 19.156,127.502 8.414,167.526 c -10.723,40.004 -10.723,76.468 0,116.476 10.734,40.016 28.953,71.555 58.238,100.84 z" /><path
         id="path5628"
         style="fill:#154889;fill-opacity:1;fill-rule:evenodd;stroke:none"
         d="m 74.094,377.432 c 27.91,27.91 58,45.301 96.148,55.496 38.141,10.231 72.914,10.231 111.043,0.02 38.141,-10.196 68.25,-27.602 96.176,-55.532 27.914,-27.91 45.266,-58.004 55.477,-96.125 10.214,-38.164 10.214,-72.902 0.003,-111.062 C 422.727,132.104 405.355,101.994 377.445,74.084 349.516,46.159 319.426,28.768 281.285,18.573 243.156,8.358 208.383,8.358 170.238,18.588 132.094,28.784 102.023,46.159 74.109,74.065 c -27.925,27.933 -45.332,58.039 -55.523,96.179 -10.219,38.125 -10.219,72.903 0,111.028 10.191,38.14 27.582,68.234 55.508,96.16 z" /><path
         id="path5630"
         style="fill:#ffffff;fill-opacity:1;fill-rule:nonzero;stroke:none"
         d="m 210.707,413.92 h 7.496 V 37.615 h -7.496 z" /><path
         id="path5632"
         style="fill:#ffffff;fill-opacity:1;fill-rule:nonzero;stroke:none"
         d="m 162.848,231.178 c 0,7 -5.668,12.664 -12.664,12.664 -6.996,0 -12.664,-5.664 -12.664,-12.664 0,-6.984 5.668,-12.648 12.664,-12.648 6.996,0 12.664,5.664 12.664,12.648 z M 101.34,305.35 c 0,-7.988 -6.485,-14.473 -14.473,-14.473 -7.984,0 -14.472,6.485 -14.472,14.473 0,7.988 6.488,14.473 14.472,14.473 7.988,0 14.473,-6.485 14.473,-14.473 z m -28.945,-73.816 2.539,2.5 c 0.695,0.671 1.082,1.605 1.082,2.57 v 27.137 c 0,1.003 -0.813,1.808 -1.809,1.808 -1,0 -1.812,-0.805 -1.812,-1.808 z M 50.688,189.573 c 2.082,13.859 8.089,26.828 17.328,37.363 -4.164,4.641 -6.473,10.672 -6.473,16.906 v 14.473 c 0,13.996 11.344,25.328 25.324,25.328 9.446,0 18.102,-5.258 22.473,-13.633 l 15.027,-28.887 c 2.176,-4.175 1.403,-9.285 -1.91,-12.64 l 14.926,-12.539 c 5.062,-4.254 11.914,-5.711 18.273,-3.891 l 2.672,0.762 c 2.766,0.785 5.735,-0.16 7.567,-2.367 l 18.41,-22.368 c 3.129,-3.8 2.636,-9.398 -1.106,-12.605 l -16.734,19.523 5.426,-27.136 -6.938,-1.024 4.164,-26.304 c 0.395,-2.457 -1.289,-4.778 -3.758,-5.176 -2.398,-0.375 -4.687,1.219 -5.14,3.605 l -5.133,26.422 -5.871,-0.879 -2.672,-28.719 c -0.227,-2.492 -2.434,-4.308 -4.926,-4.082 -2.422,0.227 -4.234,2.332 -4.086,4.766 l 3.61,62.145 -25.762,24.371 c -2.399,3.355 -2.219,7.906 0.434,11.07 L 99.77,264.866 c -0.258,0.535 -0.93,0.738 -1.465,0.468 -0.352,-0.191 -0.582,-0.558 -0.582,-0.968 v -27.758 c 0,-0.969 0.386,-1.903 1.082,-2.571 l 3.207,-3.175 c 11.308,-11.118 18.683,-25.61 21.039,-41.289 z m 37.988,-3.618 h 10.855 v -48.843 c 0,-2.993 -2.422,-5.418 -5.426,-5.418 -2.996,0 -5.429,2.425 -5.429,5.418 z m -14.473,0 h 10.856 v -37.98 c 0,-3 -2.434,-5.438 -5.426,-5.438 -2.992,0 -5.43,2.434 -5.43,5.438" /><path
         id="path5634"
         style="fill:#ffffff;fill-opacity:1;fill-rule:nonzero;stroke:none"
         d="m 396.676,164.963 c -15.621,-4.644 -32.059,4.266 -36.703,19.899 -0.094,0.343 -0.192,0.683 -0.289,1.027 h 30.433 c 2.039,0 3.688,1.648 3.688,3.684 0,0.523 -0.129,1.035 -0.325,1.511 l -13.617,30.485 c 15.621,4.64 32.063,-4.27 36.703,-19.891 4.645,-15.633 -4.265,-32.074 -19.898,-36.715 z m -23.563,53.633 11.325,-25.336 h -25.68 c 0,10.387 5.449,20 14.355,25.336 z M 351.371,193.26 H 344 l 18.441,49.219 7.637,-17.102 c -11.551,-6.554 -18.707,-18.82 -18.707,-32.117 z m -15.109,0.395 -46.215,51.269 h 65.445 z m -39.184,-12.571 c -6.734,-14.859 -24.223,-21.437 -39.07,-14.703 -14.86,6.727 -21.434,24.215 -14.711,39.074 5.574,12.286 18.75,19.227 32.027,16.883 l -8.656,-27.976 c -0.605,-1.957 0.488,-4.016 2.434,-4.621 1.933,-0.602 4.003,0.492 4.621,2.421 l 8.656,27.989 c 14.848,-6.735 21.426,-24.223 14.699,-39.071 z m 126.281,23.618 c -6.316,19.378 -27.148,29.968 -46.511,23.656 l -10.707,23.949 2.765,7.383 h 8.305 v 7.383 h -31.367 c -0.856,0 -1.606,-0.59 -1.797,-1.422 -0.227,-0.989 0.375,-1.981 1.363,-2.219 l 15.61,-3.742 -2.762,-7.383 h -65.922 l 2.957,9.566 c 0.953,3.086 3.812,5.2 7.043,5.2 h 12.141 v 7.375 h -12.141 c -6.465,0 -12.176,-4.211 -14.086,-10.391 l -10.73,-34.621 c -17.192,3.484 -34.473,-5.629 -41.309,-21.785 -7.941,-18.774 0.828,-40.426 19.59,-48.367 18.773,-7.942 40.426,0.828 48.379,19.589 7.941,18.774 -0.844,40.438 -19.606,48.379 l 2.934,9.465 43.625,-48.398 c 1.398,-1.547 3.39,-2.434 5.48,-2.434 h 15.496 c 0.293,-1.379 0.641,-2.734 1.082,-4.062 6.317,-19.375 27.137,-29.957 46.524,-23.645 19.375,6.316 29.969,27.149 23.64,46.524" /></g></g></svg>