<?xml version="1.0" encoding="UTF-8" standalone="no"?>
<svg
   xmlns:dc="http://purl.org/dc/elements/1.1/"
   xmlns:cc="http://creativecommons.org/ns#"
   xmlns:rdf="http://www.w3.org/1999/02/22-rdf-syntax-ns#"
   xmlns:svg="http://www.w3.org/2000/svg"
   xmlns="http://www.w3.org/2000/svg"
   viewBox="0 0 600.995 600.995"
   height="600.995"
   width="600.995"
   xml:space="preserve"
   version="1.1"
   id="svg4873"><metadata
     id="metadata4879"><rdf:RDF><cc:Work
         rdf:about=""><dc:format>image/svg+xml</dc:format><dc:type
           rdf:resource="http://purl.org/dc/dcmitype/StillImage" /><dc:title></dc:title></cc:Work></rdf:RDF></metadata><defs
     id="defs4877" /><g
     transform="matrix(1.25,0,0,-1.25,0,600.99499)"
     id="g4881"><g
       id="g4883"><path
         id="path4885"
         style="fill:#ffffff;fill-opacity:1;fill-rule:nonzero;stroke:none"
         d="m 480.398,240.398 c 0,-132.551 -107.449,-240 -240,-240 -132.55,0 -240,107.449 -240,240 0,132.55 107.45,240 240,240 132.551,0 240,-107.45 240,-240 z" /><path
         id="path4887"
         style="fill:#000000;fill-opacity:1;fill-rule:nonzero;stroke:none"
         d="M 240.398,480.796 C 107.633,480.796 0,373.163 0,240.398 0,107.632 107.633,-0.001 240.398,-0.001 c 132.766,0 240.399,107.633 240.399,240.399 0,132.765 -107.633,240.398 -240.399,240.398 z m 0,-0.398 c 132.551,0 240,-107.45 240,-240 0,-132.551 -107.449,-240 -240,-240 -132.55,0 -240,107.449 -240,240 0,132.55 107.45,240 240,240 z" /><path
         id="path4889"
         style="fill:#c1121c;fill-opacity:1;fill-rule:nonzero;stroke:none"
         d="m 240.398,472.398 c -127.746,0 -232,-104.254 -232,-232 0,-127.747 104.254,-232 232,-232 127.747,0 232,104.253 232,232 0,127.746 -104.253,232 -232,232 z m 0,-64.321 c 92.989,0 167.68,-74.691 167.68,-167.679 0,-92.989 -74.691,-167.68 -167.68,-167.68 -92.988,0 -167.679,74.691 -167.679,167.68 0,92.988 74.691,167.679 167.679,167.679 z" /><path
         id="path4891"
         style="fill:#000000;fill-opacity:1;fill-rule:nonzero;stroke:none"
         d="m 23.832,456.511 0,-0.024 -0.023,0 0.023,0.024 z" /><path
         id="path4893"
         style="fill:#000000;fill-opacity:1;fill-rule:nonzero;stroke:none"
         d="m 23.809,456.511 0.023,0 0,-0.023 -0.023,0 0,0.023 z" /><path
         id="path4895"
         style="fill:#000000;fill-opacity:1;fill-rule:nonzero;stroke:none"
         d="m 23.809,456.487 0,0.024 0.023,-0.024 -0.023,0 z m 0.023,0 -0.023,0.024 0,-0.024 0.023,0 z" /><path
         id="path4897"
         style="fill:#000000;fill-opacity:1;fill-rule:nonzero;stroke:none"
         d="m 23.859,456.487 -0.05,0 0.023,0 0,0.024 0.027,-0.024 z" /><path
         id="path4899"
         style="fill:#000000;fill-opacity:1;fill-rule:nonzero;stroke:none"
         d="m 23.809,456.487 0,0.024 0,-0.024 0.023,0.024 -0.023,-0.024 z" /><path
         id="path4901"
         style="fill:#000000;fill-opacity:1;fill-rule:nonzero;stroke:none"
         d="m 23.809,456.511 0.023,0 0,-0.023 -0.023,0 0,0.023 z" /><path
         id="path4903"
         style="fill:#000000;fill-opacity:1;fill-rule:nonzero;stroke:none"
         d="m 23.859,456.511 0,-0.047 -0.05,0 0.05,0.047 z" /><path
         id="path4905"
         style="fill:#000000;fill-opacity:1;fill-rule:nonzero;stroke:none"
         d="m 23.809,456.511 0.051,0 0,-0.047 -0.051,0 0,0.047 z" /><path
         id="path4907"
         style="fill:#000000;fill-opacity:1;fill-rule:nonzero;stroke:none"
         d="m 23.809,456.464 0,0.047 0.05,-0.047 -0.05,0 z m 0.05,0 -0.05,0.047 0,-0.047 0.05,0 z" /><path
         id="path4909"
         style="fill:#000000;fill-opacity:1;fill-rule:nonzero;stroke:none"
         d="m 23.859,456.464 -0.05,0 0.023,0 0,0.047 0.027,-0.047 z" /><path
         id="path4911"
         style="fill:#000000;fill-opacity:1;fill-rule:nonzero;stroke:none"
         d="m 23.809,456.464 0,0.047 0,-0.047 0.05,0.047 -0.05,-0.047 z" /><path
         id="path4913"
         style="fill:#000000;fill-opacity:1;fill-rule:nonzero;stroke:none"
         d="m 23.809,456.511 0.051,0 0,-0.047 -0.051,0 0,0.047 z" /><path
         id="path4915"
         style="fill:#000000;fill-opacity:1;fill-rule:nonzero;stroke:none"
         d="m 23.859,456.511 0,-0.047 -0.05,0 0.05,0.047 z" /><path
         id="path4917"
         style="fill:#000000;fill-opacity:1;fill-rule:nonzero;stroke:none"
         d="m 23.809,456.511 0.051,0 0,-0.047 -0.051,0 0,0.047 z" /><path
         id="path4919"
         style="fill:#000000;fill-opacity:1;fill-rule:nonzero;stroke:none"
         d="m 23.809,456.464 0,0.047 0.05,-0.047 -0.05,0 z m 0.05,0 -0.05,0.047 0,-0.047 0.05,0 z" /><path
         id="path4921"
         style="fill:#000000;fill-opacity:1;fill-rule:nonzero;stroke:none"
         d="m 23.859,456.464 -0.05,0 0.023,0 0,0.047 0.027,-0.047 z" /><path
         id="path4923"
         style="fill:#000000;fill-opacity:1;fill-rule:nonzero;stroke:none"
         d="m 23.809,456.464 0,0.047 0,-0.047 0.05,0.047 -0.05,-0.047 z" /><path
         id="path4925"
         style="fill:#000000;fill-opacity:1;fill-rule:nonzero;stroke:none"
         d="m 23.809,456.511 0.051,0 0,-0.047 -0.051,0 0,0.047 z" /><path
         id="path4927"
         style="fill:#000000;fill-opacity:1;fill-rule:nonzero;stroke:none"
         d="m 23.859,456.511 0,-0.047 -0.05,0 0.05,0.047 z" /><path
         id="path4929"
         style="fill:#000000;fill-opacity:1;fill-rule:nonzero;stroke:none"
         d="m 23.809,456.511 0.051,0 0,-0.047 -0.051,0 0,0.047 z" /><path
         id="path4931"
         style="fill:#000000;fill-opacity:1;fill-rule:nonzero;stroke:none"
         d="m 23.809,456.464 0,0.047 0.05,-0.047 -0.05,0 z m 0.05,0 -0.05,0.047 0,-0.047 0.05,0 z" /><path
         id="path4933"
         style="fill:#000000;fill-opacity:1;fill-rule:nonzero;stroke:none"
         d="m 23.859,456.464 -0.05,0 0.023,0 0,0.047 0.027,-0.047 z" /><path
         id="path4935"
         style="fill:#000000;fill-opacity:1;fill-rule:nonzero;stroke:none"
         d="m 23.809,456.464 0,0.047 0,-0.047 0.05,0.047 -0.05,-0.047 z" /><path
         id="path4937"
         style="fill:#000000;fill-opacity:1;fill-rule:nonzero;stroke:none"
         d="m 23.809,456.511 0.051,0 0,-0.047 -0.051,0 0,0.047 z" /><path
         id="path4939"
         style="fill:#000000;fill-opacity:1;fill-rule:nonzero;stroke:none"
         d="m 240.406,119.3 59.438,-33.766 c -38.262,-14.683 -80.617,-14.683 -118.891,0" /><path
         id="path4941"
         style="fill:#000000;fill-opacity:1;fill-rule:nonzero;stroke:none"
         d="m 240.406,361.495 -59.453,33.754 c 38.274,14.695 80.629,14.695 118.891,0" /><path
         id="path4943"
         style="fill:#000000;fill-opacity:1;fill-rule:nonzero;stroke:none"
         d="m 288.492,164.273 0,81.558 16.305,0 0,-8.152 c 4.496,8.441 15,11.629 23.445,7.133 2.699,-1.442 4.977,-3.571 6.59,-6.176 6.168,8.746 18.234,10.844 26.992,4.687 5.16,-3.632 8.227,-9.535 8.227,-15.847 l 0,-63.203 -16.321,0 0,58.101 c 0,4.508 -3.644,8.168 -8.152,8.168 -4.508,0 -8.168,-3.66 -8.168,-8.168 l 0,-58.101 -16.305,0 0,58.101 c 0,4.508 -3.648,8.168 -8.152,8.168 -4.508,0 -8.156,-3.66 -8.156,-8.168 l 0,-58.101 -16.305,0 z m -53.418,74.421 c 0,-4.507 3.66,-8.152 8.164,-8.152 4.496,0 8.157,3.645 8.157,8.152 l 0,16.309 c 0,4.508 -3.661,8.164 -8.157,8.164 -4.504,0 -8.164,-3.656 -8.164,-8.164 l 0,-16.309 z m 0,-50.968 c 0,-4.508 3.66,-8.164 8.164,-8.164 4.496,0 8.157,3.656 8.157,8.164 l 0,22.425 c 0,4.508 -3.661,8.153 -8.157,8.153 -4.504,0 -8.164,-3.645 -8.164,-8.153 l 0,-22.425 z m -8.105,36.699 c -5.125,3.391 -8.203,9.133 -8.203,15.289 l 0,15.289 c 0,13.52 10.953,24.473 24.472,24.473 13.512,0 24.461,-10.953 24.461,-24.473 l 0,-15.289 c 0,-6.156 -3.074,-11.898 -8.199,-15.289 5.125,-3.406 8.199,-9.137 8.199,-15.293 l 0,-21.406 c 0,-13.52 -10.949,-24.485 -24.461,-24.485 -13.519,0 -24.472,10.965 -24.472,24.485 l 0,21.406 c 0,6.156 3.078,11.887 8.203,15.293 z m -39.461,-72.391 0,28.543 16.32,0 0,-16.304 -16.32,-12.239 z m -79.328,58.59 23.187,0 0,-13.035 c 0,-6.398 5.184,-11.582 11.582,-11.582 6.41,0 11.594,5.184 11.594,11.582 l 0,28.98 c 0,6.395 -5.184,11.594 -11.594,11.594 l -7.246,0 0,20.281 7.246,0 c 6.41,0 11.594,5.184 11.594,11.582 l 0,23.188 c 0,6.398 -5.184,11.594 -11.594,11.594 -6.398,0 -11.582,-5.196 -11.582,-11.594 l 0,-13.047 -23.187,0 0,13.047 c 0,19.203 15.566,34.769 34.769,34.769 19.203,0 34.781,-15.566 34.781,-34.769 l 0,-21.734 c 0,-9.766 -5.46,-18.707 -14.136,-23.176 8.676,-4.473 14.136,-13.426 14.136,-23.18 l 0,-27.535 c 0,-19.203 -15.578,-34.773 -34.781,-34.773 -19.203,0 -34.769,15.57 -34.769,34.773" /></g></g></svg>