<?xml version="1.0" encoding="UTF-8" standalone="no"?>
<svg
   xmlns:dc="http://purl.org/dc/elements/1.1/"
   xmlns:cc="http://creativecommons.org/ns#"
   xmlns:rdf="http://www.w3.org/1999/02/22-rdf-syntax-ns#"
   xmlns:svg="http://www.w3.org/2000/svg"
   xmlns="http://www.w3.org/2000/svg"
   viewBox="0 0 586.26202 586.26202"
   height="586.26202"
   width="586.26202"
   xml:space="preserve"
   version="1.1"
   id="svg4136"><metadata
     id="metadata4142"><rdf:RDF><cc:Work
         rdf:about=""><dc:format>image/svg+xml</dc:format><dc:type
           rdf:resource="http://purl.org/dc/dcmitype/StillImage" /><dc:title></dc:title></cc:Work></rdf:RDF></metadata><defs
     id="defs4140" /><g
     transform="matrix(1.25,0,0,-1.25,0,586.26202)"
     id="g4144"><g
       id="g4146"><g
         transform="matrix(1,0,0,-1,0,469.00961)"
         id="g4148"><path
           id="path4150"
           style="fill:#ffffff;fill-opacity:1;fill-rule:nonzero;stroke:#000000;stroke-width:0.80000001;stroke-linecap:butt;stroke-linejoin:miter;stroke-miterlimit:4;stroke-dasharray:none;stroke-opacity:1"
           d="m 437.367,468.609 c 17.219,0 31.18,-13.961 31.18,-31.179 L 468.609,31.645 C 468.609,14.422 454.648,0.461 437.43,0.461 L 31.645,0.398 C 14.422,0.398 0.461,14.359 0.461,31.582 L 0.398,437.367 c 0,17.223 13.961,31.18 31.184,31.18 l 405.785,0.062 z" /></g><g
         transform="matrix(1,0,0,-1,0,469.00961)"
         id="g4152"><path
           id="path4154"
           style="fill:none;stroke:#000000;stroke-width:11.19999981;stroke-linecap:butt;stroke-linejoin:miter;stroke-miterlimit:4;stroke-dasharray:none;stroke-opacity:1"
           d="M 31.582,454.949 C 21.887,454.949 14,447.063 14,437.367 L 14.063,31.582 C 14.063,21.887 21.949,14 31.645,14 l 405.781,0.063 c 9.699,0 17.582,7.886 17.582,17.582 l -0.063,405.781 c 0,9.699 -7.882,17.582 -17.578,17.582 L 31.582,454.949 Z" /></g><path
         id="path4156"
         style="fill:#c1121c;fill-opacity:1;fill-rule:nonzero;stroke:none"
         d="m 382.516,278.506 c 0,-81.782 -66.297,-148.082 -148.082,-148.082 -81.782,0 -148.082,66.3 -148.082,148.082 0,81.785 66.3,148.082 148.082,148.082 81.785,0 148.082,-66.297 148.082,-148.082 z" /><path
         id="path4158"
         style="fill:#ffffff;fill-opacity:1;fill-rule:nonzero;stroke:none"
         d="m 343.547,278.506 c 0,-60.258 -48.852,-109.11 -109.113,-109.11 -60.258,0 -109.11,48.852 -109.11,109.11 0,60.261 48.852,109.109 109.11,109.109 60.261,0 109.113,-48.848 109.113,-109.109 z" /><path
         id="path4160"
         style="fill:#000000;fill-opacity:1;fill-rule:nonzero;stroke:none"
         d="m 133.508,300.599 6.625,0 0,-28.449 c 0,-4.949 4.012,-8.961 8.961,-8.961 4.953,0 8.965,4.012 8.965,8.961 l 0,28.449 6.625,0 0,-28.449 c 0,-8.605 -6.981,-15.586 -15.59,-15.586 -8.606,0 -15.586,6.981 -15.586,15.586 l 0,28.449 z m 39.746,-43.644 0,31.176 6.234,0 0,-3.52 c 2,2.473 5.008,3.906 8.184,3.906 3.351,0 6.5,-1.593 8.484,-4.293 2.219,2.715 5.543,4.293 9.051,4.293 6.457,0 11.691,-5.234 11.691,-11.687 l 0,-19.875 -6.234,0 0,19.094 c 0,3.445 -2.793,6.234 -6.234,6.234 -3.446,0 -6.235,-2.789 -6.235,-6.234 l 0,-19.094 -6.234,0 0,19.094 c 0,3.445 -2.793,6.234 -6.234,6.234 -3.446,0 -6.239,-2.789 -6.239,-6.234 l 0,-19.094 -6.234,0 z m 59.621,0 -9.742,31.176 6.625,0 5.844,-21.825 7.019,21.825 4.676,0 7.012,-21.825 5.847,21.825 6.621,0 -9.738,-31.176 -5.457,0 -6.625,21.824 -6.621,-21.824 -5.461,0 z m 64.301,13.25 -19.485,0 0,-0.781 c 0,-2.707 1.649,-5.145 4.164,-6.149 1.028,-0.414 2.129,-0.625 3.239,-0.625 2.543,0 4.961,1.114 6.617,3.043 l 4.734,-4.062 c -2.843,-3.309 -6.988,-5.215 -11.351,-5.215 -1.903,0 -3.789,0.363 -5.555,1.07 -4.883,1.953 -8.086,6.68 -8.086,11.938 l 0,6.238 c 0,7.102 5.758,12.859 12.86,12.859 7.101,0 12.863,-5.757 12.863,-12.859 l 0,-5.457 z m -19.488,5.453 13.25,0 c 0,3.66 -2.965,6.625 -6.625,6.625 -3.657,0 -6.625,-2.965 -6.625,-6.625 z m 38.968,-18.703 -3.894,0 c -3.875,0 -7.016,3.141 -7.016,7.016 l 0,36.628 6.234,0 0,-35.851 c 0,-1.074 0.872,-1.949 1.95,-1.949 l 2.726,0 0,-5.844 z m 18.707,0 -3.898,0 c -3.875,0 -7.012,3.141 -7.012,7.016 l 0,19.093 -3.121,0 0,5.067 3.121,0 0,9.351 6.231,0 0,-9.351 4.679,0 0,-5.067 -4.679,0 0,-18.316 c 0,-1.074 0.875,-1.949 1.949,-1.949 l 2.73,0 0,-5.844 z" /><path
         id="path4162"
         style="fill:#000000;fill-opacity:1;fill-rule:nonzero;stroke:none"
         d="m 125.805,42.154 0,8.176 29.785,48.476 -28.617,0 0,8.762 40.882,0 0,-7.59 -29.789,-48.476 29.789,0 0,-9.348 -42.05,0 z m 51.394,22.777 0,19.86 c 0,12.898 10.461,23.359 23.364,23.359 12.902,0 23.359,-10.461 23.359,-23.359 l 0,-19.86 c 0,-12.902 -10.457,-23.359 -23.359,-23.359 -12.903,0 -23.364,10.457 -23.364,23.359 z m 9.93,0 c 0,-7.417 6.016,-13.433 13.434,-13.433 7.417,0 13.433,6.016 13.433,13.433 l 0,19.86 c 0,7.418 -6.016,13.43 -13.433,13.43 -7.418,0 -13.434,-6.012 -13.434,-13.43 l 0,-19.86 z m 49.644,-22.777 0,65.414 9.344,0 29.785,-46.722 0,46.722 9.93,0 0,-65.414 -9.344,0 -29.785,46.723 0,-46.723 -9.93,0 z m 64.243,0 0,65.414 42.05,0 0,-9.344 -32.121,0 0,-18.691 27.45,0 0,-8.758 -27.45,0 0,-19.273 32.121,0 0,-9.348 -42.05,0 z" /></g></g></svg>