<?xml version="1.0" encoding="UTF-8" standalone="no"?>
<!-- Created with Inkscape (http://www.inkscape.org/) -->

<svg
   version="1.1"
   id="svg10818"
   xml:space="preserve"
   width="600.995"
   height="600.995"
   viewBox="0 0 600.995 600.995"
   xmlns="http://www.w3.org/2000/svg"
   xmlns:svg="http://www.w3.org/2000/svg"><defs
     id="defs10822" /><g
     id="g10824"
     transform="matrix(1.3333333,0,0,1.3333333,0,1.0358208e-5)"><g
       id="g10826"><path
         d="m 450.375,225.375 c 0,124.266 -100.734,225 -225,225 -124.266,0 -225,-100.734 -225,-225 0,-124.266 100.734,-225 225,-225 124.266,0 225,100.734 225,225 z"
         style="fill:#ffffff;fill-opacity:1;fill-rule:nonzero;stroke:none"
         id="path10828" /><path
         d="M 225.375,0 C 100.906,0 0,100.906 0,225.375 0,349.84 100.906,450.746 225.375,450.746 349.84,450.746 450.746,349.84 450.746,225.375 450.746,100.906 349.84,0 225.375,0 Z m 0,0.375 c 124.266,0 225,100.734 225,225 0,124.266 -100.734,225 -225,225 -124.266,0 -225,-100.734 -225,-225 0,-124.266 100.734,-225 225,-225 z"
         style="fill:#000000;fill-opacity:1;fill-rule:nonzero;stroke:none"
         id="path10830" /><path
         d="m 225.375,7.875 c -119.766,0 -217.5,97.734 -217.5,217.5 0,119.762 97.734,217.5 217.5,217.5 119.762,0 217.5,-97.738 217.5,-217.5 0,-119.766 -97.738,-217.5 -217.5,-217.5 z m 0,60.301 c 87.176,0 157.199,70.019 157.199,157.199 0,87.176 -70.023,157.199 -157.199,157.199 -87.18,0 -157.199,-70.023 -157.199,-157.199 0,-87.18 70.019,-157.199 157.199,-157.199 z"
         style="fill:#c1121c;fill-opacity:1;fill-rule:nonzero;stroke:none"
         id="path10832" /><path
         d="m 22.344,22.766 v 0.023 H 22.32 Z"
         style="fill:#000000;fill-opacity:1;fill-rule:nonzero;stroke:none"
         id="path10834" /><path
         d="m 22.32,22.766 h 0.023 v 0.023 H 22.32 Z"
         style="fill:#000000;fill-opacity:1;fill-rule:nonzero;stroke:none"
         id="path10836" /><path
         d="m 22.32,22.789 v -0.023 l 0.024,0.023 z m 0.024,0 -0.024,-0.023 v 0.023 z"
         style="fill:#000000;fill-opacity:1;fill-rule:nonzero;stroke:none"
         id="path10838" /><path
         d="M 22.367,22.789 H 22.32 22.344 V 22.766 Z"
         style="fill:#000000;fill-opacity:1;fill-rule:nonzero;stroke:none"
         id="path10840" /><path
         d="m 22.32,22.789 v -0.023 0.023 l 0.024,-0.023 z"
         style="fill:#000000;fill-opacity:1;fill-rule:nonzero;stroke:none"
         id="path10842" /><path
         d="m 22.32,22.766 h 0.023 v 0.023 H 22.32 Z"
         style="fill:#000000;fill-opacity:1;fill-rule:nonzero;stroke:none"
         id="path10844" /><path
         d="m 22.367,22.766 v 0.046 H 22.32 Z"
         style="fill:#000000;fill-opacity:1;fill-rule:nonzero;stroke:none"
         id="path10846" /><path
         d="m 22.32,22.766 h 0.047 v 0.047 H 22.32 Z"
         style="fill:#000000;fill-opacity:1;fill-rule:nonzero;stroke:none"
         id="path10848" /><path
         d="m 22.32,22.812 v -0.046 l 0.047,0.046 z m 0.047,0 -0.047,-0.046 v 0.046 z"
         style="fill:#000000;fill-opacity:1;fill-rule:nonzero;stroke:none"
         id="path10850" /><path
         d="M 22.367,22.812 H 22.32 22.344 V 22.766 Z"
         style="fill:#000000;fill-opacity:1;fill-rule:nonzero;stroke:none"
         id="path10852" /><path
         d="m 22.32,22.812 v -0.046 0.046 l 0.047,-0.046 z"
         style="fill:#000000;fill-opacity:1;fill-rule:nonzero;stroke:none"
         id="path10854" /><path
         d="m 22.32,22.766 h 0.047 v 0.047 H 22.32 Z"
         style="fill:#000000;fill-opacity:1;fill-rule:nonzero;stroke:none"
         id="path10856" /><path
         d="m 22.367,22.766 v 0.046 H 22.32 Z"
         style="fill:#000000;fill-opacity:1;fill-rule:nonzero;stroke:none"
         id="path10858" /><path
         d="m 22.32,22.766 h 0.047 v 0.047 H 22.32 Z"
         style="fill:#000000;fill-opacity:1;fill-rule:nonzero;stroke:none"
         id="path10860" /><path
         d="m 22.32,22.812 v -0.046 l 0.047,0.046 z m 0.047,0 -0.047,-0.046 v 0.046 z"
         style="fill:#000000;fill-opacity:1;fill-rule:nonzero;stroke:none"
         id="path10862" /><path
         d="M 22.367,22.812 H 22.32 22.344 V 22.766 Z"
         style="fill:#000000;fill-opacity:1;fill-rule:nonzero;stroke:none"
         id="path10864" /><path
         d="m 22.32,22.812 v -0.046 0.046 l 0.047,-0.046 z"
         style="fill:#000000;fill-opacity:1;fill-rule:nonzero;stroke:none"
         id="path10866" /><path
         d="m 22.32,22.766 h 0.047 v 0.047 H 22.32 Z"
         style="fill:#000000;fill-opacity:1;fill-rule:nonzero;stroke:none"
         id="path10868" /><path
         d="m 22.367,22.766 v 0.046 H 22.32 Z"
         style="fill:#000000;fill-opacity:1;fill-rule:nonzero;stroke:none"
         id="path10870" /><path
         d="m 22.32,22.766 h 0.047 v 0.047 H 22.32 Z"
         style="fill:#000000;fill-opacity:1;fill-rule:nonzero;stroke:none"
         id="path10872" /><path
         d="m 22.32,22.812 v -0.046 l 0.047,0.046 z m 0.047,0 -0.047,-0.046 v 0.046 z"
         style="fill:#000000;fill-opacity:1;fill-rule:nonzero;stroke:none"
         id="path10874" /><path
         d="M 22.367,22.812 H 22.32 22.344 V 22.766 Z"
         style="fill:#000000;fill-opacity:1;fill-rule:nonzero;stroke:none"
         id="path10876" /><path
         d="m 22.32,22.812 v -0.046 0.046 l 0.047,-0.046 z"
         style="fill:#000000;fill-opacity:1;fill-rule:nonzero;stroke:none"
         id="path10878" /><path
         d="m 22.32,22.766 h 0.047 v 0.047 H 22.32 Z"
         style="fill:#000000;fill-opacity:1;fill-rule:nonzero;stroke:none"
         id="path10880" /><path
         d="M 152.215,319.836 V 159.945 l -26.844,19.61 v -28.641 l 26.844,-19.5 h 27.109 v 188.422 z"
         style="fill:#000000;fill-opacity:1;fill-rule:nonzero;stroke:none"
         id="path10882" /><path
         d="m 298.402,265.383 v -79.891 c 0,-9.031 -2.433,-16.082 -7.297,-21.156 -4.855,-5.082 -11.242,-7.625 -19.156,-7.625 -8,0 -14.414,2.543 -19.234,7.625 -4.813,5.074 -7.219,12.125 -7.219,21.156 v 79.891 c 0,9.117 2.406,16.187 7.219,21.219 4.82,5.031 11.234,7.546 19.234,7.546 7.914,0 14.301,-2.515 19.156,-7.546 4.864,-5.032 7.297,-12.102 7.297,-21.219 z m -79.89,1.547 v -82.985 c 0,-17.289 5.422,-30.644 16.265,-40.062 10.844,-9.426 23.235,-14.141 37.172,-14.141 13.852,0 26.219,4.715 37.094,14.141 10.883,9.418 16.328,22.773 16.328,40.062 v 82.985 c 0,17.293 -5.445,30.625 -16.328,40 -10.875,9.375 -23.242,14.062 -37.094,14.062 -13.937,0 -26.328,-4.687 -37.172,-14.062 -10.843,-9.375 -16.265,-22.707 -16.265,-40 z"
         style="fill:#000000;fill-opacity:1;fill-rule:nonzero;stroke:none"
         id="path10884" /></g></g></svg>
