<?xml version="1.0" encoding="UTF-8" standalone="no"?>
<!-- Created with Inkscape (http://www.inkscape.org/) -->

<svg
   version="1.1"
   id="svg12999"
   xml:space="preserve"
   width="600.995"
   height="600.995"
   viewBox="0 0 600.995 600.995"
   xmlns="http://www.w3.org/2000/svg"
   xmlns:svg="http://www.w3.org/2000/svg"><defs
     id="defs13003" /><g
     id="g13005"
     transform="matrix(1.3333333,0,0,1.3333333,0,1.0358208e-5)"><g
       id="g13007"><path
         d="m 450.375,225.375 c 0,124.266 -100.734,225 -225,225 -124.266,0 -225,-100.734 -225,-225 0,-124.266 100.734,-225 225,-225 124.266,0 225,100.734 225,225 z"
         style="fill:#ffffff;fill-opacity:1;fill-rule:nonzero;stroke:none"
         id="path13009" /><path
         d="M 225.375,0 C 100.906,0 0,100.906 0,225.375 0,349.84 100.906,450.746 225.375,450.746 349.84,450.746 450.746,349.84 450.746,225.375 450.746,100.906 349.84,0 225.375,0 Z m 0,0.375 c 124.266,0 225,100.734 225,225 0,124.266 -100.734,225 -225,225 -124.266,0 -225,-100.734 -225,-225 0,-124.266 100.734,-225 225,-225 z"
         style="fill:#000000;fill-opacity:1;fill-rule:nonzero;stroke:none"
         id="path13011" /><path
         d="m 225.375,7.875 c -119.766,0 -217.5,97.734 -217.5,217.5 0,119.762 97.734,217.5 217.5,217.5 119.762,0 217.5,-97.738 217.5,-217.5 0,-119.766 -97.738,-217.5 -217.5,-217.5 z m 0,60.301 c 87.176,0 157.199,70.019 157.199,157.199 0,87.176 -70.023,157.199 -157.199,157.199 -87.18,0 -157.199,-70.023 -157.199,-157.199 0,-87.18 70.019,-157.199 157.199,-157.199 z"
         style="fill:#c1121c;fill-opacity:1;fill-rule:nonzero;stroke:none"
         id="path13013" /><path
         d="m 22.344,22.766 v 0.023 H 22.32 Z"
         style="fill:#000000;fill-opacity:1;fill-rule:nonzero;stroke:none"
         id="path13015" /><path
         d="m 22.32,22.766 h 0.023 v 0.023 H 22.32 Z"
         style="fill:#000000;fill-opacity:1;fill-rule:nonzero;stroke:none"
         id="path13017" /><path
         d="m 22.32,22.789 v -0.023 l 0.024,0.023 z m 0.024,0 -0.024,-0.023 v 0.023 z"
         style="fill:#000000;fill-opacity:1;fill-rule:nonzero;stroke:none"
         id="path13019" /><path
         d="M 22.367,22.789 H 22.32 22.344 V 22.766 Z"
         style="fill:#000000;fill-opacity:1;fill-rule:nonzero;stroke:none"
         id="path13021" /><path
         d="m 22.32,22.789 v -0.023 0.023 l 0.024,-0.023 z"
         style="fill:#000000;fill-opacity:1;fill-rule:nonzero;stroke:none"
         id="path13023" /><path
         d="m 22.32,22.766 h 0.023 v 0.023 H 22.32 Z"
         style="fill:#000000;fill-opacity:1;fill-rule:nonzero;stroke:none"
         id="path13025" /><path
         d="m 22.367,22.766 v 0.046 H 22.32 Z"
         style="fill:#000000;fill-opacity:1;fill-rule:nonzero;stroke:none"
         id="path13027" /><path
         d="m 22.32,22.766 h 0.047 v 0.047 H 22.32 Z"
         style="fill:#000000;fill-opacity:1;fill-rule:nonzero;stroke:none"
         id="path13029" /><path
         d="m 22.32,22.812 v -0.046 l 0.047,0.046 z m 0.047,0 -0.047,-0.046 v 0.046 z"
         style="fill:#000000;fill-opacity:1;fill-rule:nonzero;stroke:none"
         id="path13031" /><path
         d="M 22.367,22.812 H 22.32 22.344 V 22.766 Z"
         style="fill:#000000;fill-opacity:1;fill-rule:nonzero;stroke:none"
         id="path13033" /><path
         d="m 22.32,22.812 v -0.046 0.046 l 0.047,-0.046 z"
         style="fill:#000000;fill-opacity:1;fill-rule:nonzero;stroke:none"
         id="path13035" /><path
         d="m 22.32,22.766 h 0.047 v 0.047 H 22.32 Z"
         style="fill:#000000;fill-opacity:1;fill-rule:nonzero;stroke:none"
         id="path13037" /><path
         d="m 22.367,22.766 v 0.046 H 22.32 Z"
         style="fill:#000000;fill-opacity:1;fill-rule:nonzero;stroke:none"
         id="path13039" /><path
         d="m 22.32,22.766 h 0.047 v 0.047 H 22.32 Z"
         style="fill:#000000;fill-opacity:1;fill-rule:nonzero;stroke:none"
         id="path13041" /><path
         d="m 22.32,22.812 v -0.046 l 0.047,0.046 z m 0.047,0 -0.047,-0.046 v 0.046 z"
         style="fill:#000000;fill-opacity:1;fill-rule:nonzero;stroke:none"
         id="path13043" /><path
         d="M 22.367,22.812 H 22.32 22.344 V 22.766 Z"
         style="fill:#000000;fill-opacity:1;fill-rule:nonzero;stroke:none"
         id="path13045" /><path
         d="m 22.32,22.812 v -0.046 0.046 l 0.047,-0.046 z"
         style="fill:#000000;fill-opacity:1;fill-rule:nonzero;stroke:none"
         id="path13047" /><path
         d="m 22.32,22.766 h 0.047 v 0.047 H 22.32 Z"
         style="fill:#000000;fill-opacity:1;fill-rule:nonzero;stroke:none"
         id="path13049" /><path
         d="m 22.367,22.766 v 0.046 H 22.32 Z"
         style="fill:#000000;fill-opacity:1;fill-rule:nonzero;stroke:none"
         id="path13051" /><path
         d="m 22.32,22.766 h 0.047 v 0.047 H 22.32 Z"
         style="fill:#000000;fill-opacity:1;fill-rule:nonzero;stroke:none"
         id="path13053" /><path
         d="m 22.32,22.812 v -0.046 l 0.047,0.046 z m 0.047,0 -0.047,-0.046 v 0.046 z"
         style="fill:#000000;fill-opacity:1;fill-rule:nonzero;stroke:none"
         id="path13055" /><path
         d="M 22.367,22.812 H 22.32 22.344 V 22.766 Z"
         style="fill:#000000;fill-opacity:1;fill-rule:nonzero;stroke:none"
         id="path13057" /><path
         d="m 22.32,22.812 v -0.046 0.046 l 0.047,-0.046 z"
         style="fill:#000000;fill-opacity:1;fill-rule:nonzero;stroke:none"
         id="path13059" /><path
         d="m 22.32,22.766 h 0.047 v 0.047 H 22.32 Z"
         style="fill:#000000;fill-opacity:1;fill-rule:nonzero;stroke:none"
         id="path13061" /><path
         d="M 152.055,234.309 V 210.84 h 9.187 c 8.844,0 15.832,-2.485 20.969,-7.453 5.144,-4.977 7.719,-11.297 7.719,-18.953 0,-7.571 -2.68,-13.946 -8.032,-19.125 -5.355,-5.188 -11.73,-7.782 -19.125,-7.782 -5.617,0 -10.933,1.871 -15.953,5.61 -5.011,3.742 -8.242,9.351 -9.687,16.828 h -26.656 c 1.019,-13.094 6.503,-24.551 16.453,-34.375 9.945,-9.82 21.55,-14.735 34.812,-14.735 16.582,0 29.867,5.465 39.86,16.391 10,10.93 15,23.152 15,36.672 0,7.148 -1.407,14.102 -4.219,20.859 -2.805,6.762 -8.031,12.606 -15.688,17.532 7.821,5.023 13.43,11.187 16.828,18.5 3.407,7.312 5.11,14.711 5.11,22.187 0,17.356 -5.445,31.18 -16.328,41.469 -10.887,10.281 -24.235,15.422 -40.047,15.422 -12.586,0 -23.918,-4.055 -34,-12.172 -10.074,-8.125 -16.34,-19.969 -18.797,-35.531 h 26.656 c 2.457,6.375 5.77,11.5 9.938,15.375 4.164,3.867 10.078,5.796 17.734,5.796 7.395,0 13.941,-2.613 19.641,-7.843 5.695,-5.227 8.547,-12.43 8.547,-21.61 0,-9.269 -2.829,-16.519 -8.485,-21.75 -5.656,-5.226 -12.398,-7.843 -20.219,-7.843 z"
         style="fill:#000000;fill-opacity:1;fill-rule:nonzero;stroke:none"
         id="path13063" /><path
         d="m 314.852,263.824 v -78.312 c 0,-8.852 -2.387,-15.766 -7.157,-20.735 -4.761,-4.976 -11.023,-7.468 -18.781,-7.468 -7.844,0 -14.133,2.492 -18.859,7.468 -4.719,4.969 -7.078,11.883 -7.078,20.735 v 78.312 c 0,8.949 2.359,15.891 7.078,20.828 4.726,4.93 11.015,7.391 18.859,7.391 7.758,0 14.02,-2.461 18.781,-7.391 4.77,-4.937 7.157,-11.879 7.157,-20.828 z m -78.313,1.531 v -81.359 c 0,-16.945 5.313,-30.039 15.938,-39.281 10.625,-9.238 22.769,-13.86 36.437,-13.86 13.582,0 25.707,4.622 36.375,13.86 10.664,9.242 16,22.336 16,39.281 v 81.359 c 0,16.95 -5.336,30.024 -16,39.219 -10.668,9.188 -22.793,13.781 -36.375,13.781 -13.668,0 -25.812,-4.593 -36.437,-13.781 -10.625,-9.195 -15.938,-22.269 -15.938,-39.219 z"
         style="fill:#000000;fill-opacity:1;fill-rule:nonzero;stroke:none"
         id="path13065" /></g></g></svg>
