<?xml version="1.0" encoding="UTF-8" standalone="no"?>
<svg
   xmlns:dc="http://purl.org/dc/elements/1.1/"
   xmlns:cc="http://creativecommons.org/ns#"
   xmlns:rdf="http://www.w3.org/1999/02/22-rdf-syntax-ns#"
   xmlns:svg="http://www.w3.org/2000/svg"
   xmlns="http://www.w3.org/2000/svg"
   viewBox="0 0 600.995 600.995"
   height="600.995"
   width="600.995"
   xml:space="preserve"
   version="1.1"
   id="svg3508"><metadata
     id="metadata3514"><rdf:RDF><cc:Work
         rdf:about=""><dc:format>image/svg+xml</dc:format><dc:type
           rdf:resource="http://purl.org/dc/dcmitype/StillImage" /><dc:title></dc:title></cc:Work></rdf:RDF></metadata><defs
     id="defs3512" /><g
     transform="matrix(1.25,0,0,-1.25,0,600.99499)"
     id="g3516"><g
       id="g3518"><path
         id="path3520"
         style="fill:#ffffff;fill-opacity:1;fill-rule:nonzero;stroke:none"
         d="m 480.398,240.398 c 0,-132.551 -107.449,-240 -240,-240 -132.55,0 -240,107.449 -240,240 0,132.55 107.45,240 240,240 132.551,0 240,-107.45 240,-240 z" /><path
         id="path3522"
         style="fill:#000000;fill-opacity:1;fill-rule:nonzero;stroke:none"
         d="M 240.398,480.796 C 107.633,480.796 0,373.163 0,240.398 0,107.632 107.633,-0.001 240.398,-0.001 c 132.766,0 240.399,107.633 240.399,240.399 0,132.765 -107.633,240.398 -240.399,240.398 z m 0,-0.398 c 132.551,0 240,-107.45 240,-240 0,-132.551 -107.449,-240 -240,-240 -132.55,0 -240,107.449 -240,240 0,132.55 107.45,240 240,240 z" /><path
         id="path3524"
         style="fill:#c1121c;fill-opacity:1;fill-rule:nonzero;stroke:none"
         d="m 240.398,472.398 c -127.746,0 -232,-104.254 -232,-232 0,-127.747 104.254,-232 232,-232 127.747,0 232,104.253 232,232 0,127.746 -104.253,232 -232,232 z m 0,-64.321 c 92.989,0 167.68,-74.691 167.68,-167.679 0,-92.989 -74.691,-167.68 -167.68,-167.68 -92.988,0 -167.679,74.691 -167.679,167.68 0,92.988 74.691,167.679 167.679,167.679 z" /><path
         id="path3526"
         style="fill:#000000;fill-opacity:1;fill-rule:nonzero;stroke:none"
         d="m 23.832,456.511 0,-0.024 -0.023,0 0.023,0.024 z" /><path
         id="path3528"
         style="fill:#000000;fill-opacity:1;fill-rule:nonzero;stroke:none"
         d="m 23.809,456.511 0.023,0 0,-0.023 -0.023,0 0,0.023 z" /><path
         id="path3530"
         style="fill:#000000;fill-opacity:1;fill-rule:nonzero;stroke:none"
         d="m 23.809,456.487 0,0.024 0.023,-0.024 -0.023,0 z m 0.023,0 -0.023,0.024 0,-0.024 0.023,0 z" /><path
         id="path3532"
         style="fill:#000000;fill-opacity:1;fill-rule:nonzero;stroke:none"
         d="m 23.859,456.487 -0.05,0 0.023,0 0,0.024 0.027,-0.024 z" /><path
         id="path3534"
         style="fill:#000000;fill-opacity:1;fill-rule:nonzero;stroke:none"
         d="m 23.809,456.487 0,0.024 0,-0.024 0.023,0.024 -0.023,-0.024 z" /><path
         id="path3536"
         style="fill:#000000;fill-opacity:1;fill-rule:nonzero;stroke:none"
         d="m 23.809,456.511 0.023,0 0,-0.023 -0.023,0 0,0.023 z" /><path
         id="path3538"
         style="fill:#000000;fill-opacity:1;fill-rule:nonzero;stroke:none"
         d="m 23.859,456.511 0,-0.047 -0.05,0 0.05,0.047 z" /><path
         id="path3540"
         style="fill:#000000;fill-opacity:1;fill-rule:nonzero;stroke:none"
         d="m 23.809,456.511 0.051,0 0,-0.047 -0.051,0 0,0.047 z" /><path
         id="path3542"
         style="fill:#000000;fill-opacity:1;fill-rule:nonzero;stroke:none"
         d="m 23.809,456.464 0,0.047 0.05,-0.047 -0.05,0 z m 0.05,0 -0.05,0.047 0,-0.047 0.05,0 z" /><path
         id="path3544"
         style="fill:#000000;fill-opacity:1;fill-rule:nonzero;stroke:none"
         d="m 23.859,456.464 -0.05,0 0.023,0 0,0.047 0.027,-0.047 z" /><path
         id="path3546"
         style="fill:#000000;fill-opacity:1;fill-rule:nonzero;stroke:none"
         d="m 23.809,456.464 0,0.047 0,-0.047 0.05,0.047 -0.05,-0.047 z" /><path
         id="path3548"
         style="fill:#000000;fill-opacity:1;fill-rule:nonzero;stroke:none"
         d="m 23.809,456.511 0.051,0 0,-0.047 -0.051,0 0,0.047 z" /><path
         id="path3550"
         style="fill:#000000;fill-opacity:1;fill-rule:nonzero;stroke:none"
         d="m 23.859,456.511 0,-0.047 -0.05,0 0.05,0.047 z" /><path
         id="path3552"
         style="fill:#000000;fill-opacity:1;fill-rule:nonzero;stroke:none"
         d="m 23.809,456.511 0.051,0 0,-0.047 -0.051,0 0,0.047 z" /><path
         id="path3554"
         style="fill:#000000;fill-opacity:1;fill-rule:nonzero;stroke:none"
         d="m 23.809,456.464 0,0.047 0.05,-0.047 -0.05,0 z m 0.05,0 -0.05,0.047 0,-0.047 0.05,0 z" /><path
         id="path3556"
         style="fill:#000000;fill-opacity:1;fill-rule:nonzero;stroke:none"
         d="m 23.859,456.464 -0.05,0 0.023,0 0,0.047 0.027,-0.047 z" /><path
         id="path3558"
         style="fill:#000000;fill-opacity:1;fill-rule:nonzero;stroke:none"
         d="m 23.809,456.464 0,0.047 0,-0.047 0.05,0.047 -0.05,-0.047 z" /><path
         id="path3560"
         style="fill:#000000;fill-opacity:1;fill-rule:nonzero;stroke:none"
         d="m 23.809,456.511 0.051,0 0,-0.047 -0.051,0 0,0.047 z" /><path
         id="path3562"
         style="fill:#000000;fill-opacity:1;fill-rule:nonzero;stroke:none"
         d="m 23.859,456.511 0,-0.047 -0.05,0 0.05,0.047 z" /><path
         id="path3564"
         style="fill:#000000;fill-opacity:1;fill-rule:nonzero;stroke:none"
         d="m 23.809,456.511 0.051,0 0,-0.047 -0.051,0 0,0.047 z" /><path
         id="path3566"
         style="fill:#000000;fill-opacity:1;fill-rule:nonzero;stroke:none"
         d="m 23.809,456.464 0,0.047 0.05,-0.047 -0.05,0 z m 0.05,0 -0.05,0.047 0,-0.047 0.05,0 z" /><path
         id="path3568"
         style="fill:#000000;fill-opacity:1;fill-rule:nonzero;stroke:none"
         d="m 23.859,456.464 -0.05,0 0.023,0 0,0.047 0.027,-0.047 z" /><path
         id="path3570"
         style="fill:#000000;fill-opacity:1;fill-rule:nonzero;stroke:none"
         d="m 23.809,456.464 0,0.047 0,-0.047 0.05,0.047 -0.05,-0.047 z" /><path
         id="path3572"
         style="fill:#000000;fill-opacity:1;fill-rule:nonzero;stroke:none"
         d="m 23.809,456.511 0.051,0 0,-0.047 -0.051,0 0,0.047 z" /><path
         id="path3574"
         style="fill:#000000;fill-opacity:1;fill-rule:nonzero;stroke:none"
         d="m 119.688,232.253 26.964,0 c 3.371,5.805 7.118,10.02 11.235,12.641 4.121,2.621 8.992,3.929 14.609,3.929 11.047,0 18.633,-3.371 22.75,-10.109 4.121,-6.555 6.184,-16.012 6.184,-28.371 0,-6.555 -0.188,-12.078 -0.563,-16.574 -0.375,-4.309 -1.5,-8.52 -3.371,-12.641 -1.687,-4.121 -4.496,-7.488 -8.43,-10.113 -3.929,-2.434 -9.175,-3.649 -15.726,-3.649 -7.867,0 -14.235,2.059 -19.102,6.18 -4.871,4.117 -8.054,9.828 -9.55,17.133 l -28.653,0 c 0.938,-8.988 3.278,-16.856 7.024,-23.594 3.742,-6.555 8.332,-11.988 13.761,-16.293 5.43,-4.121 11.332,-7.211 17.7,-9.269 6.55,-1.875 13.199,-2.809 19.941,-2.809 9.176,0 17.512,2.059 25,6.18 7.492,4.117 13.578,9.175 18.258,15.168 4.496,5.804 7.679,12.078 9.551,18.82 1.875,6.742 2.808,16.48 2.808,29.211 0,15.73 -1.121,27.156 -3.371,34.269 -2.246,7.305 -6.367,14.141 -12.359,20.508 -3.93,4.309 -9.082,7.77 -15.45,10.395 -6.367,2.808 -13.105,4.211 -20.222,4.211 -12.172,0 -22.848,-3.653 -32.024,-10.953 l 0,45.222 79.496,0 0,28.653 -106.46,0 0,-108.145 z" /><path
         id="path3576"
         style="fill:#000000;fill-opacity:1;fill-rule:nonzero;stroke:none"
         d="m 336.109,197.983 c 0,-9.55 -2.527,-17.042 -7.582,-22.472 -5.058,-5.43 -11.894,-8.145 -20.507,-8.145 -8.614,0 -15.45,2.715 -20.504,8.145 -5.059,5.43 -7.586,12.922 -7.586,22.472 l 0,84.833 c 0,9.546 2.527,17.039 7.586,22.468 5.054,5.434 11.89,8.149 20.504,8.149 8.613,0 15.449,-2.715 20.507,-8.149 5.055,-5.429 7.582,-12.922 7.582,-22.468 l 0,-84.833 z m -84.832,-1.687 c 0,-8.988 1.5,-17.039 4.496,-24.156 3.184,-7.117 7.395,-13.203 12.641,-18.258 5.43,-5.059 11.516,-8.895 18.258,-11.516 6.742,-2.437 13.855,-3.652 21.348,-3.652 7.492,0 14.605,1.215 21.347,3.652 6.93,2.621 13.016,6.364 18.258,11.235 5.246,5.054 9.363,11.14 12.359,18.257 3.184,7.305 4.778,15.45 4.778,24.438 l 0,88.203 c 0,8.988 -1.5,17.043 -4.496,24.156 -2.996,7.118 -7.207,13.203 -12.641,18.258 -5.43,5.059 -11.516,8.805 -18.258,11.238 -6.742,2.622 -13.855,3.934 -21.347,3.934 -7.493,0 -14.7,-1.312 -21.629,-3.934 -6.743,-2.433 -12.735,-6.179 -17.977,-11.238 -5.246,-4.867 -9.457,-10.953 -12.641,-18.258 -2.996,-7.113 -4.496,-15.168 -4.496,-24.156 l 0,-88.203 z" /></g></g></svg>