<?xml version="1.0" encoding="UTF-8" standalone="no"?>
<!-- Created with Inkscape (http://www.inkscape.org/) -->

<svg
   version="1.1"
   id="svg11856"
   xml:space="preserve"
   width="600.995"
   height="600.995"
   viewBox="0 0 600.995 600.995"
   xmlns="http://www.w3.org/2000/svg"
   xmlns:svg="http://www.w3.org/2000/svg"><defs
     id="defs11860" /><g
     id="g11862"
     transform="matrix(1.3333333,0,0,1.3333333,0,1.0358208e-5)"><g
       id="g11864"><path
         d="m 450.375,225.375 c 0,124.266 -100.734,225 -225,225 -124.266,0 -225,-100.734 -225,-225 0,-124.266 100.734,-225 225,-225 124.266,0 225,100.734 225,225 z"
         style="fill:#ffffff;fill-opacity:1;fill-rule:nonzero;stroke:none"
         id="path11866" /><path
         d="M 225.375,0 C 100.906,0 0,100.906 0,225.375 0,349.84 100.906,450.746 225.375,450.746 349.84,450.746 450.746,349.84 450.746,225.375 450.746,100.906 349.84,0 225.375,0 Z m 0,0.375 c 124.266,0 225,100.734 225,225 0,124.266 -100.734,225 -225,225 -124.266,0 -225,-100.734 -225,-225 0,-124.266 100.734,-225 225,-225 z"
         style="fill:#000000;fill-opacity:1;fill-rule:nonzero;stroke:none"
         id="path11868" /><path
         d="m 225.375,7.875 c -119.766,0 -217.5,97.734 -217.5,217.5 0,119.762 97.734,217.5 217.5,217.5 119.762,0 217.5,-97.738 217.5,-217.5 0,-119.766 -97.738,-217.5 -217.5,-217.5 z m 0,60.301 c 87.176,0 157.199,70.019 157.199,157.199 0,87.176 -70.023,157.199 -157.199,157.199 -87.18,0 -157.199,-70.023 -157.199,-157.199 0,-87.18 70.019,-157.199 157.199,-157.199 z"
         style="fill:#c1121c;fill-opacity:1;fill-rule:nonzero;stroke:none"
         id="path11870" /><path
         d="m 22.344,22.766 v 0.023 H 22.32 Z"
         style="fill:#000000;fill-opacity:1;fill-rule:nonzero;stroke:none"
         id="path11872" /><path
         d="m 22.32,22.766 h 0.023 v 0.023 H 22.32 Z"
         style="fill:#000000;fill-opacity:1;fill-rule:nonzero;stroke:none"
         id="path11874" /><path
         d="m 22.32,22.789 v -0.023 l 0.024,0.023 z m 0.024,0 -0.024,-0.023 v 0.023 z"
         style="fill:#000000;fill-opacity:1;fill-rule:nonzero;stroke:none"
         id="path11876" /><path
         d="M 22.367,22.789 H 22.32 22.344 V 22.766 Z"
         style="fill:#000000;fill-opacity:1;fill-rule:nonzero;stroke:none"
         id="path11878" /><path
         d="m 22.32,22.789 v -0.023 0.023 l 0.024,-0.023 z"
         style="fill:#000000;fill-opacity:1;fill-rule:nonzero;stroke:none"
         id="path11880" /><path
         d="m 22.32,22.766 h 0.023 v 0.023 H 22.32 Z"
         style="fill:#000000;fill-opacity:1;fill-rule:nonzero;stroke:none"
         id="path11882" /><path
         d="m 22.367,22.766 v 0.046 H 22.32 Z"
         style="fill:#000000;fill-opacity:1;fill-rule:nonzero;stroke:none"
         id="path11884" /><path
         d="m 22.32,22.766 h 0.047 v 0.047 H 22.32 Z"
         style="fill:#000000;fill-opacity:1;fill-rule:nonzero;stroke:none"
         id="path11886" /><path
         d="m 22.32,22.812 v -0.046 l 0.047,0.046 z m 0.047,0 -0.047,-0.046 v 0.046 z"
         style="fill:#000000;fill-opacity:1;fill-rule:nonzero;stroke:none"
         id="path11888" /><path
         d="M 22.367,22.812 H 22.32 22.344 V 22.766 Z"
         style="fill:#000000;fill-opacity:1;fill-rule:nonzero;stroke:none"
         id="path11890" /><path
         d="m 22.32,22.812 v -0.046 0.046 l 0.047,-0.046 z"
         style="fill:#000000;fill-opacity:1;fill-rule:nonzero;stroke:none"
         id="path11892" /><path
         d="m 22.32,22.766 h 0.047 v 0.047 H 22.32 Z"
         style="fill:#000000;fill-opacity:1;fill-rule:nonzero;stroke:none"
         id="path11894" /><path
         d="m 22.367,22.766 v 0.046 H 22.32 Z"
         style="fill:#000000;fill-opacity:1;fill-rule:nonzero;stroke:none"
         id="path11896" /><path
         d="m 22.32,22.766 h 0.047 v 0.047 H 22.32 Z"
         style="fill:#000000;fill-opacity:1;fill-rule:nonzero;stroke:none"
         id="path11898" /><path
         d="m 22.32,22.812 v -0.046 l 0.047,0.046 z m 0.047,0 -0.047,-0.046 v 0.046 z"
         style="fill:#000000;fill-opacity:1;fill-rule:nonzero;stroke:none"
         id="path11900" /><path
         d="M 22.367,22.812 H 22.32 22.344 V 22.766 Z"
         style="fill:#000000;fill-opacity:1;fill-rule:nonzero;stroke:none"
         id="path11902" /><path
         d="m 22.32,22.812 v -0.046 0.046 l 0.047,-0.046 z"
         style="fill:#000000;fill-opacity:1;fill-rule:nonzero;stroke:none"
         id="path11904" /><path
         d="m 22.32,22.766 h 0.047 v 0.047 H 22.32 Z"
         style="fill:#000000;fill-opacity:1;fill-rule:nonzero;stroke:none"
         id="path11906" /><path
         d="m 22.367,22.766 v 0.046 H 22.32 Z"
         style="fill:#000000;fill-opacity:1;fill-rule:nonzero;stroke:none"
         id="path11908" /><path
         d="m 22.32,22.766 h 0.047 v 0.047 H 22.32 Z"
         style="fill:#000000;fill-opacity:1;fill-rule:nonzero;stroke:none"
         id="path11910" /><path
         d="m 22.32,22.812 v -0.046 l 0.047,0.046 z m 0.047,0 -0.047,-0.046 v 0.046 z"
         style="fill:#000000;fill-opacity:1;fill-rule:nonzero;stroke:none"
         id="path11912" /><path
         d="M 22.367,22.812 H 22.32 22.344 V 22.766 Z"
         style="fill:#000000;fill-opacity:1;fill-rule:nonzero;stroke:none"
         id="path11914" /><path
         d="m 22.32,22.812 v -0.046 0.046 l 0.047,-0.046 z"
         style="fill:#000000;fill-opacity:1;fill-rule:nonzero;stroke:none"
         id="path11916" /><path
         d="m 22.32,22.766 h 0.047 v 0.047 H 22.32 Z"
         style="fill:#000000;fill-opacity:1;fill-rule:nonzero;stroke:none"
         id="path11918" /><path
         d="m 114.941,319.121 v -25 l 72.704,-90.937 c 2.8,-3.571 4.628,-6.844 5.484,-9.813 0.851,-2.976 1.281,-5.875 1.281,-8.687 0,-6.457 -2.297,-12.469 -6.89,-18.032 -4.594,-5.57 -10.844,-8.359 -18.75,-8.359 -7.231,0 -13.418,2.402 -18.563,7.203 -5.148,4.805 -8.016,11.371 -8.609,19.703 h -26.657 c 0.082,-15.051 5.223,-27.742 15.422,-38.078 10.207,-10.332 22.328,-15.5 36.36,-15.5 15.476,0 28.379,5.211 38.703,15.625 10.332,10.418 15.5,22.984 15.5,37.703 0,12.586 -3.699,23.465 -11.094,32.641 l -59.812,75 h 70.906 v 26.531 z"
         style="fill:#000000;fill-opacity:1;fill-rule:nonzero;stroke:none"
         id="path11920" /><path
         d="m 315.367,264.586 v -78.313 c 0,-8.851 -2.387,-15.765 -7.156,-20.734 -4.762,-4.977 -11.023,-7.469 -18.781,-7.469 -7.844,0 -14.133,2.492 -18.86,7.469 -4.718,4.969 -7.078,11.883 -7.078,20.734 v 78.313 c 0,8.949 2.36,15.891 7.078,20.828 4.727,4.93 11.016,7.391 18.86,7.391 7.758,0 14.019,-2.461 18.781,-7.391 4.769,-4.937 7.156,-11.879 7.156,-20.828 z m -78.312,1.531 v -81.359 c 0,-16.946 5.312,-30.039 15.937,-39.281 10.625,-9.239 22.77,-13.86 36.438,-13.86 13.582,0 25.707,4.621 36.375,13.86 10.664,9.242 16,22.335 16,39.281 v 81.359 c 0,16.949 -5.336,30.024 -16,39.219 -10.668,9.187 -22.793,13.781 -36.375,13.781 -13.668,0 -25.813,-4.594 -36.438,-13.781 -10.625,-9.195 -15.937,-22.27 -15.937,-39.219 z"
         style="fill:#000000;fill-opacity:1;fill-rule:nonzero;stroke:none"
         id="path11922" /></g></g></svg>
