<?xml version="1.0" encoding="UTF-8" standalone="no"?>
<svg
   xmlns:dc="http://purl.org/dc/elements/1.1/"
   xmlns:cc="http://creativecommons.org/ns#"
   xmlns:rdf="http://www.w3.org/1999/02/22-rdf-syntax-ns#"
   xmlns:svg="http://www.w3.org/2000/svg"
   xmlns="http://www.w3.org/2000/svg"
   viewBox="0 0 600 600"
   height="600"
   width="600"
   xml:space="preserve"
   version="1.1"
   id="svg6345"><metadata
     id="metadata6351"><rdf:RDF><cc:Work
         rdf:about=""><dc:format>image/svg+xml</dc:format><dc:type
           rdf:resource="http://purl.org/dc/dcmitype/StillImage" /><dc:title></dc:title></cc:Work></rdf:RDF></metadata><defs
     id="defs6349"><clipPath
       id="clipPath6363"
       clipPathUnits="userSpaceOnUse"><path
         id="path6365"
         d="M 0,0 480,0 480,480 0,480 0,0 Z" /></clipPath></defs><g
     transform="matrix(1.25,0,0,-1.25,0,600)"
     id="g6353"><g
       id="g6355"><g
         id="g6357"><g
           id="g6359"><g
             clip-path="url(#clipPath6363)"
             id="g6361"><g
               id="g6367"><path
                 id="path6369"
                 style="fill:#ffffff;fill-opacity:1;fill-rule:nonzero;stroke:none"
                 d="m 32.414,0.484 c -17.633,0 -31.93,14.297 -31.93,31.942 l 0,415.172 c 0,17.632 14.297,31.929 31.93,31.929 l 415.172,0 c 17.644,0 31.941,-14.297 31.941,-31.929 l 0,-415.172 c 0,-17.645 -14.297,-31.942 -31.941,-31.942" /><path
                 id="path6371"
                 style="fill:#000000;fill-opacity:1;fill-rule:nonzero;stroke:none"
                 d="M 32.414,480.012 C 14.539,480.012 0,465.461 0,447.598 L 0,32.426 C 0,14.551 14.539,0 32.414,0 L 447.586,0 C 465.461,0 480,14.551 480,32.426 l 0,415.172 c 0,17.863 -14.539,32.414 -32.414,32.414 l -415.172,0 z m 0,-0.485 415.172,0 c 17.644,0 31.941,-14.297 31.941,-31.929 l 0,-415.172 c 0,-17.645 -14.297,-31.942 -31.941,-31.942 l -415.172,0 c -17.637,0 -31.93,14.297 -31.93,31.942 l 0,415.172 c 0,17.632 14.293,31.929 31.93,31.929 z" /></g></g></g></g><path
         id="path6373"
         style="fill:#000000;fill-opacity:1;fill-rule:nonzero;stroke:none"
         d="m 32.414,471.543 c -13.219,0 -23.949,-10.727 -23.949,-23.945 l 0,-415.172 c 0,-13.231 10.73,-23.961 23.949,-23.961 l 415.172,0 c 13.23,0 23.949,10.73 23.949,23.961 l 0,415.172 c 0,13.218 -10.719,23.945 -23.949,23.945 l -415.172,0 z m 0,-11.973 415.172,0 c 6.613,0 11.973,-5.371 11.973,-11.972 l 0,-415.172 c 0,-6.614 -5.36,-11.985 -11.973,-11.985 l -415.172,0 c -6.617,0 -11.973,5.371 -11.973,11.985 l 0,415.172 c 0,6.601 5.356,11.972 11.973,11.972 z" /><path
         id="path6375"
         style="fill:#c1121c;fill-opacity:1;fill-rule:nonzero;stroke:none"
         d="m 240.008,437.473 c -83.953,0 -152.004,-68.047 -152.004,-152 0,-83.942 68.051,-152 152.004,-152 83.937,0 152,68.058 152,152 0,83.953 -68.063,152 -152,152 z m 0,-40 c 61.851,0 112,-50.145 112,-112 0,-61.856 -50.149,-112.004 -112,-112.004 -61.856,0 -112.004,50.148 -112.004,112.004 0,61.855 50.148,112 112.004,112 z" /><path
         id="path6377"
         style="fill:#000000;fill-opacity:1;fill-rule:nonzero;stroke:none"
         d="m 153.949,252.801 18.942,0 c 2.574,-10.641 13.304,-17.184 23.945,-14.598 8.902,2.152 15.168,10.113 15.168,19.27 l 0,2.332 c 0,10.961 -8.875,19.836 -19.836,19.836 l -8.164,0 0,16.328 8.164,0 c 10.305,0 18.664,8.359 18.664,18.676 0,10.304 -8.359,18.664 -18.664,18.664 -8.961,0 -16.656,-6.375 -18.336,-15.168 l -18.832,0 c 1.934,20.527 20.137,35.597 40.664,33.671 19.184,-1.812 33.844,-17.91 33.844,-37.167 0,-10.629 -5.18,-20.598 -13.863,-26.719 9.386,-6.278 15.023,-16.824 15.023,-28.121 l 0,-2.332 c 0,-21.254 -17.234,-38.5 -38.5,-38.5 -19.461,0 -35.863,14.515 -38.219,33.828" /><path
         id="path6379"
         style="fill:#000000;fill-opacity:1;fill-rule:nonzero;stroke:none"
         d="m 267.992,256.309 c 0,-10.317 8.36,-18.661 18.676,-18.661 10.305,0 18.664,8.344 18.664,18.661 l 0,58.336 c 0,10.304 -8.359,18.664 -18.664,18.664 -10.316,0 -18.676,-8.36 -18.676,-18.664 l 0,-58.336 z m -18.66,0 0,58.336 c 0,20.613 16.715,37.328 37.336,37.328 20.625,0 37.34,-16.715 37.34,-37.328 l 0,-58.336 c 0,-20.621 -16.715,-37.336 -37.34,-37.336 -20.621,0 -37.336,16.715 -37.336,37.336" /><path
         id="path6381"
         style="fill:#000000;fill-opacity:1;fill-rule:nonzero;stroke:none"
         d="m 308.391,42.539 0,67.199 43.218,0 0,-9.59 -33.007,0 0,-19.207 28.203,0 0,-9 -28.203,0 0,-19.8 33.007,0 0,-9.602 -43.218,0 z m -65.993,0 0,67.199 9.606,0 30.601,-47.992 0,47.992 10.196,0 0,-67.199 -9.602,0 -30.59,48.004 0,-48.004 -10.211,0 z m -50.992,23.402 c 0,-7.617 6.168,-13.8 13.789,-13.8 7.633,0 13.801,6.183 13.801,13.8 l 0,20.407 c 0,7.609 -6.168,13.8 -13.801,13.8 -7.621,0 -13.789,-6.191 -13.789,-13.8 l 0,-20.407 z m -10.207,0 0,20.407 c 0,13.246 10.75,23.996 23.996,23.996 13.258,0 24.008,-10.75 24.008,-23.996 l 0,-20.407 c 0,-13.253 -10.75,-23.996 -24.008,-23.996 -13.246,0 -23.996,10.743 -23.996,23.996 z m -52.797,-23.402 0,8.395 30.602,49.808 -29.402,0 0,8.996 42.003,0 0,-7.789 -30.601,-49.808 30.601,0 0,-9.602" /></g></g></svg>