<?xml version="1.0" encoding="UTF-8" standalone="no"?>
<svg
   xmlns:dc="http://purl.org/dc/elements/1.1/"
   xmlns:cc="http://creativecommons.org/ns#"
   xmlns:rdf="http://www.w3.org/1999/02/22-rdf-syntax-ns#"
   xmlns:svg="http://www.w3.org/2000/svg"
   xmlns="http://www.w3.org/2000/svg"
   viewBox="0 0 600 600"
   height="600"
   width="600"
   xml:space="preserve"
   version="1.1"
   id="svg6495"><metadata
     id="metadata6501"><rdf:RDF><cc:Work
         rdf:about=""><dc:format>image/svg+xml</dc:format><dc:type
           rdf:resource="http://purl.org/dc/dcmitype/StillImage" /><dc:title></dc:title></cc:Work></rdf:RDF></metadata><defs
     id="defs6499" /><g
     transform="matrix(1.25,0,0,-1.25,0,600)"
     id="g6503"><g
       id="g6505"><path
         id="path6507"
         style="fill:#ffffff;fill-opacity:1;fill-rule:nonzero;stroke:none"
         d="m 32.414,0.473 c -17.633,0 -31.93,14.297 -31.93,31.941 l 0,415.172 c 0,17.633 14.297,31.93 31.93,31.93 l 415.172,0 c 17.644,0 31.941,-14.297 31.941,-31.93 l 0,-415.172 C 479.527,14.77 465.23,0.473 447.586,0.473" /><path
         id="path6509"
         style="fill:#000000;fill-opacity:1;fill-rule:nonzero;stroke:none"
         d="M 32.414,480 C 14.539,480 0,465.461 0,447.586 L 0,32.414 C 0,14.539 14.539,0 32.414,0 L 447.586,0 C 465.461,0 480,14.539 480,32.414 l 0,415.172 C 480,465.461 465.461,480 447.586,480 l -415.172,0 z m 0,-0.484 415.172,0 c 17.644,0 31.941,-14.297 31.941,-31.93 l 0,-415.172 C 479.527,14.77 465.23,0.473 447.586,0.473 l -415.172,0 c -17.633,0 -31.93,14.297 -31.93,31.941 l 0,415.172 c 0,17.633 14.297,31.93 31.93,31.93 z" /><path
         id="path6511"
         style="fill:#000000;fill-opacity:1;fill-rule:nonzero;stroke:none"
         d="m 32.414,471.535 c -13.219,0 -23.945,-10.73 -23.945,-23.949 l 0,-415.172 c 0,-13.23 10.726,-23.945 23.945,-23.945 l 415.172,0 c 13.23,0 23.945,10.715 23.945,23.945 l 0,415.172 c 0,13.219 -10.715,23.949 -23.945,23.949 l -415.172,0 z m 0,-11.976 415.172,0 c 6.613,0 11.973,-5.371 11.973,-11.973 l 0,-415.172 c 0,-6.613 -5.36,-11.984 -11.973,-11.984 l -415.172,0 c -6.613,0 -11.973,5.371 -11.973,11.984 l 0,415.172 c 0,6.602 5.36,11.973 11.973,11.973 z" /><path
         id="path6513"
         style="fill:#c1121c;fill-opacity:1;fill-rule:nonzero;stroke:none"
         d="m 240.008,437.461 c -83.953,0 -152.004,-68.047 -152.004,-152 0,-83.941 68.051,-152 152.004,-152 83.941,0 152,68.059 152,152 0,83.953 -68.059,152 -152,152 z m 0,-40 c 61.855,0 112,-50.145 112,-112 0,-61.856 -50.145,-112.004 -112,-112.004 -61.856,0 -112.004,50.148 -112.004,112.004 0,61.855 50.148,112 112.004,112 z" /><path
         id="path6515"
         style="fill:#000000;fill-opacity:1;fill-rule:nonzero;stroke:none"
         d="m 308.391,42.527 0,67.2 43.218,0 0,-9.59 -33.007,0 0,-19.207 28.207,0 0,-9 -28.207,0 0,-19.797 33.007,0 0,-9.606 -43.218,0 z m -65.989,0 0,67.2 9.602,0 30.601,-47.993 0,47.993 10.196,0 0,-67.2 -9.602,0 -30.59,48.008 0,-48.008 -10.207,0 z M 191.406,65.93 c 0,-7.618 6.168,-13.797 13.789,-13.797 7.633,0 13.801,6.179 13.801,13.797 l 0,20.406 c 0,7.609 -6.168,13.801 -13.801,13.801 -7.621,0 -13.789,-6.192 -13.789,-13.801 l 0,-20.406 z m -10.207,0 0,20.406 c 0,13.246 10.754,23.996 23.996,23.996 13.258,0 24.008,-10.75 24.008,-23.996 l 0,-20.406 c 0,-13.254 -10.75,-23.996 -24.008,-23.996 -13.242,0 -23.996,10.742 -23.996,23.996 z m -52.797,-23.403 0,8.407 30.602,49.796 -29.402,0 0,8.997 42.003,0 0,-7.789 -30.597,-49.805 30.597,0 0,-9.606" /><path
         id="path6517"
         style="fill:#000000;fill-opacity:1;fill-rule:nonzero;stroke:none"
         d="m 162.004,220.133 0,17.504 51.949,65.386 c 6.41,8.067 5.067,19.813 -3,26.223 -8.078,6.41 -19.824,5.066 -26.234,-3 -2.625,-3.301 -4.051,-7.402 -4.051,-11.613 l -18.664,0 c 0,20.613 16.715,37.328 37.324,37.328 20.625,0 37.34,-16.715 37.34,-37.328 0,-8.477 -2.879,-16.703 -8.176,-23.321 l -41.996,-52.515 50.172,0 0,-18.664" /><path
         id="path6519"
         style="fill:#000000;fill-opacity:1;fill-rule:nonzero;stroke:none"
         d="m 269.336,256.297 c 0,-10.305 8.348,-18.66 18.676,-18.66 10.293,0 18.664,8.355 18.664,18.66 l 0,58.336 c 0,10.305 -8.371,18.664 -18.664,18.664 -10.328,0 -18.676,-8.359 -18.676,-18.664 l 0,-58.336 z m -18.66,0 0,58.336 c 0,20.613 16.715,37.328 37.336,37.328 20.609,0 37.312,-16.715 37.312,-37.328 l 0,-58.336 c 0,-20.621 -16.703,-37.336 -37.312,-37.336 -20.621,0 -37.336,16.715 -37.336,37.336" /></g></g></svg>