<?xml version="1.0" encoding="UTF-8" standalone="no"?>
<svg
   xmlns:dc="http://purl.org/dc/elements/1.1/"
   xmlns:cc="http://creativecommons.org/ns#"
   xmlns:rdf="http://www.w3.org/1999/02/22-rdf-syntax-ns#"
   xmlns:svg="http://www.w3.org/2000/svg"
   xmlns="http://www.w3.org/2000/svg"
   viewBox="0 0 600.99622 600.99628"
   height="600.99628"
   width="600.99622"
   xml:space="preserve"
   version="1.1"
   id="svg3905"><metadata
     id="metadata3911"><rdf:RDF><cc:Work
         rdf:about=""><dc:format>image/svg+xml</dc:format><dc:type
           rdf:resource="http://purl.org/dc/dcmitype/StillImage" /><dc:title></dc:title></cc:Work></rdf:RDF></metadata><defs
     id="defs3909" /><g
     transform="matrix(1.25,0,0,-1.25,0,600.99628)"
     id="g3913"><g
       id="g3915"><path
         id="path3917"
         style="fill:#ffffff;fill-opacity:1;fill-rule:nonzero;stroke:none"
         d="m 0.398,240.399 c 0,-132.551 107.45,-240 240,-240 132.551,0 240,107.449 240,240 0,132.55 -107.449,240 -240,240 -132.55,0 -240,-107.45 -240,-240 z" /><path
         id="path3919"
         style="fill:#154889;fill-opacity:1;fill-rule:nonzero;stroke:none"
         d="m 63.184,240.399 c 0,-98.895 79.343,-179.067 177.214,-179.067 97.872,0 177.215,80.172 177.215,179.067 0,98.894 -79.343,179.066 -177.215,179.066 -97.871,0 -177.214,-80.172 -177.214,-179.066 z" /><path
         id="path3921"
         style="fill:#000000;fill-opacity:1;fill-rule:nonzero;stroke:none"
         d="m 240.398,480.797 c 132.766,0 240.399,-107.633 240.399,-240.398 C 480.797,107.633 373.164,0 240.398,0 107.633,0 0,107.633 0,240.399 0,373.164 107.633,480.797 240.398,480.797 Z m 0,-0.398 c -132.55,0 -240,-107.45 -240,-240 0,-132.551 107.45,-240 240,-240 132.551,0 240,107.449 240,240 0,132.55 -107.449,240 -240,240 z" /><path
         id="path3923"
         style="fill:none;stroke:#c1121c;stroke-width:64.3168335;stroke-linecap:butt;stroke-linejoin:miter;stroke-miterlimit:4;stroke-dasharray:none;stroke-opacity:1"
         d="m 40.559,240.399 c 0,-110.368 89.472,-199.84 199.839,-199.84 110.368,0 199.84,89.472 199.84,199.84 0,110.367 -89.472,199.839 -199.84,199.839 -110.367,0 -199.839,-89.472 -199.839,-199.839 z" /><path
         id="path3925"
         style="fill:#000000;fill-opacity:1;fill-rule:nonzero;stroke:none"
         d="m 456.965,456.512 0,-0.024 0.023,0 -0.023,0.024 z" /><path
         id="path3927"
         style="fill:#000000;fill-opacity:1;fill-rule:nonzero;stroke:none"
         d="m 456.965,456.512 0.023,0 0,-0.023 -0.023,0 0,0.023 z" /><path
         id="path3929"
         style="fill:#000000;fill-opacity:1;fill-rule:nonzero;stroke:none"
         d="m 456.988,456.488 0,0.024 -0.023,-0.024 0.023,0 z m -0.023,0 0.023,0.024 0,-0.024 -0.023,0 z" /><path
         id="path3931"
         style="fill:#000000;fill-opacity:1;fill-rule:nonzero;stroke:none"
         d="m 456.938,456.488 0.05,0 -0.023,0 0,0.024 -0.027,-0.024 z" /><path
         id="path3933"
         style="fill:#000000;fill-opacity:1;fill-rule:nonzero;stroke:none"
         d="m 456.988,456.488 0,0.024 0,-0.024 -0.023,0.024 0.023,-0.024 z" /><path
         id="path3935"
         style="fill:#000000;fill-opacity:1;fill-rule:nonzero;stroke:none"
         d="m 456.965,456.512 0.023,0 0,-0.023 -0.023,0 0,0.023 z" /><path
         id="path3937"
         style="fill:#000000;fill-opacity:1;fill-rule:nonzero;stroke:none"
         d="m 456.938,456.512 0,-0.047 0.05,0 -0.05,0.047 z" /><path
         id="path3939"
         style="fill:#000000;fill-opacity:1;fill-rule:nonzero;stroke:none"
         d="m 456.938,456.512 0.051,0 0,-0.047 -0.051,0 0,0.047 z" /><path
         id="path3941"
         style="fill:#000000;fill-opacity:1;fill-rule:nonzero;stroke:none"
         d="m 456.988,456.465 0,0.047 -0.05,-0.047 0.05,0 z m -0.05,0 0.05,0.047 0,-0.047 -0.05,0 z" /><path
         id="path3943"
         style="fill:#000000;fill-opacity:1;fill-rule:nonzero;stroke:none"
         d="m 456.938,456.465 0.05,0 -0.023,0 0,0.047 -0.027,-0.047 z" /><path
         id="path3945"
         style="fill:#000000;fill-opacity:1;fill-rule:nonzero;stroke:none"
         d="m 456.988,456.465 0,0.047 0,-0.047 -0.05,0.047 0.05,-0.047 z" /><path
         id="path3947"
         style="fill:#000000;fill-opacity:1;fill-rule:nonzero;stroke:none"
         d="m 456.938,456.512 0.051,0 0,-0.047 -0.051,0 0,0.047 z" /><path
         id="path3949"
         style="fill:#000000;fill-opacity:1;fill-rule:nonzero;stroke:none"
         d="m 456.938,456.512 0,-0.047 0.05,0 -0.05,0.047 z" /><path
         id="path3951"
         style="fill:#000000;fill-opacity:1;fill-rule:nonzero;stroke:none"
         d="m 456.938,456.512 0.051,0 0,-0.047 -0.051,0 0,0.047 z" /><path
         id="path3953"
         style="fill:#000000;fill-opacity:1;fill-rule:nonzero;stroke:none"
         d="m 456.988,456.465 0,0.047 -0.05,-0.047 0.05,0 z m -0.05,0 0.05,0.047 0,-0.047 -0.05,0 z" /><path
         id="path3955"
         style="fill:#000000;fill-opacity:1;fill-rule:nonzero;stroke:none"
         d="m 456.938,456.465 0.05,0 -0.023,0 0,0.047 -0.027,-0.047 z" /><path
         id="path3957"
         style="fill:#000000;fill-opacity:1;fill-rule:nonzero;stroke:none"
         d="m 456.988,456.465 0,0.047 0,-0.047 -0.05,0.047 0.05,-0.047 z" /><path
         id="path3959"
         style="fill:#000000;fill-opacity:1;fill-rule:nonzero;stroke:none"
         d="m 456.938,456.512 0.051,0 0,-0.047 -0.051,0 0,0.047 z" /><path
         id="path3961"
         style="fill:#000000;fill-opacity:1;fill-rule:nonzero;stroke:none"
         d="m 456.938,456.512 0,-0.047 0.05,0 -0.05,0.047 z" /><path
         id="path3963"
         style="fill:#000000;fill-opacity:1;fill-rule:nonzero;stroke:none"
         d="m 456.938,456.512 0.051,0 0,-0.047 -0.051,0 0,0.047 z" /><path
         id="path3965"
         style="fill:#000000;fill-opacity:1;fill-rule:nonzero;stroke:none"
         d="m 456.988,456.465 0,0.047 -0.05,-0.047 0.05,0 z m -0.05,0 0.05,0.047 0,-0.047 -0.05,0 z" /><path
         id="path3967"
         style="fill:#000000;fill-opacity:1;fill-rule:nonzero;stroke:none"
         d="m 456.938,456.465 0.05,0 -0.023,0 0,0.047 -0.027,-0.047 z" /><path
         id="path3969"
         style="fill:#000000;fill-opacity:1;fill-rule:nonzero;stroke:none"
         d="m 456.988,456.465 0,0.047 0,-0.047 -0.05,0.047 0.05,-0.047 z" /><path
         id="path3971"
         style="fill:#000000;fill-opacity:1;fill-rule:nonzero;stroke:none"
         d="m 456.938,456.512 0.051,0 0,-0.047 -0.051,0 0,0.047 z" /><path
         id="path3973"
         style="fill:#c1121c;fill-opacity:1;fill-rule:nonzero;stroke:none"
         d="M 362.375,396.313 396.312,362.371 274.34,240.399 396.312,118.426 362.375,84.485 240.398,206.457 118.426,84.485 84.484,118.426 206.457,240.399 84.484,362.371 118.426,396.313 240.398,274.34 362.375,396.313 Z" /><path
         id="path3975"
         style="fill:#ffffff;fill-opacity:1;fill-rule:nonzero;stroke:none"
         d="m 303.531,360.59 -36.054,36.066 -20.039,0 28.046,-28.046 -98.218,0 0,-16.032 98.218,0 -28.046,-28.047 20.039,0" /></g></g></svg>