<?xml version="1.0" encoding="UTF-8" standalone="no"?>
<svg
   xmlns:dc="http://purl.org/dc/elements/1.1/"
   xmlns:cc="http://creativecommons.org/ns#"
   xmlns:rdf="http://www.w3.org/1999/02/22-rdf-syntax-ns#"
   xmlns:svg="http://www.w3.org/2000/svg"
   xmlns="http://www.w3.org/2000/svg"
   viewBox="0 0 600.99622 600.99628"
   height="600.99628"
   width="600.99622"
   xml:space="preserve"
   version="1.1"
   id="svg4486"><metadata
     id="metadata4492"><rdf:RDF><cc:Work
         rdf:about=""><dc:format>image/svg+xml</dc:format><dc:type
           rdf:resource="http://purl.org/dc/dcmitype/StillImage" /><dc:title></dc:title></cc:Work></rdf:RDF></metadata><defs
     id="defs4490" /><g
     transform="matrix(1.25,0,0,-1.25,0,600.99628)"
     id="g4494"><g
       id="g4496"><path
         id="path4498"
         style="fill:#ffffff;fill-opacity:1;fill-rule:nonzero;stroke:none"
         d="m 480.398,240.399 c 0,132.55 -107.449,240 -240,240 -132.55,0 -240,-107.45 -240,-240 0,-132.551 107.45,-240 240,-240 132.551,0 240,107.449 240,240 z" /><path
         id="path4500"
         style="fill:#154889;fill-opacity:1;fill-rule:nonzero;stroke:none"
         d="m 417.613,240.399 c 0,98.894 -79.343,179.066 -177.215,179.066 -97.871,0 -177.214,-80.172 -177.214,-179.066 0,-98.895 79.343,-179.067 177.214,-179.067 97.872,0 177.215,80.172 177.215,179.067 z" /><path
         id="path4502"
         style="fill:#000000;fill-opacity:1;fill-rule:nonzero;stroke:none"
         d="M 240.398,0 C 107.633,0 0,107.633 0,240.399 0,373.164 107.633,480.797 240.398,480.797 373.164,480.797 480.797,373.164 480.797,240.399 480.797,107.633 373.164,0 240.398,0 Z m 0,0.399 c 132.551,0 240,107.449 240,240 0,132.55 -107.449,240 -240,240 -132.55,0 -240,-107.45 -240,-240 0,-132.551 107.45,-240 240,-240 z" /><path
         id="path4504"
         style="fill:none;stroke:#c1121c;stroke-width:64.3168335;stroke-linecap:butt;stroke-linejoin:miter;stroke-miterlimit:4;stroke-dasharray:none;stroke-opacity:1"
         d="m 440.238,240.399 c 0,110.367 -89.472,199.839 -199.84,199.839 -110.367,0 -199.839,-89.472 -199.839,-199.839 0,-110.368 89.472,-199.84 199.839,-199.84 110.368,0 199.84,89.472 199.84,199.84 z" /><path
         id="path4506"
         style="fill:#000000;fill-opacity:1;fill-rule:nonzero;stroke:none"
         d="m 23.832,24.285 0,0.024 -0.023,0 0.023,-0.024 z" /><path
         id="path4508"
         style="fill:#000000;fill-opacity:1;fill-rule:nonzero;stroke:none"
         d="m 23.809,24.309 0.023,0 0,-0.023 -0.023,0 0,0.023 z" /><path
         id="path4510"
         style="fill:#000000;fill-opacity:1;fill-rule:nonzero;stroke:none"
         d="m 23.809,24.309 0,-0.024 0.023,0.024 -0.023,0 z m 0.023,0 -0.023,-0.024 0,0.024 0.023,0 z" /><path
         id="path4512"
         style="fill:#000000;fill-opacity:1;fill-rule:nonzero;stroke:none"
         d="m 23.859,24.309 -0.05,0 0.023,0 0,-0.024 0.027,0.024 z" /><path
         id="path4514"
         style="fill:#000000;fill-opacity:1;fill-rule:nonzero;stroke:none"
         d="m 23.809,24.309 0,-0.024 0,0.024 0.023,-0.024 -0.023,0.024 z" /><path
         id="path4516"
         style="fill:#000000;fill-opacity:1;fill-rule:nonzero;stroke:none"
         d="m 23.809,24.309 0.023,0 0,-0.023 -0.023,0 0,0.023 z" /><path
         id="path4518"
         style="fill:#000000;fill-opacity:1;fill-rule:nonzero;stroke:none"
         d="m 23.859,24.285 0,0.047 -0.05,0 0.05,-0.047 z" /><path
         id="path4520"
         style="fill:#000000;fill-opacity:1;fill-rule:nonzero;stroke:none"
         d="m 23.809,24.332 0.051,0 0,-0.047 -0.051,0 0,0.047 z" /><path
         id="path4522"
         style="fill:#000000;fill-opacity:1;fill-rule:nonzero;stroke:none"
         d="m 23.809,24.332 0,-0.047 0.05,0.047 -0.05,0 z m 0.05,0 -0.05,-0.047 0,0.047 0.05,0 z" /><path
         id="path4524"
         style="fill:#000000;fill-opacity:1;fill-rule:nonzero;stroke:none"
         d="m 23.859,24.332 -0.05,0 0.023,0 0,-0.047 0.027,0.047 z" /><path
         id="path4526"
         style="fill:#000000;fill-opacity:1;fill-rule:nonzero;stroke:none"
         d="m 23.809,24.332 0,-0.047 0,0.047 0.05,-0.047 -0.05,0.047 z" /><path
         id="path4528"
         style="fill:#000000;fill-opacity:1;fill-rule:nonzero;stroke:none"
         d="m 23.809,24.332 0.051,0 0,-0.047 -0.051,0 0,0.047 z" /><path
         id="path4530"
         style="fill:#000000;fill-opacity:1;fill-rule:nonzero;stroke:none"
         d="m 23.859,24.285 0,0.047 -0.05,0 0.05,-0.047 z" /><path
         id="path4532"
         style="fill:#000000;fill-opacity:1;fill-rule:nonzero;stroke:none"
         d="m 23.809,24.332 0.051,0 0,-0.047 -0.051,0 0,0.047 z" /><path
         id="path4534"
         style="fill:#000000;fill-opacity:1;fill-rule:nonzero;stroke:none"
         d="m 23.809,24.332 0,-0.047 0.05,0.047 -0.05,0 z m 0.05,0 -0.05,-0.047 0,0.047 0.05,0 z" /><path
         id="path4536"
         style="fill:#000000;fill-opacity:1;fill-rule:nonzero;stroke:none"
         d="m 23.859,24.332 -0.05,0 0.023,0 0,-0.047 0.027,0.047 z" /><path
         id="path4538"
         style="fill:#000000;fill-opacity:1;fill-rule:nonzero;stroke:none"
         d="m 23.809,24.332 0,-0.047 0,0.047 0.05,-0.047 -0.05,0.047 z" /><path
         id="path4540"
         style="fill:#000000;fill-opacity:1;fill-rule:nonzero;stroke:none"
         d="m 23.809,24.332 0.051,0 0,-0.047 -0.051,0 0,0.047 z" /><path
         id="path4542"
         style="fill:#000000;fill-opacity:1;fill-rule:nonzero;stroke:none"
         d="m 23.859,24.285 0,0.047 -0.05,0 0.05,-0.047 z" /><path
         id="path4544"
         style="fill:#000000;fill-opacity:1;fill-rule:nonzero;stroke:none"
         d="m 23.809,24.332 0.051,0 0,-0.047 -0.051,0 0,0.047 z" /><path
         id="path4546"
         style="fill:#000000;fill-opacity:1;fill-rule:nonzero;stroke:none"
         d="m 23.809,24.332 0,-0.047 0.05,0.047 -0.05,0 z m 0.05,0 -0.05,-0.047 0,0.047 0.05,0 z" /><path
         id="path4548"
         style="fill:#000000;fill-opacity:1;fill-rule:nonzero;stroke:none"
         d="m 23.859,24.332 -0.05,0 0.023,0 0,-0.047 0.027,0.047 z" /><path
         id="path4550"
         style="fill:#000000;fill-opacity:1;fill-rule:nonzero;stroke:none"
         d="m 23.809,24.332 0,-0.047 0,0.047 0.05,-0.047 -0.05,0.047 z" /><path
         id="path4552"
         style="fill:#000000;fill-opacity:1;fill-rule:nonzero;stroke:none"
         d="m 23.809,24.332 0.051,0 0,-0.047 -0.051,0 0,0.047 z" /><path
         id="path4554"
         style="fill:#c1121c;fill-opacity:1;fill-rule:nonzero;stroke:none"
         d="M 118.422,84.485 84.484,118.426 206.457,240.399 84.484,362.371 118.422,396.313 240.398,274.34 362.371,396.313 396.312,362.371 274.34,240.399 396.312,118.426 362.371,84.485 240.398,206.457 118.422,84.485 Z" /><path
         id="path4556"
         style="fill:#ffffff;fill-opacity:1;fill-rule:nonzero;stroke:none"
         d="m 177.266,120.207 36.054,-36.066 20.039,0 -28.047,28.047 98.219,0 0,16.031 -98.219,0 28.047,28.047 -20.039,0" /><path
         id="path4558"
         style="fill:#ffffff;fill-opacity:1;fill-rule:nonzero;stroke:none"
         d="m 303.531,360.594 -36.054,36.066 -20.039,0 28.046,-28.047 -98.218,0 0,-16.027 98.218,0 -28.046,-28.051 20.039,0" /></g></g></svg>