<?xml version="1.0" encoding="UTF-8" standalone="no"?>
<svg
   xmlns:dc="http://purl.org/dc/elements/1.1/"
   xmlns:cc="http://creativecommons.org/ns#"
   xmlns:rdf="http://www.w3.org/1999/02/22-rdf-syntax-ns#"
   xmlns:svg="http://www.w3.org/2000/svg"
   xmlns="http://www.w3.org/2000/svg"
   viewBox="0 0 600.99622 600.99628"
   height="600.99628"
   width="600.99622"
   xml:space="preserve"
   version="1.1"
   id="svg4653"><metadata
     id="metadata4659"><rdf:RDF><cc:Work
         rdf:about=""><dc:format>image/svg+xml</dc:format><dc:type
           rdf:resource="http://purl.org/dc/dcmitype/StillImage" /><dc:title></dc:title></cc:Work></rdf:RDF></metadata><defs
     id="defs4657" /><g
     transform="matrix(1.25,0,0,-1.25,0,600.99628)"
     id="g4661"><g
       id="g4663"><path
         id="path4665"
         style="fill:#ffffff;fill-opacity:1;fill-rule:nonzero;stroke:none"
         d="m 0.398,240.399 c 0,132.55 107.45,240 240,240 132.551,0 240,-107.45 240,-240 0,-132.551 -107.449,-240 -240,-240 -132.55,0 -240,107.449 -240,240 z" /><path
         id="path4667"
         style="fill:#154889;fill-opacity:1;fill-rule:nonzero;stroke:none"
         d="m 63.184,240.399 c 0,98.894 79.343,179.066 177.214,179.066 97.872,0 177.215,-80.172 177.215,-179.066 0,-98.895 -79.343,-179.067 -177.215,-179.067 -97.871,0 -177.214,80.172 -177.214,179.067 z" /><path
         id="path4669"
         style="fill:#000000;fill-opacity:1;fill-rule:nonzero;stroke:none"
         d="m 240.398,0 c 132.766,0 240.399,107.633 240.399,240.399 0,132.765 -107.633,240.398 -240.399,240.398 C 107.633,480.797 0,373.164 0,240.399 0,107.633 107.633,0 240.398,0 Z m 0,0.399 c -132.55,0 -240,107.449 -240,240 0,132.55 107.45,240 240,240 132.551,0 240,-107.45 240,-240 0,-132.551 -107.449,-240 -240,-240 z" /><path
         id="path4671"
         style="fill:none;stroke:#c1121c;stroke-width:64.3168335;stroke-linecap:butt;stroke-linejoin:miter;stroke-miterlimit:4;stroke-dasharray:none;stroke-opacity:1"
         d="m 40.559,240.399 c 0,110.367 89.472,199.839 199.839,199.839 110.368,0 199.84,-89.472 199.84,-199.839 0,-110.368 -89.472,-199.84 -199.84,-199.84 -110.367,0 -199.839,89.472 -199.839,199.84 z" /><path
         id="path4673"
         style="fill:#000000;fill-opacity:1;fill-rule:nonzero;stroke:none"
         d="m 456.965,24.285 0,0.024 0.023,0 -0.023,-0.024 z" /><path
         id="path4675"
         style="fill:#000000;fill-opacity:1;fill-rule:nonzero;stroke:none"
         d="m 456.965,24.309 0.023,0 0,-0.023 -0.023,0 0,0.023 z" /><path
         id="path4677"
         style="fill:#000000;fill-opacity:1;fill-rule:nonzero;stroke:none"
         d="m 456.988,24.309 0,-0.024 -0.023,0.024 0.023,0 z m -0.023,0 0.023,-0.024 0,0.024 -0.023,0 z" /><path
         id="path4679"
         style="fill:#000000;fill-opacity:1;fill-rule:nonzero;stroke:none"
         d="m 456.938,24.309 0.05,0 -0.023,0 0,-0.024 -0.027,0.024 z" /><path
         id="path4681"
         style="fill:#000000;fill-opacity:1;fill-rule:nonzero;stroke:none"
         d="m 456.988,24.309 0,-0.024 0,0.024 -0.023,-0.024 0.023,0.024 z" /><path
         id="path4683"
         style="fill:#000000;fill-opacity:1;fill-rule:nonzero;stroke:none"
         d="m 456.965,24.309 0.023,0 0,-0.023 -0.023,0 0,0.023 z" /><path
         id="path4685"
         style="fill:#000000;fill-opacity:1;fill-rule:nonzero;stroke:none"
         d="m 456.938,24.285 0,0.047 0.05,0 -0.05,-0.047 z" /><path
         id="path4687"
         style="fill:#000000;fill-opacity:1;fill-rule:nonzero;stroke:none"
         d="m 456.938,24.332 0.051,0 0,-0.047 -0.051,0 0,0.047 z" /><path
         id="path4689"
         style="fill:#000000;fill-opacity:1;fill-rule:nonzero;stroke:none"
         d="m 456.988,24.332 0,-0.047 -0.05,0.047 0.05,0 z m -0.05,0 0.05,-0.047 0,0.047 -0.05,0 z" /><path
         id="path4691"
         style="fill:#000000;fill-opacity:1;fill-rule:nonzero;stroke:none"
         d="m 456.938,24.332 0.05,0 -0.023,0 0,-0.047 -0.027,0.047 z" /><path
         id="path4693"
         style="fill:#000000;fill-opacity:1;fill-rule:nonzero;stroke:none"
         d="m 456.988,24.332 0,-0.047 0,0.047 -0.05,-0.047 0.05,0.047 z" /><path
         id="path4695"
         style="fill:#000000;fill-opacity:1;fill-rule:nonzero;stroke:none"
         d="m 456.938,24.332 0.051,0 0,-0.047 -0.051,0 0,0.047 z" /><path
         id="path4697"
         style="fill:#000000;fill-opacity:1;fill-rule:nonzero;stroke:none"
         d="m 456.938,24.285 0,0.047 0.05,0 -0.05,-0.047 z" /><path
         id="path4699"
         style="fill:#000000;fill-opacity:1;fill-rule:nonzero;stroke:none"
         d="m 456.938,24.332 0.051,0 0,-0.047 -0.051,0 0,0.047 z" /><path
         id="path4701"
         style="fill:#000000;fill-opacity:1;fill-rule:nonzero;stroke:none"
         d="m 456.988,24.332 0,-0.047 -0.05,0.047 0.05,0 z m -0.05,0 0.05,-0.047 0,0.047 -0.05,0 z" /><path
         id="path4703"
         style="fill:#000000;fill-opacity:1;fill-rule:nonzero;stroke:none"
         d="m 456.938,24.332 0.05,0 -0.023,0 0,-0.047 -0.027,0.047 z" /><path
         id="path4705"
         style="fill:#000000;fill-opacity:1;fill-rule:nonzero;stroke:none"
         d="m 456.988,24.332 0,-0.047 0,0.047 -0.05,-0.047 0.05,0.047 z" /><path
         id="path4707"
         style="fill:#000000;fill-opacity:1;fill-rule:nonzero;stroke:none"
         d="m 456.938,24.332 0.051,0 0,-0.047 -0.051,0 0,0.047 z" /><path
         id="path4709"
         style="fill:#000000;fill-opacity:1;fill-rule:nonzero;stroke:none"
         d="m 456.938,24.285 0,0.047 0.05,0 -0.05,-0.047 z" /><path
         id="path4711"
         style="fill:#000000;fill-opacity:1;fill-rule:nonzero;stroke:none"
         d="m 456.938,24.332 0.051,0 0,-0.047 -0.051,0 0,0.047 z" /><path
         id="path4713"
         style="fill:#000000;fill-opacity:1;fill-rule:nonzero;stroke:none"
         d="m 456.988,24.332 0,-0.047 -0.05,0.047 0.05,0 z m -0.05,0 0.05,-0.047 0,0.047 -0.05,0 z" /><path
         id="path4715"
         style="fill:#000000;fill-opacity:1;fill-rule:nonzero;stroke:none"
         d="m 456.938,24.332 0.05,0 -0.023,0 0,-0.047 -0.027,0.047 z" /><path
         id="path4717"
         style="fill:#000000;fill-opacity:1;fill-rule:nonzero;stroke:none"
         d="m 456.988,24.332 0,-0.047 0,0.047 -0.05,-0.047 0.05,0.047 z" /><path
         id="path4719"
         style="fill:#000000;fill-opacity:1;fill-rule:nonzero;stroke:none"
         d="m 456.938,24.332 0.051,0 0,-0.047 -0.051,0 0,0.047 z" /><path
         id="path4721"
         style="fill:#c1121c;fill-opacity:1;fill-rule:nonzero;stroke:none"
         d="M 362.375,84.485 396.312,118.426 274.34,240.399 396.312,362.371 362.375,396.313 240.398,274.34 118.426,396.313 84.484,362.371 206.457,240.399 84.484,118.426 118.426,84.485 240.398,206.457 362.375,84.485 Z" /><path
         id="path4723"
         style="fill:#ffffff;fill-opacity:1;fill-rule:nonzero;stroke:none"
         d="m 303.531,120.207 -36.054,-36.066 -20.039,0 28.046,28.047 -98.218,0 0,16.031 98.218,0 -28.046,28.047 20.039,0" /><path
         id="path4725"
         style="fill:#ffffff;fill-opacity:1;fill-rule:nonzero;stroke:none"
         d="m 177.266,360.594 36.054,36.066 20.039,0 -28.047,-28.047 98.219,0 0,-16.027 -98.219,0 28.047,-28.051 -20.039,0" /></g></g></svg>