<?xml version="1.0" encoding="UTF-8" standalone="no"?>
<svg
   xmlns:dc="http://purl.org/dc/elements/1.1/"
   xmlns:cc="http://creativecommons.org/ns#"
   xmlns:rdf="http://www.w3.org/1999/02/22-rdf-syntax-ns#"
   xmlns:svg="http://www.w3.org/2000/svg"
   xmlns="http://www.w3.org/2000/svg"
   viewBox="0 0 600.99622 600.99628"
   height="600.99628"
   width="600.99622"
   xml:space="preserve"
   version="1.1"
   id="svg6074"><metadata
     id="metadata6080"><rdf:RDF><cc:Work
         rdf:about=""><dc:format>image/svg+xml</dc:format><dc:type
           rdf:resource="http://purl.org/dc/dcmitype/StillImage" /><dc:title></dc:title></cc:Work></rdf:RDF></metadata><defs
     id="defs6078" /><g
     transform="matrix(1.25,0,0,-1.25,0,600.99628)"
     id="g6082"><g
       id="g6084"><path
         id="path6086"
         style="fill:#ffffff;fill-opacity:1;fill-rule:nonzero;stroke:none"
         d="m 480.398,240.399 c 0,-132.551 -107.449,-240 -240,-240 -132.55,0 -240,107.449 -240,240 0,132.55 107.45,240 240,240 132.551,0 240,-107.45 240,-240 z" /><path
         id="path6088"
         style="fill:#154889;fill-opacity:1;fill-rule:nonzero;stroke:none"
         d="m 417.613,240.399 c 0,-98.895 -79.343,-179.067 -177.215,-179.067 -97.871,0 -177.214,80.172 -177.214,179.067 0,98.894 79.343,179.066 177.214,179.066 97.872,0 177.215,-80.172 177.215,-179.066 z" /><path
         id="path6090"
         style="fill:#000000;fill-opacity:1;fill-rule:nonzero;stroke:none"
         d="M 240.398,480.797 C 107.633,480.797 0,373.164 0,240.399 0,107.633 107.633,0 240.398,0 c 132.766,0 240.399,107.633 240.399,240.399 0,132.765 -107.633,240.398 -240.399,240.398 z m 0,-0.398 c 132.551,0 240,-107.45 240,-240 0,-132.551 -107.449,-240 -240,-240 -132.55,0 -240,107.449 -240,240 0,132.55 107.45,240 240,240 z" /><path
         id="path6092"
         style="fill:none;stroke:#c1121c;stroke-width:64.3168335;stroke-linecap:butt;stroke-linejoin:miter;stroke-miterlimit:4;stroke-dasharray:none;stroke-opacity:1"
         d="m 440.238,240.399 c 0,-110.368 -89.472,-199.84 -199.84,-199.84 -110.367,0 -199.839,89.472 -199.839,199.84 0,110.367 89.472,199.839 199.839,199.839 110.368,0 199.84,-89.472 199.84,-199.839 z" /><path
         id="path6094"
         style="fill:#000000;fill-opacity:1;fill-rule:nonzero;stroke:none"
         d="m 23.832,456.512 0,-0.024 -0.023,0 0.023,0.024 z" /><path
         id="path6096"
         style="fill:#000000;fill-opacity:1;fill-rule:nonzero;stroke:none"
         d="m 23.809,456.512 0.023,0 0,-0.023 -0.023,0 0,0.023 z" /><path
         id="path6098"
         style="fill:#000000;fill-opacity:1;fill-rule:nonzero;stroke:none"
         d="m 23.809,456.488 0,0.024 0.023,-0.024 -0.023,0 z m 0.023,0 -0.023,0.024 0,-0.024 0.023,0 z" /><path
         id="path6100"
         style="fill:#000000;fill-opacity:1;fill-rule:nonzero;stroke:none"
         d="m 23.859,456.488 -0.05,0 0.023,0 0,0.024 0.027,-0.024 z" /><path
         id="path6102"
         style="fill:#000000;fill-opacity:1;fill-rule:nonzero;stroke:none"
         d="m 23.809,456.488 0,0.024 0,-0.024 0.023,0.024 -0.023,-0.024 z" /><path
         id="path6104"
         style="fill:#000000;fill-opacity:1;fill-rule:nonzero;stroke:none"
         d="m 23.809,456.512 0.023,0 0,-0.023 -0.023,0 0,0.023 z" /><path
         id="path6106"
         style="fill:#000000;fill-opacity:1;fill-rule:nonzero;stroke:none"
         d="m 23.859,456.512 0,-0.047 -0.05,0 0.05,0.047 z" /><path
         id="path6108"
         style="fill:#000000;fill-opacity:1;fill-rule:nonzero;stroke:none"
         d="m 23.809,456.512 0.051,0 0,-0.047 -0.051,0 0,0.047 z" /><path
         id="path6110"
         style="fill:#000000;fill-opacity:1;fill-rule:nonzero;stroke:none"
         d="m 23.809,456.465 0,0.047 0.05,-0.047 -0.05,0 z m 0.05,0 -0.05,0.047 0,-0.047 0.05,0 z" /><path
         id="path6112"
         style="fill:#000000;fill-opacity:1;fill-rule:nonzero;stroke:none"
         d="m 23.859,456.465 -0.05,0 0.023,0 0,0.047 0.027,-0.047 z" /><path
         id="path6114"
         style="fill:#000000;fill-opacity:1;fill-rule:nonzero;stroke:none"
         d="m 23.809,456.465 0,0.047 0,-0.047 0.05,0.047 -0.05,-0.047 z" /><path
         id="path6116"
         style="fill:#000000;fill-opacity:1;fill-rule:nonzero;stroke:none"
         d="m 23.809,456.512 0.051,0 0,-0.047 -0.051,0 0,0.047 z" /><path
         id="path6118"
         style="fill:#000000;fill-opacity:1;fill-rule:nonzero;stroke:none"
         d="m 23.859,456.512 0,-0.047 -0.05,0 0.05,0.047 z" /><path
         id="path6120"
         style="fill:#000000;fill-opacity:1;fill-rule:nonzero;stroke:none"
         d="m 23.809,456.512 0.051,0 0,-0.047 -0.051,0 0,0.047 z" /><path
         id="path6122"
         style="fill:#000000;fill-opacity:1;fill-rule:nonzero;stroke:none"
         d="m 23.809,456.465 0,0.047 0.05,-0.047 -0.05,0 z m 0.05,0 -0.05,0.047 0,-0.047 0.05,0 z" /><path
         id="path6124"
         style="fill:#000000;fill-opacity:1;fill-rule:nonzero;stroke:none"
         d="m 23.859,456.465 -0.05,0 0.023,0 0,0.047 0.027,-0.047 z" /><path
         id="path6126"
         style="fill:#000000;fill-opacity:1;fill-rule:nonzero;stroke:none"
         d="m 23.809,456.465 0,0.047 0,-0.047 0.05,0.047 -0.05,-0.047 z" /><path
         id="path6128"
         style="fill:#000000;fill-opacity:1;fill-rule:nonzero;stroke:none"
         d="m 23.809,456.512 0.051,0 0,-0.047 -0.051,0 0,0.047 z" /><path
         id="path6130"
         style="fill:#000000;fill-opacity:1;fill-rule:nonzero;stroke:none"
         d="m 23.859,456.512 0,-0.047 -0.05,0 0.05,0.047 z" /><path
         id="path6132"
         style="fill:#000000;fill-opacity:1;fill-rule:nonzero;stroke:none"
         d="m 23.809,456.512 0.051,0 0,-0.047 -0.051,0 0,0.047 z" /><path
         id="path6134"
         style="fill:#000000;fill-opacity:1;fill-rule:nonzero;stroke:none"
         d="m 23.809,456.465 0,0.047 0.05,-0.047 -0.05,0 z m 0.05,0 -0.05,0.047 0,-0.047 0.05,0 z" /><path
         id="path6136"
         style="fill:#000000;fill-opacity:1;fill-rule:nonzero;stroke:none"
         d="m 23.859,456.465 -0.05,0 0.023,0 0,0.047 0.027,-0.047 z" /><path
         id="path6138"
         style="fill:#000000;fill-opacity:1;fill-rule:nonzero;stroke:none"
         d="m 23.809,456.465 0,0.047 0,-0.047 0.05,0.047 -0.05,-0.047 z" /><path
         id="path6140"
         style="fill:#000000;fill-opacity:1;fill-rule:nonzero;stroke:none"
         d="m 23.809,456.512 0.051,0 0,-0.047 -0.051,0 0,0.047 z" /><path
         id="path6142"
         style="fill:#c1121c;fill-opacity:1;fill-rule:nonzero;stroke:none"
         d="M 118.422,396.313 84.484,362.371 206.457,240.399 84.484,118.426 118.422,84.485 240.398,206.457 362.371,84.485 396.313,118.426 274.34,240.399 396.313,362.371 362.371,396.313 240.398,274.34 118.422,396.313 Z" /></g></g></svg>