<?xml version="1.0" encoding="UTF-8" standalone="no"?>
<svg
   xmlns:dc="http://purl.org/dc/elements/1.1/"
   xmlns:cc="http://creativecommons.org/ns#"
   xmlns:rdf="http://www.w3.org/1999/02/22-rdf-syntax-ns#"
   xmlns:svg="http://www.w3.org/2000/svg"
   xmlns="http://www.w3.org/2000/svg"
   id="svg3363"
   version="1.1"
   xml:space="preserve"
   width="600.99628"
   height="600.99628"
   viewBox="0 0 600.99628 600.99628"><metadata
     id="metadata3369"><rdf:RDF><cc:Work
         rdf:about=""><dc:format>image/svg+xml</dc:format><dc:type
           rdf:resource="http://purl.org/dc/dcmitype/StillImage" /><dc:title></dc:title></cc:Work></rdf:RDF></metadata><defs
     id="defs3367"><clipPath
       clipPathUnits="userSpaceOnUse"
       id="clipPath4710"><path
         d="M 0,0 730,0 730,730 0,730 0,0 Z"
         id="path4712" /></clipPath><clipPath
       clipPathUnits="userSpaceOnUse"
       id="clipPath3541"><path
         d="m 88.444,529.778 39.685,0 0,39.685 -39.685,0 0,-39.685 z"
         id="path3543" /></clipPath></defs><g
     id="g3371"
     transform="matrix(1.25,0,0,-1.25,0,600.99628)"><path
       id="path3375"
       style="fill:#ffffff;fill-opacity:1;fill-rule:nonzero;stroke:none"
       d="m 480.398,240.398 c 0,132.551 -107.449,240 -240,240 -132.55,0 -240,-107.449 -240,-240 0,-132.55 107.45,-240 240,-240 132.551,0 240,107.45 240,240 z" /><path
       id="path3377"
       style="fill:#154889;fill-opacity:1;fill-rule:nonzero;stroke:none"
       d="m 449.977,245.504 c 0,113.211 -91.778,204.988 -204.989,204.988 C 131.777,450.492 40,358.715 40,245.504 40,132.293 131.777,40.516 244.988,40.516 c 113.211,0 204.989,91.777 204.989,204.988 z" /><path
       id="path3379"
       style="fill:#000000;fill-opacity:1;fill-rule:nonzero;stroke:none"
       d="M 240.398,480.797 C 107.633,480.797 0,373.164 0,240.399 0,107.633 107.633,0 240.398,0 c 132.766,0 240.399,107.633 240.399,240.399 0,132.765 -107.633,240.398 -240.399,240.398 z m 0,-0.398 c 132.551,0 240,-107.45 240,-240 0,-132.551 -107.449,-240 -240,-240 -132.55,0 -240,107.449 -240,240 0,132.55 107.45,240 240,240 z" /><path
       id="path3381"
       style="fill:#c1121c;fill-opacity:1;fill-rule:nonzero;stroke:none"
       d="m 240.395,8.402 c 127.746,0 232,104.25 232,231.996 0,127.747 -104.254,232 -232,232 -127.747,0 -231.997,-104.253 -231.997,-232 0,-127.746 104.25,-231.996 231.997,-231.996 z m 0,64.317 c -92.989,0 -167.684,74.691 -167.684,167.679 0,37.789 12.336,72.559 33.223,100.52 L 340.914,105.941 C 312.953,85.055 278.184,72.719 240.395,72.719 Z m 134.46,67.164 -234.98,234.976 c 27.961,20.887 62.73,33.223 100.52,33.223 92.988,0 167.679,-74.695 167.679,-167.684 0,-37.789 -12.336,-72.554 -33.219,-100.515 z" /><path
       id="path3383"
       style="fill:#000000;fill-opacity:1;fill-rule:nonzero;stroke:none"
       d="m 23.832,24.285 0,0.024 -0.023,0 0.023,-0.024 z" /><path
       id="path3385"
       style="fill:#000000;fill-opacity:1;fill-rule:nonzero;stroke:none"
       d="m 23.809,24.285 0.023,0 0,0.023 -0.023,0 0,-0.023 z" /><path
       id="path3387"
       style="fill:#000000;fill-opacity:1;fill-rule:nonzero;stroke:none"
       d="m 23.809,24.309 0,-0.024 0.023,0.024 -0.023,0 z m 0.023,0 -0.023,-0.024 0,0.024 0.023,0 z" /><path
       id="path3389"
       style="fill:#000000;fill-opacity:1;fill-rule:nonzero;stroke:none"
       d="m 23.859,24.309 -0.05,0 0.023,0 0,-0.024 0.027,0.024 z" /><path
       id="path3391"
       style="fill:#000000;fill-opacity:1;fill-rule:nonzero;stroke:none"
       d="m 23.809,24.309 0,-0.024 0,0.024 0.023,-0.024 -0.023,0.024 z" /><path
       id="path3393"
       style="fill:#000000;fill-opacity:1;fill-rule:nonzero;stroke:none"
       d="m 23.809,24.285 0.023,0 0,0.023 -0.023,0 0,-0.023 z" /><path
       id="path3395"
       style="fill:#000000;fill-opacity:1;fill-rule:nonzero;stroke:none"
       d="m 23.859,24.285 0,0.047 -0.05,0 0.05,-0.047 z" /><path
       id="path3397"
       style="fill:#000000;fill-opacity:1;fill-rule:nonzero;stroke:none"
       d="m 23.809,24.285 0.051,0 0,0.047 -0.051,0 0,-0.047 z" /><path
       id="path3399"
       style="fill:#000000;fill-opacity:1;fill-rule:nonzero;stroke:none"
       d="m 23.809,24.332 0,-0.047 0.05,0.047 -0.05,0 z m 0.05,0 -0.05,-0.047 0,0.047 0.05,0 z" /><path
       id="path3401"
       style="fill:#000000;fill-opacity:1;fill-rule:nonzero;stroke:none"
       d="m 23.859,24.332 -0.05,0 0.023,0 0,-0.047 0.027,0.047 z" /><path
       id="path3403"
       style="fill:#000000;fill-opacity:1;fill-rule:nonzero;stroke:none"
       d="m 23.809,24.332 0,-0.047 0,0.047 0.05,-0.047 -0.05,0.047 z" /><path
       id="path3405"
       style="fill:#000000;fill-opacity:1;fill-rule:nonzero;stroke:none"
       d="m 23.809,24.285 0.051,0 0,0.047 -0.051,0 0,-0.047 z" /><path
       id="path3407"
       style="fill:#000000;fill-opacity:1;fill-rule:nonzero;stroke:none"
       d="m 23.859,24.285 0,0.047 -0.05,0 0.05,-0.047 z" /><path
       id="path3409"
       style="fill:#000000;fill-opacity:1;fill-rule:nonzero;stroke:none"
       d="m 23.809,24.285 0.051,0 0,0.047 -0.051,0 0,-0.047 z" /><path
       id="path3411"
       style="fill:#000000;fill-opacity:1;fill-rule:nonzero;stroke:none"
       d="m 23.809,24.332 0,-0.047 0.05,0.047 -0.05,0 z m 0.05,0 -0.05,-0.047 0,0.047 0.05,0 z" /><path
       id="path3413"
       style="fill:#000000;fill-opacity:1;fill-rule:nonzero;stroke:none"
       d="m 23.859,24.332 -0.05,0 0.023,0 0,-0.047 0.027,0.047 z" /><path
       id="path3415"
       style="fill:#000000;fill-opacity:1;fill-rule:nonzero;stroke:none"
       d="m 23.809,24.332 0,-0.047 0,0.047 0.05,-0.047 -0.05,0.047 z" /><path
       id="path3417"
       style="fill:#000000;fill-opacity:1;fill-rule:nonzero;stroke:none"
       d="m 23.809,24.285 0.051,0 0,0.047 -0.051,0 0,-0.047 z" /><path
       id="path3419"
       style="fill:#000000;fill-opacity:1;fill-rule:nonzero;stroke:none"
       d="m 23.859,24.285 0,0.047 -0.05,0 0.05,-0.047 z" /><path
       id="path3421"
       style="fill:#000000;fill-opacity:1;fill-rule:nonzero;stroke:none"
       d="m 23.809,24.285 0.051,0 0,0.047 -0.051,0 0,-0.047 z" /><path
       id="path3423"
       style="fill:#000000;fill-opacity:1;fill-rule:nonzero;stroke:none"
       d="m 23.809,24.332 0,-0.047 0.05,0.047 -0.05,0 z m 0.05,0 -0.05,-0.047 0,0.047 0.05,0 z" /><path
       id="path3425"
       style="fill:#000000;fill-opacity:1;fill-rule:nonzero;stroke:none"
       d="m 23.859,24.332 -0.05,0 0.023,0 0,-0.047 0.027,0.047 z" /><path
       id="path3427"
       style="fill:#000000;fill-opacity:1;fill-rule:nonzero;stroke:none"
       d="m 23.809,24.332 0,-0.047 0,0.047 0.05,-0.047 -0.05,0.047 z" /><path
       id="path3429"
       style="fill:#000000;fill-opacity:1;fill-rule:nonzero;stroke:none"
       d="m 23.809,24.285 0.051,0 0,0.047 -0.051,0 0,-0.047 z" /><g
       id="g4698"
       transform="matrix(-0.6586503,0,0,0.6586503,-180.11961,-135.65174)"><g
         id="g4700" /><g
         transform="matrix(18.394174,0,0,18.394174,-2630.3042,-9538.8746)"
         id="g3537"><g
           clip-path="url(#clipPath3541)"
           id="g3539" /></g><path
         id="path3553"
         style="fill:#ffffff;fill-opacity:1;fill-rule:nonzero;stroke:none"
         d="m -734.30629,753.41977 54.741,54.7595 30.424,0 -42.5825,-42.5825 149.1215,0 0,-24.3355 -149.1215,0 42.5825,-42.5825 -30.424,0" /></g></g></svg>