<?xml version="1.0" encoding="UTF-8" standalone="no"?>
<svg
   xmlns:dc="http://purl.org/dc/elements/1.1/"
   xmlns:cc="http://creativecommons.org/ns#"
   xmlns:rdf="http://www.w3.org/1999/02/22-rdf-syntax-ns#"
   xmlns:svg="http://www.w3.org/2000/svg"
   xmlns="http://www.w3.org/2000/svg"
   viewBox="0 0 600.99628 600.99628"
   height="600.99628"
   width="600.99628"
   xml:space="preserve"
   version="1.1"
   id="svg3630"><metadata
     id="metadata3636"><rdf:RDF><cc:Work
         rdf:about=""><dc:format>image/svg+xml</dc:format><dc:type
           rdf:resource="http://purl.org/dc/dcmitype/StillImage" /><dc:title></dc:title></cc:Work></rdf:RDF></metadata><defs
     id="defs3634" /><g
     transform="matrix(1.25,0,0,-1.25,0,600.99628)"
     id="g3638"><g
       id="g3640"><path
         id="path3642"
         style="fill:#ffffff;fill-opacity:1;fill-rule:nonzero;stroke:none"
         d="m 480.398,240.399 c 0,132.55 -107.449,240 -240,240 -132.55,0 -240,-107.45 -240,-240 0,-132.551 107.45,-240 240,-240 132.551,0 240,107.449 240,240 z" /><path
         id="path3644"
         style="fill:#154889;fill-opacity:1;fill-rule:nonzero;stroke:none"
         d="m 449.977,245.504 c 0,113.211 -91.778,204.988 -204.989,204.988 C 131.777,450.492 40,358.715 40,245.504 40,132.293 131.777,40.516 244.988,40.516 c 113.211,0 204.989,91.777 204.989,204.988 z" /><path
         id="path3646"
         style="fill:#000000;fill-opacity:1;fill-rule:nonzero;stroke:none"
         d="M 240.398,0 C 107.633,0 0,107.633 0,240.399 0,373.164 107.633,480.797 240.398,480.797 373.164,480.797 480.797,373.164 480.797,240.399 480.797,107.633 373.164,0 240.398,0 Z m 0,0.399 c 132.551,0 240,107.449 240,240 0,132.55 -107.449,240 -240,240 -132.55,0 -240,-107.45 -240,-240 0,-132.551 107.45,-240 240,-240 z" /><path
         id="path3648"
         style="fill:#c1121c;fill-opacity:1;fill-rule:nonzero;stroke:none"
         d="m 240.395,8.402 c 127.746,0 232,104.25 232,231.997 0,127.746 -104.254,232 -232,232 -127.747,0 -231.997,-104.254 -231.997,-232 0,-127.747 104.25,-231.997 231.997,-231.997 z m 0,64.317 c -92.989,0 -167.684,74.691 -167.684,167.68 0,37.789 12.336,72.558 33.223,100.519 L 340.914,105.942 C 312.953,85.055 278.184,72.719 240.395,72.719 Z m 134.46,67.164 -234.98,234.977 c 27.961,20.886 62.73,33.222 100.52,33.222 92.988,0 167.679,-74.695 167.679,-167.683 0,-37.789 -12.336,-72.555 -33.219,-100.516 z" /><path
         id="path3650"
         style="fill:#000000;fill-opacity:1;fill-rule:nonzero;stroke:none"
         d="m 23.832,24.285 0,0.024 -0.023,0 0.023,-0.024 z" /><path
         id="path3652"
         style="fill:#000000;fill-opacity:1;fill-rule:nonzero;stroke:none"
         d="m 23.809,24.309 0.023,0 0,-0.023 -0.023,0 0,0.023 z" /><path
         id="path3654"
         style="fill:#000000;fill-opacity:1;fill-rule:nonzero;stroke:none"
         d="m 23.809,24.309 0,-0.024 0.023,0.024 -0.023,0 z m 0.023,0 -0.023,-0.024 0,0.024 0.023,0 z" /><path
         id="path3656"
         style="fill:#000000;fill-opacity:1;fill-rule:nonzero;stroke:none"
         d="m 23.859,24.309 -0.05,0 0.023,0 0,-0.024 0.027,0.024 z" /><path
         id="path3658"
         style="fill:#000000;fill-opacity:1;fill-rule:nonzero;stroke:none"
         d="m 23.809,24.309 0,-0.024 0,0.024 0.023,-0.024 -0.023,0.024 z" /><path
         id="path3660"
         style="fill:#000000;fill-opacity:1;fill-rule:nonzero;stroke:none"
         d="m 23.809,24.309 0.023,0 0,-0.023 -0.023,0 0,0.023 z" /><path
         id="path3662"
         style="fill:#000000;fill-opacity:1;fill-rule:nonzero;stroke:none"
         d="m 23.859,24.285 0,0.047 -0.05,0 0.05,-0.047 z" /><path
         id="path3664"
         style="fill:#000000;fill-opacity:1;fill-rule:nonzero;stroke:none"
         d="m 23.809,24.332 0.051,0 0,-0.047 -0.051,0 0,0.047 z" /><path
         id="path3666"
         style="fill:#000000;fill-opacity:1;fill-rule:nonzero;stroke:none"
         d="m 23.809,24.332 0,-0.047 0.05,0.047 -0.05,0 z m 0.05,0 -0.05,-0.047 0,0.047 0.05,0 z" /><path
         id="path3668"
         style="fill:#000000;fill-opacity:1;fill-rule:nonzero;stroke:none"
         d="m 23.859,24.332 -0.05,0 0.023,0 0,-0.047 0.027,0.047 z" /><path
         id="path3670"
         style="fill:#000000;fill-opacity:1;fill-rule:nonzero;stroke:none"
         d="m 23.809,24.332 0,-0.047 0,0.047 0.05,-0.047 -0.05,0.047 z" /><path
         id="path3672"
         style="fill:#000000;fill-opacity:1;fill-rule:nonzero;stroke:none"
         d="m 23.809,24.332 0.051,0 0,-0.047 -0.051,0 0,0.047 z" /><path
         id="path3674"
         style="fill:#000000;fill-opacity:1;fill-rule:nonzero;stroke:none"
         d="m 23.859,24.285 0,0.047 -0.05,0 0.05,-0.047 z" /><path
         id="path3676"
         style="fill:#000000;fill-opacity:1;fill-rule:nonzero;stroke:none"
         d="m 23.809,24.332 0.051,0 0,-0.047 -0.051,0 0,0.047 z" /><path
         id="path3678"
         style="fill:#000000;fill-opacity:1;fill-rule:nonzero;stroke:none"
         d="m 23.809,24.332 0,-0.047 0.05,0.047 -0.05,0 z m 0.05,0 -0.05,-0.047 0,0.047 0.05,0 z" /><path
         id="path3680"
         style="fill:#000000;fill-opacity:1;fill-rule:nonzero;stroke:none"
         d="m 23.859,24.332 -0.05,0 0.023,0 0,-0.047 0.027,0.047 z" /><path
         id="path3682"
         style="fill:#000000;fill-opacity:1;fill-rule:nonzero;stroke:none"
         d="m 23.809,24.332 0,-0.047 0,0.047 0.05,-0.047 -0.05,0.047 z" /><path
         id="path3684"
         style="fill:#000000;fill-opacity:1;fill-rule:nonzero;stroke:none"
         d="m 23.809,24.332 0.051,0 0,-0.047 -0.051,0 0,0.047 z" /><path
         id="path3686"
         style="fill:#000000;fill-opacity:1;fill-rule:nonzero;stroke:none"
         d="m 23.859,24.285 0,0.047 -0.05,0 0.05,-0.047 z" /><path
         id="path3688"
         style="fill:#000000;fill-opacity:1;fill-rule:nonzero;stroke:none"
         d="m 23.809,24.332 0.051,0 0,-0.047 -0.051,0 0,0.047 z" /><path
         id="path3690"
         style="fill:#000000;fill-opacity:1;fill-rule:nonzero;stroke:none"
         d="m 23.809,24.332 0,-0.047 0.05,0.047 -0.05,0 z m 0.05,0 -0.05,-0.047 0,0.047 0.05,0 z" /><path
         id="path3692"
         style="fill:#000000;fill-opacity:1;fill-rule:nonzero;stroke:none"
         d="m 23.859,24.332 -0.05,0 0.023,0 0,-0.047 0.027,0.047 z" /><path
         id="path3694"
         style="fill:#000000;fill-opacity:1;fill-rule:nonzero;stroke:none"
         d="m 23.809,24.332 0,-0.047 0,0.047 0.05,-0.047 -0.05,0.047 z" /><path
         id="path3696"
         style="fill:#000000;fill-opacity:1;fill-rule:nonzero;stroke:none"
         d="m 23.809,24.332 0.051,0 0,-0.047 -0.051,0 0,0.047 z" /><path
         id="path3698"
         style="fill:#ffffff;fill-opacity:1;fill-rule:nonzero;stroke:none"
         d="m 303.531,120.207 -36.054,-36.066 -20.039,0 28.046,28.047 -98.218,0 0,16.027 98.218,0 -28.046,28.047 20.039,0" /></g></g></svg>