<?xml version="1.0" encoding="UTF-8" standalone="no"?>
<svg
   xmlns:dc="http://purl.org/dc/elements/1.1/"
   xmlns:cc="http://creativecommons.org/ns#"
   xmlns:rdf="http://www.w3.org/1999/02/22-rdf-syntax-ns#"
   xmlns:svg="http://www.w3.org/2000/svg"
   xmlns="http://www.w3.org/2000/svg"
   viewBox="0 0 600.99628 600.99628"
   height="600.99628"
   width="600.99628"
   xml:space="preserve"
   version="1.1"
   id="svg3532"><metadata
     id="metadata3538"><rdf:RDF><cc:Work
         rdf:about=""><dc:format>image/svg+xml</dc:format><dc:type
           rdf:resource="http://purl.org/dc/dcmitype/StillImage" /><dc:title></dc:title></cc:Work></rdf:RDF></metadata><defs
     id="defs3536" /><g
     transform="matrix(1.25,0,0,-1.25,0,600.99628)"
     id="g3540"><g
       id="g3542"><path
         id="path3544"
         style="fill:#ffffff;fill-opacity:1;fill-rule:nonzero;stroke:none"
         d="m 0.398,240.399 c 0,132.55 107.45,240 240,240 132.551,0 240,-107.45 240,-240 0,-132.551 -107.449,-240 -240,-240 -132.55,0 -240,107.449 -240,240 z" /><path
         id="path3546"
         style="fill:#154889;fill-opacity:1;fill-rule:nonzero;stroke:none"
         d="m 30.82,245.504 c 0,113.211 91.778,204.988 204.989,204.988 113.211,0 204.988,-91.777 204.988,-204.988 0,-113.211 -91.777,-204.988 -204.988,-204.988 -113.211,0 -204.989,91.777 -204.989,204.988 z" /><path
         id="path3548"
         style="fill:#000000;fill-opacity:1;fill-rule:nonzero;stroke:none"
         d="m 240.398,0 c 132.766,0 240.399,107.633 240.399,240.399 0,132.765 -107.633,240.398 -240.399,240.398 C 107.633,480.797 0,373.164 0,240.399 0,107.633 107.633,0 240.398,0 Z m 0,0.399 c -132.55,0 -240,107.449 -240,240 0,132.55 107.45,240 240,240 132.551,0 240,-107.45 240,-240 0,-132.551 -107.449,-240 -240,-240 z" /><path
         id="path3550"
         style="fill:#c1121c;fill-opacity:1;fill-rule:nonzero;stroke:none"
         d="m 240.398,8.402 c 127.747,0 232,104.25 232,231.997 0,127.746 -104.253,232 -232,232 -127.746,0 -231.996,-104.254 -231.996,-232 0,-127.747 104.25,-231.997 231.996,-231.997 z m 0,64.317 c -92.988,0 -167.683,74.691 -167.683,167.68 0,37.789 12.336,72.558 33.223,100.519 L 340.918,105.942 C 312.957,85.055 278.188,72.719 240.398,72.719 Z m 134.461,67.164 -234.98,234.977 c 27.961,20.886 62.73,33.222 100.519,33.222 92.989,0 167.68,-74.695 167.68,-167.683 0,-37.789 -12.336,-72.555 -33.219,-100.516 z" /><path
         id="path3552"
         style="fill:#000000;fill-opacity:1;fill-rule:nonzero;stroke:none"
         d="m 456.965,24.285 0,0.024 0.023,0 -0.023,-0.024 z" /><path
         id="path3554"
         style="fill:#000000;fill-opacity:1;fill-rule:nonzero;stroke:none"
         d="m 456.965,24.309 0.023,0 0,-0.023 -0.023,0 0,0.023 z" /><path
         id="path3556"
         style="fill:#000000;fill-opacity:1;fill-rule:nonzero;stroke:none"
         d="m 456.988,24.309 0,-0.024 -0.023,0.024 0.023,0 z m -0.023,0 0.023,-0.024 0,0.024 -0.023,0 z" /><path
         id="path3558"
         style="fill:#000000;fill-opacity:1;fill-rule:nonzero;stroke:none"
         d="m 456.938,24.309 0.05,0 -0.023,0 0,-0.024 -0.027,0.024 z" /><path
         id="path3560"
         style="fill:#000000;fill-opacity:1;fill-rule:nonzero;stroke:none"
         d="m 456.988,24.309 0,-0.024 0,0.024 -0.023,-0.024 0.023,0.024 z" /><path
         id="path3562"
         style="fill:#000000;fill-opacity:1;fill-rule:nonzero;stroke:none"
         d="m 456.965,24.309 0.023,0 0,-0.023 -0.023,0 0,0.023 z" /><path
         id="path3564"
         style="fill:#000000;fill-opacity:1;fill-rule:nonzero;stroke:none"
         d="m 456.938,24.285 0,0.047 0.05,0 -0.05,-0.047 z" /><path
         id="path3566"
         style="fill:#000000;fill-opacity:1;fill-rule:nonzero;stroke:none"
         d="m 456.938,24.332 0.051,0 0,-0.047 -0.051,0 0,0.047 z" /><path
         id="path3568"
         style="fill:#000000;fill-opacity:1;fill-rule:nonzero;stroke:none"
         d="m 456.988,24.332 0,-0.047 -0.05,0.047 0.05,0 z m -0.05,0 0.05,-0.047 0,0.047 -0.05,0 z" /><path
         id="path3570"
         style="fill:#000000;fill-opacity:1;fill-rule:nonzero;stroke:none"
         d="m 456.938,24.332 0.05,0 -0.023,0 0,-0.047 -0.027,0.047 z" /><path
         id="path3572"
         style="fill:#000000;fill-opacity:1;fill-rule:nonzero;stroke:none"
         d="m 456.988,24.332 0,-0.047 0,0.047 -0.05,-0.047 0.05,0.047 z" /><path
         id="path3574"
         style="fill:#000000;fill-opacity:1;fill-rule:nonzero;stroke:none"
         d="m 456.938,24.332 0.051,0 0,-0.047 -0.051,0 0,0.047 z" /><path
         id="path3576"
         style="fill:#000000;fill-opacity:1;fill-rule:nonzero;stroke:none"
         d="m 456.938,24.285 0,0.047 0.05,0 -0.05,-0.047 z" /><path
         id="path3578"
         style="fill:#000000;fill-opacity:1;fill-rule:nonzero;stroke:none"
         d="m 456.938,24.332 0.051,0 0,-0.047 -0.051,0 0,0.047 z" /><path
         id="path3580"
         style="fill:#000000;fill-opacity:1;fill-rule:nonzero;stroke:none"
         d="m 456.988,24.332 0,-0.047 -0.05,0.047 0.05,0 z m -0.05,0 0.05,-0.047 0,0.047 -0.05,0 z" /><path
         id="path3582"
         style="fill:#000000;fill-opacity:1;fill-rule:nonzero;stroke:none"
         d="m 456.938,24.332 0.05,0 -0.023,0 0,-0.047 -0.027,0.047 z" /><path
         id="path3584"
         style="fill:#000000;fill-opacity:1;fill-rule:nonzero;stroke:none"
         d="m 456.988,24.332 0,-0.047 0,0.047 -0.05,-0.047 0.05,0.047 z" /><path
         id="path3586"
         style="fill:#000000;fill-opacity:1;fill-rule:nonzero;stroke:none"
         d="m 456.938,24.332 0.051,0 0,-0.047 -0.051,0 0,0.047 z" /><path
         id="path3588"
         style="fill:#000000;fill-opacity:1;fill-rule:nonzero;stroke:none"
         d="m 456.938,24.285 0,0.047 0.05,0 -0.05,-0.047 z" /><path
         id="path3590"
         style="fill:#000000;fill-opacity:1;fill-rule:nonzero;stroke:none"
         d="m 456.938,24.332 0.051,0 0,-0.047 -0.051,0 0,0.047 z" /><path
         id="path3592"
         style="fill:#000000;fill-opacity:1;fill-rule:nonzero;stroke:none"
         d="m 456.988,24.332 0,-0.047 -0.05,0.047 0.05,0 z m -0.05,0 0.05,-0.047 0,0.047 -0.05,0 z" /><path
         id="path3594"
         style="fill:#000000;fill-opacity:1;fill-rule:nonzero;stroke:none"
         d="m 456.938,24.332 0.05,0 -0.023,0 0,-0.047 -0.027,0.047 z" /><path
         id="path3596"
         style="fill:#000000;fill-opacity:1;fill-rule:nonzero;stroke:none"
         d="m 456.988,24.332 0,-0.047 0,0.047 -0.05,-0.047 0.05,0.047 z" /><path
         id="path3598"
         style="fill:#000000;fill-opacity:1;fill-rule:nonzero;stroke:none"
         d="m 456.938,24.332 0.051,0 0,-0.047 -0.051,0 0,0.047 z" /><path
         id="path3600"
         style="fill:#ffffff;fill-opacity:1;fill-rule:nonzero;stroke:none"
         d="m 177.266,120.207 36.054,-36.066 20.039,0 -28.046,28.047 98.218,0 0,16.027 -98.218,0 28.046,28.047 -20.039,0" /></g></g></svg>