<?xml version="1.0" encoding="UTF-8" standalone="no"?>
<svg
   xmlns:dc="http://purl.org/dc/elements/1.1/"
   xmlns:cc="http://creativecommons.org/ns#"
   xmlns:rdf="http://www.w3.org/1999/02/22-rdf-syntax-ns#"
   xmlns:svg="http://www.w3.org/2000/svg"
   xmlns="http://www.w3.org/2000/svg"
   viewBox="0 0 600.99628 600.99628"
   height="600.99628"
   width="600.99628"
   xml:space="preserve"
   version="1.1"
   id="svg3876"><metadata
     id="metadata3882"><rdf:RDF><cc:Work
         rdf:about=""><dc:format>image/svg+xml</dc:format><dc:type
           rdf:resource="http://purl.org/dc/dcmitype/StillImage" /><dc:title></dc:title></cc:Work></rdf:RDF></metadata><defs
     id="defs3880" /><g
     transform="matrix(1.25,0,0,-1.25,0,600.99628)"
     id="g3884"><g
       id="g3886"><path
         id="path3888"
         style="fill:#ffffff;fill-opacity:1;fill-rule:nonzero;stroke:none"
         d="m 480.398,240.399 c 0,-132.551 -107.449,-240 -240,-240 -132.55,0 -240,107.449 -240,240 0,132.55 107.45,240 240,240 132.551,0 240,-107.45 240,-240 z" /><path
         id="path3890"
         style="fill:#154889;fill-opacity:1;fill-rule:nonzero;stroke:none"
         d="M 449.977,235.293 C 449.977,122.082 358.199,30.305 244.988,30.305 131.777,30.305 40,122.082 40,235.293 c 0,113.211 91.777,204.988 204.988,204.988 113.211,0 204.989,-91.777 204.989,-204.988 z" /><path
         id="path3892"
         style="fill:#000000;fill-opacity:1;fill-rule:nonzero;stroke:none"
         d="M 240.398,480.797 C 107.633,480.797 0,373.164 0,240.399 0,107.633 107.633,0 240.398,0 c 132.766,0 240.399,107.633 240.399,240.399 0,132.765 -107.633,240.398 -240.399,240.398 z m 0,-0.398 c 132.551,0 240,-107.45 240,-240 0,-132.551 -107.449,-240 -240,-240 -132.55,0 -240,107.449 -240,240 0,132.55 107.45,240 240,240 z" /><path
         id="path3894"
         style="fill:#c1121c;fill-opacity:1;fill-rule:nonzero;stroke:none"
         d="m 240.398,472.395 c -127.746,0 -232,-104.25 -232,-231.996 0,-127.747 104.254,-232 232,-232 127.747,0 231.997,104.253 231.997,232 0,127.746 -104.25,231.996 -231.997,231.996 z m 0,-64.317 c 92.989,0 167.684,-74.691 167.684,-167.679 0,-37.789 -12.336,-72.559 -33.223,-100.52 l -234.98,234.977 c 27.961,20.886 62.73,33.222 100.519,33.222 z m -134.46,-67.164 234.98,-234.976 c -27.961,-20.887 -62.73,-33.223 -100.52,-33.223 -92.988,0 -167.679,74.695 -167.679,167.684 0,37.789 12.336,72.554 33.219,100.515 z" /><path
         id="path3896"
         style="fill:#000000;fill-opacity:1;fill-rule:nonzero;stroke:none"
         d="m 23.832,456.512 0,-0.024 -0.023,0 0.023,0.024 z" /><path
         id="path3898"
         style="fill:#000000;fill-opacity:1;fill-rule:nonzero;stroke:none"
         d="m 23.809,456.512 0.023,0 0,-0.023 -0.023,0 0,0.023 z" /><path
         id="path3900"
         style="fill:#000000;fill-opacity:1;fill-rule:nonzero;stroke:none"
         d="m 23.809,456.488 0,0.024 0.023,-0.024 -0.023,0 z m 0.023,0 -0.023,0.024 0,-0.024 0.023,0 z" /><path
         id="path3902"
         style="fill:#000000;fill-opacity:1;fill-rule:nonzero;stroke:none"
         d="m 23.859,456.488 -0.05,0 0.023,0 0,0.024 0.027,-0.024 z" /><path
         id="path3904"
         style="fill:#000000;fill-opacity:1;fill-rule:nonzero;stroke:none"
         d="m 23.809,456.488 0,0.024 0,-0.024 0.023,0.024 -0.023,-0.024 z" /><path
         id="path3906"
         style="fill:#000000;fill-opacity:1;fill-rule:nonzero;stroke:none"
         d="m 23.809,456.512 0.023,0 0,-0.023 -0.023,0 0,0.023 z" /><path
         id="path3908"
         style="fill:#000000;fill-opacity:1;fill-rule:nonzero;stroke:none"
         d="m 23.859,456.512 0,-0.047 -0.05,0 0.05,0.047 z" /><path
         id="path3910"
         style="fill:#000000;fill-opacity:1;fill-rule:nonzero;stroke:none"
         d="m 23.809,456.512 0.051,0 0,-0.047 -0.051,0 0,0.047 z" /><path
         id="path3912"
         style="fill:#000000;fill-opacity:1;fill-rule:nonzero;stroke:none"
         d="m 23.809,456.465 0,0.047 0.05,-0.047 -0.05,0 z m 0.05,0 -0.05,0.047 0,-0.047 0.05,0 z" /><path
         id="path3914"
         style="fill:#000000;fill-opacity:1;fill-rule:nonzero;stroke:none"
         d="m 23.859,456.465 -0.05,0 0.023,0 0,0.047 0.027,-0.047 z" /><path
         id="path3916"
         style="fill:#000000;fill-opacity:1;fill-rule:nonzero;stroke:none"
         d="m 23.809,456.465 0,0.047 0,-0.047 0.05,0.047 -0.05,-0.047 z" /><path
         id="path3918"
         style="fill:#000000;fill-opacity:1;fill-rule:nonzero;stroke:none"
         d="m 23.809,456.512 0.051,0 0,-0.047 -0.051,0 0,0.047 z" /><path
         id="path3920"
         style="fill:#000000;fill-opacity:1;fill-rule:nonzero;stroke:none"
         d="m 23.859,456.512 0,-0.047 -0.05,0 0.05,0.047 z" /><path
         id="path3922"
         style="fill:#000000;fill-opacity:1;fill-rule:nonzero;stroke:none"
         d="m 23.809,456.512 0.051,0 0,-0.047 -0.051,0 0,0.047 z" /><path
         id="path3924"
         style="fill:#000000;fill-opacity:1;fill-rule:nonzero;stroke:none"
         d="m 23.809,456.465 0,0.047 0.05,-0.047 -0.05,0 z m 0.05,0 -0.05,0.047 0,-0.047 0.05,0 z" /><path
         id="path3926"
         style="fill:#000000;fill-opacity:1;fill-rule:nonzero;stroke:none"
         d="m 23.859,456.465 -0.05,0 0.023,0 0,0.047 0.027,-0.047 z" /><path
         id="path3928"
         style="fill:#000000;fill-opacity:1;fill-rule:nonzero;stroke:none"
         d="m 23.809,456.465 0,0.047 0,-0.047 0.05,0.047 -0.05,-0.047 z" /><path
         id="path3930"
         style="fill:#000000;fill-opacity:1;fill-rule:nonzero;stroke:none"
         d="m 23.809,456.512 0.051,0 0,-0.047 -0.051,0 0,0.047 z" /><path
         id="path3932"
         style="fill:#000000;fill-opacity:1;fill-rule:nonzero;stroke:none"
         d="m 23.859,456.512 0,-0.047 -0.05,0 0.05,0.047 z" /><path
         id="path3934"
         style="fill:#000000;fill-opacity:1;fill-rule:nonzero;stroke:none"
         d="m 23.809,456.512 0.051,0 0,-0.047 -0.051,0 0,0.047 z" /><path
         id="path3936"
         style="fill:#000000;fill-opacity:1;fill-rule:nonzero;stroke:none"
         d="m 23.809,456.465 0,0.047 0.05,-0.047 -0.05,0 z m 0.05,0 -0.05,0.047 0,-0.047 0.05,0 z" /><path
         id="path3938"
         style="fill:#000000;fill-opacity:1;fill-rule:nonzero;stroke:none"
         d="m 23.859,456.465 -0.05,0 0.023,0 0,0.047 0.027,-0.047 z" /><path
         id="path3940"
         style="fill:#000000;fill-opacity:1;fill-rule:nonzero;stroke:none"
         d="m 23.809,456.465 0,0.047 0,-0.047 0.05,0.047 -0.05,-0.047 z" /><path
         id="path3942"
         style="fill:#000000;fill-opacity:1;fill-rule:nonzero;stroke:none"
         d="m 23.809,456.512 0.051,0 0,-0.047 -0.051,0 0,0.047 z" /></g></g></svg>