<?xml version="1.0" encoding="UTF-8" standalone="no"?>
<svg
   xmlns:dc="http://purl.org/dc/elements/1.1/"
   xmlns:cc="http://creativecommons.org/ns#"
   xmlns:rdf="http://www.w3.org/1999/02/22-rdf-syntax-ns#"
   xmlns:svg="http://www.w3.org/2000/svg"
   xmlns="http://www.w3.org/2000/svg"
   viewBox="0 0 600 600"
   height="600"
   width="600"
   xml:space="preserve"
   id="svg7820"
   version="1.1"><metadata
     id="metadata7826"><rdf:RDF><cc:Work
         rdf:about=""><dc:format>image/svg+xml</dc:format><dc:type
           rdf:resource="http://purl.org/dc/dcmitype/StillImage" /><dc:title></dc:title></cc:Work></rdf:RDF></metadata><defs
     id="defs7824" /><g
     transform="matrix(1.3333333,0,0,-1.3333333,0,600)"
     id="g7828"><g
       id="g7830"><path
         id="path7832"
         style="fill:#ffffff;fill-opacity:1;fill-rule:nonzero;stroke:none"
         d="M 28.543,449.777 C 0.16,449.777 0.223,421.52 0.223,421.52 V 28.48 c 0,0 -0.063,-28.253 28.32,-28.253 h 392.914 c 28.383,0 28.316,28.253 28.316,28.253 v 393.04 c 0,0 0.067,28.257 -28.316,28.257 z" /><path
         id="path7834"
         style="fill:#8a8a8a;fill-opacity:1;fill-rule:nonzero;stroke:none"
         d="m 225,410.121 c -78.707,0 -142.504,-63.797 -142.504,-142.5 0,-78.695 63.797,-142.504 142.504,-142.504 78.691,0 142.5,63.809 142.5,142.504 0,78.703 -63.809,142.5 -142.5,142.5 z m -0.082,-37.496 c 31.973,-0.004 63.547,-14.551 84.16,-42.129 27.883,-37.273 27.883,-88.449 0.035,-125.719 L 162.109,351.711 c 18.871,14.105 40.934,20.914 62.809,20.914 z M 140.906,330.496 287.875,183.527 c -46.445,-34.722 -112.246,-25.218 -146.969,21.215 -27.883,37.285 -27.883,88.481 0,125.754 z" /><path
         id="path7836"
         style="fill:#000000;fill-opacity:1;fill-rule:nonzero;stroke:none"
         d="M 28.543,450 C 14.277,450 7.098,442.867 3.539,435.746 -0.02,428.629 0,421.516 0,421.516 V 28.48 c 0,0 -0.02,-7.109 3.539,-14.226 C 7.098,7.137 14.277,0 28.543,0 h 392.914 c 14.266,0 21.445,7.137 25.004,14.254 3.559,7.117 3.539,14.23 3.539,14.23 v 393.032 c 0,0.004 0.02,7.113 -3.539,14.23 C 442.902,442.863 435.723,450 421.457,450 Z m 0,-0.223 h 392.914 c 28.383,0 28.316,-28.257 28.316,-28.257 V 28.48 c 0,0 0.067,-28.253 -28.316,-28.253 H 28.543 C 0.16,0.227 0.223,28.48 0.223,28.48 v 393.04 c 0,0 -0.063,28.257 28.32,28.257 z" /><path
         id="path7838"
         style="fill:#8a8a8a;fill-opacity:1;fill-rule:nonzero;stroke:none"
         d="m 288.684,45.805 v 63.066 h 40.558 V 99.867 H 298.266 V 81.844 h 26.472 V 73.398 H 298.266 V 54.82 h 30.976 v -9.015 z m -61.93,0 v 63.066 h 9.012 l 28.722,-45.039 v 45.039 h 9.567 V 45.805 h -9.012 l -28.707,45.05 V 45.805 Z M 178.906,67.77 c 0,-7.149 5.785,-12.95 12.938,-12.95 7.16,0 12.949,5.801 12.949,12.95 v 19.152 c 0,7.137 -5.789,12.945 -12.949,12.945 -7.153,0 -12.938,-5.808 -12.938,-12.945 z m -9.582,0 v 19.152 c 0,12.437 10.09,22.516 22.52,22.516 12.437,0 22.527,-10.079 22.527,-22.516 V 67.77 c 0,-12.438 -10.09,-22.516 -22.527,-22.516 -12.43,0 -22.52,10.078 -22.52,22.516 z M 119.777,45.805 v 7.89 l 28.719,46.731 h -27.594 v 8.445 h 39.418 v -7.308 L 131.605,54.82 h 28.715 v -9.015" /><path
         id="path7840"
         style="fill:#000000;fill-opacity:1;fill-rule:nonzero;stroke:none"
         d="m 98.617,395.629 v -0.016 h -0.015 z" /><path
         id="path7842"
         style="fill:#000000;fill-opacity:1;fill-rule:nonzero;stroke:none"
         d="m 98.602,395.629 h 0.016 v -0.016 h -0.016 z" /><path
         id="path7844"
         style="fill:#000000;fill-opacity:1;fill-rule:nonzero;stroke:none"
         d="m 98.602,395.613 v 0.016 l 0.015,-0.016 z m 0.015,0 -0.015,0.016 v -0.016 z" /><path
         id="path7846"
         style="fill:#000000;fill-opacity:1;fill-rule:nonzero;stroke:none"
         d="m 98.633,395.613 h -0.031 0.015 v 0.016 z" /><path
         id="path7848"
         style="fill:#000000;fill-opacity:1;fill-rule:nonzero;stroke:none"
         d="m 98.602,395.613 v 0.016 -0.016 l 0.015,0.016 z" /><path
         id="path7850"
         style="fill:#000000;fill-opacity:1;fill-rule:nonzero;stroke:none"
         d="m 98.602,395.629 h 0.016 v -0.016 h -0.016 z" /><path
         id="path7852"
         style="fill:#000000;fill-opacity:1;fill-rule:nonzero;stroke:none"
         d="m 98.633,395.629 v -0.027 h -0.031 z" /><path
         id="path7854"
         style="fill:#000000;fill-opacity:1;fill-rule:nonzero;stroke:none"
         d="m 98.602,395.629 h 0.031 v -0.027 h -0.031 z" /><path
         id="path7856"
         style="fill:#000000;fill-opacity:1;fill-rule:nonzero;stroke:none"
         d="m 98.602,395.602 v 0.027 l 0.031,-0.027 z m 0.031,0 -0.031,0.027 v -0.027 z" /><path
         id="path7858"
         style="fill:#000000;fill-opacity:1;fill-rule:nonzero;stroke:none"
         d="m 98.633,395.602 h -0.031 0.015 v 0.027 z" /><path
         id="path7860"
         style="fill:#000000;fill-opacity:1;fill-rule:nonzero;stroke:none"
         d="m 98.602,395.602 v 0.027 -0.027 l 0.031,0.027 z" /><path
         id="path7862"
         style="fill:#000000;fill-opacity:1;fill-rule:nonzero;stroke:none"
         d="m 98.602,395.629 h 0.031 v -0.027 h -0.031 z" /><path
         id="path7864"
         style="fill:#000000;fill-opacity:1;fill-rule:nonzero;stroke:none"
         d="m 98.633,395.629 v -0.027 h -0.031 z" /><path
         id="path7866"
         style="fill:#000000;fill-opacity:1;fill-rule:nonzero;stroke:none"
         d="m 98.602,395.629 h 0.031 v -0.027 h -0.031 z" /><path
         id="path7868"
         style="fill:#000000;fill-opacity:1;fill-rule:nonzero;stroke:none"
         d="m 98.602,395.602 v 0.027 l 0.031,-0.027 z m 0.031,0 -0.031,0.027 v -0.027 z" /><path
         id="path7870"
         style="fill:#000000;fill-opacity:1;fill-rule:nonzero;stroke:none"
         d="m 98.633,395.602 h -0.031 0.015 v 0.027 z" /><path
         id="path7872"
         style="fill:#000000;fill-opacity:1;fill-rule:nonzero;stroke:none"
         d="m 98.602,395.602 v 0.027 -0.027 l 0.031,0.027 z" /><path
         id="path7874"
         style="fill:#000000;fill-opacity:1;fill-rule:nonzero;stroke:none"
         d="m 98.602,395.629 h 0.031 v -0.027 h -0.031 z" /><path
         id="path7876"
         style="fill:#000000;fill-opacity:1;fill-rule:nonzero;stroke:none"
         d="m 98.633,395.629 v -0.027 h -0.031 z" /><path
         id="path7878"
         style="fill:#000000;fill-opacity:1;fill-rule:nonzero;stroke:none"
         d="m 98.602,395.629 h 0.031 v -0.027 h -0.031 z" /><path
         id="path7880"
         style="fill:#000000;fill-opacity:1;fill-rule:nonzero;stroke:none"
         d="m 98.602,395.602 v 0.027 l 0.031,-0.027 z m 0.031,0 -0.031,0.027 v -0.027 z" /><path
         id="path7882"
         style="fill:#000000;fill-opacity:1;fill-rule:nonzero;stroke:none"
         d="m 98.633,395.602 h -0.031 0.015 v 0.027 z" /><path
         id="path7884"
         style="fill:#000000;fill-opacity:1;fill-rule:nonzero;stroke:none"
         d="m 98.602,395.602 v 0.027 -0.027 l 0.031,0.027 z" /><path
         id="path7886"
         style="fill:#000000;fill-opacity:1;fill-rule:nonzero;stroke:none"
         d="m 98.602,395.629 h 0.031 v -0.027 h -0.031 z" /><path
         id="path7888"
         style="fill:#000000;fill-opacity:1;fill-rule:nonzero;stroke:none"
         d="M 98.625,394.242 V 394.23 H 98.609 Z" /><path
         id="path7890"
         style="fill:#000000;fill-opacity:1;fill-rule:nonzero;stroke:none"
         d="m 98.609,394.242 h 0.02 v -0.012 h -0.02 z" /><path
         id="path7892"
         style="fill:#000000;fill-opacity:1;fill-rule:nonzero;stroke:none"
         d="m 98.609,394.23 v 0.016 l 0.016,-0.016 z m 0.016,0 -0.016,0.016 v -0.016 z" /><path
         id="path7894"
         style="fill:#000000;fill-opacity:1;fill-rule:nonzero;stroke:none"
         d="m 98.641,394.23 h -0.032 0.016 v 0.016 z" /><path
         id="path7896"
         style="fill:#000000;fill-opacity:1;fill-rule:nonzero;stroke:none"
         d="m 98.609,394.23 v 0.016 -0.016 l 0.016,0.016 z" /><path
         id="path7898"
         style="fill:#000000;fill-opacity:1;fill-rule:nonzero;stroke:none"
         d="m 98.609,394.242 h 0.02 v -0.012 h -0.02 z" /><path
         id="path7900"
         style="fill:#000000;fill-opacity:1;fill-rule:nonzero;stroke:none"
         d="m 98.641,394.242 v -0.019 h -0.032 z" /><path
         id="path7902"
         style="fill:#000000;fill-opacity:1;fill-rule:nonzero;stroke:none"
         d="m 98.609,394.242 h 0.031 v -0.02 h -0.031 z" /><path
         id="path7904"
         style="fill:#000000;fill-opacity:1;fill-rule:nonzero;stroke:none"
         d="m 98.609,394.223 v 0.023 l 0.032,-0.023 z m 0.032,0 -0.032,0.023 v -0.023 z" /><path
         id="path7906"
         style="fill:#000000;fill-opacity:1;fill-rule:nonzero;stroke:none"
         d="m 98.641,394.223 h -0.032 0.016 v 0.023 z" /><path
         id="path7908"
         style="fill:#000000;fill-opacity:1;fill-rule:nonzero;stroke:none"
         d="m 98.609,394.223 v 0.023 -0.023 l 0.032,0.023 z" /><path
         id="path7910"
         style="fill:#000000;fill-opacity:1;fill-rule:nonzero;stroke:none"
         d="m 98.609,394.242 h 0.031 v -0.02 h -0.031 z" /><path
         id="path7912"
         style="fill:#000000;fill-opacity:1;fill-rule:nonzero;stroke:none"
         d="m 98.641,394.242 v -0.019 h -0.032 z" /><path
         id="path7914"
         style="fill:#000000;fill-opacity:1;fill-rule:nonzero;stroke:none"
         d="m 98.609,394.242 h 0.031 v -0.02 h -0.031 z" /><path
         id="path7916"
         style="fill:#000000;fill-opacity:1;fill-rule:nonzero;stroke:none"
         d="m 98.609,394.223 v 0.023 l 0.032,-0.023 z m 0.032,0 -0.032,0.023 v -0.023 z" /><path
         id="path7918"
         style="fill:#000000;fill-opacity:1;fill-rule:nonzero;stroke:none"
         d="m 98.641,394.223 h -0.032 0.016 v 0.023 z" /><path
         id="path7920"
         style="fill:#000000;fill-opacity:1;fill-rule:nonzero;stroke:none"
         d="m 98.609,394.223 v 0.023 -0.023 l 0.032,0.023 z" /><path
         id="path7922"
         style="fill:#000000;fill-opacity:1;fill-rule:nonzero;stroke:none"
         d="m 98.609,394.242 h 0.031 v -0.02 h -0.031 z" /><path
         id="path7924"
         style="fill:#000000;fill-opacity:1;fill-rule:nonzero;stroke:none"
         d="m 98.641,394.242 v -0.019 h -0.032 z" /><path
         id="path7926"
         style="fill:#000000;fill-opacity:1;fill-rule:nonzero;stroke:none"
         d="m 98.609,394.242 h 0.031 v -0.02 h -0.031 z" /><path
         id="path7928"
         style="fill:#000000;fill-opacity:1;fill-rule:nonzero;stroke:none"
         d="m 98.609,394.223 v 0.023 l 0.032,-0.023 z m 0.032,0 -0.032,0.023 v -0.023 z" /><path
         id="path7930"
         style="fill:#000000;fill-opacity:1;fill-rule:nonzero;stroke:none"
         d="m 98.641,394.223 h -0.032 0.016 v 0.023 z" /><path
         id="path7932"
         style="fill:#000000;fill-opacity:1;fill-rule:nonzero;stroke:none"
         d="m 98.609,394.223 v 0.023 -0.023 l 0.032,0.023 z" /><path
         id="path7934"
         style="fill:#000000;fill-opacity:1;fill-rule:nonzero;stroke:none"
         d="m 98.609,394.242 h 0.031 v -0.02 h -0.031 z" /><path
         id="path7936"
         style="fill:#000000;fill-opacity:1;fill-rule:nonzero;stroke:none"
         d="m 29.785,442.641 c -12.43,0 -22.496,-10.067 -22.496,-22.496 V 30.152 C 7.289,17.715 17.355,7.641 29.785,7.641 h 389.992 c 12.438,0 22.508,10.074 22.508,22.511 v 389.993 c 0,12.429 -10.07,22.496 -22.508,22.496 z m 0,-11.246 H 380.918 L 18.535,69.012 v 351.133 c 0,6.214 5.035,11.25 11.25,11.25 z m 362.266,-0.004 h 11.137 L 18.535,46.742 v 11.121 z m 22.285,0 h 5.441 c 1.606,0 3.207,-0.348 4.672,-1.004 L 19.547,25.469 c -0.672,1.476 -1.012,3.074 -1.012,4.683 v 5.446 z m 15.68,-6.575 c 0.672,-1.472 1.023,-3.062 1.023,-4.671 v -5.454 L 35.238,18.891 h -5.453 c -1.609,0 -3.207,0.343 -4.672,1.023 z m 1.023,-21.257 V 392.41 L 57.512,18.891 H 46.375 Z m 0,-22.27 V 30.152 c 0,-6.222 -5.047,-11.261 -11.262,-11.261 H 68.645 Z" /></g></g></svg>