<?xml version="1.0" encoding="UTF-8" standalone="no"?>
<svg
   xmlns:dc="http://purl.org/dc/elements/1.1/"
   xmlns:cc="http://creativecommons.org/ns#"
   xmlns:rdf="http://www.w3.org/1999/02/22-rdf-syntax-ns#"
   xmlns:svg="http://www.w3.org/2000/svg"
   xmlns="http://www.w3.org/2000/svg"
   viewBox="0 0 600 600"
   height="600"
   width="600"
   xml:space="preserve"
   id="svg9517"
   version="1.1"><metadata
     id="metadata9523"><rdf:RDF><cc:Work
         rdf:about=""><dc:format>image/svg+xml</dc:format><dc:type
           rdf:resource="http://purl.org/dc/dcmitype/StillImage" /><dc:title></dc:title></cc:Work></rdf:RDF></metadata><defs
     id="defs9521" /><g
     transform="matrix(1.3333333,0,0,-1.3333333,0,600)"
     id="g9525"><g
       id="g9527"><path
         id="path9529"
         style="fill:#ffffff;fill-opacity:1;fill-rule:nonzero;stroke:none"
         d="M 28.543,449.777 C 0.16,449.777 0.223,421.52 0.223,421.52 V 28.48 c 0,0 -0.063,-28.253 28.32,-28.253 h 392.914 c 28.383,0 28.316,28.253 28.316,28.253 v 393.04 c 0,0 0.067,28.257 -28.316,28.257 z" /><path
         id="path9531"
         style="fill:#c1121c;fill-opacity:1;fill-rule:nonzero;stroke:none"
         d="m 367.5,267.617 c 0,-78.691 -63.809,-142.5 -142.5,-142.5 -78.707,0 -142.504,63.809 -142.504,142.5 0,78.707 63.797,142.504 142.504,142.504 78.691,0 142.5,-63.797 142.5,-142.504" /><path
         id="path9533"
         style="fill:#154889;fill-opacity:1;fill-rule:nonzero;stroke:none"
         d="M 140.906,330.496 287.875,183.527 c -46.445,-34.722 -112.25,-25.218 -146.969,21.215 -27.883,37.285 -27.883,88.481 0,125.754 z m 21.203,21.215 c 46.446,34.723 112.25,25.23 146.969,-21.215 27.883,-37.273 27.883,-88.449 0.031,-125.719" /><path
         id="path9535"
         style="fill:#000000;fill-opacity:1;fill-rule:nonzero;stroke:none"
         d="M 27.945,442.359 C 7.641,442.395 7.715,422.121 7.715,422.121 V 27.879 c 0,0 -0.074,-20.274 20.23,-20.238 h 394.114 c 20.304,-0.036 20.226,20.238 20.226,20.238 v 394.242 c 0,0 0.078,20.274 -20.226,20.238 z m 0,-11.238 h 394.114 c 0,0 8.964,-0.359 8.984,-9 V 27.879 c -0.02,-8.641 -8.984,-8.996 -8.984,-8.996 H 27.945 c 0,0 -8.968,0.355 -8.988,8.996 v 394.242 c 0.02,8.641 8.988,9 8.988,9 z" /><path
         id="path9537"
         style="fill:#000000;fill-opacity:1;fill-rule:nonzero;stroke:none"
         d="M 28.543,450 C 14.277,450 7.098,442.867 3.539,435.746 -0.02,428.629 0,421.516 0,421.516 V 28.48 c 0,0 -0.02,-7.109 3.539,-14.226 C 7.098,7.137 14.277,0 28.543,0 h 392.914 c 14.266,0 21.445,7.137 25.004,14.254 3.559,7.117 3.539,14.23 3.539,14.23 v 393.032 c 0,0.004 0.02,7.113 -3.539,14.23 C 442.902,442.863 435.723,450 421.457,450 Z m 0,-0.223 h 392.914 c 28.383,0 28.316,-28.257 28.316,-28.257 V 28.48 c 0,0 0.067,-28.253 -28.316,-28.253 H 28.543 C 0.16,0.227 0.223,28.48 0.223,28.48 v 393.04 c 0,0 -0.063,28.257 28.32,28.257 z" /><path
         id="path9539"
         style="fill:#000000;fill-opacity:1;fill-rule:nonzero;stroke:none"
         d="m 288.684,45.805 v 63.066 h 40.558 V 99.867 H 298.266 V 81.844 h 26.472 V 73.398 H 298.266 V 54.82 h 30.976 v -9.015 z m -61.93,0 v 63.066 h 9.012 l 28.722,-45.039 v 45.039 h 9.567 V 45.805 h -9.012 l -28.707,45.05 V 45.805 Z M 178.906,67.77 c 0,-7.149 5.785,-12.95 12.938,-12.95 7.16,0 12.949,5.801 12.949,12.95 v 19.152 c 0,7.137 -5.789,12.945 -12.949,12.945 -7.153,0 -12.938,-5.808 -12.938,-12.945 z m -9.582,0 v 19.152 c 0,12.437 10.09,22.516 22.52,22.516 12.437,0 22.527,-10.079 22.527,-22.516 V 67.77 c 0,-12.438 -10.09,-22.516 -22.527,-22.516 -12.43,0 -22.52,10.078 -22.52,22.516 z M 119.777,45.805 v 7.89 l 28.719,46.731 h -27.594 v 8.445 h 39.418 v -7.309 L 131.605,54.82 h 28.715 v -9.015" /></g></g></svg>