<?xml version="1.0" encoding="UTF-8" standalone="no"?>
<svg
   xmlns:dc="http://purl.org/dc/elements/1.1/"
   xmlns:cc="http://creativecommons.org/ns#"
   xmlns:rdf="http://www.w3.org/1999/02/22-rdf-syntax-ns#"
   xmlns:svg="http://www.w3.org/2000/svg"
   xmlns="http://www.w3.org/2000/svg"
   viewBox="0 0 600 600"
   height="600"
   width="600"
   xml:space="preserve"
   version="1.1"
   id="svg3484"><metadata
     id="metadata3490"><rdf:RDF><cc:Work
         rdf:about=""><dc:format>image/svg+xml</dc:format><dc:type
           rdf:resource="http://purl.org/dc/dcmitype/StillImage" /><dc:title></dc:title></cc:Work></rdf:RDF></metadata><defs
     id="defs3488" /><g
     transform="matrix(1.25,0,0,-1.25,0,600)"
     id="g3492"><g
       id="g3494"><path
         id="path3496"
         style="fill:#ffffff;fill-opacity:1;fill-rule:nonzero;stroke:none"
         d="M 223.758,7.562 6.582,224.734 c -9.98,9.977 -6.684,24.672 0.219,31.957 l 216.23,216.082 c 11.098,11.086 26.364,7.176 33.473,0.075 L 471.812,258.051 c 10.321,-10.313 10.547,-24.094 0.516,-34.121 L 256.16,7.508 C 239.863,-8.77 223.758,7.562 223.758,7.562 Z" /><path
         id="path3498"
         style="fill:#ffffff;fill-opacity:1;fill-rule:nonzero;stroke:none"
         d="m 471.812,258.051 c 10.321,-10.313 10.547,-24.094 0.516,-34.121 C 400.273,151.789 328.219,79.648 256.16,7.508 239.863,-8.77 223.758,7.562 223.758,7.562 L 6.582,224.734 c -9.98,9.977 -6.684,24.672 0.219,31.957 l 216.23,216.082 c 11.098,11.086 26.364,7.176 33.473,0.075 L 471.812,258.051 Z" /><path
         id="path3500"
         style="fill:#ffffff;fill-opacity:1;fill-rule:nonzero;stroke:none"
         d="m 471.812,258.051 c 10.321,-10.313 10.547,-24.094 0.516,-34.121 C 400.273,151.789 328.219,79.648 256.16,7.508 239.863,-8.77 223.758,7.562 223.758,7.562 L 6.582,224.734 c -9.98,9.977 -6.684,24.672 0.219,31.957 l 216.23,216.082 c 11.098,11.086 26.364,7.176 33.473,0.075 L 471.812,258.051 Z" /><path
         id="path3502"
         style="fill:#000000;fill-opacity:1;fill-rule:nonzero;stroke:none"
         d="m 250.379,467.738 216.902,-216.89 c 10.629,-10.582 0.203,-20.539 0.203,-20.539 L 250.215,13.191 c 0,0 -9.965,-10.421 -20.551,0.2 L 12.621,230.145 c -10.598,10.644 -0.004,20.691 -0.004,20.691 72.328,72.355 144.692,144.617 217.055,216.906 0,0 10.058,10.586 20.707,-0.004 z m -6.199,-6.195 c -4.172,4.199 -8.371,-0.094 -8.371,-0.094 C 163.488,389.227 91.199,316.965 18.914,244.703 c 0,0 -4.297,-4.195 -0.094,-8.363 L 235.836,19.613 c 4.492,-4.34 8.211,0.032 8.211,0.032 72.445,72.16 144.707,144.496 216.98,216.828 0,0 4.371,3.718 0.032,8.203 L 244.18,461.543 Z" /><path
         id="path3504"
         style="fill:#f7ba0b;fill-opacity:1;fill-rule:nonzero;stroke:none"
         d="M 240.004,107.648 372.996,240.547 240.004,373.449 107.012,240.547 240.004,107.648 Z" /><path
         id="path3506"
         style="fill:#000000;fill-opacity:1;fill-rule:nonzero;stroke:none"
         d="m 240.004,103.496 -2.078,2.078 L 102.855,240.547 240.004,377.602 377.152,240.547 240.004,103.496 Z m 0,8.305 L 368.84,240.547 240.004,369.293 111.168,240.547 240.004,111.801 Z" /><path
         id="path3508"
         style="fill:#000000;fill-opacity:1;fill-rule:nonzero;stroke:none"
         d="m 472.02,258.262 c 5.207,-5.203 7.882,-11.305 7.976,-17.375 0.094,-6.071 -2.394,-12.102 -7.461,-17.164 C 400.48,151.582 328.426,79.441 256.371,7.301 248.152,-0.91 239.891,-0.922 233.754,1.152 227.613,3.227 223.547,7.355 223.547,7.355 L 6.375,224.527 c -5.051,5.051 -6.75,11.313 -6.309,17.215 0.446,5.903 3.02,11.453 6.524,15.153 l 0.004,0.007 216.23,216.078 c 5.61,5.606 12.297,7.43 18.461,6.946 6.168,-0.485 11.817,-3.262 15.426,-6.867 L 472.02,258.262 Z m -0.208,-0.211 -215.308,214.797 c -7.109,7.101 -22.375,11.011 -33.473,-0.075 L 6.801,256.691 C -0.102,249.406 -3.398,234.711 6.582,224.734 L 223.758,7.562 c 0,0 16.105,-16.332 32.402,-0.054 72.059,72.14 144.113,144.281 216.168,216.422 10.031,10.027 9.805,23.808 -0.516,34.121 z" /></g></g></svg>