<?xml version="1.0" encoding="UTF-8" standalone="no"?>
<svg
   viewBox="0 0 601.00134 601.00159"
   height="601.00159"
   width="601.00134"
   xml:space="preserve"
   version="1.1"
   id="svg4101"
   sodipodi:docname="Zeichen_314-31_-_Parken_Mitte_(Aufstellung links),_StVO_2017.svg"
   inkscape:version="1.1 (c68e22c387, 2021-05-23)"
   xmlns:inkscape="http://www.inkscape.org/namespaces/inkscape"
   xmlns:sodipodi="http://sodipodi.sourceforge.net/DTD/sodipodi-0.dtd"
   xmlns="http://www.w3.org/2000/svg"
   xmlns:svg="http://www.w3.org/2000/svg"
   xmlns:rdf="http://www.w3.org/1999/02/22-rdf-syntax-ns#"
   xmlns:cc="http://creativecommons.org/ns#"
   xmlns:dc="http://purl.org/dc/elements/1.1/"><sodipodi:namedview
     id="namedview848"
     pagecolor="#ffffff"
     bordercolor="#666666"
     borderopacity="1.0"
     inkscape:pageshadow="2"
     inkscape:pageopacity="0.0"
     inkscape:pagecheckerboard="0"
     showgrid="false"
     inkscape:zoom="1.2329418"
     inkscape:cx="300.09526"
     inkscape:cy="300.50079"
     inkscape:window-width="1560"
     inkscape:window-height="1013"
     inkscape:window-x="931"
     inkscape:window-y="80"
     inkscape:window-maximized="0"
     inkscape:current-layer="svg4101" /><metadata
     id="metadata4107"><rdf:RDF><cc:Work
         rdf:about=""><dc:format>image/svg+xml</dc:format><dc:type
           rdf:resource="http://purl.org/dc/dcmitype/StillImage" /></cc:Work></rdf:RDF></metadata><defs
     id="defs4105" /><path
     id="path4113"
     style="fill:#ffffff;fill-opacity:1;fill-rule:nonzero;stroke:none;stroke-width:1.25"
     d="M 36.49875,0.49784 C 0.42,0.47909 0.4975,36.50409 0.4975,36.50409 v 527.9975 c 0,0 -0.0775,36.03125 36.00125,35.99625 H 564.5025 c 36.3125,0.0388 35.995,-35.99625 35.995,-35.99625 V 36.50409 c 0,0 0.29875,-36.12375 -35.995,-36.00625 z" /><path
     id="path4115"
     style="fill:#154889;fill-opacity:1;fill-rule:nonzero;stroke:none;stroke-width:1.25"
     d="M 36.49875,12.50034 C 23.2475,12.50034 12.5,23.24659 12.5,36.49909 v 528.0025 c 0,13.2625 10.7475,24 23.99875,24 H 564.5025 c 13.25125,0 23.99875,-10.7375 23.99875,-24 V 36.49909 c 0,-13.2525 -10.7475,-23.99875 -23.99875,-23.99875 z" /><path
     id="path4117"
     style="fill:#000000;fill-opacity:1;fill-rule:nonzero;stroke:none;stroke-width:1.25"
     d="M 36.49875,3.4e-4 C 18.29125,-0.00966 9.0725,9.14534 4.52125,18.27159 -0.02875,27.39784 0,36.50909 0,36.50909 v 527.9925 c 0,0 -0.025,9.11125 4.52125,18.2325 4.55125,9.12625 13.77,18.28125 31.9775,18.2675 H 564.5025 c 18.32,0.0188 27.54375,-9.14125 32.065,-18.2675 4.51625,-9.12125 4.43375,-18.2275 4.43375,-18.2325 V 36.50409 c 0,-0.005 0.0775,-9.13625 -4.44375,-18.26625 -4.52125,-9.13625 -13.745,-18.29625 -32.055,-18.2375 z m 0,0.4975 H 564.5025 c 36.29375,-0.1175 35.995,36.00625 35.995,36.00625 v 527.9975 c 0,0 0.3175,36.035 -35.995,35.99625 H 36.49875 C 0.42,600.53284 0.4975,564.50159 0.4975,564.50159 V 36.50409 c 0,0 -0.0775,-36.025 36.00125,-36.00625 z" /><path
     id="path4119"
     style="fill:#ffffff;fill-opacity:1;fill-rule:nonzero;stroke:none;stroke-width:1.25"
     d="m 278.11,151.05034 h -96.47375 v 133.23625 h 98.705 c 22.90125,0 39.95125,-7.00625 51.25,-20.98625 11.255,-13.97875 16.905,-29.17375 16.905,-45.63 0,-24.92125 -8.8575,-43.26125 -26.52875,-55.00875 -11.3625,-7.735 -25.96625,-11.61125 -43.8575,-11.61125 z m -97.66125,359.4525 H 116.5875 l 0.595,-419.75125 157.69,-0.24875 c 16.03625,0 31.51375,1.70375 46.3625,5.1225 14.84875,3.4225 30.29375,11.47 46.32875,24.09125 12.48,9.76125 23.08125,23.15 31.7575,40.225 8.68125,17.08 13.0325,36.885 13.0325,59.43875 0,29.80375 -10.9425,58.17875 -32.8325,85.0925 C 357.6275,331.38159 325.63,344.83909 283.55,344.83909 H 181.63625 Z" /><g
     id="g1044"
     transform="matrix(-1,0,0,1,811.00125,0)"><path
       id="path4121"
       style="fill:#ffffff;fill-opacity:1;fill-rule:nonzero;stroke:none;stroke-width:1.25"
       d="M 326.5875,420.72284 371.65,375.64409 h 25.04875 L 361.645,410.70284 h 122.76875 v 20.035 H 361.645 l 35.05375,35.0625 H 371.65" /><path
       id="path4123"
       style="fill:#ffffff;fill-opacity:1;fill-rule:nonzero;stroke:none;stroke-width:1.25"
       d="m 484.41375,507.92534 -45.0775,45.0775 h -25.035 l 35.045,-35.06875 H 326.5875 v -20.02375 h 122.75875 l -35.045,-35.05875 h 25.035" /></g></svg>
