<?xml version="1.0" encoding="UTF-8" standalone="no"?>
<svg
   xmlns:dc="http://purl.org/dc/elements/1.1/"
   xmlns:cc="http://creativecommons.org/ns#"
   xmlns:rdf="http://www.w3.org/1999/02/22-rdf-syntax-ns#"
   xmlns:svg="http://www.w3.org/2000/svg"
   xmlns="http://www.w3.org/2000/svg"
   viewBox="0 0 601.00134 601.00159"
   height="601.00159"
   width="601.00134"
   xml:space="preserve"
   version="1.1"
   id="svg4496"><metadata
     id="metadata4502"><rdf:RDF><cc:Work
         rdf:about=""><dc:format>image/svg+xml</dc:format><dc:type
           rdf:resource="http://purl.org/dc/dcmitype/StillImage" /><dc:title></dc:title></cc:Work></rdf:RDF></metadata><defs
     id="defs4500" /><g
     transform="matrix(1.25,0,0,-1.25,0,601.00159)"
     id="g4504"><g
       id="g4506"><path
         id="path4508"
         style="fill:#ffffff;fill-opacity:1;fill-rule:nonzero;stroke:none"
         d="M 29.199,480.403 C 0.336,480.418 0.398,451.598 0.398,451.598 l 0,-422.398 c 0,0 -0.062,-28.825 28.801,-28.797 l 422.403,0 C 480.652,0.372 480.398,29.2 480.398,29.2 l 0,422.398 c 0,0 0.239,28.899 -28.796,28.805 l -422.403,0 z" /><path
         id="path4510"
         style="fill:#154889;fill-opacity:1;fill-rule:nonzero;stroke:none"
         d="M 29.199,470.801 C 18.598,470.801 10,462.204 10,451.602 L 10,29.2 C 10,18.59 18.598,10 29.199,10 l 422.403,0 c 10.601,0 19.199,8.59 19.199,19.2 l 0,422.402 c 0,10.602 -8.598,19.199 -19.199,19.199 l -422.403,0 z" /><path
         id="path4512"
         style="fill:#000000;fill-opacity:1;fill-rule:nonzero;stroke:none"
         d="M 29.199,480.801 C 14.633,480.809 7.258,473.485 3.617,466.184 -0.023,458.883 0,451.594 0,451.594 L 0,29.2 C 0,29.2 -0.02,21.911 3.617,14.614 7.258,7.313 14.633,-0.011 29.199,0 l 422.403,0 c 14.656,-0.015 22.035,7.313 25.652,14.614 3.613,7.297 3.547,14.582 3.547,14.586 l 0,422.398 c 0,0.004 0.062,7.309 -3.555,14.613 -3.617,7.309 -10.996,14.637 -25.644,14.59 l -422.403,0 z m 0,-0.398 422.403,0 c 29.035,0.094 28.796,-28.805 28.796,-28.805 l 0,-422.398 c 0,0 0.254,-28.828 -28.796,-28.797 l -422.403,0 C 0.336,0.375 0.398,29.2 0.398,29.2 l 0,422.398 c 0,0 -0.062,28.82 28.801,28.805 z" /><path
         id="path4514"
         style="fill:#ffffff;fill-opacity:1;fill-rule:nonzero;stroke:none"
         d="m 222.488,359.961 -77.179,0 0,-106.589 78.964,0 c 18.321,0 31.961,5.605 41,16.789 9.004,11.183 13.524,23.339 13.524,36.504 0,19.937 -7.086,34.609 -21.223,44.007 -9.09,6.188 -20.773,9.289 -35.086,9.289 z m -78.129,-287.562 -51.089,0 0.476,335.801 126.152,0.199 c 12.829,0 25.211,-1.363 37.09,-4.098 11.879,-2.738 24.235,-9.176 37.063,-19.273 9.984,-7.809 18.465,-18.52 25.406,-32.18 6.945,-13.664 10.426,-29.508 10.426,-47.551 0,-23.843 -8.754,-46.543 -26.266,-68.074 C 286.102,215.696 260.504,204.93 226.84,204.93 l -81.531,0 -0.95,-132.531 z" /><path
         id="path4516"
         style="fill:#ffffff;fill-opacity:1;fill-rule:nonzero;stroke:none"
         d="m 207.645,123.5 51.367,51.383 28.531,0 -39.941,-39.972 139.929,0 0,-22.825 -139.929,0 39.941,-39.968 -28.531,0" /></g></g></svg>