<?xml version="1.0" encoding="UTF-8" standalone="no"?>
<svg
   xmlns:dc="http://purl.org/dc/elements/1.1/"
   xmlns:cc="http://creativecommons.org/ns#"
   xmlns:rdf="http://www.w3.org/1999/02/22-rdf-syntax-ns#"
   xmlns:svg="http://www.w3.org/2000/svg"
   xmlns="http://www.w3.org/2000/svg"
   viewBox="0 0 601.00195 601.00195"
   height="601.00195"
   width="601.00195"
   xml:space="preserve"
   version="1.1"
   id="svg10500"><metadata
     id="metadata10506"><rdf:RDF><cc:Work
         rdf:about=""><dc:format>image/svg+xml</dc:format><dc:type
           rdf:resource="http://purl.org/dc/dcmitype/StillImage" /><dc:title></dc:title></cc:Work></rdf:RDF></metadata><defs
     id="defs10504" /><g
     transform="matrix(1.25,0,0,-1.25,0,601.00197)"
     id="g10508"><g
       id="g10510"><path
         id="path10512"
         style="fill:#ffffff;fill-opacity:1;fill-rule:evenodd;stroke:none"
         d="M 32.395,0.399 C 14.719,0.399 0.398,14.72 0.398,32.395 l 0,415.993 c 0,17.675 14.321,32.011 31.997,32.011 l 416.007,0 c 17.676,0 31.996,-14.336 31.996,-32.011 l 0,-415.993 c 0,-17.675 -14.32,-31.996 -31.996,-31.996 l -416.007,0 z" /><path
         id="path10514"
         style="fill:#ffffff;fill-opacity:1;fill-rule:evenodd;stroke:none"
         d="m 203.562,292.059 44.204,0 c 16.89,0 30.597,13.704 30.597,30.598 0,16.895 -13.707,30.598 -30.597,30.598 l -44.204,0 0,-61.196 z m -28.894,-101.988 0,190.391 74.801,0 c 31.929,0 57.804,-25.879 57.804,-57.805 0,-31.926 -25.875,-57.805 -57.804,-57.805 l -45.907,0 0,-74.781 -28.894,0 z" /><path
         id="path10516"
         style="fill:#000000;fill-opacity:1;fill-rule:evenodd;stroke:none"
         d="M 32.387,8.399 C 19.133,8.399 8.395,19.138 8.395,32.391 l 0,416.008 c 0,13.25 10.738,23.992 23.992,23.992 l 416.004,0 c 13.254,0 24.011,-10.742 24.011,-23.992 l 0,-416.008 c 0,-13.253 -10.757,-23.992 -24.011,-23.992 l -416.004,0 z" /><path
         id="path10518"
         style="fill:#ffffff;fill-opacity:1;fill-rule:evenodd;stroke:none"
         d="m 32.387,20.399 c -6.633,0 -12.004,5.367 -12.004,12.004 l 0,415.988 c 0,6.637 5.371,12.008 12.004,12.008 l 416.004,0 c 6.636,0 12.007,-5.371 12.007,-12.008 l 0,-415.988 c 0,-6.637 -5.371,-12.004 -12.007,-12.004 l -416.004,0 z" /><path
         id="path10520"
         style="fill:#868786;fill-opacity:1;fill-rule:evenodd;stroke:none"
         d="m 128.789,42.93 0,8.403 30.594,49.805 -4.797,0 8.992,8.992 8.418,0 0,-7.797 -30.613,-49.805 30.613,0 0,-9.598 -43.207,0 z m 13.91,58.208 -11.883,0 9.008,8.992 11.887,0 -9.012,-8.992 z m 38.895,-34.805 0,20.39 c 0,13.27 10.742,24.012 23.992,24.012 13.254,0 24.012,-10.742 24.012,-24.012 l 0,-20.39 c 0,-13.25 -10.758,-24.008 -24.012,-24.008 -13.25,0 -23.992,10.758 -23.992,24.008 m 10.203,0 c 0,-7.621 6.168,-13.805 13.789,-13.805 7.625,0 13.809,6.184 13.809,13.805 l 0,20.39 c 0,7.625 -6.184,13.809 -13.809,13.809 -7.621,0 -13.789,-6.184 -13.789,-13.809 l 0,-20.39 z m 51.004,-23.403 0,67.2 9.597,0 30.594,-48.004 0,48.004 10.203,0 0,-67.2 -9.597,0 -30.614,48.004 0,-48.004 -10.183,0 65.988,0 0,67.2 43.203,0 0,-9.598 -33,0 0,-19.195 28.203,0 0,-9.008 -28.203,0 0,-19.801 33,0 0,-9.598 -109.191,0 z" /><path
         id="path10522"
         style="fill:#868786;fill-opacity:1;fill-rule:evenodd;stroke:none"
         d="m 122.52,149.263 c -10.012,0 -18.137,8.125 -18.137,18.14 l 0,235.719 c 0,10.016 8.125,18.141 18.137,18.141 l 235.75,0 c 10.011,0 18.121,-8.125 18.121,-18.141 l 0,-235.719 c 0,-10.015 -8.11,-18.14 -18.121,-18.14 l -235.75,0 z" /><path
         id="path10524"
         style="fill:#ffffff;fill-opacity:1;fill-rule:evenodd;stroke:none"
         d="m 174.656,190.063 0,190.403 74.805,0 c 31.914,0 57.797,-25.883 57.797,-57.809 0,-31.91 -25.883,-57.793 -57.797,-57.793 l -45.906,0 0,-74.801 -28.899,0 z m 28.899,102 44.211,0 c 16.89,0 30.593,13.703 30.593,30.594 0,16.906 -13.703,30.609 -30.593,30.609 l -44.211,0 0,-61.203 z" /><path
         id="path10526"
         style="fill:#000000;fill-opacity:1;fill-rule:evenodd;stroke:none"
         d="m 20.387,73.856 386.554,386.539 11.883,0 L 20.387,61.97 l 0,11.886 z M 460.402,406.934 73.848,20.395 l -11.883,0 398.437,398.422 0,-11.883 z M 20.387,50.102 l 410.304,410.293 11.887,0 L 20.387,38.22 l 0,11.882 z m 432.984,409.2 c 2.633,-1.196 4.746,-3.309 5.941,-5.922 L 27.402,21.485 c -2.632,1.195 -4.73,3.309 -5.941,5.926 l 431.91,431.891 7.031,-16.735 0,-11.863 -410.32,-410.309 -11.867,0 422.187,422.172 -7.031,16.735 z" /><path
         id="path10528"
         style="fill:#000000;fill-opacity:1;fill-rule:evenodd;stroke:none"
         d="M 32.395,480.786 C 14.5,480.786 0,466.282 0,448.391 L 0,32.395 C 0,14.501 14.5,0.001 32.395,0.001 l 416.011,0 c 17.895,0 32.395,14.5 32.395,32.394 l 0,415.996 c 0,17.891 -14.5,32.395 -32.395,32.395 l -416.011,0 z m 0,-0.387 416.007,0 c 17.676,0 31.996,-14.336 31.996,-32.011 l 0,-415.993 c 0,-17.675 -14.32,-31.996 -31.996,-31.996 l -416.007,0 C 14.719,0.399 0.398,14.72 0.398,32.395 l 0,415.993 c 0,17.675 14.321,32.011 31.997,32.011 z" /></g></g></svg>