<?xml version="1.0" encoding="UTF-8" standalone="no"?>
<svg
   xmlns:dc="http://purl.org/dc/elements/1.1/"
   xmlns:cc="http://creativecommons.org/ns#"
   xmlns:rdf="http://www.w3.org/1999/02/22-rdf-syntax-ns#"
   xmlns:svg="http://www.w3.org/2000/svg"
   xmlns="http://www.w3.org/2000/svg"
   viewBox="0 0 601.00195 601.00195"
   height="601.00195"
   width="601.00195"
   xml:space="preserve"
   version="1.1"
   id="svg10387"><metadata
     id="metadata10393"><rdf:RDF><cc:Work
         rdf:about=""><dc:format>image/svg+xml</dc:format><dc:type
           rdf:resource="http://purl.org/dc/dcmitype/StillImage" /><dc:title></dc:title></cc:Work></rdf:RDF></metadata><defs
     id="defs10391" /><g
     transform="matrix(1.25,0,0,-1.25,0,601.00197)"
     id="g10395"><g
       id="g10397"><path
         id="path10399"
         style="fill:#ffffff;fill-opacity:1;fill-rule:evenodd;stroke:none"
         d="M 32.395,0.399 C 14.719,0.399 0.398,14.72 0.398,32.395 l 0,415.993 c 0,17.675 14.321,32.011 31.997,32.011 l 416.007,0 c 17.676,0 31.996,-14.336 31.996,-32.011 l 0,-415.993 c 0,-17.675 -14.32,-31.996 -31.996,-31.996 l -416.007,0 z" /><path
         id="path10401"
         style="fill:#000000;fill-opacity:1;fill-rule:evenodd;stroke:none"
         d="m 242.797,42.93 0,67.196 9.598,0 30.601,-48 0,48 10.211,0 0,-67.196 -9.598,0 -30.601,48.004 0,-48.004 -10.211,0 66.008,0 0,67.196 43.195,0 0,-9.598 -33.004,0 0,-19.191 28.215,0 0,-9 -28.215,0 0,-19.809 33.004,0 0,-9.598 -109.203,0 z m -51.004,23.407 c 0,-7.637 6.191,-13.809 13.809,-13.809 7.621,0 13.793,6.172 13.793,13.809 l 0,20.386 c 0,7.637 -6.172,13.805 -13.793,13.805 -7.618,0 -13.809,-6.168 -13.809,-13.805 l 0,-20.386 z m -10.191,0 0,20.386 c 0,13.262 10.738,24 24,24 13.246,0 24.003,-10.738 24.003,-24 l 0,-20.386 c 0,-13.262 -10.757,-24.004 -24.003,-24.004 -13.262,0 -24,10.742 -24,24.004 m -52.813,-23.407 0,8.407 30.602,49.789 -29.391,0 0,9 42.004,0 0,-7.789 -30.617,-49.809 30.617,0 0,-9.598 -43.215,0 z" /><path
         id="path10403"
         style="fill:#000000;fill-opacity:1;fill-rule:evenodd;stroke:none"
         d="m 32.395,20.399 416.007,0 c 6.629,0 12,5.367 12,12 l 0,415.992 c 0,6.629 -5.371,12 -12,12 l -416.007,0 c -6.629,0 -12,-5.371 -12,-12 l 0,-415.992 c 0,-6.633 5.371,-12 12,-12 m 0,-12 c -13.262,0 -24,10.739 -24,24 l 0,415.992 c 0,13.243 10.738,24 24,24 l 416.007,0 c 13.262,0 24,-10.757 24,-24 l 0,-415.992 c 0,-13.261 -10.738,-24 -24,-24 l -416.007,0 z" /><path
         id="path10405"
         style="fill:#154889;fill-opacity:1;fill-rule:evenodd;stroke:none"
         d="m 122.527,149.266 c -10.007,0 -18.136,8.114 -18.136,18.137 l 0,235.727 c 0,10.008 8.129,18.121 18.136,18.121 l 235.739,0 c 10.023,0 18.136,-8.113 18.136,-18.121 l 0,-235.727 c 0,-10.023 -8.113,-18.137 -18.136,-18.137 l -235.739,0 z" /><path
         id="path10407"
         style="fill:#ffffff;fill-opacity:1;fill-rule:evenodd;stroke:none"
         d="m 203.562,292.059 44.204,0 c 16.89,0 30.597,13.704 30.597,30.598 0,16.895 -13.707,30.598 -30.597,30.598 l -44.204,0 0,-61.196 z m -28.894,-101.988 0,190.391 74.801,0 c 31.929,0 57.804,-25.879 57.804,-57.805 0,-31.926 -25.875,-57.805 -57.804,-57.805 l -45.907,0 0,-74.781 -28.894,0 z" /><path
         id="path10409"
         style="fill:#000000;fill-opacity:1;fill-rule:evenodd;stroke:none"
         d="M 32.395,480.786 C 14.5,480.786 0,466.282 0,448.391 L 0,32.395 C 0,14.501 14.5,0.001 32.395,0.001 l 416.011,0 c 17.895,0 32.395,14.5 32.395,32.394 l 0,415.996 c 0,17.891 -14.5,32.395 -32.395,32.395 l -416.011,0 z m 0,-0.387 416.007,0 c 17.676,0 31.996,-14.336 31.996,-32.011 l 0,-415.993 c 0,-17.675 -14.32,-31.996 -31.996,-31.996 l -416.007,0 C 14.719,0.399 0.398,14.72 0.398,32.395 l 0,415.993 c 0,17.675 14.321,32.011 31.997,32.011 z" /></g></g></svg>