<?xml version="1.0" encoding="UTF-8" standalone="no"?>
<svg
   xmlns:dc="http://purl.org/dc/elements/1.1/"
   xmlns:cc="http://creativecommons.org/ns#"
   xmlns:rdf="http://www.w3.org/1999/02/22-rdf-syntax-ns#"
   xmlns:svg="http://www.w3.org/2000/svg"
   xmlns="http://www.w3.org/2000/svg"
   viewBox="0 0 732.08002 488.90372"
   height="488.90372"
   width="732.08002"
   xml:space="preserve"
   version="1.1"
   id="svg3682"><metadata
     id="metadata3688"><rdf:RDF><cc:Work
         rdf:about=""><dc:format>image/svg+xml</dc:format><dc:type
           rdf:resource="http://purl.org/dc/dcmitype/StillImage" /><dc:title></dc:title></cc:Work></rdf:RDF></metadata><defs
     id="defs3686"><clipPath
       id="clipPath3698"
       clipPathUnits="userSpaceOnUse"><path
         id="path3700"
         d="m 0,390.963 586,0 0,-391 -586,0 0,391 z" /></clipPath><clipPath
       id="clipPath3708"
       clipPathUnits="userSpaceOnUse"><path
         id="path3710"
         d="M 0,1 586,1 586,392 0,392 0,1 Z" /></clipPath></defs><g
     transform="matrix(1.25,0,0,-1.25,0,488.90373)"
     id="g3690"><g
       id="g3692" /><g
       id="g3694"><g
         clip-path="url(#clipPath3698)"
         id="g3696"><g
           transform="translate(0,-0.877014)"
           id="g3702"><g
             id="g3704"><g
               clip-path="url(#clipPath3708)"
               id="g3706"><g
                 id="g3712"><path
                   id="path3714"
                   style="fill:#ffffff;fill-opacity:1;fill-rule:nonzero;stroke:none"
                   d="M 26.379,1.504 C 12.023,1.504 0.387,13.152 0.387,27.512 l 0,337.933 c 0,14.356 11.636,25.996 25.992,25.996 l 532.906,0 c 14.356,0 25.992,-11.64 25.992,-25.996 l 0,-337.933 c 0,-14.36 -11.636,-26.008 -25.992,-26.008" /><path
                   id="path3716"
                   style="fill:#000000;fill-opacity:1;fill-rule:nonzero;stroke:none"
                   d="M 26.379,391.84 C 11.836,391.84 0,380.004 0,365.445 L 0,27.512 C 0,12.969 11.836,1.117 26.379,1.117 l 532.906,0 c 14.543,0 26.379,11.852 26.379,26.395 l 0,337.933 c 0,14.559 -11.836,26.395 -26.379,26.395 l -532.906,0 z m 0,-0.399 532.906,0 c 14.356,0 25.992,-11.64 25.992,-25.996 l 0,-337.933 c 0,-14.36 -11.636,-26.008 -25.992,-26.008 l -532.906,0 C 12.023,1.504 0.387,13.152 0.387,27.512 l 0,337.933 c 0,14.356 11.636,25.996 25.992,25.996 z" /></g></g></g></g><path
           id="path3718"
           style="fill:#154889;fill-opacity:1;fill-rule:nonzero;stroke:none"
           d="m 26.379,10.369 c -8.969,0 -16.234,7.293 -16.234,16.266 l 0,337.933 c 0,8.973 7.265,16.25 16.234,16.25 l 532.906,0 c 8.969,0 16.262,-7.277 16.262,-16.25 l 0,-337.933 c 0,-8.973 -7.293,-16.266 -16.262,-16.266" /><path
           id="path3720"
           style="fill:#ffffff;fill-opacity:1;fill-rule:nonzero;stroke:none"
           d="m 126.133,155.603 0,-119.878 c -11.508,0 -20.836,9.343 -20.836,20.847 l 0,72.973 L 53.176,46.15 c -9.774,6.106 -12.731,18.969 -6.641,28.727 l 37.91,60.652 0,20.074" /><path
           id="path3722"
           style="fill:#ffffff;fill-opacity:1;fill-rule:nonzero;stroke:none"
           d="m 126.133,160.814 -41.688,0 0,39.313 -27.832,-44.524 c -8.543,5.332 -11.144,16.598 -5.797,25.129 l 36.805,58.891 c 6.09,9.758 18.953,12.73 28.727,6.625 6.09,-3.813 9.785,-10.488 9.785,-17.688 l 0,-23.449 39.097,-23.445 c -5.187,-8.641 -16.386,-11.438 -25.023,-6.254 l -14.074,8.438" /><path
           id="path3724"
           style="fill:#ffffff;fill-opacity:1;fill-rule:nonzero;stroke:none"
           d="m 139.168,278.084 c 0,-11.52 -9.332,-20.852 -20.848,-20.852 -11.519,0 -20.847,9.332 -20.847,20.852 0,11.516 9.328,20.848 20.847,20.848 11.516,0 20.848,-9.332 20.848,-20.848" /><path
           id="path3726"
           style="fill:#ffffff;fill-opacity:1;fill-rule:nonzero;stroke:none"
           d="m 248.504,50.842 c 0,-8.344 -6.774,-15.117 -15.117,-15.117 -8.36,0 -15.129,6.773 -15.129,15.117 0,8.359 6.769,15.129 15.129,15.129 8.343,0 15.117,-6.77 15.117,-15.129" /><path
           id="path3728"
           style="fill:#ffffff;fill-opacity:1;fill-rule:nonzero;stroke:none"
           d="M 321.086,114.346 302.062,98.564 c -4.21,-3.48 -10.382,-3.187 -14.25,0.664 l 33.54,33.54 c 6.984,-2.946 14.984,-2.2 21.316,1.972 l 22.367,-4.945 c 0.895,-0.211 1.653,-0.785 2.055,-1.613 l 11.449,-22.899 c -5.227,-2.613 -11.582,-0.492 -14.195,4.731 l -5.465,10.386 -10.586,0 9.078,-36.285 20.461,-1.547 c 5.52,-0.414 9.785,-5.011 9.785,-10.547 l -34.672,0 c -1.011,0 -1.961,0.508 -2.519,1.348 l -5.145,7.719 -10.586,-3.012 0,-31.781 c 0,-5.664 -4.465,-10.305 -10.117,-10.57" /><path
           id="path3730"
           style="fill:#ffffff;fill-opacity:1;fill-rule:nonzero;stroke:none"
           d="m 345.281,153.67 c 0,-8.356 -6.773,-15.129 -15.117,-15.129 -8.359,0 -15.129,6.773 -15.129,15.129 0,8.359 6.77,15.117 15.129,15.117 8.344,0 15.117,-6.758 15.117,-15.117" /><path
           id="path3732"
           style="fill:#ffffff;fill-opacity:1;fill-rule:nonzero;stroke:none"
           d="m 227.035,339.885 c -2.906,0 -5.547,-1.727 -6.707,-4.395 L 208.77,308.893 c -0.817,-1.868 -1.86,-3.649 -3.086,-5.29 l -1.75,-2.332 c -1.133,-1.519 -1.746,-3.355 -1.746,-5.25 l 0,-19.039 c 0,-4.023 3.25,-7.289 7.289,-7.289 l 108.222,0 c 4.028,0 7.313,3.266 7.313,7.289 l 0,19.039 c 0,1.895 -0.625,3.731 -1.77,5.25 l -1.75,2.332 c -1.242,1.641 -2.25,3.422 -3.062,5.29 l -11.582,26.597 c -1.157,2.668 -3.801,4.395 -6.707,4.395 l -73.106,0 z m 1.77,-7.328 69.566,0 c 1.176,0 2.223,-0.684 2.688,-1.75 l 10.058,-23.102 -95.039,0 10.039,23.102 c 0.469,1.066 1.528,1.75 2.688,1.75 z m -10.539,-32.161 c 4.851,0 8.769,-3.937 8.769,-8.789 0,-4.839 -3.918,-8.769 -8.769,-8.769 -4.84,0 -8.789,3.93 -8.789,8.769 0,4.852 3.949,8.789 8.789,8.789 z m 90.644,0 c 4.852,0 8.789,-3.937 8.789,-8.789 0,-4.839 -3.937,-8.769 -8.789,-8.769 -4.836,0 -8.769,3.93 -8.769,8.769 0,4.852 3.933,8.789 8.769,8.789 z" /><path
           id="path3734"
           style="fill:#ffffff;fill-opacity:1;fill-rule:nonzero;stroke:none"
           d="m 209.484,266.764 17.543,0 0,-16.09 c 0,-2.426 -1.961,-4.383 -4.386,-4.383 l -8.77,0 c -2.426,0 -4.387,1.957 -4.387,4.383" /><path
           id="path3736"
           style="fill:#ffffff;fill-opacity:1;fill-rule:nonzero;stroke:none"
           d="m 300.145,266.764 17.554,0 0,-16.09 c 0,-2.426 -1.972,-4.383 -4.398,-4.383 l -8.758,0 c -2.426,0 -4.398,1.957 -4.398,4.383" /><path
           id="path3738"
           style="fill:#ffffff;fill-opacity:1;fill-rule:nonzero;stroke:none"
           d="m 474.164,352.217 -15.746,-10.289 0,7.144 -15.766,0 0,-17.433 -50.386,-32.95 28.347,0 0,-110.246 107.082,0 0,110.246 28.348,0 -81.879,53.528 z m 0,-9.434 44.094,-36.223 0,-108.664 -31.512,0 0,47.243 -25.184,0 0,-47.243 -31.492,0 0,108.664 44.094,36.223 z" /><path
           id="path3740"
           style="fill:#ffffff;fill-opacity:1;fill-rule:nonzero;stroke:none"
           d="m 442.641,298.674 25.223,0 0,-31.496 -25.223,0 0,31.496 z" /><path
           id="path3742"
           style="fill:#ffffff;fill-opacity:1;fill-rule:nonzero;stroke:none"
           d="m 480.445,298.674 25.203,0 0,-31.496 -25.203,0 0,31.496 z" /><path
           id="path3744"
           style="fill:#ffffff;fill-opacity:1;fill-rule:nonzero;stroke:none"
           d="m 526.785,59.119 -108.07,78.168 c -34.977,25.289 -55.692,65.84 -55.692,109.004 l 13.157,0 c 0,-38.938 18.687,-75.531 50.242,-98.352 L 526.785,74.943" /></g></g></g></svg>