<?xml version="1.0" encoding="UTF-8" standalone="no"?>
<svg
   xmlns:dc="http://purl.org/dc/elements/1.1/"
   xmlns:cc="http://creativecommons.org/ns#"
   xmlns:rdf="http://www.w3.org/1999/02/22-rdf-syntax-ns#"
   xmlns:svg="http://www.w3.org/2000/svg"
   xmlns="http://www.w3.org/2000/svg"
   viewBox="0 0 601.00134 601.00159"
   height="601.00159"
   width="601.00134"
   xml:space="preserve"
   id="svg5414"
   version="1.1"><metadata
     id="metadata5420"><rdf:RDF><cc:Work
         rdf:about=""><dc:format>image/svg+xml</dc:format><dc:type
           rdf:resource="http://purl.org/dc/dcmitype/StillImage" /><dc:title></dc:title></cc:Work></rdf:RDF></metadata><defs
     id="defs5418" /><g
     transform="matrix(1.3333333,0,0,-1.3333333,0,601.00159)"
     id="g5422"><g
       id="g5424"><path
         id="path5426"
         style="fill:#ffffff;fill-opacity:1;fill-rule:nonzero;stroke:none"
         d="m 423.375,450.376 c 27.059,0.016 27,-27.004 27,-27.004 V 27.376 c 0,0 0.059,-27.023 -27,-27 h -396 c -27.234,-0.027 -27,27 -27,27 v 395.996 c 0,0 -0.223,27.094 27,27.004 z" /><path
         id="path5428"
         style="fill:#154889;fill-opacity:1;fill-rule:nonzero;stroke:none"
         d="m 423.375,441.376 c 9.938,0 18,-8.058 18,-18 v -396 c 0,-9.949 -8.062,-18 -18,-18 h -396 c -9.941,0 -18,8.051 -18,18 v 396 c 0,9.942 8.059,18 18,18 z" /><path
         id="path5430"
         style="fill:#000000;fill-opacity:1;fill-rule:nonzero;stroke:none"
         d="m 423.375,450.751 c 13.656,0.008 20.57,-6.859 23.984,-13.703 3.414,-6.844 3.391,-13.68 3.391,-13.68 V 27.376 c 0,0 0.02,-6.836 -3.391,-13.676 C 443.945,6.857 437.031,-0.011 423.375,0.001 h -396 C 13.633,-0.014 6.715,6.857 3.324,13.7 -0.063,20.54 0,27.372 0,27.376 v 395.996 c 0,0.004 -0.059,6.852 3.332,13.7 3.391,6.851 10.309,13.722 24.043,13.679 z m 0,-0.375 h -396 c -27.223,0.09 -27,-27.004 -27,-27.004 V 27.376 c 0,0 -0.234,-27.027 27,-27 h 396 c 27.059,-0.023 27,27 27,27 v 395.996 c 0,0 0.059,27.02 -27,27.004 z" /><path
         id="path5432"
         style="fill:#ffffff;fill-opacity:1;fill-rule:nonzero;stroke:none"
         d="M 413.27,71.661 H 37.48 l 187.887,325.434" /><path
         id="path5434"
         style="fill:#000000;fill-opacity:1;fill-rule:nonzero;stroke:none"
         d="m 213.441,320.38 c 0,-9.641 7.829,-17.469 17.469,-17.469 9.645,0 17.461,7.828 17.461,17.469 0,9.645 -7.816,17.461 -17.461,17.461 -9.64,0 -17.469,-7.816 -17.469,-17.461 z m -8.734,-51.941 v -50.645 h 34.93 v 41.879 l 22.679,-34.926 c 4.602,-7.078 14.063,-9.09 21.137,-4.5 l -42.965,66.184 c -6.566,10.109 -20.093,12.984 -30.203,6.418 -0.742,-0.488 -1.453,-1.024 -2.144,-1.59 l -29.305,-24.59 c -2.965,-2.488 -4.68,-6.168 -4.68,-10.031 v -21.387 c 0,-8.437 6.848,-15.277 15.278,-15.277 v 35.644 z m 17.473,-63.809 41.226,-75.941 c 4.602,-8.461 15.199,-11.61 23.672,-6.996 l -46.387,85.425 c -0.691,1.27 -1.054,2.704 -1.054,4.157 v 2.16 h -34.93 v -2.16 c 0,-1.453 -0.348,-2.887 -1.055,-4.157 l -34.675,-63.867 c -4.59,-8.472 -1.454,-19.07 7.019,-23.683 z m -105.407,-117 28.204,63.879 H 116.602 L 78.438,87.63 Z m 63.879,0 8.325,45.817 -11.051,-20.375 -4.215,2.285 c -10.801,5.871 -14.809,19.375 -8.938,30.164 l 3.247,5.988 h -4.122 L 142.316,87.63 Z m 63.879,0 -4.976,63.879 H 211.184 L 206.195,87.63 Z m 63.891,0 -21.57,63.879 h -10.508 l 17.23,-31.746 -4.203,-2.285 c -8.152,-4.43 -18.207,-3.34 -25.215,2.75 l 5.93,-32.598 z m 63.875,0 -38.16,63.879 H 305.762 L 333.977,87.63" /></g></g></svg>