<?xml version="1.0" encoding="UTF-8" standalone="no"?>
<svg
   xmlns:dc="http://purl.org/dc/elements/1.1/"
   xmlns:cc="http://creativecommons.org/ns#"
   xmlns:rdf="http://www.w3.org/1999/02/22-rdf-syntax-ns#"
   xmlns:svg="http://www.w3.org/2000/svg"
   xmlns="http://www.w3.org/2000/svg"
   viewBox="0 0 421.02505 630.72418"
   height="630.72418"
   width="421.02505"
   xml:space="preserve"
   id="svg5518"
   version="1.1"><metadata
     id="metadata5524"><rdf:RDF><cc:Work
         rdf:about=""><dc:format>image/svg+xml</dc:format><dc:type
           rdf:resource="http://purl.org/dc/dcmitype/StillImage" /><dc:title></dc:title></cc:Work></rdf:RDF></metadata><defs
     id="defs5522" /><g
     transform="matrix(1.3333333,0,0,-1.3333333,0,630.7242)"
     id="g5526"><g
       id="g5528"><path
         id="path5530"
         style="fill:#ffffff;fill-opacity:1;fill-rule:evenodd;stroke:none"
         d="M 21.594,0.375 H 294.59 c 20.906,0 20.805,17.051 20.805,17.051 v 438.41 c 0,0 0.136,16.828 -17.977,16.828 H 18.945 c 0,0 -18.531,0.309 -18.57,-18.508 V 19.11 C 0.375,0.328 21.594,0.375 21.594,0.375 Z" /><path
         id="path5532"
         style="fill:#154889;fill-opacity:1;fill-rule:evenodd;stroke:none"
         d="m 18.422,8.723 h 279.019 c 0,0 10.153,0.027 10.153,10.269 V 454.86 c 0,0 -0.008,10.058 -11.235,10.058 H 19.504 c 0,0 -11.152,0 -11.152,-10.055 V 18.352 C 8.391,8.621 18.422,8.723 18.422,8.723 Z" /><path
         id="path5534"
         style="fill:#000000;fill-opacity:1;fill-rule:evenodd;stroke:none"
         d="m 18.945,473.043 c -0.007,0 -4.711,0.078 -9.433,-2.238 C 4.781,468.485 0.02,463.688 0,454.16 V 19.11 C 0,9.582 5.441,4.731 10.832,2.356 16.223,-0.019 21.594,0 21.594,0 H 294.59 c 10.555,0 15.918,4.348 18.562,8.707 2.645,4.356 2.618,8.715 2.618,8.715 v 438.414 c 0,0.004 0.035,4.293 -2.243,8.594 -2.277,4.297 -6.937,8.613 -16.109,8.613 z m 0,-0.379 h 278.473 c 18.113,0 17.977,-16.828 17.977,-16.828 V 17.422 c 0,0 0.101,-17.047 -20.805,-17.047 H 21.594 c 0,0 -21.219,-0.047 -21.219,18.731 v 435.05 c 0.039,18.817 18.57,18.508 18.57,18.508 z" /><path
         id="path5536"
         style="fill:#ffffff;fill-opacity:1;fill-rule:nonzero;stroke:none"
         d="m 51.313,422.426 h 213.32 V 209.11 H 51.313 Z" /><path
         id="path5538"
         style="fill:#ffffff;fill-opacity:1;fill-rule:evenodd;stroke:none"
         d="m 64.133,411.852 -0.035,-191.848 188.121,0.035 v 191.883 z" /><path
         id="path5540"
         style="fill:#000000;fill-opacity:1;fill-rule:nonzero;stroke:none"
         d="m 128.047,394.5 c 0,-3.09 -2.504,-5.594 -5.594,-5.594 -3.086,0 -5.59,2.504 -5.59,5.594 0,3.086 2.504,5.59 5.59,5.59 3.09,0 5.594,-2.504 5.594,-5.59 z" /><path
         id="path5542"
         style="fill:#000000;fill-opacity:1;fill-rule:evenodd;stroke:none"
         d="m 91.176,342.66 -1.078,24.582 -6.836,-5.515 c -1.496,0.117 -3.074,0.121 -3.883,1.179 l 10.68,10.434 c 2.421,-0.68 4.714,-0.48 6.875,0.621 l 7.675,-1.562 3.715,-7.672 c -1.148,-0.219 -1.761,-1.293 -4.316,0.718 l -1.918,3.836 -3.117,0.122 2.757,-11.036 7.196,-0.836 c 1.914,-0.234 2.035,-1.949 2.519,-3.359 l -11.632,-0.121 -2.04,2.879 -3.359,-0.961 0.121,-11.031 c -1.004,-1.563 -2.18,-1.934 -3.359,-2.278 z" /><path
         id="path5544"
         style="fill:#000000;fill-opacity:1;fill-rule:evenodd;stroke:none"
         d="m 101.863,377.332 c 1.508,0.469 16.774,9.895 16.774,9.895 3.562,-1.996 6.562,-0.535 9.515,1.222 l 9.516,-3.015 4.992,-9.797 c -1.957,-1.035 -3.875,-0.774 -5.746,0.941 l -2.543,5.086 -5.277,1.793 1.32,-12.25 4.238,-10.269 9.516,-4.149 c 2.367,-2.656 1.48,-3.98 1.227,-5.746 l -14.04,5.652 c -0.734,0.141 -1.007,0.973 -1.414,1.602 l -4.429,10.367 -4.711,-22.992 -5.274,-2.824 4.52,26.191 -1.223,12.438 -11.777,-6.5 c -3.043,-0.473 -4.141,0.914 -5.184,2.355 z" /><path
         id="path5546"
         style="fill:#000000;fill-opacity:1;fill-rule:nonzero;stroke:none"
         d="m 97.828,379.856 c 0,-2.719 -2.203,-4.926 -4.926,-4.926 -2.718,0 -4.925,2.207 -4.925,4.926 0,2.718 2.207,4.925 4.925,4.925 2.723,0 4.926,-2.207 4.926,-4.925 z" /><path
         id="path5548"
         style="fill:#ffffff;fill-opacity:1;fill-rule:nonzero;stroke:none"
         d="m 48.758,128.453 -13.653,41.36 h 6.614 l 9.426,-31.481 h 0.113 l 9.422,31.481 h 6.613 l -13.652,-41.36 z m 45.305,12.492 h -18.34 c 0,-2.421 0.66,-4.238 1.972,-5.453 1.317,-1.211 2.996,-1.816 5.039,-1.816 2.442,0 4.598,0.949 6.473,2.84 l 4.285,-3.66 c -1.457,-1.703 -3.097,-2.922 -4.922,-3.649 -1.828,-0.73 -3.734,-1.094 -5.722,-1.094 -3.028,0 -5.961,0.981 -8.797,2.938 -2.84,1.961 -4.258,5.965 -4.258,12.023 0,5.731 1.309,9.696 3.93,11.891 2.621,2.195 5.359,3.293 8.218,3.293 3.235,0 6.063,-1.121 8.485,-3.363 2.426,-2.242 3.637,-5.266 3.637,-9.067 z m -18.34,4.883 h 12.433 c -0.093,2.211 -0.718,3.907 -1.871,5.078 -1.156,1.176 -2.605,1.762 -4.344,1.762 -1.761,0 -3.222,-0.586 -4.386,-1.762 -1.164,-1.171 -1.774,-2.867 -1.832,-5.078 z m 24.582,-17.375 v 29.465 h 5.933 v -3.152 h 0.114 c 1.836,2.328 4.39,3.492 7.664,3.492 2.156,0 4.211,-0.758 6.16,-2.27 l -4.285,-5.109 c -1.289,0.965 -2.594,1.449 -3.918,1.449 -1.457,0 -2.778,-0.488 -3.961,-1.465 -1.184,-0.972 -1.774,-2.539 -1.774,-4.695 v -17.715 z m 22.593,0 v 41.36 h 5.934 v -25.746 h 0.113 l 11.328,13.851 h 7.094 l -10.16,-11.523 11.551,-17.942 h -7.438 l -7.832,13.77 -4.656,-5.309 v -8.461 z m 53.024,12.492 h -18.336 c 0,-2.421 0.656,-4.238 1.973,-5.453 1.316,-1.211 2.996,-1.816 5.039,-1.816 2.441,0 4.597,0.949 6.472,2.84 l 4.285,-3.66 c -1.457,-1.703 -3.097,-2.922 -4.925,-3.649 -1.825,-0.73 -3.731,-1.094 -5.719,-1.094 -3.027,0 -5.961,0.981 -8.801,2.938 -2.836,1.961 -4.258,5.965 -4.258,12.023 0,5.731 1.313,9.696 3.934,11.891 2.621,2.195 5.359,3.293 8.215,3.293 3.238,0 6.066,-1.121 8.488,-3.363 2.422,-2.242 3.633,-5.266 3.633,-9.067 z m -18.336,4.883 h 12.434 c -0.094,2.211 -0.719,3.907 -1.875,5.078 -1.153,1.176 -2.602,1.762 -4.344,1.762 -1.758,0 -3.219,-0.586 -4.383,-1.762 -1.164,-1.171 -1.773,-2.867 -1.832,-5.078 z m 24.582,-17.375 v 41.36 h 5.934 v -15.047 h 0.113 c 1.836,2.328 4.39,3.492 7.664,3.492 2.289,0 4.496,-0.871 6.625,-2.609 2.129,-1.743 3.195,-4.278 3.195,-7.61 v -19.586 h -5.933 v 17.543 c 0,1.989 -0.555,3.539 -1.661,4.657 -1.105,1.117 -2.484,1.675 -4.128,1.675 -1.704,0 -3.11,-0.558 -4.215,-1.675 -1.11,-1.118 -1.66,-2.668 -1.66,-4.657 v -17.543 z m 31.223,0 v 29.465 h 5.933 v -3.152 h 0.114 c 1.835,2.328 4.39,3.492 7.664,3.492 2.156,0 4.211,-0.758 6.16,-2.27 l -4.289,-5.109 c -1.285,0.965 -2.59,1.449 -3.914,1.449 -1.457,0 -2.778,-0.488 -3.961,-1.465 -1.184,-0.972 -1.774,-2.539 -1.774,-4.695 v -17.715 z m 19.332,4.91 4.144,4.09 c 2.571,-2.515 5.664,-3.777 9.281,-3.777 1.684,0 3.075,0.32 4.172,0.953 1.098,0.633 1.645,1.574 1.645,2.824 0,1.723 -1.199,2.688 -3.602,2.895 l -5.226,0.484 c -2.438,0.188 -4.465,0.992 -6.074,2.41 -1.606,1.422 -2.411,3.399 -2.411,5.934 0,2.988 1.051,5.25 3.149,6.785 2.101,1.531 4.715,2.297 7.836,2.297 2.574,0 4.777,-0.363 6.613,-1.094 1.836,-0.726 3.48,-1.695 4.938,-2.906 l -3.661,-4.316 c -1.172,0.796 -2.382,1.449 -3.632,1.961 -1.25,0.507 -2.668,0.765 -4.258,0.765 -1.895,0 -3.207,-0.336 -3.946,-1.008 -0.738,-0.672 -1.109,-1.519 -1.109,-2.543 0,-0.64 0.277,-1.238 0.824,-1.785 0.551,-0.551 1.571,-0.883 3.067,-0.996 l 4.882,-0.34 c 3.047,-0.207 5.231,-1.148 6.555,-2.824 1.328,-1.676 1.988,-3.676 1.988,-6.004 0,-2.894 -1.183,-5.129 -3.546,-6.699 -2.368,-1.57 -5.254,-2.356 -8.661,-2.356 -4.898,0 -9.222,1.75 -12.968,5.25 z m 30.425,8.207 v 5.93 h 17.516 v -5.93 z" /><path
         id="path5550"
         style="fill:#ffffff;fill-opacity:1;fill-rule:nonzero;stroke:none"
         d="m 88.242,64.762 v 41.355 h 5.934 V 91.074 h 0.113 c 1.836,2.329 4.391,3.493 7.664,3.493 2.289,0 4.5,-0.872 6.629,-2.614 2.129,-1.738 3.191,-4.273 3.191,-7.605 V 64.762 h -5.933 v 17.543 c 0,1.988 -0.551,3.539 -1.66,4.656 -1.106,1.113 -2.485,1.672 -4.129,1.672 -1.703,0 -3.11,-0.559 -4.215,-1.672 -1.106,-1.117 -1.66,-2.668 -1.66,-4.656 V 64.762 Z m 54.047,12.488 h -18.34 c 0,-2.422 0.66,-4.238 1.973,-5.449 1.316,-1.211 2.996,-1.816 5.039,-1.816 2.441,0 4.598,0.945 6.473,2.839 l 4.285,-3.664 c -1.457,-1.703 -3.098,-2.918 -4.922,-3.644 -1.828,-0.731 -3.734,-1.094 -5.723,-1.094 -3.027,0 -5.961,0.981 -8.797,2.938 -2.839,1.957 -4.257,5.964 -4.257,12.019 0,5.734 1.308,9.699 3.929,11.895 2.621,2.195 5.36,3.293 8.219,3.293 3.234,0 6.062,-1.122 8.488,-3.364 2.422,-2.242 3.633,-5.265 3.633,-9.07 z m -18.34,4.883 h 12.434 c -0.094,2.215 -0.719,3.91 -1.871,5.082 -1.157,1.172 -2.606,1.758 -4.344,1.758 -1.762,0 -3.223,-0.586 -4.387,-1.758 -1.164,-1.172 -1.773,-2.867 -1.832,-5.082 z m 24.582,-10.246 v 34.23 h 5.934 V 72.371 c 0,-1.363 0.738,-2.047 2.215,-2.047 h 2.015 v -5.562 h -2.613 c -2.156,0 -3.953,0.527 -5.391,1.574 -1.441,1.051 -2.16,2.902 -2.16,5.551 z m 15.926,-7.125 v 24.922 h -2.98 v 4.543 h 2.98 v 3.886 c 0,2.747 0.758,4.766 2.27,6.063 1.515,1.297 3.425,1.941 5.734,1.941 h 3.832 v -5.562 h -3.348 c -1.722,0 -2.586,-0.813 -2.586,-2.442 v -3.886 h 5.934 v -4.543 h -5.934 V 64.762 Z m 38.008,12.488 h -18.336 c 0,-2.422 0.656,-4.238 1.973,-5.449 1.312,-1.211 2.992,-1.816 5.035,-1.816 2.441,0 4.601,0.945 6.472,2.839 l 4.286,-3.664 c -1.457,-1.703 -3.098,-2.918 -4.922,-3.644 -1.828,-0.731 -3.735,-1.094 -5.723,-1.094 -3.027,0 -5.961,0.981 -8.797,2.938 -2.84,1.957 -4.258,5.964 -4.258,12.019 0,5.734 1.309,9.699 3.93,11.895 2.621,2.195 5.359,3.293 8.219,3.293 3.234,0 6.066,-1.122 8.488,-3.364 2.422,-2.242 3.633,-5.265 3.633,-9.07 z m -18.336,4.883 h 12.43 c -0.094,2.215 -0.719,3.91 -1.871,5.082 -1.157,1.172 -2.602,1.758 -4.344,1.758 -1.762,0 -3.223,-0.586 -4.387,-1.758 -1.164,-1.172 -1.773,-2.867 -1.828,-5.082 z m 24.578,-17.371 v 29.465 h 5.934 v -3.153 h 0.113 c 1.836,2.329 4.391,3.493 7.664,3.493 2.156,0 4.211,-0.758 6.16,-2.27 l -4.285,-5.109 c -1.289,0.965 -2.594,1.445 -3.918,1.445 -1.457,0 -2.777,-0.484 -3.961,-1.461 -1.184,-0.973 -1.773,-2.539 -1.773,-4.699 V 64.762 Z" /><path
         id="path5552"
         style="fill:#000000;fill-opacity:1;fill-rule:evenodd;stroke:none"
         d="m 176.977,354.031 -37.196,-28.363 c -0.769,-0.695 -1.031,-1.68 -0.941,-2.742 h -20.492 l -0.586,-4.207 h 22.961 c 1.8,-2.234 4.496,-3.66 6.406,-2.008 l 28.633,21.414 -0.082,-35.461 25.41,0.086 -0.168,35.27 26.375,-20.66 c 5.078,-3.411 14.125,3.757 8.058,8.855 l -36.421,27.816 c -5.895,-4.437 -15.059,-4.601 -21.957,0 z" /><path
         id="path5554"
         style="fill:#000000;fill-opacity:1;fill-rule:evenodd;stroke:none"
         d="m 175.695,298.371 0.09,-1.711 -34.387,-64.707 c 9.29,-3.703 13.172,-2.187 16.856,3.18 l 29.469,55.797 30.699,-55.871 c 4.183,-5.317 9.305,-7.645 16.25,-3.117 l -33.68,64.589 -0.035,1.778 z" /><g
         transform="matrix(1,0,0,-1,0,473.04315)"
         id="g5556"><path
           id="path5558"
           style="fill:none;stroke:#000000;stroke-width:4.91692686;stroke-linecap:round;stroke-linejoin:miter;stroke-miterlimit:4;stroke-dasharray:none;stroke-opacity:1"
           d="m 118.098,152.074 c 0,5.508 -4.465,9.973 -9.977,9.973 -5.508,0 -9.973,-4.465 -9.973,-9.973 0,-5.511 4.465,-9.976 9.973,-9.976 5.512,0 9.977,4.465 9.977,9.976 z" /></g><path
         id="path5560"
         style="fill:#000000;fill-opacity:1;fill-rule:nonzero;stroke:none"
         d="m 201.426,369.758 c 0,-7.184 -5.824,-13.012 -13.012,-13.012 -7.184,0 -13.012,5.828 -13.012,13.012 0,7.187 5.828,13.012 13.012,13.012 7.188,0 13.012,-5.825 13.012,-13.012 z" /></g></g></svg>