<?xml version="1.0" encoding="UTF-8" standalone="no"?>
<svg
   xmlns:dc="http://purl.org/dc/elements/1.1/"
   xmlns:cc="http://creativecommons.org/ns#"
   xmlns:rdf="http://www.w3.org/1999/02/22-rdf-syntax-ns#"
   xmlns:svg="http://www.w3.org/2000/svg"
   xmlns="http://www.w3.org/2000/svg"
   viewBox="0 0 421.0267 630.72443"
   height="630.72443"
   width="421.0267"
   xml:space="preserve"
   id="svg5672"
   version="1.1"><metadata
     id="metadata5678"><rdf:RDF><cc:Work
         rdf:about=""><dc:format>image/svg+xml</dc:format><dc:type
           rdf:resource="http://purl.org/dc/dcmitype/StillImage" /><dc:title></dc:title></cc:Work></rdf:RDF></metadata><defs
     id="defs5676" /><g
     transform="matrix(1.3333333,0,0,-1.3333333,0,630.72445)"
     id="g5680"><g
       id="g5682"><path
         id="path5684"
         style="fill:#ffffff;fill-opacity:1;fill-rule:evenodd;stroke:none"
         d="M 21.594,0.375 H 294.59 c 20.906,0 20.805,17.051 20.805,17.051 v 438.41 c 0,0 0.136,16.828 -17.977,16.828 H 18.945 c 0,0 -18.531,0.309 -18.57,-18.507 V 19.11 C 0.375,0.328 21.594,0.375 21.594,0.375 Z" /><path
         id="path5686"
         style="fill:#154889;fill-opacity:1;fill-rule:evenodd;stroke:none"
         d="m 18.422,8.723 h 279.019 c 0,0 10.153,0.027 10.153,10.27 V 454.86 c 0,0 -0.008,10.058 -11.235,10.058 H 19.504 c 0,0 -11.152,0 -11.152,-10.054 V 18.352 C 8.391,8.621 18.422,8.723 18.422,8.723 Z" /><path
         id="path5688"
         style="fill:#000000;fill-opacity:1;fill-rule:evenodd;stroke:none"
         d="m 18.945,473.043 c -0.007,0 -4.711,0.078 -9.433,-2.238 C 4.781,468.485 0.02,463.688 0,454.161 V 19.11 C 0,9.582 5.441,4.731 10.832,2.356 16.223,-0.019 21.594,0 21.594,0 H 294.59 c 10.555,0 15.918,4.348 18.562,8.707 2.645,4.356 2.618,8.715 2.618,8.715 v 438.414 c 0,0.004 0.035,4.293 -2.243,8.594 -2.277,4.297 -6.937,8.613 -16.109,8.613 z m 0,-0.379 h 278.473 c 18.113,0 17.977,-16.828 17.977,-16.828 V 17.422 c 0,0 0.101,-17.047 -20.805,-17.047 H 21.594 c 0,0 -21.219,-0.047 -21.219,18.731 v 435.051 c 0.039,18.816 18.57,18.507 18.57,18.507 z" /><path
         id="path5690"
         style="fill:#ffffff;fill-opacity:1;fill-rule:evenodd;stroke:none"
         d="M 53.969,418.61 V 265.614 h 96.164 v -34.368 h -66 V 181.43 H 137.16 V 6.571 h 41.59 l -0.066,174.859 h 53.027 l -0.066,49.816 h -66 v 34.368 h 96.156 V 418.61 Z" /><path
         id="path5692"
         style="fill:#cc0000;fill-opacity:1;fill-rule:evenodd;stroke:none"
         d="M 88.68,226.7 H 227.098 V 186.442 H 88.68 Z" /><path
         id="path5694"
         style="fill:#000000;fill-opacity:1;fill-rule:nonzero;stroke:none"
         d="m 102.344,390.379 c 0,-5.152 -4.176,-9.332 -9.332,-9.332 -5.153,0 -9.332,4.18 -9.332,9.332 0,5.153 4.179,9.332 9.332,9.332 5.156,0 9.332,-4.179 9.332,-9.332 z" /><path
         id="path5696"
         style="fill:#000000;fill-opacity:1;fill-rule:nonzero;stroke:none"
         d="m 65.352,336.723 c 25.277,39.441 22.878,40.543 32.328,40.824 5.496,-0.164 5.664,-1.664 14.996,-8.996 11.496,-8.449 10.664,-8.551 10.496,-17.832 -0.047,-11.164 0.719,-10.328 -8.164,-14.496 v 18.832 l -7.832,6.996 v -26.496 l -18.66,0.168 -0.168,20.996 C 73.016,333.059 74.016,334.391 65.352,336.723 Z" /><path
         id="path5698"
         style="fill:#000000;fill-opacity:1;fill-rule:nonzero;stroke:none"
         d="m 88.848,332.891 h 18.164 c 0,-4.168 1.332,-3.832 10.996,-21.996 10.164,-18.715 10.332,-17.445 4.5,-28.16 L 97.344,327.891 C 73.516,281.786 76.516,283.184 63.352,284.067 l 13.164,24.66 c 11.281,20.383 11.882,20.449 12.332,24.164 z" /><path
         id="path5700"
         style="fill:#000000;fill-opacity:1;fill-rule:nonzero;stroke:none"
         d="m 188.035,354.578 c -16.367,-0.16 -13.59,1.692 -22.39,-26.605 0,-0.004 0,-0.004 -0.004,-0.008 -1.325,0.246 -2.688,0.379 -4.082,0.379 -12.309,0 -22.344,-10.031 -22.344,-22.34 0,-12.312 10.035,-22.343 22.344,-22.343 12.312,0 22.343,10.031 22.343,22.343 0,9.199 -5.605,17.125 -13.574,20.543 0.531,1.676 1,3.168 1.625,5.106 32.922,-34.723 20.563,-29.094 38.277,-29.797 0.161,0 0.266,0 0.426,0 2.094,-10.156 11.117,-17.824 21.879,-17.824 12.309,0 22.344,10.031 22.344,22.339 0,12.313 -10.035,22.344 -22.344,22.344 -2.492,0 -4.887,-0.418 -7.125,-1.176 -1.887,4.18 -3.59,7.942 -6.281,13.926 l 1.531,4.215 5.274,0.094 -0.2,4.402 h -19.613 c -1.73,-2.371 0.703,-2.359 9.481,-4.305 l -1.532,-4.308 -39.144,-0.098 c 2.629,9.211 1.148,8.637 13.012,8.617 z m 24.059,-17.765 -11.071,-29.735 -27.23,29.672 z m 4.617,-1.828 4.281,-9.492 c -6.445,-3.911 -10.769,-10.985 -10.797,-19.047 l -4.347,0.011 z m 15.824,-11.207 c 9.641,0 17.406,-7.766 17.406,-17.407 0,-9.64 -7.765,-17.402 -17.406,-17.402 -8.082,0 -14.84,5.453 -16.816,12.899 17.929,-0.016 19.719,-0.922 19.976,2.183 -0.027,0.902 -0.601,2.051 -8.25,18.973 1.61,0.488 3.317,0.754 5.09,0.754 z m -70.976,-0.371 c 0.879,0 1.738,-0.067 2.578,-0.188 -5.223,-16.469 -4.891,-15.539 -4.922,-16.969 -0.027,-1.234 0.961,-2.211 2.219,-2.297 2.238,0.235 1.765,-0.05 7.394,17.872 5.992,-2.743 10.137,-8.778 10.137,-15.821 0,-9.644 -7.766,-17.406 -17.406,-17.406 -9.641,0 -17.407,7.762 -17.407,17.406 0,9.641 7.766,17.403 17.407,17.403 z m 61.476,-2.438 6.574,-14.57 -14.476,0.035 c 0.023,6.105 3.156,11.445 7.902,14.535 z" /></g></g></svg>