<?xml version="1.0" encoding="UTF-8" standalone="no"?>
<svg
   xmlns:dc="http://purl.org/dc/elements/1.1/"
   xmlns:cc="http://creativecommons.org/ns#"
   xmlns:rdf="http://www.w3.org/1999/02/22-rdf-syntax-ns#"
   xmlns:svg="http://www.w3.org/2000/svg"
   xmlns="http://www.w3.org/2000/svg"
   viewBox="0 0 421.0267 630.72443"
   height="630.72443"
   width="421.0267"
   xml:space="preserve"
   id="svg5733"
   version="1.1"><metadata
     id="metadata5739"><rdf:RDF><cc:Work
         rdf:about=""><dc:format>image/svg+xml</dc:format><dc:type
           rdf:resource="http://purl.org/dc/dcmitype/StillImage" /><dc:title></dc:title></cc:Work></rdf:RDF></metadata><defs
     id="defs5737" /><g
     transform="matrix(1.3333333,0,0,-1.3333333,0,630.72445)"
     id="g5741"><g
       id="g5743"><path
         id="path5745"
         style="fill:#ffffff;fill-opacity:1;fill-rule:evenodd;stroke:none"
         d="M 21.594,0.375 H 294.59 c 20.906,0 20.805,17.051 20.805,17.051 v 438.41 c 0,0 0.136,16.828 -17.977,16.828 H 18.945 c 0,0 -18.531,0.309 -18.57,-18.507 V 19.11 C 0.375,0.328 21.594,0.375 21.594,0.375 Z" /><path
         id="path5747"
         style="fill:#154889;fill-opacity:1;fill-rule:evenodd;stroke:none"
         d="m 18.422,8.723 h 279.019 c 0,0 10.153,0.027 10.153,10.27 V 454.86 c 0,0 -0.008,10.058 -11.235,10.058 H 19.504 c 0,0 -11.152,0 -11.152,-10.054 V 18.352 C 8.391,8.621 18.422,8.723 18.422,8.723 Z" /><path
         id="path5749"
         style="fill:#000000;fill-opacity:1;fill-rule:evenodd;stroke:none"
         d="m 18.945,473.043 c -0.007,0 -4.711,0.078 -9.433,-2.238 C 4.781,468.485 0.02,463.688 0,454.161 V 19.11 C 0,9.582 5.441,4.731 10.832,2.356 16.223,-0.019 21.594,0 21.594,0 H 294.59 c 10.555,0 15.918,4.348 18.562,8.707 2.645,4.356 2.618,8.715 2.618,8.715 v 438.414 c 0,0.004 0.035,4.293 -2.243,8.594 -2.277,4.297 -6.937,8.613 -16.109,8.613 z m 0,-0.379 h 278.473 c 18.113,0 17.977,-16.828 17.977,-16.828 V 17.422 c 0,0 0.101,-17.047 -20.805,-17.047 H 21.594 c 0,0 -21.219,-0.047 -21.219,18.731 v 435.051 c 0.039,18.816 18.57,18.507 18.57,18.507 z" /><path
         id="path5751"
         style="fill:#ffffff;fill-opacity:1;fill-rule:evenodd;stroke:none"
         d="M 53.969,418.61 V 265.614 h 96.164 v -34.368 h -66 V 181.43 H 137.16 V 6.571 h 41.59 l -0.066,174.859 h 53.027 l -0.066,49.816 h -66 v 34.368 h 96.156 V 418.61 Z" /><path
         id="path5753"
         style="fill:#cc0000;fill-opacity:1;fill-rule:evenodd;stroke:none"
         d="M 88.68,226.7 H 227.098 V 186.442 H 88.68 Z" /><path
         id="path5755"
         style="fill:#000000;fill-opacity:1;fill-rule:nonzero;stroke:none"
         d="m 165.359,390.379 c 0,-5.152 -4.175,-9.332 -9.332,-9.332 -5.152,0 -9.328,4.18 -9.328,9.332 0,5.153 4.176,9.332 9.328,9.332 5.157,0 9.332,-4.179 9.332,-9.332 z" /><path
         id="path5757"
         style="fill:#000000;fill-opacity:1;fill-rule:nonzero;stroke:none"
         d="m 128.367,336.723 c 25.278,39.441 22.879,40.543 32.328,40.824 5.5,-0.164 5.664,-1.664 14.996,-8.996 11.5,-8.449 10.664,-8.551 10.5,-17.832 -0.05,-11.164 0.715,-10.328 -8.168,-14.496 v 18.832 l -7.832,6.996 v -26.496 l -18.66,0.168 -0.168,20.996 c -15.332,-23.66 -14.332,-22.328 -22.996,-19.996 z" /><path
         id="path5759"
         style="fill:#000000;fill-opacity:1;fill-rule:nonzero;stroke:none"
         d="m 151.863,332.891 h 18.164 c 0,-4.168 1.332,-3.832 10.996,-21.996 10.165,-18.715 10.332,-17.445 4.5,-28.16 l -25.16,45.156 c -23.832,-46.105 -20.832,-44.707 -33.996,-43.824 l 13.164,24.66 c 11.282,20.383 11.883,20.449 12.332,24.164 z" /></g></g></svg>