<?xml version="1.0" encoding="UTF-8" standalone="no"?>
<svg
   xmlns:dc="http://purl.org/dc/elements/1.1/"
   xmlns:cc="http://creativecommons.org/ns#"
   xmlns:rdf="http://www.w3.org/1999/02/22-rdf-syntax-ns#"
   xmlns:svg="http://www.w3.org/2000/svg"
   xmlns="http://www.w3.org/2000/svg"
   viewBox="0 0 421.0267 630.72443"
   height="630.72443"
   width="421.0267"
   xml:space="preserve"
   id="svg8681"
   version="1.1"><metadata
     id="metadata8687"><rdf:RDF><cc:Work
         rdf:about=""><dc:format>image/svg+xml</dc:format><dc:type
           rdf:resource="http://purl.org/dc/dcmitype/StillImage" /><dc:title></dc:title></cc:Work></rdf:RDF></metadata><defs
     id="defs8685" /><g
     transform="matrix(1.3333333,0,0,-1.3333333,0,630.72445)"
     id="g8689"><g
       id="g8691"><path
         id="path8693"
         style="fill:#ffffff;fill-opacity:1;fill-rule:evenodd;stroke:none"
         d="M 21.594,0.375 H 294.59 c 20.906,0 20.805,17.051 20.805,17.051 v 438.41 c 0,0 0.136,16.828 -17.977,16.828 H 18.945 c 0,0 -18.531,0.309 -18.57,-18.507 V 19.11 C 0.375,0.328 21.594,0.375 21.594,0.375 Z" /><path
         id="path8695"
         style="fill:#154889;fill-opacity:1;fill-rule:evenodd;stroke:none"
         d="m 18.422,8.723 h 279.019 c 0,0 10.153,0.027 10.153,10.27 V 454.86 c 0,0 -0.008,10.058 -11.235,10.058 H 19.504 c 0,0 -11.152,0 -11.152,-10.054 V 18.352 C 8.391,8.621 18.422,8.723 18.422,8.723 Z" /><path
         id="path8697"
         style="fill:#000000;fill-opacity:1;fill-rule:evenodd;stroke:none"
         d="m 18.945,473.043 c -0.007,0 -4.711,0.078 -9.433,-2.238 C 4.781,468.485 0.02,463.688 0,454.161 V 19.11 C 0,9.582 5.441,4.731 10.832,2.356 16.223,-0.019 21.594,0 21.594,0 H 294.59 c 10.555,0 15.918,4.348 18.562,8.707 2.645,4.356 2.618,8.715 2.618,8.715 v 438.414 c 0,0.004 0.035,4.293 -2.243,8.594 -2.277,4.297 -6.937,8.613 -16.109,8.613 z m 0,-0.379 h 278.473 c 18.113,0 17.977,-16.828 17.977,-16.828 V 17.422 c 0,0 0.101,-17.047 -20.805,-17.047 H 21.594 c 0,0 -21.219,-0.047 -21.219,18.731 v 435.051 c 0.039,18.816 18.57,18.507 18.57,18.507 z" /><path
         id="path8699"
         style="fill:#ffffff;fill-opacity:1;fill-rule:evenodd;stroke:none"
         d="M 53.969,418.61 V 265.614 h 96.164 v -34.368 h -66 V 181.43 H 137.16 V 6.571 h 41.59 l -0.066,174.859 h 53.027 l -0.066,49.816 h -66 v 34.368 h 96.156 V 418.61 Z" /><path
         id="path8701"
         style="fill:#cc0000;fill-opacity:1;fill-rule:evenodd;stroke:none"
         d="M 88.68,226.7 H 227.098 V 186.442 H 88.68 Z" /><path
         id="path8703"
         style="fill:#000000;fill-opacity:1;fill-rule:nonzero;stroke:none"
         d="m 212.727,298.118 c -13.036,-3.364 -26.332,4.476 -29.696,17.511 h 25.125 c 0.43,0 0.848,0.09 1.239,0.262 1.539,0.684 2.23,2.484 1.539,4.023 l -11.243,25.164 c 0.282,0.09 0.563,0.165 0.848,0.239 13.027,3.367 26.324,-4.469 29.695,-17.504 3.364,-13.035 -4.476,-26.332 -17.507,-29.695 z m -18.622,44.511 9.348,-20.914 h -21.199 c 0,8.571 4.508,16.512 11.851,20.914 z m -17.941,-20.914 h -6.094 l 15.235,40.625 6.312,-14.117 c -9.551,-5.406 -15.453,-15.531 -15.453,-26.508 z m -12.48,0.328 -38.153,42.325 h 54.024 z m -32.348,-10.386 c -5.555,-12.266 -19.996,-17.692 -32.262,-12.141 -12.258,5.559 -17.691,20.004 -12.133,32.262 4.594,10.136 15.477,15.875 26.438,13.937 l -7.149,-23.094 c -0.503,-1.613 0.399,-3.316 2.008,-3.816 1.606,-0.496 3.313,0.406 3.809,2.008 l 7.156,23.101 c 12.254,-5.554 17.692,-20 12.133,-32.257 z m 104.262,19.504 c -5.215,16 -22.414,24.738 -38.41,19.523 l -8.84,19.777 2.289,6.098 h 6.855 v 6.086 h -25.894 c -0.707,0 -1.321,-0.477 -1.485,-1.164 -0.199,-0.82 0.309,-1.641 1.129,-1.836 l 12.883,-3.09 -2.281,-6.094 h -54.426 l 2.445,7.895 c 0.793,2.555 3.149,4.289 5.821,4.289 h 10.015 v 6.098 h -10.015 c -5.344,0 -10.063,-3.477 -11.641,-8.582 l -8.848,-28.59 c -14.203,2.886 -28.468,-4.637 -34.113,-17.981 -6.559,-15.492 0.691,-33.371 16.184,-39.929 15.496,-6.559 33.375,0.687 39.933,16.179 6.555,15.496 -0.687,33.375 -16.187,39.934 l 2.422,7.824 36.015,-39.965 c 1.16,-1.281 2.801,-2.004 4.528,-2.004 h 12.804 c 0.231,-1.14 0.528,-2.258 0.887,-3.355 5.215,-16 22.414,-24.742 38.406,-19.524 16,5.211 24.735,22.407 19.524,38.411" /></g></g></svg>