<?xml version="1.0" encoding="UTF-8" standalone="no"?>
<svg
   xmlns:dc="http://purl.org/dc/elements/1.1/"
   xmlns:cc="http://creativecommons.org/ns#"
   xmlns:rdf="http://www.w3.org/1999/02/22-rdf-syntax-ns#"
   xmlns:svg="http://www.w3.org/2000/svg"
   xmlns="http://www.w3.org/2000/svg"
   version="1.1"
   id="svg5414"
   xml:space="preserve"
   width="601.00134"
   height="601.00159"
   viewBox="0 0 601.00134 601.00159"><metadata
     id="metadata5420"><rdf:RDF><cc:Work
         rdf:about=""><dc:format>image/svg+xml</dc:format><dc:type
           rdf:resource="http://purl.org/dc/dcmitype/StillImage" /><dc:title></dc:title></cc:Work></rdf:RDF></metadata><defs
     id="defs5418" /><g
     id="g5422"
     transform="matrix(1.3333333,0,0,-1.3333333,0,601.00159)"><g
       id="g5424"><path
         d="m 423.375,450.376 c 27.059,0.016 27,-27.004 27,-27.004 V 27.376 c 0,0 0.059,-27.023 -27,-27 h -396 c -27.234,-0.027 -27,27 -27,27 v 395.996 c 0,0 -0.223,27.094 27,27.004 z"
         style="fill:#ffffff;fill-opacity:1;fill-rule:nonzero;stroke:none"
         id="path5426" /><path
         d="m 423.375,441.376 c 9.938,0 18,-8.058 18,-18 v -396 c 0,-9.949 -8.062,-18 -18,-18 h -396 c -9.941,0 -18,8.051 -18,18 v 396 c 0,9.942 8.059,18 18,18 z"
         style="fill:#154889;fill-opacity:1;fill-rule:nonzero;stroke:none"
         id="path5428" /><path
         d="m 423.375,450.751 c 13.656,0.008 20.57,-6.859 23.984,-13.703 3.414,-6.844 3.391,-13.68 3.391,-13.68 V 27.376 c 0,0 0.02,-6.836 -3.391,-13.676 C 443.945,6.857 437.031,-0.011 423.375,0.001 h -396 C 13.633,-0.014 6.715,6.857 3.324,13.7 -0.063,20.54 0,27.372 0,27.376 v 395.996 c 0,0.004 -0.059,6.852 3.332,13.7 3.391,6.851 10.309,13.722 24.043,13.679 z m 0,-0.375 h -396 c -27.223,0.09 -27,-27.004 -27,-27.004 V 27.376 c 0,0 -0.234,-27.027 27,-27 h 396 c 27.059,-0.023 27,27 27,27 v 395.996 c 0,0 0.059,27.02 -27,27.004 z"
         style="fill:#000000;fill-opacity:1;fill-rule:nonzero;stroke:none"
         id="path5430" /></g></g><g
     transform="matrix(1.2748312,0,0,1.2748312,-5.2173085,-4.93802)"
     id="g5586"><path
       d="M 209.01102,465.74274 V 204.1964 l -79.30819,-0.0448 -0.0447,-74.49356 h 220.68764 l 0.0448,74.53832 -79.25964,-0.0448 0.0448,261.5873 z"
       style="fill:#ffffff;fill-opacity:1;fill-rule:evenodd;stroke:none;stroke-width:1px;stroke-linecap:butt;stroke-linejoin:miter;stroke-opacity:1"
       id="path1883" /><path
       d="m 136.5311,136.49742 h 207.01057 l -0.08,60.15625 H 136.51063 Z"
       style="fill:#c1121c;fill-opacity:1;fill-rule:evenodd;stroke:none;stroke-width:1px;stroke-linecap:butt;stroke-linejoin:miter;stroke-opacity:1"
       id="path1885" /></g></svg>