<?xml version="1.0" encoding="UTF-8" standalone="no"?>
<svg
   xmlns:dc="http://purl.org/dc/elements/1.1/"
   xmlns:cc="http://creativecommons.org/ns#"
   xmlns:rdf="http://www.w3.org/1999/02/22-rdf-syntax-ns#"
   xmlns:svg="http://www.w3.org/2000/svg"
   xmlns="http://www.w3.org/2000/svg"
   viewBox="0 0 251.49881 1002.7115"
   height="1002.7115"
   width="251.49881"
   xml:space="preserve"
   version="1.1"
   id="svg5583"><metadata
     id="metadata5589"><rdf:RDF><cc:Work
         rdf:about=""><dc:format>image/svg+xml</dc:format><dc:type
           rdf:resource="http://purl.org/dc/dcmitype/StillImage" /><dc:title></dc:title></cc:Work></rdf:RDF></metadata><defs
     id="defs5587" /><g
     transform="matrix(1.25,0,0,-1.25,0,1002.7115)"
     id="g5591"><g
       id="g5593"><path
         id="path5595"
         style="fill:#c1121c;fill-opacity:1;fill-rule:evenodd;stroke:none"
         d="m 32.719,800.568 c -17.157,0 -31.121,-13.981 -31.121,-31.231 l 0,-736.527 C 1.598,15.56 15.562,1.603 32.719,1.603 l 135.758,0 c 17.156,0 31.125,13.957 31.125,31.207 l 0,736.527 c 0,17.25 -13.969,31.231 -31.125,31.231 l -135.758,0 z" /><path
         id="path5597"
         style="fill:#ffffff;fill-opacity:1;fill-rule:evenodd;stroke:none"
         d="M 191.035,10.079 1.441,201.657 1.359,400.482 199.867,200.15 199.895,26.322 c -0.11,-3.954 -2.739,-10.313 -8.86,-16.243 z" /><path
         id="path5599"
         style="fill:#ffffff;fill-opacity:1;fill-rule:evenodd;stroke:none"
         d="M 192.07,790.607 1.262,598.189 1.289,399.365 l 198.672,200.386 0.031,173.832 c -0.113,4.231 -2.465,10.422 -7.922,17.024 z" /><g
         transform="matrix(0.997298,0,0,1,0,802.16919)"
         id="g5601"><path
           id="path5603"
           style="fill:none;stroke:#000000;stroke-width:1.60216606;stroke-linecap:butt;stroke-linejoin:miter;stroke-miterlimit:4;stroke-dasharray:none;stroke-opacity:1"
           d="m 168.937,-0.801 -136.13,0 c -17.633,0 -32.004,-14.347 -32.004,-32.031 l 0,-736.527 c 0,-17.684 14.371,-32.008 32.004,-32.008 l 136.13,0 c 17.634,0 32.004,14.324 32.004,32.008 l 0,736.527 c 0,17.684 -14.37,32.031 -32.004,32.031 z" /></g></g></g></svg>