<?xml version="1.0" encoding="UTF-8" standalone="no"?>
<svg
   xmlns:dc="http://purl.org/dc/elements/1.1/"
   xmlns:cc="http://creativecommons.org/ns#"
   xmlns:rdf="http://www.w3.org/1999/02/22-rdf-syntax-ns#"
   xmlns:svg="http://www.w3.org/2000/svg"
   xmlns="http://www.w3.org/2000/svg"
   viewBox="0 0 251.49881 1002.7115"
   height="1002.7115"
   width="251.49881"
   xml:space="preserve"
   version="1.1"
   id="svg5828"><metadata
     id="metadata5834"><rdf:RDF><cc:Work
         rdf:about=""><dc:format>image/svg+xml</dc:format><dc:type
           rdf:resource="http://purl.org/dc/dcmitype/StillImage" /><dc:title></dc:title></cc:Work></rdf:RDF></metadata><defs
     id="defs5832" /><g
     transform="matrix(1.25,0,0,-1.25,0,1002.7115)"
     id="g5836"><g
       id="g5838"><path
         id="path5840"
         style="fill:#c1121c;fill-opacity:1;fill-rule:evenodd;stroke:none"
         d="m 168.48,800.568 c 17.157,0 31.122,-13.981 31.122,-31.231 l 0,-736.527 c 0,-17.25 -13.965,-31.207 -31.122,-31.207 l -135.757,0 C 15.562,1.603 1.598,15.56 1.598,32.81 l 0,736.527 c 0,17.25 13.968,31.231 31.125,31.231 l 135.757,0 z" /><path
         id="path5842"
         style="fill:#ffffff;fill-opacity:1;fill-rule:evenodd;stroke:none"
         d="M 10.164,10.079 199.758,201.657 199.84,400.482 1.332,200.15 1.305,26.322 C 1.414,22.368 4.043,16.009 10.164,10.079 Z" /><path
         id="path5844"
         style="fill:#ffffff;fill-opacity:1;fill-rule:evenodd;stroke:none"
         d="M 9.129,790.607 199.938,598.189 199.91,399.365 1.238,599.751 1.207,773.583 c 0.113,4.231 2.465,10.422 7.922,17.024 z" /><g
         transform="matrix(-0.997298,0,0,1,0,802.16919)"
         id="g5846"><path
           id="path5848"
           style="fill:none;stroke:#000000;stroke-width:1.60216606;stroke-linecap:butt;stroke-linejoin:miter;stroke-miterlimit:4;stroke-dasharray:none;stroke-opacity:1"
           d="m -32.807,-0.801 -136.13,0 c -17.634,0 -32.004,-14.347 -32.004,-32.031 l 0,-736.527 c 0,-17.684 14.37,-32.008 32.004,-32.008 l 136.13,0 c 17.633,0 32.004,14.324 32.004,32.008 l 0,736.527 c 0,17.684 -14.371,32.031 -32.004,32.031 z" /></g></g></g></svg>