<?xml version="1.0" encoding="UTF-8" standalone="no"?>
<svg
   xmlns:dc="http://purl.org/dc/elements/1.1/"
   xmlns:cc="http://creativecommons.org/ns#"
   xmlns:rdf="http://www.w3.org/1999/02/22-rdf-syntax-ns#"
   xmlns:svg="http://www.w3.org/2000/svg"
   xmlns="http://www.w3.org/2000/svg"
   viewBox="0 0 251.49881 1002.7115"
   height="1002.7115"
   width="251.49881"
   xml:space="preserve"
   version="1.1"
   id="svg5705"><metadata
     id="metadata5711"><rdf:RDF><cc:Work
         rdf:about=""><dc:format>image/svg+xml</dc:format><dc:type
           rdf:resource="http://purl.org/dc/dcmitype/StillImage" /><dc:title></dc:title></cc:Work></rdf:RDF></metadata><defs
     id="defs5709"><clipPath
       id="clipPath5721"
       clipPathUnits="userSpaceOnUse"><path
         id="path5723"
         d="m 0.602,801.568 200,0 0,-801 -200,0 0,801 z" /></clipPath><clipPath
       id="clipPath5731"
       clipPathUnits="userSpaceOnUse"><path
         id="path5733"
         d="M 0,1 202,1 202,803 0,803 0,1 Z" /></clipPath><clipPath
       id="clipPath5741"
       clipPathUnits="userSpaceOnUse"><path
         id="path5743"
         d="m 0.199,803 201,0 0,-802 -201,0 0,802 z" /></clipPath><clipPath
       id="clipPath5751"
       clipPathUnits="userSpaceOnUse"><path
         id="path5753"
         d="M 0,1 201,1 201,803 0,803 0,1 Z" /></clipPath></defs><g
     transform="matrix(1.25,0,0,-1.25,0,1002.7115)"
     id="g5713"><g
       id="g5715" /><g
       id="g5717"><g
         clip-path="url(#clipPath5721)"
         id="g5719"><g
           transform="translate(0,-0.830811)"
           id="g5725"><g
             id="g5727"><g
               clip-path="url(#clipPath5731)"
               id="g5729"><g
                 id="g5735" /><g
                 id="g5737"><g
                   clip-path="url(#clipPath5741)"
                   id="g5739"><g
                     id="g5745"><g
                       id="g5747"><g
                         clip-path="url(#clipPath5751)"
                         id="g5749"><g
                           id="g5755"><path
                             id="path5757"
                             style="fill:#ffffff;fill-opacity:1;fill-rule:nonzero;stroke:none"
                             d="m 32.723,802.199 135.757,0 c 17.59,0 31.922,-14.347 31.922,-32.031 l 0,-736.527 C 200.402,15.957 186.07,1.633 168.48,1.633 l -135.757,0 C 15.129,1.633 0.797,15.957 0.797,33.641 l 0,736.527 c 0,17.684 14.332,32.031 31.926,32.031 z" /></g></g></g></g></g></g></g></g></g></g></g><g
       id="g5759"><path
         id="path5761"
         style="fill:#c1121c;fill-opacity:1;fill-rule:nonzero;stroke:none"
         d="m 168.289,801.368 c 17.707,0 32.113,-14.441 32.113,-32.222 l 0,-169.106 L 9.598,791.388 c 5.816,6.141 14.031,9.98 23.125,9.98 l 135.566,0 z" /><path
         id="path5763"
         style="fill:#c1121c;fill-opacity:1;fill-rule:nonzero;stroke:none"
         d="m 0.797,601.829 199.605,-200.14 0,-201.348 -199.605,200.164 0,201.324 z" /><path
         id="path5765"
         style="fill:#c1121c;fill-opacity:1;fill-rule:nonzero;stroke:none"
         d="M 0.797,201.564 191.348,10.501 c -4.727,-4.863 -10.965,-8.23 -17.95,-9.32 -1.488,-0.211 -3,-0.324 -4.523,-0.324 l -136.559,0 c -1.527,0 -3.027,0.113 -4.488,0.32 C 12.547,3.544 0.797,16.798 0.797,32.81 l 0,168.754 z" /><g
         transform="matrix(-0.997298,0,0,1,0,802.16919)"
         id="g5767"><path
           id="path5769"
           style="fill:none;stroke:#000000;stroke-width:1.60216606;stroke-linecap:butt;stroke-linejoin:miter;stroke-miterlimit:4;stroke-dasharray:none;stroke-opacity:1"
           d="m -32.807,-0.801 -136.13,0 c -17.634,0 -32.004,-14.347 -32.004,-32.031 l 0,-736.527 c 0,-17.684 14.37,-32.008 32.004,-32.008 l 136.13,0 c 17.633,0 32.004,14.324 32.004,32.008 l 0,736.527 c 0,17.684 -14.371,32.031 -32.004,32.031 z" /></g></g></g></svg>