<?xml version="1.0" encoding="UTF-8" standalone="no"?>
<svg
   xmlns:dc="http://purl.org/dc/elements/1.1/"
   xmlns:cc="http://creativecommons.org/ns#"
   xmlns:rdf="http://www.w3.org/1999/02/22-rdf-syntax-ns#"
   xmlns:svg="http://www.w3.org/2000/svg"
   xmlns="http://www.w3.org/2000/svg"
   viewBox="0 0 251.49881 1002.7115"
   height="1002.7115"
   width="251.49881"
   xml:space="preserve"
   version="1.1"
   id="svg4432"><metadata
     id="metadata4438"><rdf:RDF><cc:Work
         rdf:about=""><dc:format>image/svg+xml</dc:format><dc:type
           rdf:resource="http://purl.org/dc/dcmitype/StillImage" /><dc:title></dc:title></cc:Work></rdf:RDF></metadata><defs
     id="defs4436"><clipPath
       id="clipPath4448"
       clipPathUnits="userSpaceOnUse"><path
         id="path4450"
         d="m 0.598,801.568 200,0 0,-801 -200,0 0,801 z" /></clipPath><clipPath
       id="clipPath4458"
       clipPathUnits="userSpaceOnUse"><path
         id="path4460"
         d="M 0,1 201,1 201,803 0,803 0,1 Z" /></clipPath></defs><g
     transform="matrix(1.25,0,0,-1.25,0,1002.7115)"
     id="g4440"><g
       id="g4442" /><g
       id="g4444"><g
         clip-path="url(#clipPath4448)"
         id="g4446"><g
           transform="translate(0,-0.830811)"
           id="g4452"><g
             id="g4454"><g
               clip-path="url(#clipPath4458)"
               id="g4456"><g
                 id="g4462"><path
                   id="path4464"
                   style="fill:#ffffff;fill-opacity:1;fill-rule:nonzero;stroke:none"
                   d="m 168.477,802.199 -135.758,0 c -17.59,0 -31.922,-14.347 -31.922,-32.031 l 0,-736.527 C 0.797,15.957 15.129,1.633 32.719,1.633 l 135.758,0 c 17.593,0 31.925,14.324 31.925,32.008 l 0,736.527 c 0,17.684 -14.332,32.031 -31.925,32.031 z" /></g></g></g></g></g></g><g
       id="g4466"><path
         id="path4468"
         style="fill:#c1121c;fill-opacity:1;fill-rule:nonzero;stroke:none"
         d="m 32.91,801.368 c -17.707,0 -32.113,-14.441 -32.113,-32.222 l 0,-169.106 190.805,191.348 c -5.817,6.141 -14.032,9.98 -23.125,9.98 l -135.567,0 z" /><path
         id="path4470"
         style="fill:#c1121c;fill-opacity:1;fill-rule:nonzero;stroke:none"
         d="M 200.402,601.829 0.797,401.689 l 0,-201.348 199.605,200.164 0,201.324 z" /><path
         id="path4472"
         style="fill:#c1121c;fill-opacity:1;fill-rule:nonzero;stroke:none"
         d="M 200.402,201.564 9.852,10.501 c 4.726,-4.863 10.964,-8.23 17.949,-9.32 1.488,-0.211 3,-0.324 4.523,-0.324 l 136.559,0 c 1.527,0 3.027,0.113 4.488,0.32 15.281,2.367 27.031,15.621 27.031,31.633 l 0,168.754 z" /><g
         transform="matrix(0.997298,0,0,1,0,802.16919)"
         id="g4474"><path
           id="path4476"
           style="fill:none;stroke:#000000;stroke-width:1.60216606;stroke-linecap:butt;stroke-linejoin:miter;stroke-miterlimit:4;stroke-dasharray:none;stroke-opacity:1"
           d="m 168.937,-0.801 -136.13,0 c -17.633,0 -32.004,-14.347 -32.004,-32.031 l 0,-736.527 c 0,-17.684 14.371,-32.008 32.004,-32.008 l 136.13,0 c 17.634,0 32.004,14.324 32.004,32.008 l 0,736.527 c 0,17.684 -14.37,32.031 -32.004,32.031 z" /></g></g></g></svg>