<?xml version="1.0" encoding="UTF-8" standalone="no"?>
<!-- Created with Inkscape (http://www.inkscape.org/) -->

<svg
   version="1.1"
   id="svg2"
   width="144.64"
   height="144.64"
   viewBox="0 0 144.64 144.64"
   sodipodi:docname="artwork.svg"
   inkscape:version="1.1.2 (0a00cf5339, 2022-02-04)"
   xmlns:inkscape="http://www.inkscape.org/namespaces/inkscape"
   xmlns:sodipodi="http://sodipodi.sourceforge.net/DTD/sodipodi-0.dtd"
   xmlns="http://www.w3.org/2000/svg"
   xmlns:svg="http://www.w3.org/2000/svg">
  <defs
     id="defs6" />
  <sodipodi:namedview
     id="namedview4"
     pagecolor="#505050"
     bordercolor="#eeeeee"
     borderopacity="1"
     inkscape:pageshadow="0"
     inkscape:pageopacity="0"
     inkscape:pagecheckerboard="0"
     showgrid="false"
     inkscape:zoom="5.4065266"
     inkscape:cx="72.32"
     inkscape:cy="72.227519"
     inkscape:window-width="1920"
     inkscape:window-height="1016"
     inkscape:window-x="0"
     inkscape:window-y="0"
     inkscape:window-maximized="1"
     inkscape:current-layer="g8" />
  <g
     inkscape:groupmode="layer"
     inkscape:label="Image"
     id="g8">
    <path
       style="fill:#1b1c1f;stroke-width:0.32;fill-opacity:1"
       d="m 37.530317,143.64784 c -2.050291,-0.79187 -4.1844,-2.81038 -5.215402,-4.9329 -0.606538,-1.24868 -0.775907,-2.11597 -0.78015,-3.99494 -0.0064,-2.83844 0.791437,-4.90425 2.641027,-6.83825 1.187613,-1.24181 3.895667,-2.75277 4.944208,-2.75862 0.460208,-0.003 0.56,-0.29589 0.56,-1.646 0,-2.37081 0.575494,-3.95374 2.043939,-5.62198 1.371955,-1.55863 3.307683,-2.63655 4.755472,-2.64812 0.696903,-0.006 1.07976,-0.32249 1.844771,-1.52703 4.928999,-7.76095 6.824397,-19.4 7.54834,-46.352045 l 0.215744,-8.032045 -1.353498,-0.216432 c -3.130906,-0.500652 -5.710902,-2.780521 -6.597389,-5.829929 -1.276102,-4.389645 1.44688,-8.971037 5.97808,-10.058055 L 55.739101,42.801987 54.31447,41.320995 C 48.180691,34.94455 46.186243,25.276131 49.230218,16.674219 50.53391,12.99014 51.968531,10.7715 55.04,7.6894083 60.31447,2.3966931 66.437709,-0.00105064 73.6,0.4216649 c 3.963123,0.23390195 6.2092,0.84279 9.92,2.6892092 2.47855,1.2332769 3.548189,2.0165134 5.791626,4.2408843 4.391044,4.3537256 6.632964,8.9094436 7.376724,14.9899476 0.79265,6.480103 -1.56027,13.736899 -6.037134,18.619558 l -1.668781,1.820045 1.828781,0.509107 c 5.787954,1.611286 7.939194,8.703363 3.971994,13.094582 -1.32645,1.468228 -2.988711,2.392375 -4.833844,2.687424 L 88.64,59.281798 l 0.0019,2.759101 c 0.0039,5.371616 0.645443,19.799392 1.140099,25.639101 1.090746,12.87689 2.983991,20.41076 6.533721,26 0.76502,1.20454 1.14787,1.52146 1.84478,1.52703 1.44778,0.0116 3.38351,1.08949 4.75547,2.64812 1.46844,1.66824 2.04394,3.25117 2.04394,5.62198 0,1.35011 0.0998,1.64343 0.56,1.646 1.04854,0.006 3.75659,1.51681 4.9442,2.75862 1.8596,1.94446 2.64975,4.00017 2.6284,6.83825 -0.0139,1.84699 -0.19405,2.76556 -0.78183,3.9865 -0.91534,1.90134 -2.66288,3.71925 -4.5375,4.72022 L 106.4,144.16 72.8,144.2263 c -33.001114,0.0652 -33.62976,0.0549 -35.269683,-0.57851 z"
       id="path863" />
  </g>
</svg>
