<?xml version="1.0" encoding="UTF-8" standalone="no"?>
<!-- Created with Inkscape (http://www.inkscape.org/) -->

<svg
   version="1.1"
   id="svg2"
   width="50mm"
   height="50mm"
   viewBox="0 0 188.97637 188.97637"
   sodipodi:docname="information.svg"
   inkscape:version="1.1.2 (0a00cf5339, 2022-02-04)"
   xmlns:inkscape="http://www.inkscape.org/namespaces/inkscape"
   xmlns:sodipodi="http://sodipodi.sourceforge.net/DTD/sodipodi-0.dtd"
   xmlns="http://www.w3.org/2000/svg"
   xmlns:svg="http://www.w3.org/2000/svg">
  <defs
     id="defs6" />
  <sodipodi:namedview
     id="namedview4"
     pagecolor="#505050"
     bordercolor="#eeeeee"
     borderopacity="1"
     inkscape:pageshadow="0"
     inkscape:pageopacity="0"
     inkscape:pagecheckerboard="0"
     showgrid="false"
     inkscape:zoom="4.0690707"
     inkscape:cx="81.959746"
     inkscape:cy="97.688153"
     inkscape:window-width="1920"
     inkscape:window-height="1016"
     inkscape:window-x="0"
     inkscape:window-y="0"
     inkscape:window-maximized="1"
     inkscape:current-layer="g8"
     units="mm"
     inkscape:document-units="mm" />
  <g
     inkscape:groupmode="layer"
     inkscape:label="Image"
     id="g8">
    <path
       style="fill:#1b1c1f;fill-opacity:1;stroke:none;stroke-width:0;stroke-miterlimit:4;stroke-dasharray:none"
       d="m 74.685769,152.02355 c -2.591762,-0.49681 -4.32153,-1.31812 -5.718713,-2.71531 -1.869063,-1.86906 -2.509081,-3.9483 -2.371359,-7.70388 0.144561,-3.9421 1.270661,-8.66265 3.704618,-15.52952 1.091715,-3.08004 2.074092,-5.49484 10.025336,-24.64345 3.690755,-8.888266 6.790895,-16.450202 6.889199,-16.804297 0.407262,-1.466975 0.0039,-2.831698 -1.02504,-3.467581 -0.508426,-0.314224 -0.749291,-0.357034 -1.616971,-0.287384 -2.752686,0.22096 -6.01903,2.782957 -11.691538,9.170398 -4.061302,4.573169 -5.814934,6.140034 -6.871905,6.140034 -0.517832,0 -1.569079,-0.656162 -1.887242,-1.177972 -0.702023,-1.151364 -0.256896,-2.577118 1.576637,-5.050003 2.097504,-2.828903 7.648305,-8.386016 11.250698,-11.26349 5.922915,-4.731031 12.57255,-7.847562 19.252003,-9.022967 2.99348,-0.526774 7.789938,-0.532556 9.694788,-0.01169 4.09611,1.120059 6.62282,3.469253 7.6016,7.06754 0.66763,2.454485 0.42912,6.208973 -0.64244,10.111886 -0.31733,1.155814 -3.17693,8.824658 -6.79902,18.233596 -7.123156,18.50338 -7.589243,19.70422 -8.936949,23.02513 -1.781784,4.39054 -2.337003,7.13662 -1.681386,8.31616 1.026857,1.84743 3.228753,1.56078 6.418705,-0.83563 1.26349,-0.94919 4.90628,-4.53807 9.09145,-8.95694 2.80506,-2.96169 3.96695,-3.93653 4.69186,-3.93653 0.98851,0 2.1323,1.3599 2.1323,2.5352 0,2.81207 -5.94783,9.80844 -13.24955,15.58531 -7.155677,5.6613 -14.682742,9.46913 -21.512451,10.88284 -2.504358,0.51838 -6.531963,0.68217 -8.32463,0.33855 z M 106.78497,62.632686 c -5.08643,-0.969178 -8.458756,-3.993548 -9.549109,-8.563855 -0.876498,-3.673933 -0.202449,-7.437777 1.897761,-10.596937 4.292228,-6.45643 13.387298,-8.653755 20.012198,-4.834858 1.37209,0.790928 3.26373,2.757268 3.98599,4.143387 1.08066,2.073935 1.34643,3.240248 1.34399,5.897663 -0.003,2.812221 -0.32075,4.158223 -1.50086,6.349788 -1.9484,3.618364 -5.20323,6.085468 -9.64599,7.311475 -0.9535,0.263128 -5.60763,0.471749 -6.54398,0.293337 z"
       id="path827"
       sodipodi:nodetypes="sssssssssssssssssssssssssssssssscsss" />
    <path
       id="path2070"
       style="fill:#1b1c1f;stroke-width:2.35264"
       d="M 94.488281 0 A 94.48819 94.48819 0 0 0 0 94.488281 A 94.48819 94.48819 0 0 0 94.488281 188.97656 A 94.48819 94.48819 0 0 0 188.97656 94.488281 A 94.48819 94.48819 0 0 0 94.488281 0 z M 94.488281 18.898438 A 75.590553 75.590553 0 0 1 170.07812 94.488281 A 75.590553 75.590553 0 0 1 94.488281 170.07812 A 75.590553 75.590553 0 0 1 18.898438 94.488281 A 75.590553 75.590553 0 0 1 94.488281 18.898438 z " />
  </g>
</svg>
