<?xml version="1.0" encoding="UTF-8" standalone="no"?>
<svg
   xmlns:dc="http://purl.org/dc/elements/1.1/"
   xmlns:cc="http://creativecommons.org/ns#"
   xmlns:rdf="http://www.w3.org/1999/02/22-rdf-syntax-ns#"
   xmlns:svg="http://www.w3.org/2000/svg"
   xmlns="http://www.w3.org/2000/svg"
   xmlns:sodipodi="http://sodipodi.sourceforge.net/DTD/sodipodi-0.dtd"
   xmlns:inkscape="http://www.inkscape.org/namespaces/inkscape"
   version="1.1"
   height="720"
   width="1200"
   id="svg8"
   sodipodi:docname="bicycle.svg"
   inkscape:version="0.92.3 (2405546, 2018-03-11)">
  <metadata
     id="metadata14">
    <rdf:RDF>
      <cc:Work
         rdf:about="">
        <dc:format>image/svg+xml</dc:format>
        <dc:type
           rdf:resource="http://purl.org/dc/dcmitype/StillImage" />
        <dc:title></dc:title>
      </cc:Work>
    </rdf:RDF>
  </metadata>
  <defs
     id="defs12" />
  <sodipodi:namedview
     pagecolor="#ffffff"
     bordercolor="#666666"
     borderopacity="1"
     objecttolerance="10"
     gridtolerance="10"
     guidetolerance="10"
     inkscape:pageopacity="0"
     inkscape:pageshadow="2"
     inkscape:window-width="1920"
     inkscape:window-height="1043"
     id="namedview10"
     showgrid="false"
     inkscape:zoom="0.39333333"
     inkscape:cx="388.92405"
     inkscape:cy="282.20338"
     inkscape:window-x="1920"
     inkscape:window-y="0"
     inkscape:window-maximized="1"
     inkscape:current-layer="svg8" />
  <circle
     cx="315"
     cy="461.5"
     r="161"
     style="fill:none;stroke:#d0d0d0;stroke-width:90;stroke-miterlimit:4;stroke-dasharray:none;stroke-opacity:1"
     id="circle2" />
  <circle
     cx="890"
     cy="458.5"
     r="161"
     style="fill:none;stroke:#d0d0d0;stroke-width:90;stroke-miterlimit:4;stroke-dasharray:none;stroke-opacity:1"
     id="circle4" />
  <path
     style="fill:#d0d0d0;fill-opacity:1;fill-rule:evenodd;stroke:#d0d0d0;stroke-width:30;stroke-miterlimit:4;stroke-dasharray:none;stroke-opacity:1"
     d="M 529.48437,67.96712 C 396.9179,69.25919 419.39993,54.27117 348.07762,283.48455 289.97511,466.62586 296.30387,446.65363 296,459.5 c -0.21296,9.98022 7.84333,17.89312 17.96694,18.57043 21.0536,-2.12877 12.19798,2.27698 85.19054,-224.38965 266.71215,281.35562 166.64844,235.73116 310.18316,241.44498 188.64235,-1.8089 203.97493,9.81974 206.21452,-17.83058 -0.25842,-9.38905 -4.65145,-14.98802 -134.11696,-303.11983 l 12.40388,-34.11067 42.63834,-0.77525 -1.55048,-35.66115 H 676.00521 c -14.0405,19.20878 5.68512,19.12265 76.74902,34.88591 l -12.40388,34.88591 -317.07421,0.77525 c 21.36224,-74.59556 9.30291,-69.94411 105.43299,-69.77183 z m -115.37022,144.443 310.26337,-0.55011 -89.66831,240.94921 z m 347.67101,14.30292 -88.01798,231.04719 192.53932,0.55011 z"
     id="path6"
     inkscape:connector-curvature="0" />
</svg>
