<?xml version="1.0" encoding="UTF-8" standalone="no"?>
<!-- Created with Inkscape (http://www.inkscape.org/) -->

<svg
   xmlns:dc="http://purl.org/dc/elements/1.1/"
   xmlns:cc="http://creativecommons.org/ns#"
   xmlns:rdf="http://www.w3.org/1999/02/22-rdf-syntax-ns#"
   xmlns:svg="http://www.w3.org/2000/svg"
   xmlns="http://www.w3.org/2000/svg"
   xmlns:xlink="http://www.w3.org/1999/xlink"
   xmlns:sodipodi="http://sodipodi.sourceforge.net/DTD/sodipodi-0.dtd"
   xmlns:inkscape="http://www.inkscape.org/namespaces/inkscape"
   width="280mm"
   height="1223.571mm"
   viewBox="0 0 280 1223.571"
   version="1.1"
   id="svg8"
   inkscape:version="0.92.3 (2405546, 2018-03-11)"
   sodipodi:docname="bus-simple01_red.svg">
  <defs
     id="defs2">
    <linearGradient
       inkscape:collect="always"
       id="linearGradient1930">
      <stop
         style="stop-color:#ffffff;stop-opacity:1;"
         offset="0"
         id="stop1926" />
      <stop
         style="stop-color:#ffffff;stop-opacity:0;"
         offset="1"
         id="stop1928" />
    </linearGradient>
    <linearGradient
       inkscape:collect="always"
       id="linearGradient1920">
      <stop
         style="stop-color:#000000;stop-opacity:1;"
         offset="0"
         id="stop1916" />
      <stop
         style="stop-color:#000000;stop-opacity:0;"
         offset="1"
         id="stop1918" />
    </linearGradient>
    <linearGradient
       inkscape:collect="always"
       id="linearGradient1902">
      <stop
         style="stop-color:#ffffff;stop-opacity:1;"
         offset="0"
         id="stop1898" />
      <stop
         style="stop-color:#ffffff;stop-opacity:0;"
         offset="1"
         id="stop1900" />
    </linearGradient>
    <linearGradient
       inkscape:collect="always"
       id="linearGradient1870">
      <stop
         style="stop-color:#000005;stop-opacity:1;"
         offset="0"
         id="stop1866" />
      <stop
         style="stop-color:#000005;stop-opacity:0;"
         offset="1"
         id="stop1868" />
    </linearGradient>
    <linearGradient
       inkscape:collect="always"
       xlink:href="#linearGradient1870"
       id="linearGradient1872"
       x1="16.120684"
       y1="615.60541"
       x2="101.16017"
       y2="615.60541"
       gradientUnits="userSpaceOnUse" />
    <linearGradient
       inkscape:collect="always"
       xlink:href="#linearGradient1902"
       id="linearGradient1904"
       x1="106.96726"
       y1="615.60844"
       x2="191.74217"
       y2="615.60844"
       gradientUnits="userSpaceOnUse"
       gradientTransform="matrix(-1,0,0,1,370.8722,0)" />
    <linearGradient
       inkscape:collect="always"
       xlink:href="#linearGradient1920"
       id="linearGradient1922"
       x1="143.92508"
       y1="1256.9769"
       x2="143.92508"
       y2="1156.4835"
       gradientUnits="userSpaceOnUse" />
    <linearGradient
       inkscape:collect="always"
       xlink:href="#linearGradient1930"
       id="linearGradient1932"
       x1="172.65244"
       y1="-24.438278"
       x2="147.50919"
       y2="69.397621"
       gradientUnits="userSpaceOnUse" />
  </defs>
  <sodipodi:namedview
     id="base"
     pagecolor="#ffffff"
     bordercolor="#666666"
     borderopacity="1.0"
     inkscape:pageopacity="0.0"
     inkscape:pageshadow="2"
     inkscape:zoom="0.175"
     inkscape:cx="644.39245"
     inkscape:cy="2497.3604"
     inkscape:document-units="mm"
     inkscape:current-layer="g1861"
     showgrid="false"
     inkscape:window-width="1920"
     inkscape:window-height="1053"
     inkscape:window-x="0"
     inkscape:window-y="27"
     inkscape:window-maximized="1" />
  <metadata
     id="metadata5">
    <rdf:RDF>
      <cc:Work
         rdf:about="">
        <dc:format>image/svg+xml</dc:format>
        <dc:type
           rdf:resource="http://purl.org/dc/dcmitype/StillImage" />
        <dc:title></dc:title>
      </cc:Work>
    </rdf:RDF>
  </metadata>
  <g
     transform="translate(0,-214.19401)"
     inkscape:groupmode="layer"
     id="g1837"
     inkscape:label="colour yellow"
     style="display:none">
    <path
       style="fill:#c3b992;fill-opacity:1;stroke:none;stroke-width:0.26458332px;stroke-linecap:butt;stroke-linejoin:miter;stroke-opacity:1"
       d="m 230.62802,244.32086 37.97452,-28.6247 9.18214,12.48665 -34.48547,39.24396 20.15019,46.73709 V 1413.7635 l -5.29166,12.4732 -11.33929,8.3154 H 32.127975 l -12.473213,-11.0558 -3.401786,-18.3318 V 316.83656 l 19.777945,-49.92097 -34.6528488,-39.67542 9.3274248,-10.92085 38.809382,27.79682 26.431634,-17.582 131.511437,-0.38733 z"
       id="path1835"
       inkscape:connector-curvature="0"
       sodipodi:nodetypes="ccccccccccccccccccc" />
  </g>
  <g
     style="display:none"
     inkscape:label="colour white"
     id="g1413"
     inkscape:groupmode="layer"
     transform="translate(0,-214.19401)">
    <path
       sodipodi:nodetypes="ccccccccccccccccccc"
       inkscape:connector-curvature="0"
       id="path1411"
       d="m 230.62802,244.32086 37.97452,-28.6247 9.18214,12.48665 -34.48547,39.24396 20.15019,46.73709 V 1413.7635 l -5.29166,12.4732 -11.33929,8.3154 H 32.127975 l -12.473213,-11.0558 -3.401786,-18.3318 V 316.83656 l 19.777945,-49.92097 -34.6528488,-39.67542 9.3274248,-10.92085 38.809382,27.79682 26.431634,-17.582 131.511437,-0.38733 z"
       style="fill:#d5d5d5;fill-opacity:1;stroke:none;stroke-width:0.26458332px;stroke-linecap:butt;stroke-linejoin:miter;stroke-opacity:1" />
  </g>
  <g
     style="display:none"
     inkscape:label="colour silver"
     id="g1841"
     inkscape:groupmode="layer"
     transform="translate(0,-214.19401)">
    <path
       sodipodi:nodetypes="ccccccccccccccccccc"
       inkscape:connector-curvature="0"
       id="path1839"
       d="m 230.62802,244.32086 37.97452,-28.6247 9.18214,12.48665 -34.48547,39.24396 20.15019,46.73709 V 1413.7635 l -5.29166,12.4732 -11.33929,8.3154 H 32.127975 l -12.473213,-11.0558 -3.401786,-18.3318 V 316.83656 l 19.777945,-49.92097 -34.6528488,-39.67542 9.3274248,-10.92085 38.809382,27.79682 26.431634,-17.582 131.511437,-0.38733 z"
       style="fill:#bababa;fill-opacity:1;stroke:none;stroke-width:0.26458332px;stroke-linecap:butt;stroke-linejoin:miter;stroke-opacity:1" />
  </g>
  <g
     transform="translate(0,-214.19401)"
     inkscape:groupmode="layer"
     id="g1845"
     inkscape:label="colour red"
     style="display:inline">
    <path
       style="fill:#a99492;fill-opacity:1;stroke:none;stroke-width:0.26458332px;stroke-linecap:butt;stroke-linejoin:miter;stroke-opacity:1"
       d="m 230.62802,244.32086 37.97452,-28.6247 9.18214,12.48665 -34.48547,39.24396 20.15019,46.73709 V 1413.7635 l -5.29166,12.4732 -11.33929,8.3154 H 32.127975 l -12.473213,-11.0558 -3.401786,-18.3318 V 316.83656 l 19.777945,-49.92097 -34.6528488,-39.67542 9.3274248,-10.92085 38.809382,27.79682 26.431634,-17.582 131.511437,-0.38733 z"
       id="path1843"
       inkscape:connector-curvature="0"
       sodipodi:nodetypes="ccccccccccccccccccc" />
  </g>
  <g
     style="display:none"
     inkscape:label="colour green"
     id="g1849"
     inkscape:groupmode="layer"
     transform="translate(0,-214.19401)">
    <path
       sodipodi:nodetypes="ccccccccccccccccccc"
       inkscape:connector-curvature="0"
       id="path1847"
       d="m 230.62802,244.32086 37.97452,-28.6247 9.18214,12.48665 -34.48547,39.24396 20.15019,46.73709 V 1413.7635 l -5.29166,12.4732 -11.33929,8.3154 H 32.127975 l -12.473213,-11.0558 -3.401786,-18.3318 V 316.83656 l 19.777945,-49.92097 -34.6528488,-39.67542 9.3274248,-10.92085 38.809382,27.79682 26.431634,-17.582 131.511437,-0.38733 z"
       style="fill:#95a692;fill-opacity:1;stroke:none;stroke-width:0.26458332px;stroke-linecap:butt;stroke-linejoin:miter;stroke-opacity:1" />
  </g>
  <g
     transform="translate(0,-214.19401)"
     inkscape:groupmode="layer"
     id="g1853"
     inkscape:label="colour gray"
     style="display:none">
    <path
       style="fill:#9b9b9a;fill-opacity:1;stroke:none;stroke-width:0.26458332px;stroke-linecap:butt;stroke-linejoin:miter;stroke-opacity:1"
       d="m 230.62802,244.32086 37.97452,-28.6247 9.18214,12.48665 -34.48547,39.24396 20.15019,46.73709 V 1413.7635 l -5.29166,12.4732 -11.33929,8.3154 H 32.127975 l -12.473213,-11.0558 -3.401786,-18.3318 V 316.83656 l 19.777945,-49.92097 -34.6528488,-39.67542 9.3274248,-10.92085 38.809382,27.79682 26.431634,-17.582 131.511437,-0.38733 z"
       id="path1851"
       inkscape:connector-curvature="0"
       sodipodi:nodetypes="ccccccccccccccccccc" />
  </g>
  <g
     style="display:none"
     inkscape:label="colour dark blue"
     id="g1857"
     inkscape:groupmode="layer"
     transform="translate(0,-214.19401)">
    <path
       sodipodi:nodetypes="ccccccccccccccccccc"
       inkscape:connector-curvature="0"
       id="path1855"
       d="m 230.62802,244.32086 37.97452,-28.6247 9.18214,12.48665 -34.48547,39.24396 20.15019,46.73709 V 1413.7635 l -5.29166,12.4732 -11.33929,8.3154 H 32.127975 l -12.473213,-11.0558 -3.401786,-18.3318 V 316.83656 l 19.777945,-49.92097 -34.6528488,-39.67542 9.3274248,-10.92085 38.809382,27.79682 26.431634,-17.582 131.511437,-0.38733 z"
       style="fill:#9494a8;fill-opacity:1;stroke:none;stroke-width:0.26458332px;stroke-linecap:butt;stroke-linejoin:miter;stroke-opacity:1" />
  </g>
  <g
     transform="translate(0,-214.19401)"
     inkscape:groupmode="layer"
     id="g1861"
     inkscape:label="colour black"
     style="display:none">
    <path
       style="fill:#777777;fill-opacity:1;stroke:none;stroke-width:0.26458332px;stroke-linecap:butt;stroke-linejoin:miter;stroke-opacity:1"
       d="m 230.62802,244.32086 37.97452,-28.6247 9.18214,12.48665 -34.48547,39.24396 20.15019,46.73709 V 1413.7635 l -5.29166,12.4732 -11.33929,8.3154 H 32.127975 l -12.473213,-11.0558 -3.401786,-18.3318 V 316.83656 l 19.777945,-49.92097 -34.6528488,-39.67542 9.3274248,-10.92085 38.809382,27.79682 26.431634,-17.582 131.511437,-0.38733 z"
       id="path1859"
       inkscape:connector-curvature="0"
       sodipodi:nodetypes="ccccccccccccccccccc" />
  </g>
  <g
     inkscape:groupmode="layer"
     id="layer6"
     inkscape:label="shadow"
     style="display:inline;opacity:0.2">
    <path
       style="fill:url(#linearGradient1872);fill-opacity:1;stroke:none;stroke-width:0.26458332px;stroke-linecap:butt;stroke-linejoin:miter;stroke-opacity:1"
       d="M 101.02788,11.236474 V 1219.9803 H 34.017857 l -14.363095,-10.678 -3.401786,-18.3318 V 102.64255 L 49.514878,29.922128 75.946512,12.34013 Z"
       id="path1864"
       inkscape:connector-curvature="0" />
    <path
       style="fill:url(#linearGradient1904);fill-opacity:1;stroke:none;stroke-width:0.26458332px;stroke-linecap:butt;stroke-linejoin:miter;stroke-opacity:1"
       d="M 179.13003,11.23648 V 1219.9804 h 67.01003 l 14.36309,-10.678 3.40179,-18.3319 V 102.64256 L 230.64304,29.922134 204.2114,12.340136 Z"
       id="path1864-7"
       inkscape:connector-curvature="0" />
    <path
       style="fill:url(#linearGradient1922);fill-opacity:1;stroke:none;stroke-width:0.26458332px;stroke-linecap:butt;stroke-linejoin:miter;stroke-opacity:1"
       d="m 32.127975,1220.3581 214.012085,-0.3777 12.01768,-7.9377 5.29166,-12.4732 v -80.2336 H 15.768902 l 0.484074,71.6346 3.401786,18.3318 z"
       id="path1906"
       inkscape:connector-curvature="0" />
    <path
       style="fill:url(#linearGradient1932);stroke:#000000;stroke-width:0.26458332px;stroke-linecap:butt;stroke-linejoin:miter;stroke-opacity:1;fill-opacity:1"
       d="m 49.514878,29.922128 26.431634,-17.581998 128.264888,6e-6 26.41662,17.786714 21.4821,47.798367 -26.08036,-12.85119 H 50.648809 L 27.214285,75.65736 Z"
       id="path1924"
       inkscape:connector-curvature="0" />
  </g>
  <g
     inkscape:groupmode="layer"
     id="layer1"
     inkscape:label="window">
    <path
       style="fill:#000000;stroke:none;stroke-width:0.26458332px;stroke-linecap:butt;stroke-linejoin:miter;stroke-opacity:1;fill-opacity:0.23529412"
       d="M 27.214285,75.65736 50.648809,65.074027 H 226.02976 L 252.11012,77.925217 243.29921,53.232758 230.62802,30.12685 207.45795,11.9528 75.946512,12.34013 49.514878,29.922128 36.030921,52.721578 Z"
       id="path851"
       inkscape:connector-curvature="0" />
    <path
       style="fill:#000000;stroke:none;stroke-width:0.26458332px;stroke-linecap:butt;stroke-linejoin:miter;stroke-opacity:1;fill-opacity:0.15686275"
       d="M 91.848211,277.11868 V 409.03236 H 187.09821 V 277.87465 Z"
       id="path853"
       inkscape:connector-curvature="0" />
    <path
       style="fill:#000000;fill-opacity:0.15686275;stroke:none;stroke-width:0.26458332px;stroke-linecap:butt;stroke-linejoin:miter;stroke-opacity:1"
       d="M 92.361945,587.06894 V 718.98262 H 187.61195 V 587.82491 Z"
       id="path853-3"
       inkscape:connector-curvature="0" />
    <path
       style="fill:#000000;fill-opacity:0.15686275;stroke:none;stroke-width:0.26458332px;stroke-linecap:butt;stroke-linejoin:miter;stroke-opacity:1"
       d="M 91.848216,898.32254 V 1030.2362 H 187.09822 V 899.07851 Z"
       id="path853-6"
       inkscape:connector-curvature="0" />
  </g>
  <g
     inkscape:groupmode="layer"
     id="layer5"
     inkscape:label="type bus"
     style="display:inline;opacity:1"
     transform="translate(0,-214.19401)">
    <path
       style="display:inline;fill:#323232;stroke-width:0.76678598;fill-opacity:1"
       d="m 30.663311,1436.6024 c -4.212371,-1.2977 -9.966161,-6.1607 -12.593641,-10.6443 -1.0473,-1.7869 -2.59451,-5.9486 -3.4384,-9.2481 -1.52757,-5.9725 -1.53436,-8.4197 -1.53436,-549.17678 0,-487.42491 0.12226,-543.78422 1.18786,-549.0879 1.19002,-5.92107 2.65464,-10.11216 12.515752,-35.81485 3.406618,-8.87929 5.076819,-14.21241 4.682677,-14.95233 C 31.1463,267.046 24.45669,259.16845 16.61755,250.17351 8.7783995,241.17866 1.8463495,233.07931 1.2130295,232.17511 c -2.53085,-3.61328 -0.95564992,-10.58201 3.36957,-14.90723 2.8541601,-2.85416 6.5752205,-3.77059 10.3079605,-2.53872 1.46326,0.48271 8.79905,5.67491 16.301651,11.53774 l 13.641221,10.65972 2.487728,-3.69398 c 5.40675,-8.02861 15.927451,-14.24157 29.03559,-17.14672 7.531322,-1.66921 8.664472,-1.69946 63.64321,-1.69946 54.97886,0 56.11196,0.0272 63.64326,1.69946 13.1082,2.90515 23.6288,9.11811 29.0356,17.14672 l 2.4877,3.69398 13.6413,-10.65972 c 7.5026,-5.86283 14.8384,-11.05476 16.3015,-11.53774 3.73291,-1.23187 7.4539,-0.31517 10.30809,2.53872 4.32523,4.32522 5.90042,11.29395 3.3696,14.90723 -0.63309,0.90384 -7.56539,9.00355 -15.40459,17.9984 -7.8391,8.99494 -14.5286,16.87204 -14.8656,17.50463 -0.394,0.73992 1.276,6.07304 4.6827,14.95233 9.8611,25.70269 11.3257,29.89378 12.5157,35.81485 1.06601,5.30368 1.1879,61.66299 1.1879,549.0879 0,540.75708 -0.01,543.20428 -1.5344,549.17678 -1.8869,7.3777 -4.264,11.5479 -8.9171,15.6438 -6.5877,5.7986 1.0571,5.446 -116.7825,5.3863 -88.639671,-0.045 -106.047759,-0.2264 -109.005809,-1.1377 z m 217.453509,-7.1445 c 6.9482,-3.1736 10.5765,-9.7165 12.1207,-21.8573 l 0.8658,-6.8059 -5.5222,-5.0793 c -3.8693,-3.5589 -6.0974,-6.3416 -7.4442,-9.2965 l -1.9219,-4.2173 -0.01,-534.47091 c -0.01,-482.50479 0.1086,-534.63669 1.1861,-536.17512 0.6566,-0.93735 1.4981,-1.70426 1.8704,-1.70426 0.3722,0 2.2909,1.39724 4.2639,3.10485 1.973,1.70761 3.7202,2.9719 3.8826,2.80952 0.4945,-0.49449 -2.6387,-8.95591 -4.419,-11.93442 -1.727,-2.88949 -8.5635,-11.24984 -10.6138,-12.97964 -3.2634,-2.75318 -9.0712,-5.52366 -11.5932,-5.53018 -3.4829,-0.009 -6.3948,2.54914 -7.5218,6.608 -0.49,1.76385 -0.826,11.01754 -0.8287,22.79102 v 19.82139 l -2.6071,2.6071 -2.607,2.60701 h -77.2154 -77.215318 l -2.607101,-2.60701 -2.607011,-2.6071 -0.004,-19.82139 c -0.003,-11.77348 -0.338709,-21.02717 -0.82867,-22.79102 -1.12699,-4.05886 -4.039029,-6.61715 -7.521808,-6.608 -2.522061,0.007 -8.329832,2.777 -11.593261,5.53018 -2.050309,1.7298 -8.886809,10.09015 -10.61389,12.97964 -1.78024,2.97851 -4.91325,11.44011 -4.41886,11.93442 0.16212,0.16211 1.90948,-1.10191 3.882539,-2.80952 1.973051,-1.70761 3.891862,-3.10485 4.26399,-3.10485 0.372222,0 1.213851,0.76709 1.870351,1.70426 1.07764,1.53843 1.192929,53.67033 1.18614,536.17512 l -0.008,534.47091 -1.921979,4.2173 c -1.34661,2.9549 -3.57479,5.7376 -7.444101,9.2965 l -5.52212,5.0793 0.8658,6.8059 c 1.54414,12.1408 5.17236,18.6837 12.12062,21.8573 2.922719,1.335 8.013131,1.4009 108.116829,1.4009 100.10386,0 105.19415,-0.063 108.11686,-1.4009 z M 52.20299,1371.4665 v -1.9169 h 87.79697 87.79706 v 1.9169 1.917 H 139.99996 52.20299 Z m 47.94091,-28.0511 c -0.785199,-2.0466 -0.0543,-67.7971 0.74988,-67.7971 1.04141,0 1.45176,67.0989 0.4166,68.134 -0.48815,0.4882 -0.89478,0.3713 -1.16666,-0.3369 z m 78.21217,0 c -0.7852,-2.0466 -0.0543,-67.7971 0.74988,-67.7971 1.04141,0 1.45176,67.0989 0.4166,68.134 -0.48815,0.4882 -0.89479,0.3713 -1.16666,-0.3369 z M 59.87088,854.65285 c 0,-325.37294 0.256302,-488.82614 0.76709,-488.82614 0.510792,0 0.767091,163.4532 0.767091,488.82614 0,325.37275 -0.256299,488.82605 -0.767091,488.82605 -0.510788,0 -0.76709,-163.4533 -0.76709,-488.82605 z m 78.9789,455.08745 c 0,-21.9812 0.26716,-33.7386 0.76708,-33.7386 0.49992,0 0.76709,11.7574 0.76709,33.7386 0,21.9812 -0.26717,33.7386 -0.76709,33.7386 -0.49992,0 -0.76708,-11.7574 -0.76708,-33.7386 z m 79.74584,-455.08745 c 0,-325.37294 0.2563,-488.82614 0.767,-488.82614 0.5108,0 0.7671,163.4532 0.7671,488.82614 0,325.37275 -0.2563,488.82605 -0.7671,488.82605 -0.5098,0 -0.767,-163.4533 -0.767,-488.82605 z M 94.721582,1248.0954 c -3.08955,-1.3586 -6.31005,-5.275 -6.86376,-8.3469 -0.24453,-1.3582 -0.345062,-29.9623 -0.22189,-63.5648 0.220078,-60.3345 0.242718,-61.1216 1.803879,-63.2124 0.869431,-1.1644 2.53375,-2.8286 3.698409,-3.6982 2.082102,-1.5544 2.866401,-1.5809 46.86201,-1.5809 43.99561,0 44.77999,0.027 46.86209,1.5809 1.1646,0.8694 2.8289,2.5339 3.6984,3.6985 1.5669,2.0985 1.581,2.6826 1.581,65.2649 0,62.5823 -0.018,63.1664 -1.581,65.2649 -0.8694,1.1646 -2.5335,2.8289 -3.6979,3.6985 -2.07372,1.5486 -3.01125,1.5844 -45.95975,1.7523 -35.27852,0.1377 -44.299639,-0.027 -46.181218,-0.8567 z m 86.464918,-6.6316 c 2.38078,-0.6611 2.9767,-1.2572 3.63792,-3.6379 1.08434,-3.9042 1.08434,-115.2746 0,-119.1788 -0.66113,-2.3807 -1.25714,-2.9767 -3.63792,-3.6379 -3.86179,-1.0725 -78.51121,-1.0725 -82.372999,0 -2.380779,0.6611 -2.97679,1.2572 -3.63801,3.6379 -1.087779,3.9168 -1.08398,115.2756 0.004,119.1935 0.63124,2.273 1.300879,3.0082 3.25456,3.573 3.473639,1.0043 79.151519,1.0502 82.752299,0.054 z m -81.04079,-160.2892 c -0.790628,-2.0699 -0.0543,-116.47861 0.74807,-116.67974 1.04214,-0.26083 1.45276,115.98064 0.41388,117.01994 -0.48452,0.4845 -0.89206,0.365 -1.16159,-0.3406 z m 78.21217,0 c -0.79064,-2.0699 -0.0543,-116.47861 0.74807,-116.67974 1.04213,-0.26083 1.45276,115.98064 0.41388,117.01994 -0.48452,0.4845 -0.89207,0.365 -1.16159,-0.3406 z m -39.5081,-58.2123 c 0,-38.33924 0.26264,-58.27572 0.76708,-58.27572 0.50445,0 0.76709,19.93648 0.76709,58.27572 0,38.3393 -0.26264,58.2758 -0.76709,58.2758 -0.50444,0 -0.76708,-19.9365 -0.76708,-58.2758 z M 94.721582,936.78026 c -3.08955,-1.35859 -6.31005,-5.27497 -6.86376,-8.34687 -0.24453,-1.35821 -0.345062,-29.96234 -0.22189,-63.56477 0.220078,-60.3345 0.242718,-61.1216 1.803879,-63.21247 0.869431,-1.16441 2.53375,-2.82864 3.698409,-3.69816 2.082102,-1.55446 2.866401,-1.58089 46.86201,-1.58089 43.99561,0 44.77999,0.0272 46.86209,1.58089 1.1646,0.86944 2.8289,2.53386 3.6984,3.69853 1.5669,2.09857 1.581,2.68253 1.581,65.26485 0,62.58232 -0.018,63.16638 -1.581,65.26495 -0.8694,1.16457 -2.5335,2.8289 -3.6979,3.69843 -2.07372,1.54866 -3.01125,1.58443 -45.95975,1.75233 -35.27852,0.13767 -44.299639,-0.0272 -46.181218,-0.85674 z m 86.464918,-6.63157 c 2.38078,-0.66112 2.9767,-1.25722 3.63792,-3.63792 1.08434,-3.90416 1.08434,-115.27464 0,-119.17873 -0.66113,-2.38077 -1.25714,-2.97677 -3.63792,-3.63799 -3.86179,-1.07257 -78.51121,-1.07257 -82.372999,0 -2.380779,0.66111 -2.97679,1.25722 -3.63801,3.63799 -1.087779,3.91679 -1.08398,115.27555 0.004,119.19342 0.63124,2.27301 1.300879,3.0082 3.25456,3.57306 3.473639,1.00436 79.151519,1.05019 82.752299,0.0543 z M 100.14571,770.62632 c -0.790628,-2.06997 -0.0543,-116.47864 0.74807,-116.67988 1.04214,-0.25993 1.45276,115.98069 0.41388,117.02002 -0.48452,0.48454 -0.89206,0.365 -1.16159,-0.34051 z m 78.21217,0 c -0.79064,-2.06997 -0.0543,-116.47864 0.74807,-116.67988 1.04213,-0.25993 1.45276,115.98069 0.41388,117.02002 -0.48452,0.48454 -0.89207,0.365 -1.16159,-0.34051 z m -39.5081,-58.21231 c 0,-38.33934 0.26264,-58.27575 0.76708,-58.27575 0.50445,0 0.76709,19.93641 0.76709,58.27575 0,38.33929 -0.26264,58.2757 -0.76709,58.2757 -0.50444,0 -0.76708,-19.93641 -0.76708,-58.2757 z M 94.721582,626.99873 c -3.08955,-1.35866 -6.31005,-5.27497 -6.86376,-8.34691 -0.24453,-1.35821 -0.345062,-29.96237 -0.22189,-63.56472 0.220078,-60.33447 0.242718,-61.12166 1.803879,-63.21245 0.869431,-1.16448 2.53375,-2.82863 3.698409,-3.69813 2.082102,-1.55456 2.866401,-1.58102 46.86201,-1.58102 43.99561,0 44.77999,0.0272 46.86209,1.58102 1.1646,0.86942 2.8289,2.53381 3.6984,3.6984 1.5669,2.09856 1.581,2.68263 1.581,65.26495 0,62.58232 -0.018,63.16628 -1.581,65.26488 -0.8694,1.16467 -2.5335,2.8289 -3.6979,3.69848 -2.07372,1.54868 -3.01125,1.58445 -45.95975,1.75236 -35.27852,0.13766 -44.299639,-0.0272 -46.181218,-0.85675 z m 86.464918,-6.63154 c 2.38078,-0.66111 2.9767,-1.25722 3.63792,-3.63799 1.08434,-3.90409 1.08434,-115.27465 0,-119.17873 -0.66113,-2.38078 -1.25714,-2.9767 -3.63792,-3.63792 -3.86179,-1.07257 -78.51121,-1.07257 -82.372999,0 -2.380779,0.66112 -2.97679,1.25714 -3.63801,3.63792 -1.087779,3.91676 -1.08398,115.27554 0.004,119.19339 0.63124,2.27308 1.300879,3.00823 3.25456,3.57309 3.473639,1.00436 79.151519,1.05026 82.752299,0.0543 z M 100.14508,460.0779 c -0.787919,-2.05991 -0.0543,-94.24168 0.74897,-94.443 1.04214,-0.25993 1.45321,93.74347 0.41479,94.78217 -0.48543,0.48543 -0.89297,0.36679 -1.16331,-0.33872 z m 78.21216,0 c -0.78791,-2.05991 -0.0543,-94.24168 0.74898,-94.443 1.04213,-0.25993 1.45321,93.74347 0.41479,94.78217 -0.48543,0.48543 -0.89298,0.36679 -1.16331,-0.33872 z m -39.50746,-47.09385 c 0,-30.92704 0.26354,-47.15734 0.76708,-47.15734 0.50264,0 0.76709,16.2303 0.76709,47.15734 0,30.92704 -0.26354,47.15734 -0.76709,47.15734 -0.50263,0 -0.76708,-16.2303 -0.76708,-47.15734 z M 52.586361,275.87838 c 38.20468,-11.91522 110.468799,-13.88167 157.191159,-4.27749 14.2184,2.92272 22.0258,5.3246 29.7129,9.14075 3.2685,1.62257 5.9395,2.71134 5.9356,2.41945 -0.018,-1.40458 -8.6707,-18.22581 -11.5785,-22.51099 -5.3649,-7.9059 -13.8726,-15.79232 -20.1805,-18.70671 -11.4022,-5.26818 -12.1214,-5.32008 -73.66706,-5.32008 -61.545718,0 -62.2648,0.0543 -73.667058,5.32008 -6.307781,2.91439 -14.815582,10.80081 -20.18039,18.70671 -2.907872,4.28518 -11.559932,21.10641 -11.57859,22.51099 -0.004,0.29162 2.667148,-0.79697 5.935559,-2.41945 3.268498,-1.62257 8.703051,-3.81108 12.07688,-4.86326 z m -13.188752,-25.94397 2.567252,-6.6253 -13.61703,-10.62738 C 20.85845,226.83665 13.80966,221.71636 12.68384,221.3032 c -1.77073,-0.65026 -2.29474,-0.46279 -3.8840703,1.38456 -1.0104401,1.17473 -1.8371201,2.91222 -1.8371201,3.86107 0,2.21776 1.0185,3.54038 15.6852704,20.36804 l 12.234831,14.03726 0.97376,-2.19721 c 0.535238,-1.20841 2.129099,-5.17861 3.541098,-8.82251 z M 257.42902,246.8283 c 14.58479,-16.73338 15.60831,-18.06315 15.60831,-20.27947 0,-0.94885 -0.8268,-2.68634 -1.83711,-3.86107 -1.5893,-1.84762 -2.11331,-2.03446 -3.88408,-1.38456 -1.12581,0.41298 -8.19292,5.54776 -15.70462,11.41023 l -13.6577,10.65908 1.3437,3.14307 c 0.739,1.72871 2.2795,5.64475 3.4233,8.70223 1.1437,3.05758 2.1855,5.55926 2.315,5.55926 0.1295,0 5.7064,-6.27699 12.3932,-13.94877 z"
       id="path1817"
       inkscape:connector-curvature="0" />
  </g>
</svg>
