<?xml version="1.0" encoding="UTF-8" standalone="no"?>
<!-- Created with Inkscape (http://www.inkscape.org/) -->

<svg
   xmlns:dc="http://purl.org/dc/elements/1.1/"
   xmlns:cc="http://creativecommons.org/ns#"
   xmlns:rdf="http://www.w3.org/1999/02/22-rdf-syntax-ns#"
   xmlns:svg="http://www.w3.org/2000/svg"
   xmlns="http://www.w3.org/2000/svg"
   xmlns:xlink="http://www.w3.org/1999/xlink"
   xmlns:sodipodi="http://sodipodi.sourceforge.net/DTD/sodipodi-0.dtd"
   xmlns:inkscape="http://www.inkscape.org/namespaces/inkscape"
   version="1.1"
   id="svg915"
   width="250"
   height="440"
   viewBox="0 0 250 440.00001"
   sodipodi:docname="car-simple02_yellow.svg"
   enable-background="new"
   inkscape:version="0.92.3 (2405546, 2018-03-11)"
   inkscape:export-filename="/mnt/Daten/Dokumente/OSM/Kartenstile/Daten/Straßenraumkarte/symbols/cars/colored/car-police_silver2.png"
   inkscape:export-xdpi="180"
   inkscape:export-ydpi="180">
  <metadata
     id="metadata921">
    <rdf:RDF>
      <cc:Work
         rdf:about="">
        <dc:format>image/svg+xml</dc:format>
        <dc:type
           rdf:resource="http://purl.org/dc/dcmitype/StillImage" />
        <dc:title></dc:title>
      </cc:Work>
    </rdf:RDF>
  </metadata>
  <defs
     id="defs919">
    <linearGradient
       inkscape:collect="always"
       id="linearGradient1158">
      <stop
         style="stop-color:#ffffff;stop-opacity:1;"
         offset="0"
         id="stop1154" />
      <stop
         style="stop-color:#ffffff;stop-opacity:0;"
         offset="1"
         id="stop1156" />
    </linearGradient>
    <linearGradient
       inkscape:collect="always"
       id="linearGradient1140">
      <stop
         style="stop-color:#000000;stop-opacity:1;"
         offset="0"
         id="stop1136" />
      <stop
         style="stop-color:#000000;stop-opacity:0;"
         offset="1"
         id="stop1138" />
    </linearGradient>
    <linearGradient
       inkscape:collect="always"
       id="linearGradient1114">
      <stop
         style="stop-color:#ffffff;stop-opacity:1;"
         offset="0"
         id="stop1110" />
      <stop
         style="stop-color:#ffffff;stop-opacity:0;"
         offset="1"
         id="stop1112" />
    </linearGradient>
    <linearGradient
       inkscape:collect="always"
       id="linearGradient1042">
      <stop
         style="stop-color:#000000;stop-opacity:1;"
         offset="0"
         id="stop1038" />
      <stop
         style="stop-color:#000000;stop-opacity:0;"
         offset="1"
         id="stop1040" />
    </linearGradient>
    <linearGradient
       inkscape:collect="always"
       id="linearGradient998">
      <stop
         style="stop-color:#000000;stop-opacity:1;"
         offset="0"
         id="stop994" />
      <stop
         style="stop-color:#000000;stop-opacity:0;"
         offset="1"
         id="stop996" />
    </linearGradient>
    <linearGradient
       inkscape:collect="always"
       xlink:href="#linearGradient998"
       id="linearGradient1000"
       x1="33.941124"
       y1="219.73625"
       x2="101.11626"
       y2="219.73625"
       gradientUnits="userSpaceOnUse"
       gradientTransform="matrix(0.96315788,0,0,0.99594813,3.7253359,1.0671181)" />
    <linearGradient
       inkscape:collect="always"
       xlink:href="#linearGradient1042"
       id="linearGradient1044"
       x1="36.459135"
       y1="220.09034"
       x2="101.61626"
       y2="220.09034"
       gradientUnits="userSpaceOnUse" />
    <linearGradient
       inkscape:collect="always"
       xlink:href="#linearGradient1114"
       id="linearGradient1116"
       x1="143.92148"
       y1="89.50001"
       x2="208.07851"
       y2="89.50001"
       gradientUnits="userSpaceOnUse"
       gradientTransform="matrix(-1,0,0,1,356.68513,128.98109)" />
    <linearGradient
       inkscape:collect="always"
       xlink:href="#linearGradient1140"
       id="linearGradient1142"
       x1="78.056778"
       y1="2.875"
       x2="127.98632"
       y2="114.02378"
       gradientUnits="userSpaceOnUse" />
    <linearGradient
       inkscape:collect="always"
       xlink:href="#linearGradient1158"
       id="linearGradient1160"
       x1="174.28847"
       y1="435.91644"
       x2="99.75"
       y2="336"
       gradientUnits="userSpaceOnUse" />
    <linearGradient
       inkscape:collect="always"
       xlink:href="#linearGradient1114"
       id="linearGradient5408"
       gradientUnits="userSpaceOnUse"
       gradientTransform="matrix(-1,0,0,1,356.68513,128.98109)"
       x1="143.92148"
       y1="89.50001"
       x2="208.07851"
       y2="89.50001" />
    <linearGradient
       inkscape:collect="always"
       xlink:href="#linearGradient1042"
       id="linearGradient5425"
       gradientUnits="userSpaceOnUse"
       x1="36.459135"
       y1="220.09034"
       x2="101.61626"
       y2="220.09034" />
    <linearGradient
       inkscape:collect="always"
       xlink:href="#linearGradient1114"
       id="linearGradient5427"
       gradientUnits="userSpaceOnUse"
       gradientTransform="matrix(-1,0,0,1,356.68513,128.98109)"
       x1="143.92148"
       y1="89.50001"
       x2="208.07851"
       y2="89.50001" />
    <linearGradient
       inkscape:collect="always"
       xlink:href="#linearGradient1140"
       id="linearGradient5429"
       gradientUnits="userSpaceOnUse"
       x1="78.056778"
       y1="2.875"
       x2="127.98632"
       y2="114.02378" />
    <linearGradient
       inkscape:collect="always"
       xlink:href="#linearGradient1158"
       id="linearGradient5431"
       gradientUnits="userSpaceOnUse"
       x1="174.28847"
       y1="435.91644"
       x2="99.75"
       y2="336" />
    <linearGradient
       inkscape:collect="always"
       xlink:href="#linearGradient1042"
       id="linearGradient5453"
       gradientUnits="userSpaceOnUse"
       x1="36.459135"
       y1="220.09034"
       x2="101.61626"
       y2="220.09034" />
    <linearGradient
       inkscape:collect="always"
       xlink:href="#linearGradient1114"
       id="linearGradient5455"
       gradientUnits="userSpaceOnUse"
       gradientTransform="matrix(-1,0,0,1,356.68513,128.98109)"
       x1="143.92148"
       y1="89.50001"
       x2="208.07851"
       y2="89.50001" />
    <linearGradient
       inkscape:collect="always"
       xlink:href="#linearGradient1140"
       id="linearGradient5457"
       gradientUnits="userSpaceOnUse"
       x1="78.056778"
       y1="2.875"
       x2="127.98632"
       y2="114.02378" />
    <linearGradient
       inkscape:collect="always"
       xlink:href="#linearGradient1158"
       id="linearGradient5459"
       gradientUnits="userSpaceOnUse"
       x1="174.28847"
       y1="435.91644"
       x2="99.75"
       y2="336" />
  </defs>
  <sodipodi:namedview
     pagecolor="#ffffff"
     bordercolor="#666666"
     borderopacity="1"
     objecttolerance="10"
     gridtolerance="10"
     guidetolerance="10"
     inkscape:pageopacity="0"
     inkscape:pageshadow="2"
     inkscape:window-width="1920"
     inkscape:window-height="1053"
     id="namedview917"
     showgrid="false"
     inkscape:zoom="1.4142136"
     inkscape:cx="51.362936"
     inkscape:cy="216.24912"
     inkscape:window-x="0"
     inkscape:window-y="27"
     inkscape:window-maximized="1"
     inkscape:current-layer="layer11" />
  <g
     inkscape:groupmode="layer"
     id="layer1"
     inkscape:label="colour yellow"
     style="display:inline"
     transform="translate(0,252.16)">
    <path
       style="opacity:1;fill:#c3b992;fill-opacity:1;stroke:none;stroke-width:158.1675415;stroke-miterlimit:4;stroke-dasharray:none;stroke-opacity:1"
       d="m 41.799112,-229.14884 13.058811,-14.34362 23.198854,-5.79254 97.470493,-0.22335 20.56187,7.15899 11.83463,11.59182 5.29056,18.22539 0.88388,86.08793 33.60369,38.355389 -7.99358,10.73754 -26.31721,-17.826946 -0.70711,248.721167 -7.83478,16.01549 -13.72812,11.15457 -15.70189,4.47536 -99.984798,0.17678 L 57.330287,179.61471 43.384039,166.74293 37.537656,152.03986 35.834229,-94.724553 9.1978028,-77.557958 2.5,-87.608457 l 33.709229,-40.711173 0.75,-80.48646 z"
       id="rect1478"
       inkscape:connector-curvature="0"
       sodipodi:nodetypes="ccccccccccccccccccccccccc" />
  </g>
  <g
     transform="translate(0,252.16)"
     style="display:none"
     inkscape:label="colour white"
     id="g2173"
     inkscape:groupmode="layer">
    <path
       sodipodi:nodetypes="ccccccccccccccccccccccccc"
       inkscape:connector-curvature="0"
       id="path2171"
       d="m 41.799112,-229.14884 13.058811,-14.34362 23.198854,-5.79254 97.470493,-0.22335 20.56187,7.15899 11.83463,11.59182 5.29056,18.22539 0.88388,86.08793 33.60369,38.355389 -7.99358,10.73754 -26.31721,-17.826946 -0.70711,248.721167 -7.83478,16.01549 -13.72812,11.15457 -15.70189,4.47536 -99.984798,0.17678 L 57.330287,179.61471 43.384039,166.74293 37.537656,152.03986 35.834229,-94.724553 9.1978028,-77.557958 2.5,-87.608457 l 33.709229,-40.711173 0.75,-80.48646 z"
       style="opacity:1;fill:#d5d5d5;fill-opacity:1;stroke:none;stroke-width:158.1675415;stroke-miterlimit:4;stroke-dasharray:none;stroke-opacity:1" />
  </g>
  <g
     transform="translate(0,252.16)"
     style="display:none"
     inkscape:label="colour silver"
     id="g2177"
     inkscape:groupmode="layer">
    <path
       sodipodi:nodetypes="ccccccccccccccccccccccccc"
       inkscape:connector-curvature="0"
       id="path2175"
       d="m 41.799112,-229.14884 13.058811,-14.34362 23.198854,-5.79254 97.470493,-0.22335 20.56187,7.15899 11.83463,11.59182 5.29056,18.22539 0.88388,86.08793 33.60369,38.355389 -7.99358,10.73754 -26.31721,-17.826946 -0.70711,248.721167 -7.83478,16.01549 -13.72812,11.15457 -15.70189,4.47536 -99.984798,0.17678 L 57.330287,179.61471 43.384039,166.74293 37.537656,152.03986 35.834229,-94.724553 9.1978028,-77.557958 2.5,-87.608457 l 33.709229,-40.711173 0.75,-80.48646 z"
       style="opacity:1;fill:#bababa;fill-opacity:1;stroke:none;stroke-width:158.1675415;stroke-miterlimit:4;stroke-dasharray:none;stroke-opacity:1" />
  </g>
  <g
     inkscape:groupmode="layer"
     id="g2181"
     inkscape:label="colour red"
     style="display:none"
     transform="translate(0,252.16)">
    <path
       style="opacity:1;fill:#a99492;fill-opacity:1;stroke:none;stroke-width:158.1675415;stroke-miterlimit:4;stroke-dasharray:none;stroke-opacity:1"
       d="m 41.799112,-229.14884 13.058811,-14.34362 23.198854,-5.79254 97.470493,-0.22335 20.56187,7.15899 11.83463,11.59182 5.29056,18.22539 0.88388,86.08793 33.60369,38.355389 -7.99358,10.73754 -26.31721,-17.826946 -0.70711,248.721167 -7.83478,16.01549 -13.72812,11.15457 -15.70189,4.47536 -99.984798,0.17678 L 57.330287,179.61471 43.384039,166.74293 37.537656,152.03986 35.834229,-94.724553 9.1978028,-77.557958 2.5,-87.608457 l 33.709229,-40.711173 0.75,-80.48646 z"
       id="path2179"
       inkscape:connector-curvature="0"
       sodipodi:nodetypes="ccccccccccccccccccccccccc" />
  </g>
  <g
     transform="translate(0,252.16)"
     style="display:none"
     inkscape:label="colour green"
     id="g2185"
     inkscape:groupmode="layer">
    <path
       sodipodi:nodetypes="ccccccccccccccccccccccccc"
       inkscape:connector-curvature="0"
       id="path2183"
       d="m 41.799112,-229.14884 13.058811,-14.34362 23.198854,-5.79254 97.470493,-0.22335 20.56187,7.15899 11.83463,11.59182 5.29056,18.22539 0.88388,86.08793 33.60369,38.355389 -7.99358,10.73754 -26.31721,-17.826946 -0.70711,248.721167 -7.83478,16.01549 -13.72812,11.15457 -15.70189,4.47536 -99.984798,0.17678 L 57.330287,179.61471 43.384039,166.74293 37.537656,152.03986 35.834229,-94.724553 9.1978028,-77.557958 2.5,-87.608457 l 33.709229,-40.711173 0.75,-80.48646 z"
       style="opacity:1;fill:#95a692;fill-opacity:1;stroke:none;stroke-width:158.1675415;stroke-miterlimit:4;stroke-dasharray:none;stroke-opacity:1" />
  </g>
  <g
     inkscape:groupmode="layer"
     id="g2189"
     inkscape:label="colour gray"
     style="display:none"
     transform="translate(0,252.16)">
    <path
       style="opacity:1;fill:#9b9b9a;fill-opacity:1;stroke:none;stroke-width:158.1675415;stroke-miterlimit:4;stroke-dasharray:none;stroke-opacity:1"
       d="m 41.799112,-229.14884 13.058811,-14.34362 23.198854,-5.79254 97.470493,-0.22335 20.56187,7.15899 11.83463,11.59182 5.29056,18.22539 0.88388,86.08793 33.60369,38.355389 -7.99358,10.73754 -26.31721,-17.826946 -0.70711,248.721167 -7.83478,16.01549 -13.72812,11.15457 -15.70189,4.47536 -99.984798,0.17678 L 57.330287,179.61471 43.384039,166.74293 37.537656,152.03986 35.834229,-94.724553 9.1978028,-77.557958 2.5,-87.608457 l 33.709229,-40.711173 0.75,-80.48646 z"
       id="path2187"
       inkscape:connector-curvature="0"
       sodipodi:nodetypes="ccccccccccccccccccccccccc" />
  </g>
  <g
     transform="translate(0,252.16)"
     style="display:none"
     inkscape:label="colour dark blue"
     id="g2193"
     inkscape:groupmode="layer">
    <path
       sodipodi:nodetypes="ccccccccccccccccccccccccc"
       inkscape:connector-curvature="0"
       id="path2191"
       d="m 41.799112,-229.14884 13.058811,-14.34362 23.198854,-5.79254 97.470493,-0.22335 20.56187,7.15899 11.83463,11.59182 5.29056,18.22539 0.88388,86.08793 33.60369,38.355389 -7.99358,10.73754 -26.31721,-17.826946 -0.70711,248.721167 -7.83478,16.01549 -13.72812,11.15457 -15.70189,4.47536 -99.984798,0.17678 L 57.330287,179.61471 43.384039,166.74293 37.537656,152.03986 35.834229,-94.724553 9.1978028,-77.557958 2.5,-87.608457 l 33.709229,-40.711173 0.75,-80.48646 z"
       style="opacity:1;fill:#9494a8;fill-opacity:1;stroke:none;stroke-width:158.1675415;stroke-miterlimit:4;stroke-dasharray:none;stroke-opacity:1" />
  </g>
  <g
     inkscape:groupmode="layer"
     id="g2197"
     inkscape:label="colour black"
     style="display:none"
     transform="translate(0,252.16)">
    <path
       style="opacity:1;fill:#777777;fill-opacity:1;stroke:none;stroke-width:158.1675415;stroke-miterlimit:4;stroke-dasharray:none;stroke-opacity:1"
       d="m 41.799112,-229.14884 13.058811,-14.34362 23.198854,-5.79254 97.470493,-0.22335 20.56187,7.15899 11.83463,11.59182 5.29056,18.22539 0.88388,86.08793 33.60369,38.355389 -7.99358,10.73754 -26.31721,-17.826946 -0.70711,248.721167 -7.83478,16.01549 -13.72812,11.15457 -15.70189,4.47536 -99.984798,0.17678 L 57.330287,179.61471 43.384039,166.74293 37.537656,152.03986 35.834229,-94.724553 9.1978028,-77.557958 2.5,-87.608457 l 33.709229,-40.711173 0.75,-80.48646 z"
       id="path2195"
       inkscape:connector-curvature="0"
       sodipodi:nodetypes="ccccccccccccccccccccccccc" />
  </g>
  <g
     inkscape:groupmode="layer"
     id="layer6"
     inkscape:label="shadow"
     style="display:inline;opacity:0.1">
    <path
       style="fill:url(#linearGradient1044);fill-opacity:1;stroke:none;stroke-width:1px;stroke-linecap:butt;stroke-linejoin:miter;stroke-opacity:1"
       d="M 101.11626,2.6544676 V 437.1716 L 75.434412,437.52513 57.330287,431.77471 43.384039,418.90293 37.537656,404.19986 36.959229,43.35391 41.799112,23.01116 54.857923,8.66754 78.056777,2.875 101.11626,2.6544676"
       id="path1020"
       inkscape:connector-curvature="0" />
    <path
       style="display:inline;opacity:0.5;fill:url(#linearGradient5408);fill-opacity:1;stroke:none;stroke-width:1px;stroke-linecap:butt;stroke-linejoin:miter;stroke-opacity:1"
       d="M 148.60662,1.04577 V 435.5629 l 25.68185,0.35353 18.10412,-5.75042 13.94625,-12.87178 5.84638,-14.70307 L 212.76365,41.745211 207.92377,21.40246 194.86496,7.05884 171.6661,1.2663 148.60662,1.04577"
       id="path1020-2"
       inkscape:connector-curvature="0" />
    <path
       style="fill:url(#linearGradient1142);fill-opacity:1;stroke:#000000;stroke-width:1px;stroke-linecap:butt;stroke-linejoin:miter;stroke-opacity:1"
       d="m 60.104075,126.7517 35.001785,-10.96015 32.88046,-1.76777 38.18377,5.3033 24.39518,9.19239 22.27387,18.03122 L 212.76365,41.745211 207.92377,21.40246 194.86496,7.05884 171.6661,1.2663 78.056777,2.875 57.452425,8.8416512 41.799112,23.01116 l -4.839883,20.34275 0.29077,99.1461 z"
       id="path1134"
       inkscape:connector-curvature="0" />
    <path
       style="fill:url(#linearGradient1160);fill-opacity:1;stroke:#000000;stroke-width:1px;stroke-linecap:butt;stroke-linejoin:miter;stroke-opacity:1"
       d="m 37.749999,380.25 -0.212343,23.94986 5.846383,14.70307 13.946248,12.87178 18.104125,5.75042 98.854058,-1.6087 18.10412,-5.75042 12.45663,-8.44759 L 212.684,405.70293 212.75,381.75 199.5,348.25 191.25,334 180,327.25 150.25,336 H 99.749997 l -32.499999,-7.5 -13.249999,10.75 z"
       id="path1144"
       inkscape:connector-curvature="0" />
  </g>
  <g
     inkscape:groupmode="layer"
     id="layer8"
     inkscape:label="car-simple02"
     style="display:inline">
    <g
       inkscape:groupmode="layer"
       id="layer7"
       inkscape:label="windows car-simple02"
       style="display:inline">
      <g
         id="g907"
         style="fill:#000000;fill-opacity:0.15686275;stroke:none">
        <path
           inkscape:connector-curvature="0"
           id="path874"
           d="m 37.249999,142.50001 2.75,14.93543 6.5,20.31456 L 60.25,211.5 h 128 l 16.05861,-33.79939 8.53053,-31.14992 -9.08915,-11.55068 -13.18472,-6.48054 -21.92559,-8.94832 -26.33144,-5.2299 -35.88844,0.0613 -24.744414,5.0384 -21.571311,7.31075 z"
           style="fill:#000000;fill-opacity:0.15686275;stroke:none;stroke-width:1px;stroke-linecap:butt;stroke-linejoin:miter;stroke-opacity:1" />
        <path
           inkscape:connector-curvature="0"
           id="path876"
           d="m 67.249998,328.5 -13.249999,10.75 -7.5,17 -8.75,24 -0.212343,23.94986 5.846383,14.70307 13.946248,12.87178 18.104125,5.75042 98.854058,-1.6087 18.10412,-5.75042 12.45663,-8.44759 L 212.684,405.70293 212.75,381.75 209.55861,368.7006 191.25,334 180,327.25 150.25,336 H 99.749997 Z"
           style="fill:#000000;fill-opacity:0.15686275;stroke:none;stroke-width:1px;stroke-linecap:butt;stroke-linejoin:miter;stroke-opacity:1" />
        <path
           inkscape:connector-curvature="0"
           id="path884"
           d="m 35.834229,157.43545 1.91577,222.81455 8.75,-24 7.5,-17 8.999999,-44.5 2,-34.25 -2,-29.99999 c 0,0 -5.249999,-24.5 -5.749999,-25.5 -0.5,-1 -10.75,-27.25001 -10.75,-27.25001 z"
           style="fill:#000000;fill-opacity:0.15686275;stroke:none;stroke-width:1px;stroke-linecap:butt;stroke-linejoin:miter;stroke-opacity:1" />
        <path
           inkscape:connector-curvature="0"
           id="path901"
           d="m 213.39111,156.98176 -9.0825,20.71885 -13.30861,31.0494 -5.5,34.75 1,43.74999 7.74999,49 5.25001,12 13.25,33.5 z"
           style="fill:#000000;fill-opacity:0.15686275;stroke:none;stroke-width:1px;stroke-linecap:butt;stroke-linejoin:miter;stroke-opacity:1" />
      </g>
    </g>
    <g
       inkscape:groupmode="layer"
       id="layer3"
       inkscape:label="type car-simple02"
       style="display:inline;opacity:1"
       transform="translate(0,252.16)">
      <path
         style="fill:#323232;fill-opacity:1;stroke-width:0.68086708"
         d="m 69.856262,187.10607 c -19.979349,-4.43468 -31.220354,-15.05066 -34.976097,-33.03135 -1.26303,-6.0468 -1.31209,-10.69799 -1.320754,-125.217695 -0.005,-65.415734 -0.175358,-118.937652 -0.378708,-118.937652 -0.203333,0 -3.825359,2.69777 -8.04894,5.995034 -9.177946,7.165074 -11.113895,8.216572 -15.127821,8.216572 -2.3080356,0 -3.5914584,-0.43844 -5.2016761,-1.77699 -4.16171759,-3.459561 -6.0350213,-9.901423 -3.93708763,-13.538722 0.45759793,-0.793372 6.53475393,-7.901895 13.50479173,-15.796727 6.970039,-7.89484 13.523784,-15.59493 14.563885,-17.11135 4.150203,-6.05076 4.135765,-5.89408 4.629646,-50.24234 0.431559,-38.75216 0.520355,-40.86397 1.946398,-46.28979 4.346962,-16.53937 13.791053,-25.6477 31.050991,-29.947 l 6.377941,-1.5887 52.403729,0.004 52.40372,0.004 6.56106,1.78834 c 17.82261,4.85789 26.73405,14.1127 30.85168,32.04045 0.50016,2.17774 0.9469,17.85528 1.25347,43.98831 0.52009,44.3374 0.50706,44.19668 4.65375,50.24233 1.0401,1.51643 7.59386,9.21653 14.5639,17.11136 6.96994,7.894831 13.04711,15.003358 13.50471,15.796729 2.09792,3.637298 0.22452,10.07916 -3.93708,13.538723 -1.61022,1.338548 -2.89367,1.776986 -5.20167,1.776986 -4.01386,0 -5.9498,-1.051497 -15.12776,-8.216568 -4.22357,-3.297267 -7.83987,-5.995037 -8.0362,-5.995037 -0.19628,0 -0.4417,54.58779 -0.54525,121.306285 -0.17617,113.446372 -0.26636,121.569292 -1.39308,125.366672 -3.61388,12.17984 -10.68787,20.86416 -21.04965,25.8414 -11.45206,5.50094 -8.16722,5.23895 -67.47407,5.38167 -39.783313,0.0957 -53.672164,-0.0784 -56.513828,-0.70933 z m 110.904648,-6.50823 c 18.83338,-4.46034 28.33967,-16.0774 29.335,-35.84848 0.41527,-8.24868 -0.62692,-14.39315 -4.41859,-26.05127 -6.16069,-18.94189 -16.72683,-36.279554 -23.69066,-38.873264 -1.6022,-0.596763 -3.12266,-0.320966 -9.07239,1.645603 -14.22396,4.701476 -30.45134,7.109192 -47.91422,7.109192 -17.46287,0 -33.690254,-2.407716 -47.914214,-7.109192 -5.943179,-1.964393 -7.471958,-2.242037 -9.072393,-1.647849 -4.442589,1.649673 -12.422899,11.821927 -16.177791,20.62141 -0.947951,2.22153 -2.489503,5.56176 -3.425677,7.42281 -2.2755,4.52352 -6.255321,16.91863 -7.7038,23.99339 -2.363633,11.54452 -0.18119,25.57848 5.293436,34.03901 4.512881,6.97423 12.621044,12.16603 22.892877,14.65865 5.104174,1.2386 8.318486,1.31688 55.765062,1.35859 48.1878,0.0421 50.59566,-0.014 56.10336,-1.3186 z m -72.20125,-76.51243 c -7.66975,-0.80942 -8.02409,-0.938 -7.75447,-2.81383 0.17624,-1.22608 0.62286,-1.50445 2.27435,-1.417433 1.13027,0.05945 6.52477,0.387583 11.98778,0.729073 5.84123,0.3651 14.28178,0.37746 20.49072,0.03 8.03933,-0.44983 10.67969,-0.39629 11.06813,0.22468 0.85584,1.36809 -0.0286,2.46933 -2.32046,2.88949 -4.11157,0.75375 -29.57952,1.00882 -35.74605,0.35803 z M 48.660661,91.552575 c 4.241478,-10.379451 9.077798,-32.271964 11.27131,-51.021726 1.542038,-13.18106 2.05041,-36.2083538 1.074831,-48.685672 -1.537083,-19.658758 -4.70076,-33.348551 -10.722179,-46.396784 -1.030586,-2.233252 -3.813664,-9.542084 -6.184615,-16.241842 l -4.310821,-12.181376 -0.0311,97.451061 -0.0311,97.451044 3.484127,-7.78257 c 1.916271,-4.280383 4.368557,-9.946865 5.449517,-12.592135 z m 161.607809,-78.260643 -0.0162,-98.296986 -4.02682,11.843005 c -2.21475,6.513653 -5.25804,14.601659 -6.76286,17.973335 -7.79726,17.470429 -11.08378,36.420723 -11.08429,63.9126432 -6.4e-4,35.2442858 5.78352,67.7147168 16.0368,90.0256748 2.01686,4.388606 4.03232,9.072816 4.47879,10.409316 0.44646,1.33648 0.94199,2.42995 1.10114,2.42995 0.15917,0 0.28215,-44.233615 0.27331,-98.296938 z m -67.78254,68.491927 c 8.73166,-1.060589 20.63239,-3.637822 29.34181,-6.354288 8.67012,-2.704202 10.87704,-2.610163 15.76564,0.671586 1.32292,0.888099 2.47277,1.546625 2.55523,1.463447 0.0825,-0.08309 -0.5909,-3.348873 -1.49634,-7.257039 C 184.5159,52.453556 182.19889,29.808128 182.19889,7.2351824 V -7.5179217 l -57.37009,3.274e-4 -57.370096,3.745e-4 -0.03307,17.7641598 c -0.04295,23.078104 -1.909826,41.241424 -6.13349,59.673987 -0.932089,4.067712 -1.603822,7.485651 -1.492729,7.59544 0.111095,0.11 1.388024,-0.596715 2.837641,-1.569842 4.762371,-3.197027 6.782616,-3.235971 16.2649,-0.313384 8.841386,2.725008 20.380813,5.221146 28.375084,6.137985 7.0453,0.80801 28.59747,0.815782 35.20887,0.0117 z M 84.042152,65.147738 C 83.452208,64.564902 83.38486,6.5697282 83.972365,5.0571792 c 0.630068,-1.6221278 2.923454,-1.3132146 3.357754,0.4521944 0.206023,0.837499 0.288962,14.6176644 0.18431,30.6226864 -0.187715,28.70899 -0.209072,29.102579 -1.588491,29.297607 -0.769022,0.109064 -1.616729,-0.01872 -1.883793,-0.281929 z M 110.43645,34.995689 c 0.1753,-30.1607569 0.20107,-30.6705725 1.5483,-30.6705725 1.34973,0 1.37003,0.4511177 1.37003,30.4534275 v 30.453449 l -1.5483,0.216959 -1.54831,0.217191 z m 24.92603,29.539957 c -0.23633,-0.608418 -0.4297,-14.138999 -0.4297,-30.067982 0,-24.8079611 0.14614,-29.0815375 1.01881,-29.7970534 0.56033,-0.4594262 1.48829,-0.6573328 2.06211,-0.4397666 0.91663,0.34746 1.02166,4.0750846 0.86499,30.698353 l -0.17834,30.302796 -1.45409,0.205024 c -0.85767,0.121 -1.63036,-0.248835 -1.88379,-0.901347 z m 26.4502,-29.587936 c 0.17527,-30.1128013 0.20108,-30.6225935 1.54827,-30.6225935 1.34722,0 1.373,0.5097922 1.54826,30.6225935 l 0.17824,30.622616 h -1.7265 -1.7265 z M 98.626932,-25.790011 V -37.97141 H 87.773239 c -5.969532,0 -14.083177,-0.195192 -18.03032,-0.433794 l -7.176634,-0.433789 1.527518,7.497635 c 0.840128,4.123714 1.745947,9.800522 2.012925,12.615181 l 0.485414,5.117569 h 16.017399 16.017391 z m 45.211058,0 V -37.97141 h -19.52295 -19.52296 v 12.181399 12.181403 h 19.52296 19.52295 z m 39.30234,9.981962 c 0.62373,-4.307189 3.2041,-19.823651 3.57556,-21.500831 l 0.37786,-1.70609 -5.70126,0.467987 c -3.13569,0.257375 -11.48108,0.492163 -18.54531,0.521768 l -12.84404,0.05369 v 12.181399 12.1814 h 16.40934 16.40934 z m -0.019,-28.890408 c 1.44926,-0.332249 3.36336,-1.280062 4.25356,-2.106256 3.86163,-3.584007 9.10012,-16.068641 16.70331,-39.80822 4.40062,-13.740167 5.15654,-18.589337 3.40935,-21.871007 -1.53897,-2.8907 -9.70466,-8.87488 -17.6459,-12.93176 -17.25483,-8.81483 -35.85266,-13.11497 -59.71288,-13.80666 -25.72549,-0.74575 -48.117998,3.2651 -66.979341,11.99708 -7.435291,3.44222 -16.339755,9.29389 -19.648937,12.91253 -2.575257,2.81607 -2.581876,2.83857 -2.245331,7.63699 0.424857,6.057572 11.105377,38.358656 15.845544,47.921656 3.51374,7.088754 5.389054,9.231398 8.771979,10.022428 3.173578,0.74208 114.019656,0.773477 117.248696,0.03326 z M 13.734631,-83.148471 c 0.969207,-0.648914 5.824258,-4.344781 10.788991,-8.213033 l 9.026809,-7.033185 -0.0045,-10.562131 -0.0045,-10.56214 -2.906893,3.37084 c -1.598796,1.85396 -7.488434,8.55373 -13.088096,14.88836 -5.599664,6.334625 -10.5136447,12.223196 -10.9199573,13.085705 -0.5828861,1.237345 -0.471572,2.05834 0.5275995,3.891272 1.459865,2.678073 3.6983388,3.063933 6.5803938,1.134312 z m 229.111209,-1.134312 c 0.99674,-1.82849 1.10992,-2.656935 0.53169,-3.891272 -0.40403,-0.862509 -5.57348,-7.019992 -11.48753,-13.683305 -5.91416,-6.66331 -11.57646,-13.13466 -12.58289,-14.38078 -1.00642,-1.24612 -2.06107,-2.26567 -2.34363,-2.26568 -0.28258,-2e-5 -0.51377,4.52453 -0.51377,10.05455 v 10.054581 l 9.0268,7.033185 c 11.4178,8.896127 12.1736,9.391928 14.32705,9.397333 1.32266,0.0033 2.09909,-0.588406 3.04228,-2.318612 z M 208.62578,-202.52952 c -2.14879,-6.10425 -5.46732,-11.50705 -9.11494,-14.83978 -5.36222,-4.89935 -4.98166,-8.28113 -4.98166,44.26951 v 46.91555 l 4.96636,3.111 c 2.73151,1.71106 6.19939,4.16571 7.70644,5.45477 l 2.74006,2.34378 0.17654,-41.25631 0.17656,-41.25631 z m -155.703136,77.61191 2.548277,-1.3382 v -47.25639 -47.25639 l -2.13175,1.22256 c -3.000651,1.72087 -6.271268,5.66886 -9.053058,10.92801 -4.689609,8.86598 -4.570557,7.50273 -4.570557,52.33658 v 40.47895 l 5.329405,-3.88847 c 2.931172,-2.13865 6.476131,-4.49065 7.877683,-5.22665 z m 24.022373,-10.14023 c 15.809377,-4.72402 34.625813,-6.88235 54.220183,-6.21931 21.62875,0.73189 39.00092,4.32378 56.00006,11.57861 1.13521,0.48449 1.19877,-2.00288 1.19877,-46.91107 v -47.42268 l -5.65137,-1.68464 c -3.10827,-0.92656 -7.96332,-2.19282 -10.789,-2.81391 -8.79521,-1.93321 -10.96027,-4.45542 -10.96027,-12.76829 v -5.10919 H 125.34256 89.721725 v 3.6375 c 0,5.43715 -0.625048,7.57668 -2.993017,10.24505 -1.951141,2.19866 -2.974077,2.62762 -11.339553,4.75511 -5.057227,1.28614 -10.220536,2.70482 -11.474022,3.1526 l -2.279064,0.81418 v 47.16219 47.1622 l 4.862455,-1.9549 c 2.674352,-1.07517 7.375273,-2.70574 10.446493,-3.62345 z M 50.09804,-224.71578 c 5.038814,-3.32416 12.810146,-6.30608 23.086694,-8.85852 9.591907,-2.3824 10.371847,-3.0551 10.371847,-8.94583 v -4.08279 l -5.410524,0.44578 c -6.507941,0.53618 -14.710648,2.52933 -19.704201,4.78785 -7.308819,3.30567 -13.613357,11.04093 -16.263409,19.95413 -1.634712,5.49819 -1.35006,6.00855 1.403664,2.51671 1.373091,-1.74113 4.30526,-4.35894 6.515929,-5.81733 z m 157.43694,2.4861 c -1.88801,-6.14128 -3.92835,-9.59842 -8.04984,-13.63965 -5.62289,-5.51338 -15.40715,-9.17709 -27.46501,-10.28421 l -4.89159,-0.44914 v 4.75153 c 0,3.27624 0.30163,4.99883 0.97152,5.54807 0.53434,0.43811 3.53985,1.39612 6.67891,2.12893 16.52898,3.85863 27.19938,9.02598 31.82299,15.41087 1.08353,1.49627 2.07506,2.42901 2.20343,2.07276 0.12835,-0.35625 -0.44332,-2.84887 -1.27041,-5.53916 z"
         id="path2151"
         inkscape:connector-curvature="0" />
    </g>
  </g>
  <g
     inkscape:groupmode="layer"
     id="layer9"
     inkscape:label="car-simple01"
     style="display:none">
    <g
       style="display:inline"
       inkscape:label="windows car-simple01"
       id="g3768"
       inkscape:groupmode="layer">
      <g
         style="fill:#000000;fill-opacity:0.15686275;stroke:none"
         id="g3766">
        <path
           style="fill:#000000;fill-opacity:0.15686275;stroke:none;stroke-width:1px;stroke-linecap:butt;stroke-linejoin:miter;stroke-opacity:1"
           d="m 37.249999,142.50001 2.75,14.93543 6.5,20.31456 L 60.25,211.5 125.2972,202.36827 188.25,211.5 l 16.05861,-33.79939 8.53053,-31.14992 -9.08915,-11.55068 -13.18472,-6.48054 -21.92559,-8.94832 -26.33144,-5.2299 -35.88844,0.0613 -24.744414,5.0384 -21.571311,7.31075 z"
           id="path3758"
           inkscape:connector-curvature="0"
           sodipodi:nodetypes="cccccccccccccccc" />
        <path
           style="fill:#000000;fill-opacity:0.15686275;stroke:none;stroke-width:1px;stroke-linecap:butt;stroke-linejoin:miter;stroke-opacity:1"
           d="m 67.249998,328.5 -13.249999,10.75 -7.5,17 -8.75,24 -0.212343,23.94986 5.846383,14.70307 13.946248,12.87178 18.104125,5.75042 98.854058,-1.6087 18.10412,-5.75042 12.45663,-8.44759 L 212.684,405.70293 212.75,381.75 209.55861,368.7006 191.25,334 180,327.25 150.25,336 H 99.749997 Z"
           id="path3760"
           inkscape:connector-curvature="0" />
        <path
           style="fill:#000000;fill-opacity:0.15686275;stroke:none;stroke-width:1px;stroke-linecap:butt;stroke-linejoin:miter;stroke-opacity:1"
           d="m 35.834229,157.43545 1.91577,222.81455 8.75,-24 7.5,-17 8.999999,-44.5 2,-34.25 -2,-29.99999 c 0,0 -5.249999,-24.5 -5.749999,-25.5 -0.5,-1 -10.75,-27.25001 -10.75,-27.25001 z"
           id="path3762"
           inkscape:connector-curvature="0" />
        <path
           style="fill:#000000;fill-opacity:0.15686275;stroke:none;stroke-width:1px;stroke-linecap:butt;stroke-linejoin:miter;stroke-opacity:1"
           d="m 213.39111,156.98176 -7.31473,4.98572 -15.42993,41.30245 -5.14645,40.23008 1,43.74999 7.74999,49 5.25001,12 13.25,33.5 z"
           id="path3764"
           inkscape:connector-curvature="0"
           sodipodi:nodetypes="ccccccccc" />
      </g>
    </g>
    <g
       inkscape:groupmode="layer"
       id="layer2"
       inkscape:label="type car-simple01"
       style="display:inline;opacity:1"
       transform="translate(0,252.16)">
      <path
         style="fill:#323232;fill-opacity:1;stroke-width:0.75938916"
         d="M 67.427287,185.96751 C 58.1118,183.60167 51.789013,180.246 46.164963,174.68304 c -5.06085,-5.00587 -8.727743,-11.50795 -10.857697,-19.25269 -1.237586,-4.5 -1.352823,-13.58038 -1.583019,-124.734683 -0.136548,-65.93476 -0.495744,-119.868365 -0.798216,-119.85246 -0.302472,0.016 -4.138613,2.868775 -8.524752,6.33971 -9.49459,7.513464 -13.091692,8.859871 -17.5794598,6.580017 -1.9876867,-1.009775 -3.429972,-2.641735 -5.0174507,-5.677296 -2.01646187,-3.85586 -2.14458245,-4.528076 -1.35001512,-7.083134 0.50654319,-1.628872 3.55514622,-5.867584 7.20721482,-10.020756 24.0723398,-27.375338 23.4682188,-26.561618 25.0031538,-33.677968 0.56162,-2.60382 0.860432,-15.43379 0.860432,-36.94403 0,-18.12516 0.37239,-36.65529 0.827536,-41.17805 2.326627,-23.11961 12.84693,-35.33388 34.410721,-39.9515 5.971919,-1.27881 10.700441,-1.39399 57.070659,-1.39011 50.05465,0.004 50.62732,0.0213 57.3814,1.7143 17.66688,4.42843 27.72762,14.46341 31.56213,31.48134 1.14433,5.07865 1.40782,11.81446 1.80796,46.21918 0.50835,43.70892 0.47044,43.32903 4.94366,49.53688 1.10249,1.53001 7.69789,9.21816 14.65645,17.08479 14.98274,16.937924 15.45561,17.880442 12.14599,24.209058 -1.59501,3.04997 -3.0275,4.666392 -5.04276,5.690206 -4.36983,2.220014 -7.86249,0.904067 -17.62099,-6.639186 -4.4985,-3.477295 -8.36751,-6.322365 -8.59781,-6.322365 -0.23029,0 -0.51907,54.115991 -0.64172,120.257768 -0.20788,112.113449 -0.31414,120.563649 -1.56891,124.774479 -2.34813,7.88006 -5.86832,14.00225 -10.83085,18.8366 -5.79866,5.64887 -12.09508,8.94758 -21.6023,11.31754 l -7.37854,1.83932 -50.2695,-0.0369 -50.269501,-0.0369 z m 116.780983,-7.37164 c 16.70834,-5.55851 24.4585,-16.12551 25.32216,-34.5256 0.27908,-5.94549 0.0345,-9.53793 -0.94797,-13.92656 -4.44106,-19.83705 -15.79249,-42.767023 -24.18325,-48.850367 -3.20324,-2.322372 -4.45698,-2.315362 -11.51047,0.06422 -23.16787,7.816072 -56.43657,9.361403 -81.526882,3.786873 C 88.412569,84.48916 82.502225,82.891675 78.227755,81.594434 69.070402,78.815309 67.653128,78.987485 63.283407,83.409992 52.229944,94.596952 40.42316,124.45882 40.420586,141.23494 c -0.0029,18.20541 8.212056,31.23117 23.005581,36.47845 9.023187,3.20052 10.407955,3.26844 63.556973,3.11738 l 50.94226,-0.14467 6.28287,-2.09019 z m -77.50214,-75.17802 c -5.75904,-0.72519 -7.001959,-1.3716 -6.26519,-3.25834 0.41628,-1.066019 1.55313,-1.139745 9.48583,-0.615194 10.40136,0.687794 19.01315,0.752294 29.31315,0.219485 l 7.27747,-0.376394 v 1.881973 c 0,1.7199 -0.36282,1.92417 -4.21327,2.3721 -6.09745,0.70934 -29.34867,0.56322 -35.59799,-0.22372 z M 209.75867,82.706019 C 208.15299,74.170447 202.4544,63.900547 194.78786,55.725842 l -3.52996,-3.763936 0.48197,4.384774 c 0.61293,5.576013 3.37845,16.817902 6.51467,26.482302 2.12864,6.559482 4.09139,11.229186 10.44026,24.839178 l 1.40466,3.01115 0.21148,-11.956614 c 0.11632,-6.576161 -0.13221,-13.783652 -0.55227,-16.016677 z M 45.451388,99.011108 c 3.935702,-8.771501 7.302382,-18.986823 9.826576,-29.816232 2.040247,-8.753127 3.210299,-16.103789 2.563342,-16.103789 -0.841323,0 -8.976444,10.400108 -11.644116,14.886085 -5.238624,8.809281 -5.783967,11.435756 -5.725748,27.576055 0.04067,11.273713 0.237236,13.967453 0.911493,12.491323 0.472806,-1.03508 2.30361,-5.10013 4.068453,-9.033442 z M 154.23343,79.135361 c 5.08649,-1.051668 12.44292,-2.938058 16.34763,-4.191966 8.66926,-2.783925 11.57873,-2.851888 15.88649,-0.371078 l 3.31442,1.90874 -0.66319,-1.720543 c -1.19213,-3.092826 -4.65621,-20.315468 -6.2065,-30.857407 -4.02448,-27.366285 -3.87074,-53.8134412 0.45513,-78.291355 l 0.49319,-2.790754 -2.78066,0.443429 c -1.86627,0.297605 -4.22763,-0.07196 -7.18088,-1.123791 -29.6046,-10.544216 -71.6988,-10.561711 -100.539355,-0.04178 -2.929262,1.068483 -5.116468,1.395818 -7.17697,1.074098 -2.462573,-0.384493 -2.887466,-0.26751 -2.512833,0.691866 0.816973,2.092146 2.694748,14.16869 3.614141,23.243644 1.196492,11.8101256 0.522718,45.126747 -1.170063,57.856967 -0.69953,5.260689 -2.26576,14.398279 -3.480516,20.305753 -1.214752,5.907475 -2.096487,10.851099 -1.959407,10.985801 0.137075,0.134796 1.544285,-0.618697 3.127122,-1.674246 3.772328,-2.515674 6.977367,-2.457709 15.503794,0.280366 16.649387,5.346577 27.861177,6.818512 49.210267,6.460561 13.97837,-0.234305 17.86916,-0.565437 25.71819,-2.188305 z m 56.24906,-92.440107 c 0,-43.050398 -0.29196,-77.368801 -0.65482,-76.972503 -0.36016,0.393331 -2.72782,6.982102 -5.26148,14.641712 -2.53366,7.65961 -6.22761,17.639258 -8.20877,22.176998 -7.4527,17.069947 -10.04376,34.593344 -9.35444,63.2643608 0.24885,10.3508242 0.80433,21.5687182 1.23437,24.9286432 l 0.7819,6.108986 6.70986,6.48058 c 3.69043,3.56433 8.26111,8.840451 10.15708,11.724732 1.89597,2.884281 3.70577,5.264382 4.02176,5.28913 0.316,0.0247 0.57454,-34.914436 0.57454,-77.642639 z M 45.213595,57.60781 c 1.922105,-2.691214 5.985524,-7.255833 9.02982,-10.143596 l 5.535083,-5.250502 0.606495,-5.31449 C 61.647763,25.83405 62.032293,4.424687 61.170162,-6.8163317 59.577805,-27.578542 56.742976,-40.486712 50.933468,-53.428314 c -1.672743,-3.726297 -4.713833,-11.687022 -6.75798,-17.6905 l -3.71663,-10.915415 -0.01963,72.9827309 c -0.01077,40.1404971 0.272703,72.6609051 0.629998,72.2675731 0.357298,-0.393331 2.222263,-2.91705 4.144369,-5.608265 z M 75.274828,-45.562163 c 9.749767,-3.221882 23.914826,-5.839874 36.926862,-6.824828 19.36664,-1.465964 42.7085,1.217377 59.94042,6.890652 3.98387,1.311612 7.66492,2.103626 8.52717,1.8347 2.08218,-0.649413 4.94446,-3.773172 7.5696,-8.261101 5.25816,-8.989296 17.64731,-45.875524 17.64731,-52.54131 0,-2.6741 -0.46745,-3.5081 -3.66256,-6.53446 -6.86095,-6.49859 -20.65226,-13.64291 -33.87384,-17.54768 -28.73196,-8.48548 -63.45883,-8.21061 -91.542864,0.72459 -13.008897,4.13891 -25.106906,10.5829 -32.186215,17.14396 l -2.866773,2.65691 0.394912,5.84177 c 0.31053,4.593554 1.645397,9.541302 6.247286,23.15588 6.697814,19.815317 11.347937,29.912278 15.377037,33.388628 1.509971,1.302818 3.164309,2.364686 3.676308,2.359687 0.511998,-0.0049 4.033404,-1.034315 7.825347,-2.287398 z m -51.627927,-45.048164 9.878253,-7.731644 v -9.886139 c 0,-8.52202 -0.148877,-9.73403 -1.078954,-8.78384 -0.593425,0.60626 -6.4537,7.19404 -13.022834,14.6395 -10.0737841,11.417641 -11.9438808,13.915622 -11.9438808,15.95404 0,2.878644 2.4106645,4.94963 4.7651568,4.093725 0.838202,-0.304704 5.969218,-4.033245 11.402259,-8.285642 z m 219.156279,5.549336 c 0.661,-1.425659 0.56977,-2.205102 -0.43447,-3.711241 -1.22779,-1.841386 -20.26665,-23.700718 -23.94887,-27.496708 l -1.80896,-1.86486 v 9.91214 9.912134 l 10.15015,7.83866 c 5.58258,4.311264 10.66723,8.012126 11.29922,8.224125 1.64029,0.550243 3.76844,-0.712513 4.74293,-2.81425 z m -32.53461,-76.956879 c -0.40403,-53.31439 -0.52837,-54.89456 -5.08205,-64.58716 -2.19749,-4.67741 -6.07401,-9.60761 -8.59797,-10.93501 -1.38616,-0.72901 -1.42704,0.87654 -1.42704,56.04533 v 56.79584 l 4.7878,3.39646 c 2.6333,1.86805 5.82198,4.4019 7.08596,5.63078 1.26398,1.22888 2.59166,2.27087 2.95042,2.31553 0.35875,0.0447 0.48604,-21.85314 0.28288,-48.66177 z m -159.3158,38.29861 4.787806,-3.16191 v -55.6782 c 0,-36.50971 -0.26297,-55.67821 -0.763841,-55.67821 -1.680796,0 -6.809966,5.50325 -9.149645,9.81695 -1.45845,2.68896 -3.080429,7.42735 -3.934402,11.49381 -1.335025,6.35716 -1.453781,10.72769 -1.463029,53.84303 l -0.01005,46.92426 2.872684,-2.19891 c 1.579976,-1.20941 5.027197,-3.62177 7.66049,-5.36082 z m 137.30353,-41.30976 -0.0108,-36.69838 -12.01056,-9.03344 c -15.35275,-11.54723 -15.54564,-11.8617 -15.54564,-25.34429 v -9.67535 l -35.42977,0.19571 -35.42977,0.19572 -0.389261,10.16262 c -0.29738,7.76393 -0.71018,10.74262 -1.748911,12.61989 -1.334743,2.41223 -5.917914,6.2432 -19.124822,15.98603 l -6.632877,4.89311 -0.03246,36.02613 c -0.03067,34.03232 0.04173,35.99464 1.308124,35.45708 0.737323,-0.31299 5.132529,-1.86021 9.767126,-3.43828 25.741655,-8.765 58.638861,-10.30137 86.946571,-4.06059 8.441,1.86092 19.96937,5.60297 24.51357,7.95696 1.47464,0.76391 2.93971,1.40389 3.25571,1.42218 0.31599,0.0183 0.56969,-16.48099 0.56377,-36.6651 z M 72.732684,-218.10956 c 6.321485,-4.73617 9.188898,-7.38185 9.767128,-9.01184 0.45019,-1.26907 0.818531,-5.98314 0.818531,-10.47572 0,-7.47564 -0.121419,-8.16833 -1.431753,-8.16833 -2.224422,0 -14.749442,2.20827 -17.527962,3.09034 l -2.489659,0.79036 v 15.79458 c 0,12.42967 0.204008,15.67639 0.957561,15.23982 0.526659,-0.30512 4.984428,-3.57177 9.906154,-7.25921 z m 115.534376,-8.06239 v -15.7875 l -4.02175,-1.10839 c -5.34764,-1.47381 -15.67966,-2.91756 -16.65219,-2.32691 -0.44338,0.26928 -0.76683,3.75605 -0.75534,8.14258 0.0283,10.80045 0.5842,11.74079 11.85367,20.05079 5.05593,3.72819 9.27877,6.78717 9.3841,6.79773 0.10533,0.0106 0.19151,-7.08518 0.19151,-15.7683 z"
         id="path1474"
         inkscape:connector-curvature="0" />
    </g>
  </g>
  <g
     inkscape:groupmode="layer"
     id="layer10"
     inkscape:label="car-taxi"
     style="display:none">
    <g
       transform="translate(0,252.16)"
       style="display:inline"
       inkscape:label="colour taxi"
       id="g2869"
       inkscape:groupmode="layer">
      <path
         sodipodi:nodetypes="ccccccccccccccccccccccccc"
         inkscape:connector-curvature="0"
         id="path2867"
         d="m 41.799112,-229.14884 13.058811,-14.34362 23.198854,-5.79254 97.470493,-0.22335 20.56187,7.15899 11.83463,11.59182 5.29056,18.22539 0.88388,86.08793 33.60369,38.355389 -7.99358,10.73754 -26.31721,-17.826946 -0.70711,248.721167 -7.83478,16.01549 -13.72812,11.15457 -15.70189,4.47536 -99.984798,0.17678 L 57.330287,179.61471 43.384039,166.74293 37.537656,152.03986 35.834229,-94.724553 9.1978028,-77.557958 2.5,-87.608457 l 33.709229,-40.711173 0.75,-80.48646 z"
         style="opacity:1;fill:#f4eecf;fill-opacity:1;stroke:none;stroke-width:158.1675415;stroke-miterlimit:4;stroke-dasharray:none;stroke-opacity:1" />
      <rect
         style="opacity:1;fill:#eeed5b;fill-opacity:1;stroke:none;stroke-width:20;stroke-miterlimit:4;stroke-dasharray:none;stroke-opacity:1"
         id="rect2871"
         width="72"
         height="23"
         x="88.75"
         y="-20.66" />
    </g>
    <g
       style="display:inline;opacity:0.1"
       inkscape:label="shadow taxi"
       id="g5423"
       inkscape:groupmode="layer">
      <path
         inkscape:connector-curvature="0"
         id="path5415"
         d="M 101.11626,2.6544676 V 437.1716 L 75.434412,437.52513 57.330287,431.77471 43.384039,418.90293 37.537656,404.19986 36.959229,43.35391 41.799112,23.01116 54.857923,8.66754 78.056777,2.875 101.11626,2.6544676"
         style="fill:url(#linearGradient5425);fill-opacity:1;stroke:none;stroke-width:1px;stroke-linecap:butt;stroke-linejoin:miter;stroke-opacity:1" />
      <path
         inkscape:connector-curvature="0"
         id="path5417"
         d="M 148.60662,1.04577 V 435.5629 l 25.68185,0.35353 18.10412,-5.75042 13.94625,-12.87178 5.84638,-14.70307 L 212.76365,41.745211 207.92377,21.40246 194.86496,7.05884 171.6661,1.2663 148.60662,1.04577"
         style="display:inline;opacity:0.5;fill:url(#linearGradient5427);fill-opacity:1;stroke:none;stroke-width:1px;stroke-linecap:butt;stroke-linejoin:miter;stroke-opacity:1" />
      <path
         inkscape:connector-curvature="0"
         id="path5419"
         d="m 60.104075,126.7517 35.001785,-10.96015 32.88046,-1.76777 38.18377,5.3033 24.39518,9.19239 22.27387,18.03122 L 212.76365,41.745211 207.92377,21.40246 194.86496,7.05884 171.6661,1.2663 78.056777,2.875 57.452425,8.8416512 41.799112,23.01116 l -4.839883,20.34275 0.29077,99.1461 z"
         style="fill:url(#linearGradient5429);fill-opacity:1;stroke:#000000;stroke-width:1px;stroke-linecap:butt;stroke-linejoin:miter;stroke-opacity:1" />
      <path
         inkscape:connector-curvature="0"
         id="path5421"
         d="m 37.749999,380.25 -0.212343,23.94986 5.846383,14.70307 13.946248,12.87178 18.104125,5.75042 98.854058,-1.6087 18.10412,-5.75042 12.45663,-8.44759 L 212.684,405.70293 212.75,381.75 199.5,348.25 191.25,334 180,327.25 150.25,336 H 99.749997 l -32.499999,-7.5 -13.249999,10.75 z"
         style="fill:url(#linearGradient5431);fill-opacity:1;stroke:#000000;stroke-width:1px;stroke-linecap:butt;stroke-linejoin:miter;stroke-opacity:1" />
    </g>
    <g
       inkscape:groupmode="layer"
       id="g5325"
       inkscape:label="windows car-taxi"
       style="display:inline">
      <g
         id="g5323"
         style="fill:#000000;fill-opacity:0.15686275;stroke:none">
        <path
           sodipodi:nodetypes="cccccccccccccccc"
           inkscape:connector-curvature="0"
           id="path5315"
           d="m 37.249999,142.50001 2.75,14.93543 6.5,20.31456 L 60.25,211.5 125.2972,202.36827 188.25,211.5 l 16.05861,-33.79939 8.53053,-31.14992 -9.08915,-11.55068 -13.18472,-6.48054 -21.92559,-8.94832 -26.33144,-5.2299 -35.88844,0.0613 -24.744414,5.0384 -21.571311,7.31075 z"
           style="fill:#000000;fill-opacity:0.15686275;stroke:none;stroke-width:1px;stroke-linecap:butt;stroke-linejoin:miter;stroke-opacity:1" />
        <path
           inkscape:connector-curvature="0"
           id="path5317"
           d="m 67.249998,328.5 -13.249999,10.75 -7.5,17 -8.75,24 -0.212343,23.94986 5.846383,14.70307 13.946248,12.87178 18.104125,5.75042 98.854058,-1.6087 18.10412,-5.75042 12.45663,-8.44759 L 212.684,405.70293 212.75,381.75 209.55861,368.7006 191.25,334 180,327.25 150.25,336 H 99.749997 Z"
           style="fill:#000000;fill-opacity:0.15686275;stroke:none;stroke-width:1px;stroke-linecap:butt;stroke-linejoin:miter;stroke-opacity:1" />
        <path
           inkscape:connector-curvature="0"
           id="path5319"
           d="m 35.834229,157.43545 1.91577,222.81455 8.75,-24 7.5,-17 8.999999,-44.5 2,-34.25 -2,-29.99999 c 0,0 -5.249999,-24.5 -5.749999,-25.5 -0.5,-1 -10.75,-27.25001 -10.75,-27.25001 z"
           style="fill:#000000;fill-opacity:0.15686275;stroke:none;stroke-width:1px;stroke-linecap:butt;stroke-linejoin:miter;stroke-opacity:1" />
        <path
           sodipodi:nodetypes="ccccccccc"
           inkscape:connector-curvature="0"
           id="path5321"
           d="m 213.39111,156.98176 -7.31473,4.98572 -15.42993,41.30245 -5.14645,40.23008 1,43.74999 7.74999,49 5.25001,12 13.25,33.5 z"
           style="fill:#000000;fill-opacity:0.15686275;stroke:none;stroke-width:1px;stroke-linecap:butt;stroke-linejoin:miter;stroke-opacity:1" />
      </g>
    </g>
    <g
       inkscape:groupmode="layer"
       id="layer4"
       inkscape:label="type car-taxi"
       style="display:inline">
      <path
         style="fill:#323232;fill-opacity:1;stroke-width:0.75938916"
         d="M 67.427289,438.12751 C 58.111797,435.76167 51.78902,432.406 46.164975,426.84304 41.10412,421.83717 37.437234,415.33509 35.307283,407.59034 34.069683,403.09035 33.95444,394.00997 33.724242,282.85566 33.58779,216.92091 33.228513,162.9873 32.926043,163.00321 c -0.302469,0.0165 -4.138628,2.86877 -8.524761,6.33971 -9.49458,7.51345 -13.091683,8.85986 -17.5794621,6.58002 -1.9876819,-1.00979 -3.4299607,-2.64174 -5.0174539,-5.67731 -2.01645654,-3.85585 -2.14457825,-4.52806 -1.3500178,-7.08314 0.50654995,-1.62887 3.555162,-5.86758 7.2072291,-10.02075 24.0723257,-27.37532 23.4682247,-26.5616 25.0031477,-33.67796 0.561633,-2.60382 0.86044,-15.43381 0.86044,-36.944046 0,-18.125164 0.372396,-36.655281 0.827525,-41.17805 C 36.679325,18.222082 47.19962,6.0078035 68.763422,1.390183 74.735326,0.1113857 79.463859,-0.00379075 125.83408,9.0811728e-5 175.88873,0.00479573 176.4614,0.02126295 183.21549,1.7143756 c 17.66686,4.4284356 27.7276,14.4634184 31.56213,31.4813504 1.14433,5.078656 1.40781,11.814455 1.80795,46.219185 0.50834,43.708919 0.47045,43.329019 4.94367,49.536879 1.10249,1.53 7.69788,9.21816 14.65643,17.08479 14.98274,16.93793 15.45561,17.88044 12.14599,24.20905 -1.59501,3.04997 -3.0275,4.66639 -5.04276,5.6902 -4.36982,2.22002 -7.86248,0.90408 -17.62098,-6.63918 -4.49851,-3.47729 -8.36751,-6.32236 -8.5978,-6.32236 -0.2303,0 -0.51907,54.116 -0.64174,120.25777 -0.20779,112.11345 -0.31412,120.56365 -1.56891,124.77448 -2.34811,7.88006 -5.86832,14.00224 -10.83084,18.8366 -5.79865,5.64887 -12.0951,8.94758 -21.60229,11.31754 L 175.04778,440 l -50.26949,-0.0369 -50.2695,-0.0369 z m 116.781001,-7.37164 c 16.70832,-5.55851 24.45848,-16.12551 25.32216,-34.5256 0.27905,-5.94549 0.0345,-9.53793 -0.94799,-13.92657 -4.44105,-19.83705 -15.79249,-42.76702 -24.18324,-48.85036 -3.20323,-2.32237 -4.45699,-2.31536 -11.51046,0.0642 -23.16788,7.81607 -56.43658,9.36141 -81.52689,3.78687 -2.949289,-0.65527 -8.859645,-2.25276 -13.134103,-3.55 -9.15735,-2.77912 -10.574637,-2.60695 -14.944348,1.81556 -11.053466,11.18696 -22.860245,41.04883 -22.86283,57.82495 -0.0024,18.20541 8.212069,31.23117 23.005578,36.47845 9.023196,3.20052 10.40795,3.26844 63.556983,3.11738 l 50.94226,-0.14467 6.28288,-2.09019 z m -77.50215,-75.17802 c -5.75903,-0.72519 -7.001972,-1.3716 -6.2652,-3.25834 0.41628,-1.06602 1.55314,-1.13975 9.48584,-0.6152 10.40134,0.68779 19.01315,0.7523 29.31316,0.21949 l 7.27746,-0.3764 v 1.88197 c 0,1.71991 -0.36282,1.92417 -4.21327,2.37211 -6.09746,0.70933 -29.34868,0.56322 -35.59799,-0.22372 z m 103.05254,-20.71183 c -1.60569,-8.53558 -7.30428,-18.80548 -14.97083,-26.98018 l -3.52995,-3.76394 0.48199,4.38478 c 0.61291,5.57601 3.37844,16.8179 6.51467,26.4823 2.12864,6.55948 4.09137,11.22919 10.44025,24.83918 l 1.40467,3.01115 0.21138,-11.95662 c 0.11634,-6.57616 -0.13214,-13.78365 -0.55227,-16.01667 z M 45.4514,351.17111 c 3.935697,-8.77151 7.302387,-18.98683 9.826567,-29.81624 2.040252,-8.75312 3.210296,-16.10379 2.563343,-16.10379 -0.841313,0 -8.976443,10.40011 -11.644113,14.88609 -5.238627,8.80928 -5.783958,11.43575 -5.725738,27.57605 0.0407,11.27372 0.237236,13.96745 0.911479,12.49133 0.47282,-1.03508 2.303605,-5.10013 4.068462,-9.03344 z m 108.78203,-19.87575 c 5.0865,-1.05167 12.44291,-2.93806 16.34763,-4.19197 8.66926,-2.78392 11.57874,-2.85189 15.8865,-0.37108 l 3.3144,1.90874 -0.66318,-1.72054 c -1.19212,-3.09283 -4.65619,-20.31547 -6.20648,-30.85741 -4.02449,-27.36628 -3.87075,-53.81344 0.4551,-78.29135 l 0.49322,-2.79075 -2.78066,0.44342 c -1.86629,0.29761 -4.22764,-0.072 -7.1809,-1.1238 -29.60459,-10.54419 -71.69879,-10.5617 -100.539343,-0.0419 -2.929276,1.06849 -5.116466,1.39583 -7.17697,1.07411 -2.462585,-0.38449 -2.887479,-0.26752 -2.512833,0.69186 0.816968,2.09216 2.694746,14.1687 3.614124,23.24364 1.196497,11.81013 0.522733,45.12675 -1.170044,57.85697 -0.699547,5.26069 -2.265758,14.39828 -3.48052,20.30576 -1.214762,5.90747 -2.096485,10.8511 -1.95941,10.9858 0.137171,0.13479 1.544283,-0.6187 3.127132,-1.67425 3.772313,-2.51567 6.977366,-2.45771 15.50378,0.28037 16.649382,5.34658 27.861184,6.81851 49.210274,6.46056 13.97836,-0.23431 17.86917,-0.56544 25.71818,-2.18831 z M 86.725956,256.8663 c -0.208987,-0.53538 -0.285664,-7.0596 -0.170206,-14.49826 l 0.209945,-13.52486 h 37.919425 37.91943 v 14.30296 14.30295 l -37.7492,0.19526 c -30.305998,0.15667 -37.824123,0.002 -38.129274,-0.7781 z M 157.62511,242.76974 V 233.7363 H 124.685 91.744894 v 9.03344 9.03345 H 124.685 157.62511 Z m -57.45368,0 v -7.52787 h 1.91513 1.91512 v 7.52787 7.52787 h -1.91512 -1.91513 z m 9.24442,4.0663 c 2.62911,-3.75514 2.60459,-4.0185 -0.85177,-9.14761 l -1.64866,-2.44656 h 1.93817 c 1.27921,0 2.4946,0.76787 3.57463,2.25836 0.90004,1.2421 1.88333,2.25836 2.18513,2.25836 0.3018,0 1.15963,-1.01626 1.90629,-2.25836 0.94195,-1.56702 1.95357,-2.25836 3.30457,-2.25836 h 1.94705 l -1.64868,2.44656 c -3.48566,5.17261 -3.51305,5.45761 -0.86357,8.98668 2.40723,3.20643 2.41597,3.24929 0.71575,3.50618 -1.20555,0.18208 -2.3303,-0.47325 -3.75402,-2.18746 l -2.03279,-2.44755 -1.42806,2.37568 c -1.06772,1.77622 -1.97554,2.37565 -3.59784,2.37565 h -2.16979 z m 15.94455,-4.06794 -2.77183,-7.52623 h 1.8383 c 1.01106,0 2.03673,0.50813 2.27926,1.12918 0.61523,1.57556 6.32783,1.5212 7.51295,-0.0715 0.49138,-0.66036 1.59346,-1.08381 2.44904,-0.94099 1.50122,0.25061 1.46049,0.51637 -1.16447,7.59937 -2.62635,7.08673 -2.80022,7.3396 -5.04575,7.33802 -2.24996,-0.001 -2.41593,-0.2467 -5.0975,-7.52787 z m 6.56101,-0.56295 c 0.45181,-1.45123 0.24572,-1.69377 -1.43943,-1.69377 -2.28177,0 -2.21701,-0.17737 -1.09269,2.992 0.90243,2.54393 1.41831,2.27944 2.53212,-1.29823 z m 5.02038,6.58689 c 0,-1.17101 0.51069,-1.50557 2.29815,-1.50557 h 2.29814 v -6.0223 c 0,-5.92192 0.0318,-6.0223 1.91513,-6.0223 1.88318,0 1.91512,0.10045 1.91512,6.0223 v 6.0223 h 2.68117 c 2.17046,0 2.68117,0.28676 2.68117,1.50557 0,1.39404 -0.51071,1.50557 -6.89444,1.50557 -6.38375,0 -6.89444,-0.1115 -6.89444,-1.50557 z m 73.54071,-9.93679 c 0,-43.0504 -0.29196,-77.36879 -0.65483,-76.9725 -0.36016,0.39333 -2.7278,6.9821 -5.26146,14.64171 -2.53366,7.65962 -6.22762,17.63927 -8.20879,22.177 -7.4527,17.06994 -10.04374,34.59335 -9.35444,63.26436 0.24887,10.35082 0.80432,21.56872 1.23436,24.92864 l 0.78193,6.10899 6.70984,6.48058 c 3.69044,3.56433 8.26113,8.84045 10.1571,11.72473 1.89597,2.88428 3.70576,5.26438 4.02176,5.28913 0.31599,0.0247 0.57453,-34.91444 0.57453,-77.64264 z M 45.21359,309.76781 c 1.922113,-2.69122 5.985524,-7.25584 9.029827,-10.1436 l 5.535088,-5.2505 0.606495,-5.31449 c 1.26276,-11.06517 1.647293,-32.47454 0.785177,-43.71556 -1.592377,-20.7622 -4.427189,-33.67038 -10.236714,-46.61197 -1.67274,-3.7263 -4.713811,-11.68702 -6.757965,-17.6905 l -3.716631,-10.91542 -0.01915,72.98273 c -0.01197,40.14049 0.272689,72.6609 0.630003,72.26757 0.35729,-0.39333 2.222261,-2.91705 4.14435,-5.60826 z M 75.27484,206.59784 c 9.749769,-3.22188 23.914831,-5.83988 36.92687,-6.82483 19.36663,-1.46596 42.70848,1.21737 59.94039,6.89066 3.98389,1.31161 7.66495,2.10361 8.52718,1.83468 2.0822,-0.6494 4.94447,-3.77316 7.5696,-8.26109 5.25816,-8.98929 17.64733,-45.87553 17.64733,-52.54132 0,-2.67409 -0.46746,-3.50809 -3.66258,-6.53446 -6.86095,-6.4986 -20.65225,-13.6429 -33.87383,-17.54768 -28.73196,-8.48549 -63.45883,-8.2106 -91.542862,0.72458 -13.008902,4.13892 -25.106923,10.58292 -32.186222,17.14398 l -2.866771,2.65692 0.394922,5.84177 c 0.310513,4.59355 1.645378,9.54129 6.247274,23.15587 6.697806,19.81532 11.347939,29.91229 15.377046,33.38863 1.509955,1.30282 3.16431,2.36467 3.676294,2.35969 0.512008,-0.005 4.033416,-1.03433 7.825359,-2.2874 z m -51.627925,-45.04817 9.87825,-7.73164 v -9.88615 c 0,-8.52202 -0.1489,-9.73403 -1.078956,-8.78385 -0.593424,0.60628 -6.4537,7.19406 -13.022834,14.63953 -10.0737847,11.41764 -11.943878,13.9156 -11.943878,15.95403 0,2.87863 2.4106606,4.94962 4.76516,4.09373 0.838202,-0.30472 5.969198,-4.03325 11.402258,-8.28565 z M 242.80318,167.099 c 0.661,-1.42566 0.56977,-2.2051 -0.43447,-3.71124 -1.22779,-1.84139 -20.26663,-23.70073 -23.94886,-27.4967 l -1.80896,-1.86487 v 9.91214 9.91214 l 10.15015,7.83865 c 5.58259,4.31129 10.66724,8.01213 11.29923,8.22413 1.64027,0.55024 3.76842,-0.71251 4.74291,-2.81425 z m -32.5346,-76.956871 c -0.40404,-53.314392 -0.52838,-54.894563 -5.08204,-64.58717 -2.19751,-4.677396 -6.07403,-9.607612 -8.59799,-10.935011 -1.38614,-0.729004 -1.42703,0.876551 -1.42703,56.04534 v 56.795842 l 4.78781,3.39646 c 2.63329,1.86804 5.82197,4.4019 7.08595,5.63078 1.26398,1.22888 2.59166,2.27085 2.95042,2.31553 0.35875,0.0447 0.48603,-21.85314 0.28288,-48.661771 z M 50.952782,128.44074 55.740588,125.27883 V 69.600612 c 0,-36.509688 -0.26297,-55.678192 -0.763846,-55.678192 -1.680808,0 -6.809961,5.503252 -9.149642,9.816934 -1.458462,2.688956 -3.080427,7.427352 -3.934405,11.493815 -1.335032,6.35717 -1.453793,10.727688 -1.463034,53.843037 l -0.0096,46.924264 2.872684,-2.19892 c 1.579976,-1.2094 5.027197,-3.62177 7.66049,-5.36081 z M 188.2563,87.13098 188.2443,50.432602 176.23376,41.399155 C 160.88096,29.851916 160.68808,29.537463 160.68808,16.054855 V 6.3795157 L 125.25831,6.5752404 89.828545,6.7709651 89.439272,16.933593 c -0.29737,7.763918 -0.710175,10.742603 -1.748914,12.61989 -1.334744,2.412213 -5.917896,6.243194 -19.124822,15.986025 l -6.632859,4.893117 -0.03256,36.026116 c -0.03064,34.032339 0.04165,35.994639 1.308124,35.457079 0.737322,-0.31297 5.132529,-1.86021 9.767126,-3.43826 25.741642,-8.76501 58.638853,-10.30138 86.946573,-4.06061 8.441,1.86094 19.96937,5.60298 24.51357,7.95696 1.47464,0.76392 2.93971,1.40391 3.25571,1.42218 0.31599,0.0188 0.56967,-16.48098 0.56376,-36.665087 z M 72.732682,34.050422 c 6.321485,-4.736161 9.188902,-7.381832 9.767125,-9.011828 0.450198,-1.269081 0.818548,-5.983153 0.818548,-10.475716 0,-7.4756482 -0.121371,-8.16833 -1.43177,-8.16833 -2.224415,0 -14.749437,2.2082543 -17.527945,3.0903327 l -2.489659,0.7903563 v 15.794582 c 0,12.42967 0.20396,15.676394 0.957561,15.239825 0.526659,-0.305114 4.984418,-3.571764 9.90614,-7.259222 z M 188.26708,25.988047 V 10.200546 l -4.02176,-1.1084085 c -5.34765,-1.4737927 -15.67966,-2.9175446 -16.65221,-2.3268889 -0.44337,0.2692626 -0.76681,3.7560324 -0.75532,8.1425704 0.0282,10.80045 0.58421,11.740799 11.85367,20.050794 5.05593,3.728179 9.27877,6.787177 9.3841,6.797716 0.10534,0.01176 0.19152,-7.085163 0.19152,-15.768282 z"
         id="path2849"
         inkscape:connector-curvature="0" />
    </g>
  </g>
  <g
     inkscape:groupmode="layer"
     id="layer11"
     inkscape:label="car-police"
     style="display:none">
    <g
       style="display:inline"
       inkscape:label="colour police"
       id="g3500"
       inkscape:groupmode="layer"
       transform="translate(0,252.16)">
      <path
         sodipodi:nodetypes="ccccccccccccccccccccccccc"
         inkscape:connector-curvature="0"
         id="path3498"
         d="m 41.799112,-229.14884 13.058811,-14.34362 23.198854,-5.79254 97.470493,-0.22335 20.56187,7.15899 11.83463,11.59182 5.29056,18.22539 0.88388,86.08793 33.60369,38.355389 -7.99358,10.73754 -26.31721,-17.826946 -0.70711,248.721167 -7.83478,16.01549 -13.72812,11.15457 -15.70189,4.47536 -99.984798,0.17678 L 57.330287,179.61471 43.384039,166.74293 37.537656,152.03986 35.834229,-94.724553 9.1978028,-77.557958 2.5,-87.608457 l 33.709229,-40.711173 0.75,-80.48646 z"
         style="opacity:1;fill:#bababa;fill-opacity:1;stroke:none;stroke-width:158.1675415;stroke-miterlimit:4;stroke-dasharray:none;stroke-opacity:1" />
      <path
         style="opacity:1;fill:#48a3ec;fill-opacity:1;stroke:none;stroke-width:20;stroke-miterlimit:4;stroke-dasharray:none;stroke-opacity:1"
         d="m 77.428199,-231.12076 8.13339,-4.82559 0.174534,-13.3166 78.578027,-0.079 0.62054,13.58352 8.12971,4.10735 19.62221,107.65703 -24.04693,-8.5948 -26.33144,-5.2299 -35.88844,0.0613 -24.744414,5.0384 -23.556961,8.66395 z"
         id="rect3506"
         inkscape:connector-curvature="0"
         sodipodi:nodetypes="ccccccccccccc" />
      <text
         xml:space="preserve"
         style="font-style:normal;font-weight:normal;font-size:23.78323364px;line-height:1.25;font-family:sans-serif;letter-spacing:0px;word-spacing:0px;opacity:1;fill:#bababa;fill-opacity:1;stroke:none;stroke-width:1.32321918;stroke-miterlimit:4;stroke-dasharray:none"
         x="-169.90248"
         y="225.8259"
         id="text3511"
         transform="scale(-1)"><tspan
           sodipodi:role="line"
           id="tspan3509"
           x="-169.90248"
           y="225.8259"
           style="font-style:normal;font-variant:normal;font-weight:500;font-stretch:normal;font-family:Ubuntu;-inkscape-font-specification:'Ubuntu Medium';fill:#bababa;fill-opacity:1;stroke:#bababa;stroke-width:1.32321918;stroke-miterlimit:4;stroke-dasharray:none;stroke-opacity:1">POLIZEI</tspan></text>
      <rect
         style="opacity:1;fill:#48a3ec;fill-opacity:1;stroke:none;stroke-width:1.27199996;stroke-miterlimit:4;stroke-dasharray:none;stroke-opacity:1"
         id="rect4012"
         width="45"
         height="30.25"
         x="101.75"
         y="-40.91" />
      <path
         style="opacity:1;fill:#48a3ec;fill-opacity:1;stroke:none;stroke-width:1.27199996;stroke-miterlimit:4;stroke-dasharray:none;stroke-opacity:1"
         d="m 35.834229,-94.724564 h 4.16577 l 6.5,20.314565 V 104.09 l -5.25,12.5 -5.41577,-0.25 z"
         id="rect4014"
         inkscape:connector-curvature="0"
         sodipodi:nodetypes="ccccccc" />
      <path
         style="display:inline;opacity:1;fill:#48a3ec;fill-opacity:1;stroke:none;stroke-width:1.27199996;stroke-miterlimit:4;stroke-dasharray:none;stroke-opacity:1"
         d="m 214.97438,-94.77396 h -4.16577 l -6.5,20.31457 V 104.0406 l 5.25,12.5 5.41577,-0.25 z"
         id="rect4014-0"
         inkscape:connector-curvature="0"
         sodipodi:nodetypes="ccccccc" />
      <path
         style="opacity:1;fill:#3164be;fill-opacity:1;stroke:none;stroke-width:1.27199996;stroke-miterlimit:4;stroke-dasharray:none;stroke-opacity:1"
         d="m 60.25,-40.66 41.5,-0.25 v 30.25 H 65 Z"
         id="rect4034"
         inkscape:connector-curvature="0"
         sodipodi:nodetypes="ccccc" />
      <path
         style="display:inline;opacity:1;fill:#3164be;fill-opacity:1;stroke:none;stroke-width:1.27199996;stroke-miterlimit:4;stroke-dasharray:none;stroke-opacity:1"
         d="m 188.25,-40.66 -41.5,-0.25 v 30.25 h 36.75 z"
         id="rect4034-0"
         inkscape:connector-curvature="0"
         sodipodi:nodetypes="ccccc" />
    </g>
    <g
       inkscape:groupmode="layer"
       id="g5451"
       inkscape:label="shadow police"
       style="display:inline;opacity:0.1">
      <path
         style="fill:url(#linearGradient5453);fill-opacity:1;stroke:none;stroke-width:1px;stroke-linecap:butt;stroke-linejoin:miter;stroke-opacity:1"
         d="M 101.11626,2.6544676 V 437.1716 L 75.434412,437.52513 57.330287,431.77471 43.384039,418.90293 37.537656,404.19986 36.959229,43.35391 41.799112,23.01116 54.857923,8.66754 78.056777,2.875 101.11626,2.6544676"
         id="path5443"
         inkscape:connector-curvature="0" />
      <path
         style="display:inline;opacity:0.5;fill:url(#linearGradient5455);fill-opacity:1;stroke:none;stroke-width:1px;stroke-linecap:butt;stroke-linejoin:miter;stroke-opacity:1"
         d="M 148.60662,1.04577 V 435.5629 l 25.68185,0.35353 18.10412,-5.75042 13.94625,-12.87178 5.84638,-14.70307 L 212.76365,41.745211 207.92377,21.40246 194.86496,7.05884 171.6661,1.2663 148.60662,1.04577"
         id="path5445"
         inkscape:connector-curvature="0" />
      <path
         style="fill:url(#linearGradient5457);fill-opacity:1;stroke:#000000;stroke-width:1px;stroke-linecap:butt;stroke-linejoin:miter;stroke-opacity:1"
         d="m 60.104075,126.7517 35.001785,-10.96015 32.88046,-1.76777 38.18377,5.3033 24.39518,9.19239 22.27387,18.03122 L 212.76365,41.745211 207.92377,21.40246 194.86496,7.05884 171.6661,1.2663 78.056777,2.875 57.452425,8.8416512 41.799112,23.01116 l -4.839883,20.34275 0.29077,99.1461 z"
         id="path5447"
         inkscape:connector-curvature="0" />
      <path
         style="fill:url(#linearGradient5459);fill-opacity:1;stroke:#000000;stroke-width:1px;stroke-linecap:butt;stroke-linejoin:miter;stroke-opacity:1"
         d="m 37.749999,380.25 -0.212343,23.94986 5.846383,14.70307 13.946248,12.87178 18.104125,5.75042 98.854058,-1.6087 18.10412,-5.75042 12.45663,-8.44759 L 212.684,405.70293 212.75,381.75 199.5,348.25 191.25,334 180,327.25 150.25,336 H 99.749997 l -32.499999,-7.5 -13.249999,10.75 z"
         id="path5449"
         inkscape:connector-curvature="0" />
    </g>
    <g
       style="display:inline"
       inkscape:label="windows car-police"
       id="g5376"
       inkscape:groupmode="layer">
      <g
         style="fill:#000000;fill-opacity:0.15686275;stroke:none"
         id="g5374">
        <path
           style="fill:#000000;fill-opacity:0.15686275;stroke:none;stroke-width:1px;stroke-linecap:butt;stroke-linejoin:miter;stroke-opacity:1"
           d="m 37.249999,142.50001 2.75,14.93543 6.5,20.31456 L 60.25,211.5 h 128 l 16.05861,-33.79939 8.53053,-31.14992 -9.08915,-11.55068 -13.18472,-6.48054 -21.92559,-8.94832 -26.33144,-5.2299 -35.88844,0.0613 -24.744414,5.0384 -21.571311,7.31075 z"
           id="path5366"
           inkscape:connector-curvature="0" />
        <path
           style="fill:#000000;fill-opacity:0.15686275;stroke:none;stroke-width:1px;stroke-linecap:butt;stroke-linejoin:miter;stroke-opacity:1"
           d="m 67.249998,328.5 -13.249999,10.75 -7.5,17 -8.75,24 -0.212343,23.94986 5.846383,14.70307 13.946248,12.87178 18.104125,5.75042 98.854058,-1.6087 18.10412,-5.75042 12.45663,-8.44759 L 212.684,405.70293 212.75,381.75 209.55861,368.7006 191.25,334 180,327.25 150.25,336 H 99.749997 Z"
           id="path5368"
           inkscape:connector-curvature="0" />
        <path
           style="fill:#000000;fill-opacity:0.15686275;stroke:none;stroke-width:1px;stroke-linecap:butt;stroke-linejoin:miter;stroke-opacity:1"
           d="m 46.499999,356.25 7.5,-17 8.999999,-44.5 2,-34.25 -2,-29.99999 c 0,0 -5.249999,-24.5 -5.749999,-25.5 -0.5,-1 -10.75,-27.25001 -10.75,-27.25001 z"
           id="path5370"
           inkscape:connector-curvature="0"
           sodipodi:nodetypes="cccccscc" />
        <path
           style="fill:#000000;fill-opacity:0.15686275;stroke:none;stroke-width:1px;stroke-linecap:butt;stroke-linejoin:miter;stroke-opacity:1"
           d="M 204.30861,177.70061 191,208.75001 l -5.5,34.75 1,43.74999 7.74999,49 10.05862,19.9506 z"
           id="path5372"
           inkscape:connector-curvature="0"
           sodipodi:nodetypes="ccccccc" />
      </g>
    </g>
    <g
       inkscape:groupmode="layer"
       id="layer5"
       inkscape:label="type car-police"
       style="display:inline;opacity:1">
      <path
         style="fill:#323232;fill-opacity:1;stroke-width:0.7574994"
         d="M 67.07573,438.48107 C 50.987793,434.42962 40.988414,425.61016 35.990939,411.06431 L 33.921668,405.04139 33.717552,283.6419 C 33.605371,216.87219 33.26235,162.24778 32.955389,162.25432 c -0.30696,0.007 -3.816361,2.56172 -7.798659,5.67811 -8.290587,6.48791 -12.002199,8.6156 -15.022362,8.6116 -5.1142046,-0.007 -10.12899461,-5.92573 -10.12899461,-11.95526 0,-3.39848 -0.74032162,-2.40152 15.15850361,-20.4133 6.031658,-6.83326 11.951324,-13.75 13.154826,-15.37054 4.641974,-6.25055 4.691872,-6.74026 5.222075,-51.259829 0.461251,-38.731472 0.563381,-40.939648 2.158539,-46.677633 2.402788,-8.643055 5.149716,-13.720047 9.986994,-18.458392 C 50.849508,7.35147 56.984915,4.0594265 65.559503,1.7458017 L 72.029713,1.7521249e-6 H 125 c 52.76745,0 52.99459,0.00705810788 59.32409,1.7160146478751 8.84575,2.3890055 14.93889,5.6352184 19.89871,10.6013276 5.11749,5.123976 7.91208,10.081804 10.10622,17.929364 1.56229,5.587576 1.67195,8.002908 2.1302,46.92196 0.52908,44.936232 0.57367,45.377062 5.22207,51.636262 1.2035,1.62054 7.12317,8.53728 13.1548,15.37054 15.89886,18.01178 15.15854,17.01482 15.15854,20.4133 0,6.02953 -5.01482,11.94848 -10.12902,11.95526 -3.02015,0.005 -6.73178,-2.12369 -15.02234,-8.6116 -3.9823,-3.11639 -7.49778,-5.67154 -7.81217,-5.67811 -0.31439,-0.007 -0.57162,53.80138 -0.57162,119.5732 0,117.22001 -0.0303,119.70291 -1.52878,125.54025 -4.35559,16.96656 -14.46563,26.71932 -32.31883,31.17668 -5.74928,1.43541 -8.43371,1.50218 -57.92434,1.44066 -48.473879,-0.0602 -52.272567,-0.15952 -57.611872,-1.50404 z m 113.03065,-5.67503 c 19.82575,-4.41165 30.23822,-17.73679 30.22612,-38.68119 -0.0119,-21.97477 -19.54849,-62.4663 -30.1469,-62.48498 -0.87754,-10e-4 -3.62132,0.694 -6.0973,1.54566 -28.66026,9.8583 -69.51621,9.8583 -98.176489,0 -6.883779,-2.36783 -8.326671,-2.12339 -12.645035,2.1423 -4.923974,4.86391 -8.285538,10.17172 -13.262673,20.94129 -9.172052,19.84661 -12.076367,34.99682 -9.251698,48.26103 1.729823,8.1229 4.369929,13.20146 9.494209,18.26323 5.030986,4.96962 9.73317,7.44168 18.438779,9.69375 5.284023,1.36692 8.720042,1.45922 55.783137,1.49811 43.58816,0.036 50.87021,-0.11834 55.63785,-1.1792 z m -73.77929,-76.8319 c -4.67256,-0.57599 -5.71622,-1.02434 -5.71622,-2.45561 0,-1.91133 0.91893,-2.11235 6.40009,-1.39993 3.95441,0.51395 22.64411,0.68325 35.89992,0.32517 3.32686,-0.0899 3.81081,0.0866 3.81081,1.39002 0,1.15088 -0.69857,1.61535 -3.04865,2.027 -3.08763,0.54086 -33.13793,0.63205 -37.34595,0.1134 z M 45.757763,350.44308 C 59.793959,320.1891 65.556931,262.35923 58.36138,223.96923 56.240187,212.65219 54.702977,207.5743 50.589896,198.2975 49.049495,194.82319 45.978338,186.72935 43.765114,180.31118 l -4.02405,-11.66941 -0.0095,97.87246 -0.0095,97.87245 1.530303,-3.76433 c 0.841642,-2.07037 2.869565,-6.65104 4.506452,-10.17927 z m 164.547397,-84.86994 -0.0572,-98.4371 -4.0186,11.66941 c -2.21022,6.41817 -5.83433,16.05426 -8.05355,21.4135 -7.41758,17.91294 -10.52821,40.07073 -9.67682,68.9303 0.93414,31.66388 6.75426,61.75856 15.71036,81.23501 2.01813,4.38873 4.12551,9.24996 4.6831,10.80274 0.55757,1.55279 1.11636,2.82325 1.24173,2.82325 0.12528,0 0.20221,-44.2967 0.17077,-98.43711 z m -68.9186,68.30587 c 9.85814,-1.0881 21.86296,-3.58053 29.33732,-6.09096 9.18508,-3.085 13.57789,-2.73276 18.6176,1.49298 1.37027,1.14897 1.42955,1.13647 0.93531,-0.19716 -1.13693,-3.06764 -4.34311,-20.24 -5.84871,-31.32579 -1.11433,-8.2048 -1.71827,-17.87358 -2.03419,-32.56614 l -0.44929,-20.89676 -57.2439,0.19292 -57.243889,0.19292 0.246131,11.66941 c 0.473159,22.43425 -3.056962,54.44899 -7.969456,72.27504 -0.493381,1.79034 -0.447794,1.82231 0.934745,0.65544 5.010693,-4.22912 9.42278,-4.57833 18.654971,-1.47653 7.259382,2.43898 19.451788,5.04311 28.147128,6.01184 8.20151,0.91372 25.90964,0.94644 33.91623,0.0628 z M 98.324385,226.23595 V 214.1901 l -10.479732,-0.005 c -5.763853,-0.002 -13.86409,-0.22515 -18.000535,-0.49581 -7.377375,-0.48254 -7.511182,-0.462 -7.016943,1.0762 0.864054,2.68921 3.476008,18.49629 3.481343,21.06836 l 0.0048,2.4467 H 82.31869 98.324099 Z m 45.729735,0 V 214.1901 H 124.2379 104.42168 v 12.04585 12.04584 h 19.81622 19.81622 z m 39.17724,9.59902 c 0.20674,-1.34574 1.07915,-6.82347 1.93852,-12.17274 0.85933,-5.34927 1.47681,-9.81054 1.37215,-9.91392 -0.1048,-0.10351 -8.33539,0.005 -18.29047,0.24179 l -18.10014,0.42979 v 11.93094 11.93096 h 16.35196 16.35195 z m 2.45633,-28.98843 c 4.13157,-2.27146 9.68076,-14.34815 17.08981,-37.19238 8.2329,-25.38444 8.14775,-25.87609 -6.0848,-35.12906 -11.95885,-7.77479 -28.38595,-13.40547 -47.77186,-16.37462 -11.38449,-1.74366 -37.14055,-1.73413 -48.66506,0.0188 -23.085806,3.50985 -44.420659,12.02041 -55.125562,21.98975 l -4.176649,3.88968 0.413592,5.52113 c 0.439863,5.87193 7.98727,30.08898 13.135153,42.14614 3.105335,7.27322 7.053336,13.92464 8.717494,14.68682 2.643393,1.21068 15.019885,1.47119 66.734312,1.40475 40.12247,-0.0515 54.53238,-0.29982 55.73357,-0.96023 z M 12.64443,169.55617 c 0.873177,-0.50294 5.932029,-4.27594 11.241895,-8.38451 l 9.654262,-7.47012 -0.0048,-10.59865 -0.0048,-10.59864 -3.234283,3.76395 c -1.77884,2.07016 -6.836525,7.82958 -11.239275,12.7987 -12.6338405,14.25908 -12.9543774,14.65777 -12.9543774,16.11164 0,1.67158 2.8099973,5.35577 4.0566564,5.31871 0.493572,-0.0141 1.611831,-0.43816 2.485031,-0.94108 z m 229.67332,-1.01594 c 0.86881,-1.09102 1.57965,-2.6043 1.57965,-3.36282 0,-0.75853 -2.48656,-4.21477 -5.52568,-7.68056 -17.77444,-20.26979 -20.67732,-23.51035 -21.26445,-23.73783 -0.35624,-0.13811 -0.64772,4.29257 -0.64772,9.84578 v 10.09674 l 9.65426,7.47012 c 13.62068,10.53916 13.66363,10.55869 16.20394,7.36857 z M 208.72725,49.770098 c -1.97191,-6.110276 -6.45273,-13.054586 -10.4326,-16.168247 -3.47972,-2.722384 -9.56252,-5.551486 -16.13241,-7.503195 -2.72473,-0.809424 -5.00214,-1.422726 -5.06092,-1.362897 -0.17292,0.175982 17.96083,101.571701 18.18996,101.710231 4.9072,2.96659 8.81705,5.57 11.41445,7.60043 l 3.27544,2.56047 0.21031,-40.823869 c 0.20745,-40.257999 0.18721,-40.895794 -1.46426,-46.012923 z M 44.781457,132.65877 c 2.410887,-1.77833 5.920692,-4.24641 7.799541,-5.48462 l 3.416107,-2.25123 8.910178,-50.03461 c 4.900584,-27.519028 8.812859,-50.130694 8.693938,-50.248188 -0.440316,-0.434945 -13.129152,3.830389 -16.704765,5.615291 -4.775876,2.384041 -9.481942,7.203318 -12.46033,12.760121 -4.838087,9.026452 -4.79824,8.588567 -4.79824,52.734973 0,22.077903 0.17101,40.141633 0.380057,40.141633 0.209118,0 2.352604,-1.455 4.763514,-3.23337 z M 179.90786,74.040349 c -9.85347,-55.739445 -8.90677,-51.077964 -10.37367,-51.077964 -2.18634,0 -5.72801,-2.326423 -7.21904,-4.741967 -1.08655,-1.760269 -1.48852,-3.780677 -1.49062,-7.492089 l -0.002,-5.0818395 H 125.00052 89.17889 v 5.3871965 c 0,4.58763 -0.283025,5.753771 -1.907002,7.856923 -1.048854,1.358357 -3.093522,2.893543 -4.543726,3.411537 -1.843432,0.658475 -2.758313,1.522364 -3.040861,2.871404 -0.530965,2.535014 -17.184093,96.20681 -17.184093,96.65841 0,0.19104 2.658041,-0.67473 5.906758,-1.92416 7.510038,-2.88832 20.497784,-6.14267 31.145454,-7.80415 11.35677,-1.77215 39.42828,-1.79612 50.21537,-0.0428 11.57997,1.8821 23.63118,4.95529 31.24866,7.9688 3.7727,1.49248 6.96295,2.48575 7.08944,2.20723 0.12648,-0.27849 -3.56377,-21.96688 -8.20055,-48.19644 z M 51.278272,26.652953 c 4.52591,-2.889543 13.617078,-6.185986 24.487561,-8.879078 3.312381,-0.820647 6.308156,-1.936981 6.65725,-2.480761 0.349094,-0.54378 0.639954,-2.936715 0.646385,-5.3176505 l 0.01191,-4.328974 -2.858109,0.00941 c -4.219998,0.014116 -16.230842,2.6133122 -20.303862,4.3930375 -8.686911,3.795758 -14.535126,10.187888 -17.274004,18.880585 -2.154895,6.839214 -1.894974,7.577587 1.349385,3.833518 1.557788,-1.797724 4.835467,-4.547469 7.283723,-6.110558 z M 207.41006,29.128962 C 204.65794,20.178667 199.02699,13.939063 190.25519,10.119778 186.02929,8.2798232 174.06098,5.6711929 169.7771,5.6563709 l -2.85811,-0.00941 V 10.04748 c 0,3.263693 0.34457,4.688937 1.33379,5.517042 0.73358,0.614102 5.62095,2.206459 10.86081,3.53856 12.51499,3.181631 20.95785,7.280369 25.72689,12.489584 1.98898,2.172603 3.73322,3.653112 3.87603,3.290043 0.1429,-0.363069 -0.44508,-2.952031 -1.30645,-5.753253 z"
         id="path3480"
         inkscape:connector-curvature="0" />
    </g>
  </g>
</svg>
