<?xml version="1.0" encoding="UTF-8" standalone="no"?>
<!-- Created with Inkscape (http://www.inkscape.org/) -->

<svg
   xmlns:dc="http://purl.org/dc/elements/1.1/"
   xmlns:cc="http://creativecommons.org/ns#"
   xmlns:rdf="http://www.w3.org/1999/02/22-rdf-syntax-ns#"
   xmlns:svg="http://www.w3.org/2000/svg"
   xmlns="http://www.w3.org/2000/svg"
   xmlns:xlink="http://www.w3.org/1999/xlink"
   xmlns:sodipodi="http://sodipodi.sourceforge.net/DTD/sodipodi-0.dtd"
   xmlns:inkscape="http://www.inkscape.org/namespaces/inkscape"
   width="280mm"
   height="1437.765mm"
   viewBox="0 0 280 1437.765"
   version="1.1"
   id="svg8"
   inkscape:version="0.92.3 (2405546, 2018-03-11)"
   sodipodi:docname="hgv-simple01_silver.svg">
  <defs
     id="defs2">
    <linearGradient
       inkscape:collect="always"
       id="linearGradient1565">
      <stop
         style="stop-color:#ffffff;stop-opacity:1;"
         offset="0"
         id="stop1561" />
      <stop
         style="stop-color:#ffffff;stop-opacity:0;"
         offset="1"
         id="stop1563" />
    </linearGradient>
    <linearGradient
       inkscape:collect="always"
       id="linearGradient1555">
      <stop
         style="stop-color:#ffffff;stop-opacity:1;"
         offset="0"
         id="stop1551" />
      <stop
         style="stop-color:#ffffff;stop-opacity:0;"
         offset="1"
         id="stop1553" />
    </linearGradient>
    <linearGradient
       inkscape:collect="always"
       id="linearGradient1523">
      <stop
         style="stop-color:#000000;stop-opacity:1;"
         offset="0"
         id="stop1519" />
      <stop
         style="stop-color:#000000;stop-opacity:0;"
         offset="1"
         id="stop1521" />
    </linearGradient>
    <linearGradient
       inkscape:collect="always"
       id="linearGradient1453">
      <stop
         style="stop-color:#ffffff;stop-opacity:1;"
         offset="0"
         id="stop1449" />
      <stop
         style="stop-color:#ffffff;stop-opacity:0;"
         offset="1"
         id="stop1451" />
    </linearGradient>
    <linearGradient
       inkscape:collect="always"
       xlink:href="#linearGradient1453"
       id="linearGradient1455"
       x1="140.22916"
       y1="118.43906"
       x2="239.63689"
       y2="118.43906"
       gradientUnits="userSpaceOnUse"
       gradientTransform="matrix(-1,0,0,1,379.86605,0.75595238)" />
    <linearGradient
       gradientTransform="translate(4.3749999e-7,-6.5348954e-6)"
       inkscape:collect="always"
       xlink:href="#linearGradient1421"
       id="linearGradient1423-3"
       x1="40.689137"
       y1="118.43906"
       x2="140.36145"
       y2="118.43906"
       gradientUnits="userSpaceOnUse" />
    <linearGradient
       inkscape:collect="always"
       id="linearGradient1421">
      <stop
         style="stop-color:#000000;stop-opacity:1;"
         offset="0"
         id="stop1417" />
      <stop
         style="stop-color:#000000;stop-opacity:0;"
         offset="1"
         id="stop1419" />
    </linearGradient>
    <linearGradient
       inkscape:collect="always"
       xlink:href="#linearGradient1523"
       id="linearGradient1525"
       x1="16.252976"
       y1="834.16743"
       x2="140.22917"
       y2="834.16743"
       gradientUnits="userSpaceOnUse" />
    <linearGradient
       inkscape:collect="always"
       xlink:href="#linearGradient1555"
       id="linearGradient1557"
       x1="130.64433"
       y1="834.16748"
       x2="254.62054"
       y2="834.16748"
       gradientUnits="userSpaceOnUse"
       gradientTransform="matrix(-1,0,0,1,394.84971,0)" />
    <linearGradient
       inkscape:collect="always"
       xlink:href="#linearGradient1565"
       id="linearGradient1567"
       x1="275.41235"
       y1="1704.3326"
       x2="132.04601"
       y2="1275.7075"
       gradientUnits="userSpaceOnUse" />
  </defs>
  <sodipodi:namedview
     id="base"
     pagecolor="#ffffff"
     bordercolor="#666666"
     borderopacity="1.0"
     inkscape:pageopacity="0.0"
     inkscape:pageshadow="2"
     inkscape:zoom="0.12374369"
     inkscape:cx="-1422.2003"
     inkscape:cy="3092.8076"
     inkscape:document-units="mm"
     inkscape:current-layer="layer3"
     showgrid="false"
     inkscape:window-width="1920"
     inkscape:window-height="1053"
     inkscape:window-x="0"
     inkscape:window-y="27"
     inkscape:window-maximized="1" />
  <metadata
     id="metadata5">
    <rdf:RDF>
      <cc:Work
         rdf:about="">
        <dc:format>image/svg+xml</dc:format>
        <dc:type
           rdf:resource="http://purl.org/dc/dcmitype/StillImage" />
        <dc:title></dc:title>
      </cc:Work>
    </rdf:RDF>
  </metadata>
  <g
     style="display:none"
     inkscape:label="colour yellow"
     id="g1409"
     inkscape:groupmode="layer">
    <path
       sodipodi:nodetypes="cccccccccccccccccccccccccccccccc"
       inkscape:connector-curvature="0"
       id="path1407"
       d="m 96.383926,2.967333 h 86.934524 l 21.35565,2.8348215 17.76489,7.3705355 11.52827,13.418154 5.48065,23.245535 v 18.142859 l 38.93155,46.491072 -9.93971,11.06541 -28.99184,-20.13684 V 235.2337 l 12.85119,2.64583 9.44941,11.1503 1.70089,14.55208 V 1413.7635 l -5.29166,12.4732 -11.33929,8.3154 H 32.127975 l -12.473213,-11.0558 -3.401786,-18.3318 V 254.88846 l 7.843006,-14.55208 16.725445,-6.4256 V 106.22817 L 10.672767,125.6441 2.8691541,113.44444 40.821427,69.612242 V 50.50247 L 46.638532,24.44369 60.135642,10.67931 78.443605,4.5321108 Z"
       style="fill:#c3b992;fill-opacity:1;stroke:none;stroke-width:0.26458332px;stroke-linecap:butt;stroke-linejoin:miter;stroke-opacity:1" />
  </g>
  <g
     style="display:none"
     inkscape:label="colour white"
     id="g1413"
     inkscape:groupmode="layer">
    <path
       sodipodi:nodetypes="cccccccccccccccccccccccccccccccc"
       inkscape:connector-curvature="0"
       id="path1411"
       d="m 96.383926,2.967333 h 86.934524 l 21.35565,2.8348215 17.76489,7.3705355 11.52827,13.418154 5.48065,23.245535 v 18.142859 l 38.93155,46.491072 -9.93971,11.06541 -28.99184,-20.13684 V 235.2337 l 12.85119,2.64583 9.44941,11.1503 1.70089,14.55208 V 1413.7635 l -5.29166,12.4732 -11.33929,8.3154 H 32.127975 l -12.473213,-11.0558 -3.401786,-18.3318 V 254.88846 l 7.843006,-14.55208 16.725445,-6.4256 V 106.22817 L 10.672767,125.6441 2.8691541,113.44444 40.821427,69.612242 V 50.50247 L 46.638532,24.44369 60.135642,10.67931 78.443605,4.5321108 Z"
       style="fill:#d5d5d5;fill-opacity:1;stroke:none;stroke-width:0.26458332px;stroke-linecap:butt;stroke-linejoin:miter;stroke-opacity:1" />
  </g>
  <g
     style="display:inline"
     inkscape:label="colour silver"
     id="g1405"
     inkscape:groupmode="layer">
    <path
       sodipodi:nodetypes="cccccccccccccccccccccccccccccccc"
       inkscape:connector-curvature="0"
       id="path1403"
       d="m 96.383926,2.967333 h 86.934524 l 21.35565,2.8348215 17.76489,7.3705355 11.52827,13.418154 5.48065,23.245535 v 18.142859 l 38.93155,46.491072 -9.93971,11.06541 -28.99184,-20.13684 V 235.2337 l 12.85119,2.64583 9.44941,11.1503 1.70089,14.55208 V 1413.7635 l -5.29166,12.4732 -11.33929,8.3154 H 32.127975 l -12.473213,-11.0558 -3.401786,-18.3318 V 254.88846 l 7.843006,-14.55208 16.725445,-6.4256 V 106.22817 L 10.672767,125.6441 2.8691541,113.44444 40.821427,69.612242 V 50.50247 L 46.638532,24.44369 60.135642,10.67931 78.443605,4.5321108 Z"
       style="fill:#bababa;fill-opacity:1;stroke:none;stroke-width:0.26458332px;stroke-linecap:butt;stroke-linejoin:miter;stroke-opacity:1" />
  </g>
  <g
     style="display:none"
     inkscape:label="colour red"
     id="g1401"
     inkscape:groupmode="layer">
    <path
       sodipodi:nodetypes="cccccccccccccccccccccccccccccccc"
       inkscape:connector-curvature="0"
       id="path1399"
       d="m 96.383926,2.967333 h 86.934524 l 21.35565,2.8348215 17.76489,7.3705355 11.52827,13.418154 5.48065,23.245535 v 18.142859 l 38.93155,46.491072 -9.93971,11.06541 -28.99184,-20.13684 V 235.2337 l 12.85119,2.64583 9.44941,11.1503 1.70089,14.55208 V 1413.7635 l -5.29166,12.4732 -11.33929,8.3154 H 32.127975 l -12.473213,-11.0558 -3.401786,-18.3318 V 254.88846 l 7.843006,-14.55208 16.725445,-6.4256 V 106.22817 L 10.672767,125.6441 2.8691541,113.44444 40.821427,69.612242 V 50.50247 L 46.638532,24.44369 60.135642,10.67931 78.443605,4.5321108 Z"
       style="fill:#a99492;fill-opacity:1;stroke:none;stroke-width:0.26458332px;stroke-linecap:butt;stroke-linejoin:miter;stroke-opacity:1" />
  </g>
  <g
     style="display:none"
     inkscape:label="colour green"
     id="g1393"
     inkscape:groupmode="layer">
    <path
       sodipodi:nodetypes="cccccccccccccccccccccccccccccccc"
       inkscape:connector-curvature="0"
       id="path1391"
       d="m 96.383926,2.967333 h 86.934524 l 21.35565,2.8348215 17.76489,7.3705355 11.52827,13.418154 5.48065,23.245535 v 18.142859 l 38.93155,46.491072 -9.93971,11.06541 -28.99184,-20.13684 V 235.2337 l 12.85119,2.64583 9.44941,11.1503 1.70089,14.55208 V 1413.7635 l -5.29166,12.4732 -11.33929,8.3154 H 32.127975 l -12.473213,-11.0558 -3.401786,-18.3318 V 254.88846 l 7.843006,-14.55208 16.725445,-6.4256 V 106.22817 L 10.672767,125.6441 2.8691541,113.44444 40.821427,69.612242 V 50.50247 L 46.638532,24.44369 60.135642,10.67931 78.443605,4.5321108 Z"
       style="fill:#95a692;fill-opacity:1;stroke:none;stroke-width:0.26458332px;stroke-linecap:butt;stroke-linejoin:miter;stroke-opacity:1" />
  </g>
  <g
     style="display:none"
     inkscape:label="colour gray"
     id="g1389"
     inkscape:groupmode="layer">
    <path
       sodipodi:nodetypes="cccccccccccccccccccccccccccccccc"
       inkscape:connector-curvature="0"
       id="path1387"
       d="m 96.383926,2.967333 h 86.934524 l 21.35565,2.8348215 17.76489,7.3705355 11.52827,13.418154 5.48065,23.245535 v 18.142859 l 38.93155,46.491072 -9.93971,11.06541 -28.99184,-20.13684 V 235.2337 l 12.85119,2.64583 9.44941,11.1503 1.70089,14.55208 V 1413.7635 l -5.29166,12.4732 -11.33929,8.3154 H 32.127975 l -12.473213,-11.0558 -3.401786,-18.3318 V 254.88846 l 7.843006,-14.55208 16.725445,-6.4256 V 106.22817 L 10.672767,125.6441 2.8691541,113.44444 40.821427,69.612242 V 50.50247 L 46.638532,24.44369 60.135642,10.67931 78.443605,4.5321108 Z"
       style="fill:#9b9b9a;fill-opacity:1;stroke:none;stroke-width:0.26458332px;stroke-linecap:butt;stroke-linejoin:miter;stroke-opacity:1" />
  </g>
  <g
     style="display:none"
     inkscape:label="colour dark blue"
     id="g1385"
     inkscape:groupmode="layer">
    <path
       sodipodi:nodetypes="cccccccccccccccccccccccccccccccc"
       inkscape:connector-curvature="0"
       id="path1383"
       d="m 96.383926,2.967333 h 86.934524 l 21.35565,2.8348215 17.76489,7.3705355 11.52827,13.418154 5.48065,23.245535 v 18.142859 l 38.93155,46.491072 -9.93971,11.06541 -28.99184,-20.13684 V 235.2337 l 12.85119,2.64583 9.44941,11.1503 1.70089,14.55208 V 1413.7635 l -5.29166,12.4732 -11.33929,8.3154 H 32.127975 l -12.473213,-11.0558 -3.401786,-18.3318 V 254.88846 l 7.843006,-14.55208 16.725445,-6.4256 V 106.22817 L 10.672767,125.6441 2.8691541,113.44444 40.821427,69.612242 V 50.50247 L 46.638532,24.44369 60.135642,10.67931 78.443605,4.5321108 Z"
       style="fill:#9494a8;fill-opacity:1;stroke:none;stroke-width:0.26458332px;stroke-linecap:butt;stroke-linejoin:miter;stroke-opacity:1" />
  </g>
  <g
     inkscape:groupmode="layer"
     id="layer3"
     inkscape:label="colour black"
     style="display:none">
    <path
       style="fill:#777777;fill-opacity:1;stroke:none;stroke-width:0.26458332px;stroke-linecap:butt;stroke-linejoin:miter;stroke-opacity:1"
       d="m 96.383926,2.967333 h 86.934524 l 21.35565,2.8348215 17.76489,7.3705355 11.52827,13.418154 5.48065,23.245535 v 18.142859 l 38.93155,46.491072 -9.93971,11.06541 -28.99184,-20.13684 V 235.2337 l 12.85119,2.64583 9.44941,11.1503 1.70089,14.55208 V 1413.7635 l -5.29166,12.4732 -11.33929,8.3154 H 32.127975 l -12.473213,-11.0558 -3.401786,-18.3318 V 254.88846 l 7.843006,-14.55208 16.725445,-6.4256 V 106.22817 L 10.672767,125.6441 2.8691541,113.44444 40.821427,69.612242 V 50.50247 L 46.638532,24.44369 60.135642,10.67931 78.443605,4.5321108 Z"
       id="path1381"
       inkscape:connector-curvature="0"
       sodipodi:nodetypes="cccccccccccccccccccccccccccccccc" />
  </g>
  <g
     inkscape:groupmode="layer"
     id="layer4"
     inkscape:label="shadow back"
     style="display:inline;opacity:0.075">
    <path
       style="display:inline;opacity:1;fill:url(#linearGradient1525);fill-opacity:1;stroke:none;stroke-width:0.26458332px;stroke-linecap:butt;stroke-linejoin:miter;stroke-opacity:1"
       d="M 140.22917,234.66672 V 1434.4241 H 32.874151 l -13.219389,-10.9278 -3.401786,-18.3318 V 254.88845 l 7.843006,-14.55208 16.725445,-6.4256 z"
       id="path1484"
       inkscape:connector-curvature="0" />
    <path
       style="display:inline;opacity:1;fill:url(#linearGradient1557);fill-opacity:1;stroke:none;stroke-width:0.26458332px;stroke-linecap:butt;stroke-linejoin:miter;stroke-opacity:1"
       d="M 140.22917,234.66672 V 1434.4242 H 247.5842 l 13.21939,-10.9279 3.40179,-18.3318 V 254.88845 l -7.84301,-14.55208 -16.72544,-6.4256 z"
       id="path1484-2"
       inkscape:connector-curvature="0" />
    <path
       style="fill:url(#linearGradient1567);fill-opacity:1;stroke:#000000;stroke-width:0.26458332px;stroke-linecap:butt;stroke-linejoin:miter;stroke-opacity:1"
       d="m 246.81845,1434.5521 11.33929,-8.3154 5.29166,-12.4732 0.75598,-1158.87505 -7.84301,-14.55208 -16.72544,-6.4256 -198.815503,10e-6 -16.725445,6.42559 -7.843006,14.55209 V 1405.1645 l 3.401786,18.3318 12.473213,11.0558 z"
       id="path1559"
       inkscape:connector-curvature="0" />
  </g>
  <g
     inkscape:groupmode="layer"
     id="layer2"
     inkscape:label="shadow front"
     style="display:inline;opacity:0.1">
    <path
       style="fill:url(#linearGradient1455);fill-opacity:1;stroke:none;stroke-width:0.26458332px;stroke-linecap:butt;stroke-linejoin:miter;stroke-opacity:1"
       d="M 239.63689,234.66673 H 140.22916 V 3.7232862 h 44.60118 l 17.18437,1.564777 18.30797,6.1471988 13.49711,13.76438 5.8171,26.05878 z"
       id="path1415"
       inkscape:connector-curvature="0" />
    <path
       style="display:inline;fill:url(#linearGradient1423-3);fill-opacity:1;stroke:none;stroke-width:0.26458332px;stroke-linecap:butt;stroke-linejoin:miter;stroke-opacity:1"
       d="M 40.821427,233.91078 H 140.22916 V 2.9673276 H 95.627975 l -17.18437,1.564777 -18.307963,6.1471994 -13.497108,13.764381 -5.817107,26.05878 z"
       id="path1415-5"
       inkscape:connector-curvature="0" />
  </g>
  <g
     inkscape:groupmode="layer"
     id="layer5"
     inkscape:label="windows">
    <path
       style="fill:#000000;stroke:none;stroke-width:0.26458332px;stroke-linecap:butt;stroke-linejoin:miter;stroke-opacity:1;fill-opacity:0.15686275"
       d="m 40.63244,143.76352 31.183035,0.18899 -5.669643,-48.002974 H 215.41924 l -6.02043,48.002974 h 29.86012 L 239.63689,51.258422 221.87202,34.528405 182.94047,21.488226 96.00595,20.543286 56.885416,34.339416 40.821427,50.50247 Z"
       id="path857"
       inkscape:connector-curvature="0" />
  </g>
  <g
     inkscape:label="type hgv"
     inkscape:groupmode="layer"
     id="layer1"
     transform="translate(0,1140.765)"
     style="display:inline;opacity:1">
    <path
       style="fill:#323232;stroke-width:0.76711982;fill-opacity:1"
       d="m 30.615761,296.0156 c -4.21792,-1.30743 -9.97331,-6.17498 -12.59913,-10.65557 -1.04766,-1.78781 -2.59564,-5.95127 -3.4399,-9.25228 -1.52859,-5.97682 -1.53493,-8.39588 -1.5217,-581.79423 0.0181,-625.55124 -0.29809,-581.09641 4.14525,-589.86459 1.08663,-2.14425 3.0272,-5.09624 4.31252,-6.56023 2.64275,-3.00989 9.25663,-6.59448 12.20001,-6.61215 4.09044,-0.0272 3.90044,3.12976 3.68969,-61.26477 l -0.19661,-60.02948 -9.86866,7.6913 c -5.42777,4.2302 -11.05985,8.0844 -12.51568,8.5649 -7.2171202,2.3818 -14.82094021704,-4.2665 -14.82094021704,-12.9585 0,-3.5705 -0.35698000296,-3.0844 16.18952021704,-22.0458 19.71486,-22.5923 19.88003,-22.8914 21.36287,-38.6848 2.02483,-21.5667 6.40367,-33.1689 15.44674,-40.9279 5.15052,-4.4192 14.6178,-8.756 23.32935,-10.6867 7.5346,-1.6699 8.66824,-1.7002 63.670909,-1.7002 55.00267,0 56.13632,0.03 63.67091,1.7002 8.71156,1.9307 18.17884,6.2675 23.32935,10.6867 1.8613,1.597 4.69786,4.9362 6.30355,7.4204 5.42768,8.3977 7.66652,16.508 9.14383,33.124 1.43618,16.1525 1.55559,16.3709 21.36223,39.0683 16.54641,18.9614 16.18952,18.4753 16.18952,22.0458 0,8.692 -7.60382,15.3403 -14.82093,12.9585 -1.45584,-0.4805 -7.08792,-4.3347 -12.51568,-8.5649 l -9.86876,-7.6913 -0.19661,60.00908 c -0.10782,33.00491 -0.0362,60.16774 0.15675,60.36182 0.19389,0.19389 2.00843,0.66141 4.032,1.03824 10.10695,1.88295 17.1396,10.81367 19.37817,24.60842 0.52732,3.24817 0.7801,192.15172 0.77467,578.62814 -0.008,623.21998 0.29809,578.77013 -4.05946,588.28915 -2.44524,5.34115 -5.70429,8.90789 -10.63572,11.63962 l -4.0802,2.26023 -107.01321,0.14497 c -90.683699,0.12322 -107.550679,-0.0181 -110.535009,-0.94646 z m 105.932289,-9.1711 v -3.45204 H 85.656481 c -55.1451,0 -55.27249,-0.009 -60.75896,-4.19354 -3.26141,-2.48765 -3.53241,-1.15603 -0.63424,3.11498 2.42449,3.57273 3.56231,4.54546 7.57265,6.47362 2.93143,1.40936 5.33934,1.47604 53.89023,1.49208 l 50.821709,0.0181 z m 111.06524,2.26068 c 3.84136,-1.6047 6.82724,-4.57046 9.11383,-9.05268 l 1.89962,-3.72358 -2.54644,1.90696 c -6.81647,5.10458 -2.54246,4.75067 -60.27224,4.99005 l -52.35593,0.21745 v 3.42667 3.42676 h 50.65455 c 44.05953,0 51.02585,-0.15493 53.50661,-1.19136 z m 0,-13.80816 c 5.73872,-2.39722 9.87564,-8.25354 11.62213,-16.45245 0.68316,-3.20877 0.84353,-140.71499 0.66685,-574.18915 l -0.23194,-569.96997 -1.66958,-4.07268 c -2.26874,-5.53459 -5.08555,-9.03392 -8.92275,-11.08503 l -3.21583,-1.71886 -104.28646,-0.20296 c -90.892729,-0.17668 -104.795479,-0.0544 -108.249239,0.94936 -5.43003,1.57852 -9.61243,6.17725 -11.98428,13.177 l -1.78038,5.25417 -0.2247,567.28508 c -0.16581,420.21036 9.9e-4,568.46936 0.6451,571.85291 1.96748,10.34044 5.53948,16.04446 11.85345,18.92831 2.92336,1.33525 8.03147,1.40229 107.996719,1.41833 93.15205,0.0181 105.24841,-0.11688 107.78036,-1.17442 z M 222.22268,-912.73905 c -3.61495,-4.45249 -6.30464,-10.03021 -14.83362,-30.76002 -4.01895,-9.76815 -8.54022,-20.11505 -10.04734,-22.99305 -5.23332,-9.9941 -11.69271,-15.3802 -20.74938,-17.3019 -5.56802,-1.1813 -67.61647,-1.1813 -73.18449,0 -9.056669,1.9217 -15.515969,7.3078 -20.749389,17.3019 -1.50711,2.878 -6.02838,13.2249 -10.04733,22.99305 -8.52898,20.72981 -11.21877,26.30753 -14.83362,30.76002 l -2.64693,3.26023 h 84.869509 84.86942 z m -115.84019,-20.25694 c -0.28541,-0.28541 -0.51917,-1.15567 -0.51917,-1.93342 0,-1.35635 1.42141,-1.40609 34.7122,-1.21464 34.13424,0.19661 34.7122,0.2256 34.7122,1.7339 0,1.50829 -0.57805,1.53756 -34.19294,1.73381 -18.80618,0.10963 -34.42661,-0.0362 -34.7122,-0.31984 z m -0.24192,-22.89353 c -0.24282,-0.6333 -0.24282,-1.6685 0,-2.3014 0.38326,-0.9983 4.8527,-1.1507 33.77263,-1.1507 18.33205,0 33.8771,0.2093 34.54449,0.4658 1.56955,0.6025 1.56955,3.0691 0,3.6713 -0.66775,0.2565 -16.21244,0.4658 -34.54449,0.4658 -28.91993,0 -33.38946,-0.1523 -33.77263,-1.1507 z m -57.226289,41.85165 c 5.64051,-4.086 7.04887,-6.73066 18.51127,-34.76045 7.33889,-17.9464 9.14573,-21.6606 13.58128,-27.9176 5.41943,-7.6451 11.73231,-11.7924 20.910299,-13.7378 7.3503,-1.5579 68.81544,-1.5579 76.16575,0 9.17807,1.9454 15.49087,6.0927 20.91039,13.7378 4.43546,6.257 6.2423,9.9712 13.58119,27.9176 8.80614,21.53434 10.57665,25.47139 13.1307,29.19877 2.33778,3.41191 7.7111,7.81937 9.53279,7.81937 0.85622,0 1.03561,-7.03727 1.03561,-40.65734 v -40.6573 h -14.90719 c -14.00549,0 -14.93527,-0.089 -15.37271,-1.467 -0.74477,-2.3474 1.83809,-29.09558 3.70618,-38.37678 1.07068,-5.3195 1.40936,-8.49 0.90786,-8.4988 -0.83809,-0.014 -140.108299,-0.01 -140.831869,0.01 -0.22922,0 0.35699,3.8512 1.30245,8.548 0.94537,4.6968 2.29311,15.2676 2.99512,23.4908 1.07339,12.57518 1.11027,15.05628 0.23195,15.61288 -0.57444,0.364 -7.5172,0.667 -15.42808,0.6736 l -14.3835,0.012 v 40.6573 c 0,22.36154 0.29356,40.65735 0.65236,40.65735 0.35879,0 2.05455,-1.01595 3.7687,-2.25778 z m 41.6065,-87.77543 c 0,-4.0357 -0.35155,-3.8478 10.127969,-5.4202 24.80829,-3.7228 59.36665,-3.379 82.88527,0.8245 l 6.71236,1.1996 v 3.3724 c 0,1.85478 -0.1649,3.37228 -0.36695,3.37228 -0.20205,0 -4.60308,-0.6785 -9.78078,-1.5078 -25.08518,-4.01788 -53.51738,-4.15228 -78.83823,-0.37268 -4.430109,0.66138 -8.658819,1.37818 -9.397149,1.59308 -1.13754,0.3311 -1.34249,-0.1361 -1.34249,-3.06128 z m -22.79687,1.2391 c 0.57625,-1.0788 -0.98542,-17.4291 -2.50921,-26.2739 -2.38825,-13.8622 -4.81292,-21.5235 -9.41672,-29.7547 -2.29194,-4.0978 -5.49337,-10.3848 -7.11428,-13.9711 -1.62083,-3.5863 -3.22671,-6.8485 -3.56856,-7.2493 -0.72484,-0.8502 -0.72484,-0.8664 -0.64148,62.6737 l 0.0181,15.15058 h 11.46149 c 6.30382,0 11.59985,-0.25888 11.76883,-0.57528 z m 168.213869,-37.5889 c -0.14496,-20.9903 -0.31711,-39.0272 -0.38325,-40.082 -0.0815,-1.3053 -2.08799,2.1251 -6.28127,10.7396 -3.38861,6.9617 -6.80794,14.3835 -7.59847,16.4931 -3.73282,9.9613 -7.16348,26.7063 -8.01534,39.1231 -0.26094,3.7973 -0.64511,8.026 -0.85531,9.3972 l -0.38145,2.49318 h 11.8887 11.88869 z m -217.707139,14.1917 c 2.9095,-2.2151 8.43865,-6.4438 12.2869,-9.3972 l 6.99677,-5.3699 0.0362,-12.2355 c 0.0181,-6.9915 -0.24916,-11.9232 -0.63061,-11.5068 -2.47695,2.7021 -26.91113,31.0757 -28.2971102,32.8594 -0.94582,1.2172 -1.71959,2.983 -1.71959,3.924 0,2.2536 2.80286,5.7534 4.6077902,5.7534 0.78555,0 3.80857,-1.8123 6.71807,-4.0274 z m 253.274829,2.0061 c 2.05138,-2.6079 2.01261,-4.8991 -0.12956,-7.6561 -1.38607,-1.7837 -25.82017,-30.1573 -28.29712,-32.8594 -0.38144,-0.4164 -0.65235,4.5153 -0.63061,11.5068 l 0.0362,12.2355 6.99685,5.3699 c 15.80989,12.1336 17.63757,13.4246 19.00488,13.4246 0.78555,0 2.14344,-0.9096 3.01795,-2.0213 z m -64.26609,-27.1488 c 5.4081,-1.5021 10.86622,-9.5379 19.49559,-28.7026 l 5.16103,-11.4619 -1.78555,-3.3657 c -6.28715,-11.8514 -19.57469,-18.1732 -47.91874,-22.7983 -15.16659,-2.4748 -27.14816,-3.4441 -42.57515,-3.4441 -34.30665,0 -67.025549,6.4491 -80.843219,15.9345 -3.31232,2.2738 -10.44409,11.8872 -10.44409,14.0784 0,1.6848 8.51141,20.5303 12.43024,27.5225 3.55632,6.3454 8.03845,11.3325 10.97096,12.2069 3.29085,0.9813 131.981329,1.0101 135.508929,0.03 z m -147.495479,-62.3991 c 6.82734,-3.5877 9.70721,-4.6132 21.95443,-7.8183 6.13738,-1.6061 10.34098,-3.1142 10.93145,-3.9218 0.53185,-0.7279 0.9596,-3.5072 0.9596,-6.2413 v -4.929 l -5.17806,0.5306 c -22.90877,2.3473 -35.60792,10.4963 -40.69474,26.1138 -3.1226,9.5868 -3.04006,9.7532 2.05682,4.1471 3.17307,-3.4902 6.26423,-5.9335 9.9705,-7.8811 z m 173.395559,6.368 c -2.11771,-7.6422 -4.74361,-12.2375 -9.63781,-16.8662 -6.96414,-6.5864 -17.11377,-10.3653 -31.91278,-11.8816 l -5.17806,-0.5306 v 4.6493 c 0,6.3323 1.55949,7.9836 9.20544,9.748 17.4983,4.0377 27.75203,8.8462 34.36346,16.1145 2.40682,2.6461 4.45766,4.733 4.55742,4.6376 0.0997,-0.095 -0.52914,-2.7374 -1.39767,-5.871 z m -94.67358,-20.167 c 18.95306,-0.072 35.53979,0.8667 40.46551,2.2897 1.19444,0.345 1.34249,-0.2523 1.34249,-5.4173 v -5.8051 H 140.00009 99.726311 v 5.588 5.588 l 8.630089,-1.0809 c 5.37649,-0.6734 16.72799,-1.1116 30.10948,-1.1624 z"
       id="path826"
       inkscape:connector-curvature="0" />
  </g>
</svg>
