<?xml version="1.0" encoding="UTF-8" standalone="no"?>
<!-- Created with Inkscape (http://www.inkscape.org/) -->

<svg
   xmlns:dc="http://purl.org/dc/elements/1.1/"
   xmlns:cc="http://creativecommons.org/ns#"
   xmlns:rdf="http://www.w3.org/1999/02/22-rdf-syntax-ns#"
   xmlns:svg="http://www.w3.org/2000/svg"
   xmlns="http://www.w3.org/2000/svg"
   xmlns:sodipodi="http://sodipodi.sourceforge.net/DTD/sodipodi-0.dtd"
   xmlns:inkscape="http://www.inkscape.org/namespaces/inkscape"
   width="193.16171mm"
   height="208.17384mm"
   viewBox="0 0 193.16171 208.17384"
   version="1.1"
   id="svg8"
   sodipodi:docname="car_sharing.svg"
   inkscape:version="0.92.3 (2405546, 2018-03-11)">
  <defs
     id="defs2" />
  <sodipodi:namedview
     id="base"
     pagecolor="#ffffff"
     bordercolor="#666666"
     borderopacity="1.0"
     inkscape:pageopacity="0.0"
     inkscape:pageshadow="2"
     inkscape:zoom="0.49497475"
     inkscape:cx="-151.57251"
     inkscape:cy="379.33804"
     inkscape:document-units="mm"
     inkscape:current-layer="layer1"
     showgrid="false"
     inkscape:window-width="1920"
     inkscape:window-height="1053"
     inkscape:window-x="0"
     inkscape:window-y="27"
     inkscape:window-maximized="1" />
  <metadata
     id="metadata5">
    <rdf:RDF>
      <cc:Work
         rdf:about="">
        <dc:format>image/svg+xml</dc:format>
        <dc:type
           rdf:resource="http://purl.org/dc/dcmitype/StillImage" />
        <dc:title />
        <dc:title />
      </cc:Work>
    </rdf:RDF>
  </metadata>
  <g
     inkscape:label="Ebene 1"
     inkscape:groupmode="layer"
     id="layer1"
     transform="translate(37.357354,4.2906386)">
    <path
       style="fill:#ededed;fill-opacity:1;stroke-width:0.26458332"
       d="m -37.055581,160.49996 c 2.34684,-13.38653 12.02081,-24.64008 24.87061,-28.93152 1.74625,-0.58319 4.3060903,-1.24335 5.6885403,-1.46702 3.13978,-0.50798 9.21912,-0.51554 12.02876,-0.0149 1.15879,0.20646 2.12304,0.35114 2.14278,0.3215 0.0197,-0.0296 5.3697097,-12.07919 11.8887997,-26.7768 6.5191,-14.697602 13.20462,-29.758548 14.8567,-33.468765 1.65209,-3.710221 3.0038,-6.870677 3.0038,-7.023238 0,-0.152561 -0.58671,-0.724813 -1.3038,-1.271669 -2.10897,-1.608323 -6.17342,-6.013522 -7.75564,-8.405858 -3.03233,-4.584906 -5.06888,-9.667943 -5.90027,-14.72651 -0.54654,-3.325389 -0.41505,-10.510451 0.2456,-13.420624 2.27921,-10.040001 8.20474,-18.5433287 16.72244,-23.9972197 3.51133,-2.24831296 8.91087,-4.32877 13.3375,-5.138976 3.6725,-0.672177 9.877006,-0.614238 13.38899,0.125029 9.240409,1.945094 17.214424,6.960459 22.75432,14.3116387 1.838714,2.439882 4.444159,7.307673 5.375921,10.043906 3.957775,11.622485 2.119336,23.877763 -5.080103,33.864643 -1.758209,2.438945 -5.248447,6.060765 -7.17127,7.441631 l -1.178245,0.846153 0.475269,1.095346 c 0.261397,0.602443 3.240809,7.227067 6.620914,14.72139 3.380105,7.494323 8.50776,18.864792 11.394784,25.267713 2.887021,6.40291 6.727561,14.91588 8.534511,18.9177 l 3.28536,7.27605 1.55759,-0.1323 c 3.82175,-0.32459 11.07185,-0.13458 13.33154,0.34939 11.34108,2.429 20.7324,9.68767 25.94352,20.05208 1.3971,2.77869 2.75618,6.8686 3.33153,10.02562 0.67354,3.69581 0.61471,9.89284 -0.1271,13.38899 -1.11326,5.24679 -2.84588,9.41483 -5.7078,13.7308 -1.92341,2.90064 -6.86673,7.91324 -9.7278,9.86414 -4.19887,2.8631 -9.44164,5.02398 -14.64799,6.03736 -3.1785,0.61867 -9.40293,0.62175 -12.82269,0.006 -13.314356,-2.396 -24.666077,-12.21901 -28.932221,-25.03597 -1.155705,-3.47213 -1.530286,-5.77522 -1.680226,-10.33078 -0.167883,-5.10067 0.220094,-8.22148 1.534181,-12.34062 2.401076,-7.5264 6.816056,-13.66777 13.721438,-19.0869 l 0.650462,-0.51047 -2.682605,-5.91926 C 90.72173,120.94048 84.626582,107.441 82.802418,103.36625 81.890373,101.32896 79.746586,96.566457 78.038444,92.782916 76.330305,88.999374 73.27364,82.212811 71.245857,77.701666 c -2.027783,-4.511146 -3.77091,-8.286449 -3.873619,-8.38956 -0.102709,-0.10311 -1.138222,-0.01797 -2.301142,0.189207 -2.718118,0.484235 -8.919017,0.484235 -11.637127,0 -1.16293,-0.207174 -2.19438,-0.292317 -2.29214,-0.189207 -0.2006,0.211598 -29.60302,66.372914 -29.77713,67.004494 -0.0704,0.2553 0.36158,0.74558 1.16079,1.31751 1.90153,1.36079 5.56909,5.17631 7.29518,7.5895 3.11023,4.34832 5.17198,9.09549 6.29938,14.50423 0.78037,3.74388 0.8446,9.87318 0.14125,13.47881 -1.45512,7.45937 -4.69303,13.78096 -9.79961,19.13238 -5.46086,5.7227 -12.44012,9.50972 -20.4000097,11.06925 -3.48352,0.68251 -9.95617,0.62067 -13.534,-0.12931 -7.4461703,-1.56084 -13.7891203,-4.98731 -19.1427503,-10.34095 -5.17887,-5.17886 -8.52358,-11.3011 -10.2037,-18.67705 -0.59049,-2.59234 -0.7339,-10.92592 -0.23681,-13.76135 z m 15.4054,13.02545 c 1.39309,4.24376 3.65397,7.60095 7.02618,10.43317 6.6538903,5.5884 16.4745403,6.67606 24.3715403,2.69919 5.3036597,-2.67088 9.4253297,-7.58176 11.2811097,-13.44118 0.79054,-2.49606 1.01977,-8.38671 0.43377,-11.14699 -1.64378,-7.74285 -7.359,-14.04791 -14.9942597,-16.54174 -3.231,-1.05531 -7.93484,-1.33141 -11.19532,-0.65712 -7.4839703,1.54771 -13.5558703,6.58067 -16.3462303,13.54926 -1.30803,3.26666 -1.56314,4.83206 -1.46275,8.97576 0.079,3.26082 0.18505,3.99447 0.88596,6.12965 z M 37.313299,37.298059 c 1.46683,7.155402 6.40366,13.260377 12.9434,16.006045 3.46697,1.455586 4.48678,1.640332 8.995831,1.629651 3.905144,-0.0093 4.407683,-0.06729 6.482292,-0.748673 7.346426,-2.412855 12.56058,-7.673099 14.857939,-14.989273 0.545668,-1.737741 0.620186,-2.499598 0.620186,-6.340676 0,-5.058125 -0.35401,-6.601167 -2.458405,-10.715625 C 77.749868,20.175201 77.07091,19.292551 74.876866,17.098505 72.68282,14.904461 71.80017,14.225503 69.835863,13.220829 63.021885,9.7357253 55.935579,9.6154933 49.198359,12.87068 c -6.03979,2.918219 -10.36701,8.499202 -11.9049,15.354244 -0.49317,2.198225 -0.4835,6.61777 0.0198,9.073135 z M 97.474696,173.67146 c 2.466425,7.32987 8.178034,12.77048 15.355964,14.62735 12.24431,3.16752 24.35674,-3.93408 27.5292,-16.14055 0.69487,-2.67361 0.76165,-7.32256 0.14564,-10.13983 -1.70393,-7.79285 -7.36084,-14.0194 -14.97484,-16.48282 -3.04765,-0.98602 -7.73566,-1.31918 -10.74497,-0.7636 -6.0256,1.11245 -11.55093,4.74851 -14.7547,9.70966 -1.541588,2.38719 -2.166475,3.82281 -2.972349,6.82867 -0.562991,2.09993 -0.627239,2.81886 -0.543827,6.08542 0.08536,3.3428 0.179004,3.95503 0.959882,6.2757 z"
       id="path897"
       inkscape:connector-curvature="0" />
  </g>
</svg>
