<?xml version="1.0" encoding="UTF-8" standalone="no"?>
<svg
   xmlns:dc="http://purl.org/dc/elements/1.1/"
   xmlns:cc="http://creativecommons.org/ns#"
   xmlns:rdf="http://www.w3.org/1999/02/22-rdf-syntax-ns#"
   xmlns:svg="http://www.w3.org/2000/svg"
   xmlns="http://www.w3.org/2000/svg"
   xmlns:sodipodi="http://sodipodi.sourceforge.net/DTD/sodipodi-0.dtd"
   xmlns:inkscape="http://www.inkscape.org/namespaces/inkscape"
   viewBox="0 0 272.27499 294.46875"
   height="294.46875"
   width="272.27499"
   xml:space="preserve"
   version="1.1"
   id="svg4484"
   sodipodi:docname="charging.svg"
   inkscape:version="0.92.3 (2405546, 2018-03-11)"><sodipodi:namedview
     pagecolor="#ffffff"
     bordercolor="#666666"
     borderopacity="1"
     objecttolerance="10"
     gridtolerance="10"
     guidetolerance="10"
     inkscape:pageopacity="0"
     inkscape:pageshadow="2"
     inkscape:window-width="1920"
     inkscape:window-height="1053"
     id="namedview12"
     showgrid="false"
     inkscape:zoom="0.39267867"
     inkscape:cx="186.41328"
     inkscape:cy="476.24601"
     inkscape:window-x="0"
     inkscape:window-y="27"
     inkscape:window-maximized="1"
     inkscape:current-layer="svg4484" /><metadata
     id="metadata4490"><rdf:RDF><cc:Work
         rdf:about=""><dc:format>image/svg+xml</dc:format><dc:type
           rdf:resource="http://purl.org/dc/dcmitype/StillImage" /><dc:title></dc:title></cc:Work></rdf:RDF></metadata><defs
     id="defs4488" /><path
     id="path4504"
     style="fill:#ffeded;fill-opacity:0.92941176;fill-rule:evenodd;stroke:none;stroke-width:1.25"
     d="M 125.0975,0 C 117.71,0.005 111.71875,5.99125 111.71875,13.38375 v 13.38 H 99.0275 c -5.53125,-0.015 -13.3925,4.53125 -13.35375,12.5875 0.0288,29.93625 -0.17125,61.82125 0,86.46 h 0.01 c 0.005,15.1175 -0.005,28.555 -0.035,31.86 C 85.4825,174.7225 74.135,186.1825 58.18375,186.065 42.14875,185.9475 30.6,174.58 30.8,157.80375 c 0.0988,-8.365 0.36125,-37.1825 0.45,-47.1875 11.18125,-2.68125 19.12125,-12.36875 19.12125,-23.58 V 56.665 H 41.3675 V 29.45875 h -0.03 c -0.22,-1.19625 -1.73375,-2.09 -3.53,-2.095 -1.7975,0 -3.31125,0.89875 -3.53,2.095 h -0.03 V 56.665 H 16.1225 V 29.45875 h -0.0288 c -0.22,-1.19625 -1.73375,-2.09 -3.52625,-2.095 -1.79625,0 -3.31,0.89875 -3.53,2.095 H 9.00865 V 56.665 H 0 v 30.37125 c 0.0137,11.04 7.72875,20.665 18.755,23.4775 -0.0937,10.03375 -0.35625,38.87125 -0.455,47.1425 -0.2675,22.98375 17.47625,40.7475 39.79,40.90875 22.3925,0.16625 39.835,-17.7875 40.05375,-40.77625 0.0688,-6.91875 0.0488,-41.19125 0.03,-67.44625 h 13.545 V 274.4 h 13.37875 v 20.06875 H 258.89625 V 274.4 H 272.275 V 13.38375 C 272.275,5.99125 266.28875,0.005 258.89625,0 Z M 151.86,26.76375 h 80.27875 c 7.3875,0 13.37875,5.99125 13.37875,13.37875 v 60.26375 c 0,7.3875 -5.99125,13.37875 -13.37875,13.37875 H 151.86 c -7.3925,0 -13.37875,-5.99125 -13.38375,-13.37875 V 40.1425 c 0.005,-7.3875 5.99125,-13.37875 13.38375,-13.37875 z"
     inkscape:connector-curvature="0" /></svg>