<?xml version="1.0" encoding="UTF-8" standalone="no"?>
<!-- Created with Inkscape (http://www.inkscape.org/) -->

<svg
   xmlns:dc="http://purl.org/dc/elements/1.1/"
   xmlns:cc="http://creativecommons.org/ns#"
   xmlns:rdf="http://www.w3.org/1999/02/22-rdf-syntax-ns#"
   xmlns:svg="http://www.w3.org/2000/svg"
   xmlns="http://www.w3.org/2000/svg"
   xmlns:sodipodi="http://sodipodi.sourceforge.net/DTD/sodipodi-0.dtd"
   xmlns:inkscape="http://www.inkscape.org/namespaces/inkscape"
   width="72.310097mm"
   height="91.272667mm"
   viewBox="0 0 72.310098 91.272667"
   version="1.1"
   id="svg8"
   sodipodi:docname="loading.svg"
   inkscape:version="0.92.3 (2405546, 2018-03-11)">
  <defs
     id="defs2" />
  <sodipodi:namedview
     id="base"
     pagecolor="#ffffff"
     bordercolor="#666666"
     borderopacity="1.0"
     inkscape:pageopacity="0.0"
     inkscape:pageshadow="2"
     inkscape:zoom="0.98994949"
     inkscape:cx="-32.186768"
     inkscape:cy="203.86868"
     inkscape:document-units="mm"
     inkscape:current-layer="layer1"
     showgrid="false"
     inkscape:window-width="1920"
     inkscape:window-height="1053"
     inkscape:window-x="0"
     inkscape:window-y="27"
     inkscape:window-maximized="1" />
  <metadata
     id="metadata5">
    <rdf:RDF>
      <cc:Work
         rdf:about="">
        <dc:format>image/svg+xml</dc:format>
        <dc:type
           rdf:resource="http://purl.org/dc/dcmitype/StillImage" />
        <dc:title />
        <dc:title />
      </cc:Work>
    </rdf:RDF>
  </metadata>
  <g
     inkscape:label="Ebene 1"
     inkscape:groupmode="layer"
     id="layer1"
     transform="translate(-220.87406,-68.55188)">
    <path
       style="fill:#ededed;fill-opacity:1;stroke-width:0.26458335"
       d="m 241.56353,159.7436 c -4.70566,-0.91937 -8.23521,-4.47076 -9.41441,-9.47266 -0.44837,-1.90187 -0.44832,-2.08076 10e-4,-4.17222 0.25826,-1.20183 0.83279,-2.84225 1.27674,-3.64538 0.86506,-1.56494 2.95973,-3.80957 3.95596,-4.23918 0.3348,-0.14438 0.78732,-0.37194 1.0056,-0.5057 1.50061,-0.91954 2.5778,-1.1518 5.30779,-1.14441 2.71504,0.007 3.80624,0.24405 5.27554,1.14441 0.21828,0.13376 0.63675,0.34838 0.92993,0.47693 1.0076,0.44181 3.23796,2.8095 4.01566,4.26292 0.42826,0.80036 0.99006,2.38187 1.24844,3.51445 0.44293,1.94149 0.44462,2.17599 0.0296,4.10104 -0.97511,4.52271 -3.55802,7.64192 -7.56805,9.13944 -1.22315,0.45678 -4.84141,0.77921 -6.06389,0.54036 z m 3.8459,-7.06282 c 2.07987,-0.80429 3.03327,-2.19094 3.03327,-4.41166 0,-2.22758 -1.02103,-4.01465 -2.50681,-4.38755 -0.36751,-0.0922 -0.66819,-0.27386 -0.66819,-0.40361 0,-0.42949 -2.82852,-0.25698 -3.72416,0.22712 -0.98333,0.53151 -1.83209,1.28259 -1.83209,1.62125 0,0.1277 -0.17859,0.38041 -0.39687,0.56156 -0.28335,0.23516 -0.39688,0.85716 -0.39688,2.17437 0,1.47494 0.11723,2.01238 0.58449,2.67958 1.0216,1.45876 2.4903,2.24954 4.17801,2.24954 0.50932,0 1.28748,-0.13976 1.72923,-0.3106 z m 12.6431,0.12282 c 0.0749,-0.3839 0.26222,-1.17425 0.41625,-1.75633 0.15402,-0.58209 0.28289,-1.61544 0.28636,-2.29635 l 0.006,-1.23801 1.38906,-0.25667 c 0.76399,-0.14117 2.57969,-0.45743 4.0349,-0.70279 1.45521,-0.24537 3.06255,-0.55068 3.57187,-0.67847 0.50933,-0.1278 1.64042,-0.3069 2.51355,-0.39802 0.87312,-0.0911 1.94468,-0.27252 2.38125,-0.40311 0.43656,-0.1306 1.50812,-0.3501 2.38125,-0.48778 2.48129,-0.39126 6.23175,-1.05391 7.54062,-1.3323 0.65485,-0.13929 1.75514,-0.25843 2.4451,-0.26477 1.07188,-0.01 1.37128,0.11071 2.05704,0.82829 0.98357,1.02922 1.21226,1.8438 0.79823,2.84335 -0.69608,1.68048 -1.51544,2.03389 -6.22641,2.68557 -1.01865,0.14091 -2.03068,0.32263 -2.24896,0.40382 -0.21828,0.0812 -1.46844,0.32532 -2.77812,0.54251 -1.30969,0.2172 -3.33375,0.56979 -4.49792,0.78355 -1.16417,0.21376 -2.9501,0.50626 -3.96875,0.65001 -1.01865,0.14374 -2.20927,0.36904 -2.64583,0.50065 -0.43657,0.13162 -1.56766,0.32068 -2.51355,0.42013 -0.94588,0.0994 -1.89838,0.27053 -2.11666,0.38017 -0.21828,0.10964 -0.97398,0.26126 -1.67933,0.33694 -1.26944,0.13621 -1.28108,0.13052 -1.14626,-0.56039 z m -0.0848,-9.16214 c 0,-0.56684 -1.11702,-3.04523 -1.3725,-3.04523 -0.11825,0 -0.215,-0.15564 -0.215,-0.34587 0,-0.40681 -1.0822,-1.79503 -2.36407,-3.03259 -1.07611,-1.0389 -3.97054,-2.97154 -4.45034,-2.97154 -0.18508,0 -0.54326,-0.11037 -0.79595,-0.24527 -0.25269,-0.1349 -0.64004,-0.29911 -0.86078,-0.36491 -0.40587,-0.12098 -0.58955,-0.83513 -1.44227,-5.60753 -1.56407,-8.75355 -1.76085,-9.89277 -1.98803,-11.50938 -0.11248,-0.80036 -0.32973,-1.93146 -0.48278,-2.51354 -0.15306,-0.58208 -0.31649,-1.59349 -0.36318,-2.24756 l -0.0849,-1.18923 1.05834,-0.19241 c 0.58208,-0.10583 2.07036,-0.36668 3.30728,-0.57967 1.23693,-0.21299 3.32052,-0.58117 4.63021,-0.81818 1.30969,-0.23701 3.33375,-0.58564 4.49792,-0.77472 1.16416,-0.18909 2.29526,-0.41645 2.51354,-0.50524 0.21828,-0.0888 1.28984,-0.28592 2.38125,-0.43806 1.09141,-0.15214 2.99641,-0.45989 4.23333,-0.68389 6.97318,-1.26283 11.07508,-1.97241 13.36146,-2.31139 1.16417,-0.1726 2.23573,-0.39099 2.38125,-0.48533 0.14552,-0.0943 1.09802,-0.25787 2.11667,-0.36343 1.01865,-0.10556 2.0422,-0.2907 2.27457,-0.41142 0.55565,-0.28867 1.03306,0.20444 1.03149,1.06543 -10e-4,0.61991 0.22313,1.92735 1.20489,7.02468 0.35538,1.84513 0.73921,4.12688 1.20172,7.14375 0.13386,0.87313 0.36178,1.93269 0.5065,2.35459 0.14472,0.4219 0.26312,1.11924 0.26312,1.54964 0,0.43041 0.1702,1.5735 0.37822,2.54021 0.20802,0.96671 0.57373,2.88874 0.81268,4.27119 0.23895,1.38245 0.59641,3.34698 0.79435,4.36562 0.19794,1.01865 0.43359,2.51649 0.52367,3.32855 l 0.16377,1.47645 -1.93165,0.29474 c -1.06242,0.16211 -2.97367,0.47839 -4.24724,0.70284 -1.27357,0.22447 -3.35716,0.59067 -4.63021,0.8138 -1.27305,0.22313 -3.26713,0.57629 -4.4313,0.78481 -1.16416,0.20853 -3.15867,0.56175 -4.43224,0.78495 -2.31137,0.40507 -4.75517,0.83575 -9.12813,1.60867 -5.84423,1.03297 -6.41567,1.07986 -6.41567,0.52647 z m -19.94448,-10.7775 c -0.0938,-0.62218 -0.27947,-1.66702 -0.41267,-2.32186 -0.13319,-0.65484 -0.43354,-2.32172 -0.66742,-3.70417 -0.75545,-4.46517 -1.24183,-7.23535 -1.6027,-9.12812 -0.19421,-1.01865 -0.47789,-2.62599 -0.6304,-3.57188 -0.15252,-0.94588 -0.52126,-3.08901 -0.81943,-4.7625 -0.54704,-3.07022 -0.99464,-5.59379 -1.7013,-9.591913 -0.21212,-1.20012 -0.57734,-3.31314 -0.81161,-4.695587 -0.23426,-1.382448 -0.58951,-3.346979 -0.78943,-4.365625 -0.19993,-1.018646 -0.55218,-2.983177 -0.78278,-4.365625 -0.2306,-1.382448 -0.55041,-3.227916 -0.71069,-4.101041 -0.16028,-0.873125 -0.38528,-2.242344 -0.50001,-3.042709 -0.33344,-2.326119 -1.74784,-4.497916 -2.9293,-4.497916 -0.2612,0 -0.55817,-0.134721 -0.65994,-0.299376 -0.12359,-0.199973 -0.74375,-0.247203 -1.8677,-0.142248 l -1.68267,0.15713 v -1.535493 c 0,-0.844524 -0.16699,-2.090346 -0.37108,-2.7685 -0.23089,-0.767188 -0.27454,-1.292664 -0.11555,-1.390927 0.50504,-0.312135 5.23834,-0.200801 5.9741,0.140517 2.61492,1.213054 3.23527,1.598345 4.30187,2.671845 2.06744,2.080805 2.86746,4.318635 3.69843,10.345216 0.11297,0.819293 0.33163,2.069449 0.48591,2.778125 0.15428,0.708676 0.47638,2.479127 0.71578,3.934336 0.2394,1.455208 0.59356,3.47927 0.78702,4.497916 0.19346,1.018646 0.54504,2.983177 0.78129,4.365622 1.06466,6.230173 1.27228,7.379683 1.62477,8.995843 0.2063,0.94588 0.37478,2.00041 0.3744,2.34339 -2.6e-4,0.34298 0.16921,1.41454 0.37687,2.38125 0.20766,0.96671 0.57463,2.94827 0.8155,4.40348 0.24086,1.45521 0.59621,3.47927 0.78967,4.49792 0.49579,2.61052 1.14303,6.40066 1.3329,7.80521 0.0885,0.65484 0.26115,1.54781 0.38362,1.98437 0.12246,0.43656 0.27953,1.28577 0.34903,1.88713 l 0.12636,1.09338 -1.09513,0.15398 c -1.21317,0.17058 -3.50495,0.63497 -4.16909,0.8448 -0.3335,0.10536 -0.46581,-0.11478 -0.59862,-0.99597 z m 4.51885,-27.52342 c -0.74536,-3.51995 -1.50245,-7.793423 -2.03962,-11.512757 -0.15264,-1.05688 -0.39306,-2.225492 -0.53428,-2.596912 -0.14121,-0.371419 -0.25675,-1.065352 -0.25675,-1.542073 0,-0.476721 -0.16699,-1.421617 -0.37108,-2.099771 -0.42819,-1.422757 -0.36164,-1.507111 1.42824,-1.810445 0.65549,-0.111088 2.20383,-0.381265 3.44076,-0.60039 3.3581,-0.594903 6.47172,-1.143937 9.0615,-1.597846 1.27305,-0.223125 3.29711,-0.580313 4.49792,-0.79375 1.20081,-0.213436 3.19532,-0.552815 4.43224,-0.754173 1.23693,-0.201356 2.43978,-0.447874 2.673,-0.547812 0.34562,-0.148106 0.47759,0.102087 0.71367,1.352992 0.15931,0.844087 0.4288,2.249077 0.59888,3.122202 0.17008,0.873125 0.39981,2.25783 0.51051,3.077123 0.1107,0.819293 0.32751,2.069449 0.48179,2.778125 0.15428,0.708676 0.47544,2.479127 0.71369,3.934336 0.23825,1.455208 0.60324,3.419738 0.8111,4.365631 0.20785,0.94588 0.3776,1.91247 0.37722,2.14797 -7.9e-4,0.44462 -0.15884,0.48633 -4.23402,1.11687 -1.09141,0.16887 -2.10344,0.38282 -2.24896,0.47545 -0.14552,0.0926 -1.15277,0.25605 -2.23833,0.36316 -1.08556,0.1071 -2.15712,0.29055 -2.38125,0.40765 -0.22413,0.1171 -1.36001,0.35109 -2.52417,0.51997 -4.4728,0.64884 -6.09472,0.92807 -6.35,1.0932 -0.14552,0.0941 -1.18904,0.2571 -2.31892,0.36217 -1.12989,0.10506 -2.11918,0.29594 -2.19843,0.42417 -0.0793,0.12822 -0.48034,0.23314 -0.89131,0.23314 -0.71384,0 -0.76536,-0.0857 -1.1534,-1.91823 z"
       id="path853"
       inkscape:connector-curvature="0"
       sodipodi:nodetypes="cccsccccccccccccscscscscscccccsccccccccccccscccsccccsscsscsccccccsccscscsccccsssscccccsccscccccccccccsscscscscccccssscscsccccccccccccsccccscccssssccsccsccccsc" />
  </g>
</svg>
