<?xml version="1.0" encoding="UTF-8" standalone="no"?>
<!-- Created with Inkscape (http://www.inkscape.org/) -->

<svg
   xmlns:dc="http://purl.org/dc/elements/1.1/"
   xmlns:cc="http://creativecommons.org/ns#"
   xmlns:rdf="http://www.w3.org/1999/02/22-rdf-syntax-ns#"
   xmlns:svg="http://www.w3.org/2000/svg"
   xmlns="http://www.w3.org/2000/svg"
   xmlns:sodipodi="http://sodipodi.sourceforge.net/DTD/sodipodi-0.dtd"
   xmlns:inkscape="http://www.inkscape.org/namespaces/inkscape"
   width="72.770554mm"
   height="65.869766mm"
   viewBox="0 0 72.770554 65.869767"
   version="1.1"
   id="svg8"
   sodipodi:docname="parking_disc.svg"
   inkscape:version="0.92.3 (2405546, 2018-03-11)">
  <defs
     id="defs2" />
  <sodipodi:namedview
     id="base"
     pagecolor="#ffffff"
     bordercolor="#666666"
     borderopacity="1.0"
     inkscape:pageopacity="0.0"
     inkscape:pageshadow="2"
     inkscape:zoom="1.4"
     inkscape:cx="-45.495659"
     inkscape:cy="88.662022"
     inkscape:document-units="mm"
     inkscape:current-layer="layer1"
     showgrid="false"
     inkscape:window-width="1920"
     inkscape:window-height="1053"
     inkscape:window-x="0"
     inkscape:window-y="27"
     inkscape:window-maximized="1" />
  <metadata
     id="metadata5">
    <rdf:RDF>
      <cc:Work
         rdf:about="">
        <dc:format>image/svg+xml</dc:format>
        <dc:type
           rdf:resource="http://purl.org/dc/dcmitype/StillImage" />
        <dc:title />
        <dc:title />
      </cc:Work>
    </rdf:RDF>
  </metadata>
  <g
     inkscape:label="Ebene 1"
     inkscape:groupmode="layer"
     id="layer1"
     transform="translate(-44.480665,-59.512763)">
    <path
       style="fill:#ededed;stroke-width:0.26458332;fill-opacity:1"
       d="m 74.179599,124.98028 c -10.643731,-1.55154 -20.8184,-6.87453 -28.030852,-14.66465 l -1.668082,-1.80168 10.112312,-8.50301 10.112313,-8.503004 0.801863,0.90991 c 2.324062,2.637216 6.914424,5.257702 10.723739,6.121826 2.795045,0.634043 6.953859,0.583028 9.657292,-0.118464 3.932663,-1.020453 8.040229,-3.408527 10.327711,-6.00437 l 0.802714,-0.91092 10.116301,8.492574 10.11631,8.492578 -1.32275,1.52079 c -5.38792,6.19462 -14.47793,11.66419 -23.114164,13.90808 -5.522801,1.43494 -13.105154,1.86639 -18.634707,1.06034 z m 8.510066,-2.51699 0.684977,-0.81404 v -8.98868 c 0,-10.01156 -0.03851,-10.2596 -1.67708,-10.80038 -1.040715,-0.34347 -1.90332,-0.0943 -2.688545,0.77672 -0.503574,0.55856 -0.532866,1.01686 -0.605639,9.47563 -0.08037,9.34208 -0.01333,10.00016 1.097849,10.77847 0.303366,0.21248 0.990748,0.38634 1.527516,0.38634 0.764979,0 1.124011,-0.17597 1.660922,-0.81406 z m -22.201481,-5.49855 c 0.510992,-0.31532 1.406391,-1.55633 2.513541,-3.48374 0.945886,-1.64666 2.101853,-3.65823 2.568817,-4.47015 4.364894,-7.58931 4.645183,-8.16254 4.463845,-9.129153 -0.190058,-1.013095 -0.777764,-1.623224 -1.812276,-1.881418 -1.32171,-0.329871 -2.196669,0.295786 -3.476275,2.485781 -2.000776,3.42425 -2.486474,4.25623 -5.196035,8.90066 -2.664173,4.56663 -3.008481,5.55182 -2.362257,6.75931 0.296747,0.55447 1.481323,1.28369 2.110015,1.2989 0.218281,0.005 0.754062,-0.2108 1.190625,-0.48019 z m 42.970666,0.10738 c 0.40883,-0.21142 0.89072,-0.7402 1.07085,-1.17507 0.48963,-1.18209 0.14688,-1.98451 -3.23291,-7.56866 -0.35231,-0.58209 -1.511613,-2.60615 -2.576238,-4.49792 -1.064625,-1.89177 -2.227244,-3.881024 -2.583598,-4.420565 -1.069184,-1.618805 -2.921325,-1.878793 -4.065913,-0.570735 -0.743942,0.850191 -0.820989,1.59984 -0.287912,2.80132 0.420958,0.94877 3.868428,7.0137 6.207932,10.92123 0.348502,0.58208 1.042144,1.75367 1.541423,2.60352 1.269676,2.16119 2.386086,2.70338 3.926366,1.90688 z M 76.395897,77.0366 C 73.959,67.907813 71.904907,60.230445 71.831247,59.975784 c -0.125722,-0.434638 0.427807,-0.463021 9.029853,-0.463021 8.601922,0 9.155592,0.02839 9.030182,0.463021 -0.07348,0.254661 -2.118921,7.904427 -4.545425,16.999479 -2.426502,9.095052 -4.435991,16.564059 -4.465529,16.597797 -0.02954,0.03373 -2.047534,-7.407672 -4.484431,-16.53646 z"
       id="path840"
       inkscape:connector-curvature="0" />
  </g>
</svg>
