<svg xmlns="http://www.w3.org/2000/svg" xmlns:xlink="http://www.w3.org/1999/xlink" viewBox="0 0 500 500">
  <g fill-rule="evenodd" clip-rule="evenodd">
    <path d="M500 250C500 112.1 387.9 0 250 0S0 112.1 0 250s112.1 250 250 250 250-112.1 250-250" fill="#008d4f"/>
    <path d="M414.1 316.5c0 60.6-58.8 131.1-157.8 131.1-55.2 0-118.9-24.8-153.7-56v-78.7c33 47.5 93.1 84.1 153.7 84.1 37.1 0 66.9-21.2 66.9-43.9 0-85.4-223.8-32.6-223.8-179.9 0-77.3 75.5-118.9 143.3-118.9 56.5 0 107.1 18.5 147.4 49.7v65.6C355.3 132 302.9 99 241.4 99c-34.8 0-54.7 18.5-54.7 40.2 0 91.4 227.4 27.2 227.4 177.3" fill="#fff"/>
  </g>
</svg>
